<svg height="449pt" viewBox="0 0 449.255 449" width="449pt" xmlns="http://www.w3.org/2000/svg"><path d="m433.519531 309.78125v-309.652344h-154.832031v294.171875l-116.117188 77.414063-100.640624 15.480468v61.933594h340.621093c25.652344 0 46.449219-20.796875 46.449219-46.449218 0-1.714844-.09375-3.425782-.28125-5.128907zm0 0" fill="#ffd782"/><path d="m30.964844 387.195312h30.964844v61.933594h-30.964844zm0 0" fill="#aabece"/><path d="m30.964844 387.195312v61.933594h-30.964844v-30.96875c0-17.097656 13.863281-30.964844 30.964844-30.964844zm0 0" fill="#cfdfe8"/><path d="m278.6875 294.300781 154.832031 15.480469v-77.414062h-154.832031zm0 0" fill="#aabece"/><path d="m278.6875 154.953125h154.828125v77.414063h-154.828125zm0 0" fill="#cfdfe8"/><path d="m356.105469 302.042969 15.480469 147.085937h-77.414063l-15.484375-154.828125zm0 0" fill="#cfdfe8"/><path d="m294.171875 449.128906h-61.929687l-23.222657-108.378906 69.667969-46.449219zm0 0" fill="#aabece"/><path d="m170.300781 333.007812c-1.808593 0-3.558593-.632812-4.949219-1.792968l-46.449218-38.707032c-3.285156-2.738281-3.726563-7.621093-.988282-10.90625 1.757813-2.109374 4.507813-3.128906 7.21875-2.679687l37.4375 6.238281v-45.046875c-.003906-2.277343 1-4.4375 2.734376-5.90625 1.742187-1.460937 4.03125-2.09375 6.273437-1.730469l37.4375 6.238282v-37.3125c.003906-4.277344 3.472656-7.742188 7.75-7.738282 2.351563 0 4.570313 1.066407 6.039063 2.902344l30.964843 38.707032c2.667969 3.34375 2.117188 8.21875-1.226562 10.882812-3.339844 2.660156-8.195313 2.117188-10.867188-1.207031l-17.175781-21.476563v24.378906c-.003906 4.277344-3.46875 7.742188-7.746094 7.742188-.425781 0-.847656-.035156-1.265625-.105469l-37.4375-6.238281v45.050781c0 4.277344-3.46875 7.742188-7.742187 7.738281-.425782 0-.847656-.035156-1.269532-.101562l-18.285156-3.046875 24.515625 20.425781c3.285157 2.738282 3.730469 7.617188.996094 10.902344-1.472656 1.769531-3.660156 2.792969-5.964844 2.789062zm0 0" fill="#e9686a"/></svg>