<?xml version="1.0" encoding="utf-8"?>
<!-- Generator: Adobe Illustrator 16.0.0, SVG Export Plug-In . SVG Version: 6.00 Build 0)  -->
<!DOCTYPE svg PUBLIC "-//W3C//DTD SVG 1.1//EN" "http://www.w3.org/Graphics/SVG/1.1/DTD/svg11.dtd">
<svg version="1.1" id="Capa_1" xmlns="http://www.w3.org/2000/svg" xmlns:xlink="http://www.w3.org/1999/xlink" x="0px" y="0px"
	 width="512px" height="512px" viewBox="0 0 512 512" enable-background="new 0 0 512 512" xml:space="preserve">
<path fill="#FF2C5C" d="M160.469,508V208.184H284.09V508c0,2.211-1.793,4-4,4H164.469C162.258,512,160.469,510.211,160.469,508z"/>
<path fill="#E62753" d="M253.184,512V208.184h30.906V508c0,2.211-1.793,4-4,4H253.184z"/>
<path fill="#EBAD88" d="M290.617,134.676c13.48-16.168,20.27-31.398,20.27-53.723l-1.699-37.063c0-8.02-5.996-14.98-14.008-15.719
	c-2.402-0.223-4.699,0.113-6.785,0.883c-0.41,0.152-0.844-0.133-0.844-0.566V15.844c0-8.32-6.434-15.473-14.773-15.828
	c-7.539-0.324-13.949,4.742-15.676,11.652c-0.121,0.488-0.793,0.488-0.914,0c-1.727-6.91-8.137-11.977-15.676-11.652
	c-8.34,0.355-14.773,7.508-14.773,15.828v1.41c0,0.539-0.754,0.656-0.922,0.145c-1.52-4.563-5.348-11.594-14.527-11.598
	c-8.574,0-15.453,7.117-15.453,15.668v8.16c0,0.535-0.75,0.66-0.918,0.148c-1.465-4.512-5.16-11.164-14.234-11.309
	c-8.695-0.137-15.754,7.02-15.754,15.684V147.34c0,14.211,11.559,25.73,25.813,25.73h52.711
	C262.801,173.07,274.133,154.441,290.617,134.676z"/>
<path fill="#E8916F" d="M309.188,43.891c0-8.02-5.996-14.98-14.004-15.719c-2.406-0.223-4.699,0.113-6.789,0.883
	c-0.406,0.152-0.84-0.133-0.84-0.566V15.844c0-8.32-6.438-15.473-14.777-15.828c-7.539-0.324-13.945,4.742-15.672,11.652
	c-0.063,0.242-0.262,0.367-0.457,0.367v9.996c0,0.453,0.434,0.75,0.84,0.594c2.09-0.801,4.383-1.152,6.789-0.922
	c8.008,0.77,14.004,8.043,14.004,16.418l1.699,38.723c0,23.316-6.785,39.227-20.27,56.117
	c-16.484,20.648-27.816,40.109-48.16,40.109h-21.809h0.004h52.711c20.344,0,31.676-18.625,48.16-38.395
	c13.484-16.168,20.27-31.398,20.27-53.719L309.188,43.891z"/>
<path fill="#DCDFE8" d="M289.25,167.281v53.809c0,2.211-1.789,4-4,4H159.328c-2.207,0-4-1.789-4-4v-53.809c0-2.211,1.793-4,4-4
	H285.25C287.461,163.281,289.25,165.07,289.25,167.281z"/>
<path fill="#CBCDD9" d="M258.348,163.285v61.809h26.906c2.207,0,4-1.789,4-4v-53.809c0-2.211-1.793-4-4-4H258.348z"/>
</svg>
