<?xml version="1.0" encoding="iso-8859-1"?>
<!-- Generator: Adobe Illustrator 22.0.0, SVG Export Plug-In . SVG Version: 6.00 Build 0)  -->
<svg xmlns="http://www.w3.org/2000/svg" xmlns:xlink="http://www.w3.org/1999/xlink" version="1.1" x="0px" y="0px" viewBox="0 0 45.098 60.001" style="enable-background:new 0 0 45.098 60.001;" xml:space="preserve" width="512" height="512">
<g id="_x37_7-Liposuction">
	<path style="fill:#FBCE9D;" d="M39.109,27.167c-0.404-0.74-0.165-1.442,0.318-1.885c-0.241-0.603-0.365-1.252-0.355-1.909   c0.081-5.267-2.228-7.974-4.027-9.281c-1.312-0.953-2.079-2.493-1.97-4.11c0.404-5.988,1.936-8.981,1.936-8.981H7.023   c-2.857,4.343-4.791,9.533-5.629,14.643c-1.372,8.357,0.938,17.115,7.244,22.89c0.646-0.149,1.327,0.194,1.71,0.738   c-0.168-0.24,0.131,0.128,0.18,0.176c0.105,0.103,0.213,0.201,0.317,0.304c0.287,0.284,0.55,0.608,0.753,0.957   c0.371,0.639,0.221,1.392-0.261,1.89c0.216,1.442-0.012,3.012-0.356,4.401c-0.99,4-0.97,3-0.97,12h29c0-7,1.965-9,1.965-9   c1.234-2.16,2.037-4.247,2.518-6.235C43.048,38.06,41.854,32.192,39.109,27.167z"/>
	<path style="fill:#DD352E;" d="M39.236,24.716C25.948,37.352,15.037,39.018,8.315,38.247c0.413,0.393,0.842,0.773,1.291,1.138   c1.094,0.891,1.596,2.097,1.757,3.394c18.106-3.746,27.291-1.373,31.922,1.778c2.471-8.766-1.478-15.698-3.379-18.368   C39.587,25.743,39.371,25.241,39.236,24.716z"/>
	<path style="fill:#4D007E;" d="M10.011,60.001c-0.552,0-1-0.447-1-1v-0.524c0-7.618,0-7.764,0.75-10.725l0.249-0.991   c0.797-3.224,0.458-5.383-1.037-6.601C2.005,34.481-1.198,25.257,0.407,15.482C1.287,10.117,3.34,4.779,6.188,0.451   C6.491-0.01,7.112-0.14,7.573,0.166c0.461,0.303,0.589,0.923,0.286,1.385C5.162,5.649,3.216,10.712,2.38,15.807   c-1.487,9.059,1.45,17.583,7.857,22.803c2.126,1.732,2.703,4.637,1.715,8.632L11.7,48.243c-0.689,2.72-0.689,2.72-0.688,10.233   v0.524C11.011,59.554,10.564,60.001,10.011,60.001z"/>
	<path style="fill:#4D007E;" d="M39.011,60.001c-0.552,0-1-0.447-1-1c0-6.541,1.667-9.01,2.146-9.583   c6.021-10.627,1.263-19.375-1.067-22.648c-0.685-0.962-1.037-2.142-1.018-3.411c0.073-4.767-1.925-7.229-3.614-8.457   c-1.622-1.178-2.511-3.042-2.379-4.986c0.413-6.122,1.977-9.24,2.043-9.369c0.251-0.493,0.853-0.688,1.346-0.436   c0.492,0.252,0.686,0.854,0.435,1.346c-0.013,0.026-1.446,2.928-1.828,8.594c-0.084,1.254,0.499,2.463,1.56,3.234   c2.072,1.505,4.525,4.48,4.438,10.104c-0.013,0.84,0.211,1.608,0.647,2.221c2.56,3.596,7.792,13.22,1.125,24.888l-0.155,0.205   c-0.001,0.002-1.678,1.949-1.678,8.299C40.011,59.554,39.564,60.001,39.011,60.001z"/>
	<path style="fill:#4D007E;" d="M43.869,46.166l-1.148-0.781c-4.15-2.823-12.924-5.398-31.157-1.626l-1.062,0.22l-0.133-1.077   c-0.148-1.199-0.605-2.097-1.396-2.741c-0.456-0.372-0.91-0.771-1.348-1.188l-2.164-2.059l2.967,0.341   c6.583,0.75,17.153-0.933,30.119-13.262l1.234-1.173l0.424,1.648c0.112,0.436,0.285,0.82,0.514,1.141   c1.927,2.707,6.127,9.997,3.527,19.221L43.869,46.166z M27.873,39.846c6.133,0,11.07,1.047,14.77,3.139   c1.648-7.774-1.885-13.873-3.552-16.215c-0.079-0.11-0.152-0.224-0.222-0.341c-11.313,10.37-20.93,12.978-27.735,12.978   c-0.032,0-0.064,0-0.096,0c0.511,0.624,0.883,1.357,1.111,2.193C18.043,40.43,23.292,39.846,27.873,39.846z"/>
	<path style="fill:#4D007E;" d="M2.114,29.003c-0.462,0-0.877-0.321-0.977-0.791c-0.115-0.54,0.229-1.071,0.769-1.187   c0.791-0.169,1.051-1.234,1.053-1.245c0.126-0.535,0.659-0.872,1.196-0.75c0.535,0.121,0.874,0.647,0.757,1.184   c-0.188,0.863-0.945,2.416-2.588,2.767C2.253,28.996,2.183,29.003,2.114,29.003z"/>
	<g>
		<path style="fill:#4D007E;" d="M14.468,39.19c-0.053,0-0.106-0.004-0.16-0.013c-0.545-0.088-0.916-0.601-0.828-1.146    c0.157-0.974,0.278-1.951,0.36-2.903c0.047-0.55,0.533-0.965,1.082-0.91c0.55,0.047,0.958,0.532,0.91,1.082    c-0.086,1.001-0.214,2.027-0.378,3.05C15.375,38.841,14.95,39.19,14.468,39.19z M14.936,31.219c-0.532,0-0.974-0.419-0.998-0.955    c-0.043-0.975-0.125-1.954-0.242-2.913c-0.067-0.548,0.323-1.047,0.871-1.113c0.552-0.079,1.047,0.323,1.114,0.871    c0.123,1.009,0.209,2.041,0.255,3.065c0.025,0.552-0.403,1.02-0.955,1.044C14.966,31.219,14.951,31.219,14.936,31.219z     M13.751,23.321c-0.443,0-0.848-0.297-0.966-0.745c-0.249-0.946-0.54-1.882-0.863-2.78c-0.187-0.52,0.083-1.093,0.602-1.279    c0.52-0.19,1.092,0.083,1.28,0.602c0.343,0.954,0.651,1.945,0.916,2.948c0.141,0.534-0.178,1.081-0.712,1.222    C13.921,23.31,13.835,23.321,13.751,23.321z M10.798,15.91c-0.35,0-0.689-0.184-0.873-0.511c-0.48-0.855-1.002-1.673-1.551-2.431    c-0.324-0.447-0.224-1.073,0.224-1.396c0.447-0.326,1.072-0.224,1.396,0.223c0.594,0.82,1.157,1.704,1.675,2.626    c0.27,0.481,0.099,1.091-0.383,1.361C11.131,15.869,10.963,15.91,10.798,15.91z M5.821,9.697c-0.23,0-0.461-0.079-0.65-0.24    c-0.616-0.528-1.258-1.002-1.908-1.41c-0.468-0.293-0.609-0.91-0.316-1.378c0.294-0.467,0.911-0.61,1.379-0.315    c0.733,0.459,1.455,0.992,2.146,1.584c0.419,0.359,0.469,0.991,0.109,1.41C6.383,9.579,6.103,9.697,5.821,9.697z"/>
	</g>
</g>

</svg>
