<svg height="512pt" viewBox="-28 0 511 512" width="512pt" xmlns="http://www.w3.org/2000/svg"><path d="m453.199219 271c0 6.597656-1.195313 12.898438-2.996094 19.199219-2.101563 6-5.101563 11.699219-9.300781 16.800781l-29.101563 12-29.097656 12h-273.304687l-47.097657-12-46.800781-12c-4.199219-5.101562-7.199219-10.800781-9.300781-16.800781-1.800781-6.300781-3-12.601563-3-19.199219 0-13.199219 4.203125-25.199219 11.402343-35.101562 6.898438-9.898438 17.097657-17.398438 28.800782-21.597657-3.300782-4.800781-6-9.902343-7.5-15.601562-1.800782-5.699219-2.703125-11.699219-2.703125-17.699219 0-8.101562 1.5-15.902344 4.503906-22.800781 2.996094-7.199219 7.199219-13.800781 12.898437-19.199219l-19.800781-139h394.800781l-19.800781 139c5.699219 5.398438 9.898438 12 12.898438 19.199219 3 6.898437 4.5 14.699219 4.5 22.800781 0 6.296875-.898438 12.296875-2.699219 17.996094-1.800781 5.402344-4.199219 10.800781-7.796875 15.601562 11.996094 4.5 22.199219 12 29.398437 21.898438 6.898438 9.601562 11.097657 21.605468 11.097657 34.503906zm0 0" fill="#ffcebf"/><path d="m455.300781 400.601562c-1.800781 26.996094-9 52.796876-21 77.097657l-16.800781 34.300781h-174.300781v-64l-15-17.101562-15 17.101562v64h-174.296875l-16.800782-34c-12-24.300781-19.199218-50.402344-21-77.398438 0 0 14.699219-14.703124 25.199219-24.902343l201.898438 45 195.601562-43.800781zm0 0" fill="#ffcebf"/><g fill="#ffb99c"><path d="m455.300781 400.601562c-1.800781 26.996094-9 52.796876-21 77.097657l-16.800781 34.300781h-174.300781v-64l-15-17.101562v-10.199219l195.601562-43.800781zm0 0"/><path d="m453.199219 271c0 6.597656-1.195313 12.898438-2.996094 19.199219-2.101563 6-5.101563 11.699219-9.300781 16.800781l-29.101563 12-29.097656 12h-154.503906v-331h197.402343l-19.800781 139c5.699219 5.398438 9.902344 12 12.898438 19.199219 3.003906 6.898437 4.503906 14.699219 4.503906 22.800781 0 6.296875-.902344 12.296875-2.703125 17.996094-1.800781 5.402344-4.199219 10.800781-7.796875 15.601562 12 4.5 22.199219 12 29.398437 21.898438 6.898438 9.601562 11.097657 21.605468 11.097657 34.503906zm0 0"/><path d="m243.199219 256c0 8.398438-6.597657 15-15 15-8.398438 0-15-6.601562-15-15 0-8.402344 6.601562-15 15-15 8.402343 0 15 6.597656 15 15zm0 0"/></g><path d="m123.199219 256h30v60h-30zm0 0" fill="#895d3c"/><path d="m159.058594 201.816406-27.65625-11.632812c11.457031-27.230469 33.972656-48.484375 61.804687-58.316406l9.988281 28.304687c-19.878906 7.015625-35.960937 22.191406-44.136718 41.644531zm0 0" fill="#895d3c"/><path d="m297.34375 201.816406c-8.175781-19.453125-24.257812-34.628906-44.136719-41.648437l9.988281-28.300781c27.832032 9.828124 50.347657 31.085937 61.800782 58.316406zm0 0" fill="#714c2f"/><path d="m303.199219 256h30v60h-30zm0 0" fill="#714c2f"/><path d="m455.902344 384.097656v4.800782c0 3.902343-.300782 7.800781-.601563 11.703124l-30.902343 6.898438-181.199219 40.5h-30l-181.195313-40.5-30.902344-6.898438c-.300781-3.902343-.601562-7.800781-.601562-11.703124v-4.800782c0-4.796875.300781-9.296875.601562-14.097656 1.199219-20.097656 5.699219-40.199219 12.898438-59.398438l1.5-3.601562h425.402344l1.5 3.601562c7.199218 19.199219 11.699218 39.300782 12.902344 59.398438.296874 4.800781.597656 9.300781.597656 14.097656zm0 0" fill="#a0deb0"/><path d="m455.902344 384.097656v4.800782c0 3.902343-.300782 7.800781-.601563 11.703124l-30.902343 6.898438-181.199219 40.5h-15v-141h212.703125l1.5 3.601562c7.199218 19.199219 11.699218 39.296876 12.898437 59.398438.300781 4.800781.601563 9.300781.601563 14.097656zm0 0" fill="#80d398"/><path d="m243.199219 256c0 8.398438-6.597657 15-15 15v-30c8.402343 0 15 6.597656 15 15zm0 0" fill="#ff9468"/></svg>