<?xml version="1.0" encoding="utf-8"?>
<!-- Generator: Adobe Illustrator 16.0.0, SVG Export Plug-In . SVG Version: 6.00 Build 0)  -->
<!DOCTYPE svg PUBLIC "-//W3C//DTD SVG 1.1//EN" "http://www.w3.org/Graphics/SVG/1.1/DTD/svg11.dtd">
<svg version="1.1" id="Capa_1" xmlns="http://www.w3.org/2000/svg" xmlns:xlink="http://www.w3.org/1999/xlink" x="0px" y="0px"
	 width="400px" height="400px" viewBox="0 0 400 400" enable-background="new 0 0 400 400" xml:space="preserve">
<circle fill="#EA7171" cx="334" cy="102" r="58.5"/>
<circle fill="#EA7171" cx="66" cy="102" r="58.5"/>
<g>
	<g>
		<g>
			<path d="M375,0v82.112c0.113,56.591-25.442,110.18-69.487,145.713l-76.351,61.85c-17.152,13.342-41.171,13.342-58.325,0
				l-76.35-61.85C50.443,192.292,24.887,138.703,25,82.112V0H0v82.112c-0.067,62.333,27.378,121.519,75,161.737V350h25v-85.537
				l55.112,44.649c26.176,21.186,63.6,21.186,89.775,0L300,264.463V350h25V243.85c47.622-40.219,75.067-99.404,75-161.737V0H375z"/>
			<path d="M137.712,167.737C150.979,189.109,174.89,201.494,200,200c25.055,1.489,48.919-10.841,62.2-32.138
				c7.731,2.013,15.686,3.042,23.675,3.063h1.625v-25h-1.625c-11.744-0.015-23.297-2.962-33.612-8.575l-18.513-9.85l-2.025-0.862
				c-9.833-3.222-20.618-1.479-28.938,4.675c-0.986,0.715-1.934,1.482-2.837,2.3c-0.903-0.818-1.851-1.585-2.838-2.3
				c-8.316-6.16-19.104-7.903-28.938-4.675l-21.487,11.075c-10.539,5.529-22.287,8.355-34.188,8.225l1.25,25
				C121.842,170.904,129.896,169.828,137.712,167.737z M176.775,150.15c2.012-0.393,4.095,0.104,5.712,1.363
				c3.317,2.662,5.177,6.737,5.013,10.987h25c-0.171-4.251,1.685-8.333,5-11c1.6-1.265,3.675-1.763,5.675-1.362l15.338,8.212
				c-9.288,11.584-23.71,17.819-38.513,16.65c-14.883,1.276-29.408-5.03-38.638-16.775L176.775,150.15z"/>
			<path d="M212.5,75H250V50h-37.5c-6.904,0-12.5-5.596-12.5-12.5V0h-25v37.5C175,58.211,191.79,75,212.5,75z"/>
			<rect x="75" y="375" width="25" height="25"/>
			<rect x="300" y="375" width="25" height="25"/>
		</g>
	</g>
</g>
</svg>
