<svg height="512pt" viewBox="-52 0 512 512.00007" width="512pt" xmlns="http://www.w3.org/2000/svg"><path d="m298.90625 227.546875c-12.238281-27.050781-31.078125-54.851563-55.742188-80.324219-47.832031-49.410156-105.128906-77.234375-149.660156-77.011718l-9.667968 7.019531c-29.421876 21.355469-46.625 55.671875-46.121094 92.015625l2.253906 46.054687-29.96875 73.273438c3.117188 4.5625 8.472656 7.074219 13.976562 6.550781l24.277344-2.296875-4.800781 31.421875c17.609375-1.160156 29.914063 38.023438 20.953125 48.535156 3.789062 2.617188-.742188 58.863282 34.84375 62.023438 6.613281.585937 67.5625-1.730469 67.960938-1.808594 2.480468 27.824219 2.886718 37.988281-1.351563 54.21875h115.484375c-7.625-29.199219-28.984375-88.890625-30.492188-136.867188 16.316407-22.542968 29.1875-47.886718 38.195313-72.75 0 0 10.875-44.816406 9.859375-50.054687zm0 0" fill="#e69381"/><path d="m96.328125 338.980469c.265625-.164063-30.632813-17.371094-47.835937-18.78125-3.160157-.261719-7.324219 3.386719-9.09375 9.933593-1.179688 3.890626 1.128906 13.863282 9.414062 18.378907l-1.945312 4.242187c-3.675782 8.023438.1875 16.820313 8.601562 19.5.113281.035156.222656.070313.335938.105469 7.527343 2.417969 15.722656-.972656 19.285156-8.027344 7.007812-13.878906 2.453125-13.96875 21.238281-25.351562zm0 0" fill="#a85a45"/><path d="m76.039062 83.441406c39.949219 1.148438 44.519532 33.640625 97.046876 95.957032 1.277343 1.519531 2.585937 3.054687 3.925781 4.605468 10.246093 11.902344 18.488281 18.976563 25.183593 24.160156.910157.703126 1.792969 1.375 2.644532 2.015626 12.195312 9.160156 18.824218 12.707031 23.289062 32.054687.609375 2.640625.09375 5.960937-1.210937 9.941406-7.132813 21.796875-37.820313 63.359375-35.96875 120.957031 1.582031 49.128907 41.363281 114.085938 41.363281 114.085938 239.570312 20.101562 145.535156-178.558594 159.039062-262.429688 29.210938-181.5-172.921874-298.191406-315.3125-141.347656zm0 0" fill="#a85a45"/><path d="m138.203125 464.199219c-2.539063-2.480469-6.207031-3.421875-9.628906-2.480469l-22.726563 6.246094c-5.324218 1.464844-8.457031 6.96875-6.992187 12.292968.46875 1.699219 1.347656 3.175782 2.503906 4.351563-10.824219 6.199219-23.585937 8.6875-36.179687 6.75-5.460938-.828125-10.5625 2.910156-11.398438 8.371094-.835938 5.457031 2.910156 10.5625 8.367188 11.398437 3.808593.585938 7.628906.871094 11.429687.871094 15.359375 0 30.390625-4.6875 43.007813-13.363281 1.257812 2.554687 3.59375 4.5625 6.574218 5.300781.808594.199219 1.613282.292969 2.410156.292969 4.488282 0 8.570313-3.042969 9.699219-7.597657l5.664063-22.871093c.851562-3.445313-.1875-7.085938-2.730469-9.5625zm0 0"/><path d="m50.136719 400.226562c-2.867188-2.097656-6.628907-2.519531-9.882813-1.105468l-21.625 9.367187c-5.070312 2.195313-7.398437 8.085938-5.203125 13.152344 1.222657 2.816406 3.585938 4.789063 6.316407 5.605469-8.070313 17.308594-9.394532 37.285156-3.304688 55.730468 1.386719 4.207032 5.292969 6.871094 9.492188 6.871094 1.039062 0 2.097656-.164062 3.136718-.507812 5.246094-1.730469 8.09375-7.386719 6.359375-12.628906-3.988281-12.097657-3.648437-25.085938.675781-36.78125 1.347657.945312 2.953126 1.570312 4.707032 1.75.347656.03125.691406.050781 1.03125.050781 5.0625 0 9.410156-3.832031 9.9375-8.980469l2.398437-23.4375c.359375-3.53125-1.175781-6.988281-4.039062-9.085938zm0 0"/><path d="m403.867188 297.554688c-2.882813-27.144532-5.605469-52.78125-2.644532-71.175782 7.351563-45.667968.972656-89.914062-18.445312-127.953125-18.125-35.511719-47.429688-64.359375-82.507813-81.234375-35.582031-17.1171872-75.074219-21.558594-114.210937-12.84375-42.25 9.40625-82.707032 34.28125-117.03125 71.9375-26.535156 23.371094-41.804688 57.394532-41.3125 93.097656 0 .117188.003906.234376.011718.351563l2.144532 43.839844-29.128906 71.214843c-1.269532 3.109376-.894532 6.652344 1 9.429688 5.171874 7.5625 14.050781 11.734375 23.179687 10.863281l11.441406-1.085937-2.242187 14.191406c-1.878906 2.582031-3.378906 5.699219-4.34375 9.214844-1.992188 6.875.488281 16.824218 6.902344 24.019531-1.820313 5.683594-1.554688 11.789063.816406 17.148437 2.765625 6.253907 8.210937 11.070313 14.921875 13.207032l.328125.105468c1.15625.371094 2.320312.65625 3.484375.863282.066406.574218.136719 1.148437.199219 1.691406 2.027343 17.117188 6.769531 57.207031 41.9375 60.332031 4.910156.4375 41.046874-.636719 59.699218-1.378906 1.65625 20.5 1.414063 28.679687-1.882812 41.300781-.78125 2.996094-.132813 6.1875 1.761718 8.640625 1.890626 2.453125 4.816407 3.886719 7.914063 3.886719h61.425781c.871094 0 3.621094-.082031 4.191406-.035156 11.636719.976562 22.660157 1.46875 33.085938 1.46875 51.558594 0 88.457031-11.980469 112.257812-36.308594 40.183594-41.085938 33.203126-106.804688 27.046876-164.789062zm-354.757813 34.980468c.269531-.929687.582031-1.609375.855469-2.082031 7.742187 1.273437 18.589844 5.746094 27.207031 9.796875-3.855469 3.609375-5.703125 7.058594-7.804687 12.328125-.796876 2-1.695313 4.261719-3.203126 7.246094-1.351562 2.671875-4.425781 3.9375-7.261718 3.027343l-.402344-.128906c-1.308594-.417968-2.25-1.191406-2.710938-2.242187-.46875-1.058594-.410156-2.292969.167969-3.558594l1.945313-4.242187c2.191406-4.773438.308594-10.429688-4.304688-12.945313-3.402344-1.855469-4.445312-5.941406-4.488281-7.199219zm116.867187 90.542969c.085938-.011719.167969-.019531.238282-.027344-.078125.007813-.160156.015625-.238282.027344zm196.546876 25.277344c-23.515626 24.042969-64.1875 33.640625-124.226563 29.300781-8.601563-15.011719-36.097656-65.902344-37.351563-104.839844-1.300781-40.394531 14.367188-72.371094 25.804688-95.71875 4.097656-8.359375 7.632812-15.578125 9.671875-21.8125 1.71875-5.246094-1.144531-10.894531-6.390625-12.613281-5.25-1.714844-10.898438 1.144531-12.613281 6.390625-1.609375 4.910156-4.859375 11.546875-8.625 19.234375-11.667969 23.808594-29.296875 59.792969-27.835938 105.160156 1.1875 36.886719 22.035157 80.980469 34.21875 103.761719h-37.070312c1.703125-12.054688.964843-23.84375-.929688-45.105469-.253906-2.8125-1.679687-5.390625-3.933593-7.09375-1.953126-1.476562-4.371094-2.171875-6.789063-1.988281-5.566406.308594-60.933594 2.253906-66.316406 1.8125-17.515625-1.554688-21.492188-22.886719-23.84375-42.757812-.15625-1.324219-.304688-2.5625-.457031-3.710938 3.363281-2.390625 6.199218-5.613281 8.183593-9.539062 1.902344-3.777344 3.074219-6.714844 3.929688-8.855469 1.921875-4.835938 2.21875-5.578125 13.5625-12.449219 0 0 0-.003906.003906-.003906 3.703125-2.246094 5.542969-6.632813 4.546875-10.851563-1.09375-4.628906-3.9375-6.132812-10.164062-9.425781-2.871094-1.519531-7.449219-3.855469-12.953126-6.367188-10.800781-4.925781-20.003906-8.183593-27.464843-9.730468l2.648437-16.765625c.484375-3.054688-.472656-6.15625-2.589844-8.40625-2.113281-2.253907-5.152343-3.402344-8.226562-3.109375l-24.277344 2.296875c-.28125.027343-.5625.03125-.84375.011719l27.035156-66.09375c.550782-1.355469.800782-2.8125.730469-4.273438l-2.246093-45.878906c-.347657-28.589844 11.402343-55.878906 31.933593-75.265625 18.359375 1.710937 26.574219 12.128906 46.933594 41.007812 9.726563 13.792969 21.828125 30.957031 38.863281 51.167969 3.558594 4.226562 9.867188 4.761719 14.089844 1.203125s4.761719-9.867187 1.199219-14.09375c-16.476563-19.550781-28.304688-36.324219-37.804688-49.800781-16.386719-23.242188-27.8125-39.445313-46.652343-46.210938 69.027343-66.390625 145.199218-65.839844 195.328124-41.730468 67.734376 32.585937 103.015626 106.375 89.878907 187.988281-3.386719 21.027343-.527344 47.957031 2.5 76.464843 5.691406 53.597657 12.140625 114.34375-21.457031 148.691407zm0 0"/><path d="m204.847656 220.175781c-.660156 0-1.3125-.058593-1.960937-.191406-.640625-.128906-1.269531-.320313-1.871094-.570313-.597656-.25-1.1875-.558593-1.726563-.917968-.542968-.371094-1.0625-.789063-1.523437-1.25-.457031-.460938-.878906-.96875-1.238281-1.519532-.359375-.539062-.671875-1.121093-.921875-1.722656-.25-.609375-.4375-1.238281-.566407-1.867187-.132812-.652344-.203124-1.3125-.203124-1.960938 0-.648437.070312-1.3125.203124-1.949219.128907-.640624.316407-1.269531.566407-1.871093.25-.609375.5625-1.1875.921875-1.730469.359375-.550781.78125-1.058594 1.238281-1.519531.460937-.460938.980469-.878907 1.523437-1.238281.539063-.359376 1.128907-.671876 1.726563-.921876.601563-.25 1.230469-.4375 1.871094-.570312 1.289062-.257812 2.621093-.257812 3.910156 0 .640625.132812 1.269531.320312 1.871094.570312.597656.25 1.179687.5625 1.71875.921876.550781.359374 1.0625.777343 1.53125 1.238281.457031.460937.867187.96875 1.238281 1.519531.359375.542969.671875 1.121094.921875 1.730469.25.601562.4375 1.230469.566406 1.871093.132813.640626.191407 1.300782.191407 1.949219 0 .648438-.058594 1.308594-.191407 1.960938-.128906.628906-.316406 1.257812-.566406 1.867187-.25.601563-.5625 1.183594-.921875 1.722656-.371094.550782-.78125 1.058594-1.238281 1.519532-.472657.460937-.980469.878906-1.53125 1.25-.539063.359375-1.121094.667968-1.71875.917968-.601563.25-1.230469.441407-1.871094.570313-.652344.132813-1.300781.191406-1.949219.191406zm0 0"/><path d="m148.097656 208.042969c.554688-1.515625.746094-3.1875.488282-4.894531-.820313-5.460938-5.90625-9.230469-11.371094-8.40625l-.253906.039062c-8.609376 1.277344-17.164063 4.054688-25.429688 8.246094-2.621094 1.332031-5.746094 2.511718-9.035156 3.414062-7.019532 1.921875-12.210938 1.921875-14.523438 1.546875-2.394531-3.152343-6.554687-4.703125-10.609375-3.59375-5.324219 1.460938-8.457031 6.960938-7 12.285157 2.0625 7.523437 9.683594 11.542968 20.691407 11.542968 4.304687 0 9.128906-.617187 14.339843-1.878906l7.570313 8.042969c1.96875 2.089843 4.621094 3.144531 7.28125 3.144531 2.460937 0 4.921875-.902344 6.855468-2.722656 4.019532-3.785156 4.210938-10.113282.421876-14.132813l-.917969-.976562 11.761719 5.785156c1.417968.699219 2.921874 1.03125 4.40625 1.03125 3.691406 0 7.238281-2.054687 8.980468-5.589844 2.28125-4.640625.636719-10.195312-3.65625-12.882812zm0 0"/></svg>