<?xml version="1.0" encoding="utf-8"?>
<!-- Generator: Adobe Illustrator 16.0.0, SVG Export Plug-In . SVG Version: 6.00 Build 0)  -->
<!DOCTYPE svg PUBLIC "-//W3C//DTD SVG 1.1//EN" "http://www.w3.org/Graphics/SVG/1.1/DTD/svg11.dtd">
<svg version="1.1" id="Capa_1" xmlns="http://www.w3.org/2000/svg" xmlns:xlink="http://www.w3.org/1999/xlink" x="0px" y="0px"
	 width="400px" height="400px" viewBox="0 0 400 400" enable-background="new 0 0 400 400" xml:space="preserve">
<path fill="#FED2A4" d="M257.813,128.906C257.813,57.89,199.923,0,128.906,0S0,57.89,0,128.906c0,32.578,6.094,64.688,11.953,95.858
	c5.625,30.235,11.484,61.954,11.484,92.423c0,45.234,36.797,82.813,82.031,82.813c8.202,0,15.938-1.172,23.438-3.517
	c33.75-10.078,58.594-42.267,58.594-79.296c0-5.625-0.47-11.017-1.641-16.406c-5.625-28.125,14.766-61.251,34.22-80.702
	C244.453,195.702,257.813,163.358,257.813,128.906z"/>
<path fill="#FFBD86" d="M220.078,220.078c-19.453,19.452-39.844,52.577-34.219,80.703c1.172,5.39,1.641,10.782,1.641,16.406
	c0,37.03-24.844,69.218-58.594,79.296V0c71.017,0,128.906,57.89,128.906,128.906C257.813,163.358,244.453,195.702,220.078,220.078z"
	/>
<path fill="#F6A96C" d="M209.062,110.858c-6.796-31.64-32.811-56.718-64.92-62.577c-5.157-0.937-10.313-1.406-15.235-1.406
	c-44.765,0-82.031,36.328-82.031,82.031c0,37.734,9.608,76.64,16.642,117.188c3.28,20.391,20.625,35.156,41.016,35.156
	c8.906,0,17.344-3.047,24.374-8.204c8.202-5.859,14.297-14.766,16.406-25.312l1.641-8.906c5.155-26.017-2.345-51.094-18.048-69.376
	c-14.062-16.641-34.687-27.656-58.359-28.827c-0.234-3.985-0.234-7.735-0.234-11.719c0-31.875,25.781-58.594,58.594-58.594
	c3.517,0,7.266,0.234,11.015,0.937c22.501,4.219,41.486,22.501,46.173,44.532c4.453,20.391-1.406,40.077-15.702,54.608l16.64,16.642
	C206.719,167.109,214.921,138.749,209.062,110.858z"/>
<g>
	<rect x="281.25" y="187.5" fill="#FF9F00" width="118.75" height="23.438"/>
	<polygon fill="#FF9F00" points="382.259,350.326 287.728,303.451 298.21,282.486 392.741,329.361 	"/>
	<polygon fill="#FF9F00" points="298.21,115.952 287.728,94.986 382.259,48.111 392.741,69.077 	"/>
</g>
<g>
	<path fill="#EA9B58" d="M128.906,169.452c15.702,18.282,23.203,43.358,18.048,69.376l-1.641,8.906
		c-2.11,10.546-8.204,19.452-16.406,25.312L128.906,169.452L128.906,169.452z"/>
	<path fill="#EA9B58" d="M187.03,187.03l-16.64-16.641c14.297-14.531,20.156-34.218,15.702-54.609
		c-4.688-22.031-23.672-40.313-46.172-44.532c-3.749-0.702-7.498-0.936-11.014-0.936V46.875c4.923,0,10.078,0.47,15.235,1.406
		c32.109,5.859,58.124,30.938,64.921,62.577C214.921,138.749,206.719,167.109,187.03,187.03z"/>
</g>
</svg>
