<?xml version="1.0" encoding="utf-8"?>
<!-- Generator: Adobe Illustrator 16.0.0, SVG Export Plug-In . SVG Version: 6.00 Build 0)  -->
<!DOCTYPE svg PUBLIC "-//W3C//DTD SVG 1.1//EN" "http://www.w3.org/Graphics/SVG/1.1/DTD/svg11.dtd">
<svg version="1.1" id="Layer_1" xmlns="http://www.w3.org/2000/svg" xmlns:xlink="http://www.w3.org/1999/xlink" x="0px" y="0px"
	 width="400px" height="400px" viewBox="0 0 400 400" enable-background="new 0 0 400 400" xml:space="preserve">
<path fill="#EAC6BB" d="M382.923,221.094c-4.663-36.28-13.989-90.259-31.983-141.419c-1.232-3.503-4.639-5.768-8.338-5.554
	l-57.263,3.277c-4.249,0.238-7.63,3.649-7.837,7.904c-3.564,71.344-2.99,111.305-1.855,132.446
	c-16.174-11.176-44.189-25.043-83.497-25.043c-21.143,0-43.274,4.084-65.87,12.158c-3.943-5.677-10.949-14.453-21.485-23.182
	c-16.125-13.342-44.079-29.279-85.352-28.839c-4.565,0.048-8.239,3.766-8.239,8.332v230.5c0,3.246,1.905,6.201,4.859,7.568
	c1.11,0.513,2.294,0.757,3.479,0.757c1.953,0,3.894-0.684,5.432-2.014l72.559-62.439c32.044,22.925,72.156,35.01,116.504,35.01
	h0.024c36.146,0,74.023-8.19,106.616-23.07c32.092-14.648,55.934-34.156,67.114-54.944c0.696-1.281,1.037-2.722,1.001-4.187
	C388.758,287.23,387.964,260.375,382.923,221.094z"/>
<g opacity="0.2">
	<path fill="#FFFFFF" d="M19.445,169.513c41.272-0.439,69.226,15.49,85.352,28.839c10.535,8.728,17.542,17.492,21.485,23.181
		c22.595-8.082,44.727-12.164,65.87-12.164c39.308,0,67.321,13.873,83.497,25.031c-0.244-4.713-0.477-10.365-0.635-17.091
		c-16.271-11.089-44.055-24.603-82.861-24.603c-21.143,0-43.274,4.083-65.87,12.158c-3.943-5.677-10.95-14.454-21.485-23.182
		c-16.125-13.342-44.079-29.279-85.352-28.839c-4.565,0.048-8.239,3.766-8.239,8.332v16.668
		C11.206,173.278,14.88,169.562,19.445,169.513z"/>
</g>
<path fill="#DBAFA5" d="M19.542,400c-2.344,0-4.675-0.977-6.323-2.905c-3.003-3.479-2.6-8.741,0.892-11.743l100.098-86.133
	c3.491-3.004,8.752-2.613,11.755,0.879c3.003,3.49,2.613,8.752-0.879,11.742l-100.11,86.146C23.4,399.341,21.472,400,19.542,400z"/>
<path fill="#ED5564" d="M350.939,79.674c-1.232-3.503-4.639-5.767-8.338-5.554l-57.263,3.277c-4.249,0.238-7.63,3.649-7.837,7.904
	c-0.855,16.975-1.465,32.172-1.893,45.765c9.985,2.515,20.619,3.473,31.056,3.473c24.438,0,47.68-5.261,58.361-8.075
	C361.06,110.986,356.396,95.202,350.939,79.674z"/>
<path fill="#EAC6BB" d="M351.367,81.646c-0.037-0.452-1.087-11.139-3.968-24.243c-4.004-18.183-9.473-31.732-16.247-40.271
	c-0.989-1.251-2.222-2.417-8.105-5.108c-2.723-1.239-7.189-3.131-13.099-5.079C300.378,3.777,285.607,0,269.641,0
	c-11.731,0-22.498,2.033-32.007,6.049C218.395,14.16,204.527,37,209.08,53.046c1.832,6.433,5.641,10.333,9.534,12.567
	c0,0.263,0,0.531,0,0.799c0.183,7.648,3.772,13.556,9.827,16.198c2.893,1.264,6.189,1.905,9.803,1.905
	c2.063,0,4.064-0.213,5.896-0.519c2.758,5.951,7.787,11.975,16.148,13.904c1.355,0.311,2.809,0.47,4.334,0.47
	c6.469,0,14.209-6.506,19.458-9.021c5.091,4.475,13.159,12.201,25.33,12.201c0.757,0,1.525-0.013,2.307-0.048
	c24.108-0.964,35.913-11.866,37.183-13.104C350.707,86.633,351.611,84.155,351.367,81.646z"/>
<path fill="#DBAFA5" d="M284.082,89.349c-5.25,2.515-12.988,0.684-19.458,0.684c-1.526,0-2.978-0.159-4.333-0.47
	c-8.362-1.929-13.392-7.947-16.15-13.898c-1.831,0.306-3.832,0.513-5.896,0.513c-3.613,0-6.909-0.634-9.803-1.898
	c-6.055-2.643-9.643-8.551-9.826-16.205c0-0.269,0-0.531,0-0.794c-3.894-2.233-7.703-6.134-9.533-12.574
	c-0.232-0.812-0.404-1.647-0.538-2.496c-0.55,3.777-0.415,7.453,0.538,10.834c1.83,6.433,5.64,10.334,9.533,12.567
	c0,0.263,0,0.531,0,0.799c0.184,7.648,3.771,13.556,9.826,16.198c2.894,1.263,6.189,1.904,9.803,1.904
	c2.064,0,4.065-0.213,5.896-0.519c2.759,5.951,7.788,11.975,16.15,13.904c1.354,0.311,2.807,0.47,4.333,0.47
	C271.094,98.37,279.809,96.771,284.082,89.349z"/>
<g>
	<defs>
		<path id="SVGID_1_" d="M382.923,221.094c-4.663-36.28-13.989-90.259-31.983-141.419c-1.232-3.503-4.639-5.768-8.338-5.554
			l-57.263,3.277c-4.249,0.238-7.63,3.649-7.837,7.904c-3.564,71.344-2.99,111.305-1.855,132.446
			c-16.174-11.176-44.189-25.043-83.497-25.043c-21.143,0-43.274,4.084-65.87,12.158c-3.943-5.677-10.949-14.453-21.485-23.182
			c-16.125-13.342-44.079-29.279-85.352-28.839c-4.565,0.048-8.239,3.766-8.239,8.332v230.5c0,3.246,1.905,6.201,4.859,7.568
			c1.11,0.513,2.294,0.757,3.479,0.757c1.953,0,3.894-0.684,5.432-2.014l72.559-62.439c32.044,22.925,72.156,35.01,116.504,35.01
			h0.024c36.146,0,74.023-8.19,106.616-23.07c32.092-14.648,55.934-34.156,67.114-54.944c0.696-1.281,1.037-2.722,1.001-4.187
			C388.758,287.23,387.964,260.375,382.923,221.094z"/>
	</defs>
	<clipPath id="SVGID_2_">
		<use xlink:href="#SVGID_1_"  overflow="visible"/>
	</clipPath>
	<circle clip-path="url(#SVGID_2_)" fill="#00BF0E" cx="375" cy="351" r="108.5"/>
</g>
</svg>
