<?xml version="1.0" encoding="utf-8"?>
<!-- Generator: Adobe Illustrator 16.0.0, SVG Export Plug-In . SVG Version: 6.00 Build 0)  -->
<!DOCTYPE svg PUBLIC "-//W3C//DTD SVG 1.1//EN" "http://www.w3.org/Graphics/SVG/1.1/DTD/svg11.dtd">
<svg version="1.1" id="Capa_1" xmlns="http://www.w3.org/2000/svg" xmlns:xlink="http://www.w3.org/1999/xlink" x="0px" y="0px"
	 width="512px" height="512px" viewBox="0 0 512 512" enable-background="new 0 0 512 512" xml:space="preserve">
<path fill="#595155" d="M447.535,155.391c-24.523-34.738-64.547-55.477-107.074-55.477c-25.023,0-50.16,2.422-74.719,7.199
	L37.137,151.563C15.617,155.746,0,174.695,0,196.621c0,17.938,8.109,34.555,22.242,45.586s32.219,14.871,49.617,10.52l258.07-64.516
	c22.633-5.66,46.637-1.324,65.859,11.891l92.711,63.742c7.344,5.043,15.336,2.063,19.172-1.82c5.105-5.172,5.77-13.258,1.582-19.191
	L447.535,155.391z"/>
<path fill="#595155" d="M310.906,392.395c-6.293,5.035-46.496,41.27-111.141,41.27S94.922,397.43,88.625,392.395
	c-6.473-5.168-15.91-4.113-21.078,2.359c-5.172,6.473-4.113,15.914,2.359,21.082c7.375,5.902,54.461,47.828,129.859,47.828
	c75.391,0,122.465-41.91,129.859-47.828c6.473-5.168,7.531-14.609,2.359-21.082C326.82,388.281,317.383,387.223,310.906,392.395z"/>
<path fill="#40BFFF" d="M497,19.582c-8.285,0-15,6.715-15,15v12.641C439.051,9.785,381.148-6.84,324.559,2.594l-103.16,17.191
	c-8.172,1.363-13.691,9.09-12.328,17.262c1.359,8.172,9.098,13.691,17.262,12.332l103.156-17.191
	c46.691-7.785,94.449,5.461,130.414,35.594h-11.102c-8.285,0-15,6.719-15,15c0,8.285,6.715,15,15,15H497c8.285,0,15-6.715,15-15
	V34.582C512,26.297,505.285,19.582,497,19.582z"/>
<path fill="#2D2D2D" d="M331.988,394.754c5.172,6.469,4.113,15.91-2.359,21.082c-5.34,4.27-31.301,27.25-73.629,39.738v-31.531
	c31.48-11.098,50.711-28.301,54.91-31.648C317.379,387.223,326.82,388.285,331.988,394.754z"/>
<path fill="#2D2D2D" d="M509.25,242.836c4.191,5.93,3.531,14.02-1.578,19.188c-3.832,3.879-11.832,6.859-19.172,1.82l-92.711-63.738
	c-19.219-13.223-43.23-17.551-65.859-11.891L256,206.695v-97.691l9.738-1.891c24.563-4.777,49.703-7.199,74.723-7.199
	c42.527,0,82.551,20.738,107.07,55.469L509.25,242.836z"/>
<path fill="#0090E8" d="M512,34.582v48.199c0,8.281-6.719,15-15,15h-48.199c-8.281,0-15-6.719-15-15c0-8.289,6.719-15,15-15h11.098
	c-35.957-30.141-83.719-43.379-130.41-35.598L256,44.434V14.012l68.559-11.418C381.148-6.84,439.051,9.781,482,47.223V34.582
	c0-8.289,6.719-15,15-15S512,26.293,512,34.582z"/>
</svg>
