<?xml version="1.0" encoding="utf-8"?>
<!-- Generator: Adobe Illustrator 16.0.0, SVG Export Plug-In . SVG Version: 6.00 Build 0)  -->
<!DOCTYPE svg PUBLIC "-//W3C//DTD SVG 1.1//EN" "http://www.w3.org/Graphics/SVG/1.1/DTD/svg11.dtd">
<svg version="1.1" id="Layer_1" xmlns="http://www.w3.org/2000/svg" xmlns:xlink="http://www.w3.org/1999/xlink" x="0px" y="0px"
	 width="400px" height="400px" viewBox="0 0 400 400" enable-background="new 0 0 400 400" xml:space="preserve">
<path fill="#000030" d="M4.957,165.174c1.573,0.927,3.297,1.367,5,1.367c3.384,0,6.68-1.742,8.519-4.868
	c2.307-3.919,4.971-7.687,7.928-11.211c28.602-34.203,78.481-39.409,113.554-11.848c4.288,3.371,10.497,2.626,13.866-1.664
	c3.37-4.288,2.625-10.496-1.664-13.865c-20.878-16.406-46.936-23.932-73.368-21.203c-26.48,2.742-50.466,15.494-67.527,35.897
	c-3.648,4.348-6.949,9.018-9.809,13.877C-1.31,156.356,0.258,162.408,4.957,165.174z"/>
<path fill="#000030" d="M260.043,138.614c35.072-27.559,84.951-22.355,113.565,11.861c2.947,3.513,5.611,7.28,7.917,11.199
	c1.84,3.127,5.136,4.868,8.519,4.868c1.702,0,3.427-0.44,5-1.366c4.7-2.766,6.269-8.82,3.501-13.519
	c-2.859-4.859-6.16-9.528-9.797-13.863c-17.074-20.416-41.059-33.168-67.539-35.908c-26.434-2.731-52.49,4.795-73.369,21.203
	c-4.287,3.369-5.033,9.576-1.663,13.865C249.547,141.239,255.755,141.983,260.043,138.614z"/>
<path fill="#000030" d="M398.191,230.543c-4.541-6.434-9.832-12.338-15.727-17.566c-0.017-0.016-0.034-0.031-0.052-0.047
	c-0.044-0.039-0.086-0.079-0.13-0.118c-0.082-0.071-0.168-0.132-0.25-0.199c-0.153-0.126-0.306-0.253-0.464-0.368
	c-0.113-0.082-0.229-0.156-0.347-0.234c-0.154-0.104-0.308-0.207-0.467-0.301c-0.137-0.08-0.277-0.15-0.416-0.225
	c-0.143-0.075-0.283-0.15-0.43-0.22c-0.162-0.075-0.328-0.142-0.493-0.207c-0.127-0.05-0.254-0.103-0.383-0.148
	c-0.184-0.065-0.369-0.12-0.556-0.173c-0.117-0.033-0.231-0.068-0.349-0.098c-0.195-0.05-0.394-0.088-0.592-0.124
	c-0.112-0.02-0.225-0.044-0.339-0.06c-0.199-0.03-0.4-0.05-0.6-0.066c-0.115-0.011-0.229-0.022-0.345-0.027
	c-0.198-0.011-0.396-0.011-0.594-0.008c-0.12,0-0.239,0-0.358,0.004c-0.194,0.009-0.386,0.027-0.578,0.048
	c-0.123,0.013-0.246,0.022-0.369,0.04c-0.19,0.027-0.379,0.064-0.568,0.104c-0.122,0.024-0.243,0.047-0.365,0.075
	c-0.192,0.046-0.382,0.104-0.572,0.161c-0.113,0.034-0.226,0.066-0.339,0.105c-0.2,0.068-0.396,0.148-0.594,0.23
	c-0.097,0.041-0.193,0.078-0.289,0.121c-0.212,0.098-0.419,0.207-0.624,0.319c-0.075,0.042-0.152,0.079-0.228,0.122
	c-0.22,0.129-0.434,0.27-0.645,0.416c-0.059,0.04-0.117,0.078-0.175,0.119c-0.213,0.154-0.418,0.32-0.621,0.494
	c-0.042,0.037-0.089,0.066-0.131,0.104c-6.609,5.84-13.938,10.425-21.673,13.775c-0.143,0.06-0.284,0.123-0.424,0.189
	c-15.939,6.799-33.591,8.336-50.306,4.608c-0.072-0.016-0.145-0.034-0.217-0.048c-8.174-1.846-16.119-4.959-23.526-9.326
	c-0.161-0.098-0.321-0.195-0.489-0.285c-4.264-2.552-8.346-5.521-12.186-8.914c-4.087-3.611-10.326-3.228-13.938,0.859
	c-3.611,4.088-3.227,10.328,0.861,13.939c2.541,2.244,5.173,4.334,7.873,6.281c-1.787,3.209-3.782,6.303-5.98,9.242
	c-3.266,4.369-2.371,10.556,1.998,13.821c1.773,1.326,3.848,1.966,5.904,1.966c3.008,0,5.979-1.369,7.918-3.965
	c2.65-3.546,5.062-7.271,7.232-11.131c3.736,1.712,7.549,3.208,11.428,4.444c-0.711,3.602-1.65,7.157-2.83,10.629
	c-1.756,5.163,1.006,10.771,6.17,12.527c1.055,0.358,2.127,0.528,3.18,0.528c4.112,0,7.952-2.589,9.35-6.699
	c1.428-4.2,2.57-8.498,3.443-12.851c3.92,0.453,7.86,0.704,11.802,0.704c0.144,0,0.288-0.009,0.431-0.011
	c0.44,3.655,0.646,7.336,0.596,11.013c-0.074,5.453,4.286,9.933,9.739,10.008c0.046,0.001,0.091,0.001,0.138,0.001
	c5.391,0,9.798-4.335,9.871-9.741c0.061-4.434-0.18-8.872-0.695-13.28c3.998-0.799,7.959-1.826,11.857-3.106
	c1.544,3.334,2.874,6.767,3.961,10.272c1.313,4.235,5.215,6.954,9.429,6.954c0.968,0,1.953-0.145,2.927-0.445
	c5.208-1.616,8.123-7.148,6.508-12.356c-1.313-4.229-2.908-8.372-4.758-12.399c3.536-1.99,6.984-4.189,10.313-6.633
	c2.498,2.692,4.822,5.543,6.939,8.541c1.924,2.726,4.975,4.18,8.076,4.18c1.968,0,3.957-0.588,5.687-1.81
	C400.275,241.159,401.338,234.998,398.191,230.543z"/>
<path fill="#000030" d="M84.769,253.105c0.143,0.002,0.288,0.011,0.431,0.011c3.942,0,7.882-0.251,11.802-0.704
	c0.872,4.354,2.016,8.651,3.444,12.851c1.398,4.11,5.236,6.699,9.349,6.699c1.054,0,2.125-0.171,3.18-0.528
	c5.163-1.755,7.926-7.364,6.171-12.527c-1.18-3.471-2.121-7.025-2.831-10.629c3.879-1.238,7.69-2.732,11.428-4.446
	c2.171,3.862,4.582,7.587,7.233,11.133c1.939,2.595,4.909,3.965,7.918,3.965c2.056,0,4.13-0.64,5.904-1.966
	c4.369-3.266,5.263-9.453,1.998-13.822c-2.197-2.939-4.192-6.033-5.981-9.242c2.701-1.949,5.332-4.036,7.874-6.281
	c4.087-3.611,4.473-9.853,0.861-13.938c-3.61-4.086-9.851-4.47-13.938-0.86c-3.838,3.393-7.919,6.36-12.181,8.914
	c-0.172,0.092-0.337,0.189-0.502,0.291c-7.404,4.365-15.342,7.475-23.511,9.32c-0.079,0.015-0.156,0.034-0.235,0.053
	c-16.708,3.723-34.352,2.188-50.287-4.608c-0.146-0.071-0.292-0.136-0.439-0.198c-7.732-3.352-15.058-7.934-21.664-13.771
	c-0.044-0.038-0.091-0.07-0.135-0.108c-0.199-0.17-0.401-0.336-0.611-0.486c-0.066-0.049-0.135-0.092-0.203-0.139
	c-0.201-0.138-0.403-0.271-0.611-0.393c-0.09-0.055-0.184-0.101-0.276-0.148c-0.188-0.104-0.377-0.203-0.571-0.293
	c-0.117-0.053-0.235-0.1-0.353-0.148c-0.173-0.07-0.348-0.145-0.525-0.205c-0.138-0.048-0.276-0.087-0.414-0.129
	c-0.164-0.049-0.328-0.1-0.494-0.139c-0.148-0.037-0.297-0.064-0.446-0.094c-0.161-0.031-0.323-0.063-0.485-0.088
	c-0.15-0.021-0.3-0.033-0.452-0.049c-0.166-0.016-0.331-0.033-0.497-0.041c-0.145-0.008-0.291-0.006-0.437-0.006
	c-0.173-0.002-0.345-0.002-0.517,0.006c-0.139,0.008-0.277,0.021-0.415,0.034c-0.179,0.017-0.356,0.032-0.534,0.059
	c-0.134,0.02-0.265,0.046-0.397,0.071c-0.18,0.033-0.359,0.066-0.536,0.111c-0.133,0.032-0.263,0.072-0.395,0.111
	c-0.172,0.05-0.344,0.1-0.514,0.158c-0.14,0.049-0.276,0.107-0.415,0.162c-0.156,0.063-0.312,0.124-0.465,0.195
	c-0.152,0.07-0.299,0.148-0.448,0.229c-0.134,0.07-0.269,0.139-0.4,0.217c-0.162,0.096-0.318,0.201-0.476,0.307
	c-0.113,0.075-0.228,0.148-0.339,0.23c-0.16,0.115-0.314,0.243-0.468,0.372c-0.082,0.067-0.167,0.126-0.247,0.196
	c-0.044,0.039-0.086,0.08-0.13,0.117c-0.018,0.016-0.036,0.033-0.053,0.049c-5.893,5.227-11.186,11.133-15.726,17.566
	C-1.336,235-0.273,241.16,4.181,244.307c1.731,1.221,3.718,1.809,5.687,1.809c3.1,0,6.15-1.455,8.076-4.18
	c2.116-2.998,4.441-5.85,6.939-8.541c3.327,2.445,6.776,4.644,10.313,6.633c-1.849,4.027-3.445,8.17-4.757,12.4
	c-1.616,5.207,1.298,10.74,6.508,12.355c0.973,0.303,1.958,0.445,2.926,0.445c4.213,0,8.116-2.719,9.428-6.953
	c1.087-3.507,2.417-6.939,3.961-10.272c3.898,1.282,7.859,2.31,11.858,3.108c-0.516,4.407-0.755,8.846-0.695,13.279
	c0.074,5.408,4.48,9.74,9.871,9.74c0.045,0,0.092,0,0.138-0.001c5.453-0.074,9.813-4.554,9.74-10.008
	C84.123,260.441,84.328,256.761,84.769,253.105z"/>
</svg>
