<?xml version="1.0" encoding="utf-8"?>
<!-- Generator: Adobe Illustrator 16.0.0, SVG Export Plug-In . SVG Version: 6.00 Build 0)  -->
<!DOCTYPE svg PUBLIC "-//W3C//DTD SVG 1.1//EN" "http://www.w3.org/Graphics/SVG/1.1/DTD/svg11.dtd">
<svg version="1.1" id="Layer_1" xmlns="http://www.w3.org/2000/svg" xmlns:xlink="http://www.w3.org/1999/xlink" x="0px" y="0px"
	 width="400px" height="400px" viewBox="0 0 400 400" enable-background="new 0 0 400 400" xml:space="preserve">
<g>
	<path fill="#E4E7E7" d="M200,62.507c110.45,0,200,61.562,200,137.499c0,75.937-89.55,137.487-200,137.487S0,275.955,0,200.019
		S89.55,62.507,200,62.507z"/>
	<path fill="#3DB39E" d="M200,100.006c55.225,0,100,44.775,100,100s-44.775,99.986-100,99.986s-100-44.762-100-99.986
		S144.774,100.006,200,100.006z"/>
	<path fill="#324D5B" d="M200,137.506c34.525,0,62.5,27.987,62.5,62.5c0,34.525-27.975,62.488-62.5,62.488
		c-34.525,0-62.5-27.963-62.5-62.488C137.499,165.494,165.475,137.506,200,137.506z"/>
	<path fill="#C9EAE4" d="M237.499,137.506c13.8,0,25.001,11.2,25.001,25c0,13.8-11.201,24.987-25.001,24.987
		s-25.001-11.188-25.001-24.987C212.498,148.707,223.699,137.506,237.499,137.506z"/>
	<path fill="#D6DBDE" d="M257.961,176.831c-6.361-15.85-18.949-28.424-34.762-34.775c-6.463,4.525-10.701,11.987-10.701,20.462
		c0,13.8,11.201,24.987,25.001,24.987C245.975,187.505,253.412,183.269,257.961,176.831z"/>
</g>
</svg>
