<svg height="512pt" viewBox="0 0 512 512.002" width="512pt" xmlns="http://www.w3.org/2000/svg"><path d="m512 256c0 141.386719-114.613281 256-256 256-141.382812 0-256-114.613281-256-256s114.617188-256 256-256c141.386719 0 256 114.613281 256 256zm0 0" fill="#e7001f"/><path d="m512 256c0-12.605469-.925781-24.992188-2.6875-37.105469l-89.921875-87.675781c-2.5625-3.035156-6.390625-4.890625-10.59375-4.714844-2.082031.089844-4.023437.675782-5.738281 1.628906l-15.175782-15.136718c-2.5625-2.984375-6.355468-4.804688-10.523437-4.628906-4.160156.175781-7.789063 2.304687-10.09375 5.488281l-13.234375-13.285157c-3.25-3.816406-8.082031-6.148437-13.386719-5.921874-9.304687.390624-16.523437 8.472656-16.117187 18.046874.019531.421876.066406.835938.113281 1.25l-13.929687-14.027343c-4.527344-4.617188-10.832032-7.363281-17.695313-7.074219-13.082031.550781-23.222656 11.910156-22.65625 25.371094.28125 6.601562 3.085937 12.476562 7.414063 16.691406l19.925781 19.246094c-1.367188 1.632812-2.648438 3.386718-3.84375 5.246094l-58.367188-58.640626c-4.101562-4.628906-9.929687-7.636718-16.5-7.914062-11.855469-.5-22.054687 8.046875-24.285156 19.671875l-11.945313-12.601563c-2.894531-3.085937-6.898437-5.074218-11.398437-5.265624-9.304687-.394532-17.175781 7.050781-17.578125 16.625-.214844 5.105468 1.734375 9.78125 5.011719 13.097656l10.371093 9.894531c-1.296874-.023437-2.59375 0-3.882812.042969l-21.472656-21.597656c-2.292969-2.539063-5.523438-4.1875-9.164063-4.34375-7.339843-.308594-13.550781 5.5625-13.867187 13.117187-.171875 4.003906 1.351562 7.675781 3.910156 10.285156l9.808594 9.453125c-2.65625 1.023438-5.398438 2.234375-8.152344 3.683594l-13.988281-14.074219c-2.292969-2.53125-5.515625-4.171875-9.148438-4.328125-7.339843-.308594-13.550781 5.5625-13.867187 13.113282-.179688 4.210937 1.511718 8.054687 4.316406 10.683593l12.496094 11.394531c-1.824219 2.359376-3.554688 4.949219-5.167969 7.808594l-10.894531-12.199218c-2.292969-2.539063-5.519532-4.1875-9.160156-4.339844-7.339844-.308594-13.546876 5.5625-13.867188 13.113281-.179688 4.300781 1.585938 8.214844 4.496094 10.847656l20.15625 19.148438c-4.210938 22.34375-3.191406 53.542969 7.199218 97.457031 16.523438 69.832031 35.769532 103.230469 53.441407 118.324219l100.101562 100.101562c1.183594.015625 2.359375.046875 3.546875.046875 141.382813-.003906 255.996094-114.617187 255.996094-256.003906zm0 0" fill="#901"/><path d="m147.863281 136.964844c-25.183593 7-80.636719 22.644531-48.953125 156.566406 31.6875 133.921875 73.398438 133.886719 94.800782 127.601562 26.359374-7.742187 48.070312-56.050781 20.148437-102.132812-27.925781-46.082031 27.113281-101.367188 9.847656-148.359375-12.515625-34.070313-48.796875-41.191406-75.84375-33.675781zm0 0" fill="#ffdba9"/><path d="m213.855469 319c27.925781 46.082031 6.214843 94.390625-20.140625 102.132812-6.226563 1.832032-14.167969 3.128907-23.082032.753907v-287.585938c21.792969.785157 43.871094 11.269531 53.078126 36.339844 17.265624 46.992187-37.773438 102.28125-9.855469 148.359375zm0 0" fill="#ffc473"/><path d="m218.988281 92.847656c-13.082031-.550781-24.148437 9.910156-24.714843 23.371094-.570313 13.457031 9.574218 24.816406 22.65625 25.367188 13.078124.554687 24.144531-9.910157 24.710937-23.367188.570313-13.460938-9.574219-24.820312-22.652344-25.371094zm0 0" fill="#ffc473"/><g fill="#ffdba9"><path d="m171.359375 94.652344c-9.304687-.394532-17.175781 7.046875-17.578125 16.621094-.40625 9.578124 6.808594 17.65625 16.113281 18.050781 9.304688.390625 17.175781-7.050781 17.582031-16.625.402344-9.574219-6.8125-17.65625-16.117187-18.046875zm0 0"/><path d="m134.640625 108.371094c-7.339844-.308594-13.546875 5.5625-13.867187 13.113281-.316407 7.554687 5.375 13.925781 12.714843 14.238281 7.339844.308594 13.546875-5.5625 13.867188-13.113281.316406-7.554687-5.375-13.929687-12.714844-14.238281zm0 0"/><path d="m103.207031 126.507812c-7.339843-.3125-13.550781 5.558594-13.867187 13.113282-.320313 7.554687 5.371094 13.925781 12.710937 14.238281 7.339844.308594 13.550781-5.5625 13.867188-13.117187.320312-7.550782-5.371094-13.925782-12.710938-14.234376zm0 0"/><path d="m80.929688 152.964844c-7.339844-.308594-13.550782 5.5625-13.867188 13.113281-.320312 7.554687 5.371094 13.929687 12.710938 14.238281 7.339843.308594 13.546874-5.5625 13.867187-13.113281.320313-7.554687-5.371094-13.925781-12.710937-14.238281zm0 0"/></g><path d="m217.253906 237.476562c-7.015625-.832031-14.582031-.652343-22.355468.773438-29.527344 5.410156-50.644532 26.277344-47.171876 46.609375 3.472657 20.332031 30.222657 32.429687 59.75 27.019531.867188-.15625 1.695313-.371094 2.546876-.558594-9.550782-23.300781-.878907-48.621093 7.230468-73.84375zm0 0" fill="#ffaa20"/><path d="m164.355469 210.839844c24.390625-3.484375 42.554687-18.445313 40.570312-33.414063-1.988281-14.972656-23.371093-24.28125-47.765625-20.796875-24.390625 3.484375-42.554687 18.445313-40.566406 33.417969 1.984375 14.96875 23.371094 24.277344 47.761719 20.792969zm0 0" fill="#ffb84d"/><path d="m185.34375 369.953125c-5.960938-23.132813-32.734375-35.847656-59.796875-28.402344-4.078125 1.121094-7.898437 2.679688-11.480469 4.523438 15.964844 44.972656 33.113282 64.789062 48.320313 72.609375 17.828125-10.9375 27.695312-30.339844 22.957031-48.730469zm0 0" fill="#ffb84d"/><path d="m364.140625 136.964844c25.183594 7 80.636719 22.644531 48.949219 156.566406s-73.394532 133.886719-94.800782 127.601562c-26.359374-7.742187-48.066406-56.050781-20.144531-102.132812s-27.113281-101.367188-9.851562-148.359375c12.515625-34.070313 48.796875-41.191406 75.847656-33.675781zm0 0" fill="#ffdba9"/><path d="m413.089844 293.535156c-22.707032 95.96875-50.5625 123.152344-72.398438 128.53125v-287.734375c8.058594-.363281 16.09375.597657 23.449219 2.636719 25.183594 7 80.632813 22.644531 48.949219 156.566406zm0 0" fill="#ffc473"/><path d="m317.726562 116.210938c-.566406-13.457032-11.632812-23.921876-24.714843-23.371094-13.078125.554687-23.222657 11.914062-22.65625 25.371094.570312 13.460937 11.636719 23.921874 24.714843 23.371093 13.082032-.554687 23.226563-11.910156 22.65625-25.371093zm0 0" fill="#ffdba9"/><path d="m358.21875 111.269531c-.402344-9.578125-8.273438-17.019531-17.578125-16.625-9.304687.390625-16.519531 8.472657-16.117187 18.046875.40625 9.574219 8.277343 17.015625 17.582031 16.625 9.304687-.394531 16.519531-8.472656 16.113281-18.046875zm0 0" fill="#ffdba9"/><path d="m358.21875 111.273438c.40625 9.574218-6.8125 17.652343-16.113281 18.046874-.484375.023438-.953125.023438-1.414063-.007812v-34.667969c9.28125-.355469 17.128906 7.074219 17.527344 16.628907zm0 0" fill="#ffc473"/><path d="m391.222656 121.480469c-.316406-7.554688-6.527344-13.425781-13.867187-13.117188-7.339844.3125-13.03125 6.683594-12.710938 14.238281.320313 7.550782 6.527344 13.425782 13.867188 13.113282 7.339843-.308594 13.03125-6.683594 12.710937-14.234375zm0 0" fill="#ffc473"/><path d="m422.660156 139.613281c-.320312-7.554687-6.527344-13.425781-13.867187-13.113281-7.339844.308594-13.03125 6.683594-12.710938 14.234375.316407 7.554687 6.527344 13.425781 13.867188 13.113281 7.339843-.308594 13.03125-6.683594 12.710937-14.234375zm0 0" fill="#ffc473"/><path d="m444.9375 166.070312c-.320312-7.550781-6.527344-13.421874-13.867188-13.113281-7.339843.308594-13.03125 6.683594-12.710937 14.238281.316406 7.550782 6.527344 13.421876 13.867187 13.113282 7.339844-.3125 13.03125-6.683594 12.710938-14.238282zm0 0" fill="#ffc473"/><path d="m294.75 237.476562c7.015625-.832031 14.578125-.652343 22.351562.773438 29.527344 5.410156 50.648438 26.277344 47.171876 46.609375-3.472657 20.332031-30.222657 32.429687-59.75 27.019531-.863282-.15625-1.695313-.371094-2.542969-.558594 9.546875-23.300781.875-48.621093-7.230469-73.84375zm0 0" fill="#ffaa20"/><path d="m364.277344 284.859375c-1.914063 11.214844-10.925782 19.933594-23.585938 24.578125v-62.726562c16.28125 9.257812 26.035156 23.835937 23.585938 38.148437zm0 0" fill="#ff8900"/><path d="m347.648438 210.839844c-24.394532-3.484375-42.554688-18.445313-40.570313-33.414063 1.984375-14.972656 23.371094-24.28125 47.761719-20.796875s42.554687 18.445313 40.570312 33.417969c-1.988281 14.96875-23.371094 24.277344-47.761718 20.792969zm0 0" fill="#ffb84d"/><path d="m395.40625 190.039062c-1.976562 14.972657-23.367188 24.285157-47.757812 20.800782-2.382813-.332032-4.707032-.785156-6.957032-1.335938v-53.480468c4.5-.269532 9.261719-.09375 14.148438.609374 24.390625 3.480469 42.554687 18.445313 40.566406 33.40625zm0 0" fill="#ffaa20"/><path d="m326.660156 369.953125c5.960938-23.132813 32.734375-35.847656 59.792969-28.402344 4.082031 1.121094 7.902344 2.679688 11.484375 4.523438-15.96875 44.972656-33.117188 64.789062-48.320312 72.609375-17.828126-10.9375-27.695313-30.339844-22.957032-48.730469zm0 0" fill="#ffb84d"/><path d="m397.9375 346.070312c-15.96875 44.980469-33.117188 64.789063-48.320312 72.617188-3.253907-2-6.246094-4.28125-8.925782-6.78125v-62.78125c11.6875-8.933594 28.671875-12.28125 45.769532-7.574219 4.078124 1.121094 7.898437 2.679688 11.476562 4.519531zm0 0" fill="#ffaa20"/><path d="m187.476562 112.695312c-.398437 9.324219-7.867187 16.617188-16.84375 16.636719v-34.695312c.238282 0 .480469 0 .730469.007812 9.300781.398438 16.523438 8.476563 16.113281 18.050781zm0 0" fill="#ffc473"/><path d="m210.027344 311.320312c-.847656.1875-1.6875.398438-2.554688.554688-13.519531 2.480469-26.460937 1.289062-36.839844-2.699219v-62.078125c7-4.089844 15.234376-7.1875 24.261719-8.84375 7.777344-1.433594 15.339844-1.609375 22.363281-.773437-8.109374 25.21875-16.785156 50.539062-7.230468 73.839843zm0 0" fill="#ff8900"/><path d="m170.632812 209.671875v-53.691406c18.351563.902343 32.6875 9.3125 34.285157 21.441406 1.8125 13.652344-13.140625 27.308594-34.285157 32.25zm0 0" fill="#ffaa20"/><path d="m170.632812 412.523438v-63.910157c7.15625 5.242188 12.4375 12.546875 14.710938 21.34375 3.941406 15.308594-2.242188 31.316407-14.710938 42.566407zm0 0" fill="#ffaa20"/></svg>