<?xml version="1.0" encoding="iso-8859-1"?>
<!-- Generator: Adobe Illustrator 19.0.0, SVG Export Plug-In . SVG Version: 6.00 Build 0)  -->
<svg version="1.1" id="Layer_1" xmlns="http://www.w3.org/2000/svg" xmlns:xlink="http://www.w3.org/1999/xlink" x="0px" y="0px"
	 viewBox="0 0 393.568 393.568" style="enable-background:new 0 0 393.568 393.568;" xml:space="preserve">
<circle style="fill:#886C60;" cx="196.784" cy="196.784" r="196.784"/>
<path style="fill:#F5D0B5;" d="M322.263,202.537c-5.495-30.642,4.202-110.028,9.697-148.558
	c-28.25-26.958-64.711-45.317-105.05-51.588c1.293,46.869,4.461,146.489,6.529,163.232c2.651,21.98-9.697,39.822-17.261,44.024
	c-7.628,3.943-39.046,18.618-47.968,26.44c-8.921,7.887-64.97,24.889-66.263,26.44c-1.293,1.293-17.584,6.012-17.584,6.012
	c-11.248,6.012-24.113,3.168-24.113,3.168c-8.404,2.327-4.202,15.451-4.202,15.451c-8.145,12.865,8.404,16.743,8.404,16.743
	c4.202,7.887,14.933,2.909,14.933,2.909c3.943,6.529,18.101,2.327,18.101,2.327c3.943,5.495,18.36,0.776,18.36,0.776l9.18,2.327
	c25.406,9.18,64.453-4.719,101.689-4.719c10.473,0,95.095,15.192,108.477-5.236C348.768,282.182,329.891,243.976,322.263,202.537z"
	/>
<path style="fill:none;stroke:#000000;stroke-miterlimit:10;" d="M330.667,237.899L330.667,237.899L330.667,237.899L330.667,237.899
	z"/>
<g>
	<path style="fill:#E5B798;" d="M57.923,287.935c2.909-1.034,6.529-1.81,9.956-5.236c3.426-3.426,8.404-3.943,10.214-4.202
		s8.145-6.271,8.145-6.271s-6.271,4.202-9.438,4.719c-3.426,0.517-9.18,3.685-11.248,4.202c-1.552,0.259-8.145-1.81-9.697-5.495
		c-2.069,4.719,0,11.766,0,11.766c-1.034,1.552-1.552,3.038-1.81,4.331C54.174,291.168,55.273,288.905,57.923,287.935z"/>
	<path style="fill:#E5B798;" d="M54.044,291.75c0,0.065,0,0.129,0,0.129C53.98,291.879,53.98,291.814,54.044,291.75z"/>
	<path style="fill:#E5B798;" d="M331.442,242.36c9.956,36.655-0.259,55.014-0.259,55.014c-6.012,12.283-40.598,9.697-47.192,7.628
		c-6.594-2.069-46.352-12.606-55.014-12.024c-8.663,0.259-38.529,8.145-42.214,10.214s-39.046,9.18-46.869,8.921
		c-7.628-0.517-17.584-3.943-19.911-7.046c-2.327-3.168,4.978-8.921,4.978-8.921c-2.327,0-14.158,7.887-18.101,9.697
		c-3.685,1.81-9.438-0.259-10.731-2.327c-1.293-1.81,3.943-10.99,5.495-13.64c1.552-2.651,10.214-6.012,10.214-6.012
		s-7.887,1.552-10.214,4.202c-2.327,2.651-6.012,9.956-6.529,11.766c-0.517,1.552-2.327,4.719-7.305,5.236
		c-4.978,0.517-8.145-1.293-9.18-3.426c-1.293-2.327,2.909-6.529,5.236-7.887c2.327-1.293,5.754-3.943,6.012-6.012
		c0.259-1.81,5.754-4.461,5.754-4.461s-6.012,1.81-6.529,3.168c-0.517,1.034-2.909,4.461-6.012,5.754
		c-3.168,1.293-4.978,5.495-6.788,8.404s-5.495,1.81-7.887,1.034c-2.651-0.776-2.651-3.168-1.293-3.943
		c1.293-0.776,8.145-8.404,9.18-10.473s10.473-6.529,10.473-6.529c-3.685,0.259-12.024,4.719-12.283,5.754
		c-0.259,1.293-3.426,4.978-3.426,4.978c-4.461,2.069-3.426,4.202-7.046,6.788c-3.943,2.65-9.956-6.012-10.214-6.012
		C51.717,301.64,64,304.226,64,304.226c4.202,7.887,14.933,2.909,14.933,2.909c3.943,6.529,18.101,2.327,18.101,2.327
		c3.943,5.495,18.36,0.776,18.36,0.776l9.18,2.327c25.406,9.18,64.453-4.719,101.689-4.719c10.473,0,95.095,15.192,108.477-5.236
		C343.531,289.034,338.295,267.507,331.442,242.36z"/>
	<path style="fill:#E5B798;" d="M303.968,160.646c0,0-3.168,26.699,1.293,41.374s9.18,31.677-2.327,40.081
		c-11.507,8.404-44.024,10.214-44.024-20.428s11.249-101.107,11.249-101.107s-6.529,93.802,3.168,104.275
		c9.438,10.473,23.079,8.404,26.44-0.776C302.869,214.885,296.857,168.469,303.968,160.646z"/>
</g>
<g>
	<path style="fill:#FFFFFC;" d="M61.349,286.642c-1.81,0.259-4.719,1.81-4.719,1.81l2.069,3.685c0,0,4.202,0,5.236-1.81
		S63.16,286.384,61.349,286.642z"/>
	<path style="fill:#FFFFFC;" d="M67.879,295.046l2.909,2.069c0,0,4.719-2.65,3.426-4.978
		C72.857,290.069,67.879,295.046,67.879,295.046z"/>
	<path style="fill:#FFFFFC;" d="M80.162,296.081c0.259,0,3.943,2.65,3.943,2.65s5.236-2.069,3.685-4.461
		C85.721,290.844,80.162,296.081,80.162,296.081z"/>
	<path style="fill:#FFFFFC;" d="M100.396,294.271c-2.327-0.517-4.978,2.069-4.978,6.271c0,0,3.426,1.293,4.978,0
		C101.947,299.248,102.723,294.529,100.396,294.271z"/>
</g>
<g>
</g>
<g>
</g>
<g>
</g>
<g>
</g>
<g>
</g>
<g>
</g>
<g>
</g>
<g>
</g>
<g>
</g>
<g>
</g>
<g>
</g>
<g>
</g>
<g>
</g>
<g>
</g>
<g>
</g>
</svg>
