<?xml version="1.0" encoding="utf-8"?>
<!-- Generator: Adobe Illustrator 16.0.0, SVG Export Plug-In . SVG Version: 6.00 Build 0)  -->
<!DOCTYPE svg PUBLIC "-//W3C//DTD SVG 1.1//EN" "http://www.w3.org/Graphics/SVG/1.1/DTD/svg11.dtd">
<svg version="1.1" id="Capa_1" xmlns="http://www.w3.org/2000/svg" xmlns:xlink="http://www.w3.org/1999/xlink" x="0px" y="0px"
	 width="512px" height="512px" viewBox="0 0 512 512" enable-background="new 0 0 512 512" xml:space="preserve">
<path fill="#E69381" d="M397.906,227.547c-12.238-27.051-31.078-54.852-55.742-80.324c-47.832-49.41-105.129-77.234-149.66-77.012
	l-9.668,7.02c-29.422,21.355-46.625,55.672-46.121,92.016l2.254,46.055L109,288.574c3.117,4.563,8.473,7.074,13.977,6.551
	l24.277-2.297l-4.801,31.422c17.609-1.16,29.914,38.023,20.953,48.535c3.789,2.617-0.742,58.863,34.844,62.023
	c6.613,0.586,67.563-1.73,67.961-1.809c2.48,27.824,2.887,37.988-1.352,54.219h115.484c-7.625-29.199-28.984-88.891-30.492-136.867
	c16.316-22.543,29.188-47.887,38.195-72.75C388.047,277.602,398.922,232.785,397.906,227.547z"/>
<path fill="#A85A45" d="M195.328,338.98c0.266-0.164-30.633-17.371-47.836-18.781c-3.16-0.262-7.324,3.387-9.094,9.934
	c-1.18,3.891,1.129,13.863,9.414,18.379l-1.945,4.242c-3.676,8.023,0.188,16.82,8.602,19.5c0.113,0.035,0.223,0.07,0.336,0.105
	c7.527,2.418,15.723-0.973,19.285-8.027C181.098,350.453,176.543,350.363,195.328,338.98z"/>
<path fill="#A85A45" d="M175.039,83.441c39.949,1.148,44.52,33.641,97.047,95.957c1.277,1.52,2.586,3.055,3.926,4.605
	c10.246,11.902,18.488,18.977,25.184,24.16c0.91,0.703,1.793,1.375,2.645,2.016c12.195,9.16,18.824,12.707,23.289,32.055
	c0.609,2.641,0.094,5.961-1.211,9.941c-7.133,21.797-37.82,63.359-35.969,120.957c1.582,49.129,41.363,114.086,41.363,114.086
	c239.57,20.102,145.535-178.559,159.039-262.43C519.563,43.289,317.43-73.402,175.039,83.441z"/>
<path d="M108.442,200.267c1.128-3.365,0.379-7.078-1.958-9.749l-15.516-17.742c-3.636-4.156-9.955-4.581-14.111-0.944
	c-1.326,1.162-2.272,2.596-2.828,4.148c-10.292-7.046-18.087-17.453-21.825-29.634c-1.632-5.277-7.217-8.242-12.498-6.618
	c-5.277,1.623-8.243,7.217-6.62,12.494c1.13,3.684,2.537,7.248,4.191,10.669c6.686,13.828,17.448,25.32,30.751,32.903
	c-1.752,2.245-2.543,5.222-1.91,8.226c0.172,0.814,0.438,1.58,0.785,2.297c1.954,4.041,6.47,6.391,11.062,5.425l23.056-4.856
	C104.494,206.155,107.319,203.634,108.442,200.267z"/>
<path d="M127.703,93.136c0.641-3.495-0.617-7.065-3.307-9.379L106.55,68.365c-4.183-3.609-10.5-3.141-14.106,1.041
	c-2.003,2.327-2.75,5.313-2.297,8.126c-19.095,0.269-37.656,7.772-51.612,21.283c-3.184,3.08-3.882,7.756-2.055,11.537
	c0.453,0.936,1.062,1.817,1.823,2.603c3.842,3.97,10.173,4.071,14.138,0.228c9.156-8.856,20.997-14.204,33.409-15.401
	c-0.265,1.625-0.128,3.342,0.473,5c0.123,0.326,0.255,0.645,0.403,0.95c2.203,4.558,7.546,6.804,12.41,5.038l22.145-8.043
	C124.616,99.513,127.06,96.626,127.703,93.136z"/>
<path d="M502.867,297.555c-2.883-27.145-5.605-52.781-2.645-71.176c7.352-45.668,0.973-89.914-18.445-127.953
	c-18.125-35.512-47.43-64.359-82.508-81.234C363.688,0.074,324.195-4.367,285.059,4.348c-42.25,9.406-82.707,34.281-117.031,71.938
	c-26.535,23.371-41.805,57.395-41.313,93.098c0,0.117,0.004,0.234,0.012,0.352l2.145,43.84l-29.129,71.215
	c-1.27,3.109-0.895,6.652,1,9.43c5.172,7.563,14.051,11.734,23.18,10.863l11.441-1.086l-2.242,14.191
	c-1.879,2.582-3.379,5.699-4.344,9.215c-1.992,6.875,0.488,16.824,6.902,24.02c-1.82,5.684-1.555,11.789,0.816,17.148
	c2.766,6.254,8.211,11.07,14.922,13.207l0.328,0.105c1.156,0.371,2.32,0.656,3.484,0.863c0.066,0.574,0.137,1.148,0.199,1.691
	c2.027,17.117,6.77,57.207,41.938,60.332c4.91,0.438,41.047-0.637,59.699-1.379c1.656,20.5,1.414,28.68-1.883,41.301
	c-0.781,2.996-0.133,6.188,1.762,8.641c1.891,2.453,4.816,3.887,7.914,3.887h61.426c0.871,0,3.621-0.082,4.191-0.035
	c11.637,0.977,22.66,1.469,33.086,1.469c51.559,0,88.457-11.98,112.258-36.309C516.004,421.258,509.023,355.539,502.867,297.555z
	 M148.109,332.535c0.27-0.93,0.582-1.609,0.855-2.082c7.742,1.273,18.59,5.746,27.207,9.797c-3.855,3.609-5.703,7.059-7.805,12.328
	c-0.797,2-1.695,4.262-3.203,7.246c-1.352,2.672-4.426,3.938-7.262,3.027l-0.402-0.129c-1.309-0.418-2.25-1.191-2.711-2.242
	c-0.469-1.059-0.41-2.293,0.168-3.559l1.945-4.242c2.191-4.773,0.309-10.43-4.305-12.945
	C149.195,337.879,148.152,333.793,148.109,332.535z M264.977,423.078c0.086-0.012,0.168-0.02,0.238-0.027
	C265.137,423.059,265.055,423.066,264.977,423.078z M461.523,448.355c-23.516,24.043-64.188,33.641-124.227,29.301
	c-8.602-15.012-36.098-65.902-37.352-104.84c-1.301-40.395,14.367-72.371,25.805-95.719c4.098-8.359,7.633-15.578,9.672-21.813
	c1.719-5.246-1.145-10.895-6.391-12.613c-5.25-1.715-10.898,1.145-12.613,6.391c-1.609,4.91-4.859,11.547-8.625,19.234
	c-11.668,23.809-29.297,59.793-27.836,105.16c1.188,36.887,22.035,80.98,34.219,103.762h-37.07
	c1.703-12.055,0.965-23.844-0.93-45.105c-0.254-2.813-1.68-5.391-3.934-7.094c-1.953-1.477-4.371-2.172-6.789-1.988
	c-5.566,0.309-60.934,2.254-66.316,1.813c-17.516-1.555-21.492-22.887-23.844-42.758c-0.156-1.324-0.305-2.563-0.457-3.711
	c3.363-2.391,6.199-5.613,8.184-9.539c1.902-3.777,3.074-6.715,3.93-8.855c1.922-4.836,2.219-5.578,13.563-12.449
	c0,0,0-0.004,0.004-0.004c3.703-2.246,5.543-6.633,4.547-10.852c-1.094-4.629-3.938-6.133-10.164-9.426
	c-2.871-1.52-7.449-3.855-12.953-6.367c-10.801-4.926-20.004-8.184-27.465-9.73l2.648-16.766c0.484-3.055-0.473-6.156-2.59-8.406
	c-2.113-2.254-5.152-3.402-8.227-3.109l-24.277,2.297c-0.281,0.027-0.563,0.031-0.844,0.012l27.035-66.094
	c0.551-1.355,0.801-2.813,0.73-4.273l-2.246-45.879c-0.348-28.59,11.402-55.879,31.934-75.266
	c18.359,1.711,26.574,12.129,46.934,41.008c9.727,13.793,21.828,30.957,38.863,51.168c3.559,4.227,9.867,4.762,14.09,1.203
	s4.762-9.867,1.199-14.094c-16.477-19.551-28.305-36.324-37.805-49.801c-16.387-23.242-27.813-39.445-46.652-46.211
	c69.027-66.391,145.199-65.84,195.328-41.73c67.734,32.586,103.016,106.375,89.879,187.988c-3.387,21.027-0.527,47.957,2.5,76.465
	C488.672,353.262,495.121,414.008,461.523,448.355z"/>
<path d="M303.848,220.176c-0.66,0-1.313-0.059-1.961-0.191c-0.641-0.129-1.27-0.32-1.871-0.57c-0.598-0.25-1.188-0.559-1.727-0.918
	c-0.543-0.371-1.063-0.789-1.523-1.25c-0.457-0.461-0.879-0.969-1.238-1.52c-0.359-0.539-0.672-1.121-0.922-1.723
	c-0.25-0.609-0.438-1.238-0.566-1.867c-0.133-0.652-0.203-1.313-0.203-1.961s0.07-1.313,0.203-1.949
	c0.129-0.641,0.316-1.27,0.566-1.871c0.25-0.609,0.563-1.188,0.922-1.73c0.359-0.551,0.781-1.059,1.238-1.52
	c0.461-0.461,0.98-0.879,1.523-1.238c0.539-0.359,1.129-0.672,1.727-0.922c0.602-0.25,1.23-0.438,1.871-0.57
	c1.289-0.258,2.621-0.258,3.91,0c0.641,0.133,1.27,0.32,1.871,0.57c0.598,0.25,1.18,0.563,1.719,0.922
	c0.551,0.359,1.063,0.777,1.531,1.238c0.457,0.461,0.867,0.969,1.238,1.52c0.359,0.543,0.672,1.121,0.922,1.73
	c0.25,0.602,0.438,1.23,0.566,1.871c0.133,0.641,0.191,1.301,0.191,1.949s-0.059,1.309-0.191,1.961
	c-0.129,0.629-0.316,1.258-0.566,1.867c-0.25,0.602-0.563,1.184-0.922,1.723c-0.371,0.551-0.781,1.059-1.238,1.52
	c-0.473,0.461-0.98,0.879-1.531,1.25c-0.539,0.359-1.121,0.668-1.719,0.918c-0.602,0.25-1.23,0.441-1.871,0.57
	C305.145,220.117,304.496,220.176,303.848,220.176z"/>
<path d="M247.098,208.043c0.555-1.516,0.746-3.188,0.488-4.895c-0.82-5.461-5.906-9.23-11.371-8.406l-0.254,0.039
	c-8.609,1.277-17.164,4.055-25.43,8.246c-2.621,1.332-5.746,2.512-9.035,3.414c-7.02,1.922-12.211,1.922-14.523,1.547
	c-2.395-3.152-6.555-4.703-10.609-3.594c-5.324,1.461-8.457,6.961-7,12.285c2.063,7.523,9.684,11.543,20.691,11.543
	c4.305,0,9.129-0.617,14.34-1.879l7.57,8.043c1.969,2.09,4.621,3.145,7.281,3.145c2.461,0,4.922-0.902,6.855-2.723
	c4.02-3.785,4.211-10.113,0.422-14.133l-0.918-0.977l11.762,5.785c1.418,0.699,2.922,1.031,4.406,1.031
	c3.691,0,7.238-2.055,8.98-5.59C253.035,216.285,251.391,210.73,247.098,208.043z"/>
</svg>
