<?xml version="1.0" encoding="utf-8"?>
<!-- Generator: Adobe Illustrator 16.0.0, SVG Export Plug-In . SVG Version: 6.00 Build 0)  -->
<!DOCTYPE svg PUBLIC "-//W3C//DTD SVG 1.1//EN" "http://www.w3.org/Graphics/SVG/1.1/DTD/svg11.dtd">
<svg version="1.1" id="Layer_1" xmlns="http://www.w3.org/2000/svg" xmlns:xlink="http://www.w3.org/1999/xlink" x="0px" y="0px"
	 width="400px" height="400px" viewBox="0 0 400 400" enable-background="new 0 0 400 400" xml:space="preserve">
<g>
	<path fill="#DBB38D" d="M242.355,365.248c-13.331,9.041-25.082,20.959-42.358,20.959c-17.269,0-29.028-11.918-42.352-20.959
		c-6.503-4.406-13.103-8.703-19.524-13.234V400h124.138v-48.248C255.715,356.379,248.977,360.758,242.355,365.248"/>
	<path fill="#FDD7AD" d="M312.459,221.868C225.273,122.226,138.072,117.24,138.072,117.24c-24.573,12.503,20.69,48.276,20.69,48.276
		c-39.228,0-62.069-27.586-62.069-27.586s-13.938,31.159-13.938,76.642c0,43.303,3.38,90.938,36.042,121.945
		c11.717,11.123,25.518,19.689,38.849,28.73c13.324,9.041,25.076,20.959,42.352,20.959c17.276,0,29.027-11.918,42.358-20.959
		c13.332-9.041,27.056-17.683,38.849-28.73c32.262-30.235,35.973-81.877,36.166-101.353
		C317.418,230.289,315.673,225.544,312.459,221.868"/>
	<path fill="#805333" d="M372.414,193.103c1.38-74.656-25.58-121.986-59.2-151.028c-64.932-56.097-163.208-56.104-226.428,0
		c-33.228,29.483-60.58,76.373-59.2,151.028c0,0-3.449,156.036,68.966,200c0,0-3.449-48.275,27.586-48.275h4.338
		c-3.338-2.635-6.586-5.373-9.676-8.311c-32.669-31.007-36.042-78.642-36.042-121.945c0-45.482,13.931-76.641,13.931-76.641
		s22.841,27.586,62.069,27.586c0,0-45.262-35.78-20.69-48.276c0,0,87.207,4.986,174.394,104.628c3.207,3.668,4.952,8.42,4.91,13.297
		c-0.2,19.476-3.903,71.117-36.173,101.352c-3.124,2.924-6.386,5.669-9.744,8.311h4.406c31.035,0,27.587,48.275,27.587,48.275
		C375.862,349.139,372.414,193.103,372.414,193.103"/>
</g>
</svg>
