<?xml version="1.0" encoding="utf-8"?>
<!-- Generator: Adobe Illustrator 16.0.0, SVG Export Plug-In . SVG Version: 6.00 Build 0)  -->
<!DOCTYPE svg PUBLIC "-//W3C//DTD SVG 1.1//EN" "http://www.w3.org/Graphics/SVG/1.1/DTD/svg11.dtd">
<svg version="1.1" id="Capa_1" xmlns="http://www.w3.org/2000/svg" xmlns:xlink="http://www.w3.org/1999/xlink" x="0px" y="0px"
	 width="400px" height="400px" viewBox="0 0 400 400" enable-background="new 0 0 400 400" xml:space="preserve">
<path fill="#F7B563" d="M215.869,70.094V178.74c0,5.804-4.71,10.514-10.514,10.514l0,0c-5.804,0-10.515-4.71-10.515-10.514V21.028
	C194.841,9.414,185.427,0,173.813,0l0,0c-11.615,0-21.028,9.414-21.028,21.028V178.74c0,5.804-4.71,10.514-10.514,10.514l0,0
	c-5.804,0-10.514-4.71-10.514-10.514V52.571c0-9.68-7.844-17.524-17.524-17.524l0,0c-9.68,0-17.523,7.844-17.523,17.524v140.188
	c0,5.804-4.71,10.514-10.514,10.514l0,0c-5.804,0-10.514-4.71-10.514-10.514v-87.618c0-9.68-7.843-17.524-17.523-17.524h-0.07
	c-9.68,0-17.523,7.844-17.523,17.524v190.151C46.423,379.967,92.854,400,158.392,400c46.732,0,87.029-23.895,106.381-58.535
	c8.139-13.137,57.436-89.896,61.67-97.916c4.935-9.35,12.161-20.607,21.273-28.051c4.857-3.968,8.089-9.238,11.082-14.755
	c0.764-1.416,2.985-18.547-9.75-18.498c-11.047,0.042-23.657,4.696-32.805,10.878c-10.254,6.933-23.565,18.898-34.935,38.769
	c-3.694,6.463-10.312,10.963-17.748,11.131c-7.017,0.162-5.201-3.279-5.636-17.775l0,0v-20.944V70.094
	c0-11.615-9.414-21.028-21.028-21.028l0,0C225.283,49.066,215.869,58.479,215.869,70.094z"/>
</svg>
