<?xml version="1.0" encoding="iso-8859-1"?>
<!-- Generator: Adobe Illustrator 19.0.0, SVG Export Plug-In . SVG Version: 6.00 Build 0)  -->
<svg version="1.1" id="Layer_1" xmlns="http://www.w3.org/2000/svg" xmlns:xlink="http://www.w3.org/1999/xlink" x="0px" y="0px"
	 viewBox="0 0 299.874 299.874" style="enable-background:new 0 0 299.874 299.874;" xml:space="preserve">
<g>
	<g>
		<g>
			<path d="M195.466,146.206c-6.638-6.65-26.966-77.287-42.783-141.726c-0.764-3.152-3.969-5.104-7.109-4.298
				c-3.152,0.77-5.08,3.951-4.298,7.109c5.498,22.42,33.587,134.928,45.888,147.229c12.507,12.495,42.548,54.984,23.52,74.017
				c-11.413,11.401-38.261,19.669-64.233,27.642c-24.073,7.403-48.927,15.047-65.915,26.072c-41.607-0.124-49.61-4.581-51.138-6.28
				c0.541-11.319,23.92-17.24,47.028-17.24c2.229,0,4.269-1.264,5.268-3.252c11.107-22.232,33.904-56.995,57.7-80.791
				c1.793-1.788,2.229-4.522,1.105-6.786c-8.697-17.393-17.975-33.628-27.807-50.809C96.135,88.141,79.013,58.223,64.266,21.35
				c-1.205-3.034-4.651-4.504-7.644-3.287c-3.016,1.205-4.486,4.628-3.281,7.644c15.041,37.632,32.369,67.938,49.133,97.22
				c9.032,15.782,17.599,30.764,25.601,46.487c-22.497,23.402-43.741,55.472-55.26,77.581c-27.336,0.635-55.184,8.608-55.184,29.359
				c0,14.641,25.848,17.64,64.68,17.64c1.182,0,2.328-0.359,3.287-1.005c15.541-10.578,40.325-18.193,64.292-25.566
				c28.6-8.785,55.625-17.099,69.096-30.57C246.857,208.98,207.526,158.265,195.466,146.206z"/>
			<path d="M223.132,256.844c-1.023-3.087-4.334-4.745-7.444-3.716c-3.081,1.023-4.745,4.363-3.71,7.444l11.76,35.28
				c0.811,2.458,3.11,4.022,5.568,4.022c0.612,0,1.241-0.106,1.864-0.312c3.093-1.023,4.745-4.357,3.722-7.438L223.132,256.844z"/>
			<path d="M279.621,253.821l-35.28-23.52c-2.711-1.805-6.362-1.082-8.156,1.629c-1.805,2.705-1.082,6.35,1.629,8.156l35.28,23.52
				c1.011,0.664,2.14,0.988,3.263,0.988c1.893,0,3.769-0.917,4.892-2.617C283.055,259.272,282.331,255.626,279.621,253.821z"/>
			<path d="M235.821,202.542c1.029,2.064,3.111,3.252,5.268,3.252c0.87,0,1.782-0.2,2.622-0.629l35.28-17.64
				c2.905-1.452,4.075-4.986,2.628-7.891c-1.458-2.899-4.974-4.057-7.891-2.622l-35.28,17.64
				C235.544,196.097,234.362,199.637,235.821,202.542z"/>
			<path d="M226.283,163.793c0.953,0.57,1.999,0.841,3.034,0.841c1.999,0,3.94-1.017,5.039-2.864l17.64-29.4
				c1.664-2.787,0.77-6.397-2.023-8.061c-2.781-1.676-6.386-0.77-8.061,2.011l-17.64,29.4
				C222.596,158.512,223.502,162.117,226.283,163.793z"/>
		</g>
	</g>
</g>
<g>
</g>
<g>
</g>
<g>
</g>
<g>
</g>
<g>
</g>
<g>
</g>
<g>
</g>
<g>
</g>
<g>
</g>
<g>
</g>
<g>
</g>
<g>
</g>
<g>
</g>
<g>
</g>
<g>
</g>
</svg>
