<?xml version="1.0" encoding="iso-8859-1"?>
<!-- Generator: Adobe Illustrator 19.0.0, SVG Export Plug-In . SVG Version: 6.00 Build 0)  -->
<svg version="1.1" id="Capa_1" xmlns="http://www.w3.org/2000/svg" xmlns:xlink="http://www.w3.org/1999/xlink" x="0px" y="0px"
	 viewBox="0 0 512 512" style="enable-background:new 0 0 512 512;" xml:space="preserve">
<path style="fill:#FFDECF;" d="M436.624,359.274c-66.617-104.498-38.882-200.305-12.37-269.535L427.785,0H88.742l-0.996,89.74
	c26.512,69.23,54.247,165.037-12.37,269.535C46.74,404.194,32.26,458.641,32.26,512h447.48
	C479.74,458.641,465.26,404.194,436.624,359.274z"/>
<path style="fill:#FFCDBE;" d="M436.624,359.274c-66.617-104.498-38.882-200.305-12.37-269.535L427.785,0H256c0,0,0,458.641,0,512
	h223.74C479.74,458.641,465.26,404.194,436.624,359.274z"/>
<path style="fill:#19CFFC;" d="M256,49.049c0,52.323,42.416,94.74,94.74,94.74s94.74-42.416,94.74-94.74V0H66.52v49.049
	c0,52.323,42.416,94.74,94.74,94.74S256,101.372,256,49.049"/>
<path style="fill:#4AB8F7;" d="M256,49.049c0,52.323,42.416,94.74,94.74,94.74s94.74-42.416,94.74-94.74V0H256V49.049"/>
<path style="fill:#19CFFC;" d="M479.74,512c0-52.238-13.887-105.513-41.339-149.876l-43.049,12.07
	c-91.144,25.553-187.56,25.553-278.704,0l-43.049-12.069C46.147,406.487,32.26,459.762,32.26,512H479.74z"/>
<path style="fill:#4AB8F7;" d="M479.74,512c0-52.238-13.887-105.513-41.339-149.876l-43.049,12.07
	C349.78,386.97,302.89,393.359,256,393.359C256,437.062,256,512,256,512H479.74z"/>
<rect x="241" y="305.62" style="fill:#FFBEAA;" width="30" height="30"/>
<rect x="256" y="305.62" style="fill:#FAA68E;" width="15" height="30"/>
<g>
</g>
<g>
</g>
<g>
</g>
<g>
</g>
<g>
</g>
<g>
</g>
<g>
</g>
<g>
</g>
<g>
</g>
<g>
</g>
<g>
</g>
<g>
</g>
<g>
</g>
<g>
</g>
<g>
</g>
</svg>
