<svg height="462pt" viewBox="-75 0 462 462.96" width="462pt" xmlns="http://www.w3.org/2000/svg"><path d="m312.480469 398.960938v48c-.027344 8.824218-7.175781 15.972656-16 16h-280c-8.824219-.027344-15.972657-7.175782-16-16v-48zm0 0" fill="#494342"/><path d="m312.480469 16v382.960938h-312v-382.960938c.027343-8.824219 7.175781-15.9726562 16-16h280c8.824219.0273438 15.972656 7.175781 16 16zm0 0" fill="#168de2"/><g fill="#fecf2c"><path d="m280.480469 182.960938h-16v-11c.003906-9-1.117188-17.960938-3.335938-26.679688l15.503907-4c2.550781 10.023438 3.839843 20.332031 3.832031 30.679688zm0 0"/><path d="m252.777344 123.097656c-13.636719-26.910156-37.910156-46.882812-66.941406-55.078125-29.027344-8.199219-60.164063-3.875-85.859376 11.925781l-8.382812-13.601562c29.492188-18.144531 65.234375-23.113281 98.5625-13.710938 33.328125 9.402344 61.199219 32.324219 76.859375 63.207032zm0 0"/><path d="m48.480469 182.960938h-16v-11c.070312-34.449219 14.421875-67.324219 39.632812-90.800782l10.886719 11.71875c-21.957031 20.445313-34.457031 49.078125-34.519531 79.082032zm0 0"/><path d="m269.28125 246.398438-14.527344-6.636719c6.445313-14.054688 9.761719-29.339844 9.726563-44.800781v-12h16v12c.03125 17.753906-3.792969 35.304687-11.199219 51.4375zm0 0"/><path d="m203.816406 309.566406-6.128906-14.773437c17.625-7.332031 33.007812-19.171875 44.609375-34.328125l12.695313 9.695312c-13.300782 17.402344-30.953126 30.996094-51.175782 39.40625zm0 0"/><path d="m52.769531 262.863281c-13.261719-20.164062-20.3125-43.769531-20.289062-67.902343h16c-.019531 21.011718 6.121093 41.570312 17.664062 59.128906zm0 0"/><path d="m248.480469 182.960938h-16v-11c-.015625-17.632813-6.160157-34.710938-17.375-48.3125l12.34375-10.183594c13.574219 16.472656 21.007812 37.148437 21.03125 58.496094zm0 0"/><path d="m82.9375 152.777344-15.488281-4c7.675781-29.394532 29.367187-53.105469 57.964843-63.359375 28.597657-10.253907 60.414063-5.726563 85.019532 12.09375l-9.410156 12.953125c-20.316407-14.734375-46.601563-18.480469-70.226563-10.003906-23.625 8.472656-41.539063 28.066406-47.859375 52.355468zm0 0"/><path d="m64.480469 171.960938h16v11h-16zm0 0"/><path d="m200.480469 171.960938h16v11h-16zm0 0"/><path d="m112.480469 171.960938h-16c.011719-26.375 17.242187-49.648438 42.464843-57.355469 25.222657-7.707031 52.519532 1.957031 67.269532 23.820312l-13.246094 8.964844c-10.8125-16.039063-30.832031-23.140625-49.335938-17.492187-18.5 5.648437-31.144531 22.714843-31.152343 42.0625zm0 0"/><path d="m204.976562 272.121094-8.457031-13.601563c22.394531-13.804687 36.011719-38.25 35.960938-64.558593v-11h16v11c.070312 31.84375-16.402344 61.441406-43.503907 78.160156zm0 0"/><path d="m90.007812 257.511719c-16.410156-17.085938-25.558593-39.863281-25.527343-63.550781v-11h16v11c-.023438 19.566406 7.535156 38.378906 21.09375 52.488281zm0 0"/><path d="m206.257812 227.441406-13.273437-8.960937c4.898437-7.238281 7.507813-15.78125 7.496094-24.519531v-11h16v11c.015625 11.929687-3.546875 23.59375-10.222657 33.480468zm0 0"/><path d="m106.382812 226.960938c-6.464843-9.792969-9.910156-21.269532-9.902343-33h16c-.015625 8.601562 2.511719 17.011718 7.261719 24.183593zm0 0"/></g><path d="m200.480469 326.960938-24 32v-187c0-11.046876-8.953125-20-20-20s-20 8.953124-20 20v96.039062l-104 30.710938v164.25h136l48-64v-72zm0 0" fill="#f4c99c"/></svg>