<?xml version="1.0" encoding="utf-8"?>
<!-- Generator: Adobe Illustrator 16.0.0, SVG Export Plug-In . SVG Version: 6.00 Build 0)  -->
<!DOCTYPE svg PUBLIC "-//W3C//DTD SVG 1.1//EN" "http://www.w3.org/Graphics/SVG/1.1/DTD/svg11.dtd">
<svg version="1.1" id="Capa_1" xmlns="http://www.w3.org/2000/svg" xmlns:xlink="http://www.w3.org/1999/xlink" x="0px" y="0px"
	 width="512px" height="512px" viewBox="0 0 512 512" enable-background="new 0 0 512 512" xml:space="preserve">
<path fill="#FFCDBE" d="M318.977,76.039c0,0,55.57,64.863,40.809,129.184s66.953,104.914,44.285,124.949
	c-22.672,20.035-44.086,11.598-35.227,48.504c0,0,6.887,15.156-9.324,36.508s14.859,67.617-50.613,67.617
	c-88.289,0-162.117-45.078-162.117-102.809c0-54.348-7.707-77.152-8.613-79.641l-0.063-0.25
	C250.036,209.645,318.977,76.039,318.977,76.039z"/>
<path fill="#F7C1B3" d="M188.575,379.992c0-54.344-7.707-77.152-8.613-79.641l-0.063-0.25
	c76.98-62.219,133.628-144.848,161.492-190.375c-11.074-20.445-22.414-33.688-22.414-33.688s-68.941,133.605-180.863,224.063
	l0.063,0.25c0.906,2.488,8.613,25.293,8.613,79.641c0,57.73,73.828,102.809,162.117,102.809c6.375,0,11.82-0.445,16.496-1.254
	C248.743,473.91,188.575,432.109,188.575,379.992z"/>
<path fill="#EFB5A8" d="M321.367,384.965c24.059,7.828,45.855,1.379,46.074,1.313c0.941-0.289,1.895-0.383,2.82-0.313
	c0.191,4.051-0.371,9.625-3.145,16.289c-4.453,0.934-11.645,2.063-20.48,2.063c-8.785,0-19.176-1.117-30.051-4.656
	c-4.059-1.32-6.277-5.68-4.957-9.738S317.305,383.645,321.367,384.965z"/>
<path fill="#DDE4F7" d="M291.746,35.719c3.676-8.285,14.777-9.859,20.551-2.875c8.688,10.5,16.406,26.172,6.68,43.195
	c0,0-68.949,133.621-180.882,224.082c0,0-24.707,15.973-74.691,7.152C63.403,307.273,244.637,141.762,291.746,35.719z"/>
<path fill="#CCD7F2" d="M105.211,300.121C217.149,209.66,286.098,76.039,286.098,76.039c6.426-11.25,5.234-21.91,1.18-30.879
	c1.598-3.191,3.09-6.344,4.469-9.441c3.68-8.285,14.777-9.859,20.551-2.875c8.688,10.5,16.406,26.172,6.68,43.195
	c0,0-68.949,133.621-180.882,224.082c0,0-20.77,13.402-62.719,8.852C95.305,306.512,105.211,300.121,105.211,300.121z"/>
<path fill="#CCD7F2" d="M44.536,279.961C120.981,201.926,186.403,0.746,234.918,0.012c34.703-0.527,55.859,18.125,65.097,28.789
	c-3.48,0.852-6.621,3.207-8.27,6.918C244.637,141.762,63.399,307.273,63.399,307.273C16.528,305.84,44.536,279.961,44.536,279.961z"
	/>
<g>
	<path fill="#BCCCED" d="M254.071,35.719c0.121-0.266,0.246-0.523,0.379-0.777c3.007-5.703,1.883-12.711-3.152-16.738
		c-6.961-5.566-16.188-11.156-27.809-14.645c3.906-2.258,7.719-3.492,11.43-3.547c34.703-0.527,55.859,18.125,65.097,28.793
		c-3.48,0.852-6.621,3.203-8.27,6.914C244.637,141.762,63.399,307.273,63.399,307.273c-18.574-0.566-25.387-4.977-26.844-10.09
		C76.297,259.719,213.915,126.113,254.071,35.719z"/>
	<path fill="#BCCCED" d="M44.536,279.961c0,0-6.07,5.605-7.828,11.75C15.793,261.621,3.512,225,3.512,185.488
		C3.512,83.047,86.008,0,187.77,0c12.258,0,24.227,1.215,35.816,3.516C176.411,30.578,115.18,207.844,44.536,279.961z"/>
	<path fill="#BCCCED" d="M25.512,200.863c0-102.352,82.348-185.336,183.984-185.484c4.824-5.203,9.523-9.246,14.09-11.863
		C212,1.215,200.028,0,187.77,0C86.008,0,3.512,83.047,3.512,185.488c0,39.512,12.281,76.133,33.195,106.223
		c1.316-4.594,5.039-8.887,6.832-10.762C31.989,256.707,25.512,229.547,25.512,200.863z"/>
</g>
<path fill="#A7BFE8" d="M176.715,14.98c4.797-5.125,1.656-13.57-5.336-14.207l-0.195-0.016C176.649,0.266,182.18,0,187.77,0
	c12.258,0,24.227,1.215,35.816,3.516C176.411,30.578,115.18,207.844,44.536,279.961c0,0-6.07,5.605-7.828,11.75
	c-5.297-7.625-10.039-15.668-14.172-24.07C81.911,197.27,134.262,60.293,176.715,14.98z"/>
<path fill="#CCD7F2" d="M20.036,261.434c4.863,10.664,10.711,20.793,17.438,30.273c-2.059,7.051,1.676,14.801,27.25,15.566
	c11.375,1.965,21.461,2.695,30.281,2.648c0.645,6.75,2.281,25.965,2.898,51.785c-9.703,5.688-21.051,8.965-33.18,8.965
	C28.977,370.672,0,342.285,0,307.273C0,289.238,7.7,272.977,20.036,261.434z"/>
<path fill="#BCCCED" d="M68.559,344.34c-0.645-16.797-1.563-29.711-2.137-36.793c10.68,1.75,20.211,2.418,28.582,2.375
	c0.645,6.75,2.281,25.965,2.898,51.789c-9.703,5.688-21.051,8.965-33.18,8.965c-5.066,0-9.988-0.59-14.719-1.668
	c0.07-0.016,0.137-0.035,0.203-0.051C61.391,366.25,69,355.84,68.559,344.34z"/>
<path fill="#EFB5A8" d="M272.723,224.133c9.184-11.34,29.574-31.789,57.656-32.512c0.215-0.008,0.422,0.059,0.594,0.184
	c1.117,0.809,5.176,4.43,6.645,15.098c0.051,0.379-0.125,0.754-0.457,0.949c-2.938,1.715-17.586,9.656-37.145,9.656
	c-11.98,0-20.637,4.188-26.023,7.984C273.098,226.121,272.035,224.98,272.723,224.133z"/>
<path fill="#E59B8F" d="M314.875,194.082c4.863-1.426,10.035-2.32,15.504-2.465c0.215-0.004,0.422,0.059,0.594,0.184
	c1.117,0.813,5.176,4.434,6.645,15.098c0.051,0.379-0.129,0.758-0.457,0.953c-1.809,1.055-8.063,4.469-17.164,6.938
	C318.926,203.16,316.543,197.051,314.875,194.082z"/>
<path fill="#B9E1FB" d="M273.992,225.492c5.391-3.801,14.043-7.984,26.023-7.984c19.559,0,34.211-7.945,37.145-9.656
	c0.332-0.195,0.508-0.574,0.457-0.953c3.609,19.922-2.383,33.484-6.59,40.133c-1.918,3.023-5.375,4.699-8.941,4.359
	c-32.805-3.109-45.434-20.477-48.539-25.738C273.695,225.637,273.844,225.598,273.992,225.492z"/>
<path fill="#495766" d="M312.418,216.453c13.164-2.215,22.469-7.277,24.742-8.605c0.328-0.191,0.508-0.57,0.457-0.949
	c3.609,19.918-2.383,33.48-6.59,40.129c-1.914,3.016-5.363,4.703-8.914,4.363c-1.656-0.16-3.262-0.352-4.82-0.578
	c-5.219-4.832-8.543-12.117-8.543-20.273C308.75,225.359,310.098,220.531,312.418,216.453z"/>
<path fill="#2F3A48" d="M319.906,214.809c9.148-2.469,15.441-5.898,17.254-6.957c0.332-0.195,0.508-0.574,0.457-0.953
	c3.609,19.922-2.379,33.484-6.59,40.129c-1.91,3.02-5.359,4.703-8.914,4.363c-1.656-0.156-3.262-0.352-4.816-0.578
	c-1.586-1.465-2.992-3.16-4.184-5.031C316.625,239.797,320.84,229.371,319.906,214.809z"/>
<path fill="#2F3A48" d="M270.273,197.625c31.32-25.348,59.738-24.211,60.016-24.188c4.266,0.23,7.895-3.059,8.113-7.324
	c0.219-4.262-3.059-7.891-7.32-8.109c-1.398-0.066-34.66-1.422-70.531,27.609c-3.316,2.684-3.828,7.551-1.145,10.867
	S266.953,200.313,270.273,197.625z"/>
<path fill="#FF5155" d="M259.613,454.113c-1.637-0.754-3.269-1.539-4.855-2.332c-3.82-1.906-5.367-6.547-3.461-10.363
	s6.546-5.367,10.367-3.461c1.441,0.723,2.93,1.438,4.422,2.121c3.875,1.789,5.566,6.379,3.781,10.254
	c-1.305,2.828-4.102,4.492-7.023,4.492C261.762,454.824,260.66,454.598,259.613,454.113z M223.18,430.934
	c-1.371-1.18-2.734-2.402-4.059-3.633c-3.125-2.906-3.297-7.797-0.391-10.918c2.906-3.125,7.797-3.301,10.922-0.395
	c1.176,1.098,2.391,2.188,3.609,3.234c3.234,2.785,3.598,7.664,0.816,10.898c-1.531,1.773-3.688,2.684-5.859,2.684
	C226.434,432.805,224.637,432.191,223.18,430.934z M195.094,397.805c-0.934-1.543-1.855-3.125-2.738-4.711
	c-2.07-3.73-0.727-8.438,3.004-10.508c3.727-2.074,8.434-0.73,10.504,3c0.785,1.41,1.605,2.82,2.438,4.191
	c2.219,3.648,1.059,8.402-2.59,10.617c-1.254,0.762-2.637,1.125-4.004,1.125C199.098,401.52,196.551,400.195,195.094,397.805z
	 M178.34,357.863c-0.453-1.73-0.883-3.5-1.281-5.262c-0.938-4.16,1.676-8.297,5.836-9.238c4.164-0.938,8.301,1.672,9.238,5.836
	c0.363,1.594,0.75,3.195,1.16,4.762c1.078,4.129-1.395,8.348-5.523,9.426c-0.656,0.172-1.313,0.254-1.957,0.254
	C182.379,363.641,179.247,361.34,178.34,357.863z M180.645,322.801c-4.266-0.082-7.66-3.609-7.574-7.875
	c0.066-3.496,0.258-5.527,0.281-5.75c0.414-4.242,4.188-7.352,8.43-6.93c4.242,0.406,7.352,4.18,6.953,8.426
	c-0.004,0.016-0.156,1.664-0.211,4.555c-0.086,4.215-3.527,7.578-7.723,7.578C180.747,322.801,180.696,322.801,180.645,322.801z"/>
<path fill="#EFB5A8" d="M93.063,309.922c30.102-0.16,45.027-9.801,45.027-9.801c8.754,22.453,8.543,80.008,8.879,84.633
	c3.484,49.066,57.02,80.23,105.535,91.637c1.102,9.824,2.422,18.598,3.793,26.258c0.871,4.879-2.891,9.352-7.848,9.352H93.036
	c-5.047,0-8.84-4.637-7.805-9.574C102.297,421.277,94.633,326.77,93.063,309.922z"/>
<path fill="#EAA89C" d="M138.09,300.121c8.754,22.453,8.543,80.008,8.879,84.633c3.484,49.066,57.02,80.23,105.535,91.641
	c1.102,9.824,2.422,18.594,3.793,26.254c0.871,4.879-2.891,9.352-7.848,9.352h-36.059c4.957,0,8.719-4.473,7.848-9.352
	c-1.031-5.758-2.035-12.145-2.938-19.133c-0.551-4.27-3.637-7.75-7.789-8.879c-46.551-12.652-95.281-43.145-98.602-89.883
	c-0.297-4.082-0.168-49.387-6.152-75.406C127.028,307.254,138.09,300.121,138.09,300.121z"/>
</svg>
