<?xml version="1.0" encoding="iso-8859-1"?>
<!-- Generator: Adobe Illustrator 19.0.0, SVG Export Plug-In . SVG Version: 6.00 Build 0)  -->
<svg version="1.1" id="Layer_1" xmlns="http://www.w3.org/2000/svg" xmlns:xlink="http://www.w3.org/1999/xlink" x="0px" y="0px"
	 viewBox="0 0 512 512" style="enable-background:new 0 0 512 512;" xml:space="preserve">
<path style="fill:#FFE1BF;" d="M437.074,411.826c-6.345,0-12.466,1.336-18.475,3.896l-65.225-45.969V150.261
	c0-56.654-31.278-106.073-77.69-131.673C254.202,6.79,229.492,0,203.335,0H17.252C8.013,0,0.556,7.457,0.556,16.696v178.087
	c0,9.238,7.456,16.696,16.696,16.696h158.702c7.679,0,14.47,5.343,16.25,12.8c3.339,32.835,6.79,57.767,9.572,77.913
	c7.681,55.542,9.683,70.456-9.906,117.203C173.395,463.249,205.784,512,253.422,512h183.652c27.603,0,50.087-22.483,50.087-50.087
	C487.161,434.31,464.677,411.826,437.074,411.826z"/>
<path style="fill:#FFCF99;" d="M487.161,461.913c0,27.603-22.483,50.087-50.087,50.087H275.683V18.588
	c46.413,25.6,77.69,75.019,77.69,131.673v219.492l65.225,45.969c6.009-2.56,12.13-3.896,18.475-3.896
	C464.677,411.826,487.161,434.31,487.161,461.913z"/>
<g>
	<path style="fill:#E7812E;" d="M392.552,100.174c-9.217,0-16.696-7.473-16.696-16.696V50.087c0-9.223,7.479-16.696,16.696-16.696
		h16.696V16.696C409.248,7.473,416.727,0,425.944,0s16.696,7.473,16.696,16.696v33.391c0,9.223-7.479,16.696-16.696,16.696h-16.696
		v16.696C409.248,92.701,401.77,100.174,392.552,100.174z"/>
	<path style="fill:#E7812E;" d="M459.335,140.478l-11.804-11.804l-11.804,11.804c-6.521,6.521-17.087,6.521-23.609,0
		c-6.521-6.516-6.521-17.092,0-23.609l23.609-23.609c6.521-6.521,17.087-6.521,23.609,0l11.804,11.804l11.804-11.804
		c6.521-6.521,17.087-6.521,23.609,0c6.521,6.516,6.521,17.092,0,23.609l-23.609,23.609C476.421,147,465.856,147,459.335,140.478z"
		/>
	<path style="fill:#E7812E;" d="M492.726,233.739h-33.391c-9.217,0-16.696-7.473-16.696-16.696v-16.696h-16.696
		c-9.217,0-16.696-7.473-16.696-16.696s7.479-16.696,16.696-16.696h33.391c9.217,0,16.696,7.473,16.696,16.696v16.696h16.696
		c9.217,0,16.696,7.473,16.696,16.696S501.943,233.739,492.726,233.739z"/>
</g>
<g>
</g>
<g>
</g>
<g>
</g>
<g>
</g>
<g>
</g>
<g>
</g>
<g>
</g>
<g>
</g>
<g>
</g>
<g>
</g>
<g>
</g>
<g>
</g>
<g>
</g>
<g>
</g>
<g>
</g>
</svg>
