<?xml version="1.0" encoding="utf-8"?>
<!-- Generator: Adobe Illustrator 16.0.0, SVG Export Plug-In . SVG Version: 6.00 Build 0)  -->
<!DOCTYPE svg PUBLIC "-//W3C//DTD SVG 1.1//EN" "http://www.w3.org/Graphics/SVG/1.1/DTD/svg11.dtd">
<svg version="1.1" id="Layer_1" xmlns="http://www.w3.org/2000/svg" xmlns:xlink="http://www.w3.org/1999/xlink" x="0px" y="0px"
	 width="400px" height="400px" viewBox="0 0 400 400" enable-background="new 0 0 400 400" xml:space="preserve">
<path fill="#FC7576" d="M295.418,162.803H108.084l-50.226,27.48c15.988,64.61,74.342,112.51,143.894,112.51
	c69.55,0,127.902-47.902,143.895-112.51L295.418,162.803z"/>
<path fill="#F9545B" d="M108.084,184.363c40.314,0,56.02,33.813,93.668,33.813c37.646,0,53.352-33.813,93.666-33.813
	c43.611,0,79.216,16.478,107.047,12.966c-71.768,0-97.893-140.814-200.715-72.823C98.928,56.513,72.803,197.329,1.034,197.329
	C28.871,200.841,64.472,184.363,108.084,184.363z"/>
</svg>
