<?xml version="1.0" encoding="iso-8859-1"?>
<!-- Generator: Adobe Illustrator 16.0.0, SVG Export Plug-In . SVG Version: 6.00 Build 0)  -->
<!DOCTYPE svg PUBLIC "-//W3C//DTD SVG 1.1//EN" "http://www.w3.org/Graphics/SVG/1.1/DTD/svg11.dtd">
<svg version="1.1" id="Capa_1" xmlns="http://www.w3.org/2000/svg" xmlns:xlink="http://www.w3.org/1999/xlink" x="0px" y="0px"
	 width="357.499px" height="357.499px" viewBox="0 0 357.499 357.499" style="enable-background:new 0 0 357.499 357.499;"
	 xml:space="preserve">
<g>
	<g>
		<path d="M310.74,98.45c-2.269-1.058-4.688-1.619-6.937-1.619c-3.265,0-5.989,1.143-7.693,3.203
			c-10.054,12.245-19.267,36.059-26.679,55.2c-3.409,8.844-7.991,20.685-11.085,26.246c-1.69-16.288,5.619-75.026,8.43-97.64
			l0.051-0.368c1.951-15.713,2.262-18.468,2.159-19.691c-0.76-8.754-3.812-14.676-9.089-17.595
			c-5.328-2.963-12.573-2.327-20.608,1.802c-4.038,2.081-5.667,10.064-11.54,46.379l-0.027,0.161
			c-3.23,19.948-10.67,65.892-16.385,73.226c-5.086-11.185-8.843-72.945-10.465-99.679c-1.13-18.726-1.801-29.472-2.525-32.762
			c-1.53-6.878-9.568-13.208-17.917-14.104c-6.938-0.83-12.901,2.327-16.057,8.312c-5.501,5.34-5.017,24.376-2.512,69.55
			c1.191,21.495,3.655,65.9-0.171,70.601c-6.901-1.249-16.906-29.658-29.739-84.46c-3.598-15.347-4.729-19.965-6.016-22.046
			c-2.341-7.089-11.546-13.067-20.17-13.067c-0.741,0-1.458,0.048-2.169,0.133c-4.56,0.579-15.1,4.016-14.248,23.35
			c4.187,27.009,9.413,46.981,14.462,66.378l0.101,0.385c3.032,11.61,5.895,22.588,8.418,34.718
			c5.939,28.642,1.649,45.862,1.6,46.061c-0.389,1.775-1.02,2.83-1.874,3.155c-0.316,0.109-0.698,0.178-1.129,0.178
			c-2.519,0-6.16-1.931-8.029-3.146c-3.833-8.812-23.029-50.839-42.604-57.856l-0.705-0.262l-0.732,0.017
			c-7.373,0.187-12.941,2.594-16.575,7.149c-5.744,7.205-4.257,16.998-3.872,18.969l0.245,0.712
			c0.144,0.309,14.106,30.741,15.632,44.557c1.323,11.848,11.492,25.29,19.664,36.09l0.335,0.445
			c2.671,3.531,4.971,6.591,6.757,9.391c23.899,28.824,63.098,54.405,63.421,54.61c4.825,4.131,7.397,7.967,7.474,11.14
			c0.05,2.066-1.1,3.217-1.134,3.258l-0.95,0.869l0.081,0.092h-0.397v7.009h113.934v-2.361l5.839-19.697
			c18.346-58.652,18.948-109.708,18.921-110.054c0.195-1.868,5.435-19.685,9.657-34.074l0.109-0.366
			c8.405-28.68,18.877-64.355,21.361-78.041C320.421,107.036,317.04,101.362,310.74,98.45z M311.544,111.486
			c-2.416,13.306-13.319,50.448-21.272,77.574c-6.893,23.476-9.723,33.291-9.959,35.926c0,0.493-0.212,49.361-18.603,108.13
			l-5.15,17.371h-97.367c0.397-1.191,0.685-2.563,0.671-4.172c-0.022-5.626-3.593-11.519-10.686-17.556
			c-0.395-0.253-39.279-25.868-61.72-52.876c-1.795-2.864-4.531-6.488-7.18-9.979c-7.181-9.507-17.029-22.538-18.096-32.189
			c-1.602-14.4-14.456-42.927-16.093-46.507c-0.207-1.447-0.876-7.819,2.411-11.919c1.983-2.481,5.279-3.869,9.781-4.115
			c17.535,7.31,37.57,53.828,37.767,54.301l0.429,0.985l0.855,0.664c1.207,0.876,7.503,5.264,13.608,5.264
			c1.395,0,2.715-0.226,3.886-0.678c2.435-0.91,5.607-3.176,6.815-8.733c0.2-0.753,4.805-18.907-1.552-49.525
			c-2.527-12.257-5.457-23.454-8.547-35.315l-0.049-0.18c-4.983-19.074-10.145-38.799-14.262-65.158
			c-0.382-8.827,2.253-14.042,7.376-14.702c5.852-0.819,13.249,3.989,14.065,7.777l1.028,2.929
			c1.082,3.547,3.135,12.338,4.502,18.219c11.635,49.582,22.526,90.631,37.924,90.631c1.251,0,3.087-0.368,4.748-2.13
			c6.324-6.677,5.327-33.508,2.909-76.938c-1.17-21.032-2.657-59.309-0.294-63.067l0.95-1.973c1.449-3.123,5.056-4.524,7.919-4.524
			c0.417,0,0.812,0.029,1.206,0.073c4.88,0.525,10.246,4.384,11.02,7.938c0.612,2.723,1.403,15.833,2.334,31l0.03,0.51
			c5.257,86.76,8.74,107.943,17.687,107.943c10.16,0,15.129-20.192,24.934-80.85l0.048-0.256
			c2.402-14.859,6.016-37.206,7.632-40.488c5.249-2.637,10.026-3.282,12.799-1.761c3.518,1.945,4.674,7.167,5.01,11.158
			c0.014,1.083-1.074,9.788-2.115,18.206c-9.507,76.373-10.872,102.571-5.626,107.823c1.396,1.387,3.36,1.985,5.12,1.574
			c5.358-1.118,8.897-9.185,18.411-33.824c7.196-18.587,16.128-41.713,25.399-52.979c0.074-0.087,0.52-0.314,1.484-0.314
			c1.137,0,2.437,0.314,3.672,0.876C309.713,106.728,312.023,108.822,311.544,111.486z"/>
		<g>
			<path d="M182.504,0.259c-19.905-2.38-38.035,11.887-40.416,31.792c-2.117,17.749,9.007,34.054,25.543,39.069
				c-0.525-2.584-0.696-5.103-0.725-7.693c-11.798-4.926-19.445-17.234-17.857-30.546c1.923-16.071,16.563-27.583,32.626-25.663
				c16.074,1.922,27.586,16.555,25.67,32.625c-1.04,8.667-5.794,15.963-12.457,20.581c0.213,0.585,0.418,1.167,0.555,1.788
				c0.418,1.886,0.65,3.778,0.739,5.672c9.657-5.515,16.7-15.338,18.117-27.206C216.675,20.77,202.418,2.64,182.504,0.259z"/>
		</g>
	</g>
</g>
<g>
</g>
<g>
</g>
<g>
</g>
<g>
</g>
<g>
</g>
<g>
</g>
<g>
</g>
<g>
</g>
<g>
</g>
<g>
</g>
<g>
</g>
<g>
</g>
<g>
</g>
<g>
</g>
<g>
</g>
</svg>
