<?xml version="1.0" encoding="iso-8859-1"?>
<!-- Generator: Adobe Illustrator 19.0.0, SVG Export Plug-In . SVG Version: 6.00 Build 0)  -->
<svg version="1.1" id="Layer_1" xmlns="http://www.w3.org/2000/svg" xmlns:xlink="http://www.w3.org/1999/xlink" x="0px" y="0px"
	 viewBox="0 0 512 512" style="enable-background:new 0 0 512 512;" xml:space="preserve">
<g>
	<path style="fill:#FCDE76;" d="M288,32c-13.233,0-24-10.767-24-24c0-4.418-3.582-8-8-8s-8,3.582-8,8c0,13.233-10.767,24-24,24
		c-4.418,0-8,3.582-8,8s3.582,8,8,8c13.233,0,24,10.767,24,24c0,4.418,3.582,8,8,8s8-3.582,8-8c0-13.233,10.767-24,24-24
		c4.418,0,8-3.582,8-8S292.418,32,288,32z"/>
	<path style="fill:#FCDE76;" d="M456,136c-13.233,0-24-10.767-24-24c0-4.418-3.582-8-8-8s-8,3.582-8,8c0,13.233-10.767,24-24,24
		c-4.418,0-8,3.582-8,8s3.582,8,8,8c13.233,0,24,10.767,24,24c0,4.418,3.582,8,8,8s8-3.582,8-8c0-13.233,10.767-24,24-24
		c4.418,0,8-3.582,8-8S460.418,136,456,136z"/>
	<path style="fill:#FCDE76;" d="M120,104c-13.233,0-24-10.767-24-24c0-4.418-3.582-8-8-8s-8,3.582-8,8c0,13.233-10.767,24-24,24
		c-4.418,0-8,3.582-8,8s3.582,8,8,8c13.233,0,24,10.767,24,24c0,4.418,3.582,8,8,8s8-3.582,8-8c0-13.233,10.767-24,24-24
		c4.418,0,8-3.582,8-8S124.418,104,120,104z"/>
</g>
<path style="fill:#FCD9B1;" d="M88,232c-39.701,0-72,32.299-72,72v200c0,4.418,3.582,8,8,8h128c4.418,0,8-3.582,8-8V304
	C160,264.299,127.701,232,88,232z"/>
<path style="fill:#FAB364;" d="M40,504V304c0-35.612,25.993-65.249,60-70.981C96.095,232.361,92.09,232,88,232
	c-39.701,0-72,32.299-72,72v200c0,4.418,3.582,8,8,8h24C43.582,512,40,508.418,40,504z"/>
<path style="fill:#AD7DC9;" d="M88,192c-26.467,0-48,21.532-48,48v104c0,22.056,17.944,40,40,40h16c22.056,0,40-17.944,40-40V240
	C136,213.532,114.467,192,88,192z"/>
<path style="fill:#8A6CBD;" d="M56,344V240c0-23.741,17.329-43.5,40-47.321C93.396,192.24,90.726,192,88,192
	c-26.467,0-48,21.532-48,48v104c0,22.056,17.944,40,40,40h16C73.944,384,56,366.056,56,344z"/>
<g>
	<path style="fill:#F0F0F1;" d="M89,232h-1c-4.418,0-8-3.582-8-8s3.582-8,8-8h1c4.418,0,8,3.582,8,8S93.418,232,89,232z"/>
	<path style="fill:#F0F0F1;" d="M105,256h-1c-4.418,0-8-3.582-8-8s3.582-8,8-8h1c4.418,0,8,3.582,8,8S109.418,256,105,256z"/>
	<path style="fill:#F0F0F1;" d="M73,256h-1c-4.418,0-8-3.582-8-8s3.582-8,8-8h1c4.418,0,8,3.582,8,8S77.418,256,73,256z"/>
	<path style="fill:#F0F0F1;" d="M105,288h-1c-4.418,0-8-3.582-8-8s3.582-8,8-8h1c4.418,0,8,3.582,8,8S109.418,288,105,288z"/>
	<path style="fill:#F0F0F1;" d="M73,288h-1c-4.418,0-8-3.582-8-8s3.582-8,8-8h1c4.418,0,8,3.582,8,8S77.418,288,73,288z"/>
	<path style="fill:#F0F0F1;" d="M105,320h-1c-4.418,0-8-3.582-8-8s3.582-8,8-8h1c4.418,0,8,3.582,8,8S109.418,320,105,320z"/>
	<path style="fill:#F0F0F1;" d="M73,320h-1c-4.418,0-8-3.582-8-8s3.582-8,8-8h1c4.418,0,8,3.582,8,8S77.418,320,73,320z"/>
	<path style="fill:#F0F0F1;" d="M105,352h-1c-4.418,0-8-3.582-8-8s3.582-8,8-8h1c4.418,0,8,3.582,8,8S109.418,352,105,352z"/>
	<path style="fill:#F0F0F1;" d="M73,352h-1c-4.418,0-8-3.582-8-8s3.582-8,8-8h1c4.418,0,8,3.582,8,8S77.418,352,73,352z"/>
</g>
<path style="fill:#FCD9B1;" d="M256,144c-39.701,0-72,32.299-72,72v288c0,4.418,3.582,8,8,8h128c4.418,0,8-3.582,8-8V216
	C328,176.299,295.701,144,256,144z"/>
<path style="fill:#FAB364;" d="M208,504V216c0-35.612,25.993-65.249,60-70.981c-3.905-0.658-7.91-1.019-12-1.019
	c-39.701,0-72,32.299-72,72v288c0,4.418,3.582,8,8,8h24C211.582,512,208,508.418,208,504z"/>
<path style="fill:#F0F0F1;" d="M256,112c-26.467,0-48,21.532-48,48v104c0,22.056,17.944,40,40,40h16c22.056,0,40-17.944,40-40V160
	C304,133.532,282.467,112,256,112z"/>
<path style="fill:#E1E0E4;" d="M224,264V160c0-23.741,17.329-43.5,40-47.321c-2.604-0.439-5.274-0.679-8-0.679
	c-26.467,0-48,21.532-48,48v104c0,22.056,17.944,40,40,40h16C241.944,304,224,286.056,224,264z"/>
<g>
	<path style="fill:#E6608D;" d="M208,264c0,1.499,0.09,2.978,0.252,4.435L304,172.686V160c0-3.901-0.479-7.691-1.362-11.324
		L208,243.314V264z"/>
	<path style="fill:#E6608D;" d="M248,304h16c22.056,0,40-17.944,40-40v-20.686l-60.434,60.435C245.023,303.91,246.501,304,248,304z"
		/>
	<path style="fill:#E6608D;" d="M226.794,297.892L304,220.686v-25.372l-89.892,89.892
		C217.325,290.331,221.67,294.675,226.794,297.892z"/>
	<path style="fill:#E6608D;" d="M256,112c-26.467,0-48,21.532-48,48v12.686l59.324-59.324C263.691,112.479,259.901,112,256,112z"/>
	<path style="fill:#E6608D;" d="M282.986,120.328L208,195.314v25.372l87.672-87.672
		C292.274,128.035,287.965,123.726,282.986,120.328z"/>
</g>
<g>
	<path style="fill:#D4506F;" d="M208,243.314V264c0,1.499,0.09,2.978,0.252,4.435L224,252.686v-25.372L208,243.314z"/>
	<path style="fill:#D4506F;" d="M214.108,285.206c3.218,5.124,7.562,9.468,12.686,12.686l7.332-7.332
		c-4.152-4.665-7.235-10.3-8.849-16.523L214.108,285.206z"/>
	<path style="fill:#D4506F;" d="M263.968,112.685C261.375,112.246,258.717,112,256,112c-26.467,0-48,21.532-48,48v12.686
		l16.138-16.138C225.722,134.377,242.422,116.332,263.968,112.685z"/>
	<polygon style="fill:#D4506F;" points="208,195.314 208,220.686 224,204.686 224,179.314 	"/>
</g>
<path style="fill:#FCD9B1;" d="M424,256c-39.701,0-72,32.299-72,72v176c0,4.418,3.582,8,8,8h128c4.418,0,8-3.582,8-8V328
	C496,288.299,463.701,256,424,256z"/>
<path style="fill:#FAB364;" d="M376,504V328c0-35.612,25.993-65.249,60-70.981c-3.905-0.658-7.91-1.019-12-1.019
	c-39.701,0-72,32.299-72,72v176c0,4.418,3.582,8,8,8h24C379.582,512,376,508.418,376,504z"/>
<path style="fill:#F0F0F1;" d="M424,224c-26.467,0-48,21.532-48,48v104c0,22.056,17.944,40,40,40h16c22.056,0,40-17.944,40-40V272
	C472,245.532,450.467,224,424,224z"/>
<path style="fill:#E1E0E4;" d="M392,376V272c0-23.741,17.329-43.5,40-47.321c-2.604-0.439-5.274-0.679-8-0.679
	c-26.467,0-48,21.532-48,48v104c0,22.056,17.944,40,40,40h16C409.944,416,392,398.056,392,376z"/>
<g>
	<path style="fill:#38C7C2;" d="M456,264c5.254,0,10.211-1.281,14.59-3.534c-5.101-20.598-23.535-35.981-45.579-36.44
		c-0.658,2.55-1.01,5.221-1.01,7.974C424,249.645,438.355,264,456,264z"/>
	<path style="fill:#38C7C2;" d="M440,376c11.374,0,22.193-2.402,32-6.7v-23.988c-9.805,4.297-20.627,6.688-32,6.688
		c-26.145,0-49.394-12.612-64-32.066v24.011C390.607,363.395,413.858,376,440,376z"/>
	<path style="fill:#38C7C2;" d="M448,296c8.74,0,16.936-2.355,24-6.455v-12.304c-5.008,1.778-10.39,2.759-16,2.759
		c-26.467,0-48-21.532-48-48c0-1.81,0.11-3.594,0.306-5.352c-1.381,0.479-2.732,1.02-4.052,1.619
		C401.526,234.29,400,240.969,400,248C400,274.468,421.533,296,448,296z"/>
	<path style="fill:#38C7C2;" d="M440,392c-24.566,0-47.003-9.28-64-24.512V376c0,22.056,17.944,40,40,40h16
		c18.222,0,33.626-12.252,38.435-28.947C460.867,390.259,450.633,392,440,392z"/>
	<path style="fill:#38C7C2;" d="M440,336c11.655,0,22.581-3.145,32-8.612v-20.071c-7.415,3.014-15.514,4.683-24,4.683
		c-35.29,0-64-28.71-64-64c0-0.869,0.026-1.732,0.063-2.592C378.974,253.026,376,262.171,376,272C376,307.29,404.71,336,440,336z"/>
</g>
<g>
	<path style="fill:#00B5B8;" d="M425.01,224.026c-0.217,0.841-0.388,1.7-0.536,2.566c2.416-0.828,4.917-1.47,7.488-1.905
		C429.693,224.306,427.374,224.075,425.01,224.026z"/>
	<path style="fill:#00B5B8;" d="M376,319.934v24.011c4.552,6.061,9.944,11.456,16,16.014v-24.005
		C385.943,331.394,380.552,325.996,376,319.934z"/>
	<path style="fill:#00B5B8;" d="M408.187,236.099C408.072,234.747,408,233.382,408,232c0-1.81,0.11-3.594,0.306-5.352
		c-1.381,0.479-2.732,1.02-4.052,1.619c-2.389,5.275-3.856,11.053-4.183,17.13C402.369,241.958,405.103,238.835,408.187,236.099z"/>
	<path style="fill:#00B5B8;" d="M392.137,379.165c-5.781-3.341-11.195-7.248-16.137-11.677V376c0,22.056,17.944,40,40,40h16
		C411.01,416,393.757,399.746,392.137,379.165z"/>
	<path style="fill:#00B5B8;" d="M384,248c0-0.869,0.026-1.732,0.063-2.592C378.974,253.026,376,262.171,376,272
		c0,16.188,6.053,30.981,16,42.264V278.94C386.909,269.763,384,259.217,384,248z"/>
</g>
<g>
</g>
<g>
</g>
<g>
</g>
<g>
</g>
<g>
</g>
<g>
</g>
<g>
</g>
<g>
</g>
<g>
</g>
<g>
</g>
<g>
</g>
<g>
</g>
<g>
</g>
<g>
</g>
<g>
</g>
</svg>
