<?xml version="1.0" encoding="utf-8"?>
<!-- Generator: Adobe Illustrator 16.0.0, SVG Export Plug-In . SVG Version: 6.00 Build 0)  -->
<!DOCTYPE svg PUBLIC "-//W3C//DTD SVG 1.1//EN" "http://www.w3.org/Graphics/SVG/1.1/DTD/svg11.dtd">
<svg version="1.1" id="Capa_1" xmlns="http://www.w3.org/2000/svg" xmlns:xlink="http://www.w3.org/1999/xlink" x="0px" y="0px"
	 width="400px" height="400px" viewBox="0 0 400 400" enable-background="new 0 0 400 400" xml:space="preserve">
<g>
	<g>
		<path fill="#363E4B" d="M225.744,1.745l8.394,21.731c0,0,36.897,95.634,81.358,171.979
			c44.463,76.345-29.586,104.613-65.006,109.297c-32.891,4.345-64.38,7.593-58.504,50.627c1.11,8.131,1.91,16.304,1.724,24.511
			l-0.448,19.952c2.241,0.062,4.476,0.158,6.738,0.158c110.455,0,200-89.545,200-200C400,98.276,324.027,14.386,225.744,1.745z"/>
	</g>
	<path fill="#FBCE9D" d="M0,200c0,108.2,85.931,196.269,193.262,199.827l0.448-19.951c0.186-8.207-0.614-16.38-1.724-24.511
		c-5.876-43.034,25.613-46.283,58.504-50.627c35.42-4.684,109.462-32.952,65.006-109.297
		c-44.461-76.331-81.358-171.965-81.358-171.965L225.73,1.704C217.297,0.621,208.725,0,200,0C89.545,0,0,89.545,0,200z"/>
	<path fill="#DB9549" d="M246.063,287.027c-4.545,0-9.008-0.771-12.869-2.531c-3.463-1.579-4.993-5.668-3.414-9.138
		c1.579-3.462,5.655-5,9.139-3.413c5.605,2.551,14.123,0.917,19.386-1.311c-8.593-1.338-30.531-1.82-84.269,8.068
		c-45.807,8.428-75.855,2.966-89.29-16.262c-21.062-30.145,8.524-81.007,9.793-83.166c1.931-3.269,6.131-4.373,9.441-2.435
		c3.283,1.931,4.372,6.166,2.441,9.441c-7.379,12.545-23.642,49.283-10.352,68.262c9.917,14.186,36.014,17.861,75.476,10.586
		c94.11-17.316,100.82-5.063,103.345-0.462c2.228,4.048,1.414,8.772-2.179,12.648C267.51,282.903,256.552,287.027,246.063,287.027z"
		/>
</g>
</svg>
