<?xml version="1.0" encoding="iso-8859-1"?>
<!-- Generator: Adobe Illustrator 19.0.0, SVG Export Plug-In . SVG Version: 6.00 Build 0)  -->
<svg version="1.1" id="Capa_1" xmlns="http://www.w3.org/2000/svg" xmlns:xlink="http://www.w3.org/1999/xlink" x="0px" y="0px"
	 viewBox="0 0 512 512" style="enable-background:new 0 0 512 512;" xml:space="preserve">
<path style="fill:#F2A077;" d="M466.384,3.833L466.384,3.833c-13.668-7.891-31.147-3.208-39.039,10.46l-69.831,120.953
	l-103.576-59.8c-11.947-6.898-27.224-2.804-34.121,9.143l-78.59,136.123c-5.297,9.176-6.5,20.153-3.316,30.258l7.443,23.621
	l-19.92,34.501l121.96,70.414l15.758-27.293c2.298-3.982,7.389-5.346,11.37-3.047l0,0c10.555,6.094,24.052,2.478,30.145-8.078
	l76.584-132.647l25.761-44.619L476.843,42.87C484.736,29.203,480.053,11.725,466.384,3.833z"/>
<path style="fill:#D6774D;" d="M466.385,3.833L466.385,3.833c-4.21-2.431-8.782-3.664-13.323-3.814
	c5.392,8.668,5.957,19.948,0.496,29.407l-69.832,120.953l-25.761,44.619l-76.584,132.647c-6.094,10.555-19.59,14.171-30.145,8.078
	l0,0c-3.982-2.298-9.072-0.934-11.371,3.047l-15.757,27.292l23.288,13.446l15.757-27.292c2.298-3.982,7.389-5.346,11.371-3.047l0,0
	c10.555,6.094,24.052,2.478,30.145-8.078l76.584-132.647l25.761-44.619l69.832-120.953C484.736,29.203,480.053,11.725,466.385,3.833
	z"/>
<path style="fill:#75DC5E;" d="M206.134,512l60.415-104.642c4.016-6.955,1.633-15.849-5.323-19.865l-149.626-86.386
	c-6.955-4.016-15.849-1.633-19.864,5.323L31.322,411.072L206.134,512z"/>
<path style="fill:#2AAD52;" d="M261.227,387.493l-27.398-15.818c6.955,4.016,9.339,12.909,5.323,19.865l-60.415,104.642L206.134,512
	l60.415-104.642C270.566,400.402,268.182,391.509,261.227,387.493z"/>
<path style="fill:#FFCCAA;" d="M228.466,15.826l-34.463,59.691c-7.891,13.668-3.208,31.146,10.46,39.039l0,0
	c13.668,7.891,31.146,3.208,39.039-10.46l34.463-59.692c7.891-13.668,3.208-31.146-10.46-39.039l0,0
	C253.836-2.526,236.358,2.157,228.466,15.826z"/>
<path style="fill:#E88E6B;" d="M281.478,38.318l-40.765,70.608c-7.891,13.668-3.208,31.146,10.46,39.039l0,0
	c13.668,7.891,31.146,3.208,39.039-10.46l40.765-70.608c7.891-13.668,3.208-31.146-10.46-39.039l0,0
	C306.849,19.966,289.371,24.649,281.478,38.318z"/>
<g>
	<path style="fill:#FFCCAA;" d="M321.139,83.936l-34.463,59.692c-7.891,13.668-3.208,31.146,10.46,39.039l0,0
		c13.668,7.891,31.147,3.208,39.039-10.46l34.463-59.692c7.891-13.668,3.208-31.146-10.46-39.039l0,0
		C346.509,65.584,329.031,70.268,321.139,83.936z"/>
	<path style="fill:#FFCCAA;" d="M111.676,144.48c-2.501,4.333-3.599,9.334-3.141,14.317l6.644,72.301
		c1.586,17.267,11.459,32.689,26.476,41.359l19.469,11.24c22.644,13.074,51.601,5.316,64.675-17.33l8.729-15.119
		c22.057-38.204,8.968-87.055-29.237-109.112l-4.301-2.483c-5.333-3.079-7.161-9.899-4.082-15.232l0,0
		c3.079-5.333,9.899-7.161,15.232-4.082l25.125,14.506c23.46,13.545,53.458,5.506,67.003-17.953l0,0
		c4.361-7.554,1.773-17.213-5.78-21.574l-87.687-50.626c-17.195-9.927-39.181-4.036-49.108,13.159L111.676,144.48z"/>
</g>
<circle style="fill:#D2F5FF;" cx="200.236" cy="429.864" r="19.297"/>
<g>
</g>
<g>
</g>
<g>
</g>
<g>
</g>
<g>
</g>
<g>
</g>
<g>
</g>
<g>
</g>
<g>
</g>
<g>
</g>
<g>
</g>
<g>
</g>
<g>
</g>
<g>
</g>
<g>
</g>
</svg>
