<?xml version="1.0" encoding="utf-8"?>
<!-- Generator: Adobe Illustrator 16.0.0, SVG Export Plug-In . SVG Version: 6.00 Build 0)  -->
<!DOCTYPE svg PUBLIC "-//W3C//DTD SVG 1.1//EN" "http://www.w3.org/Graphics/SVG/1.1/DTD/svg11.dtd">
<svg version="1.1" id="Capa_1" xmlns="http://www.w3.org/2000/svg" xmlns:xlink="http://www.w3.org/1999/xlink" x="0px" y="0px"
	 width="400px" height="400px" viewBox="0 0 400 400" enable-background="new 0 0 400 400" xml:space="preserve">
<polygon fill="#FF650C" points="154.25,151.714 139.262,165.443 166.389,190.292 17.457,190.292 17.457,209.708 166.389,209.708 
	139.262,234.557 154.25,248.286 201.5,200.414 "/>
<path fill="#F2F2F4" d="M302.344,297.656c-53.848,0-97.656-43.809-97.656-97.656s43.809-97.656,97.656-97.656S400,146.152,400,200
	S356.191,297.656,302.344,297.656z"/>
<path fill="#DFDFE1" d="M302.344,102.344v195.313C356.191,297.656,400,253.848,400,200S356.191,102.344,302.344,102.344z"/>
<path fill="#00C3FF" d="M232.482,131.84c-7.422,7.604-13.617,16.409-18.26,26.095c-6.109,12.746-9.535,27.013-9.535,42.065
	c0,15.053,3.426,29.319,9.535,42.065c4.643,9.687,10.838,18.491,18.26,26.095c17.186-17.611,27.794-41.668,27.794-68.16
	S249.668,149.451,232.482,131.84z"/>
<path fill="#56535A" d="M214.223,157.935c-6.109,12.746-9.535,27.013-9.535,42.065c0,15.053,3.426,29.319,9.535,42.065
	c9.373-11.478,15.005-26.125,15.005-42.065C229.227,184.06,223.596,169.412,214.223,157.935z"/>
</svg>
