<?xml version="1.0" encoding="utf-8"?>
<!-- Generator: Adobe Illustrator 16.0.0, SVG Export Plug-In . SVG Version: 6.00 Build 0)  -->
<!DOCTYPE svg PUBLIC "-//W3C//DTD SVG 1.1//EN" "http://www.w3.org/Graphics/SVG/1.1/DTD/svg11.dtd">
<svg version="1.1" id="Capa_1" xmlns="http://www.w3.org/2000/svg" xmlns:xlink="http://www.w3.org/1999/xlink" x="0px" y="0px"
	 width="400px" height="400px" viewBox="0 0 400 400" enable-background="new 0 0 400 400" xml:space="preserve">
<path d="M378.244,133.834c0,40.113-17.736,88.946-31.988,128.183c-7.5,20.651-13.98,38.488-16.105,50.188
	c-6.201,34.109-7.157,79.436-7.167,79.89c-0.087,4.392-3.67,7.905-8.063,7.905h-93.556c-4.203,0-7.701-3.229-8.039-7.42
	c-0.481-5.998-11.764-147.326-8.182-183.164c0.986-9.855,2.922-34.725,2.922-73.018V94.592c0-4.454-3.611-8.064-8.064-8.064
	c-4.454,0-8.064,3.611-8.064,8.064v41.807c0,37.516,1.934,63.162,2.917,73.018c3.583,35.838-7.7,177.166-8.182,183.164
	c-0.337,4.19-3.835,7.42-8.039,7.42H85.08c-4.391,0-7.978-3.517-8.063-7.905c-0.01-0.454-0.966-45.78-7.167-79.89
	c-2.127-11.7-8.605-29.535-16.107-50.188c-14.25-39.236-31.986-88.069-31.986-128.183c0-61.156,37.849-127.043,39.46-129.818
	C62.66,1.53,65.317,0,68.19,0h263.615c2.875,0,5.53,1.53,6.974,4.014C340.393,6.791,378.244,72.678,378.244,133.834z"/>
<g>
	<g>
		<path fill="none" stroke="#EC00FF" stroke-width="8" stroke-linecap="round" stroke-linejoin="round" d="M85.08,400
			c-2.108,0-4.031-0.811-5.47-2.139"/>
		
			<path fill="none" stroke="#EC00FF" stroke-width="8" stroke-linecap="round" stroke-linejoin="round" stroke-dasharray="12.1083,18.1624" d="
			M76.608,380.439c-0.696-15.783-2.477-44.683-6.759-68.234c-2.127-11.7-8.605-29.535-16.107-50.188
			c-14.25-39.236-31.986-88.069-31.986-128.183C21.756,82.396,48.533,27.61,58,9.847"/>
		<path fill="none" stroke="#EC00FF" stroke-width="8" stroke-linecap="round" stroke-linejoin="round" d="M62.727,2.134
			C64.195,0.781,66.138,0,68.19,0"/>
	</g>
</g>
<g>
	<g>
		<path fill="none" stroke="#EC00FF" stroke-width="8" stroke-linecap="round" stroke-linejoin="round" d="M331.806,0
			c2.054,0,3.996,0.781,5.464,2.133"/>
		
			<path fill="none" stroke="#EC00FF" stroke-width="8" stroke-linecap="round" stroke-linejoin="round" stroke-dasharray="12.1083,18.1625" d="
			M346.151,17.921c11.446,22.998,32.093,70.746,32.093,115.913c0,40.113-17.736,88.946-31.988,128.183
			c-7.5,20.651-13.98,38.488-16.105,50.188c-5.349,29.42-6.795,67.186-7.098,77.304"/>
		<path fill="none" stroke="#EC00FF" stroke-width="8" stroke-linecap="round" stroke-linejoin="round" d="M320.391,397.862
			c-1.438,1.328-3.361,2.138-5.47,2.138"/>
	</g>
</g>
</svg>
