<?xml version="1.0" encoding="utf-8"?>
<!-- Generator: Adobe Illustrator 16.0.0, SVG Export Plug-In . SVG Version: 6.00 Build 0)  -->
<!DOCTYPE svg PUBLIC "-//W3C//DTD SVG 1.1//EN" "http://www.w3.org/Graphics/SVG/1.1/DTD/svg11.dtd">
<svg version="1.1" xmlns="http://www.w3.org/2000/svg" xmlns:xlink="http://www.w3.org/1999/xlink" x="0px" y="0px" width="400px"
	 height="400px" viewBox="0 0 400 400" enable-background="new 0 0 400 400" xml:space="preserve">
<g id="Capa_1" display="none">
	<rect y="0" display="inline" fill="#FFFFFF" stroke="#000000" stroke-miterlimit="10" width="400" height="400"/>
	<g opacity="0.4">
		<g display="inline">
			<path d="M189.667,261.668c0,0-0.598,0.176-1.719,0.506c-1.121,0.335-2.724,0.916-4.746,1.701
				c-2.004,0.83-4.397,1.932-7.022,3.409c-2.623,1.479-5.473,3.331-8.426,5.548c-2.938,2.235-5.978,4.848-8.914,7.875
				c-2.933,3.028-5.777,6.459-8.314,10.267c-1.275,1.898-2.462,3.899-3.515,5.993c-1.073,2.084-2.012,4.263-2.802,6.505
				c-0.797,2.239-1.438,4.553-1.834,6.911c-0.122,0.587-0.2,1.18-0.269,1.773c-0.069,0.594-0.168,1.186-0.19,1.783
				c-0.034,0.576-0.089,1.238-0.106,1.743c0.006,0.614-0.016,1.266,0.015,1.848c0.156,4.587,1.865,9.195,4.82,12.734
				c2.942,3.568,6.804,6.313,10.898,8.205c4.101,1.897,8.381,3.101,12.512,3.724c2.067,0.312,4.101,0.471,6.068,0.507
				c1.946,0.023,3.938-0.04,5.788-0.063c3.716-0.081,7.096-0.269,10.024-0.845c0.739-0.119,1.432-0.311,2.102-0.5
				c0.326-0.096,0.687-0.171,0.969-0.279c0.32-0.119,0.634-0.237,0.942-0.352c1.193-0.48,2.242-1.027,3.22-1.527
				c1.934-1.013,3.558-1.678,4.72-1.894c0.565-0.161,1.029-0.139,1.325-0.192c0.3-0.031,0.454-0.048,0.454-0.048
				s-0.153,0.03-0.449,0.09c-0.291,0.08-0.744,0.098-1.288,0.308c-1.127,0.306-2.616,1.129-4.479,2.247
				c-0.926,0.556-1.98,1.2-3.189,1.783c-0.299,0.136-0.604,0.273-0.916,0.415c-0.347,0.158-0.668,0.242-1.014,0.371
				c-0.682,0.244-1.391,0.49-2.143,0.666c-2.986,0.81-6.457,1.238-10.2,1.478c-1.882,0.115-3.776,0.271-5.857,0.35
				c-2.06,0.06-4.191-0.05-6.367-0.295c-4.347-0.5-8.902-1.581-13.315-3.538c-4.391-1.944-8.728-4.76-12.045-8.773
				c-3.352-3.985-5.381-9.167-5.578-14.542c-0.026-0.661,0-1.256-0.002-1.887c0.027-0.738,0.087-1.316,0.13-1.981
				c0.03-0.646,0.139-1.283,0.218-1.923c0.079-0.64,0.168-1.277,0.302-1.905c0.444-2.532,1.146-4.995,2.008-7.365
				c0.844-2.38,1.881-4.66,3.059-6.821c1.153-2.175,2.438-4.238,3.807-6.188c2.704-3.926,5.794-7.353,8.919-10.366
				c3.118-3.026,6.369-5.551,9.486-7.685c6.24-4.291,12.109-6.714,16.248-8.108c2.085-0.674,3.767-1.068,4.907-1.313
				C189.056,261.789,189.667,261.668,189.667,261.668z"/>
		</g>
		<g display="inline">
			<g>
				<path d="M134.91,313.706c-7.117,3.218-14.952,1.001-20.839-3.698c-6.216-4.961-8.181-12.732-7.648-20.361
					c1.07-15.324,14.5-28.554,28.977-31.866c-0.266-0.964-0.532-1.929-0.798-2.893c-16.093,4.701-28.504,18.781-28.088,36.032
					c0.429,17.799,16.183,26.832,32.487,26.248c1.929-0.069,1.936-3.069,0-3c-15.361,0.55-29.108-7.55-29.507-24.087
					c-0.375-15.53,11.664-28.141,25.906-32.301c1.861-0.544,1.084-3.323-0.798-2.893c-17.152,3.925-30.856,19.686-31.306,37.434
					c-0.424,16.737,16.979,31.276,33.129,23.975C138.185,315.5,136.659,312.915,134.91,313.706L134.91,313.706z"/>
			</g>
		</g>
		<g display="inline">
			<g>
				<path d="M107,252.834c-15.441,1.892-25.315,17.364-24.312,32.258c0.614,9.127,15.965,25.677,25.373,17.637
					c1.473-1.259-0.659-3.37-2.121-2.121c-4.146,3.543-10.674-1.721-13.719-4.465c-4.101-3.695-6.535-8.025-6.642-13.564
					c-0.236-12.253,8.883-25.208,21.421-26.744C108.895,255.602,108.918,252.599,107,252.834L107,252.834z"/>
			</g>
		</g>
		<g display="inline">
			<g>
				<path d="M101.269,240.222c-12.938,4.153-42.527,34.09-16,39.559c1.888,0.39,2.692-2.502,0.798-2.893
					c-4.085-0.842-8.684-2.419-8.788-7.28c-0.085-3.977,2.839-8.001,5.151-10.983c4.81-6.206,11.999-13.058,19.637-15.51
					C103.901,242.525,103.116,239.629,101.269,240.222L101.269,240.222z"/>
			</g>
		</g>
		<g display="inline">
			<g>
				<path d="M104.066,254.447c6.298-2.654,13.035-4.013,19.333-6.667c1.442-0.607,1.44-3.012-0.399-2.946
					c-8.654,0.308-16.161,4.529-23.423,8.872c-1.185,0.708-0.799,2.984,0.757,2.795c7.27-0.885,14.073-3.286,20.757-6.205
					c1.77-0.772,0.241-3.356-1.514-2.59c-6.161,2.689-12.538,4.979-19.243,5.795c0.252,0.932,0.505,1.863,0.757,2.795
					c6.779-4.053,13.815-8.174,21.91-8.462c-0.133-0.982-0.266-1.964-0.399-2.946c-6.298,2.654-13.035,4.013-19.333,6.667
					C101.514,252.294,102.284,255.198,104.066,254.447L104.066,254.447z"/>
			</g>
		</g>
		<g display="inline">
			<g>
				<path d="M92.425,243.629c5.088-3.497,10.558-4.449,16.576-5.128c1.877-0.212,1.979-2.977,0-3
					c-19.122-0.229-52.277,27.874-26.09,42.795c1.684,0.96,3.195-1.633,1.515-2.59c-23.191-13.214,8.542-37.397,24.576-37.205
					c0-1,0-2,0-3c-6.501,0.732-12.597,1.763-18.09,5.538C89.327,242.127,90.826,244.729,92.425,243.629L92.425,243.629z"/>
			</g>
		</g>
		<g display="inline">
			<g>
				<path d="M87.667,241.501c-4.044,0.284-8.026-2.584-5.414-6.979c1.4-2.356,5.172-3.661,7.552-4.61
					c4.583-1.827,9.479-2.849,13.952-4.949c1.75-0.821,0.226-3.407-1.515-2.59c-6.987,3.281-15.388,3.914-21.364,9.19
					c-2.277,2.01-3.002,5.718-1.823,8.491c1.526,3.59,4.926,4.705,8.612,4.446C89.586,244.366,89.599,241.365,87.667,241.501
					L87.667,241.501z"/>
			</g>
		</g>
		<g display="inline">
			<g>
				<path d="M90.243,228.373c-8.785,4.904-12.794,17.021-9.355,26.359c0.665,1.808,3.285,1.112,2.893-0.797
					c-1.092-5.318-1.808-10.807,1.173-15.637c2.79-4.522,8.407-7.35,12.805-10.003c1.653-0.997,0.146-3.593-1.515-2.59
					c-5.283,3.188-11.023,6.446-14.349,11.837c-3.148,5.103-2.142,11.663-1.007,17.189c0.964-0.266,1.928-0.531,2.893-0.797
					c-2.987-8.116,0.286-18.678,7.978-22.973C93.447,230.021,91.934,227.429,90.243,228.373L90.243,228.373z"/>
			</g>
		</g>
		<g display="inline">
			<g>
				<path d="M89.629,232.425c5.078-9.936,16.96-13.228,27.104-15.311c1.894-0.389,1.09-3.28-0.798-2.893
					c-10.903,2.239-23.457,6.045-28.896,16.689C86.16,232.63,88.749,234.148,89.629,232.425L89.629,232.425z"/>
			</g>
		</g>
		<g display="inline">
			<g>
				<path d="M92.728,228.729c12.525-10.008,29.611-11.571,44.939-13.561c1.891-0.245,1.915-3.248,0-3
					c-16.26,2.109-33.798,3.842-47.061,14.439C89.095,227.815,91.233,229.924,92.728,228.729L92.728,228.729z"/>
			</g>
		</g>
		<g display="inline">
			<g>
				<path d="M95.399,227.114c24.427-10.204,53.594-9.091,75.691-24.818c1.562-1.111,0.066-3.714-1.514-2.59
					c-21.853,15.552-50.802,14.418-74.976,24.516C92.844,224.956,93.615,227.86,95.399,227.114L95.399,227.114z"/>
			</g>
		</g>
		<g display="inline">
			<g>
				<path d="M120.733,217.78c13.379-3.078,26.731-6.261,39.89-10.194c7.354-2.198,14.737-4.597,21.662-7.94
					c3.03-1.462,8.224-3.959,8.216-7.979c-0.004-1.935-3.004-1.935-3,0c0.007,3.434-8.433,6.229-10.819,7.223
					c-6.805,2.833-13.909,4.971-20.982,7.015c-11.813,3.414-23.784,6.227-35.764,8.982
					C118.05,215.321,118.85,218.214,120.733,217.78L120.733,217.78z"/>
			</g>
		</g>
		<g display="inline">
			<g>
				<path d="M141,211.168c12.01-1.583,23.631-6.607,34.388-11.974c11.289-5.632,23.577-12.852,30.908-23.436
					c1.105-1.595-1.497-3.092-2.59-1.514c-6.806,9.826-18.221,16.322-28.594,21.728c-10.488,5.466-22.276,10.636-34.111,12.196
					C139.111,208.417,139.087,211.42,141,211.168L141,211.168z"/>
			</g>
		</g>
		<g display="inline">
			<g>
				<path d="M184.066,193.781c9.2-3.072,17.437-8.506,24.924-14.578c7.8-6.326,15.232-14.259,18.79-23.803
					c0.677-1.817-2.224-2.594-2.893-0.798c-3.229,8.664-10.006,15.59-16.88,21.526c-7.191,6.211-15.683,11.736-24.739,14.76
					C181.443,191.498,182.226,194.396,184.066,193.781L184.066,193.781z"/>
			</g>
		</g>
		<g display="inline">
			<g>
				<path d="M219.395,168.062c7.205-8.237,15.094-21.357,10.234-32.484c-0.772-1.769-3.356-0.24-2.59,1.515
					c4.204,9.629-3.609,21.811-9.766,28.849C216.006,167.39,218.118,169.521,219.395,168.062L219.395,168.062z"/>
			</g>
		</g>
		<g display="inline">
			<g>
				<path d="M231.167,133.667c0.06-5.169,0.427-10.134-1.387-15.065c-0.233-0.634-0.736-1.101-1.446-1.101c-0.223,0-0.444,0-0.667,0
					c-0.676,0-1.259,0.459-1.446,1.101c-3.063,10.459-3.128,21.305-4.375,32.051c-1.582,13.626-7.573,24.063-19.602,31.053
					c-1.672,0.972-0.162,3.564,1.514,2.591c10.717-6.228,17.485-15.158,20.089-27.289c2.67-12.44,1.663-25.3,5.267-37.608
					c-0.482,0.367-0.964,0.734-1.446,1.101c0.223,0,0.444,0,0.667,0c-0.482-0.367-0.964-0.734-1.446-1.101
					c1.717,4.669,1.335,9.389,1.279,14.268C228.145,135.603,231.145,135.601,231.167,133.667L231.167,133.667z"/>
			</g>
		</g>
		<g display="inline">
			<g>
				<path d="M110.91,231.706c-0.837,0.475-1.634,0.907-2.132,1.757c-0.377,0.644-0.21,1.723,0.538,2.052
					c2.013,0.885,4.329-1.201,6.054-2.123c3.918-2.093,7.825-4.139,12.029-5.611c-0.266-0.964-0.532-1.929-0.798-2.893
					c-3.316,1.393-6.485,3.15-10,4c-1.358,0.328-1.51,2.683,0,2.893c4.28,0.595,8.121-0.714,11.823-2.817
					c1.444-0.82,0.449-3.39-1.156-2.741c-2.969,1.199-5.902,2.491-8.827,3.794c-2.061,0.919-5.513,1.815-6.944,3.696
					c-0.3,0.395-0.267,1.116,0,1.515c0.645,0.963,1.598,0.817,2.569,0.554c1.865-0.506,1.072-3.399-0.798-2.893
					c-0.021,0.006-0.856,0.095-0.454,0.115c0.432,0.248,0.864,0.495,1.295,0.743c-0.007-0.012-0.015-0.022-0.022-0.034
					c0,0.505,0,1.01,0,1.515c-0.397,0.521,1.457-0.586,1.896-0.797c1.313-0.633,2.643-1.228,3.972-1.823
					c2.685-1.203,5.382-2.391,8.111-3.492c-0.385-0.914-0.771-1.827-1.156-2.741c-2.91,1.652-6.09,2.989-9.511,2.515
					c0,0.964,0,1.929,0,2.893c3.529-0.854,6.672-2.603,10-4c1.728-0.726,1.069-3.546-0.798-2.893
					c-5.977,2.093-11.399,5.296-17.024,8.151c0.504,0,1.009,0,1.514,0c-0.086-0.038-0.173-0.076-0.26-0.115
					c0.18,0.685,0.359,1.369,0.538,2.053c0.352-0.227,0.704-0.453,1.056-0.681C114.107,233.343,112.596,230.751,110.91,231.706
					L110.91,231.706z"/>
			</g>
		</g>
		<g display="inline">
			<g>
				<path d="M124.066,249.78c6.224-1.551,11.629-4.783,17.024-8.151c-0.504-0.863-1.009-1.727-1.514-2.59
					c-4.049,2.6-8.37,4.473-12.976,5.849c0.385,0.914,0.771,1.827,1.156,2.741c5.379-3.233,11.287-5.432,16.667-8.666
					c1.655-0.995,0.148-3.59-1.515-2.59c-5.379,3.233-11.287,5.432-16.667,8.666c-1.442,0.867-0.5,3.236,1.156,2.741
					c4.848-1.448,9.427-3.412,13.691-6.151c1.62-1.04,0.135-3.619-1.514-2.59c-5.176,3.23-10.33,6.358-16.309,7.849
					C121.392,247.355,122.188,250.248,124.066,249.78L124.066,249.78z"/>
			</g>
		</g>
		<g display="inline">
			<g>
				<path d="M140.425,255.629c8.8-5.067,17.351-10.563,26.666-14.666c-0.504-0.863-1.009-1.727-1.514-2.59
					c-8.006,4.112-15.271,9.313-22.304,14.9c-1.515,1.203,0.624,3.312,2.121,2.121c6.835-5.43,13.919-10.437,21.696-14.432
					c1.751-0.899,0.216-3.352-1.514-2.59c-9.316,4.102-17.867,9.598-26.667,14.666C137.235,254.004,138.745,256.597,140.425,255.629
					L140.425,255.629z"/>
			</g>
		</g>
		<g display="inline">
			<g>
				<path d="M192.425,262.296c8.304-4.287,15.799-9.845,23.333-15.333c0.945-0.688,1.046-2.464-0.358-2.741
					c-8.751-1.727-17.494,4.1-24.469,8.614c-9.041,5.853-17.886,14.149-28.329,17.386c-1.842,0.57-1.055,3.467,0.798,2.893
					c8.723-2.703,16.267-8.948,23.672-14.066c7.303-5.047,17.969-13.82,27.531-11.934c-0.12-0.914-0.239-1.827-0.358-2.741
					c-7.534,5.487-15.029,11.046-23.334,15.333C189.191,260.594,190.708,263.182,192.425,262.296L192.425,262.296z"/>
			</g>
		</g>
		<g display="inline">
			<g>
				<path d="M195.577,257.039c-9.436,5.336-19.231,9.998-28.667,15.334c-1.683,0.952-0.172,3.544,1.515,2.59
					c9.436-5.336,19.23-9.998,28.666-15.334C198.774,258.677,197.263,256.085,195.577,257.039L195.577,257.039z"/>
			</g>
		</g>
		<g display="inline">
			<g>
				<path d="M197.269,337.555c-1.446,0.548-2.689,1.14-4.268,1.279c-1.94,0.172-1.921,2.805,0,3
					c5.532,0.562,11.084-0.595,16.399-2.054c1.585-0.435,1.317-3.161-0.398-2.946c-12.173,1.521-23.685,5.911-35.732,8.054
					c-1.703,0.303-1.251,2.944,0.399,2.946c8.99,0.009,17.944-0.059,26.864-1.312c8.199-1.15,17.554-3.606,22.863-10.461
					c1.169-1.509-0.938-3.649-2.121-2.121c-5.477,7.072-15.293,8.916-23.678,9.975c-7.929,1-15.952,0.927-23.928,0.919
					c0.133,0.982,0.266,1.964,0.399,2.946c11.776-2.094,23.041-6.46,34.935-7.946c-0.133-0.982-0.266-1.964-0.398-2.946
					c-5.084,1.396-10.311,2.483-15.602,1.946c0,1,0,2,0,3c1.861-0.165,3.317-0.724,5.066-1.387
					C199.857,339.769,199.081,336.867,197.269,337.555L197.269,337.555z"/>
			</g>
		</g>
		<g display="inline">
			<g>
				<path d="M216.424,341.629c9.254-4.806,15.767-12.472,21.205-21.204c1.026-1.647-1.57-3.151-2.59-1.514
					c-5.188,8.328-11.303,15.543-20.129,20.128C213.192,339.931,214.71,342.52,216.424,341.629L216.424,341.629z"/>
			</g>
		</g>
		<g display="inline">
			<g>
				<path d="M232.501,330.334c0.489-9.12,8.767-16.879,13.795-23.909c1.128-1.577-1.476-3.072-2.59-1.514
					c-5.458,7.631-13.674,15.51-14.205,25.423C229.397,332.268,232.397,332.258,232.501,330.334L232.501,330.334z"/>
			</g>
		</g>
		<g display="inline">
			<g>
				<path d="M240.447,317.399c2.812-7.39,7.055-14.057,11.849-20.309c1.178-1.535-1.43-3.026-2.59-1.514
					c-4.967,6.476-9.243,13.378-12.151,21.025C236.865,318.414,239.767,319.189,240.447,317.399L240.447,317.399z"/>
			</g>
		</g>
		<g display="inline">
			<g>
				<path d="M244.962,311.758c12.1-19.092,30.529-32.683,45.1-49.696c1.251-1.461-0.86-3.593-2.121-2.121
					c-14.743,17.215-33.323,30.981-45.568,50.304C241.333,311.883,243.93,313.387,244.962,311.758L244.962,311.758z"/>
			</g>
		</g>
		<g display="inline">
			<g>
				<path d="M268.296,284.425c10.49-14.855,24.149-26.473,39.462-36.129c1.632-1.028,0.128-3.625-1.514-2.59
					c-15.759,9.938-29.746,21.92-40.538,37.205C264.587,284.495,267.19,285.992,268.296,284.425L268.296,284.425z"/>
			</g>
		</g>
		<g display="inline">
			<g>
				<path d="M297.395,259.395c11.134-10.849,25.167-15.448,39.338-20.947c1.783-0.691,1.009-3.594-0.797-2.893
					c-14.66,5.688-29.148,10.5-40.662,21.719C293.886,258.625,296.009,260.745,297.395,259.395L297.395,259.395z"/>
			</g>
		</g>
		<g display="inline">
			<g>
				<path d="M324.065,245.114c9.969-2.37,18.705-7.961,25.996-15.053c1.389-1.351-0.734-3.47-2.121-2.121
					c-6.939,6.749-15.185,12.025-24.672,14.281C321.387,242.669,322.185,245.562,324.065,245.114L324.065,245.114z"/>
			</g>
		</g>
		<g display="inline">
			<g>
				<path d="M351.395,228.062c10.352-12.432,7.854-29.426,2.386-43.459c-0.694-1.782-3.596-1.007-2.893,0.798
					c5.015,12.871,7.993,29.002-1.614,40.541C348.045,227.416,350.155,229.55,351.395,228.062L351.395,228.062z"/>
			</g>
		</g>
		<g display="inline">
			<g>
				<path d="M349.001,165.167c1.935,0,1.935-3,0-3S347.066,165.167,349.001,165.167L349.001,165.167z"/>
			</g>
		</g>
		<g display="inline">
			<g>
				<path d="M349.113,178.602c-5.586-15.024-14.244-29.411-15.946-45.601c-0.2-1.904-3.202-1.923-3,0
					c1.737,16.522,10.355,31.074,16.054,46.399C346.889,181.196,349.789,180.419,349.113,178.602L349.113,178.602z"/>
			</g>
		</g>
		<g display="inline">
			<g>
				<path d="M339.001,147.167c1.935,0,1.935-3,0-3S337.066,147.167,339.001,147.167L339.001,147.167z"/>
			</g>
		</g>
		<g display="inline">
			<g>
				<path d="M335.667,118.501c1.935,0,1.935-3,0-3S333.732,118.501,335.667,118.501L335.667,118.501z"/>
			</g>
		</g>
		<g display="inline">
			<g>
				<path d="M337.167,73.001c0.166-1.686,0.645-3.372,1.28-4.935c0.651-1.599-1.931-2.61-2.741-1.156
					c-8.719,15.625-7.336,36.324-5.489,53.458c0.728,6.751,1.87,13.394,3.45,19.993c0.771,3.223,1.576,6.438,2.433,9.639
					c0.391,1.462,0.659,3.833,1.781,4.98c0.521,0.532,1.619,0.639,2.121,0c0.341-0.435,0.456-0.763,0.499-1.312
					c0.151-1.93-2.851-1.916-3,0c0.127-0.27,0.253-0.54,0.38-0.81c0.707,0,1.414,0,2.121,0c-0.617-0.631-1.153-4.186-1.479-5.424
					c-0.769-2.925-1.483-5.865-2.188-8.806c-1.548-6.465-2.551-12.99-3.264-19.601c-1.739-16.143-2.969-35.92,5.224-50.603
					c-0.914-0.386-1.827-0.771-2.741-1.156c-0.744,1.827-1.194,3.77-1.388,5.732C333.978,74.926,336.979,74.908,337.167,73.001
					L337.167,73.001z"/>
			</g>
		</g>
		<g display="inline">
			<g>
				<path d="M339.167,145.667c-0.666-6-1.333-12-2-18c-0.209-1.883-2.94-1.975-3,0c-0.63,20.874,1.753,44.319,14.872,61.424
					c1.16,1.512,3.768,0.021,2.59-1.515c-12.83-16.729-15.078-39.495-14.462-59.91c-1,0-2,0-3,0c0.667,6,1.334,12,2,18
					C336.378,147.568,339.38,147.589,339.167,145.667L339.167,145.667z"/>
			</g>
		</g>
		<g display="inline">
			<g>
				<path d="M343.555,170.066c3.485,11.229,6.614,22.561,9.333,34c0.447,1.882,3.34,1.084,2.893-0.797
					c-2.719-11.439-5.848-22.772-9.333-34.001C345.876,167.427,342.979,168.213,343.555,170.066L343.555,170.066z"/>
			</g>
		</g>
	</g>
</g>
<g id="Capa_3">
	<path fill="#D8B461" d="M140.5,321.001c4.167,29,76.658,12.1,95.694,4.504c33-13.167,18.139-35.838,53.806-65.005
		c29.34-23.993,60-17,65-48c3.772-23.389-13-23.5-22.5-85c-6.952-45.007,6-65.5,6-65.5s-30.173-21.58-78.166,5
		c-43.333,24-31.834,51-31.834,51s10.779,28.021-13.5,56c-14.568,16.787-49.531,33.875-85.25,44
		c-8.253,2.34-29.978,4.775-40.5,13.75c-8.5,7.25-5.5,16.25-5.5,16.25s4.717-4.448-1.583,1.668
		c-7.977,7.744-8.313,16.281-7.167,20.5c1.896,6.979,8.667,8.5,8.667,8.5s-0.667,4.832,1.167,9.5
		c6.263,15.945,21.5,13.166,21.5,13.166s0.092-0.458,1.34,2.202c7.864,16.765,32.16,14.132,32.16,14.132
		S137.142,297.631,140.5,321.001z"/>
	<g>
		<path fill="#EFE6D3" d="M153.5,296.65c0,0,1.286-4.672,20.167-0.983c18.881,3.689,26.75,12.333,26.75,12.333
			s33.822-25.993,10.013-33.481C175.242,263.453,153.5,296.65,153.5,296.65z"/>
		<path fill="#EFE6D3" d="M110.25,281.373c0,0,1.063-2.517,13.75-0.039c12.688,2.48,17.778,7.666,17.778,7.666
			s22.729-17.468,6.729-22.5C124.861,259.063,110.25,281.373,110.25,281.373z"/>
		<path fill="#EFE6D3" d="M90.5,234.167c0,0-1.771,1.895-0.333,3.333c2.5,2.5,7.167,2,7.167,2s5.854-1.871,5.667-4.5
			c-0.167-2.333-1.833-4-5.333-4C94.33,231,90.5,234.167,90.5,234.167z"/>
		<path fill="#EFE6D3" d="M80.833,255.167c0,0,2.5-0.167,6,2.167c3.308,2.206,5,4.166,5,4.166s6.833-5.333,7.5-7.333
			s-2.321-4.211-4.667-4.833C86.5,247.167,80.833,255.167,80.833,255.167z"/>
		<path fill="#EFE6D3" d="M91.667,268.667c0,0,2.167-0.667,7,1.5s8.167,5.833,8.167,5.833s8-6.834,7.5-9
			c-1.115-4.829-8.167-9.499-14.667-5.666C96.905,262.963,91.667,268.667,91.667,268.667z"/>
	</g>
</g>
<g id="Capa_2">
	<g>
		<path d="M338.5,62c0,0-1.104,1.8-2.49,5.482c-1.401,3.668-3.015,9.238-4.054,16.498c-1.054,7.251-1.529,16.181-0.894,26.366
			c0.582,10.186,2.488,21.586,5.099,33.866c1.278,6.141,2.998,12.459,4.972,18.922c2.091,6.43,4.606,12.947,7.63,19.472
			c1.485,3.274,3.118,6.546,4.545,10.005c0.751,1.71,1.335,3.521,1.906,5.342c0.214,0.936,0.428,1.875,0.643,2.815
			c0.185,0.947,0.238,1.921,0.362,2.885c0.278,3.865-0.051,7.826-0.892,11.623c-0.842,3.897-2.334,7.663-4.597,11.051
			c-0.265,0.435-0.571,0.839-0.889,1.237c-0.314,0.399-0.616,0.812-0.944,1.201c-0.694,0.744-1.347,1.534-2.114,2.209
			c-1.461,1.432-3.113,2.646-4.805,3.785c-3.422,2.23-7.12,3.984-10.871,5.56c-7.512,3.139-15.225,5.848-22.566,9.508
			c-7.359,3.615-14.301,8.113-20.524,13.622c-6.216,5.43-11.877,11.626-16.27,18.654c-2.22,3.499-4.148,7.178-5.908,10.951
			c-1.762,3.775-3.352,7.65-5.225,11.442c-0.931,1.896-1.94,3.769-3.1,5.558c-1.135,1.803-2.43,3.515-3.867,5.094
			c-1.406,1.611-3.025,3.014-4.678,4.347c-1.698,1.272-3.449,2.473-5.298,3.477c-3.679,2.05-7.544,3.656-11.465,4.959
			c-3.911,1.307-7.846,2.43-11.779,3.452c-7.87,2.03-15.739,3.65-23.548,4.838c-7.809,1.169-15.565,1.948-23.196,1.938
			c-7.599-0.047-15.198-0.684-22.089-3.423c-3.397-1.396-6.628-3.445-8.827-6.414c-1.095-1.471-1.906-3.136-2.403-4.863
			c-0.254-0.87-0.419-1.73-0.541-2.635c-0.072-0.86-0.216-1.678-0.228-2.562c-0.349-6.967,1.426-13.561,4.091-19.317
			c2.687-5.773,6.237-10.787,10.062-15.103c3.83-4.324,7.983-7.935,12.128-10.963c4.16-3.014,8.335-5.44,12.377-7.281
			c2.005-0.949,4.017-1.693,5.911-2.389c1.893-0.729,3.698-1.422,5.411-2.081c6.752-2.844,11.696-5.883,14.854-8.211
			C207.6,250.587,209,249,209,249s-1.376,1.607-4.517,3.987c-3.13,2.378-8.035,5.496-14.784,8.453
			c-1.703,0.685-3.498,1.404-5.38,2.16c-1.902,0.729-3.865,1.488-5.848,2.462c-3.983,1.886-8.089,4.353-12.166,7.398
			c-4.062,3.059-8.119,6.691-11.836,11.014c-3.712,4.311-7.184,9.262-9.76,14.938c-2.565,5.643-4.22,12.112-3.832,18.744
			c0.011,0.813,0.167,1.681,0.245,2.524c0.114,0.787,0.277,1.617,0.515,2.4c0.47,1.581,1.218,3.084,2.226,4.416
			c2.019,2.684,5.027,4.582,8.278,5.885c6.591,2.565,14.055,3.156,21.537,3.135c7.516-0.071,15.198-0.817,22.938-2.012
			c7.741-1.198,15.555-2.829,23.356-4.865c7.768-2.101,15.702-4.318,22.779-8.293c1.779-0.972,3.445-2.125,5.061-3.339
			c1.565-1.272,3.097-2.603,4.423-4.132c1.356-1.499,2.581-3.124,3.662-4.854c1.104-1.714,2.075-3.524,2.981-5.382
			c1.819-3.707,3.402-7.59,5.174-11.415c1.773-3.826,3.731-7.604,6.006-11.193c4.536-7.207,10.333-13.519,16.708-19.055
			c6.315-5.563,13.477-10.183,20.951-13.822c7.468-3.697,15.262-6.409,22.691-9.493c3.712-1.546,7.318-3.251,10.601-5.378
			c1.62-1.085,3.193-2.235,4.569-3.579c0.728-0.633,1.337-1.374,1.994-2.069c0.308-0.365,0.59-0.75,0.886-1.123
			c0.299-0.372,0.589-0.75,0.836-1.157c2.123-3.147,3.563-6.758,4.362-10.405c0.831-3.745,1.159-7.491,0.934-11.166
			c-0.112-0.912-0.151-1.834-0.32-2.733c-0.196-0.896-0.393-1.789-0.589-2.68c-0.536-1.751-1.078-3.494-1.803-5.18
			c-1.366-3.393-2.973-6.682-4.439-9.985c-2.987-6.587-5.478-13.195-7.53-19.687c-1.936-6.529-3.609-12.888-4.847-19.08
			c-1.345-6.182-2.271-12.117-3.159-17.807c-0.335-2.856-0.753-5.627-0.992-8.339c-0.108-1.357-0.215-2.695-0.32-4.012
			c-0.103-1.318-0.228-2.614-0.246-3.896c-0.49-10.24,0.117-19.198,1.279-26.457c1.149-7.267,2.847-12.825,4.303-16.478
			C337.369,63.784,338.5,62,338.5,62z"/>
	</g>
	<g>
		<path d="M166.833,239.667c0,0-1.642,1.329-4.652,3.479c-1.525,1.045-3.363,2.339-5.546,3.713c-0.543,0.349-1.103,0.708-1.68,1.079
			c-0.59,0.35-1.196,0.71-1.818,1.08c-1.244,0.743-2.556,1.519-3.979,2.233c-2.783,1.525-5.978,2.956-9.351,4.285
			c-3.374,1.322-6.896,2.752-10.415,4.471c-3.51,1.725-7.014,3.755-10.235,6.239c-3.226,2.469-6.153,5.436-8.333,8.893
			c-2.238,3.417-3.656,7.332-4.251,11.313c-0.604,3.968-0.475,8.061,0.261,11.801c0.426,1.852,0.971,3.669,1.791,5.308
			c0.354,0.85,0.866,1.603,1.311,2.38c0.519,0.729,1.007,1.471,1.6,2.117c0.542,0.689,1.19,1.267,1.79,1.871
			c0.654,0.549,1.279,1.113,1.964,1.584c1.329,0.994,2.736,1.795,4.137,2.46c2.805,1.338,5.578,2.146,8.068,2.685
			c2.494,0.54,4.719,0.783,6.553,0.915c3.674,0.259,5.789,0.096,5.789,0.096s-0.522,0.077-1.51,0.157
			c-0.988,0.075-2.442,0.174-4.296,0.136c-1.853-0.034-4.109-0.158-6.672-0.572c-2.559-0.407-5.444-1.077-8.407-2.37
			c-1.481-0.636-2.987-1.416-4.432-2.411c-1.462-0.969-2.855-2.164-4.104-3.564c-2.559-2.758-4.391-6.435-5.301-10.419
			c-0.191-1.01-0.44-2.056-0.519-3.038c-0.058-0.511-0.117-1.023-0.176-1.538c-0.024-0.518-0.048-1.036-0.072-1.557
			c-0.079-1.04-0.008-2.093-0.003-3.149c0.093-1.053,0.134-2.119,0.321-3.174c0.607-4.23,2.104-8.447,4.478-12.106
			c2.351-3.68,5.468-6.791,8.845-9.347c3.37-2.587,7.04-4.577,10.648-6.291c3.616-1.712,7.235-3.045,10.648-4.278
			c1.726-0.589,3.318-1.278,4.891-1.903c1.587-0.586,3.042-1.347,4.468-2.01c1.436-0.646,2.756-1.381,4.028-2.049
			c0.637-0.334,1.257-0.659,1.86-0.976c0.592-0.338,1.167-0.665,1.724-0.982c2.242-1.25,4.138-2.44,5.713-3.401
			c1.547-1.003,2.787-1.759,3.605-2.314C166.395,239.96,166.833,239.667,166.833,239.667z"/>
	</g>
	<g>
		<path d="M142.333,237.334c0,0-0.251,0.366-0.789,1.004c-0.541,0.632-1.356,1.553-2.531,2.584
			c-1.169,1.034-2.677,2.206-4.563,3.321c-1.882,1.114-4.152,2.168-6.775,2.879c-0.661,0.156-1.335,0.315-2.023,0.478
			c-0.682,0.128-1.376,0.259-2.083,0.392c-1.41,0.255-2.867,0.519-4.365,0.789c-2.98,0.549-6.062,1.305-9.16,2.314
			c-1.499,0.631-3.087,1.125-4.546,1.947c-0.738,0.391-1.509,0.729-2.23,1.166c-0.714,0.45-1.432,0.902-2.152,1.356
			c-2.88,1.858-5.515,4.116-7.861,6.674c-2.35,2.539-4.392,5.368-5.893,8.397c-1.493,3.026-2.479,6.244-2.686,9.436
			c-0.219,3.185,0.3,6.304,1.333,9.053c0.133,0.356,0.266,0.711,0.397,1.063l0.197,0.525l0.247,0.469
			c0.329,0.622,0.652,1.235,0.97,1.838c0.399,0.564,0.791,1.12,1.175,1.665c0.18,0.285,0.404,0.526,0.634,0.76
			c0.225,0.238,0.447,0.475,0.667,0.708c1.812,1.821,3.879,3.068,5.84,3.862c1.968,0.801,3.827,1.108,5.349,1.292
			c1.53,0.173,2.749,0.16,3.577,0.13c0.83-0.031,1.269-0.102,1.269-0.102s-0.432,0.107-1.259,0.21
			c-0.826,0.093-2.052,0.24-3.616,0.15c-1.556-0.089-3.475-0.28-5.572-0.979c-2.087-0.688-4.366-1.862-6.384-3.736
			c-0.247-0.239-0.497-0.481-0.749-0.726c-0.257-0.241-0.51-0.49-0.716-0.783c-0.439-0.566-0.887-1.143-1.341-1.729
			c-0.375-0.652-0.755-1.315-1.142-1.989l-0.285-0.51l-0.214-0.52c-0.143-0.347-0.287-0.696-0.433-1.049
			c-1.202-2.904-1.887-6.246-1.702-9.703c0.168-3.45,1.12-6.96,2.71-10.186c1.579-3.236,3.709-6.229,6.159-8.902
			c2.459-2.652,5.276-5.028,8.27-6.931c0.76-0.47,1.517-0.938,2.27-1.403c0.767-0.442,1.583-0.785,2.364-1.179
			c1.548-0.827,3.215-1.316,4.792-1.938c3.24-1.008,6.44-1.658,9.47-2.116c1.509-0.219,2.978-0.432,4.397-0.638
			c0.708-0.1,1.404-0.198,2.087-0.294c0.666-0.126,1.318-0.249,1.958-0.369c5.102-1.163,8.958-3.497,11.369-5.39
			C141.203,238.726,142.333,237.334,142.333,237.334z"/>
	</g>
	<g>
		<path d="M122.667,231.334c0,0-0.205,0.236-0.641,0.639c-0.447,0.382-1.089,0.982-2.017,1.583
			c-0.894,0.659-2.065,1.311-3.395,2.101c-1.377,0.681-2.902,1.548-4.671,2.231c-0.877,0.359-1.78,0.772-2.737,1.13
			c-0.965,0.337-1.962,0.686-2.988,1.044c-2.052,0.755-4.25,1.352-6.504,2.015c-2.252,0.65-4.543,1.384-6.804,2.251
			c-2.255,0.874-4.478,1.916-6.498,3.247c-2.047,1.316-3.805,2.907-5.405,4.757c-1.526,1.778-2.871,3.754-3.812,5.804
			c-0.943,2.053-1.589,4.171-1.832,6.233c-0.258,2.047-0.185,4.075,0.23,5.771c0.141,0.441,0.245,0.917,0.407,1.303
			c0.175,0.383,0.287,0.775,0.496,1.135c0.366,0.735,0.784,1.406,1.253,1.979c0.922,1.163,1.952,1.998,2.854,2.592
			c0.909,0.589,1.679,0.977,2.219,1.204c0.54,0.23,0.843,0.317,0.843,0.317s-0.311-0.05-0.879-0.215
			c-0.564-0.171-1.4-0.439-2.381-0.972c-0.979-0.526-2.126-1.292-3.217-2.438c-0.553-0.563-1.067-1.24-1.535-2.002
			c-0.261-0.362-0.426-0.814-0.648-1.239c-0.209-0.436-0.328-0.859-0.502-1.305c-0.614-1.93-0.806-4.04-0.625-6.28
			c0.158-2.234,0.735-4.56,1.708-6.801c0.977-2.246,2.289-4.401,3.978-6.37c1.608-1.901,3.582-3.738,5.757-5.147
			c2.188-1.412,4.548-2.488,6.903-3.376c2.357-0.895,4.737-1.535,7.019-2.14c2.272-0.618,4.5-1.096,6.531-1.742
			c1.027-0.303,2.026-0.597,2.993-0.882c0.964-0.291,1.872-0.639,2.758-0.937c1.782-0.577,3.338-1.284,4.761-1.831
			c1.365-0.655,2.583-1.196,3.515-1.764c0.961-0.521,1.672-1.007,2.155-1.339C122.432,231.547,122.667,231.334,122.667,231.334z"/>
	</g>
	<g>
		<path d="M228.5,118c0,0,0.329,0.79,0.77,2.332c0.422,1.542,1.043,3.824,1.406,6.802c0.387,2.967,0.677,6.623,0.384,10.803
			c-0.027,0.523-0.056,1.054-0.084,1.594c-0.051,0.537-0.133,1.08-0.199,1.632c-0.159,1.101-0.247,2.249-0.476,3.402
			c-0.247,1.151-0.5,2.332-0.759,3.54c-0.256,1.21-0.704,2.398-1.06,3.641c-0.19,0.618-0.383,1.242-0.576,1.873
			c-0.248,0.611-0.498,1.228-0.75,1.851c-0.528,1.235-0.975,2.54-1.6,3.785c-0.641,1.239-1.292,2.499-1.953,3.778
			c-0.169,0.318-0.324,0.646-0.506,0.959l-0.588,0.92c-0.394,0.616-0.79,1.236-1.189,1.86c-1.498,2.571-3.5,4.876-5.382,7.359
			c-1.027,1.246-2.095,2.308-3.168,3.479c-1.151,1.103-2.353,2.194-3.544,3.305c-4.885,4.25-10.384,8.045-16.153,11.562
			c-5.776,3.51-11.838,6.733-18.014,9.71c-6.213,2.898-12.535,5.546-18.826,7.972c-6.311,2.373-12.583,4.536-18.717,6.429
			c-1.529,0.488-3.064,0.907-4.575,1.358c-1.499,0.438-3.027,0.904-4.523,1.25c-3.063,0.707-6.005,1.232-8.882,1.82
			c-5.738,1.155-11.134,2.375-15.963,3.976c-4.814,1.602-9.144,3.438-12.493,5.827c-1.679,1.16-3.126,2.489-4.246,3.834
			c-1.096,1.392-1.903,2.82-2.457,4.188c-0.521,1.382-0.795,2.68-0.949,3.82c-0.122,1.146-0.122,2.131-0.067,2.927
			C83.483,247.179,83.75,248,83.75,248s-0.304-0.808-0.498-2.404c-0.175-1.583-0.231-4.014,0.76-6.892
			c0.521-1.421,1.301-2.919,2.387-4.396c1.142-1.462,2.539-2.825,4.242-4.095c3.357-2.572,7.712-4.59,12.57-6.291
			c4.864-1.721,10.287-3.061,16.023-4.337c2.859-0.643,5.842-1.241,8.768-1.979c2.938-0.812,5.954-1.742,8.999-2.678
			c6.086-1.923,12.308-4.115,18.563-6.515c6.235-2.45,12.493-5.127,18.64-8.035c6.144-2.912,12.171-6.066,17.905-9.498
			c5.725-3.437,11.175-7.149,15.983-11.277c1.156-1.063,2.303-2.117,3.438-3.16c0.541-0.57,1.08-1.137,1.616-1.701
			c0.514-0.562,1.134-1.119,1.551-1.675c1.884-2.39,3.899-4.611,5.41-7.096c0.403-0.604,0.804-1.203,1.201-1.798l0.595-0.89
			c0.184-0.303,0.342-0.621,0.514-0.928c0.672-1.24,1.335-2.46,1.986-3.661c0.638-1.208,1.097-2.475,1.641-3.676
			c0.26-0.606,0.518-1.207,0.772-1.801c0.202-0.615,0.402-1.223,0.601-1.825c1.696-4.785,2.51-9.407,2.904-13.514
			c0.425-4.116,0.258-7.745-0.03-10.702c-0.276-2.966-0.764-5.264-1.126-6.819C228.794,118.804,228.5,118,228.5,118z"/>
	</g>
</g>
</svg>
