<?xml version="1.0" encoding="iso-8859-1"?>
<!-- Generator: Adobe Illustrator 19.0.0, SVG Export Plug-In . SVG Version: 6.00 Build 0)  -->
<svg version="1.1" id="Layer_1" xmlns="http://www.w3.org/2000/svg" xmlns:xlink="http://www.w3.org/1999/xlink" x="0px" y="0px"
	 viewBox="0 0 512 512" style="enable-background:new 0 0 512 512;" xml:space="preserve">
<path style="fill:#FFE7E5;" d="M128.828,500.608l-3.686-6.468c-33.603-59.049-43.792-111.663-32.05-165.558l2.884-13.26
	l13.073,3.661c78.564,21.981,134.293,97.883,144.669,112.875l2.278,3.285v65.474H128.828V500.608z"/>
<path style="fill:#6FB0B6;" d="M245.79,420.918c-18.466-24.353-68.768-83.027-136.827-101.97l-12.885-3.592l4.156-12.714
	c2.142-6.562,4.523-13.039,7.023-19.49l5.777-14.89l13.277,8.874c28.569,19.114,75.842,30.07,129.694,30.07
	c53.886,0,101.185-10.922,129.754-29.968l13.277-8.849l5.76,14.882c2.483,6.408,4.838,12.851,6.971,19.37l4.156,12.714
	l-12.885,3.592c-68.06,18.943-118.362,77.625-136.827,101.97l-10.197,13.448L245.79,420.918z"/>
<g>
	<path style="fill:#FFE7E5;" d="M255.996,307.207c-56.182,0-107.781-12.893-134.66-33.637l-7.833-6.05l7.56-17.689
		c27.553-64.058,53.57-124.565,14.02-220.776l-7.27-17.663h256.384l-7.27,17.663c-39.551,96.21-13.533,156.718,14.02,220.776
		l7.577,17.749l-7.85,6.041C363.76,294.33,312.152,307.207,255.996,307.207z"/>
	<path style="fill:#FFE7E5;" d="M255.996,500.608v-65.5l2.278-3.285c10.393-15.018,66.225-91.005,144.661-112.909l13.064-3.652
		l2.884,13.252c11.767,53.92,1.587,106.552-32.033,165.626l-3.686,6.468H255.996z"/>
</g>
<g>
	<path style="fill:#573A32;" d="M395.579,18.261c3.004-6.4,0.265-14.028-6.135-17.04c-1.997-0.939-4.104-1.254-6.161-1.135V0
		H127.642v0.017c-1.715,0.043-3.447,0.427-5.094,1.203c-6.4,3.012-9.139,10.641-6.135,17.04
		c47.188,100.246,20.812,161.573-7.108,226.493c-30.275,70.406-61.583,143.21,7.663,260.932c2.321,3.951,6.425,6.144,10.683,6.263
		v0.043h0.316c0.017,0,0.034,0.009,0.051,0.009c0.017,0,0.034-0.009,0.051-0.009h127.876c0.026,0,0.043,0.009,0.06,0.009
		c0.017,0,0.043-0.009,0.06-0.009h127.219v-0.085c0.23,0.009,0.469,0.094,0.7,0.094c4.386,0,8.661-2.253,11.05-6.314
		c69.246-117.722,37.938-190.517,7.663-260.932C374.767,179.834,348.392,118.507,395.579,18.261z M132.813,254.882
		c27.434-63.793,55.618-129.702,14.097-230.699h218.182c-41.522,100.989-13.346,166.898,14.097,230.699
		c1.237,2.867,2.449,5.726,3.678,8.593c-21.913,16.878-68.828,30.932-126.861,30.932c-58.076,0-104.948-14.071-126.844-30.966
		C130.372,260.582,131.584,257.741,132.813,254.882z M243.196,487.809H136.269c-36.607-64.322-40.148-112.978-30.668-156.505
		c73.939,20.693,127.177,92.771,137.595,107.832V487.809z M255.996,413.179c-21.29-28.065-72.983-86.918-143.594-106.569
		c2.074-6.34,4.377-12.603,6.792-18.841c29.473,19.72,78.623,32.229,136.81,32.229c58.119,0,107.337-12.441,136.853-32.11
		c2.398,6.195,4.685,12.424,6.741,18.721C328.979,326.261,277.286,385.114,255.996,413.179z M375.723,487.809H268.795v-48.698
		c10.794-15.581,63.844-87.276,137.578-107.875C415.871,374.78,412.347,423.453,375.723,487.809z"/>
	<circle style="fill:#573A32;" cx="255.987" cy="230.392" r="12.8"/>
	<path style="fill:#573A32;" d="M111.446,144.558L73.047,106.16c-5-5-13.098-5-18.099,0c-5,5-5,13.098,0,18.099l16.546,16.546
		h-58.69c-7.074,0-12.8,5.726-12.8,12.8c0,7.074,5.726,12.8,12.8,12.8h58.699l-16.554,16.554c-5,5-5,13.098,0,18.099
		c2.5,2.5,5.777,3.746,9.054,3.746c3.277,0,6.553-1.246,9.054-3.746l38.399-38.399C116.446,157.657,116.446,149.559,111.446,144.558
		z"/>
	<path style="fill:#573A32;" d="M499.188,140.812h-58.699l16.546-16.546c5-5,5-13.098,0-18.099c-5-5-13.098-5-18.099,0
		l-38.399,38.399c-5,5-5,13.098,0,18.099l38.399,38.399c2.5,2.5,5.777,3.746,9.054,3.746c3.277,0,6.553-1.246,9.054-3.746
		c5-5,5-13.098,0-18.099l-16.546-16.546h58.699c7.074,0,12.8-5.726,12.8-12.8C511.996,146.547,506.262,140.812,499.188,140.812z"/>
</g>
<g>
</g>
<g>
</g>
<g>
</g>
<g>
</g>
<g>
</g>
<g>
</g>
<g>
</g>
<g>
</g>
<g>
</g>
<g>
</g>
<g>
</g>
<g>
</g>
<g>
</g>
<g>
</g>
<g>
</g>
</svg>
