<?xml version="1.0" encoding="utf-8"?>
<!-- Generator: Adobe Illustrator 16.0.0, SVG Export Plug-In . SVG Version: 6.00 Build 0)  -->
<!DOCTYPE svg PUBLIC "-//W3C//DTD SVG 1.1//EN" "http://www.w3.org/Graphics/SVG/1.1/DTD/svg11.dtd">
<svg version="1.1" id="Capa_1" xmlns="http://www.w3.org/2000/svg" xmlns:xlink="http://www.w3.org/1999/xlink" x="0px" y="0px"
	 width="511px" height="511px" viewBox="0 0 511 511" enable-background="new 0 0 511 511" xml:space="preserve">
<path fill="#F4CDA4" d="M111.921,38.362L52.144,62.358c-7.403,37.61,0.917,55.653,6.398,62.975c0.02,0.031,0.039,0.063,0.059,0.094
	c3.044,4.121,2.612,9.871-0.811,13.696c-1.571,1.747-3.524,4-5.766,6.721l35.575,35.115l47.376-16.577
	c2.078-8.729,8.729-15.996,17.809-18.651c0.051-0.02,0.102-0.027,0.152-0.051c7.364-2.23,18.417-11.431,24.943-44.612
	L111.921,38.362z"/>
<path fill="#F1BF94" d="M126.011,25.836c1.743-8.865-4.027-17.462-12.889-19.208c-8.865-1.743-17.462,4.027-19.208,12.889
	L73.481,38.643L84.237,68.67c-1.743,8.865,4.027,17.466,12.889,19.208c8.866,1.747,17.462-4.027,19.208-12.889l21.595-25.014
	L126.011,25.836z"/>
<path fill="#F1BF94" d="M177.313,19.263c-8.862-1.743-17.462,4.027-19.205,12.889l-20.179,17.825l7.855,44.771l32.098,6.32
	l12.319-62.596C191.948,29.61,186.178,21.01,177.313,19.263z"/>
<path fill="#E6AF82" d="M145.785,94.748l12.324-62.596c1.743-8.861-4.027-17.462-12.889-19.205
	c-8.866-1.747-17.466,4.022-19.209,12.889l-12.323,62.597L145.785,94.748z"/>
<path fill="#E6AF82" d="M61.816,13.201L52.14,62.354c-1.743,8.862,4.027,17.462,12.893,19.208
	c8.861,1.743,17.462-4.027,19.205-12.889l9.676-49.158c1.747-8.862-4.027-17.462-12.889-19.205
	C72.159-1.435,63.563,4.335,61.816,13.201z"/>
<path fill="#F1BF94" d="M105.707,128.479c-0.717,0-1.442-0.101-2.164-0.312c-4.089-1.193-6.437-5.474-5.244-9.563
	c7.232-24.764,31.544-31.747,32.573-32.031c4.105-1.13,8.355,1.275,9.489,5.38c1.13,4.093-1.263,8.327-5.345,9.478
	c-0.779,0.226-17.142,5.158-21.91,21.497C112.12,126.292,109.044,128.479,105.707,128.479z"/>
<path fill="#F05E71" d="M374.813,248.077c12-1.45,25.635-2.316,41.101-2.316V511H313.784c-16.265-21.458-22.28-42.054-27.134-58.545
	L374.813,248.077z"/>
<path fill="#F4CDA4" d="M374.813,248.077c-63.024,7.606-80.864,31.388-80.864,31.388s-27.438-33.704-87.586-33.704
	c-38.601,0-53.829,13.884-66.866,23.825c-3.618,2.756-8.729-0.328-7.965-4.811c1.182-7.033,2.519-16.195,3.524-26.632
	l-53.629-34.565l-67.797,7.431c-13.345,34.456-19.711,77.888-1.287,124.483c34.413,87.024,186.151,85.049,242.085,80.688
	c21.684,0.628,25.98,15.041,32.223,36.273C408.088,432.467,374.813,248.077,374.813,248.077z"/>
<path fill="#D7ECEC" d="M135.056,238.144L13.629,211.009c11.411-29.505,27.945-52.444,38.394-65.166l82.951,18.538
	c-0.722,2.994-0.893,6.16-0.441,9.369C137.668,195.96,136.896,219.153,135.056,238.144z"/>
<path fill="#FFD6AB" d="M164.993,81.859l-39.411-7.758c-8.861-1.743-17.462,4.027-19.205,12.893
	c-1.747,8.861,4.023,17.462,12.889,19.205l39.408,7.758c8.865,1.747,17.462-4.027,19.208-12.889
	C179.625,92.203,173.855,83.606,164.993,81.859z"/>
<g>
	<defs>
		<path id="SVGID_1_" d="M374.813,248.077c-63.024,7.606-80.864,31.388-80.864,31.388s-27.438-33.704-87.586-33.704
			c-38.601,0-53.829,13.884-66.866,23.825c-3.618,2.756-8.729-0.328-7.965-4.811c1.182-7.033,2.519-16.195,3.524-26.632l0.001,0
			c1.84-18.991,2.612-42.184-0.523-64.394c-0.452-3.208-0.281-6.374,0.44-9.368l0.001,0c2.078-8.729,8.729-15.996,17.809-18.651
			c0.051-0.02,0.102-0.027,0.152-0.051c7.364-2.23,18.417-11.431,24.943-44.612l-65.958-62.706L52.144,62.358
			c-7.403,37.61,0.917,55.653,6.398,62.975c0.02,0.031,0.039,0.063,0.059,0.094c3.044,4.121,2.612,9.871-0.811,13.696
			c-1.571,1.747-3.523,4-5.766,6.72l-0.001,0c-10.449,12.722-26.983,35.661-38.394,65.166
			c-13.345,34.456-19.711,77.888-1.287,124.483c34.413,87.024,186.151,85.049,242.085,80.688
			c21.684,0.628,25.98,15.041,32.223,36.273C408.088,432.467,374.813,248.077,374.813,248.077z"/>
	</defs>
	<clipPath id="SVGID_2_">
		<use xlink:href="#SVGID_1_"  overflow="visible"/>
	</clipPath>
	<polygon clip-path="url(#SVGID_2_)" fill="#37CC27" points="31,124 182,156 170,189 17,151 	"/>
</g>
</svg>
