<?xml version="1.0" encoding="utf-8"?>
<!-- Generator: Adobe Illustrator 16.0.3, SVG Export Plug-In . SVG Version: 6.00 Build 0)  -->
<!DOCTYPE svg PUBLIC "-//W3C//DTD SVG 1.1//EN" "http://www.w3.org/Graphics/SVG/1.1/DTD/svg11.dtd">
<svg version="1.1" id="Capa_1" xmlns="http://www.w3.org/2000/svg" xmlns:xlink="http://www.w3.org/1999/xlink" x="0px" y="0px"
	 width="27.154px" height="27.154px" viewBox="0 0 27.154 27.154" enable-background="new 0 0 27.154 27.154" xml:space="preserve">
<g>
	<g>
		<defs>
			<rect id="SVGID_1_" x="-240.65" y="-261.56" width="792" height="612"/>
		</defs>
		<clipPath id="SVGID_2_">
			<use xlink:href="#SVGID_1_"  overflow="visible"/>
		</clipPath>
		<path clip-path="url(#SVGID_2_)" fill="#FFD900" d="M-2.849,13.577c0,7.499-6.079,13.577-13.577,13.577
			c-7.499,0-13.578-6.078-13.578-13.577S-23.925,0-16.426,0C-8.928,0-2.849,6.078-2.849,13.577"/>
		<path clip-path="url(#SVGID_2_)" fill="#FFD900" d="M27.154,13.577c0,7.499-6.078,13.577-13.577,13.577
			C6.079,27.154,0,21.076,0,13.577S6.079,0,13.577,0C21.076,0,27.154,6.078,27.154,13.577"/>
		<path clip-path="url(#SVGID_2_)" fill="#BFE10E" d="M-2.849,41.523c0,7.499-6.079,13.577-13.577,13.577
			c-7.499,0-13.578-6.078-13.578-13.577c0-7.499,6.079-13.578,13.578-13.578C-8.928,27.945-2.849,34.024-2.849,41.523"/>
		<path clip-path="url(#SVGID_2_)" fill="#BFE10E" d="M27.154,41.523c0,7.499-6.078,13.577-13.577,13.577
			C6.079,55.1,0,49.022,0,41.523c0-7.499,6.079-13.578,13.577-13.578C21.076,27.945,27.154,34.024,27.154,41.523"/>
		<path clip-path="url(#SVGID_2_)" fill="#F0047F" d="M-2.849,69.469c0,7.499-6.079,13.577-13.577,13.577
			c-7.499,0-13.578-6.078-13.578-13.577s6.079-13.577,13.578-13.577C-8.928,55.892-2.849,61.97-2.849,69.469"/>
		<path clip-path="url(#SVGID_2_)" fill="#F0047F" d="M27.154,69.469c0,7.499-6.078,13.577-13.577,13.577
			C6.079,83.046,0,76.968,0,69.469s6.079-13.577,13.577-13.577C21.076,55.892,27.154,61.97,27.154,69.469"/>
		<path clip-path="url(#SVGID_2_)" fill="#0A51A1" d="M-2.849,97.415c0,7.499-6.079,13.578-13.577,13.578
			c-7.499,0-13.578-6.079-13.578-13.578c0-7.498,6.079-13.576,13.578-13.576C-8.928,83.838-2.849,89.917-2.849,97.415"/>
		<path clip-path="url(#SVGID_2_)" fill="#0A51A1" d="M27.154,97.415c0,7.499-6.078,13.578-13.577,13.578
			C6.079,110.993,0,104.914,0,97.415c0-7.498,6.079-13.576,13.577-13.576C21.076,83.838,27.154,89.917,27.154,97.415"/>
		<path clip-path="url(#SVGID_2_)" fill="#FF8C00" d="M-2.849,125.362c0,7.498-6.079,13.576-13.577,13.576
			c-7.499,0-13.578-6.078-13.578-13.576c0-7.499,6.079-13.577,13.578-13.577C-8.928,111.785-2.849,117.863-2.849,125.362"/>
		<path clip-path="url(#SVGID_2_)" fill="#FF8C00" d="M27.154,125.362c0,7.498-6.078,13.576-13.577,13.576
			C6.079,138.938,0,132.86,0,125.362c0-7.499,6.079-13.577,13.577-13.577C21.076,111.785,27.154,117.863,27.154,125.362"/>
		<path clip-path="url(#SVGID_2_)" fill="#DE9865" d="M-23.963,39.69c0.526,1.637,1.605,1.498,1.605,1.498l-0.745-3.347
			C-23.104,37.841-24.49,38.056-23.963,39.69"/>
		<path clip-path="url(#SVGID_2_)" fill="#DE9865" d="M-9.713,37.842l-0.745,3.346c0,0,1.079,0.139,1.605-1.497
			C-8.326,38.055-9.713,37.842-9.713,37.842"/>
		<rect x="-17.659" y="45.352" clip-path="url(#SVGID_2_)" fill="#DE9865" width="2.533" height="2.528"/>
		<polygon clip-path="url(#SVGID_2_)" fill="#010103" points="-23.531,48.662 -10.362,48.662 -8.923,37.498 -24.098,37.193 		"/>
		<rect x="-17.645" y="45.39" clip-path="url(#SVGID_2_)" fill="#DE9865" width="2.441" height="2.573"/>
		<path clip-path="url(#SVGID_2_)" fill="#E4AA7F" d="M-16.421,30.074c-3.825,0-6.927,3.096-6.927,6.914
			c0,3.817,0.742,9.629,6.927,9.629c6.825,0,6.927-5.813,6.927-9.629C-9.495,33.17-12.596,30.074-16.421,30.074"/>
		<path clip-path="url(#SVGID_2_)" fill="#DE9865" d="M-23.348,36.988c0,3.817,0.742,9.629,6.927,9.629V30.074
			C-20.245,30.074-23.348,33.17-23.348,36.988"/>
		<path clip-path="url(#SVGID_2_)" fill="#E4AA7F" d="M-14.634,47.863h-1.824v3.92h7.2C-9.258,48.564-14.634,47.863-14.634,47.863"
			/>
		<path clip-path="url(#SVGID_2_)" fill="#DE9865" d="M-23.587,51.782h7.199v-3.92h-1.824
			C-18.212,47.862-23.587,48.564-23.587,51.782"/>
		<path clip-path="url(#SVGID_2_)" fill="#D7D3CC" d="M-17.863,47.789c0,0-3.75,0.307-2.878,0.35
			c0.872,0.044,0.654,3.644,0.654,3.644h3.707v-2.029C-18.342,49.839-17.863,47.789-17.863,47.789"/>
		<path clip-path="url(#SVGID_2_)" fill="#E9E7E5" d="M-14.897,47.789c0,0,0.479,2.051-1.483,1.964v2.029h3.706
			c0,0-0.218-3.6,0.655-3.644C-11.147,48.095-14.897,47.789-14.897,47.789"/>
		<path clip-path="url(#SVGID_2_)" fill="#010103" d="M-24.883,38.545c0.523,2.66,1.221,3.226-0.437,4.884
			c-1.656,1.657-2.703,5.625,2.4,6.497c4.995,0.854,4.403-3.619,4.403-3.619s-0.479,0.654-1.962-0.741
			c-1.483-1.396-2.703-3.533-2.398-7.937c0.306-4.405,6.456-3.489,6.456-3.489v-4.066C-23.089,29.628-25.406,35.885-24.883,38.545"
			/>
		<path clip-path="url(#SVGID_2_)" fill="#1A1719" d="M-7.971,38.545c0.523-2.66-1.792-8.917-8.462-8.471v4.066
			c0,0,6.151-0.916,6.457,3.489c0.305,4.404-0.916,6.541-2.399,7.937c-1.483,1.396-1.962,0.741-1.962,0.741s-0.59,4.473,4.405,3.619
			c5.102-0.872,4.056-4.84,2.398-6.497C-9.191,41.771-8.493,41.205-7.971,38.545"/>
		<path clip-path="url(#SVGID_2_)" fill="#010103" d="M-23.348,38.601c0,0,5.268-0.493,6.969-0.406v-6.846
			C-16.379,31.349-23.905,31.725-23.348,38.601"/>
		<path clip-path="url(#SVGID_2_)" fill="#1A1719" d="M-16.444,31.349v6.847c1.701-0.087,6.969,0.405,6.969,0.405
			C-8.918,31.725-16.444,31.349-16.444,31.349"/>
		<rect x="-17.383" y="40.419" clip-path="url(#SVGID_2_)" fill="#010103" width="1.004" height="0.61"/>
		<rect x="-16.401" y="40.419" clip-path="url(#SVGID_2_)" fill="#1A1719" width="1.003" height="0.61"/>
		<path clip-path="url(#SVGID_2_)" fill="#010103" d="M-21.787,40.681c-0.176,0.611,0.218,2.792,2.181,3.054
			c2.366,0.315,2.659-3.228,2.659-3.228C-19.781,38.806-21.787,40.681-21.787,40.681"/>
		<path clip-path="url(#SVGID_2_)" fill="#1A1719" d="M-15.829,40.463c0,0,0.295,3.542,2.661,3.227
			c1.962-0.261,2.355-2.442,2.18-3.053C-10.988,40.637-12.994,38.762-15.829,40.463"/>
		<path clip-path="url(#SVGID_2_)" fill="#DE9865" d="M5.853,124.19c0.537,1.673,1.639,1.531,1.639,1.531l-0.761-3.422
			C6.731,122.299,5.316,122.518,5.853,124.19"/>
		<path clip-path="url(#SVGID_2_)" fill="#DE9865" d="M20.503,122.299l-0.76,3.422c0,0,1.101,0.142,1.639-1.531
			C21.919,122.518,20.503,122.299,20.503,122.299"/>
		<rect x="12.289" y="129.981" clip-path="url(#SVGID_2_)" fill="#DE9865" width="2.585" height="2.584"/>
		<path clip-path="url(#SVGID_2_)" fill="#E4AA7F" d="M13.551,114.355c-3.905,0-7.07,3.166-7.07,7.07
			c0,3.906,1.969,9.851,7.07,9.851c5.862,0,7.07-5.944,7.07-9.851C20.621,117.521,17.456,114.355,13.551,114.355"/>
		<path clip-path="url(#SVGID_2_)" fill="#DE9865" d="M6.482,121.425c0,3.905,1.598,9.851,7.07,9.851v-16.92
			C9.648,114.356,6.482,117.521,6.482,121.425"/>
		<path clip-path="url(#SVGID_2_)" fill="#D7D3CC" d="M15.455,132.565h-3.56c-5.301,0.685-5.613,4.009-5.613,4.009h14.637
			C20.918,133.283,15.455,132.565,15.455,132.565"/>
		<path clip-path="url(#SVGID_2_)" fill="#F5E4D7" d="M15.573,132.565h-1.861v4.009h7.348
			C21.06,133.283,15.573,132.565,15.573,132.565"/>
		<path clip-path="url(#SVGID_2_)" fill="#010103" d="M12.082,123.643H8.287c-0.483,0-0.874,0.337-0.874,0.75
			c0,0,0.479,2.765,2.779,2.765c2.301,0,2.764-2.765,2.764-2.765C12.956,123.98,12.564,123.643,12.082,123.643"/>
		<path clip-path="url(#SVGID_2_)" fill="#1A1719" d="M18.986,123.643h-3.794c-0.483,0-0.875,0.337-0.875,0.75
			c0,0,0.464,2.765,2.764,2.765c2.301,0,2.78-2.765,2.78-2.765C19.861,123.98,19.47,123.643,18.986,123.643"/>
		<path clip-path="url(#SVGID_2_)" fill="#010103" d="M12.337,124.547c0,0.189,0.152,0.342,0.342,0.342h0.974v-0.684h-0.974
			C12.489,124.206,12.337,124.359,12.337,124.547"/>
		<path clip-path="url(#SVGID_2_)" fill="#1A1719" d="M14.581,124.206h-0.927v0.684h0.927c0.188,0,0.342-0.152,0.342-0.342
			C14.922,124.359,14.769,124.206,14.581,124.206"/>
		<path clip-path="url(#SVGID_2_)" fill="#DE9865" d="M13.405,132.429v2.48c0.169,0.146,0.169,0.192,0.169,0.192l0.168-0.168
			l-0.048-2.505H13.405z"/>
		<path clip-path="url(#SVGID_2_)" fill="#E4AA7F" d="M13.577,132.431l0.004,2.671c0,0,3.321-0.636,3.32-2.218
			C16.9,132.884,16.076,132.375,13.577,132.431"/>
		<path clip-path="url(#SVGID_2_)" fill="#DE9865" d="M10.253,132.884c-0.002,1.582,3.32,2.218,3.32,2.218l0.003-2.671
			C11.079,132.375,10.253,132.884,10.253,132.884"/>
		<path clip-path="url(#SVGID_2_)" fill="#010103" d="M12.956,113.638l-1.487-0.987l-0.917,1.705l-1.871-1.423
			c-0.284,0.44-0.707,2.472-0.707,2.472c-0.565-0.283-1.978-0.495-1.978-0.495l0.286,3.143l-0.991-0.313
			c0.07,1.487,1.243,4.559,1.243,4.559s1.094-2.021,0.879-3.293c-0.216-1.271,3.78-0.988,6.16-0.177l0.898-2.471l-0.89-3.707
			L12.956,113.638z"/>
		<path clip-path="url(#SVGID_2_)" fill="#1A1719" d="M21.157,114.91c0,0-1.411,0.212-1.977,0.494c0,0-0.423-2.029-0.706-2.472
			l-1.871,1.423l-0.919-1.704l-1.486,0.988l-0.617-0.988v0.529v5.649c2.38-0.813,6.376-1.096,6.161,0.176
			c-0.215,1.271,0.878,3.294,0.878,3.294s1.173-3.072,1.243-4.561l-0.991,0.314L21.157,114.91z"/>
		<path clip-path="url(#SVGID_2_)" fill="#FBAD4B" d="M23.174,96.958c-1.923-1.406-1.968-3.749-1.968-3.749
			c0.377-4.59-7.701-2.668-7.701-2.668v11.662h9.764c1.781-1.265-0.986-2.201-0.095-2.201
			C24.066,100.002,25.097,98.363,23.174,96.958"/>
		<path clip-path="url(#SVGID_2_)" fill="#FD9B28" d="M5.948,93.209c0,0-0.046,2.343-1.969,3.749c-1.923,1.404-0.89,3.043,0,3.043
			c0.891,0-1.876,0.938-0.094,2.203h9.764V90.542C13.649,90.542,5.57,88.62,5.948,93.209"/>
		<path clip-path="url(#SVGID_2_)" fill="#DD9964" d="M5.441,95.65c0.576,1.792,1.757,1.64,1.757,1.64l-0.816-3.666
			C6.382,93.624,4.864,93.857,5.441,95.65"/>
		<path clip-path="url(#SVGID_2_)" fill="#DD9964" d="M20.914,93.635l-0.801,3.596c0,0,1.159,0.149,1.725-1.608
			C22.402,93.864,20.914,93.635,20.914,93.635"/>
		<rect x="12.267" y="101.707" clip-path="url(#SVGID_2_)" fill="#DD9964" width="2.722" height="2.718"/>
		<path clip-path="url(#SVGID_2_)" fill="#E4A97F" d="M13.597,85.287c-4.109,0-7.44,3.327-7.44,7.431s2.073,10.471,7.44,10.35
			c7.502-0.166,7.439-6.246,7.439-10.35S17.705,85.287,13.597,85.287"/>
		<path clip-path="url(#SVGID_2_)" fill="#DD9964" d="M6.158,92.717c0,4.104-0.21,9.867,7.44,10.35v-17.78
			C9.489,85.287,6.158,88.614,6.158,92.717"/>
		<path clip-path="url(#SVGID_2_)" fill="#DD9964" d="M6.146,108.582h7.464v-4.212h-1.691
			C11.919,104.37,6.146,105.124,6.146,108.582"/>
		<path clip-path="url(#SVGID_2_)" fill="#E4A97F" d="M15.266,104.37h-1.69v4.212h7.463C21.039,105.124,15.266,104.37,15.266,104.37
			"/>
		<path clip-path="url(#SVGID_2_)" fill="#680008" d="M10.748,104.328c-0.187,0.037-0.483,0.125-0.483,0.125
			c-0.376,0.363-2.633,4.071-2.633,4.071h5.684v-1.064C9.785,107.346,10.748,104.328,10.748,104.328"/>
		<path clip-path="url(#SVGID_2_)" fill="#AF090F" d="M16.196,104.475c0,0,0.907,3.019-2.624,3.132v1.063h5.739
			c0,0-2.256-3.709-2.633-4.07C16.678,104.6,16.383,104.511,16.196,104.475"/>
		<path clip-path="url(#SVGID_2_)" fill="#FD9B28" d="M10.125,92.564c0,0,1.477,0.51,3.473,1.107l-0.035-2.108
			C12,91.659,10.655,91.944,10.125,92.564"/>
		<path clip-path="url(#SVGID_2_)" fill="#FBAD4B" d="M20.771,92.086c-0.371-0.186-4.195-0.707-7.207-0.523l0.034,2.108
			c2.359,0.706,5.444,1.533,7.682,1.787C21.28,95.458,21.333,92.367,20.771,92.086"/>
		<path clip-path="url(#SVGID_2_)" fill="#680008" d="M5.948,93.209c0,0,2.935-0.795,7.706-0.795v-7.496
			C13.654,84.918,4.539,84.498,5.948,93.209"/>
		<path clip-path="url(#SVGID_2_)" fill="#AF090F" d="M13.564,84.918v7.495c4.771,0,7.706,0.796,7.706,0.796
			C22.679,84.498,13.564,84.918,13.564,84.918"/>
		<path clip-path="url(#SVGID_2_)" fill="#680008" d="M5.659,91.993c-0.009,0.012-0.352,0.069-0.349,0.624
			c0.005,0.957,1.304,0.441,1.304,0.441l1.656-1.861H5.8C5.227,91.478,5.8,91.782,5.659,91.993"/>
		<path clip-path="url(#SVGID_2_)" fill="#AF090F" d="M21.476,91.993c-0.141-0.211,0.431-0.515-0.141-0.796h-2.469l1.655,1.861
			c0,0,1.299,0.516,1.304-0.441C21.828,92.062,21.485,92.004,21.476,91.993"/>
		<path clip-path="url(#SVGID_2_)" fill="#010103" d="M5.948,108.637l7.673,0.033v-1.58c-3.316,0.026-6.184-0.935-6.184-0.935
			C6.02,107.062,5.948,108.637,5.948,108.637"/>
		<path clip-path="url(#SVGID_2_)" fill="#1A1719" d="M19.769,106.155c0,0-2.868,0.963-6.184,0.937v1.58l7.674-0.035
			C21.259,108.636,21.187,107.061,19.769,106.155"/>
		<rect x="12.078" y="74.088" clip-path="url(#SVGID_2_)" fill="#DD9964" width="2.559" height="2.558"/>
		<path clip-path="url(#SVGID_2_)" fill="#E8E6E4" d="M15.067,76.646v-0.603h-3.536v0.603c-5.267,0.677-5.577,3.966-5.577,3.966
			h14.542C20.496,77.356,15.067,76.646,15.067,76.646"/>
		<path clip-path="url(#SVGID_2_)" fill="#F6F6F2" d="M15.197,76.646v-0.603h-1.843v4.568h7.272
			C20.626,77.356,15.197,76.646,15.197,76.646"/>
		<path clip-path="url(#SVGID_2_)" fill="#DD9964" d="M20.3,66.459l-0.753,3.386c0,0,1.09,0.142,1.621-1.515
			C21.7,66.675,20.3,66.459,20.3,66.459"/>
		<path clip-path="url(#SVGID_2_)" fill="#DD9964" d="M5.7,68.331c0.531,1.656,1.621,1.515,1.621,1.515l-0.753-3.386
			C6.568,66.459,5.167,66.675,5.7,68.331"/>
		<path clip-path="url(#SVGID_2_)" fill="#E4A97F" d="M13.519,58.536c-3.864-0.059-7.042,3.026-7.101,6.89
			c-0.057,3.864,2.987,9.865,6.85,9.85c5.22-0.022,7.192-5.603,7.25-9.466C20.576,61.945,17.382,58.593,13.519,58.536"/>
		<path clip-path="url(#SVGID_2_)" fill="#DD9964" d="M6.353,65.809c0,3.864,2.052,9.687,7.038,9.443V58.511
			C9.528,58.511,6.353,61.945,6.353,65.809"/>
		<polygon clip-path="url(#SVGID_2_)" fill="#C7C4C6" points="11.531,76.646 12.145,77.625 13.221,76.043 11.531,76.043 		"/>
		<polygon clip-path="url(#SVGID_2_)" fill="#E8E6E4" points="14.606,77.625 15.22,76.646 15.22,76.043 13.53,76.043 		"/>
		<path clip-path="url(#SVGID_2_)" fill="#010103" d="M11.33,58.733c-6.73,1.494-4.933,8.246-4.933,8.246l1.043-1.788
			c-0.763-1.675,1.342-2.558,2.764-3.115c1.42-0.559,3.222,0.953,3.222,0.953v-4.628C12.594,58.348,11.33,58.733,11.33,58.733"/>
		<path clip-path="url(#SVGID_2_)" fill="#1A1719" d="M15.523,58.733c0,0-1.265-0.385-2.098-0.332v4.628
			c0,0,3.348,1.882,5.791,0.394c0.506-0.308,0.531,1.033,0.196,1.769l1.055,1.629C20.467,66.82,21.776,60.823,15.523,58.733"/>
		<path clip-path="url(#SVGID_2_)" fill="#010103" d="M11.897,70.513c-0.827,0.629-0.795,1.788-1.39,1.39
			c0,0,1.635,1.191,2.918-0.959C13.425,70.944,12.725,69.885,11.897,70.513"/>
		<path clip-path="url(#SVGID_2_)" fill="#1A1719" d="M14.956,70.513c-0.827-0.628-1.53,0.431-1.53,0.431
			c1.285,2.15,2.92,0.959,2.92,0.959C15.749,72.301,15.783,71.142,14.956,70.513"/>
		<path clip-path="url(#SVGID_2_)" fill="#1A1719" d="M21.56,59.937c-0.1,0.034-1.433,0.348-1.433,0.348
			c-1.864-1.464-4.866-1.638-4.875-1.627c-2.877,3.429,1.512,5.638,3.778,4.871C21.296,62.762,21.66,59.902,21.56,59.937"/>
		<path clip-path="url(#SVGID_2_)" fill="#010103" d="M11.571,76.587c-0.221,0.552,0.077,0.508,0.056,0.618
			c-0.023,0.11-0.109,0.388-0.1,0.452c0.023,0.154,0.154,0.375,0.64,0.231c0.642-0.189,1.114-0.353,1.114-0.353
			s-0.188-0.508-0.286-0.872C12.995,76.665,11.792,76.037,11.571,76.587"/>
		<path clip-path="url(#SVGID_2_)" fill="#1A1719" d="M15.141,76.587c-0.221-0.551-1.424,0.077-1.424,0.077
			c-0.098,0.364-0.287,0.872-0.287,0.872s0.473,0.163,1.115,0.353c0.486,0.144,0.617-0.077,0.64-0.231
			c0.009-0.064-0.077-0.342-0.1-0.452C15.064,77.095,15.362,77.139,15.141,76.587"/>
		<path clip-path="url(#SVGID_2_)" fill="#1A1719" d="M12.995,76.665c0,0-0.354,0.927,0.353,0.949l-0.003-0.938L12.995,76.665z"/>
		<path clip-path="url(#SVGID_2_)" fill="#010103" d="M13.349,76.675l-0.002,0.938c0.706-0.021,0.353-0.949,0.353-0.949
			L13.349,76.675z"/>
		<path clip-path="url(#SVGID_2_)" fill="#1A1719" d="M-16.367,2.263c-12.261,0.082-8.062,19.541-7.284,20.594h14.542
			C-9.109,22.857-4.106,2.181-16.367,2.263"/>
		<path clip-path="url(#SVGID_2_)" fill="#010103" d="M-23.651,22.99h7.25l0.034-20.727C-28.628,2.344-24.428,21.936-23.651,22.99"
			/>
		<path clip-path="url(#SVGID_2_)" fill="#DD9964" d="M-24.075,12.059c0.532,1.656,1.621,1.515,1.621,1.515l-0.753-3.386
			C-23.207,10.188-24.607,10.404-24.075,12.059"/>
		<rect x="-17.708" y="17.789" clip-path="url(#SVGID_2_)" fill="#DD9964" width="2.558" height="2.558"/>
		<path clip-path="url(#SVGID_2_)" fill="#E4A97F" d="M-16.405,2.328c-3.863,0-6.995,3.132-6.995,6.997
			c0,3.863,3.134,9.857,6.995,9.744c7.328-0.215,6.996-5.881,6.996-9.744C-9.409,5.46-12.541,2.328-16.405,2.328"/>
		<path clip-path="url(#SVGID_2_)" fill="#DD9964" d="M-23.4,9.325c0,3.863-0.251,9.679,6.995,9.744V2.328
			C-20.268,2.328-23.4,5.461-23.4,9.325"/>
		<path clip-path="url(#SVGID_2_)" fill="#1A1719" d="M-16.431,2.263c0,0-0.621-0.007-1.484,0.168
			c-1.201,0.245-2.868,0.843-3.987,2.308c0,0,0.007,0.015,0.022,0.039c-2.297,2.568-1.562,5.856-1.562,5.856
			c1.313-0.716,0.977-1.787,1.856-3.207c1.954,2.173,6.619,1.721,12.745,2.762C-8.841,10.189-8.835,2.328-16.431,2.263"/>
		<path clip-path="url(#SVGID_2_)" fill="#010103" d="M-17.916,2.431L-17.916,2.431c-1.2,0.244-2.867,0.842-3.986,2.308
			c0,0,0.007,0.014,0.021,0.039c-3.091,2.604-1.561,5.856-1.561,5.856c1.312-0.716,1.411-0.728,2.29-2.148
			c0.873,0.971,1.818,0.869,4.837,0.75l-0.117-6.973C-16.432,2.263-17.053,2.256-17.916,2.431"/>
		<path clip-path="url(#SVGID_2_)" fill="#193B73" d="M-14.575,20.347h-3.522c-5.246,0.678-5.554,3.967-5.554,3.967h14.483
			C-9.167,21.057-14.575,20.347-14.575,20.347"/>
		<path clip-path="url(#SVGID_2_)" fill="#3060A3" d="M-14.589,20.347h-1.843v3.967h7.272C-9.16,21.057-14.589,20.347-14.589,20.347
			"/>
		<path clip-path="url(#SVGID_2_)" fill="#010103" d="M-25.254,15.681c-1.104,1.192-2.471,2.346-0.265,4.328
			s-0.459,2.926-1.178,3.292h3.523l1.854-4.796l-3.336-6.229C-24.656,12.276-24.151,14.49-25.254,15.681"/>
		<path clip-path="url(#SVGID_2_)" fill="#1A1719" d="M-7.333,19.999c2.206-1.981,0.838-3.137-0.266-4.328
			c-1.102-1.191-0.597-3.404-0.597-3.404l-3.335,6.228l1.853,4.796h3.523C-6.875,22.926-9.541,21.98-7.333,19.999"/>
		<path clip-path="url(#SVGID_2_)" fill="#010103" d="M-17.913,11.519h-3.754c-0.478,0-0.866,0.332-0.866,0.742
			c0,0,0.474,2.735,2.751,2.735c2.275,0,2.735-2.735,2.735-2.735C-17.046,11.851-17.434,11.519-17.913,11.519"/>
		<path clip-path="url(#SVGID_2_)" fill="#D7D3CC" d="M-18.378,11.909h-2.823c-0.36,0-0.651,0.25-0.651,0.558
			c0,0,0.357,2.056,2.069,2.056c1.711,0,2.055-2.056,2.055-2.056C-17.729,12.159-18.02,11.909-18.378,11.909"/>
		<path clip-path="url(#SVGID_2_)" fill="#1A1719" d="M-11.08,11.519h-3.754c-0.478,0-0.866,0.332-0.866,0.742
			c0,0,0.459,2.735,2.734,2.735c2.277,0,2.752-2.735,2.752-2.735C-10.213,11.851-10.601,11.519-11.08,11.519"/>
		<path clip-path="url(#SVGID_2_)" fill="#E8E6E4" d="M-11.545,11.909h-2.822c-0.361,0-0.652,0.25-0.652,0.558
			c0,0,0.345,2.056,2.057,2.056c1.711,0,2.068-2.056,2.068-2.056C-10.895,12.159-11.187,11.909-11.545,11.909"/>
		<path clip-path="url(#SVGID_2_)" fill="#010103" d="M-17.659,12.413c0,0.187,0.151,0.338,0.337,0.338h0.966v-0.676h-0.966
			C-17.508,12.075-17.659,12.226-17.659,12.413"/>
		<path clip-path="url(#SVGID_2_)" fill="#1A1719" d="M-15.439,12.075h-0.917v0.676h0.917c0.187,0,0.338-0.151,0.338-0.338
			C-15.101,12.227-15.252,12.075-15.439,12.075"/>
		<path clip-path="url(#SVGID_2_)" fill="#DD9964" d="M-16.603,20.212v2.454c0.168,0.144,0.168,0.191,0.168,0.191l0.166-0.166
			l-0.047-2.479H-16.603z"/>
		<path clip-path="url(#SVGID_2_)" fill="#E4A97F" d="M-16.432,20.214l0.004,2.643c0,0,3.286-0.629,3.285-2.194
			C-13.143,20.663-13.959,20.158-16.432,20.214"/>
		<path clip-path="url(#SVGID_2_)" fill="#DD9964" d="M-19.722,20.663c0,1.564,3.287,2.194,3.287,2.194l0.003-2.643
			C-18.905,20.158-19.722,20.663-19.722,20.663"/>
		<rect x="12.208" y="46.026" clip-path="url(#SVGID_2_)" fill="#DD9964" width="2.558" height="2.69"/>
		<path clip-path="url(#SVGID_2_)" fill="#DD9964" d="M15.198,48.584h-3.536c-5.267,0.678-5.577,3.966-5.577,3.966h14.542
			C20.532,49.622,15.198,48.584,15.198,48.584"/>
		<path clip-path="url(#SVGID_2_)" fill="#E4A97F" d="M15.328,48.584h-1.843v3.966h7.271C20.012,49.092,15.328,48.584,15.328,48.584
			"/>
		<path clip-path="url(#SVGID_2_)" fill="#DD9964" d="M20.443,38.426l-0.753,3.385c0,0,1.09,0.141,1.622-1.514
			C21.843,38.642,20.443,38.426,20.443,38.426"/>
		<path clip-path="url(#SVGID_2_)" fill="#DD9964" d="M5.841,40.297c0.532,1.656,1.621,1.515,1.621,1.515L6.71,38.426
			C6.71,38.426,5.311,38.642,5.841,40.297"/>
		<path clip-path="url(#SVGID_2_)" fill="#E4A97F" d="M13.537,30.5c-3.864,0-6.996,3.132-6.996,6.996
			c0,3.863,3.132,9.746,6.996,9.746c5.849,0,6.995-5.883,6.995-9.746C20.532,33.632,17.399,30.5,13.537,30.5"/>
		<path clip-path="url(#SVGID_2_)" fill="#DD9964" d="M6.516,37.562c0,3.864,1.259,9.745,6.996,9.745v-16.74
			C9.648,30.566,6.516,33.699,6.516,37.562"/>
		<path clip-path="url(#SVGID_2_)" fill="#010103" d="M11.454,30.816c-5.721,1.902-4.913,7.674-4.913,7.674l1.049-1.546
			c-0.76-1.588,0.627-3.22,2.038-3.75c1.412-0.529,3.909,1.699,3.909,1.699v-4.392C12.708,30.452,11.454,30.816,11.454,30.816"/>
		<path clip-path="url(#SVGID_2_)" fill="#1A1719" d="M15.62,30.816c0,0-1.255-0.364-2.083-0.315v4.392c0,0,2.496-2.228,3.908-1.699
			c1.412,0.53,2.798,2.162,2.039,3.75l1.048,1.546C20.532,38.49,21.339,32.718,15.62,30.816"/>
		<path clip-path="url(#SVGID_2_)" fill="#FE4C10" d="M10.851,48.716c-1.69,0.106-3.065,1.262-3.065,1.262l0.65,2.572h4.978v-1.683
			C11.241,50.874,10.851,48.716,10.851,48.716"/>
		<path clip-path="url(#SVGID_2_)" fill="#FC6739" d="M13.41,50.867v1.684h4.976l0.651-2.572c0,0-1.376-1.155-3.064-1.262
			C15.973,48.716,15.582,50.874,13.41,50.867"/>
		<path clip-path="url(#SVGID_2_)" fill="#CB7B46" d="M-16.367,113.039c-12.261,0.081-8.063,19.541-7.284,20.594h14.542
			C-9.109,133.632-4.106,112.958-16.367,113.039"/>
		<path clip-path="url(#SVGID_2_)" fill="#7D4113" d="M-23.651,133.765h7.25l0.034-20.727
			C-28.628,113.12-24.429,132.711-23.651,133.765"/>
		<rect x="-17.708" y="128.565" clip-path="url(#SVGID_2_)" fill="#DD9964" width="2.558" height="2.558"/>
		<path clip-path="url(#SVGID_2_)" fill="#E4A97F" d="M-16.405,113.104c-3.863,0-6.995,3.132-6.995,6.996s3.134,9.858,6.995,9.745
			c7.328-0.214,6.996-5.881,6.996-9.745S-12.541,113.104-16.405,113.104"/>
		<path clip-path="url(#SVGID_2_)" fill="#DD9964" d="M-23.4,120.1c0,3.863-0.251,9.68,6.995,9.744v-16.74
			C-20.268,113.104-23.4,116.237-23.4,120.1"/>
		<path clip-path="url(#SVGID_2_)" fill="#0D2E14" d="M-14.538,131.123h-3.536c-5.268,0.677-5.577,3.966-5.577,3.966h14.542
			C-9.108,131.833-14.538,131.123-14.538,131.123"/>
		<path clip-path="url(#SVGID_2_)" fill="#164C22" d="M-14.589,131.123h-1.843v3.966h7.272
			C-9.16,131.833-14.589,131.123-14.589,131.123"/>
		<path clip-path="url(#SVGID_2_)" fill="#7D4113" d="M-25.255,126.457c-1.103,1.191-2.471,2.346-0.264,4.328
			c2.206,1.981-0.459,2.927-1.178,3.293h3.523l1.854-4.797l-3.336-6.229C-24.656,123.051-24.151,125.265-25.255,126.457"/>
		<path clip-path="url(#SVGID_2_)" fill="#CB7B46" d="M-7.333,130.775c2.206-1.981,0.838-3.137-0.266-4.327
			c-1.102-1.192-0.597-3.406-0.597-3.406l-3.336,6.229l1.854,4.796h3.523C-6.875,133.702-9.541,132.756-7.333,130.775"/>
		<path clip-path="url(#SVGID_2_)" fill="#686562" d="M-16.428,133.633c0,0,3.286-0.63,3.286-2.195c0,0-0.453-0.149-3.263-0.936
			L-16.428,133.633z"/>
		<path clip-path="url(#SVGID_2_)" fill="#686562" d="M-16.417,133.633l0.013-3.131c-1.545,0.015-3.299,0.936-3.299,0.936
			C-19.705,133.003-16.417,133.633-16.417,133.633"/>
		<path clip-path="url(#SVGID_2_)" fill="#7D4113" d="M-23.028,116.524c-1.601,2.883-0.429,4.674-0.429,4.674
			c2.955-0.736,7.017-4.91,7.017-4.91l0.035-3.184C-17.762,112.971-21.426,113.64-23.028,116.524"/>
		<path clip-path="url(#SVGID_2_)" fill="#CB7B46" d="M-16.455,113.104l0.035,3.184c0,0,4.43,4.45,7.386,5.187
			c0,0,0.803-2.067-0.798-4.951C-11.433,113.64-15.098,112.972-16.455,113.104"/>
		<path clip-path="url(#SVGID_2_)" fill="#E8E7E0" d="M-16.405,130.502l0.593,1.305l1.389-0.651l-0.365-0.653
			C-14.788,130.502-15.639,130.356-16.405,130.502"/>
		<path clip-path="url(#SVGID_2_)" fill="#D7D3CC" d="M-18.072,130.502l-0.365,0.652l1.389,0.652l0.593-1.305
			C-17.219,130.356-18.072,130.502-18.072,130.502"/>
		<path clip-path="url(#SVGID_2_)" fill="#0D2E14" d="M-16.472,132.645c-0.147,0-0.267,0.12-0.267,0.267
			c0,0.147,0.12,0.267,0.267,0.267c0.146,0,0.266-0.119,0.266-0.267C-16.206,132.765-16.326,132.645-16.472,132.645"/>
		<path clip-path="url(#SVGID_2_)" fill="#010103" d="M9.286,21.017l0.529,0.971c0,0,1.306-0.529,3.765-0.551v-1.699
			C13.58,19.738,11.492,19.473,9.286,21.017"/>
		<path clip-path="url(#SVGID_2_)" fill="#010103" d="M13.622,19.738v1.699c2.458,0.022,3.764,0.551,3.764,0.551l0.529-0.971
			C15.708,19.473,13.622,19.738,13.622,19.738"/>
		<path clip-path="url(#SVGID_2_)" fill="#FBAD4B" d="M13.64,4.685l0.003,1.781l2.149-0.213C15.53,4.675,13.64,4.685,13.64,4.685"/>
		<path clip-path="url(#SVGID_2_)" fill="#3060A3" d="M11.964,6.143c0.231-0.054,1.747-0.229,1.747-0.229V5.208
			C12.242,5.208,11.964,6.143,11.964,6.143"/>
		<path clip-path="url(#SVGID_2_)" fill="#3060A3" d="M13.678,5.208v0.705c0,0,1.516,0.175,1.747,0.229
			C15.425,6.143,15.147,5.208,13.678,5.208"/>
		<rect x="12.295" y="18.897" clip-path="url(#SVGID_2_)" fill="#DD9964" width="2.558" height="2.558"/>
		<path clip-path="url(#SVGID_2_)" fill="#E4A97F" d="M13.677,3.437c-3.864,0-6.996,3.133-6.996,6.996s2.28,9.745,6.996,9.745
			c4.703,0,6.996-5.882,6.996-9.745S17.541,3.437,13.677,3.437"/>
		<path clip-path="url(#SVGID_2_)" fill="#DD9964" d="M6.55,10.433c0,3.863,2.313,9.745,6.996,9.745V3.437
			C9.682,3.437,6.55,6.57,6.55,10.433"/>
		<path clip-path="url(#SVGID_2_)" fill="#E4A97F" d="M15.351,21.437h-1.843v3.966h7.272C20.78,22.147,15.351,21.437,15.351,21.437"
			/>
		<path clip-path="url(#SVGID_2_)" fill="#DD9964" d="M6.307,25.403h7.272v-3.966h-1.843C11.736,21.437,6.307,22.148,6.307,25.403"
			/>
		<polygon clip-path="url(#SVGID_2_)" fill="#DCDCD4" points="8.104,25.403 13.598,25.403 13.598,23.42 9.833,23.42 		"/>
		<polygon clip-path="url(#SVGID_2_)" fill="#DCDCD4" points="9.454,22.034 9.833,23.42 9.942,23.42 9.564,21.986 		"/>
		<polygon clip-path="url(#SVGID_2_)" fill="#F3F2EE" points="13.598,23.42 13.598,25.403 19.092,25.403 17.363,23.42 		"/>
		<polygon clip-path="url(#SVGID_2_)" fill="#F3F2EE" points="17.253,23.42 17.362,23.42 17.742,22.034 17.631,21.985 		"/>
		<path clip-path="url(#SVGID_2_)" fill="#45220F" d="M6.549,11.318l1-0.765c0.808-5.555,5.997-5.162,5.997-5.162V3.384
			C5.257,3.971,6.549,11.318,6.549,11.318"/>
		<path clip-path="url(#SVGID_2_)" fill="#502E1A" d="M13.48,3.332v2.006c0,0,5.189-0.392,5.996,5.163l1.195,0.809
			C20.671,11.31,21.768,3.918,13.48,3.332"/>
		<path clip-path="url(#SVGID_2_)" fill="#010103" d="M8.756,21.812l-0.044,0.265l-2.074,1.72l-0.53,1.589h6.84l-0.882-2.736
			C12.066,22.649,9.947,23.796,8.756,21.812"/>
		<path clip-path="url(#SVGID_2_)" fill="#193B73" d="M10.775,21.767c-0.927-1.147,0.794-1.854,0.794-1.854
			c-1.279-0.088-2.383,0.751-2.383,0.751l-0.927,1.324l1.589,2.294l2.114-1.628C11.923,22.681,11.633,22.83,10.775,21.767"/>
		<path clip-path="url(#SVGID_2_)" fill="#193B73" d="M11.961,22.654c0.003-0.002,0.005-0.004,0.005-0.004L11.961,22.654z"/>
		<path clip-path="url(#SVGID_2_)" fill="#999694" d="M11.702,24.084c-0.22,0-0.397,0.177-0.397,0.397
			c0,0.219,0.177,0.397,0.397,0.397c0.219,0,0.397-0.178,0.397-0.397C12.099,24.261,11.92,24.084,11.702,24.084"/>
		<path clip-path="url(#SVGID_2_)" fill="#1A1719" d="M18.323,22.043l-0.044-0.265c-1.191,1.986-3.31,0.839-3.31,0.839l-0.882,2.736
			h6.84l-0.531-1.589L18.323,22.043z"/>
		<polyline clip-path="url(#SVGID_2_)" fill="#3060A3" points="15.007,22.621 15.002,22.617 15.007,22.621 		"/>
		<path clip-path="url(#SVGID_2_)" fill="#3060A3" d="M15.4,19.881c0,0,1.721,0.706,0.794,1.853
			c-0.859,1.063-1.149,0.915-1.187,0.887l2.114,1.629l1.588-2.295l-0.927-1.324C17.782,20.631,16.679,19.793,15.4,19.881"/>
		<path clip-path="url(#SVGID_2_)" fill="#A19F97" d="M13.478,2.262v2.339c0,0,5.78-0.573,7.148,4.59
			C20.626,9.191,20.671,2.748,13.478,2.262"/>
		<path clip-path="url(#SVGID_2_)" fill="#6D6966" d="M6.33,9.191c1.368-5.163,7.148-4.59,7.148-4.59V2.262
			C6.151,2.88,6.33,9.191,6.33,9.191"/>
		<path clip-path="url(#SVGID_2_)" fill="#D7D3CC" d="M4.741,10.868c0,0,0.353,1.942,2.294,2.647L6.55,11.319
			c0,0-1.396-6.55,7.09-6.634V3.101C13.64,3.101,3.152,3.807,4.741,10.868"/>
		<path clip-path="url(#SVGID_2_)" fill="#E8E6E4" d="M13.512,3.101v1.584c8.129,0.138,7.093,6.634,7.093,6.634l-0.488,2.197
			c1.943-0.706,2.295-2.648,2.295-2.648C24.001,3.808,13.512,3.101,13.512,3.101"/>
		<path clip-path="url(#SVGID_2_)" fill="#DD9964" d="M5.729,13.235c0.532,1.655,1.621,1.514,1.621,1.514l-0.752-3.386
			C6.598,11.363,5.198,11.579,5.729,13.235"/>
		<path clip-path="url(#SVGID_2_)" fill="#DD9964" d="M20.584,11.363l-0.752,3.386c0,0,1.089,0.14,1.621-1.514
			C21.984,11.578,20.584,11.363,20.584,11.363"/>
		<path clip-path="url(#SVGID_2_)" fill="#45220F" d="M8.58,5.175C8.095,6.366,6.33,6.014,6.33,6.014
			c1.94,3.265,7.183,1.544,7.183,1.544V4.685C11.649,2.518,9.064,3.984,8.58,5.175"/>
		<path clip-path="url(#SVGID_2_)" fill="#502E1A" d="M15.419,4.955c-0.573-0.309-1.907-0.27-1.907-0.27v2.874
			C14.827,7.292,15.993,5.264,15.419,4.955"/>
		<path clip-path="url(#SVGID_2_)" fill="#FCAF4C" d="M-24.434,63.466c0,0,1.248,6.902,2.159,8.884
			c0.909,1.98,1.188,2.233,0.452,2.612c0,0,1.948,0.453,2.627-0.489c0,0,2.208,1.404,2.764,1.285V59.326
			C-16.432,59.326-23.121,59.386-24.434,63.466"/>
		<path clip-path="url(#SVGID_2_)" fill="#FCAF4C" d="M-16.467,59.326v16.433c0.555,0.12,2.763-1.285,2.763-1.285
			c0.68,0.943,2.627,0.49,2.627,0.49c-0.736-0.379-0.457-0.632,0.453-2.613c0.909-1.98,2.159-8.884,2.159-8.884
			C-9.78,59.386-16.467,59.326-16.467,59.326"/>
		<path clip-path="url(#SVGID_2_)" fill="#DE9865" d="M-24.031,68.004c0.53,1.635,1.617,1.497,1.617,1.497l-0.75-3.347
			C-23.164,66.155-24.561,66.369-24.031,68.004"/>
		<path clip-path="url(#SVGID_2_)" fill="#E4AA7F" d="M-9.673,66.155l-0.75,3.347c0,0,1.086,0.138,1.617-1.497
			C-8.277,66.369-9.673,66.155-9.673,66.155"/>
		<path clip-path="url(#SVGID_2_)" fill="#DCDCD5" d="M-17.7,74.815c-0.35,0-0.634,0.282-0.634,0.629s0.284,0.627,0.634,0.627
			s0.634-0.28,0.634-0.627S-17.35,74.815-17.7,74.815"/>
		<path clip-path="url(#SVGID_2_)" fill="#F5F4F0" d="M-15.135,74.852c-0.351,0-0.634,0.281-0.634,0.628s0.283,0.628,0.634,0.628
			c0.35,0,0.634-0.281,0.634-0.628S-14.785,74.852-15.135,74.852"/>
		<rect x="-17.679" y="73.665" clip-path="url(#SVGID_2_)" fill="#E4AA7F" width="2.552" height="2.528"/>
		<path clip-path="url(#SVGID_2_)" fill="#E9BD9A" d="M-16.432,58.387c-3.854,0-6.979,3.096-6.979,6.913
			c0,3.818,2.138,9.676,6.979,9.631c4.673-0.042,6.979-5.813,6.979-9.631C-9.453,61.483-12.578,58.387-16.432,58.387"/>
		<path clip-path="url(#SVGID_2_)" fill="#E4AA7F" d="M-23.41,65.3c0,3.818,2.319,10.27,6.979,9.631V58.387
			C-20.286,58.387-23.41,61.483-23.41,65.3"/>
		<path clip-path="url(#SVGID_2_)" fill="#E9BD9A" d="M-14.63,76.175h-1.839v3.92h7.255C-9.214,76.876-14.63,76.175-14.63,76.175"/>
		<path clip-path="url(#SVGID_2_)" fill="#E4AA7F" d="M-23.652,80.094h7.253v-3.92h-1.837
			C-18.236,76.174-23.652,76.876-23.652,80.094"/>
		<path clip-path="url(#SVGID_2_)" fill="#680000" d="M-17.664,75.94l-0.853,0.248c-0.001,0.217-0.068,0.447-0.215,0.681
			c-0.733,1.162-1.571,2.261-2.541,3.226h4.874v-2.293c-0.009,0-0.017,0.001-0.027,0.001C-17.534,77.802-17.946,76.735-17.664,75.94
			"/>
		<path clip-path="url(#SVGID_2_)" fill="#FE9D2A" d="M-21.848,60.107c-4.674,0.919-2.37,6.493-1.547,6.596
			c0.822,0.104,1.598-0.845,2.786-3.111c1.189-2.268,3.607-0.654,3.607-0.654C-15.503,55.996-21.848,60.107-21.848,60.107"/>
		<path clip-path="url(#SVGID_2_)" fill="#FE9D2A" d="M-13.157,57.654c-3.874-1.178-7.043-0.742-7.659,1.067
			c-0.617,1.81,3.102,3.99,3.102,3.99l1.169,0.697l4.813-3.148C-11.732,60.26-9.284,58.831-13.157,57.654"/>
		<path clip-path="url(#SVGID_2_)" fill="#FCAF4C" d="M-11.005,60.107c0,0-5.635,0.258-4.846,2.83c0,0,2.417-1.613,3.607,0.654
			c1.188,2.267,1.964,3.215,2.786,3.111C-8.635,66.599-6.332,61.026-11.005,60.107"/>
		<path clip-path="url(#SVGID_2_)" fill="#FCAF4C" d="M-16.469,63.409c0,0-3.905-5.712,5.441-3.75c0,0,0.374-0.131-0.047-0.937
			C-11.497,57.915-23.51,56.978-16.469,63.409"/>
		<path clip-path="url(#SVGID_2_)" fill="#FCAF4C" d="M-16.469,63.409c-0.877-3.967,5.259-3.512,5.259-3.512
			C-18.538,59.22-16.469,63.409-16.469,63.409"/>
		<path clip-path="url(#SVGID_2_)" fill="#FE9D2A" d="M-9.214,64.183c-0.531-1.538-1.968-5.134-4.592-2.878v0.131
			c0,0,2.416-1.875,3.667,1.973c1.252,3.848,1.813,0.905,1.813,0.905S-8.684,65.72-9.214,64.183"/>
		<path clip-path="url(#SVGID_2_)" fill="#FCAF4C" d="M-23.548,64.38c-0.531,1.537-0.889,0.131-0.889,0.131s0.562,2.943,1.813-0.904
			c1.251-3.849,3.668-1.974,3.668-1.974v-0.131C-21.582,59.247-23.018,62.843-23.548,64.38"/>
		<path clip-path="url(#SVGID_2_)" fill="#B0000F" d="M-14.294,76.188l-0.853-0.249c0.283,0.796-0.129,1.863-1.237,1.863
			c-0.01,0-0.018,0-0.027,0v2.293h4.875c-0.972-0.966-1.809-2.064-2.542-3.227C-14.227,76.636-14.292,76.405-14.294,76.188"/>
		<path clip-path="url(#SVGID_2_)" fill="#DCDCD5" d="M-18.678,75.566c-0.35,0-0.633,0.281-0.633,0.627
			c0,0.347,0.283,0.628,0.633,0.628c0.351,0,0.635-0.281,0.635-0.628C-18.043,75.847-18.327,75.566-18.678,75.566"/>
		<path clip-path="url(#SVGID_2_)" fill="#DCDCD5" d="M-17.066,77.497c-0.351,0-0.634,0.281-0.634,0.628s0.283,0.628,0.634,0.628
			c0.35,0,0.634-0.281,0.634-0.628S-16.716,77.497-17.066,77.497"/>
		<path clip-path="url(#SVGID_2_)" fill="#DCDCD5" d="M-18.043,76.613c-0.351,0-0.634,0.281-0.634,0.627s0.283,0.628,0.634,0.628
			s0.634-0.282,0.634-0.628S-17.692,76.613-18.043,76.613"/>
		<path clip-path="url(#SVGID_2_)" fill="#F5F4F0" d="M-14.158,75.603c-0.351,0-0.634,0.281-0.634,0.628s0.283,0.627,0.634,0.627
			c0.35,0,0.634-0.28,0.634-0.627S-13.808,75.603-14.158,75.603"/>
		<path clip-path="url(#SVGID_2_)" fill="#F5F4F0" d="M-15.769,77.534c-0.351,0-0.634,0.281-0.634,0.629
			c0,0.346,0.283,0.627,0.634,0.627c0.35,0,0.634-0.281,0.634-0.627C-15.135,77.815-15.419,77.534-15.769,77.534"/>
		<path clip-path="url(#SVGID_2_)" fill="#F5F4F0" d="M-14.792,76.65c-0.35,0-0.634,0.28-0.634,0.628
			c0,0.346,0.284,0.627,0.634,0.627s0.634-0.281,0.634-0.627C-14.158,76.93-14.441,76.65-14.792,76.65"/>
		<path clip-path="url(#SVGID_2_)" fill="#010103" d="M-23.546,97.621c0,0-2.013-0.631-3.891,1.16c0,0,0.111,1.761,1.003,3.095
			l1.498-0.605l-1.118,1.114l0.352,0.304c0,0,2.88-0.981,2.9-3.459C-22.802,99.229-23.663,98.75-23.546,97.621"/>
		<path clip-path="url(#SVGID_2_)" fill="#680000" d="M-22.902,97.05c0,0-0.66,0.277-0.743,0.703
			c-0.085,0.426,0.045,1.946,0.98,2.012c0,0,0.295,0.114,0.521-0.346C-22.144,99.419-23.019,97.911-22.902,97.05"/>
		<path clip-path="url(#SVGID_2_)" fill="#1A1719" d="M-9.308,97.604c0.116,1.128-0.744,1.607-0.744,1.607
			c0.02,2.478,2.901,3.459,2.901,3.459l0.35-0.303l-1.116-1.115l1.498,0.606c0.892-1.334,1.003-3.095,1.003-3.095
			C-7.295,96.972-9.308,97.604-9.308,97.604"/>
		<path clip-path="url(#SVGID_2_)" fill="#B0000F" d="M-9.954,96.793c0.116,0.859-0.758,2.368-0.758,2.368
			c0.226,0.461,0.521,0.345,0.521,0.345c0.935-0.065,1.064-1.585,0.98-2.01C-9.293,97.069-9.954,96.793-9.954,96.793"/>
		<path clip-path="url(#SVGID_2_)" fill="#DE9865" d="M-24.042,96.722c0.525,1.631,1.6,1.492,1.6,1.492l-0.743-3.335
			C-23.185,94.879-24.565,95.092-24.042,96.722"/>
		<path clip-path="url(#SVGID_2_)" fill="#DE9865" d="M-9.841,94.879l-0.742,3.334c0,0,1.074,0.14,1.599-1.49
			S-9.841,94.879-9.841,94.879"/>
		<rect x="-17.76" y="102.365" clip-path="url(#SVGID_2_)" fill="#DE9865" width="2.525" height="2.52"/>
		<path clip-path="url(#SVGID_2_)" fill="#E4AA7F" d="M-16.527,87.14c-3.812,0-6.902,3.084-6.902,6.889s0.741,9.598,6.902,9.598
			c6.803,0,6.904-5.793,6.904-9.598S-12.714,87.14-16.527,87.14"/>
		<path clip-path="url(#SVGID_2_)" fill="#DE9865" d="M-23.427,94.03c0,3.804,0.739,9.597,6.902,9.597V87.14
			C-20.337,87.14-23.427,90.224-23.427,94.03"/>
		<path clip-path="url(#SVGID_2_)" fill="#E4AA7F" d="M-14.744,104.867h-1.818v3.905h7.173
			C-9.389,105.566-14.744,104.867-14.744,104.867"/>
		<path clip-path="url(#SVGID_2_)" fill="#DE9865" d="M-23.667,108.772h7.175v-3.906h-1.818
			C-18.311,104.866-23.667,105.566-23.667,108.772"/>
		<path clip-path="url(#SVGID_2_)" fill="#010103" d="M-23.667,89.823c-1.57,2.28,0.044,6.597,0.044,6.597
			c3.301-0.714,7.099-7.122,7.099-7.122V87.14C-20.488,87.013-23.667,89.823-23.667,89.823"/>
		<path clip-path="url(#SVGID_2_)" fill="#1A1719" d="M-16.562,87.14v2.157c0,0,3.869,6.443,7.171,7.156
			c0,0,1.574-4.351,0.003-6.631C-9.388,89.823-12.599,87.013-16.562,87.14"/>
		<path clip-path="url(#SVGID_2_)" fill="#680000" d="M-22.688,106.671v2.101h6.195v-4.509l-2.417,0.711
			C-18.91,104.974-21.561,105.571-22.688,106.671"/>
		<path clip-path="url(#SVGID_2_)" fill="#B0000F" d="M-16.499,104.263v4.509h6.197v-2.101c-1.128-1.101-3.778-1.698-3.778-1.698
			L-16.499,104.263z"/>
		<path clip-path="url(#SVGID_2_)" fill="#D7D3CC" d="M-18.91,104.974c0.2,1.141,1.971,1.696,1.971,1.696l0.414-2.407l-2.19-0.241
			L-18.91,104.974z"/>
		<path clip-path="url(#SVGID_2_)" fill="#F5E4D7" d="M-16.525,104.263l0.414,2.408c0,0,1.771-0.558,1.971-1.698l-0.196-0.952
			L-16.525,104.263z"/>
		<path clip-path="url(#SVGID_2_)" fill="#010103" d="M-22.893,89.336c0.01,0.021-0.013,0.035-0.013,0.035
			c2.824-1.776,6.344-1.011,6.344-1.011v-1.754C-17.083,85.397-23.414,88.125-22.893,89.336"/>
		<path clip-path="url(#SVGID_2_)" fill="#1A1719" d="M-16.571,86.476v1.755c0,0,3.52-0.766,6.343,1.01c0,0-0.003-0.013-0.013-0.035
			C-10.369,88.863-11.535,86.186-16.571,86.476"/>
	</g>
</g>
</svg>
