<?xml version="1.0" encoding="utf-8"?>
<!-- Generator: Adobe Illustrator 16.0.3, SVG Export Plug-In . SVG Version: 6.00 Build 0)  -->
<!DOCTYPE svg PUBLIC "-//W3C//DTD SVG 1.1//EN" "http://www.w3.org/Graphics/SVG/1.1/DTD/svg11.dtd">
<svg version="1.1" id="Capa_1" xmlns="http://www.w3.org/2000/svg" xmlns:xlink="http://www.w3.org/1999/xlink" x="0px" y="0px"
	 width="27.154px" height="27.153px" viewBox="0 0 27.154 27.153" enable-background="new 0 0 27.154 27.153" xml:space="preserve">
<g>
	<g>
		<defs>
			<rect id="SVGID_1_" x="-240.65" y="-373.345" width="792" height="612"/>
		</defs>
		<clipPath id="SVGID_2_">
			<use xlink:href="#SVGID_1_"  overflow="visible"/>
		</clipPath>
		<path clip-path="url(#SVGID_2_)" fill="#FFD900" d="M-2.849-98.208c0,7.499-6.079,13.577-13.577,13.577
			c-7.499,0-13.578-6.078-13.578-13.577s6.079-13.577,13.578-13.577C-8.928-111.785-2.849-105.707-2.849-98.208"/>
		<path clip-path="url(#SVGID_2_)" fill="#FFD900" d="M27.154-98.208c0,7.499-6.078,13.577-13.577,13.577
			C6.079-84.63,0-90.708,0-98.208s6.079-13.577,13.577-13.577C21.076-111.785,27.154-105.707,27.154-98.208"/>
		<path clip-path="url(#SVGID_2_)" fill="#BFE10E" d="M-2.849-70.261c0,7.499-6.079,13.577-13.577,13.577
			c-7.499,0-13.578-6.078-13.578-13.577c0-7.499,6.079-13.578,13.578-13.578C-8.928-83.839-2.849-77.76-2.849-70.261"/>
		<path clip-path="url(#SVGID_2_)" fill="#BFE10E" d="M27.154-70.261c0,7.499-6.078,13.577-13.577,13.577
			C6.079-56.685,0-62.763,0-70.261c0-7.499,6.079-13.578,13.577-13.578C21.076-83.839,27.154-77.76,27.154-70.261"/>
		<path clip-path="url(#SVGID_2_)" fill="#F0047F" d="M-2.849-42.315c0,7.499-6.079,13.577-13.577,13.577
			c-7.499,0-13.578-6.078-13.578-13.577s6.079-13.577,13.578-13.577C-8.928-55.893-2.849-49.814-2.849-42.315"/>
		<path clip-path="url(#SVGID_2_)" fill="#F0047F" d="M27.154-42.315c0,7.499-6.078,13.577-13.577,13.577
			C6.079-28.738,0-34.816,0-42.315s6.079-13.577,13.577-13.577C21.076-55.893,27.154-49.814,27.154-42.315"/>
		<path clip-path="url(#SVGID_2_)" fill="#0A51A1" d="M-2.849-14.37c0,7.499-6.079,13.578-13.577,13.578
			c-7.499,0-13.578-6.079-13.578-13.578c0-7.498,6.079-13.576,13.578-13.576C-8.928-27.946-2.849-21.868-2.849-14.37"/>
		<path clip-path="url(#SVGID_2_)" fill="#0A51A1" d="M27.154-14.37c0,7.499-6.078,13.578-13.577,13.578
			C6.079-0.792,0-6.871,0-14.37c0-7.498,6.079-13.576,13.577-13.576C21.076-27.946,27.154-21.868,27.154-14.37"/>
		<path clip-path="url(#SVGID_2_)" fill="#FF8C00" d="M-2.849,13.577c0,7.498-6.079,13.576-13.577,13.576
			c-7.499,0-13.578-6.078-13.578-13.576C-30.004,6.078-23.925,0-16.426,0C-8.928,0-2.849,6.078-2.849,13.577"/>
		<path clip-path="url(#SVGID_2_)" fill="#FF8C00" d="M27.154,13.577c0,7.498-6.078,13.576-13.577,13.576
			C6.079,27.153,0,21.075,0,13.577C0,6.078,6.079,0,13.577,0C21.076,0,27.154,6.078,27.154,13.577"/>
		<path clip-path="url(#SVGID_2_)" fill="#DE9865" d="M-23.963-72.094c0.526,1.637,1.605,1.498,1.605,1.498l-0.745-3.347
			C-23.104-73.943-24.49-73.729-23.963-72.094"/>
		<path clip-path="url(#SVGID_2_)" fill="#DE9865" d="M-9.713-73.943l-0.745,3.346c0,0,1.079,0.139,1.605-1.497
			C-8.326-73.73-9.713-73.943-9.713-73.943"/>
		<rect x="-17.659" y="-66.433" clip-path="url(#SVGID_2_)" fill="#DE9865" width="2.533" height="2.528"/>
		<polygon clip-path="url(#SVGID_2_)" fill="#010103" points="-23.531,-63.123 -10.362,-63.123 -8.923,-74.287 -24.098,-74.592 		
			"/>
		<rect x="-17.645" y="-66.395" clip-path="url(#SVGID_2_)" fill="#DE9865" width="2.441" height="2.573"/>
		<path clip-path="url(#SVGID_2_)" fill="#E4AA7F" d="M-16.421-81.71c-3.825,0-6.927,3.096-6.927,6.914
			c0,3.817,0.742,9.629,6.927,9.629c6.825,0,6.927-5.813,6.927-9.629C-9.495-78.614-12.596-81.71-16.421-81.71"/>
		<path clip-path="url(#SVGID_2_)" fill="#DE9865" d="M-23.348-74.796c0,3.817,0.742,9.629,6.927,9.629V-81.71
			C-20.245-81.71-23.348-78.614-23.348-74.796"/>
		<path clip-path="url(#SVGID_2_)" fill="#E4AA7F" d="M-14.634-63.922h-1.824v3.92h7.2C-9.258-63.221-14.634-63.922-14.634-63.922"
			/>
		<path clip-path="url(#SVGID_2_)" fill="#DE9865" d="M-23.587-60.003h7.199v-3.92h-1.824
			C-18.212-63.923-23.587-63.221-23.587-60.003"/>
		<path clip-path="url(#SVGID_2_)" fill="#D7D3CC" d="M-17.863-63.996c0,0-3.75,0.307-2.878,0.35
			c0.872,0.044,0.654,3.644,0.654,3.644h3.707v-2.029C-18.342-61.945-17.863-63.996-17.863-63.996"/>
		<path clip-path="url(#SVGID_2_)" fill="#E9E7E5" d="M-14.897-63.996c0,0,0.479,2.051-1.483,1.964v2.029h3.706
			c0,0-0.218-3.6,0.655-3.644C-11.147-63.689-14.897-63.996-14.897-63.996"/>
		<path clip-path="url(#SVGID_2_)" fill="#010103" d="M-24.883-73.24c0.523,2.66,1.221,3.226-0.437,4.884
			c-1.656,1.657-2.703,5.625,2.4,6.497c4.995,0.854,4.403-3.619,4.403-3.619s-0.479,0.654-1.962-0.741
			c-1.483-1.396-2.703-3.533-2.398-7.937c0.306-4.405,6.456-3.489,6.456-3.489v-4.066C-23.089-82.157-25.406-75.9-24.883-73.24"/>
		<path clip-path="url(#SVGID_2_)" fill="#1A1719" d="M-7.971-73.24c0.523-2.66-1.792-8.917-8.462-8.471v4.066
			c0,0,6.151-0.916,6.457,3.489c0.305,4.404-0.916,6.541-2.399,7.937c-1.483,1.396-1.962,0.741-1.962,0.741s-0.59,4.473,4.405,3.619
			c5.102-0.872,4.056-4.84,2.398-6.497C-9.191-70.014-8.493-70.58-7.971-73.24"/>
		<path clip-path="url(#SVGID_2_)" fill="#010103" d="M-23.348-73.184c0,0,5.268-0.493,6.969-0.406v-6.846
			C-16.379-80.436-23.905-80.06-23.348-73.184"/>
		<path clip-path="url(#SVGID_2_)" fill="#1A1719" d="M-16.444-80.436v6.847c1.701-0.087,6.969,0.405,6.969,0.405
			C-8.918-80.06-16.444-80.436-16.444-80.436"/>
		<rect x="-17.383" y="-71.366" clip-path="url(#SVGID_2_)" fill="#010103" width="1.004" height="0.61"/>
		<rect x="-16.401" y="-71.366" clip-path="url(#SVGID_2_)" fill="#1A1719" width="1.003" height="0.61"/>
		<path clip-path="url(#SVGID_2_)" fill="#010103" d="M-21.787-71.104c-0.176,0.611,0.218,2.792,2.181,3.054
			c2.366,0.315,2.659-3.228,2.659-3.228C-19.781-72.979-21.787-71.104-21.787-71.104"/>
		<path clip-path="url(#SVGID_2_)" fill="#1A1719" d="M-15.829-71.321c0,0,0.295,3.542,2.661,3.227
			c1.962-0.261,2.355-2.442,2.18-3.053C-10.988-71.147-12.994-73.022-15.829-71.321"/>
		<path clip-path="url(#SVGID_2_)" fill="#DE9865" d="M5.853,12.405c0.537,1.673,1.639,1.531,1.639,1.531l-0.761-3.422
			C6.731,10.515,5.316,10.733,5.853,12.405"/>
		<path clip-path="url(#SVGID_2_)" fill="#DE9865" d="M20.503,10.515l-0.76,3.422c0,0,1.101,0.142,1.639-1.531
			C21.919,10.733,20.503,10.515,20.503,10.515"/>
		<rect x="12.289" y="18.196" clip-path="url(#SVGID_2_)" fill="#DE9865" width="2.585" height="2.584"/>
		<path clip-path="url(#SVGID_2_)" fill="#E4AA7F" d="M13.551,2.57c-3.905,0-7.07,3.166-7.07,7.07c0,3.906,1.969,9.851,7.07,9.851
			c5.862,0,7.07-5.944,7.07-9.851C20.621,5.736,17.456,2.57,13.551,2.57"/>
		<path clip-path="url(#SVGID_2_)" fill="#DE9865" d="M6.482,9.641c0,3.905,1.598,9.851,7.07,9.851V2.571
			C9.648,2.571,6.482,5.736,6.482,9.641"/>
		<path clip-path="url(#SVGID_2_)" fill="#D7D3CC" d="M15.455,20.78h-3.56c-5.301,0.685-5.613,4.009-5.613,4.009h14.637
			C20.918,21.498,15.455,20.78,15.455,20.78"/>
		<path clip-path="url(#SVGID_2_)" fill="#F5E4D7" d="M15.573,20.78h-1.861v4.009h7.348C21.06,21.498,15.573,20.78,15.573,20.78"/>
		<path clip-path="url(#SVGID_2_)" fill="#010103" d="M12.082,11.858H8.287c-0.483,0-0.874,0.337-0.874,0.75
			c0,0,0.479,2.765,2.779,2.765c2.301,0,2.764-2.765,2.764-2.765C12.956,12.195,12.564,11.858,12.082,11.858"/>
		<path clip-path="url(#SVGID_2_)" fill="#1A1719" d="M18.986,11.858h-3.794c-0.483,0-0.875,0.337-0.875,0.75
			c0,0,0.464,2.765,2.764,2.765c2.301,0,2.78-2.765,2.78-2.765C19.861,12.195,19.47,11.858,18.986,11.858"/>
		<path clip-path="url(#SVGID_2_)" fill="#010103" d="M12.337,12.763c0,0.189,0.152,0.342,0.342,0.342h0.974v-0.684h-0.974
			C12.489,12.421,12.337,12.574,12.337,12.763"/>
		<path clip-path="url(#SVGID_2_)" fill="#1A1719" d="M14.581,12.421h-0.927v0.684h0.927c0.188,0,0.342-0.152,0.342-0.342
			C14.922,12.574,14.769,12.421,14.581,12.421"/>
		<path clip-path="url(#SVGID_2_)" fill="#DE9865" d="M13.405,20.645v2.48c0.169,0.146,0.169,0.192,0.169,0.192l0.168-0.168
			l-0.048-2.505H13.405z"/>
		<path clip-path="url(#SVGID_2_)" fill="#E4AA7F" d="M13.577,20.646l0.004,2.671c0,0,3.321-0.636,3.32-2.218
			C16.9,21.1,16.076,20.591,13.577,20.646"/>
		<path clip-path="url(#SVGID_2_)" fill="#DE9865" d="M10.253,21.1c-0.002,1.582,3.32,2.218,3.32,2.218l0.003-2.671
			C11.079,20.591,10.253,21.1,10.253,21.1"/>
		<path clip-path="url(#SVGID_2_)" fill="#010103" d="M12.956,1.854l-1.487-0.987l-0.917,1.705L8.681,1.148
			C8.396,1.589,7.974,3.62,7.974,3.62C7.409,3.337,5.996,3.125,5.996,3.125l0.286,3.143L5.291,5.955
			c0.07,1.487,1.243,4.559,1.243,4.559s1.094-2.021,0.879-3.293c-0.216-1.271,3.78-0.988,6.16-0.177l0.898-2.471l-0.89-3.707
			L12.956,1.854z"/>
		<path clip-path="url(#SVGID_2_)" fill="#1A1719" d="M21.157,3.125c0,0-1.411,0.212-1.977,0.494c0,0-0.423-2.029-0.706-2.472
			L16.603,2.57l-0.919-1.704l-1.486,0.988l-0.617-0.988v0.529v5.649c2.38-0.813,6.376-1.096,6.161,0.176
			c-0.215,1.271,0.878,3.294,0.878,3.294s1.173-3.072,1.243-4.561l-0.991,0.314L21.157,3.125z"/>
		<path clip-path="url(#SVGID_2_)" fill="#FBAD4B" d="M23.174-14.826c-1.923-1.406-1.968-3.749-1.968-3.749
			c0.377-4.59-7.701-2.668-7.701-2.668v11.662h9.764c1.781-1.265-0.986-2.201-0.095-2.201
			C24.066-11.782,25.097-13.422,23.174-14.826"/>
		<path clip-path="url(#SVGID_2_)" fill="#FD9B28" d="M5.948-18.575c0,0-0.046,2.343-1.969,3.749c-1.923,1.404-0.89,3.043,0,3.043
			c0.891,0-1.876,0.938-0.094,2.203h9.764v-11.663C13.649-21.243,5.57-23.165,5.948-18.575"/>
		<path clip-path="url(#SVGID_2_)" fill="#DD9964" d="M5.441-16.135c0.576,1.792,1.757,1.64,1.757,1.64l-0.816-3.666
			C6.382-18.161,4.864-17.928,5.441-16.135"/>
		<path clip-path="url(#SVGID_2_)" fill="#DD9964" d="M20.914-18.149l-0.801,3.596c0,0,1.159,0.149,1.725-1.608
			C22.402-17.921,20.914-18.149,20.914-18.149"/>
		<rect x="12.267" y="-10.078" clip-path="url(#SVGID_2_)" fill="#DD9964" width="2.722" height="2.718"/>
		<path clip-path="url(#SVGID_2_)" fill="#E4A97F" d="M13.597-26.498c-4.109,0-7.44,3.327-7.44,7.431s2.073,10.471,7.44,10.35
			c7.502-0.166,7.439-6.246,7.439-10.35S17.705-26.498,13.597-26.498"/>
		<path clip-path="url(#SVGID_2_)" fill="#DD9964" d="M6.158-19.067c0,4.104-0.21,9.867,7.44,10.35v-17.78
			C9.489-26.498,6.158-23.171,6.158-19.067"/>
		<path clip-path="url(#SVGID_2_)" fill="#DD9964" d="M6.146-3.203h7.464v-4.212h-1.691C11.919-7.415,6.146-6.661,6.146-3.203"/>
		<path clip-path="url(#SVGID_2_)" fill="#E4A97F" d="M15.266-7.415h-1.69v4.212h7.463C21.039-6.661,15.266-7.415,15.266-7.415"/>
		<path clip-path="url(#SVGID_2_)" fill="#680008" d="M10.748-7.457c-0.187,0.037-0.483,0.125-0.483,0.125
			C9.889-6.969,7.631-3.261,7.631-3.261h5.684v-1.064C9.785-4.438,10.748-7.457,10.748-7.457"/>
		<path clip-path="url(#SVGID_2_)" fill="#AF090F" d="M16.196-7.31c0,0,0.907,3.019-2.624,3.132v1.063h5.739
			c0,0-2.256-3.709-2.633-4.07C16.678-7.185,16.383-7.273,16.196-7.31"/>
		<path clip-path="url(#SVGID_2_)" fill="#FD9B28" d="M10.125-19.221c0,0,1.477,0.51,3.473,1.107l-0.035-2.108
			C12-20.126,10.655-19.841,10.125-19.221"/>
		<path clip-path="url(#SVGID_2_)" fill="#FBAD4B" d="M20.771-19.698c-0.371-0.186-4.195-0.707-7.207-0.523l0.034,2.108
			c2.359,0.706,5.444,1.533,7.682,1.787C21.28-16.326,21.333-19.418,20.771-19.698"/>
		<path clip-path="url(#SVGID_2_)" fill="#680008" d="M5.948-18.575c0,0,2.935-0.795,7.706-0.795v-7.496
			C13.654-26.866,4.539-27.287,5.948-18.575"/>
		<path clip-path="url(#SVGID_2_)" fill="#AF090F" d="M13.564-26.866v7.495c4.771,0,7.706,0.796,7.706,0.796
			C22.679-27.287,13.564-26.866,13.564-26.866"/>
		<path clip-path="url(#SVGID_2_)" fill="#680008" d="M5.659-19.792C5.65-19.78,5.307-19.723,5.31-19.168
			c0.005,0.957,1.304,0.441,1.304,0.441l1.656-1.861H5.8C5.227-20.307,5.8-20.003,5.659-19.792"/>
		<path clip-path="url(#SVGID_2_)" fill="#AF090F" d="M21.476-19.792c-0.141-0.211,0.431-0.515-0.141-0.796h-2.469l1.655,1.861
			c0,0,1.299,0.516,1.304-0.441C21.828-19.723,21.485-19.78,21.476-19.792"/>
		<path clip-path="url(#SVGID_2_)" fill="#010103" d="M5.948-3.147l7.673,0.033v-1.58c-3.316,0.026-6.184-0.935-6.184-0.935
			C6.02-4.723,5.948-3.147,5.948-3.147"/>
		<path clip-path="url(#SVGID_2_)" fill="#1A1719" d="M19.769-5.63c0,0-2.868,0.963-6.184,0.937v1.58l7.674-0.035
			C21.259-3.148,21.187-4.724,19.769-5.63"/>
		<rect x="12.078" y="-37.696" clip-path="url(#SVGID_2_)" fill="#DD9964" width="2.559" height="2.558"/>
		<path clip-path="url(#SVGID_2_)" fill="#E8E6E4" d="M15.067-35.139v-0.603h-3.536v0.603c-5.267,0.677-5.577,3.966-5.577,3.966
			h14.542C20.496-34.429,15.067-35.139,15.067-35.139"/>
		<path clip-path="url(#SVGID_2_)" fill="#F6F6F2" d="M15.197-35.139v-0.603h-1.843v4.568h7.272
			C20.626-34.429,15.197-35.139,15.197-35.139"/>
		<path clip-path="url(#SVGID_2_)" fill="#DD9964" d="M20.3-45.325l-0.753,3.386c0,0,1.09,0.142,1.621-1.515
			C21.7-45.109,20.3-45.325,20.3-45.325"/>
		<path clip-path="url(#SVGID_2_)" fill="#DD9964" d="M5.7-43.454c0.531,1.656,1.621,1.515,1.621,1.515l-0.753-3.386
			C6.568-45.325,5.167-45.109,5.7-43.454"/>
		<path clip-path="url(#SVGID_2_)" fill="#E4A97F" d="M13.519-53.249c-3.864-0.059-7.042,3.026-7.101,6.89
			c-0.057,3.864,2.987,9.865,6.85,9.85c5.22-0.022,7.192-5.603,7.25-9.466C20.576-49.84,17.382-53.191,13.519-53.249"/>
		<path clip-path="url(#SVGID_2_)" fill="#DD9964" d="M6.353-45.976c0,3.864,2.052,9.687,7.038,9.443v-16.741
			C9.528-53.273,6.353-49.84,6.353-45.976"/>
		<polygon clip-path="url(#SVGID_2_)" fill="#C7C4C6" points="11.531,-35.139 12.145,-34.16 13.221,-35.741 11.531,-35.741 		"/>
		<polygon clip-path="url(#SVGID_2_)" fill="#E8E6E4" points="14.606,-34.16 15.22,-35.139 15.22,-35.741 13.53,-35.741 		"/>
		<path clip-path="url(#SVGID_2_)" fill="#010103" d="M11.33-53.052c-6.73,1.494-4.933,8.246-4.933,8.246l1.043-1.788
			c-0.763-1.675,1.342-2.558,2.764-3.115c1.42-0.559,3.222,0.953,3.222,0.953v-4.628C12.594-53.437,11.33-53.052,11.33-53.052"/>
		<path clip-path="url(#SVGID_2_)" fill="#1A1719" d="M15.523-53.052c0,0-1.265-0.385-2.098-0.332v4.628
			c0,0,3.348,1.882,5.791,0.394c0.506-0.308,0.531,1.033,0.196,1.769l1.055,1.629C20.467-44.965,21.776-50.962,15.523-53.052"/>
		<path clip-path="url(#SVGID_2_)" fill="#010103" d="M11.897-41.271c-0.827,0.629-0.795,1.788-1.39,1.39
			c0,0,1.635,1.191,2.918-0.959C13.425-40.841,12.725-41.899,11.897-41.271"/>
		<path clip-path="url(#SVGID_2_)" fill="#1A1719" d="M14.956-41.271c-0.827-0.628-1.53,0.431-1.53,0.431
			c1.285,2.15,2.92,0.959,2.92,0.959C15.749-39.483,15.783-40.643,14.956-41.271"/>
		<path clip-path="url(#SVGID_2_)" fill="#1A1719" d="M21.56-51.848c-0.1,0.034-1.433,0.348-1.433,0.348
			c-1.864-1.464-4.866-1.638-4.875-1.627c-2.877,3.429,1.512,5.638,3.778,4.871C21.296-49.022,21.66-51.883,21.56-51.848"/>
		<path clip-path="url(#SVGID_2_)" fill="#010103" d="M11.571-35.197c-0.221,0.552,0.077,0.508,0.056,0.618
			c-0.023,0.11-0.109,0.388-0.1,0.452c0.023,0.154,0.154,0.375,0.64,0.231c0.642-0.189,1.114-0.353,1.114-0.353
			s-0.188-0.508-0.286-0.872C12.995-35.12,11.792-35.748,11.571-35.197"/>
		<path clip-path="url(#SVGID_2_)" fill="#1A1719" d="M15.141-35.197c-0.221-0.551-1.424,0.077-1.424,0.077
			c-0.098,0.364-0.287,0.872-0.287,0.872s0.473,0.163,1.115,0.353c0.486,0.144,0.617-0.077,0.64-0.231
			c0.009-0.064-0.077-0.342-0.1-0.452C15.064-34.689,15.362-34.646,15.141-35.197"/>
		<path clip-path="url(#SVGID_2_)" fill="#1A1719" d="M12.995-35.12c0,0-0.354,0.927,0.353,0.949l-0.003-0.938L12.995-35.12z"/>
		<path clip-path="url(#SVGID_2_)" fill="#010103" d="M13.349-35.109l-0.002,0.938c0.706-0.021,0.353-0.949,0.353-0.949
			L13.349-35.109z"/>
		<path clip-path="url(#SVGID_2_)" fill="#1A1719" d="M-16.367-109.522c-12.261,0.082-8.062,19.541-7.284,20.594h14.542
			C-9.109-88.928-4.106-109.604-16.367-109.522"/>
		<path clip-path="url(#SVGID_2_)" fill="#010103" d="M-23.651-88.795h7.25l0.034-20.727
			C-28.628-109.441-24.428-89.849-23.651-88.795"/>
		<path clip-path="url(#SVGID_2_)" fill="#DD9964" d="M-24.075-99.726c0.532,1.656,1.621,1.515,1.621,1.515l-0.753-3.386
			C-23.207-101.597-24.607-101.381-24.075-99.726"/>
		<rect x="-17.708" y="-93.996" clip-path="url(#SVGID_2_)" fill="#DD9964" width="2.558" height="2.558"/>
		<path clip-path="url(#SVGID_2_)" fill="#E4A97F" d="M-16.405-109.457c-3.863,0-6.995,3.132-6.995,6.997
			c0,3.863,3.134,9.857,6.995,9.744c7.328-0.215,6.996-5.881,6.996-9.744C-9.409-106.325-12.541-109.457-16.405-109.457"/>
		<path clip-path="url(#SVGID_2_)" fill="#DD9964" d="M-23.4-102.46c0,3.863-0.251,9.679,6.995,9.744v-16.741
			C-20.268-109.457-23.4-106.324-23.4-102.46"/>
		<path clip-path="url(#SVGID_2_)" fill="#1A1719" d="M-16.431-109.522c0,0-0.621-0.007-1.484,0.168
			c-1.201,0.245-2.868,0.843-3.987,2.308c0,0,0.007,0.015,0.022,0.039c-2.297,2.568-1.562,5.856-1.562,5.856
			c1.313-0.716,0.977-1.787,1.856-3.207c1.954,2.173,6.619,1.721,12.745,2.762C-8.841-101.596-8.835-109.457-16.431-109.522"/>
		<path clip-path="url(#SVGID_2_)" fill="#010103" d="M-17.916-109.354L-17.916-109.354c-1.2,0.244-2.867,0.842-3.986,2.308
			c0,0,0.007,0.014,0.021,0.039c-3.091,2.604-1.561,5.856-1.561,5.856c1.312-0.716,1.411-0.728,2.29-2.148
			c0.873,0.971,1.818,0.869,4.837,0.75l-0.117-6.973C-16.432-109.521-17.053-109.528-17.916-109.354"/>
		<path clip-path="url(#SVGID_2_)" fill="#193B73" d="M-14.575-91.438h-3.522c-5.246,0.678-5.554,3.967-5.554,3.967h14.483
			C-9.167-90.728-14.575-91.438-14.575-91.438"/>
		<path clip-path="url(#SVGID_2_)" fill="#3060A3" d="M-14.589-91.438h-1.843v3.967h7.272C-9.16-90.728-14.589-91.438-14.589-91.438
			"/>
		<path clip-path="url(#SVGID_2_)" fill="#010103" d="M-25.254-96.104c-1.104,1.192-2.471,2.346-0.265,4.328
			s-0.459,2.926-1.178,3.292h3.523l1.854-4.796l-3.336-6.229C-24.656-99.509-24.151-97.295-25.254-96.104"/>
		<path clip-path="url(#SVGID_2_)" fill="#1A1719" d="M-7.333-91.786c2.206-1.981,0.838-3.137-0.266-4.328
			c-1.102-1.191-0.597-3.404-0.597-3.404l-3.335,6.228l1.853,4.796h3.523C-6.875-88.858-9.541-89.805-7.333-91.786"/>
		<path clip-path="url(#SVGID_2_)" fill="#010103" d="M-17.913-100.266h-3.754c-0.478,0-0.866,0.332-0.866,0.742
			c0,0,0.474,2.735,2.751,2.735c2.275,0,2.735-2.735,2.735-2.735C-17.046-99.934-17.434-100.266-17.913-100.266"/>
		<path clip-path="url(#SVGID_2_)" fill="#D7D3CC" d="M-18.378-99.875h-2.823c-0.36,0-0.651,0.25-0.651,0.558
			c0,0,0.357,2.056,2.069,2.056c1.711,0,2.055-2.056,2.055-2.056C-17.729-99.625-18.02-99.875-18.378-99.875"/>
		<path clip-path="url(#SVGID_2_)" fill="#1A1719" d="M-11.08-100.266h-3.754c-0.478,0-0.866,0.332-0.866,0.742
			c0,0,0.459,2.735,2.734,2.735c2.277,0,2.752-2.735,2.752-2.735C-10.213-99.934-10.601-100.266-11.08-100.266"/>
		<path clip-path="url(#SVGID_2_)" fill="#E8E6E4" d="M-11.545-99.875h-2.822c-0.361,0-0.652,0.25-0.652,0.558
			c0,0,0.345,2.056,2.057,2.056c1.711,0,2.068-2.056,2.068-2.056C-10.895-99.625-11.187-99.875-11.545-99.875"/>
		<path clip-path="url(#SVGID_2_)" fill="#010103" d="M-17.659-99.372c0,0.187,0.151,0.338,0.337,0.338h0.966v-0.676h-0.966
			C-17.508-99.709-17.659-99.559-17.659-99.372"/>
		<path clip-path="url(#SVGID_2_)" fill="#1A1719" d="M-15.439-99.71h-0.917v0.676h0.917c0.187,0,0.338-0.151,0.338-0.338
			C-15.101-99.558-15.252-99.71-15.439-99.71"/>
		<path clip-path="url(#SVGID_2_)" fill="#DD9964" d="M-16.603-91.572v2.454c0.168,0.144,0.168,0.191,0.168,0.191l0.166-0.166
			l-0.047-2.479H-16.603z"/>
		<path clip-path="url(#SVGID_2_)" fill="#E4A97F" d="M-16.432-91.571l0.004,2.643c0,0,3.286-0.629,3.285-2.194
			C-13.143-91.122-13.959-91.627-16.432-91.571"/>
		<path clip-path="url(#SVGID_2_)" fill="#DD9964" d="M-19.722-91.122c0,1.564,3.287,2.194,3.287,2.194l0.003-2.643
			C-18.905-91.626-19.722-91.122-19.722-91.122"/>
		<rect x="12.208" y="-65.759" clip-path="url(#SVGID_2_)" fill="#DD9964" width="2.558" height="2.69"/>
		<path clip-path="url(#SVGID_2_)" fill="#DD9964" d="M15.198-63.2h-3.536c-5.267,0.678-5.577,3.966-5.577,3.966h14.542
			C20.532-62.163,15.198-63.2,15.198-63.2"/>
		<path clip-path="url(#SVGID_2_)" fill="#E4A97F" d="M15.328-63.2h-1.843v3.966h7.271C20.012-62.692,15.328-63.2,15.328-63.2"/>
		<path clip-path="url(#SVGID_2_)" fill="#DD9964" d="M20.443-73.358l-0.753,3.385c0,0,1.09,0.141,1.622-1.514
			C21.843-73.143,20.443-73.358,20.443-73.358"/>
		<path clip-path="url(#SVGID_2_)" fill="#DD9964" d="M5.841-71.488c0.532,1.656,1.621,1.515,1.621,1.515L6.71-73.359
			C6.71-73.359,5.311-73.143,5.841-71.488"/>
		<path clip-path="url(#SVGID_2_)" fill="#E4A97F" d="M13.537-81.284c-3.864,0-6.996,3.132-6.996,6.996
			c0,3.863,3.132,9.746,6.996,9.746c5.849,0,6.995-5.883,6.995-9.746C20.532-78.152,17.399-81.284,13.537-81.284"/>
		<path clip-path="url(#SVGID_2_)" fill="#DD9964" d="M6.516-74.223c0,3.864,1.259,9.745,6.996,9.745v-16.74
			C9.648-81.218,6.516-78.086,6.516-74.223"/>
		<path clip-path="url(#SVGID_2_)" fill="#010103" d="M11.454-80.969c-5.721,1.902-4.913,7.674-4.913,7.674l1.049-1.546
			c-0.76-1.588,0.627-3.22,2.038-3.75c1.412-0.529,3.909,1.699,3.909,1.699v-4.392C12.708-81.333,11.454-80.969,11.454-80.969"/>
		<path clip-path="url(#SVGID_2_)" fill="#1A1719" d="M15.62-80.969c0,0-1.255-0.364-2.083-0.315v4.392c0,0,2.496-2.228,3.908-1.699
			c1.412,0.53,2.798,2.162,2.039,3.75l1.048,1.546C20.532-73.295,21.339-79.067,15.62-80.969"/>
		<path clip-path="url(#SVGID_2_)" fill="#FE4C10" d="M10.851-63.068c-1.69,0.106-3.065,1.262-3.065,1.262l0.65,2.572h4.978v-1.683
			C11.241-60.911,10.851-63.068,10.851-63.068"/>
		<path clip-path="url(#SVGID_2_)" fill="#FC6739" d="M13.41-60.918v1.684h4.976l0.651-2.572c0,0-1.376-1.155-3.064-1.262
			C15.973-63.068,15.582-60.911,13.41-60.918"/>
		<path clip-path="url(#SVGID_2_)" fill="#CB7B46" d="M-16.367,1.254c-12.261,0.081-8.063,19.541-7.284,20.594h14.542
			C-9.109,21.848-4.106,1.173-16.367,1.254"/>
		<path clip-path="url(#SVGID_2_)" fill="#7D4113" d="M-23.651,21.98h7.25l0.034-20.727C-28.628,1.335-24.429,20.927-23.651,21.98"
			/>
		<rect x="-17.708" y="16.78" clip-path="url(#SVGID_2_)" fill="#DD9964" width="2.558" height="2.558"/>
		<path clip-path="url(#SVGID_2_)" fill="#E4A97F" d="M-16.405,1.319c-3.863,0-6.995,3.132-6.995,6.996s3.134,9.858,6.995,9.745
			c7.328-0.214,6.996-5.881,6.996-9.745S-12.541,1.319-16.405,1.319"/>
		<path clip-path="url(#SVGID_2_)" fill="#DD9964" d="M-23.4,8.315c0,3.863-0.251,9.68,6.995,9.744V1.319
			C-20.268,1.319-23.4,4.452-23.4,8.315"/>
		<path clip-path="url(#SVGID_2_)" fill="#0D2E14" d="M-14.538,19.338h-3.536c-5.268,0.677-5.577,3.966-5.577,3.966h14.542
			C-9.108,20.048-14.538,19.338-14.538,19.338"/>
		<path clip-path="url(#SVGID_2_)" fill="#164C22" d="M-14.589,19.338h-1.843v3.966h7.272C-9.16,20.048-14.589,19.338-14.589,19.338
			"/>
		<path clip-path="url(#SVGID_2_)" fill="#7D4113" d="M-25.255,14.672c-1.103,1.191-2.471,2.346-0.264,4.328
			c2.206,1.981-0.459,2.927-1.178,3.293h3.523l1.854-4.797l-3.336-6.229C-24.656,11.267-24.151,13.48-25.255,14.672"/>
		<path clip-path="url(#SVGID_2_)" fill="#CB7B46" d="M-7.333,18.99c2.206-1.981,0.838-3.137-0.266-4.327
			c-1.102-1.192-0.597-3.406-0.597-3.406l-3.336,6.229l1.854,4.796h3.523C-6.875,21.917-9.541,20.972-7.333,18.99"/>
		<path clip-path="url(#SVGID_2_)" fill="#686562" d="M-16.428,21.849c0,0,3.286-0.63,3.286-2.195c0,0-0.453-0.149-3.263-0.936
			L-16.428,21.849z"/>
		<path clip-path="url(#SVGID_2_)" fill="#686562" d="M-16.417,21.849l0.013-3.131c-1.545,0.015-3.299,0.936-3.299,0.936
			C-19.705,21.219-16.417,21.849-16.417,21.849"/>
		<path clip-path="url(#SVGID_2_)" fill="#7D4113" d="M-23.028,4.739c-1.601,2.883-0.429,4.674-0.429,4.674
			c2.955-0.736,7.017-4.91,7.017-4.91l0.035-3.184C-17.762,1.187-21.426,1.855-23.028,4.739"/>
		<path clip-path="url(#SVGID_2_)" fill="#CB7B46" d="M-16.455,1.319l0.035,3.184c0,0,4.43,4.45,7.386,5.187
			c0,0,0.803-2.067-0.798-4.951C-11.433,1.855-15.098,1.188-16.455,1.319"/>
		<path clip-path="url(#SVGID_2_)" fill="#E8E7E0" d="M-16.405,18.718l0.593,1.305l1.389-0.651l-0.365-0.653
			C-14.788,18.718-15.639,18.571-16.405,18.718"/>
		<path clip-path="url(#SVGID_2_)" fill="#D7D3CC" d="M-18.072,18.718l-0.365,0.652l1.389,0.652l0.593-1.305
			C-17.219,18.571-18.072,18.718-18.072,18.718"/>
		<path clip-path="url(#SVGID_2_)" fill="#0D2E14" d="M-16.472,20.86c-0.147,0-0.267,0.12-0.267,0.267
			c0,0.147,0.12,0.267,0.267,0.267c0.146,0,0.266-0.119,0.266-0.267C-16.206,20.98-16.326,20.86-16.472,20.86"/>
		<path clip-path="url(#SVGID_2_)" fill="#010103" d="M9.286-90.768l0.529,0.971c0,0,1.306-0.529,3.765-0.551v-1.699
			C13.58-92.047,11.492-92.312,9.286-90.768"/>
		<path clip-path="url(#SVGID_2_)" fill="#010103" d="M13.622-92.047v1.699c2.458,0.022,3.764,0.551,3.764,0.551l0.529-0.971
			C15.708-92.312,13.622-92.047,13.622-92.047"/>
		<path clip-path="url(#SVGID_2_)" fill="#FBAD4B" d="M13.64-107.1l0.003,1.781l2.149-0.213C15.53-107.109,13.64-107.1,13.64-107.1"
			/>
		<path clip-path="url(#SVGID_2_)" fill="#3060A3" d="M11.964-105.642c0.231-0.054,1.747-0.229,1.747-0.229v-0.705
			C12.242-106.576,11.964-105.642,11.964-105.642"/>
		<path clip-path="url(#SVGID_2_)" fill="#3060A3" d="M13.678-106.576v0.705c0,0,1.516,0.175,1.747,0.229
			C15.425-105.642,15.147-106.576,13.678-106.576"/>
		<rect x="12.295" y="-92.888" clip-path="url(#SVGID_2_)" fill="#DD9964" width="2.558" height="2.558"/>
		<path clip-path="url(#SVGID_2_)" fill="#E4A97F" d="M13.677-108.348c-3.864,0-6.996,3.133-6.996,6.996s2.28,9.745,6.996,9.745
			c4.703,0,6.996-5.882,6.996-9.745S17.541-108.348,13.677-108.348"/>
		<path clip-path="url(#SVGID_2_)" fill="#DD9964" d="M6.55-101.352c0,3.863,2.313,9.745,6.996,9.745v-16.741
			C9.682-108.348,6.55-105.215,6.55-101.352"/>
		<path clip-path="url(#SVGID_2_)" fill="#E4A97F" d="M15.351-90.348h-1.843v3.966h7.272C20.78-89.638,15.351-90.348,15.351-90.348"
			/>
		<path clip-path="url(#SVGID_2_)" fill="#DD9964" d="M6.307-86.382h7.272v-3.966h-1.843C11.736-90.348,6.307-89.637,6.307-86.382"
			/>
		<polygon clip-path="url(#SVGID_2_)" fill="#DCDCD4" points="8.104,-86.382 13.598,-86.382 13.598,-88.365 9.833,-88.365 		"/>
		<polygon clip-path="url(#SVGID_2_)" fill="#DCDCD4" points="9.454,-89.751 9.833,-88.365 9.942,-88.365 9.564,-89.799 		"/>
		<polygon clip-path="url(#SVGID_2_)" fill="#F3F2EE" points="13.598,-88.365 13.598,-86.382 19.092,-86.382 17.363,-88.365 		"/>
		<polygon clip-path="url(#SVGID_2_)" fill="#F3F2EE" points="17.253,-88.365 17.362,-88.365 17.742,-89.75 17.631,-89.8 		"/>
		<path clip-path="url(#SVGID_2_)" fill="#45220F" d="M6.549-100.466l1-0.765c0.808-5.555,5.997-5.162,5.997-5.162v-2.007
			C5.257-107.813,6.549-100.466,6.549-100.466"/>
		<path clip-path="url(#SVGID_2_)" fill="#502E1A" d="M13.48-108.453v2.006c0,0,5.189-0.392,5.996,5.163l1.195,0.809
			C20.671-100.475,21.768-107.866,13.48-108.453"/>
		<path clip-path="url(#SVGID_2_)" fill="#010103" d="M8.756-89.973l-0.044,0.265l-2.074,1.72l-0.53,1.589h6.84l-0.882-2.736
			C12.066-89.135,9.947-87.988,8.756-89.973"/>
		<path clip-path="url(#SVGID_2_)" fill="#193B73" d="M10.775-90.018c-0.927-1.147,0.794-1.854,0.794-1.854
			c-1.279-0.088-2.383,0.751-2.383,0.751l-0.927,1.324l1.589,2.294l2.114-1.628C11.923-89.104,11.633-88.955,10.775-90.018"/>
		<path clip-path="url(#SVGID_2_)" fill="#193B73" d="M11.961-89.131c0.003-0.002,0.005-0.004,0.005-0.004L11.961-89.131z"/>
		<path clip-path="url(#SVGID_2_)" fill="#999694" d="M11.702-87.701c-0.22,0-0.397,0.177-0.397,0.397
			c0,0.219,0.177,0.397,0.397,0.397c0.219,0,0.397-0.178,0.397-0.397C12.099-87.524,11.92-87.701,11.702-87.701"/>
		<path clip-path="url(#SVGID_2_)" fill="#1A1719" d="M18.323-89.742l-0.044-0.265c-1.191,1.986-3.31,0.839-3.31,0.839l-0.882,2.736
			h6.84l-0.531-1.589L18.323-89.742z"/>
		<polyline clip-path="url(#SVGID_2_)" fill="#3060A3" points="15.007,-89.164 15.002,-89.167 15.007,-89.164 		"/>
		<path clip-path="url(#SVGID_2_)" fill="#3060A3" d="M15.4-91.904c0,0,1.721,0.706,0.794,1.853
			c-0.859,1.063-1.149,0.915-1.187,0.887l2.114,1.629l1.588-2.295l-0.927-1.324C17.782-91.154,16.679-91.992,15.4-91.904"/>
		<path clip-path="url(#SVGID_2_)" fill="#A19F97" d="M13.478-109.522v2.339c0,0,5.78-0.573,7.148,4.59
			C20.626-102.593,20.671-109.037,13.478-109.522"/>
		<path clip-path="url(#SVGID_2_)" fill="#6D6966" d="M6.33-102.594c1.368-5.163,7.148-4.59,7.148-4.59v-2.339
			C6.151-108.905,6.33-102.594,6.33-102.594"/>
		<path clip-path="url(#SVGID_2_)" fill="#D7D3CC" d="M4.741-100.917c0,0,0.353,1.942,2.294,2.647l-0.485-2.196
			c0,0-1.396-6.55,7.09-6.634v-1.584C13.64-108.684,3.152-107.978,4.741-100.917"/>
		<path clip-path="url(#SVGID_2_)" fill="#E8E6E4" d="M13.512-108.684v1.584c8.129,0.138,7.093,6.634,7.093,6.634l-0.488,2.197
			c1.943-0.706,2.295-2.648,2.295-2.648C24.001-107.977,13.512-108.684,13.512-108.684"/>
		<path clip-path="url(#SVGID_2_)" fill="#DD9964" d="M5.729-98.55c0.532,1.655,1.621,1.514,1.621,1.514l-0.752-3.386
			C6.598-100.422,5.198-100.206,5.729-98.55"/>
		<path clip-path="url(#SVGID_2_)" fill="#DD9964" d="M20.584-100.421l-0.752,3.386c0,0,1.089,0.14,1.621-1.514
			C21.984-100.207,20.584-100.421,20.584-100.421"/>
		<path clip-path="url(#SVGID_2_)" fill="#45220F" d="M8.58-106.61c-0.485,1.191-2.25,0.839-2.25,0.839
			c1.94,3.265,7.183,1.544,7.183,1.544v-2.873C11.649-109.267,9.064-107.801,8.58-106.61"/>
		<path clip-path="url(#SVGID_2_)" fill="#502E1A" d="M15.419-106.83c-0.573-0.309-1.907-0.27-1.907-0.27v2.874
			C14.827-104.492,15.993-106.521,15.419-106.83"/>
		<path clip-path="url(#SVGID_2_)" fill="#FCAF4C" d="M-24.434-48.318c0,0,1.248,6.902,2.159,8.884
			c0.909,1.98,1.188,2.233,0.452,2.612c0,0,1.948,0.453,2.627-0.489c0,0,2.208,1.404,2.764,1.285v-16.433
			C-16.432-52.459-23.121-52.398-24.434-48.318"/>
		<path clip-path="url(#SVGID_2_)" fill="#FCAF4C" d="M-16.467-52.459v16.433c0.555,0.12,2.763-1.285,2.763-1.285
			c0.68,0.943,2.627,0.49,2.627,0.49c-0.736-0.379-0.457-0.632,0.453-2.613c0.909-1.98,2.159-8.884,2.159-8.884
			C-9.78-52.398-16.467-52.459-16.467-52.459"/>
		<path clip-path="url(#SVGID_2_)" fill="#DE9865" d="M-24.031-43.78c0.53,1.635,1.617,1.497,1.617,1.497l-0.75-3.347
			C-23.164-45.63-24.561-45.416-24.031-43.78"/>
		<path clip-path="url(#SVGID_2_)" fill="#E4AA7F" d="M-9.673-45.63l-0.75,3.347c0,0,1.086,0.138,1.617-1.497
			C-8.277-45.416-9.673-45.63-9.673-45.63"/>
		<path clip-path="url(#SVGID_2_)" fill="#DCDCD5" d="M-17.7-36.97c-0.35,0-0.634,0.282-0.634,0.629s0.284,0.627,0.634,0.627
			s0.634-0.28,0.634-0.627S-17.35-36.97-17.7-36.97"/>
		<path clip-path="url(#SVGID_2_)" fill="#F5F4F0" d="M-15.135-36.933c-0.351,0-0.634,0.281-0.634,0.628s0.283,0.628,0.634,0.628
			c0.35,0,0.634-0.281,0.634-0.628S-14.785-36.933-15.135-36.933"/>
		<rect x="-17.679" y="-38.12" clip-path="url(#SVGID_2_)" fill="#E4AA7F" width="2.552" height="2.528"/>
		<path clip-path="url(#SVGID_2_)" fill="#E9BD9A" d="M-16.432-53.397c-3.854,0-6.979,3.096-6.979,6.913
			c0,3.818,2.138,9.676,6.979,9.631c4.673-0.042,6.979-5.813,6.979-9.631C-9.453-50.302-12.578-53.397-16.432-53.397"/>
		<path clip-path="url(#SVGID_2_)" fill="#E4AA7F" d="M-23.41-46.484c0,3.818,2.319,10.27,6.979,9.631v-16.544
			C-20.286-53.397-23.41-50.302-23.41-46.484"/>
		<path clip-path="url(#SVGID_2_)" fill="#E9BD9A" d="M-14.63-35.609h-1.839v3.92h7.255C-9.214-34.908-14.63-35.609-14.63-35.609"/>
		<path clip-path="url(#SVGID_2_)" fill="#E4AA7F" d="M-23.652-31.69h7.253v-3.92h-1.837C-18.236-35.61-23.652-34.908-23.652-31.69"
			/>
		<path clip-path="url(#SVGID_2_)" fill="#680000" d="M-17.664-35.845l-0.853,0.248c-0.001,0.217-0.068,0.447-0.215,0.681
			c-0.733,1.162-1.571,2.261-2.541,3.226h4.874v-2.293c-0.009,0-0.017,0.001-0.027,0.001C-17.534-33.982-17.946-35.05-17.664-35.845
			"/>
		<path clip-path="url(#SVGID_2_)" fill="#FE9D2A" d="M-21.848-51.678c-4.674,0.919-2.37,6.493-1.547,6.596
			c0.822,0.104,1.598-0.845,2.786-3.111c1.189-2.268,3.607-0.654,3.607-0.654C-15.503-55.789-21.848-51.678-21.848-51.678"/>
		<path clip-path="url(#SVGID_2_)" fill="#FE9D2A" d="M-13.157-54.131c-3.874-1.178-7.043-0.742-7.659,1.067
			c-0.617,1.81,3.102,3.99,3.102,3.99l1.169,0.697l4.813-3.148C-11.732-51.524-9.284-52.954-13.157-54.131"/>
		<path clip-path="url(#SVGID_2_)" fill="#FCAF4C" d="M-11.005-51.678c0,0-5.635,0.258-4.846,2.83c0,0,2.417-1.613,3.607,0.654
			c1.188,2.267,1.964,3.215,2.786,3.111C-8.635-45.186-6.332-50.759-11.005-51.678"/>
		<path clip-path="url(#SVGID_2_)" fill="#FCAF4C" d="M-16.469-48.376c0,0-3.905-5.712,5.441-3.75c0,0,0.374-0.131-0.047-0.937
			C-11.497-53.87-23.51-54.807-16.469-48.376"/>
		<path clip-path="url(#SVGID_2_)" fill="#FCAF4C" d="M-16.469-48.376c-0.877-3.967,5.259-3.512,5.259-3.512
			C-18.538-52.564-16.469-48.376-16.469-48.376"/>
		<path clip-path="url(#SVGID_2_)" fill="#FE9D2A" d="M-9.214-47.602c-0.531-1.538-1.968-5.134-4.592-2.878v0.131
			c0,0,2.416-1.875,3.667,1.973c1.252,3.848,1.813,0.905,1.813,0.905S-8.684-46.064-9.214-47.602"/>
		<path clip-path="url(#SVGID_2_)" fill="#FCAF4C" d="M-23.548-47.404c-0.531,1.537-0.889,0.131-0.889,0.131
			s0.562,2.943,1.813-0.904c1.251-3.849,3.668-1.974,3.668-1.974v-0.131C-21.582-52.538-23.018-48.941-23.548-47.404"/>
		<path clip-path="url(#SVGID_2_)" fill="#B0000F" d="M-14.294-35.597l-0.853-0.249c0.283,0.796-0.129,1.863-1.237,1.863
			c-0.01,0-0.018,0-0.027,0v2.293h4.875c-0.972-0.966-1.809-2.064-2.542-3.227C-14.227-35.148-14.292-35.38-14.294-35.597"/>
		<path clip-path="url(#SVGID_2_)" fill="#DCDCD5" d="M-18.678-36.219c-0.35,0-0.633,0.281-0.633,0.627
			c0,0.347,0.283,0.628,0.633,0.628c0.351,0,0.635-0.281,0.635-0.628C-18.043-35.938-18.327-36.219-18.678-36.219"/>
		<path clip-path="url(#SVGID_2_)" fill="#DCDCD5" d="M-17.066-34.288c-0.351,0-0.634,0.281-0.634,0.628s0.283,0.628,0.634,0.628
			c0.35,0,0.634-0.281,0.634-0.628S-16.716-34.288-17.066-34.288"/>
		<path clip-path="url(#SVGID_2_)" fill="#DCDCD5" d="M-18.043-35.172c-0.351,0-0.634,0.281-0.634,0.627s0.283,0.628,0.634,0.628
			s0.634-0.282,0.634-0.628S-17.692-35.172-18.043-35.172"/>
		<path clip-path="url(#SVGID_2_)" fill="#F5F4F0" d="M-14.158-36.182c-0.351,0-0.634,0.281-0.634,0.628s0.283,0.627,0.634,0.627
			c0.35,0,0.634-0.28,0.634-0.627S-13.808-36.182-14.158-36.182"/>
		<path clip-path="url(#SVGID_2_)" fill="#F5F4F0" d="M-15.769-34.251c-0.351,0-0.634,0.281-0.634,0.629
			c0,0.346,0.283,0.627,0.634,0.627c0.35,0,0.634-0.281,0.634-0.627C-15.135-33.97-15.419-34.251-15.769-34.251"/>
		<path clip-path="url(#SVGID_2_)" fill="#F5F4F0" d="M-14.792-35.135c-0.35,0-0.634,0.28-0.634,0.628
			c0,0.346,0.284,0.627,0.634,0.627s0.634-0.281,0.634-0.627C-14.158-34.854-14.441-35.135-14.792-35.135"/>
		<path clip-path="url(#SVGID_2_)" fill="#010103" d="M-23.546-14.164c0,0-2.013-0.631-3.891,1.16c0,0,0.111,1.761,1.003,3.095
			l1.498-0.605L-26.054-9.4l0.352,0.304c0,0,2.88-0.981,2.9-3.459C-22.802-12.556-23.663-13.035-23.546-14.164"/>
		<path clip-path="url(#SVGID_2_)" fill="#680000" d="M-22.902-14.734c0,0-0.66,0.277-0.743,0.703
			c-0.085,0.426,0.045,1.946,0.98,2.012c0,0,0.295,0.114,0.521-0.346C-22.144-12.365-23.019-13.874-22.902-14.734"/>
		<path clip-path="url(#SVGID_2_)" fill="#1A1719" d="M-9.308-14.181c0.116,1.128-0.744,1.607-0.744,1.607
			c0.02,2.478,2.901,3.459,2.901,3.459l0.35-0.303l-1.116-1.115l1.498,0.606c0.892-1.334,1.003-3.095,1.003-3.095
			C-7.295-14.813-9.308-14.181-9.308-14.181"/>
		<path clip-path="url(#SVGID_2_)" fill="#B0000F" d="M-9.954-14.991c0.116,0.859-0.758,2.368-0.758,2.368
			c0.226,0.461,0.521,0.345,0.521,0.345c0.935-0.065,1.064-1.585,0.98-2.01C-9.293-14.716-9.954-14.991-9.954-14.991"/>
		<path clip-path="url(#SVGID_2_)" fill="#DE9865" d="M-24.042-15.063c0.525,1.631,1.6,1.492,1.6,1.492l-0.743-3.335
			C-23.185-16.905-24.565-16.692-24.042-15.063"/>
		<path clip-path="url(#SVGID_2_)" fill="#DE9865" d="M-9.841-16.905l-0.742,3.334c0,0,1.074,0.14,1.599-1.49
			S-9.841-16.905-9.841-16.905"/>
		<rect x="-17.76" y="-9.42" clip-path="url(#SVGID_2_)" fill="#DE9865" width="2.525" height="2.52"/>
		<path clip-path="url(#SVGID_2_)" fill="#E4AA7F" d="M-16.527-24.645c-3.812,0-6.902,3.084-6.902,6.889s0.741,9.598,6.902,9.598
			c6.803,0,6.904-5.793,6.904-9.598S-12.714-24.645-16.527-24.645"/>
		<path clip-path="url(#SVGID_2_)" fill="#DE9865" d="M-23.427-17.755c0,3.804,0.739,9.597,6.902,9.597v-16.486
			C-20.337-24.645-23.427-21.561-23.427-17.755"/>
		<path clip-path="url(#SVGID_2_)" fill="#E4AA7F" d="M-14.744-6.918h-1.818v3.905h7.173C-9.389-6.219-14.744-6.918-14.744-6.918"/>
		<path clip-path="url(#SVGID_2_)" fill="#DE9865" d="M-23.667-3.013h7.175v-3.906h-1.818C-18.311-6.919-23.667-6.219-23.667-3.013"
			/>
		<path clip-path="url(#SVGID_2_)" fill="#010103" d="M-23.667-21.962c-1.57,2.28,0.044,6.597,0.044,6.597
			c3.301-0.714,7.099-7.122,7.099-7.122v-2.157C-20.488-24.771-23.667-21.962-23.667-21.962"/>
		<path clip-path="url(#SVGID_2_)" fill="#1A1719" d="M-16.562-24.645v2.157c0,0,3.869,6.443,7.171,7.156
			c0,0,1.574-4.351,0.003-6.631C-9.388-21.962-12.599-24.771-16.562-24.645"/>
		<path clip-path="url(#SVGID_2_)" fill="#680000" d="M-22.688-5.113v2.101h6.195v-4.509l-2.417,0.711
			C-18.91-6.811-21.561-6.214-22.688-5.113"/>
		<path clip-path="url(#SVGID_2_)" fill="#B0000F" d="M-16.499-7.521v4.509h6.197v-2.101c-1.128-1.101-3.778-1.698-3.778-1.698
			L-16.499-7.521z"/>
		<path clip-path="url(#SVGID_2_)" fill="#D7D3CC" d="M-18.91-6.811c0.2,1.141,1.971,1.696,1.971,1.696l0.414-2.407l-2.19-0.241
			L-18.91-6.811z"/>
		<path clip-path="url(#SVGID_2_)" fill="#F5E4D7" d="M-16.525-7.521l0.414,2.408c0,0,1.771-0.558,1.971-1.698l-0.196-0.952
			L-16.525-7.521z"/>
		<path clip-path="url(#SVGID_2_)" fill="#010103" d="M-22.893-22.448c0.01,0.021-0.013,0.035-0.013,0.035
			c2.824-1.776,6.344-1.011,6.344-1.011v-1.754C-17.083-26.388-23.414-23.659-22.893-22.448"/>
		<path clip-path="url(#SVGID_2_)" fill="#1A1719" d="M-16.571-25.309v1.755c0,0,3.52-0.766,6.343,1.01c0,0-0.003-0.013-0.013-0.035
			C-10.369-22.922-11.535-25.599-16.571-25.309"/>
	</g>
</g>
</svg>
