<?xml version="1.0" encoding="utf-8"?>
<!-- Generator: Adobe Illustrator 16.0.3, SVG Export Plug-In . SVG Version: 6.00 Build 0)  -->
<!DOCTYPE svg PUBLIC "-//W3C//DTD SVG 1.1//EN" "http://www.w3.org/Graphics/SVG/1.1/DTD/svg11.dtd">
<svg version="1.1" id="Capa_1" xmlns="http://www.w3.org/2000/svg" xmlns:xlink="http://www.w3.org/1999/xlink" x="0px" y="0px"
	 width="27.154px" height="27.155px" viewBox="0 0 27.154 27.155" enable-background="new 0 0 27.154 27.155" xml:space="preserve">
<g>
	<g>
		<defs>
			<rect id="SVGID_1_" x="-240.65" y="-289.505" width="792" height="612"/>
		</defs>
		<clipPath id="SVGID_2_">
			<use xlink:href="#SVGID_1_"  overflow="visible"/>
		</clipPath>
		<path clip-path="url(#SVGID_2_)" fill="#FFD900" d="M-2.849-14.368c0,7.499-6.079,13.577-13.577,13.577
			c-7.499,0-13.578-6.078-13.578-13.577s6.079-13.577,13.578-13.577C-8.928-27.945-2.849-21.867-2.849-14.368"/>
		<path clip-path="url(#SVGID_2_)" fill="#FFD900" d="M27.154-14.368c0,7.499-6.078,13.577-13.577,13.577
			C6.079-0.791,0-6.869,0-14.368s6.079-13.577,13.577-13.577C21.076-27.945,27.154-21.867,27.154-14.368"/>
		<path clip-path="url(#SVGID_2_)" fill="#BFE10E" d="M-2.849,13.578c0,7.499-6.079,13.577-13.577,13.577
			c-7.499,0-13.578-6.078-13.578-13.577C-30.004,6.079-23.925,0-16.426,0C-8.928,0-2.849,6.079-2.849,13.578"/>
		<path clip-path="url(#SVGID_2_)" fill="#BFE10E" d="M27.154,13.578c0,7.499-6.078,13.577-13.577,13.577
			C6.079,27.155,0,21.077,0,13.578C0,6.079,6.079,0,13.577,0C21.076,0,27.154,6.079,27.154,13.578"/>
		<path clip-path="url(#SVGID_2_)" fill="#F0047F" d="M-2.849,41.524c0,7.499-6.079,13.577-13.577,13.577
			c-7.499,0-13.578-6.078-13.578-13.577s6.079-13.577,13.578-13.577C-8.928,27.947-2.849,34.025-2.849,41.524"/>
		<path clip-path="url(#SVGID_2_)" fill="#F0047F" d="M27.154,41.524c0,7.499-6.078,13.577-13.577,13.577
			C6.079,55.101,0,49.023,0,41.524s6.079-13.577,13.577-13.577C21.076,27.947,27.154,34.025,27.154,41.524"/>
		<path clip-path="url(#SVGID_2_)" fill="#0A51A1" d="M-2.849,69.469c0,7.499-6.079,13.578-13.577,13.578
			c-7.499,0-13.578-6.079-13.578-13.578c0-7.498,6.079-13.576,13.578-13.576C-8.928,55.893-2.849,61.971-2.849,69.469"/>
		<path clip-path="url(#SVGID_2_)" fill="#0A51A1" d="M27.154,69.469c0,7.499-6.078,13.578-13.577,13.578
			C6.079,83.047,0,76.968,0,69.469c0-7.498,6.079-13.576,13.577-13.576C21.076,55.893,27.154,61.971,27.154,69.469"/>
		<path clip-path="url(#SVGID_2_)" fill="#FF8C00" d="M-2.849,97.417c0,7.498-6.079,13.576-13.577,13.576
			c-7.499,0-13.578-6.078-13.578-13.576c0-7.499,6.079-13.577,13.578-13.577C-8.928,83.839-2.849,89.917-2.849,97.417"/>
		<path clip-path="url(#SVGID_2_)" fill="#FF8C00" d="M27.154,97.417c0,7.498-6.078,13.576-13.577,13.576
			C6.079,110.993,0,104.915,0,97.417c0-7.499,6.079-13.577,13.577-13.577C21.076,83.839,27.154,89.917,27.154,97.417"/>
		<path clip-path="url(#SVGID_2_)" fill="#DE9865" d="M-23.963,11.745c0.526,1.637,1.605,1.498,1.605,1.498l-0.745-3.347
			C-23.104,9.896-24.49,10.11-23.963,11.745"/>
		<path clip-path="url(#SVGID_2_)" fill="#DE9865" d="M-9.713,9.896l-0.745,3.346c0,0,1.079,0.139,1.605-1.497
			C-8.326,10.109-9.713,9.896-9.713,9.896"/>
		<rect x="-17.659" y="17.407" clip-path="url(#SVGID_2_)" fill="#DE9865" width="2.533" height="2.528"/>
		<polygon clip-path="url(#SVGID_2_)" fill="#010103" points="-23.531,20.716 -10.362,20.716 -8.923,9.552 -24.098,9.248 		"/>
		<rect x="-17.645" y="17.445" clip-path="url(#SVGID_2_)" fill="#DE9865" width="2.441" height="2.573"/>
		<path clip-path="url(#SVGID_2_)" fill="#E4AA7F" d="M-16.421,2.129c-3.825,0-6.927,3.096-6.927,6.914
			c0,3.817,0.742,9.629,6.927,9.629c6.825,0,6.927-5.813,6.927-9.629C-9.495,5.225-12.596,2.129-16.421,2.129"/>
		<path clip-path="url(#SVGID_2_)" fill="#DE9865" d="M-23.348,9.043c0,3.817,0.742,9.629,6.927,9.629V2.129
			C-20.245,2.129-23.348,5.225-23.348,9.043"/>
		<path clip-path="url(#SVGID_2_)" fill="#E4AA7F" d="M-14.634,19.917h-1.824v3.92h7.2C-9.258,20.619-14.634,19.917-14.634,19.917"
			/>
		<path clip-path="url(#SVGID_2_)" fill="#DE9865" d="M-23.587,23.836h7.199v-3.92h-1.824
			C-18.212,19.917-23.587,20.619-23.587,23.836"/>
		<path clip-path="url(#SVGID_2_)" fill="#D7D3CC" d="M-17.863,19.843c0,0-3.75,0.307-2.878,0.35
			c0.872,0.044,0.654,3.644,0.654,3.644h3.707v-2.029C-18.342,21.894-17.863,19.843-17.863,19.843"/>
		<path clip-path="url(#SVGID_2_)" fill="#E9E7E5" d="M-14.897,19.843c0,0,0.479,2.051-1.483,1.964v2.029h3.706
			c0,0-0.218-3.6,0.655-3.644C-11.147,20.15-14.897,19.843-14.897,19.843"/>
		<path clip-path="url(#SVGID_2_)" fill="#010103" d="M-24.883,10.6c0.523,2.66,1.221,3.226-0.437,4.884
			c-1.656,1.657-2.703,5.625,2.4,6.497c4.995,0.854,4.403-3.619,4.403-3.619s-0.479,0.654-1.962-0.741
			c-1.483-1.396-2.703-3.533-2.398-7.937c0.306-4.405,6.456-3.489,6.456-3.489V2.128C-23.089,1.683-25.406,7.939-24.883,10.6"/>
		<path clip-path="url(#SVGID_2_)" fill="#1A1719" d="M-7.971,10.6c0.523-2.66-1.792-8.917-8.462-8.471v4.066
			c0,0,6.151-0.916,6.457,3.489c0.305,4.404-0.916,6.541-2.399,7.937c-1.483,1.396-1.962,0.741-1.962,0.741s-0.59,4.473,4.405,3.619
			c5.102-0.872,4.056-4.84,2.398-6.497C-9.191,13.826-8.493,13.26-7.971,10.6"/>
		<path clip-path="url(#SVGID_2_)" fill="#010103" d="M-23.348,10.656c0,0,5.268-0.493,6.969-0.406V3.404
			C-16.379,3.404-23.905,3.78-23.348,10.656"/>
		<path clip-path="url(#SVGID_2_)" fill="#1A1719" d="M-16.444,3.403v6.847c1.701-0.087,6.969,0.405,6.969,0.405
			C-8.918,3.779-16.444,3.403-16.444,3.403"/>
		<rect x="-17.383" y="12.474" clip-path="url(#SVGID_2_)" fill="#010103" width="1.004" height="0.61"/>
		<rect x="-16.401" y="12.474" clip-path="url(#SVGID_2_)" fill="#1A1719" width="1.003" height="0.61"/>
		<path clip-path="url(#SVGID_2_)" fill="#010103" d="M-21.787,12.735c-0.176,0.611,0.218,2.792,2.181,3.054
			c2.366,0.315,2.659-3.228,2.659-3.228C-19.781,10.86-21.787,12.735-21.787,12.735"/>
		<path clip-path="url(#SVGID_2_)" fill="#1A1719" d="M-15.829,12.518c0,0,0.295,3.542,2.661,3.227
			c1.962-0.261,2.355-2.442,2.18-3.053C-10.988,12.692-12.994,10.817-15.829,12.518"/>
		<path clip-path="url(#SVGID_2_)" fill="#DE9865" d="M5.853,96.245c0.537,1.673,1.639,1.531,1.639,1.531l-0.761-3.422
			C6.731,94.354,5.316,94.573,5.853,96.245"/>
		<path clip-path="url(#SVGID_2_)" fill="#DE9865" d="M20.503,94.354l-0.76,3.422c0,0,1.101,0.142,1.639-1.531
			C21.919,94.573,20.503,94.354,20.503,94.354"/>
		<rect x="12.289" y="102.036" clip-path="url(#SVGID_2_)" fill="#DE9865" width="2.585" height="2.584"/>
		<path clip-path="url(#SVGID_2_)" fill="#E4AA7F" d="M13.551,86.41c-3.905,0-7.07,3.166-7.07,7.07c0,3.906,1.969,9.851,7.07,9.851
			c5.862,0,7.07-5.944,7.07-9.851C20.621,89.576,17.456,86.41,13.551,86.41"/>
		<path clip-path="url(#SVGID_2_)" fill="#DE9865" d="M6.482,93.48c0,3.905,1.598,9.851,7.07,9.851v-16.92
			C9.648,86.411,6.482,89.576,6.482,93.48"/>
		<path clip-path="url(#SVGID_2_)" fill="#D7D3CC" d="M15.455,104.62h-3.56c-5.301,0.685-5.613,4.009-5.613,4.009h14.637
			C20.918,105.337,15.455,104.62,15.455,104.62"/>
		<path clip-path="url(#SVGID_2_)" fill="#F5E4D7" d="M15.573,104.62h-1.861v4.009h7.348C21.06,105.337,15.573,104.62,15.573,104.62
			"/>
		<path clip-path="url(#SVGID_2_)" fill="#010103" d="M12.082,95.698H8.287c-0.483,0-0.874,0.337-0.874,0.75
			c0,0,0.479,2.765,2.779,2.765c2.301,0,2.764-2.765,2.764-2.765C12.956,96.035,12.564,95.698,12.082,95.698"/>
		<path clip-path="url(#SVGID_2_)" fill="#1A1719" d="M18.986,95.698h-3.794c-0.483,0-0.875,0.337-0.875,0.75
			c0,0,0.464,2.765,2.764,2.765c2.301,0,2.78-2.765,2.78-2.765C19.861,96.035,19.47,95.698,18.986,95.698"/>
		<path clip-path="url(#SVGID_2_)" fill="#010103" d="M12.337,96.602c0,0.189,0.152,0.342,0.342,0.342h0.974V96.26h-0.974
			C12.489,96.26,12.337,96.414,12.337,96.602"/>
		<path clip-path="url(#SVGID_2_)" fill="#1A1719" d="M14.581,96.26h-0.927v0.684h0.927c0.188,0,0.342-0.152,0.342-0.342
			C14.922,96.414,14.769,96.26,14.581,96.26"/>
		<path clip-path="url(#SVGID_2_)" fill="#DE9865" d="M13.405,104.484v2.48c0.169,0.146,0.169,0.192,0.169,0.192l0.168-0.168
			l-0.048-2.505H13.405z"/>
		<path clip-path="url(#SVGID_2_)" fill="#E4AA7F" d="M13.577,104.486l0.004,2.671c0,0,3.321-0.636,3.32-2.218
			C16.9,104.939,16.076,104.43,13.577,104.486"/>
		<path clip-path="url(#SVGID_2_)" fill="#DE9865" d="M10.253,104.939c-0.002,1.582,3.32,2.218,3.32,2.218l0.003-2.671
			C11.079,104.43,10.253,104.939,10.253,104.939"/>
		<path clip-path="url(#SVGID_2_)" fill="#010103" d="M12.956,85.693l-1.487-0.987l-0.917,1.705l-1.871-1.423
			c-0.284,0.44-0.707,2.472-0.707,2.472c-0.565-0.283-1.978-0.495-1.978-0.495l0.286,3.143l-0.991-0.313
			c0.07,1.487,1.243,4.559,1.243,4.559s1.094-2.021,0.879-3.293c-0.216-1.271,3.78-0.988,6.16-0.177l0.898-2.471l-0.89-3.707
			L12.956,85.693z"/>
		<path clip-path="url(#SVGID_2_)" fill="#1A1719" d="M21.157,86.964c0,0-1.411,0.212-1.977,0.494c0,0-0.423-2.029-0.706-2.472
			l-1.871,1.423l-0.919-1.704l-1.486,0.988l-0.617-0.988v0.529v5.649c2.38-0.813,6.376-1.096,6.161,0.176
			c-0.215,1.271,0.878,3.294,0.878,3.294s1.173-3.072,1.243-4.561l-0.991,0.314L21.157,86.964z"/>
		<path clip-path="url(#SVGID_2_)" fill="#FBAD4B" d="M23.174,69.013c-1.923-1.406-1.968-3.749-1.968-3.749
			c0.377-4.59-7.701-2.668-7.701-2.668v11.662h9.764c1.781-1.265-0.986-2.201-0.095-2.201
			C24.066,72.057,25.097,70.417,23.174,69.013"/>
		<path clip-path="url(#SVGID_2_)" fill="#FD9B28" d="M5.948,65.264c0,0-0.046,2.343-1.969,3.749c-1.923,1.404-0.89,3.043,0,3.043
			c0.891,0-1.876,0.938-0.094,2.203h9.764V62.596C13.649,62.596,5.57,60.674,5.948,65.264"/>
		<path clip-path="url(#SVGID_2_)" fill="#DD9964" d="M5.441,67.705c0.576,1.792,1.757,1.64,1.757,1.64l-0.816-3.666
			C6.382,65.678,4.864,65.912,5.441,67.705"/>
		<path clip-path="url(#SVGID_2_)" fill="#DD9964" d="M20.914,65.69l-0.801,3.596c0,0,1.159,0.149,1.725-1.608
			C22.402,65.918,20.914,65.69,20.914,65.69"/>
		<rect x="12.267" y="73.761" clip-path="url(#SVGID_2_)" fill="#DD9964" width="2.722" height="2.718"/>
		<path clip-path="url(#SVGID_2_)" fill="#E4A97F" d="M13.597,57.341c-4.109,0-7.44,3.327-7.44,7.431s2.073,10.471,7.44,10.35
			c7.502-0.166,7.439-6.246,7.439-10.35S17.705,57.341,13.597,57.341"/>
		<path clip-path="url(#SVGID_2_)" fill="#DD9964" d="M6.158,64.772c0,4.104-0.21,9.867,7.44,10.35v-17.78
			C9.489,57.341,6.158,60.668,6.158,64.772"/>
		<path clip-path="url(#SVGID_2_)" fill="#DD9964" d="M6.146,80.636h7.464v-4.212h-1.691C11.919,76.424,6.146,77.178,6.146,80.636"
			/>
		<path clip-path="url(#SVGID_2_)" fill="#E4A97F" d="M15.266,76.424h-1.69v4.212h7.463C21.039,77.178,15.266,76.424,15.266,76.424"
			/>
		<path clip-path="url(#SVGID_2_)" fill="#680008" d="M10.748,76.382c-0.187,0.037-0.483,0.125-0.483,0.125
			c-0.376,0.363-2.633,4.071-2.633,4.071h5.684v-1.064C9.785,79.401,10.748,76.382,10.748,76.382"/>
		<path clip-path="url(#SVGID_2_)" fill="#AF090F" d="M16.196,76.53c0,0,0.907,3.019-2.624,3.132v1.063h5.739
			c0,0-2.256-3.709-2.633-4.07C16.678,76.655,16.383,76.566,16.196,76.53"/>
		<path clip-path="url(#SVGID_2_)" fill="#FD9B28" d="M10.125,64.619c0,0,1.477,0.51,3.473,1.107l-0.035-2.108
			C12,63.713,10.655,63.999,10.125,64.619"/>
		<path clip-path="url(#SVGID_2_)" fill="#FBAD4B" d="M20.771,64.141c-0.371-0.186-4.195-0.707-7.207-0.523l0.034,2.108
			c2.359,0.706,5.444,1.533,7.682,1.787C21.28,67.513,21.333,64.421,20.771,64.141"/>
		<path clip-path="url(#SVGID_2_)" fill="#680008" d="M5.948,65.264c0,0,2.935-0.795,7.706-0.795v-7.496
			C13.654,56.973,4.539,56.552,5.948,65.264"/>
		<path clip-path="url(#SVGID_2_)" fill="#AF090F" d="M13.564,56.973v7.495c4.771,0,7.706,0.796,7.706,0.796
			C22.679,56.552,13.564,56.973,13.564,56.973"/>
		<path clip-path="url(#SVGID_2_)" fill="#680008" d="M5.659,64.047c-0.009,0.012-0.352,0.069-0.349,0.624
			c0.005,0.957,1.304,0.441,1.304,0.441l1.656-1.861H5.8C5.227,63.533,5.8,63.836,5.659,64.047"/>
		<path clip-path="url(#SVGID_2_)" fill="#AF090F" d="M21.476,64.047c-0.141-0.211,0.431-0.515-0.141-0.796h-2.469l1.655,1.861
			c0,0,1.299,0.516,1.304-0.441C21.828,64.117,21.485,64.059,21.476,64.047"/>
		<path clip-path="url(#SVGID_2_)" fill="#010103" d="M5.948,80.692l7.673,0.033v-1.58c-3.316,0.026-6.184-0.935-6.184-0.935
			C6.02,79.117,5.948,80.692,5.948,80.692"/>
		<path clip-path="url(#SVGID_2_)" fill="#1A1719" d="M19.769,78.209c0,0-2.868,0.963-6.184,0.937v1.58l7.674-0.035
			C21.259,80.691,21.187,79.116,19.769,78.209"/>
		<rect x="12.078" y="46.143" clip-path="url(#SVGID_2_)" fill="#DD9964" width="2.559" height="2.558"/>
		<path clip-path="url(#SVGID_2_)" fill="#E8E6E4" d="M15.067,48.701v-0.603h-3.536v0.603c-5.267,0.677-5.577,3.966-5.577,3.966
			h14.542C20.496,49.411,15.067,48.701,15.067,48.701"/>
		<path clip-path="url(#SVGID_2_)" fill="#F6F6F2" d="M15.197,48.701v-0.603h-1.843v4.568h7.272
			C20.626,49.411,15.197,48.701,15.197,48.701"/>
		<path clip-path="url(#SVGID_2_)" fill="#DD9964" d="M20.3,38.514L19.547,41.9c0,0,1.09,0.142,1.621-1.515
			C21.7,38.73,20.3,38.514,20.3,38.514"/>
		<path clip-path="url(#SVGID_2_)" fill="#DD9964" d="M5.7,40.385C6.23,42.042,7.321,41.9,7.321,41.9l-0.753-3.386
			C6.568,38.514,5.167,38.73,5.7,40.385"/>
		<path clip-path="url(#SVGID_2_)" fill="#E4A97F" d="M13.519,30.59c-3.864-0.059-7.042,3.026-7.101,6.89
			c-0.057,3.864,2.987,9.865,6.85,9.85c5.22-0.022,7.192-5.603,7.25-9.466C20.576,34,17.382,30.648,13.519,30.59"/>
		<path clip-path="url(#SVGID_2_)" fill="#DD9964" d="M6.353,37.864c0,3.864,2.052,9.687,7.038,9.443V30.566
			C9.528,30.566,6.353,34,6.353,37.864"/>
		<polygon clip-path="url(#SVGID_2_)" fill="#C7C4C6" points="11.531,48.701 12.145,49.679 13.221,48.098 11.531,48.098 		"/>
		<polygon clip-path="url(#SVGID_2_)" fill="#E8E6E4" points="14.606,49.679 15.22,48.701 15.22,48.098 13.53,48.098 		"/>
		<path clip-path="url(#SVGID_2_)" fill="#010103" d="M11.33,30.788c-6.73,1.494-4.933,8.246-4.933,8.246l1.043-1.788
			c-0.763-1.675,1.342-2.558,2.764-3.115c1.42-0.559,3.222,0.953,3.222,0.953v-4.628C12.594,30.403,11.33,30.788,11.33,30.788"/>
		<path clip-path="url(#SVGID_2_)" fill="#1A1719" d="M15.523,30.788c0,0-1.265-0.385-2.098-0.332v4.628
			c0,0,3.348,1.882,5.791,0.394c0.506-0.308,0.531,1.033,0.196,1.769l1.055,1.629C20.467,38.875,21.776,32.877,15.523,30.788"/>
		<path clip-path="url(#SVGID_2_)" fill="#010103" d="M11.897,42.568c-0.827,0.629-0.795,1.788-1.39,1.39
			c0,0,1.635,1.191,2.918-0.959C13.425,42.999,12.725,41.94,11.897,42.568"/>
		<path clip-path="url(#SVGID_2_)" fill="#1A1719" d="M14.956,42.568c-0.827-0.628-1.53,0.431-1.53,0.431
			c1.285,2.15,2.92,0.959,2.92,0.959C15.749,44.356,15.783,43.197,14.956,42.568"/>
		<path clip-path="url(#SVGID_2_)" fill="#1A1719" d="M21.56,31.992c-0.1,0.034-1.433,0.348-1.433,0.348
			c-1.864-1.464-4.866-1.638-4.875-1.627c-2.877,3.429,1.512,5.638,3.778,4.871C21.296,34.817,21.66,31.957,21.56,31.992"/>
		<path clip-path="url(#SVGID_2_)" fill="#010103" d="M11.571,48.642c-0.221,0.552,0.077,0.508,0.056,0.618
			c-0.023,0.11-0.109,0.388-0.1,0.452c0.023,0.154,0.154,0.375,0.64,0.231c0.642-0.189,1.114-0.353,1.114-0.353
			s-0.188-0.508-0.286-0.872C12.995,48.719,11.792,48.091,11.571,48.642"/>
		<path clip-path="url(#SVGID_2_)" fill="#1A1719" d="M15.141,48.642c-0.221-0.551-1.424,0.077-1.424,0.077
			c-0.098,0.364-0.287,0.872-0.287,0.872s0.473,0.163,1.115,0.353c0.486,0.144,0.617-0.077,0.64-0.231
			c0.009-0.064-0.077-0.342-0.1-0.452C15.064,49.15,15.362,49.194,15.141,48.642"/>
		<path clip-path="url(#SVGID_2_)" fill="#1A1719" d="M12.995,48.719c0,0-0.354,0.927,0.353,0.949l-0.003-0.938L12.995,48.719z"/>
		<path clip-path="url(#SVGID_2_)" fill="#010103" d="M13.349,48.73l-0.002,0.938c0.706-0.021,0.353-0.949,0.353-0.949L13.349,48.73
			z"/>
		<path clip-path="url(#SVGID_2_)" fill="#1A1719" d="M-16.367-25.683c-12.261,0.082-8.062,19.541-7.284,20.594h14.542
			C-9.109-5.088-4.106-25.765-16.367-25.683"/>
		<path clip-path="url(#SVGID_2_)" fill="#010103" d="M-23.651-4.956h7.25l0.034-20.727C-28.628-25.602-24.428-6.01-23.651-4.956"/>
		<path clip-path="url(#SVGID_2_)" fill="#DD9964" d="M-24.075-15.886c0.532,1.656,1.621,1.515,1.621,1.515l-0.753-3.386
			C-23.207-17.757-24.607-17.542-24.075-15.886"/>
		<rect x="-17.708" y="-10.156" clip-path="url(#SVGID_2_)" fill="#DD9964" width="2.558" height="2.558"/>
		<path clip-path="url(#SVGID_2_)" fill="#E4A97F" d="M-16.405-25.617c-3.863,0-6.995,3.132-6.995,6.997
			c0,3.863,3.134,9.857,6.995,9.744c7.328-0.215,6.996-5.881,6.996-9.744C-9.409-22.485-12.541-25.617-16.405-25.617"/>
		<path clip-path="url(#SVGID_2_)" fill="#DD9964" d="M-23.4-18.621c0,3.863-0.251,9.679,6.995,9.744v-16.741
			C-20.268-25.618-23.4-22.484-23.4-18.621"/>
		<path clip-path="url(#SVGID_2_)" fill="#1A1719" d="M-16.431-25.683c0,0-0.621-0.007-1.484,0.168
			c-1.201,0.245-2.868,0.843-3.987,2.308c0,0,0.007,0.015,0.022,0.039c-2.297,2.568-1.562,5.856-1.562,5.856
			c1.313-0.716,0.977-1.787,1.856-3.207c1.954,2.173,6.619,1.721,12.745,2.762C-8.841-17.756-8.835-25.618-16.431-25.683"/>
		<path clip-path="url(#SVGID_2_)" fill="#010103" d="M-17.916-25.514L-17.916-25.514c-1.2,0.244-2.867,0.842-3.986,2.308
			c0,0,0.007,0.014,0.021,0.039c-3.091,2.604-1.561,5.856-1.561,5.856c1.312-0.716,1.411-0.728,2.29-2.148
			c0.873,0.971,1.818,0.869,4.837,0.75l-0.117-6.973C-16.432-25.682-17.053-25.689-17.916-25.514"/>
		<path clip-path="url(#SVGID_2_)" fill="#193B73" d="M-14.575-7.599h-3.522c-5.246,0.678-5.554,3.967-5.554,3.967h14.483
			C-9.167-6.889-14.575-7.599-14.575-7.599"/>
		<path clip-path="url(#SVGID_2_)" fill="#3060A3" d="M-14.589-7.599h-1.843v3.967h7.272C-9.16-6.889-14.589-7.599-14.589-7.599"/>
		<path clip-path="url(#SVGID_2_)" fill="#010103" d="M-25.254-12.265c-1.104,1.192-2.471,2.346-0.265,4.328
			s-0.459,2.926-1.178,3.292h3.523l1.854-4.796l-3.336-6.229C-24.656-15.669-24.151-13.456-25.254-12.265"/>
		<path clip-path="url(#SVGID_2_)" fill="#1A1719" d="M-7.333-7.946c2.206-1.981,0.838-3.137-0.266-4.328
			c-1.102-1.191-0.597-3.404-0.597-3.404l-3.335,6.228l1.853,4.796h3.523C-6.875-5.019-9.541-5.965-7.333-7.946"/>
		<path clip-path="url(#SVGID_2_)" fill="#010103" d="M-17.913-16.426h-3.754c-0.478,0-0.866,0.332-0.866,0.742
			c0,0,0.474,2.735,2.751,2.735c2.275,0,2.735-2.735,2.735-2.735C-17.046-16.094-17.434-16.426-17.913-16.426"/>
		<path clip-path="url(#SVGID_2_)" fill="#D7D3CC" d="M-18.378-16.036h-2.823c-0.36,0-0.651,0.25-0.651,0.558
			c0,0,0.357,2.056,2.069,2.056c1.711,0,2.055-2.056,2.055-2.056C-17.729-15.786-18.02-16.036-18.378-16.036"/>
		<path clip-path="url(#SVGID_2_)" fill="#1A1719" d="M-11.08-16.426h-3.754c-0.478,0-0.866,0.332-0.866,0.742
			c0,0,0.459,2.735,2.734,2.735c2.277,0,2.752-2.735,2.752-2.735C-10.213-16.094-10.601-16.426-11.08-16.426"/>
		<path clip-path="url(#SVGID_2_)" fill="#E8E6E4" d="M-11.545-16.036h-2.822c-0.361,0-0.652,0.25-0.652,0.558
			c0,0,0.345,2.056,2.057,2.056c1.711,0,2.068-2.056,2.068-2.056C-10.895-15.786-11.187-16.036-11.545-16.036"/>
		<path clip-path="url(#SVGID_2_)" fill="#010103" d="M-17.659-15.532c0,0.187,0.151,0.338,0.337,0.338h0.966v-0.676h-0.966
			C-17.508-15.87-17.659-15.719-17.659-15.532"/>
		<path clip-path="url(#SVGID_2_)" fill="#1A1719" d="M-15.439-15.871h-0.917v0.676h0.917c0.187,0,0.338-0.151,0.338-0.338
			C-15.101-15.719-15.252-15.871-15.439-15.871"/>
		<path clip-path="url(#SVGID_2_)" fill="#DD9964" d="M-16.603-7.733v2.454c0.168,0.144,0.168,0.191,0.168,0.191l0.166-0.166
			l-0.047-2.479H-16.603z"/>
		<path clip-path="url(#SVGID_2_)" fill="#E4A97F" d="M-16.432-7.731l0.004,2.643c0,0,3.286-0.629,3.285-2.194
			C-13.143-7.283-13.959-7.788-16.432-7.731"/>
		<path clip-path="url(#SVGID_2_)" fill="#DD9964" d="M-19.722-7.282c0,1.564,3.287,2.194,3.287,2.194l0.003-2.643
			C-18.905-7.787-19.722-7.282-19.722-7.282"/>
		<rect x="12.208" y="18.081" clip-path="url(#SVGID_2_)" fill="#DD9964" width="2.558" height="2.69"/>
		<path clip-path="url(#SVGID_2_)" fill="#DD9964" d="M15.198,20.639h-3.536c-5.267,0.678-5.577,3.966-5.577,3.966h14.542
			C20.532,21.676,15.198,20.639,15.198,20.639"/>
		<path clip-path="url(#SVGID_2_)" fill="#E4A97F" d="M15.328,20.639h-1.843v3.966h7.271C20.012,21.147,15.328,20.639,15.328,20.639
			"/>
		<path clip-path="url(#SVGID_2_)" fill="#DD9964" d="M20.443,10.481l-0.753,3.385c0,0,1.09,0.141,1.622-1.514
			C21.843,10.697,20.443,10.481,20.443,10.481"/>
		<path clip-path="url(#SVGID_2_)" fill="#DD9964" d="M5.841,12.352c0.532,1.656,1.621,1.515,1.621,1.515L6.71,10.48
			C6.71,10.48,5.311,10.697,5.841,12.352"/>
		<path clip-path="url(#SVGID_2_)" fill="#E4A97F" d="M13.537,2.555c-3.864,0-6.996,3.132-6.996,6.996
			c0,3.863,3.132,9.746,6.996,9.746c5.849,0,6.995-5.883,6.995-9.746C20.532,5.687,17.399,2.555,13.537,2.555"/>
		<path clip-path="url(#SVGID_2_)" fill="#DD9964" d="M6.516,9.616c0,3.864,1.259,9.745,6.996,9.745V2.621
			C9.648,2.621,6.516,5.753,6.516,9.616"/>
		<path clip-path="url(#SVGID_2_)" fill="#010103" d="M11.454,2.871c-5.721,1.902-4.913,7.674-4.913,7.674L7.59,8.999
			c-0.76-1.588,0.627-3.22,2.038-3.75c1.412-0.529,3.909,1.699,3.909,1.699V2.556C12.708,2.507,11.454,2.871,11.454,2.871"/>
		<path clip-path="url(#SVGID_2_)" fill="#1A1719" d="M15.62,2.871c0,0-1.255-0.364-2.083-0.315v4.392c0,0,2.496-2.228,3.908-1.699
			c1.412,0.53,2.798,2.162,2.039,3.75l1.048,1.546C20.532,10.544,21.339,4.772,15.62,2.871"/>
		<path clip-path="url(#SVGID_2_)" fill="#FE4C10" d="M10.851,20.771c-1.69,0.106-3.065,1.262-3.065,1.262l0.65,2.572h4.978v-1.683
			C11.241,22.928,10.851,20.771,10.851,20.771"/>
		<path clip-path="url(#SVGID_2_)" fill="#FC6739" d="M13.41,22.921v1.684h4.976l0.651-2.572c0,0-1.376-1.155-3.064-1.262
			C15.973,20.771,15.582,22.928,13.41,22.921"/>
		<path clip-path="url(#SVGID_2_)" fill="#CB7B46" d="M-16.367,85.093c-12.261,0.081-8.063,19.541-7.284,20.594h14.542
			C-9.109,105.687-4.106,85.012-16.367,85.093"/>
		<path clip-path="url(#SVGID_2_)" fill="#7D4113" d="M-23.651,105.82h7.25l0.034-20.727
			C-28.628,85.174-24.429,104.766-23.651,105.82"/>
		<rect x="-17.708" y="100.62" clip-path="url(#SVGID_2_)" fill="#DD9964" width="2.558" height="2.558"/>
		<path clip-path="url(#SVGID_2_)" fill="#E4A97F" d="M-16.405,85.159c-3.863,0-6.995,3.132-6.995,6.996s3.134,9.858,6.995,9.745
			c7.328-0.214,6.996-5.881,6.996-9.745S-12.541,85.159-16.405,85.159"/>
		<path clip-path="url(#SVGID_2_)" fill="#DD9964" d="M-23.4,92.155c0,3.863-0.251,9.68,6.995,9.744v-16.74
			C-20.268,85.159-23.4,88.292-23.4,92.155"/>
		<path clip-path="url(#SVGID_2_)" fill="#0D2E14" d="M-14.538,103.177h-3.536c-5.268,0.677-5.577,3.966-5.577,3.966h14.542
			C-9.108,103.887-14.538,103.177-14.538,103.177"/>
		<path clip-path="url(#SVGID_2_)" fill="#164C22" d="M-14.589,103.177h-1.843v3.966h7.272
			C-9.16,103.887-14.589,103.177-14.589,103.177"/>
		<path clip-path="url(#SVGID_2_)" fill="#7D4113" d="M-25.255,98.511c-1.103,1.191-2.471,2.346-0.264,4.328
			c2.206,1.981-0.459,2.927-1.178,3.293h3.523l1.854-4.797l-3.336-6.229C-24.656,95.106-24.151,97.32-25.255,98.511"/>
		<path clip-path="url(#SVGID_2_)" fill="#CB7B46" d="M-7.333,102.83c2.206-1.981,0.838-3.137-0.266-4.327
			c-1.102-1.192-0.597-3.406-0.597-3.406l-3.336,6.229l1.854,4.796h3.523C-6.875,105.756-9.541,104.811-7.333,102.83"/>
		<path clip-path="url(#SVGID_2_)" fill="#686562" d="M-16.428,105.688c0,0,3.286-0.63,3.286-2.195c0,0-0.453-0.149-3.263-0.936
			L-16.428,105.688z"/>
		<path clip-path="url(#SVGID_2_)" fill="#686562" d="M-16.417,105.688l0.013-3.131c-1.545,0.015-3.299,0.936-3.299,0.936
			C-19.705,105.058-16.417,105.688-16.417,105.688"/>
		<path clip-path="url(#SVGID_2_)" fill="#7D4113" d="M-23.028,88.579c-1.601,2.883-0.429,4.674-0.429,4.674
			c2.955-0.736,7.017-4.91,7.017-4.91l0.035-3.184C-17.762,85.026-21.426,85.695-23.028,88.579"/>
		<path clip-path="url(#SVGID_2_)" fill="#CB7B46" d="M-16.455,85.159l0.035,3.184c0,0,4.43,4.45,7.386,5.187
			c0,0,0.803-2.067-0.798-4.951C-11.433,85.695-15.098,85.027-16.455,85.159"/>
		<path clip-path="url(#SVGID_2_)" fill="#E8E7E0" d="M-16.405,102.557l0.593,1.305l1.389-0.651l-0.365-0.653
			C-14.788,102.557-15.639,102.411-16.405,102.557"/>
		<path clip-path="url(#SVGID_2_)" fill="#D7D3CC" d="M-18.072,102.557l-0.365,0.652l1.389,0.652l0.593-1.305
			C-17.219,102.411-18.072,102.557-18.072,102.557"/>
		<path clip-path="url(#SVGID_2_)" fill="#0D2E14" d="M-16.472,104.7c-0.147,0-0.267,0.12-0.267,0.267
			c0,0.147,0.12,0.267,0.267,0.267c0.146,0,0.266-0.119,0.266-0.267C-16.206,104.82-16.326,104.7-16.472,104.7"/>
		<path clip-path="url(#SVGID_2_)" fill="#010103" d="M9.286-6.928l0.529,0.971c0,0,1.306-0.529,3.765-0.551v-1.699
			C13.58-8.208,11.492-8.472,9.286-6.928"/>
		<path clip-path="url(#SVGID_2_)" fill="#010103" d="M13.622-8.208v1.699c2.458,0.022,3.764,0.551,3.764,0.551l0.529-0.971
			C15.708-8.473,13.622-8.208,13.622-8.208"/>
		<path clip-path="url(#SVGID_2_)" fill="#FBAD4B" d="M13.64-23.26l0.003,1.781l2.149-0.213C15.53-23.27,13.64-23.26,13.64-23.26"/>
		<path clip-path="url(#SVGID_2_)" fill="#3060A3" d="M11.964-21.803c0.231-0.054,1.747-0.229,1.747-0.229v-0.705
			C12.242-22.737,11.964-21.803,11.964-21.803"/>
		<path clip-path="url(#SVGID_2_)" fill="#3060A3" d="M13.678-22.737v0.705c0,0,1.516,0.175,1.747,0.229
			C15.425-21.803,15.147-22.737,13.678-22.737"/>
		<rect x="12.295" y="-9.048" clip-path="url(#SVGID_2_)" fill="#DD9964" width="2.558" height="2.558"/>
		<path clip-path="url(#SVGID_2_)" fill="#E4A97F" d="M13.677-24.509c-3.864,0-6.996,3.133-6.996,6.996s2.28,9.745,6.996,9.745
			c4.703,0,6.996-5.882,6.996-9.745S17.541-24.509,13.677-24.509"/>
		<path clip-path="url(#SVGID_2_)" fill="#DD9964" d="M6.55-17.513c0,3.863,2.313,9.745,6.996,9.745v-16.741
			C9.682-24.509,6.55-21.375,6.55-17.513"/>
		<path clip-path="url(#SVGID_2_)" fill="#E4A97F" d="M15.351-6.508h-1.843v3.966h7.272C20.78-5.798,15.351-6.508,15.351-6.508"/>
		<path clip-path="url(#SVGID_2_)" fill="#DD9964" d="M6.307-2.542h7.272v-3.966h-1.843C11.736-6.508,6.307-5.797,6.307-2.542"/>
		<polygon clip-path="url(#SVGID_2_)" fill="#DCDCD4" points="8.104,-2.542 13.598,-2.542 13.598,-4.525 9.833,-4.525 		"/>
		<polygon clip-path="url(#SVGID_2_)" fill="#DCDCD4" points="9.454,-5.912 9.833,-4.525 9.942,-4.525 9.564,-5.959 		"/>
		<polygon clip-path="url(#SVGID_2_)" fill="#F3F2EE" points="13.598,-4.525 13.598,-2.542 19.092,-2.542 17.363,-4.525 		"/>
		<polygon clip-path="url(#SVGID_2_)" fill="#F3F2EE" points="17.253,-4.525 17.362,-4.525 17.742,-5.911 17.631,-5.96 		"/>
		<path clip-path="url(#SVGID_2_)" fill="#45220F" d="M6.549-16.627l1-0.765c0.808-5.555,5.997-5.162,5.997-5.162v-2.007
			C5.257-23.974,6.549-16.627,6.549-16.627"/>
		<path clip-path="url(#SVGID_2_)" fill="#502E1A" d="M13.48-24.614v2.006c0,0,5.189-0.392,5.996,5.163l1.195,0.809
			C20.671-16.636,21.768-24.027,13.48-24.614"/>
		<path clip-path="url(#SVGID_2_)" fill="#010103" d="M8.756-6.134L8.712-5.869l-2.074,1.72L6.108-2.56h6.84l-0.882-2.736
			C12.066-5.296,9.947-4.149,8.756-6.134"/>
		<path clip-path="url(#SVGID_2_)" fill="#193B73" d="M10.775-6.178c-0.927-1.147,0.794-1.854,0.794-1.854
			C10.29-8.12,9.186-7.281,9.186-7.281L8.259-5.958l1.589,2.294l2.114-1.628C11.923-5.264,11.633-5.115,10.775-6.178"/>
		<path clip-path="url(#SVGID_2_)" fill="#193B73" d="M11.961-5.292c0.003-0.002,0.005-0.004,0.005-0.004L11.961-5.292z"/>
		<path clip-path="url(#SVGID_2_)" fill="#999694" d="M11.702-3.861c-0.22,0-0.397,0.177-0.397,0.397
			c0,0.219,0.177,0.397,0.397,0.397c0.219,0,0.397-0.178,0.397-0.397C12.099-3.685,11.92-3.861,11.702-3.861"/>
		<path clip-path="url(#SVGID_2_)" fill="#1A1719" d="M18.323-5.902l-0.044-0.265c-1.191,1.986-3.31,0.839-3.31,0.839l-0.882,2.736
			h6.84l-0.531-1.589L18.323-5.902z"/>
		<polyline clip-path="url(#SVGID_2_)" fill="#3060A3" points="15.007,-5.324 15.002,-5.328 15.007,-5.324 		"/>
		<path clip-path="url(#SVGID_2_)" fill="#3060A3" d="M15.4-8.064c0,0,1.721,0.706,0.794,1.853
			c-0.859,1.063-1.149,0.915-1.187,0.887l2.114,1.629l1.588-2.295l-0.927-1.324C17.782-7.314,16.679-8.152,15.4-8.064"/>
		<path clip-path="url(#SVGID_2_)" fill="#A19F97" d="M13.478-25.683v2.339c0,0,5.78-0.573,7.148,4.59
			C20.626-18.754,20.671-25.197,13.478-25.683"/>
		<path clip-path="url(#SVGID_2_)" fill="#6D6966" d="M6.33-18.754c1.368-5.163,7.148-4.59,7.148-4.59v-2.339
			C6.151-25.065,6.33-18.754,6.33-18.754"/>
		<path clip-path="url(#SVGID_2_)" fill="#D7D3CC" d="M4.741-17.078c0,0,0.353,1.942,2.294,2.647L6.55-16.626
			c0,0-1.396-6.55,7.09-6.634v-1.584C13.64-24.845,3.152-24.139,4.741-17.078"/>
		<path clip-path="url(#SVGID_2_)" fill="#E8E6E4" d="M13.512-24.845v1.584c8.129,0.138,7.093,6.634,7.093,6.634l-0.488,2.197
			c1.943-0.706,2.295-2.648,2.295-2.648C24.001-24.138,13.512-24.845,13.512-24.845"/>
		<path clip-path="url(#SVGID_2_)" fill="#DD9964" d="M5.729-14.71c0.532,1.655,1.621,1.514,1.621,1.514l-0.752-3.386
			C6.598-16.583,5.198-16.367,5.729-14.71"/>
		<path clip-path="url(#SVGID_2_)" fill="#DD9964" d="M20.584-16.582l-0.752,3.386c0,0,1.089,0.14,1.621-1.514
			C21.984-16.367,20.584-16.582,20.584-16.582"/>
		<path clip-path="url(#SVGID_2_)" fill="#45220F" d="M8.58-22.771c-0.485,1.191-2.25,0.839-2.25,0.839
			c1.94,3.265,7.183,1.544,7.183,1.544v-2.873C11.649-25.427,9.064-23.961,8.58-22.771"/>
		<path clip-path="url(#SVGID_2_)" fill="#502E1A" d="M15.419-22.991c-0.573-0.309-1.907-0.27-1.907-0.27v2.874
			C14.827-20.653,15.993-22.682,15.419-22.991"/>
		<path clip-path="url(#SVGID_2_)" fill="#FCAF4C" d="M-24.434,35.521c0,0,1.248,6.902,2.159,8.884
			c0.909,1.98,1.188,2.233,0.452,2.612c0,0,1.948,0.453,2.627-0.489c0,0,2.208,1.404,2.764,1.285V31.38
			C-16.432,31.38-23.121,31.441-24.434,35.521"/>
		<path clip-path="url(#SVGID_2_)" fill="#FCAF4C" d="M-16.467,31.38v16.433c0.555,0.12,2.763-1.285,2.763-1.285
			c0.68,0.943,2.627,0.49,2.627,0.49c-0.736-0.379-0.457-0.632,0.453-2.613c0.909-1.98,2.159-8.884,2.159-8.884
			C-9.78,31.441-16.467,31.38-16.467,31.38"/>
		<path clip-path="url(#SVGID_2_)" fill="#DE9865" d="M-24.031,40.059c0.53,1.635,1.617,1.497,1.617,1.497l-0.75-3.347
			C-23.164,38.209-24.561,38.423-24.031,40.059"/>
		<path clip-path="url(#SVGID_2_)" fill="#E4AA7F" d="M-9.673,38.209l-0.75,3.347c0,0,1.086,0.138,1.617-1.497
			C-8.277,38.423-9.673,38.209-9.673,38.209"/>
		<path clip-path="url(#SVGID_2_)" fill="#DCDCD5" d="M-17.7,46.87c-0.35,0-0.634,0.282-0.634,0.629s0.284,0.627,0.634,0.627
			s0.634-0.28,0.634-0.627S-17.35,46.87-17.7,46.87"/>
		<path clip-path="url(#SVGID_2_)" fill="#F5F4F0" d="M-15.135,46.907c-0.351,0-0.634,0.281-0.634,0.628s0.283,0.628,0.634,0.628
			c0.35,0,0.634-0.281,0.634-0.628S-14.785,46.907-15.135,46.907"/>
		<rect x="-17.679" y="45.719" clip-path="url(#SVGID_2_)" fill="#E4AA7F" width="2.552" height="2.528"/>
		<path clip-path="url(#SVGID_2_)" fill="#E9BD9A" d="M-16.432,30.442c-3.854,0-6.979,3.096-6.979,6.913
			c0,3.818,2.138,9.676,6.979,9.631c4.673-0.042,6.979-5.813,6.979-9.631C-9.453,33.538-12.578,30.442-16.432,30.442"/>
		<path clip-path="url(#SVGID_2_)" fill="#E4AA7F" d="M-23.41,37.355c0,3.818,2.319,10.27,6.979,9.631V30.442
			C-20.286,30.442-23.41,33.538-23.41,37.355"/>
		<path clip-path="url(#SVGID_2_)" fill="#E9BD9A" d="M-14.63,48.23h-1.839v3.92h7.255C-9.214,48.931-14.63,48.23-14.63,48.23"/>
		<path clip-path="url(#SVGID_2_)" fill="#E4AA7F" d="M-23.652,52.149h7.253v-3.92h-1.837
			C-18.236,48.229-23.652,48.931-23.652,52.149"/>
		<path clip-path="url(#SVGID_2_)" fill="#680000" d="M-17.664,47.995l-0.853,0.248c-0.001,0.217-0.068,0.447-0.215,0.681
			c-0.733,1.162-1.571,2.261-2.541,3.226h4.874v-2.293c-0.009,0-0.017,0.001-0.027,0.001C-17.534,49.857-17.946,48.79-17.664,47.995
			"/>
		<path clip-path="url(#SVGID_2_)" fill="#FE9D2A" d="M-21.848,32.162c-4.674,0.919-2.37,6.493-1.547,6.596
			c0.822,0.104,1.598-0.845,2.786-3.111c1.189-2.268,3.607-0.654,3.607-0.654C-15.503,28.05-21.848,32.162-21.848,32.162"/>
		<path clip-path="url(#SVGID_2_)" fill="#FE9D2A" d="M-13.157,29.708c-3.874-1.178-7.043-0.742-7.659,1.067
			c-0.617,1.81,3.102,3.99,3.102,3.99l1.169,0.697l4.813-3.148C-11.732,32.315-9.284,30.885-13.157,29.708"/>
		<path clip-path="url(#SVGID_2_)" fill="#FCAF4C" d="M-11.005,32.162c0,0-5.635,0.258-4.846,2.83c0,0,2.417-1.613,3.607,0.654
			c1.188,2.267,1.964,3.215,2.786,3.111C-8.635,38.654-6.332,33.081-11.005,32.162"/>
		<path clip-path="url(#SVGID_2_)" fill="#FCAF4C" d="M-16.469,35.463c0,0-3.905-5.712,5.441-3.75c0,0,0.374-0.131-0.047-0.937
			C-11.497,29.969-23.51,29.033-16.469,35.463"/>
		<path clip-path="url(#SVGID_2_)" fill="#FCAF4C" d="M-16.469,35.463c-0.877-3.967,5.259-3.512,5.259-3.512
			C-18.538,31.275-16.469,35.463-16.469,35.463"/>
		<path clip-path="url(#SVGID_2_)" fill="#FE9D2A" d="M-9.214,36.238c-0.531-1.538-1.968-5.134-4.592-2.878v0.131
			c0,0,2.416-1.875,3.667,1.973c1.252,3.848,1.813,0.905,1.813,0.905S-8.684,37.775-9.214,36.238"/>
		<path clip-path="url(#SVGID_2_)" fill="#FCAF4C" d="M-23.548,36.435c-0.531,1.537-0.889,0.131-0.889,0.131
			s0.562,2.943,1.813-0.904c1.251-3.849,3.668-1.974,3.668-1.974v-0.131C-21.582,31.301-23.018,34.898-23.548,36.435"/>
		<path clip-path="url(#SVGID_2_)" fill="#B0000F" d="M-14.294,48.243l-0.853-0.249c0.283,0.796-0.129,1.863-1.237,1.863
			c-0.01,0-0.018,0-0.027,0v2.293h4.875c-0.972-0.966-1.809-2.064-2.542-3.227C-14.227,48.691-14.292,48.459-14.294,48.243"/>
		<path clip-path="url(#SVGID_2_)" fill="#DCDCD5" d="M-18.678,47.621c-0.35,0-0.633,0.281-0.633,0.627
			c0,0.347,0.283,0.628,0.633,0.628c0.351,0,0.635-0.281,0.635-0.628C-18.043,47.902-18.327,47.621-18.678,47.621"/>
		<path clip-path="url(#SVGID_2_)" fill="#DCDCD5" d="M-17.066,49.551c-0.351,0-0.634,0.281-0.634,0.628s0.283,0.628,0.634,0.628
			c0.35,0,0.634-0.281,0.634-0.628S-16.716,49.551-17.066,49.551"/>
		<path clip-path="url(#SVGID_2_)" fill="#DCDCD5" d="M-18.043,48.667c-0.351,0-0.634,0.281-0.634,0.627s0.283,0.628,0.634,0.628
			s0.634-0.282,0.634-0.628S-17.692,48.667-18.043,48.667"/>
		<path clip-path="url(#SVGID_2_)" fill="#F5F4F0" d="M-14.158,47.658c-0.351,0-0.634,0.281-0.634,0.628s0.283,0.627,0.634,0.627
			c0.35,0,0.634-0.28,0.634-0.627S-13.808,47.658-14.158,47.658"/>
		<path clip-path="url(#SVGID_2_)" fill="#F5F4F0" d="M-15.769,49.588c-0.351,0-0.634,0.281-0.634,0.629
			c0,0.346,0.283,0.627,0.634,0.627c0.35,0,0.634-0.281,0.634-0.627C-15.135,49.87-15.419,49.588-15.769,49.588"/>
		<path clip-path="url(#SVGID_2_)" fill="#F5F4F0" d="M-14.792,48.705c-0.35,0-0.634,0.28-0.634,0.628
			c0,0.346,0.284,0.627,0.634,0.627s0.634-0.281,0.634-0.627C-14.158,48.985-14.441,48.705-14.792,48.705"/>
		<path clip-path="url(#SVGID_2_)" fill="#010103" d="M-23.546,69.675c0,0-2.013-0.631-3.891,1.16c0,0,0.111,1.761,1.003,3.095
			l1.498-0.605l-1.118,1.114l0.352,0.304c0,0,2.88-0.981,2.9-3.459C-22.802,71.284-23.663,70.804-23.546,69.675"/>
		<path clip-path="url(#SVGID_2_)" fill="#680000" d="M-22.902,69.105c0,0-0.66,0.277-0.743,0.703
			c-0.085,0.426,0.045,1.946,0.98,2.012c0,0,0.295,0.114,0.521-0.346C-22.144,71.474-23.019,69.965-22.902,69.105"/>
		<path clip-path="url(#SVGID_2_)" fill="#1A1719" d="M-9.308,69.659c0.116,1.128-0.744,1.607-0.744,1.607
			c0.02,2.478,2.901,3.459,2.901,3.459l0.35-0.303l-1.116-1.115l1.498,0.606c0.892-1.334,1.003-3.095,1.003-3.095
			C-7.295,69.027-9.308,69.659-9.308,69.659"/>
		<path clip-path="url(#SVGID_2_)" fill="#B0000F" d="M-9.954,68.848c0.116,0.859-0.758,2.368-0.758,2.368
			c0.226,0.461,0.521,0.345,0.521,0.345c0.935-0.065,1.064-1.585,0.98-2.01C-9.293,69.124-9.954,68.848-9.954,68.848"/>
		<path clip-path="url(#SVGID_2_)" fill="#DE9865" d="M-24.042,68.777c0.525,1.631,1.6,1.492,1.6,1.492l-0.743-3.335
			C-23.185,66.934-24.565,67.147-24.042,68.777"/>
		<path clip-path="url(#SVGID_2_)" fill="#DE9865" d="M-9.841,66.934l-0.742,3.334c0,0,1.074,0.14,1.599-1.49
			S-9.841,66.934-9.841,66.934"/>
		<rect x="-17.76" y="74.419" clip-path="url(#SVGID_2_)" fill="#DE9865" width="2.525" height="2.52"/>
		<path clip-path="url(#SVGID_2_)" fill="#E4AA7F" d="M-16.527,59.195c-3.812,0-6.902,3.084-6.902,6.889s0.741,9.598,6.902,9.598
			c6.803,0,6.904-5.793,6.904-9.598S-12.714,59.195-16.527,59.195"/>
		<path clip-path="url(#SVGID_2_)" fill="#DE9865" d="M-23.427,66.084c0,3.804,0.739,9.597,6.902,9.597V59.195
			C-20.337,59.195-23.427,62.279-23.427,66.084"/>
		<path clip-path="url(#SVGID_2_)" fill="#E4AA7F" d="M-14.744,76.921h-1.818v3.905h7.173
			C-9.389,77.621-14.744,76.921-14.744,76.921"/>
		<path clip-path="url(#SVGID_2_)" fill="#DE9865" d="M-23.667,80.827h7.175V76.92h-1.818
			C-18.311,76.92-23.667,77.621-23.667,80.827"/>
		<path clip-path="url(#SVGID_2_)" fill="#010103" d="M-23.667,61.877c-1.57,2.28,0.044,6.597,0.044,6.597
			c3.301-0.714,7.099-7.122,7.099-7.122v-2.157C-20.488,59.068-23.667,61.877-23.667,61.877"/>
		<path clip-path="url(#SVGID_2_)" fill="#1A1719" d="M-16.562,59.195v2.157c0,0,3.869,6.443,7.171,7.156
			c0,0,1.574-4.351,0.003-6.631C-9.388,61.877-12.599,59.068-16.562,59.195"/>
		<path clip-path="url(#SVGID_2_)" fill="#680000" d="M-22.688,78.726v2.101h6.195v-4.509l-2.417,0.711
			C-18.91,77.029-21.561,77.625-22.688,78.726"/>
		<path clip-path="url(#SVGID_2_)" fill="#B0000F" d="M-16.499,76.318v4.509h6.197v-2.101c-1.128-1.101-3.778-1.698-3.778-1.698
			L-16.499,76.318z"/>
		<path clip-path="url(#SVGID_2_)" fill="#D7D3CC" d="M-18.91,77.029c0.2,1.141,1.971,1.696,1.971,1.696l0.414-2.407l-2.19-0.241
			L-18.91,77.029z"/>
		<path clip-path="url(#SVGID_2_)" fill="#F5E4D7" d="M-16.525,76.318l0.414,2.408c0,0,1.771-0.558,1.971-1.698l-0.196-0.952
			L-16.525,76.318z"/>
		<path clip-path="url(#SVGID_2_)" fill="#010103" d="M-22.893,61.391c0.01,0.021-0.013,0.035-0.013,0.035
			c2.824-1.776,6.344-1.011,6.344-1.011v-1.754C-17.083,57.452-23.414,60.18-22.893,61.391"/>
		<path clip-path="url(#SVGID_2_)" fill="#1A1719" d="M-16.571,58.531v1.755c0,0,3.52-0.766,6.343,1.01c0,0-0.003-0.013-0.013-0.035
			C-10.369,60.917-11.535,58.241-16.571,58.531"/>
	</g>
</g>
</svg>
