<?xml version="1.0" encoding="UTF-8"?>
<svg viewBox="0 0 289.26 272.22" xmlns="http://www.w3.org/2000/svg">
 <path d="m42.339 51.48s-9.918-1.387-19.569 0.22c-3.824 0.638-16.566 4.462-18.746 7.604-1.018 25.147 2.18 48.465 2.18 48.465l22.062 2.613" fill="#fff"/>
 <path d="m42.339 51.48s-9.918-1.387-19.569 0.22c-3.824 0.638-16.566 4.462-18.746 7.604-1.018 25.147 2.18 48.465 2.18 48.465l22.062 2.613" fill="none" stroke="#010101" stroke-linecap="round" stroke-linejoin="round" stroke-miterlimit="14.3" stroke-width="3.42"/>
 <path d="m16.046 59.328l-7.655 0.012c-3.664 0.008999-6.681 3.026-6.681 6.688v37.621c0 3.664 3.017 6.672 6.681 6.664l15.319-0.026c3.664-0.009003 6.673-3.021 6.673-6.688v-37.621c0-3.66-3.009-6.668-6.673-6.664l-7.664 0.014" fill="#fff"/>
 <path d="m16.046 59.328l-7.655 0.012c-3.664 0.008999-6.681 3.026-6.681 6.688v37.621c0 3.664 3.017 6.672 6.681 6.664l15.319-0.026c3.664-0.009003 6.673-3.021 6.673-6.688v-37.621c0-3.66-3.009-6.668-6.673-6.664l-7.664 0.014z" fill="none" stroke="#010101" stroke-linecap="round" stroke-linejoin="round" stroke-miterlimit="14.3" stroke-width="3.42"/>
 <path d="m5.763 75.219c1.034 5.086 6.173 8.336 11.461 7.258 5.289-1.082 8.733-6.086 7.698-11.168-1.043-5.086-6.176-8.332-11.461-7.254-5.284 1.082-8.736 6.082-7.698 11.164" fill="#aaabaa"/>
 <path d="m5.763 75.219c1.034 5.086 6.173 8.336 11.461 7.258 5.289-1.082 8.733-6.086 7.698-11.168-1.043-5.086-6.176-8.332-11.461-7.254-5.284 1.082-8.736 6.082-7.698 11.164z" fill="none" stroke="#010101" stroke-linecap="round" stroke-linejoin="round" stroke-miterlimit="14.3" stroke-width="3.42"/>
 <path d="m4.912 98.68c1.043 5.086 6.173 8.332 11.461 7.254 5.289-1.082 8.741-6.082 7.702-11.164-1.039-5.086-6.172-8.332-11.461-7.258-5.288 1.082-8.732 6.086-7.702 11.168" fill="#aaabaa"/>
 <path d="m4.912 98.68c1.043 5.086 6.173 8.332 11.461 7.254 5.289-1.082 8.741-6.082 7.702-11.164-1.039-5.086-6.172-8.332-11.461-7.258-5.288 1.082-8.732 6.086-7.702 11.168z" fill="none" stroke="#010101" stroke-linecap="round" stroke-linejoin="round" stroke-miterlimit="14.3" stroke-width="3.42"/>
 <path d="m13.177 74.004c0 4.22 2.142 7.646 4.78 7.646s4.781-3.43 4.781-7.646-2.146-7.647-4.781-7.647c-2.639-0.001999-4.78 3.427-4.78 7.647" fill="#010101"/>
 <path d="m13.177 74.004c0 4.22 2.142 7.646 4.78 7.646s4.781-3.43 4.781-7.646-2.146-7.647-4.781-7.647c-2.639-0.001999-4.78 3.427-4.78 7.647z" fill="none" stroke="#010101" stroke-linecap="round" stroke-linejoin="round" stroke-miterlimit="14.3" stroke-width="3.42"/>
 <path d="m12.546 96.305c0 4.219 2.142 7.647 4.776 7.647s4.78-3.432 4.78-7.647c0-4.224-2.146-7.647-4.78-7.647-2.636-9.99e-4 -4.776 3.424-4.776 7.647" fill="#010101"/>
 <path d="m12.546 96.305c0 4.219 2.142 7.647 4.776 7.647s4.78-3.432 4.78-7.647c0-4.224-2.146-7.647-4.78-7.647-2.636-9.99e-4 -4.776 3.424-4.776 7.647z" fill="none" stroke="#010101" stroke-linecap="round" stroke-linejoin="round" stroke-miterlimit="14.3" stroke-width="3.42"/>
 <g fill="#fff">
  <path d="m238.14 98.395s-18.728-35.366-84.569-33.625c-65.854 1.734-97.875 26.938-97.875 26.938-1.402-0.397-12.074 29.242-11.207 57.203 0.409 13.068 3.564 47.224 3.564 47.224s3.539 54.508 96.371 56.038c64.966 1.07 89.72-47.207 89.72-47.207l9.871-37.562s2.366-23.957 2.423-32.197c0.179-29.137-9.899-37.836-8.298-36.812"/>
  <path d="m242.25 101.46l-4-21.384s-17.262-26.573-83.267-29.112c-66.003-2.539-94.593 27.051-94.593 27.051l-2.902 13.688"/>
  <path d="m246.96 51.508s9.918-1.392 19.574 0.215c3.819 0.641 16.565 4.461 18.746 7.604 1.012 25.15-2.185 48.465-2.185 48.465l-22.057 2.611"/>
 </g>
 <path d="m246.96 51.508s9.918-1.392 19.574 0.215c3.819 0.641 16.565 4.461 18.746 7.604 1.012 25.15-2.185 48.465-2.185 48.465l-22.057 2.611" fill="none" stroke="#010101" stroke-linecap="round" stroke-linejoin="round" stroke-miterlimit="14.3" stroke-width="3.42"/>
 <g fill="#fff">
  <path d="m273.22 59.387l7.664 0.016c3.656 0.005001 6.674 3.027 6.674 6.686v37.621c0 3.664-3.018 6.672-6.674 6.664l-15.318-0.027c-3.664-0.003998-6.682-3.022-6.682-6.688v-37.621c0-3.66 3.018-6.668 6.682-6.66l7.654 9e-3"/>
  <path d="m36.546 209.58l-3.643-9.186s-10.77-22.733-3.594-104.01c6.062-68.642 68.532-94.062 124.08-89.758 81.664 6.327 111.65 46.606 109.26 127.98-1.229 41.566-6.586 67.004-6.586 67.004l-3.59 9.57 8.451 3.461"/>
 </g>
 <g fill="#010101">
  <polyline points="259.22 214.65 259.23 214.04 259.28 213.44 259.35 212.86 259.44 212.31 259.57 211.8 259.72 211.34 259.88 210.94 260.07 210.6 260.27 210.32 260.48 210.13 260.7 210.01 260.92 209.97 261.15 210.01 261.37 210.13 261.58 210.32 261.78 210.6 261.97 210.94 262.14 211.34 262.28 211.8 262.4 212.31 262.5 212.86 262.58 213.44 262.62 214.04 262.64 214.65 262.62 215.26 262.58 215.86 262.5 216.44 262.4 216.99 262.28 217.5 262.14 217.96 261.97 218.36 261.78 218.7 261.58 218.98 261.37 219.17 261.15 219.29 260.92 219.33 260.7 219.29 260.48 219.17 260.27 218.98 260.07 218.7 259.88 218.36 259.72 217.96 259.57 217.5 259.44 216.99 259.35 216.44 259.28 215.86 259.23 215.26 259.22 214.65"/>
  <polygon points="34.83 209.58 34.851 208.97 34.89 208.37 34.964 207.79 35.062 207.24 35.187 206.73 35.334 206.28 35.502 205.87 35.687 205.53 35.89 205.26 36.101 205.06 36.319 204.94 36.548 204.9 36.771 204.94 36.989 205.06 37.205 205.26 37.399 205.53 37.587 205.87 37.751 206.28 37.898 206.73 38.023 207.24 38.126 207.79 38.196 208.37 38.243 208.97 38.251 209.58 38.243 210.19 38.196 210.8 38.126 211.38 38.023 211.92 37.898 212.43 37.751 212.9 37.587 213.3 37.399 213.64 37.205 213.91 36.989 214.11 36.771 214.22 36.548 214.27 36.319 214.22 36.101 214.11 35.89 213.91 35.687 213.64 35.502 213.3 35.334 212.9 35.187 212.43 35.062 211.92 34.964 211.38 34.89 210.8 34.851 210.19"/>
  <polygon points="35.382 213.03 31.772 203.91 31.687 203.7 31.604 203.51 31.276 202.66 31.194 202.42 30.694 200.92 30.608 200.65 29.983 198.46 29.907 198.16 29.204 195.23 29.13 194.91 28.376 191.18 28.317 190.84 27.563 186.27 27.515 185.91 26.804 180.44 27.038 181.65 26.765 180.08 26.14 173.66 26.288 174.66 26.112 173.3 25.612 165.86 25.677 166.53 25.595 165.51 25.263 157.02 25.271 157.21 25.255 156.69 25.134 147.09 25.134 146.72 25.134 146.78 25.271 136.01 25.31 135.11 25.275 135.72 25.702 123.74 25.831 122.38 25.718 123.47 26.479 110.22 26.501 109.97 27.642 95.409 27.97 93.496 28.13 93.018 27.72 94.674 29.505 82.311 30.112 80.19 30.312 79.862 29.709 81.28 32.718 69.905 33.554 68.225 32.95 69.202 37.099 58.805 37.306 58.356 42.495 48.907 42.667 48.635 48.813 40.123 48.955 39.946 55.959 32.344 56.075 32.231 63.839 25.528 63.937 25.454 72.374 19.627 72.456 19.571 81.478 14.602 81.546 14.563 91.056 10.426 91.114 10.399 101.02 7.075 101.07 7.06 111.27 4.532 111.32 4.521 121.73 2.771 121.78 2.762 132.31 1.767 132.34 1.762 142.9 1.5 142.94 1.5 153.42 1.957 153.46 1.957 168.17 3.543 168.22 3.552 181.74 5.948 181.8 5.955 194.17 9.166 194.23 9.183 205.48 13.218 205.55 13.248 215.7 18.128 215.79 18.175 224.87 23.895 224.97 23.977 233.02 30.554 233.14 30.675 240.16 38.123 240.31 38.308 246.35 46.636 246.53 46.912 251.61 56.136 251.8 56.537 255.95 66.657 256.15 67.214 259.4 78.241 258.98 77.22 259.57 78.943 261.95 90.892 261.59 89.634 262.07 91.681 263.61 104.56 263.41 103.4 263.52 103.96 263.68 105.35 264.4 119.18 264.37 118.74 264.41 119.37 264.42 119.89 264.36 134.67 264.33 135.4 264.28 136.02 264.35 135.16 263.71 149.97 263.55 151.45 263.69 150.29 262.78 163.49 262.76 163.78 261.68 175.24 261.65 175.51 260.52 185.14 260.49 185.38 259.42 193.05 259.39 193.27 258.48 198.88 258.45 199.07 257.83 202.52 257.8 202.68 257.56 203.85 256.81 205.82 257.26 204.97 256.14 207.96 261.18 210.02 260.68 219.28 252.22 215.82 252.36 215.86 252.13 215.77 251.9 215.6 251.69 215.34 251.49 215.01 251.31 214.61 251.15 214.14 251.01 213.62 250.91 213.05 250.83 212.45 250.78 211.82 250.76 211.19 250.78 210.55 250.83 209.93 250.91 209.32 251.01 208.76 251.15 208.24 251.31 207.77 251.49 207.36 251.69 207.03 251.28 207.84 254.68 198.76 254.78 198.29 255.37 195.01 256.25 189.6 257.28 182.15 258.39 172.78 259.44 161.6 260.33 148.72 260.95 134.31 261.01 120.14 260.32 107.08 258.89 94.994 256.65 83.791 253.58 73.39 249.63 63.748 244.73 54.866 238.86 46.767 231.97 39.466 224.05 32.981 215.07 27.321 205 22.485 193.82 18.474 181.5 15.278 168.02 12.892 153.36 11.313 142.91 10.856 132.41 11.123 121.92 12.114 111.56 13.856 101.41 16.373 91.572 19.683 82.128 23.795 73.184 28.726 64.83 34.496 57.171 41.112 50.304 48.565 44.32 56.858 39.324 65.953 35.402 75.789 32.617 86.297 30.97 97.75 29.865 111.81 29.119 124.79 28.701 136.48 28.568 146.93 28.685 156.2 29 164.35 29.478 171.43 30.068 177.49 30.724 182.61 31.419 186.83 32.099 190.23 32.74 192.85 33.279 194.75 33.693 196 33.943 196.64 34.021 196.83 34.076 196.97 37.718 206.15"/>
 </g>
 <path d="m239.24 98.191s-18.728-35.37-84.573-33.633c-65.845 1.739-97.867 26.945-97.867 26.945-1.4-0.401-12.072 29.232-11.207 57.199 0.406 13.072 3.565 47.219 3.565 47.219s3.535 54.513 96.371 56.042c64.961 1.074 89.72-47.207 89.72-47.207l9.866-37.562s2.371-23.961 2.423-32.199c0.17801-29.131-9.895-37.827-8.298-36.804" fill="#fff"/>
 <path d="m239.24 98.191s-18.728-35.37-84.573-33.633c-65.845 1.739-97.867 26.945-97.867 26.945-1.4-0.401-12.072 29.232-11.207 57.199 0.406 13.072 3.565 47.219 3.565 47.219s3.535 54.513 96.371 56.042c64.961 1.074 89.72-47.207 89.72-47.207l9.866-37.562s2.371-23.961 2.423-32.199c0.17801-29.131-9.895-37.827-8.298-36.804" fill="none"/>
 <path d="m239.24 98.191s-18.728-35.37-84.573-33.633c-65.845 1.739-97.867 26.945-97.867 26.945-1.4-0.401-12.072 29.232-11.207 57.199 0.406 13.072 3.565 47.219 3.565 47.219s3.535 54.513 96.371 56.042c64.961 1.074 89.72-47.207 89.72-47.207l9.866-37.562s2.371-23.961 2.423-32.199c0.17801-29.131-9.895-37.827-8.298-36.804" fill="none"/>
 <path d="m238.14 98.395s-18.728-35.366-84.569-33.625c-65.854 1.734-97.875 26.938-97.875 26.938-1.402-0.397-12.074 29.242-11.207 57.203 0.409 13.068 3.564 47.224 3.564 47.224s3.539 54.508 96.371 56.038c64.966 1.07 89.72-47.207 89.72-47.207l9.871-37.562s2.366-23.957 2.423-32.197c0.179-29.137-9.899-37.836-8.298-36.812" fill="#fff"/>
 <path d="m239.24 98.191s-18.728-35.37-84.573-33.633c-65.845 1.739-97.867 26.945-97.867 26.945-1.4-0.401-12.072 29.232-11.207 57.199 0.406 13.072 3.565 47.219 3.565 47.219s3.535 54.513 96.371 56.042c64.961 1.074 89.72-47.207 89.72-47.207l9.866-37.562s2.371-23.961 2.423-32.199c0.17801-29.131-9.895-37.827-8.298-36.804" fill="none"/>
 <path d="m242.25 101.46l-4-21.384s-17.262-26.573-83.267-29.112c-66.003-2.539-94.593 27.051-94.593 27.051l-2.902 13.688" fill="#fff"/>
 <path d="m239.24 98.191s-18.728-35.37-84.573-33.633c-65.845 1.739-97.867 26.945-97.867 26.945-1.4-0.401-12.072 29.232-11.207 57.199 0.406 13.072 3.565 47.219 3.565 47.219s3.535 54.513 96.371 56.042c64.961 1.074 89.72-47.207 89.72-47.207l9.866-37.562s2.371-23.961 2.423-32.199c0.17801-29.131-9.895-37.827-8.298-36.804" fill="none"/>
 <path d="m246.96 51.508s9.918-1.392 19.574 0.215c3.819 0.641 16.565 4.461 18.746 7.604 1.012 25.15-2.185 48.465-2.185 48.465l-22.057 2.611" fill="#fff"/>
 <path d="m239.24 98.191s-18.728-35.37-84.573-33.633c-65.845 1.739-97.867 26.945-97.867 26.945-1.4-0.401-12.072 29.232-11.207 57.199 0.406 13.072 3.565 47.219 3.565 47.219s3.535 54.513 96.371 56.042c64.961 1.074 89.72-47.207 89.72-47.207l9.866-37.562s2.371-23.961 2.423-32.199c0.17801-29.131-9.895-37.827-8.298-36.804" fill="none"/>
 <g fill="none">
  <path d="m246.96 51.508s9.918-1.392 19.574 0.215c3.819 0.641 16.565 4.461 18.746 7.604 1.012 25.15-2.185 48.465-2.185 48.465l-22.057 2.611" stroke="#010101" stroke-linecap="round" stroke-linejoin="round" stroke-miterlimit="11.5" stroke-width="3.42"/>
  <path d="m239.24 98.191s-18.728-35.37-84.573-33.633c-65.845 1.739-97.867 26.945-97.867 26.945-1.4-0.401-12.072 29.232-11.207 57.199 0.406 13.072 3.565 47.219 3.565 47.219s3.535 54.513 96.371 56.042c64.961 1.074 89.72-47.207 89.72-47.207l9.866-37.562s2.371-23.961 2.423-32.199c0.17801-29.131-9.895-37.827-8.298-36.804"/>
 </g>
 <path d="m36.546 209.58l-3.643-9.186s-10.77-22.733-3.594-104.01c6.062-68.642 68.532-94.062 124.08-89.758 81.664 6.327 111.65 46.606 109.26 127.98-1.229 41.566-6.586 67.004-6.586 67.004l-3.59 9.57 8.451 3.461" fill="#fff"/>
 <path d="m239.24 98.191s-18.728-35.37-84.573-33.633c-65.845 1.739-97.867 26.945-97.867 26.945-1.4-0.401-12.072 29.232-11.207 57.199 0.406 13.072 3.565 47.219 3.565 47.219s3.535 54.513 96.371 56.042c64.961 1.074 89.72-47.207 89.72-47.207l9.866-37.562s2.371-23.961 2.423-32.199c0.17801-29.131-9.895-37.827-8.298-36.804" fill="none"/>
 <g fill="#231f20">
  <polyline points="259.22 214.65 259.23 214.04 259.28 213.44 259.35 212.86 259.44 212.31 259.57 211.8 259.72 211.34 259.88 210.94 260.07 210.6 260.27 210.32 260.48 210.13 260.7 210.01 260.92 209.97 261.15 210.01 261.37 210.13 261.58 210.32 261.78 210.6 261.97 210.94 262.14 211.34 262.28 211.8 262.4 212.31 262.5 212.86 262.58 213.44 262.62 214.04 262.64 214.65 262.62 215.26 262.58 215.86 262.5 216.44 262.4 216.99 262.28 217.5 262.14 217.96 261.97 218.36 261.78 218.7 261.58 218.98 261.37 219.17 261.15 219.29 260.92 219.33 260.7 219.29 260.48 219.17 260.27 218.98 260.07 218.7 259.88 218.36 259.72 217.96 259.57 217.5 259.44 216.99 259.35 216.44 259.28 215.86 259.23 215.26 259.22 214.65"/>
  <polygon points="34.83 209.58 34.851 208.97 34.89 208.37 34.964 207.79 35.062 207.24 35.187 206.73 35.334 206.28 35.502 205.87 35.687 205.53 35.89 205.26 36.101 205.06 36.319 204.94 36.548 204.9 36.771 204.94 36.989 205.06 37.205 205.26 37.399 205.53 37.587 205.87 37.751 206.28 37.898 206.73 38.023 207.24 38.126 207.79 38.196 208.37 38.243 208.97 38.251 209.58 38.243 210.19 38.196 210.8 38.126 211.38 38.023 211.92 37.898 212.43 37.751 212.9 37.587 213.3 37.399 213.64 37.205 213.91 36.989 214.11 36.771 214.22 36.548 214.27 36.319 214.22 36.101 214.11 35.89 213.91 35.687 213.64 35.502 213.3 35.334 212.9 35.187 212.43 35.062 211.92 34.964 211.38 34.89 210.8 34.851 210.19"/>
  <polygon points="35.382 213.03 31.772 203.91 31.687 203.7 31.604 203.51 31.276 202.66 31.194 202.42 30.694 200.92 30.608 200.65 29.983 198.46 29.907 198.16 29.204 195.23 29.13 194.91 28.376 191.18 28.317 190.84 27.563 186.27 27.515 185.91 26.804 180.44 27.038 181.65 26.765 180.08 26.14 173.66 26.288 174.66 26.112 173.3 25.612 165.86 25.677 166.53 25.595 165.51 25.263 157.02 25.271 157.21 25.255 156.69 25.134 147.09 25.134 146.72 25.134 146.78 25.271 136.01 25.31 135.11 25.275 135.72 25.702 123.74 25.831 122.38 25.718 123.47 26.479 110.22 26.501 109.97 27.642 95.409 27.97 93.496 28.13 93.018 27.72 94.674 29.505 82.311 30.112 80.19 30.312 79.862 29.709 81.28 32.718 69.905 33.554 68.225 32.95 69.202 37.099 58.805 37.306 58.356 42.495 48.907 42.667 48.635 48.813 40.123 48.955 39.946 55.959 32.344 56.075 32.231 63.839 25.528 63.937 25.454 72.374 19.627 72.456 19.571 81.478 14.602 81.546 14.563 91.056 10.426 91.114 10.399 101.02 7.075 101.07 7.06 111.27 4.532 111.32 4.521 121.73 2.771 121.78 2.762 132.31 1.767 132.34 1.762 142.9 1.5 142.94 1.5 153.42 1.957 153.46 1.957 168.17 3.543 168.22 3.552 181.74 5.948 181.8 5.955 194.17 9.166 194.23 9.183 205.48 13.218 205.55 13.248 215.7 18.128 215.79 18.175 224.87 23.895 224.97 23.977 233.02 30.554 233.14 30.675 240.16 38.123 240.31 38.308 246.35 46.636 246.53 46.912 251.61 56.136 251.8 56.537 255.95 66.657 256.15 67.214 259.4 78.241 258.98 77.22 259.57 78.943 261.95 90.892 261.59 89.634 262.07 91.681 263.61 104.56 263.41 103.4 263.52 103.96 263.68 105.35 264.4 119.18 264.37 118.74 264.41 119.37 264.42 119.89 264.36 134.67 264.33 135.4 264.28 136.02 264.35 135.16 263.71 149.97 263.55 151.45 263.69 150.29 262.78 163.49 262.76 163.78 261.68 175.24 261.65 175.51 260.52 185.14 260.49 185.38 259.42 193.05 259.39 193.27 258.48 198.88 258.45 199.07 257.83 202.52 257.8 202.68 257.56 203.85 256.81 205.82 257.26 204.97 256.14 207.96 261.18 210.02 260.68 219.28 252.22 215.82 252.36 215.86 252.13 215.77 251.9 215.6 251.69 215.34 251.49 215.01 251.31 214.61 251.15 214.14 251.01 213.62 250.91 213.05 250.83 212.45 250.78 211.82 250.76 211.19 250.78 210.55 250.83 209.93 250.91 209.32 251.01 208.76 251.15 208.24 251.31 207.77 251.49 207.36 251.69 207.03 251.28 207.84 254.68 198.76 254.78 198.29 255.37 195.01 256.25 189.6 257.28 182.15 258.39 172.78 259.44 161.6 260.33 148.72 260.95 134.31 261.01 120.14 260.32 107.08 258.89 94.994 256.65 83.791 253.58 73.39 249.63 63.748 244.73 54.866 238.86 46.767 231.97 39.466 224.05 32.981 215.07 27.321 205 22.485 193.82 18.474 181.5 15.278 168.02 12.892 153.36 11.313 142.91 10.856 132.41 11.123 121.92 12.114 111.56 13.856 101.41 16.373 91.572 19.683 82.128 23.795 73.184 28.726 64.83 34.496 57.171 41.112 50.304 48.565 44.32 56.858 39.324 65.953 35.402 75.789 32.617 86.297 30.97 97.75 29.865 111.81 29.119 124.79 28.701 136.48 28.568 146.93 28.685 156.2 29 164.35 29.478 171.43 30.068 177.49 30.724 182.61 31.419 186.83 32.099 190.23 32.74 192.85 33.279 194.75 33.693 196 33.943 196.64 34.021 196.83 34.076 196.97 37.718 206.15"/>
 </g>
 <path d="m239.24 98.191s-18.728-35.37-84.573-33.633c-65.845 1.739-97.867 26.945-97.867 26.945-1.4-0.401-12.072 29.232-11.207 57.199 0.406 13.072 3.565 47.219 3.565 47.219s3.535 54.513 96.371 56.042c64.961 1.074 89.72-47.207 89.72-47.207l9.866-37.562s2.371-23.961 2.423-32.199c0.17801-29.131-9.895-37.827-8.298-36.804" fill="none"/>
 <path d="m245.38 203.44s6.091-16.146 8.353-53.829c2.043-33.986-13.642-61.74-13.642-61.74s-24.022-32.496-97.009-32.496c-72.985 0-95.056 32.5-95.056 32.5s-10.366 27.318-12.062 55.021c-1.693 27.703 5.272 55.777 5.272 55.777" fill="none" stroke="#010101" stroke-linecap="round" stroke-linejoin="round" stroke-miterlimit="11.5" stroke-width="2.564"/>
 <path d="m35.643 210.48s0.871 6.234 4.694 13.242c6.116 11.219 12.108 19.115 12.108 19.115l1.836 15.713 32.896 13.461s17.022-5.6 25.798-5.6c8.772 0 31.219 2.715 50.957-0.172 19.732-2.885 45.448-14.607 57.996-21.492 19.75-10.826 30.819-31.383 30.819-31.383" fill="#fff"/>
 <path d="m36.143 210.48s0.871 6.234 4.694 13.242c6.116 11.219 12.108 19.115 12.108 19.115l1.836 15.713 32.896 13.461s17.022-5.6 25.798-5.6c8.772 0 31.219 2.715 50.957-0.172 19.732-2.885 45.448-14.607 57.996-21.492 19.75-10.826 30.819-31.383 30.819-31.383" fill="#ff7f00" stroke="#010101" stroke-linecap="round" stroke-linejoin="round" stroke-miterlimit="11.5" stroke-width="3.42"/>
 <path d="m245.31 202.98l-5.979 15.557s-32.293 44.529-110.68 39.479c-71.293-4.598-84.353-44.271-84.353-44.271l-3.935-19.336" fill="#fff"/>
 <path d="m245.31 202.98l-5.979 15.557s-32.293 44.529-110.68 39.479c-71.293-4.598-84.353-44.271-84.353-44.271l-3.935-19.336" fill="none" stroke="#010101" stroke-linecap="round" stroke-linejoin="round" stroke-miterlimit="11.5" stroke-width="2.564"/>
 <polyline points="232.07 93 231.72 92.739 230.66 91.991 228.86 90.823 226.33 89.301 223.04 87.496 219 85.489 214.19 83.352 208.63 81.159 202.29 78.989 195.17 76.902 187.28 74.989 178.58 73.312 169.11 71.953 158.83 70.984 147.75 70.477 135.86 70.504 124.15 71.059 113.6 72.039 104.15 73.375 95.74 75.008 88.334 76.866 81.865 78.891 76.283 81.02 71.529 83.184 67.552 85.32 64.296 87.359 61.709 89.241 59.732 90.902 58.307 92.282 57.388 93.301 56.904 93.909 56.768 94.109 56.193 94.648 56.373 94.532 56.341 94.555 56.158 94.895 55.634 96.184 54.959 98.109 53.311 103.64 51.494 110.89 49.693 119.46 48.084 128.96 46.857 139 46.177 149.18 46.225 157.84 46.83 167.27 47.826 176.87 49.037 186.03 50.283 194.17 51.396 200.69 51.839 203.16 52.186 205.01 52.404 206.16 52.436 206.3 52.479 206.43 52.912 207.54 53.775 209.4 55.166 211.87 57.171 214.85 59.888 218.22 63.396 221.85 67.802 225.62 73.177 229.41 79.623 233.08 87.225 236.52 96.061 239.59 106.23 242.18 117.82 244.14 130.91 245.37 145.58 245.73 157.75 245.16 168.91 243.73 179.1 241.56 188.34 238.77 196.67 235.49 204.12 231.85 210.71 227.97 216.48 223.98 221.46 220 225.66 216.16 229.14 212.59 231.9 209.4 233.99 206.72 235.44 204.68 236.26 203.4 236.29 203.36 238.36 195.28 239.95 187.54 241.07 180.3 241.81 173.27 242.28 166.15 242.57 158.66 242.78 150.56 242.99 141.77 242.55 131.61 241.28 122.27 239.44 113.84 237.3 106.53 235.16 100.53 233.29 96.027 231.97 93.219 231.72 92.739 231.7 92.727 233.06 87.273 233.43 87.547 233.25 87.438 233.47 87.578 234.02 88.297 234.55 89.312 234.6 89.409 235.97 92.34 236.03 92.477 237.97 97.129 238.03 97.305 240.25 103.51 240.32 103.73 242.53 111.3 242.29 110.68 242.6 111.59 244.51 120.34 244.4 119.9 244.58 120.71 245.91 130.46 245.9 130.36 245.95 130.92 246.41 141.5 246.41 141.54 246.42 141.85 246.19 150.82 246.19 150.82 245.99 158.96 245.99 159.03 245.69 166.62 245.69 166.76 245.2 174.04 245.19 174.24 244.42 181.49 244.39 181.72 243.23 189.2 243.19 189.43 241.55 197.39 241.51 197.59 239.28 206.3 238.92 207.2 238.75 207.46 238.9 207.22 238.62 207.7 238.57 207.79 237.69 209.16 237.63 209.24 236.12 211.38 236.05 211.46 233.9 214.22 233.83 214.31 230.99 217.58 230.92 217.66 227.37 221.32 227.29 221.39 223.01 225.3 222.93 225.37 217.87 229.41 217.79 229.47 211.94 233.52 211.85 233.57 205.18 237.5 205.08 237.55 197.55 241.23 197.47 241.27 189.05 244.58 188.97 244.61 179.64 247.42 179.55 247.45 169.29 249.64 169.2 249.65 157.96 251.1 157.88 251.11 145.64 251.67 145.57 251.68 130.83 251.31 130.76 251.31 117.6 250.07 117.53 250.06 105.86 248.08 105.78 248.06 95.529 245.46 95.439 245.43 86.507 242.33 86.412 242.29 78.709 238.81 78.611 238.76 72.061 235.02 71.951 234.96 66.459 231.09 66.341 231 61.826 227.13 61.709 227.02 58.076 223.27 57.959 223.13 55.123 219.61 55.007 219.45 52.882 216.3 52.771 216.12 51.275 213.45 51.171 213.25 50.209 211.19 50.115 210.98 49.604 209.65 49.529 209.45 49.382 208.98 49.529 209.37 49.248 208.48 49.171 208.07 49.166 208.06 48.939 206.88 48.936 206.85 48.584 204.98 48.576 204.95 48.127 202.45 48.119 202.4 46.998 195.82 46.986 195.73 45.725 187.52 45.709 187.41 44.482 178.13 44.466 177.99 43.455 168.22 43.439 168.03 42.818 158.36 42.83 158.48 42.811 158.06 42.757 149.05 42.759 148.84 42.768 148.68 43.466 138.18 43.494 137.88 43.494 137.9 44.748 127.61 44.783 127.39 46.425 117.69 46.459 117.51 48.3 108.77 48.339 108.6 50.201 101.18 50.248 101 51.951 95.289 52.007 95.114 52.74 93.008 52.811 92.832 53.439 91.293 53.584 90.984 54.084 90.055 54.475 89.516 54.686 89.336 54.634 89.371 54.979 89.105 54.584 89.527 54.768 89.273 54.85 89.164 55.412 88.445 55.502 88.34 56.513 87.219 56.6 87.129 58.111 85.668 58.201 85.594 60.259 83.859 60.341 83.793 63.013 81.852 63.095 81.797 66.432 79.703 66.502 79.659 70.552 77.489 70.627 77.453 75.451 75.258 75.513 75.227 81.166 73.073 81.225 73.055 87.759 71.012 87.814 70.996 95.283 69.121 95.334 69.109 103.79 67.469 103.84 67.457 113.34 66.116 113.39 66.109 123.99 65.125 124.03 65.125 135.78 64.562 135.83 64.562 147.77 64.532 147.81 64.532 158.95 65.043 158.99 65.047 169.32 66.023 169.36 66.027 178.9 67.395 178.94 67.402 187.68 69.086 187.72 69.098 195.67 71.023 195.72 71.034 202.88 73.133 202.93 73.148 209.31 75.34 209.36 75.355 214.98 77.566 215.02 77.586 219.86 79.741 219.91 79.766 224 81.793 224.05 81.816 227.38 83.645 227.42 83.668 230 85.219 230.05 85.241 231.88 86.445 231.93 86.473 233.02 87.241 233.06 87.273 233.43 87.547 232.07 93" fill="#010101"/>
 <g fill="#ff7f00" stroke="#010101" stroke-linecap="round" stroke-linejoin="round" stroke-miterlimit="11.5" stroke-width="2.564">
  <path d="m193.66 16.875s5.577 11.16 5.577 21.396c0 10.229-0.92999 23.883-0.92999 23.883l9.301 4.312s1.859-7.738 0.936-19.824c-0.936-12.09-5.582-26.039-5.582-26.039"/>
  <path d="m89.8 17.801s-5.582 11.16-5.582 21.387c0 10.234 0.934 24.522 0.934 24.522l-9.301 3.668s-1.863-7.729-0.93-19.819c0.93-12.09 5.576-26.039 5.576-26.039"/>
 </g>
 <path d="m33.619 121.49l-14.47 0.557s-4.254 9.063-3.448 23.313c0.798 14.255 4.436 23.781 4.436 23.781l15.395-0.5s-1.825-8.492-2.114-23.645c-0.284-15.149 0.201-23.506 0.201-23.506" fill="#fff"/>
 <path d="m34.119 121.49l-14.47 0.557s-4.254 9.063-3.448 23.313c0.798 14.255 4.436 23.781 4.436 23.781l15.395-0.5s-1.825-8.492-2.114-23.645c-0.284-15.149 0.201-23.506 0.201-23.506z" fill="#ff7f00" stroke="#010101" stroke-linecap="round" stroke-linejoin="round" stroke-miterlimit="11.5" stroke-width="3.42"/>
 <path d="m39.373 144.67c0.238 12.737-1.655 23.121-4.219 23.168-2.57 0.046997-4.845-10.259-5.078-22.996-0.241-12.737 1.647-23.12 4.216-23.168 2.566-0.046997 4.84 10.258 5.081 22.996" fill="#fff"/>
 <path d="m39.373 144.67c0.238 12.737-1.655 23.121-4.219 23.168-2.57 0.046997-4.845-10.259-5.078-22.996-0.241-12.737 1.647-23.12 4.216-23.168 2.566-0.046997 4.84 10.258 5.081 22.996z" fill="none" stroke="#010101" stroke-linecap="round" stroke-linejoin="round" stroke-miterlimit="11.5" stroke-width="3.42"/>
 <path d="m40.037 128.85l-3.952 0.686s-1.276 7.611-1.393 15.297c-0.107 7.685 0.938 15.435 0.938 15.435l3.953-0.688 0.454-30.73" fill="#010101"/>
 <path d="m40.037 128.85l-3.952 0.686s-1.276 7.611-1.393 15.297c-0.107 7.685 0.938 15.435 0.938 15.435l3.953-0.688 0.454-30.73z" fill="none" stroke="#010101" stroke-linecap="round" stroke-linejoin="round" stroke-miterlimit="11.5" stroke-width="3.42"/>
 <path d="m255.88 121.48l14.47 0.553s4.258 9.068 3.457 23.318c-0.806 14.254-4.441 23.781-4.441 23.781l-15.395-0.5s1.832-8.492 2.112-23.646c0.28-15.153-0.20299-23.506-0.20299-23.506" fill="#fff"/>
 <path d="m255.88 121.48l14.47 0.553s4.258 9.068 3.457 23.318c-0.806 14.254-4.441 23.781-4.441 23.781l-15.395-0.5s1.832-8.492 2.112-23.646c0.28-15.153-0.20299-23.506-0.20299-23.506z" fill="#ff7f00" stroke="#010101" stroke-linecap="round" stroke-linejoin="round" stroke-miterlimit="11.5" stroke-width="3.42"/>
 <path d="m250.25 144.77c-0.232 12.738 1.656 23.117 4.22 23.168 2.569 0.047012 4.845-10.254 5.086-22.991 0.233-12.745-1.655-23.12-4.224-23.168-2.562-0.051994-4.84 10.25-5.082 22.991" fill="#fff"/>
 <path d="m250.25 144.77c-0.232 12.738 1.656 23.117 4.22 23.168 2.569 0.047012 4.845-10.254 5.086-22.991 0.233-12.745-1.655-23.12-4.224-23.168-2.562-0.051994-4.84 10.25-5.082 22.991z" fill="none" stroke="#010101" stroke-linecap="round" stroke-linejoin="round" stroke-miterlimit="11.5" stroke-width="3.42"/>
 <path d="m249.55 128.84l3.866 0.688s1.259 7.617 1.379 15.298c0.121 7.685-0.896 15.435-0.896 15.435l-3.867-0.69-0.482-30.731" fill="#010101"/>
 <path d="m249.55 128.84l3.866 0.688s1.259 7.617 1.379 15.298c0.121 7.685-0.896 15.435-0.896 15.435l-3.867-0.69-0.482-30.731z" fill="none" stroke="#010101" stroke-linecap="round" stroke-linejoin="round" stroke-miterlimit="11.5" stroke-width="3.42"/>
 <path d="m35.979 121.37s0.909-28.229 3.646-35.521c2.733-7.285 12.75-4.551 12.75-4.551s-7.289 11.84-9.104 30.051c-1.187 11.784 0.906 14.577-7.292 10.021" fill="#fff"/>
 <path d="m35.979 121.37s0.909-28.229 3.646-35.521c2.733-7.285 12.75-4.551 12.75-4.551s-7.289 11.84-9.104 30.051c-1.187 11.784 0.906 14.577-7.292 10.021z" fill="none" stroke="#010101" stroke-linecap="round" stroke-linejoin="round" stroke-miterlimit="11.5" stroke-width="2.564"/>
 <path d="m253.63 122.28s-0.914-28.232-3.646-35.517c-2.729-7.285-12.746-4.555-12.746-4.555s7.281 11.836 9.104 30.055c1.177 11.78-0.90799 14.569 7.288 10.017" fill="#fff"/>
 <g fill="none" stroke="#010101" stroke-width="2.564">
  <path d="m253.63 122.28s-0.914-28.232-3.646-35.517c-2.729-7.285-12.746-4.555-12.746-4.555s7.281 11.836 9.104 30.055c1.177 11.78-0.90799 14.569 7.288 10.017z" stroke-linecap="round" stroke-linejoin="round" stroke-miterlimit="11.5"/>
  <g stroke-miterlimit="14.3">
   <line x1="35.882" x2="43.529" y1="209.71" y2="209.71"/>
   <g stroke-linecap="round" stroke-linejoin="round">
    <polyline points="51.807 241.56 60.725 247.3 92.583 260.68 115.52 265.78"/>
    <line x1="86.85" x2="91.314" y1="270.87" y2="261.32"/>
    <line x1="55.632" x2="60.733" y1="257.49" y2="247.94"/>
   </g>
   <line x1="245.49" x2="253.14" y1="203.34" y2="208.44"/>
  </g>
 </g>
 <path d="m86.052 115.72c-2.909 7.926-10.366 12.479-16.642 10.172-6.271-2.309-8.992-10.604-6.078-18.53 2.914-7.918 10.367-12.478 16.643-10.168 6.273 2.303 8.995 10.608 6.077 18.526" fill="#fff"/>
 <path d="m86.052 115.72c-2.909 7.926-10.366 12.479-16.642 10.172-6.271-2.309-8.992-10.604-6.078-18.53 2.914-7.918 10.367-12.478 16.643-10.168 6.273 2.303 8.995 10.608 6.077 18.526z" fill="#0ff" stroke="#010101" stroke-miterlimit="14.3" stroke-width="1.712"/>
 <path d="m95.912 89.664c-1.366 3.724-4.866 5.865-7.812 4.784-2.945-1.087-4.219-4.982-2.854-8.707 1.366-3.724 4.866-5.866 7.812-4.78 2.944 1.082 4.221 4.984 2.854 8.703" fill="#fff"/>
 <path d="m95.912 89.664c-1.366 3.724-4.866 5.865-7.812 4.784-2.945-1.087-4.219-4.982-2.854-8.707 1.366-3.724 4.866-5.866 7.812-4.78 2.944 1.082 4.221 4.984 2.854 8.703z" fill="#0ff" stroke="#010101" stroke-miterlimit="14.3" stroke-width="1.712"/>
 <g fill="#fff">
  <path d="m265.33 196.95l-14.969-1.358s-2.397 3.621-2.97 9.792c-0.573 6.172 0.36699 10.496 0.36699 10.496l15.356 1.439s-0.23102-3.766 0.61697-10.293c0.85602-6.521 1.599-10.076 1.599-10.076"/>
  <path d="m265.33 196.95l-14.969-1.358s-2.397 3.621-2.97 9.792c-0.573 6.172 0.36699 10.496 0.36699 10.496l15.356 1.439s-0.23102-3.766 0.61697-10.293c0.85602-6.521 1.599-10.076 1.599-10.076z" stroke="#010101" stroke-linecap="round" stroke-linejoin="round" stroke-miterlimit="14.3" stroke-width="3.42"/>
  <path d="m266.35 207.18c-0.72 5.482-2.188 9.818-3.289 9.68-1.095-0.145-1.406-4.711-0.68802-10.197 0.71103-5.484 2.188-9.824 3.28-9.682 1.104 0.144 1.408 4.711 0.69699 10.199"/>
 </g>
 <path d="m266.35 207.18c-0.72 5.482-2.188 9.818-3.289 9.68-1.095-0.145-1.406-4.711-0.68802-10.197 0.71103-5.484 2.188-9.824 3.28-9.682 1.104 0.144 1.408 4.711 0.69699 10.199z" fill="none" stroke="#010101" stroke-linecap="round" stroke-linejoin="round" stroke-miterlimit="14.3" stroke-width="3.42"/>
 <path d="m241.72 180.55s-18.336 12.227-38.703 17.313c-20.367 5.096-26.478 5.096-26.478 5.096s-4.073-7.134-17.312-7.134-13.238 7.134-13.238 13.238c0 6.113 7.129 7.129 15.277 7.129s15.271-4.068 15.271-4.068 15.277-1.021 27.5-4.072c12.221-3.057 35.643-12.224 35.643-12.224" fill="#010101"/>
 <path d="m273.22 59.387l7.664 0.016c3.656 0.005001 6.674 3.027 6.674 6.686v37.621c0 3.664-3.018 6.672-6.674 6.664l-15.318-0.027c-3.664-0.003998-6.682-3.022-6.682-6.688v-37.621c0-3.66 3.018-6.668 6.682-6.66l7.654 9e-3z" fill="#fff" stroke="#010101" stroke-linecap="round" stroke-linejoin="round" stroke-miterlimit="14.3" stroke-width="3.42"/>
 <g fill="#aaabaa">
  <path d="m283.47 75.441c-1.039 5.082-6.173 8.332-11.457 7.25-5.289-1.072-8.741-6.077-7.702-11.163 1.039-5.082 6.172-8.332 11.461-7.25 5.289 1.074 8.735 6.077 7.698 11.163"/>
  <path d="m284.31 98.895c-1.035 5.086-6.173 8.336-11.457 7.259-5.289-1.082-8.738-6.082-7.703-11.163 1.039-5.087 6.173-8.337 11.461-7.26 5.289 1.081 8.742 6.081 7.699 11.164"/>
 </g>
 <path d="m276.08 74c0 4.22-2.146 7.646-4.78 7.646-2.642 0-4.78-3.43-4.78-7.646s2.142-7.647 4.78-7.647c2.635-9.99e-4 4.78 3.429 4.78 7.647" fill="#010101"/>
 <path d="m276.08 74c0 4.22-2.146 7.646-4.78 7.646-2.642 0-4.78-3.43-4.78-7.646s2.142-7.647 4.78-7.647c2.635-9.99e-4 4.78 3.429 4.78 7.647z" fill="none" stroke="#010101" stroke-linecap="round" stroke-linejoin="round" stroke-miterlimit="14.3" stroke-width="3.42"/>
 <path d="m276.72 96.301c0 4.219-2.141 7.647-4.775 7.647-2.643 0-4.781-3.432-4.781-7.647 0-4.224 2.143-7.647 4.781-7.647 2.635-0.001999 4.775 3.424 4.775 7.647" fill="#010101"/>
 <g fill="none" stroke="#010101" stroke-linecap="round" stroke-linejoin="round" stroke-miterlimit="14.3" stroke-width="3.42">
  <path d="m276.72 96.301c0 4.219-2.141 7.647-4.775 7.647-2.643 0-4.781-3.432-4.781-7.647 0-4.224 2.143-7.647 4.781-7.647 2.635-0.001999 4.775 3.424 4.775 7.647z"/>
  <path d="m283.47 75.441c-1.039 5.082-6.173 8.332-11.457 7.25-5.289-1.072-8.741-6.077-7.702-11.163 1.039-5.082 6.172-8.332 11.461-7.25 5.289 1.074 8.735 6.077 7.698 11.163z"/>
  <path d="m284.31 98.895c-1.035 5.086-6.173 8.336-11.457 7.259-5.289-1.082-8.738-6.082-7.703-11.163 1.039-5.087 6.173-8.337 11.461-7.26 5.289 1.081 8.742 6.081 7.699 11.164z"/>
 </g>
</svg>
