<?xml version="1.0" encoding="UTF-8"?>
<svg viewBox="0 0 325.23 293.5" xmlns="http://www.w3.org/2000/svg">
 <g fill-rule="evenodd" stroke-width=".521">
  <path d="m85.041-80.289c0 52.307-40.89 94.711-91.331 94.711-50.44 0-91.331-42.404-91.331-94.711 0-52.308 40.89-94.711 91.331-94.711s91.331 42.404 91.331 94.711z"/>
  <path d="m449.85-80.289c0 52.307-40.89 94.711-91.331 94.711-50.44 0-91.331-42.404-91.331-94.711 0-52.308 40.89-94.711 91.331-94.711s91.331 42.404 91.331 94.711z"/>
 </g>
 <path d="m434 107.64c0 135.78-115.46 245.85-257.88 245.85s-257.88-110.07-257.88-245.85 115.46-245.85 257.88-245.85 257.88 110.07 257.88 245.85z" fill="#fff" stroke="#000" stroke-width="4.213"/>
 <path d="m176.73-3.1345c17.693 39.95-11.738 94.499-65.736 121.84-53.998 27.34-112.12 17.118-129.81-22.832-17.693-39.95 11.738-94.5 65.736-121.84s112.12-17.118 129.81 22.832z"/>
 <path d="m175.5-2.0381c-17.693 39.95 11.738 94.499 65.736 121.84 53.998 27.34 112.12 17.118 129.81-22.832 17.693-39.95-11.738-94.5-65.736-121.84s-112.12-17.118-129.81 22.832z"/>
 <g transform="matrix(15.726 0 0 16.815 1292.5 -904.81)">
  <g transform="matrix(.41061 0 0 .41061 37.955 10.947)">
   <path d="m-243.43 109.55c0 5.6084-4.5465 10.155-10.155 10.155-5.6084 0-10.155-4.5465-10.155-10.155 0-5.6084 4.5465-10.155 10.155-10.155 5.6084 0 10.155 4.5465 10.155 10.155z" fill="#fff"/>
   <g stroke="#000" stroke-width=".1">
    <path d="m-246.91 109.3c0 4.275-3.0424 7.7405-6.7955 7.7405-3.753 0-6.7955-3.4656-6.7955-7.7405 0-4.275 3.0424-7.7405 6.7955-7.7405 3.753 0 6.7955 3.4655 6.7955 7.7405z"/>
    <path d="m-250.25 105.37c0 1.4053-1.1392 2.5445-2.5445 2.5445s-2.5445-1.1392-2.5445-2.5445 1.1392-2.5445 2.5445-2.5445 2.5445 1.1392 2.5445 2.5445z" fill="#fff"/>
   </g>
  </g>
  <g transform="matrix(.41061 0 0 .41061 28.22 10.947)">
   <path d="m-243.43 109.55c0 5.6084-4.5465 10.155-10.155 10.155-5.6084 0-10.155-4.5465-10.155-10.155 0-5.6084 4.5465-10.155 10.155-10.155 5.6084 0 10.155 4.5465 10.155 10.155z" fill="#fff"/>
   <g stroke="#000" stroke-width=".1">
    <path d="m-246.91 109.3c0 4.275-3.0424 7.7405-6.7955 7.7405-3.753 0-6.7955-3.4656-6.7955-7.7405 0-4.275 3.0424-7.7405 6.7955-7.7405 3.753 0 6.7955 3.4655 6.7955 7.7405z"/>
    <path d="m-250.25 105.37c0 1.4053-1.1392 2.5445-2.5445 2.5445s-2.5445-1.1392-2.5445-2.5445 1.1392-2.5445 2.5445-2.5445 2.5445 1.1392 2.5445 2.5445z" fill="#fff"/>
   </g>
  </g>
 </g>
 <path d="m75.76 209.36c25.089 45.644 83.201 44.483 98.238-15.17 33.562 78.551 86.785 42.215 102.47 18.862" fill="none" stroke="#000" stroke-linecap="round" stroke-linejoin="round" stroke-width="7.461"/>
 <path d="m174.41 207.23c-5.4202-0.16321-9.8587-4.722-14.94-12.218-5.0812-7.4955-10.454-12.011-14.463-25.959-4.0087-13.948-6.4645-38.319 2.1348-50.759 8.5994-12.44 43.587-10.703 55.964-1.2732 12.378 9.4301 7.1169 34.527 3.6444 49.19-3.4724 14.663-8.5448 21.168-14.917 29.434-6.3723 8.2661-12.056 11.746-17.424 11.584z"/>
</svg>
