<?xml version="1.0" encoding="utf-8"?>
<!-- Generator: Adobe Illustrator 22.0.0, SVG Export Plug-In . SVG Version: 6.00 Build 0)  -->
<svg version="1.1" id="Layer_1" xmlns="http://www.w3.org/2000/svg" xmlns:xlink="http://www.w3.org/1999/xlink" x="0px" y="0px"
	 viewBox="0 0 227.5 85.8" style="enable-background:new 0 0 227.5 85.8;" xml:space="preserve">
<style type="text/css">
	.st0{stroke:#000000;stroke-width:0.75;}
	.st1{fill:#FFFFFF;stroke:#000000;stroke-width:0.75;}
</style>
<path class="st0" d="M227.1,76.8c0,4.8-3.9,8.6-8.6,8.6H9c-4.8,0-8.6-3.9-8.6-8.6V9c0-4.8,3.9-8.6,8.6-8.6h209.6
	c4.8,0,8.6,3.9,8.6,8.6v67.8H227.1z"/>
<path class="st1" d="M218.3,74.1c0,4-3.6,7.3-8,7.3H16.5c-4.4,0-8-3.3-8-7.3V16.4c0-4,3.6-7.3,8-7.3h193.8c4.4,0,8,3.3,8,7.3V74.1z"
	/>
<path d="M114.9,55.1l-0.3,1.8l-5.8,4.7l-3.7-4.7l0.3-1.8l5.8-4.7L114.9,55.1z M120.3,30l-0.4,1.8l-5.7,4.8l-3.8-4.8l0.4-1.8l5.7-4.7
	L120.3,30z"/>
<path d="M178.4,47.8l-3.8,17.7l-4.5,3.7l-2.9-3.7l3.8-17.7l4.5-3.7L178.4,47.8z M174.2,74.2l-2.9-3.8l4.5-3.7H192l2.9,3.7l-4.5,3.8
	H174.2z M180.5,37.8l-4.5,3.8l-2.9-3.8l3.8-17.7l4.5-3.6l2.9,3.7C184.3,20.2,180.5,37.8,180.5,37.8z M186,18.9l-3-3.8l4.5-3.6h16.3
	l3,3.7l-4.5,3.7H186L186,18.9z M204.8,47.8L201,65.5l-4.5,3.7l-2.9-3.7l3.8-17.7l4.5-3.7L204.8,47.8z M203.2,20.2l4.5-3.7l2.9,3.7
	l-3.8,17.6l-4.5,3.8l-3-3.8C199.4,37.8,203.2,20.2,203.2,20.2z"/>
<g id="Layer_4">
	<path d="M25.9,47.2l-3.8,17.7l-4.5,3.7l-2.9-3.7l3.8-17.7l4.5-3.7L25.9,47.2z M21.7,73.6l-2.9-3.8l4.5-3.7h16.3l2.9,3.7L38,73.6
		H21.7z M28,37.2L23.5,41l-2.9-3.8l3.8-17.7l4.5-3.6l2.9,3.7L28,37.2z M33.5,18.3l-3-3.8l4.5-3.6h16.3l3,3.7l-4.5,3.7H33.5
		L33.5,18.3z M52.3,47.2l-3.8,17.7L44,68.6l-2.9-3.7l3.8-17.7l4.5-3.7L52.3,47.2z M50.7,19.6l4.5-3.7l2.9,3.7l-3.8,17.6L49.8,41
		l-3-3.8C46.9,37.1,50.7,19.6,50.7,19.6z"/>
</g>
<g id="Layer_3">
	<path d="M69.3,48.1l-3.8,17.7L61,69.6l-2.9-3.7l3.8-17.7l4.5-3.7C66.4,44.5,69.3,48.1,69.3,48.1z M65.1,74.6l-2.9-3.8l4.5-3.7H83
		l2.9,3.7l-4.5,3.8H65.1z M71.4,38.2L66.9,42L64,38.2l3.8-17.7l4.5-3.6l2.9,3.7 M76.8,19.3l-3-3.8l4.5-3.6h16.3l3,3.7l-4.5,3.7H76.8
		L76.8,19.3z M95.7,48.1l-3.8,17.7l-4.5,3.7l-2.9-3.7l3.8-17.7l4.5-3.7L95.7,48.1z"/>
	<polygon points="70.7,47.2 67.8,43.4 72.3,39.7 88.6,39.7 91.5,43.4 87,47.2 	"/>
</g>
<g id="Layer_2_1_">
	<path d="M135,48.4l-3.8,17.7l-4.5,3.7l-2.9-3.7l3.8-17.7l4.5-3.7C132.1,44.7,135,48.4,135,48.4z M130.8,74.8l-2.9-3.8l4.5-3.7h16.3
		l2.9,3.7l-4.5,3.8H130.8z M137.1,38.4l-4.5,3.8l-2.9-3.8l3.8-17.7l4.5-3.6l2.9,3.7C140.9,20.8,137.1,38.4,137.1,38.4z M142.6,19.5
		l-3-3.8l4.5-3.6h16.3l3,3.7l-4.5,3.7H142.6L142.6,19.5z M161.4,48.4l-3.8,17.7l-4.5,3.7l-2.9-3.7l3.8-17.7l4.5-3.7L161.4,48.4z
		 M159.8,20.8l4.5-3.7l2.9,3.7l-3.8,17.6l-4.5,3.8l-3-3.8C156,38.4,159.8,20.8,159.8,20.8z"/>
</g>
</svg>
