<?xml version="1.0" encoding="utf-8"?>
<!-- Generator: Adobe Illustrator 22.0.0, SVG Export Plug-In . SVG Version: 6.00 Build 0)  -->
<svg version="1.1" id="_xB7__xB9_ÀÌ_xBE_î_x5F_2"
	 xmlns="http://www.w3.org/2000/svg" xmlns:xlink="http://www.w3.org/1999/xlink" x="0px" y="0px" viewBox="0 0 1133.9 878.7"
	 style="enable-background:new 0 0 1133.9 878.7;" xml:space="preserve">
<style type="text/css">
	.st0{fill:#FFE6C4;stroke:#593824;stroke-width:1.7325;stroke-linecap:round;stroke-linejoin:round;}
	.st1{fill:#4EC4CF;stroke:#593824;stroke-width:1.7325;}
	.st2{fill:#DE1B53;stroke:#593824;stroke-width:1.7325;}
	.st3{fill:#FFFFFF;}
	.st4{fill:#C9966E;stroke:#593824;stroke-width:1.7325;stroke-linecap:round;stroke-linejoin:round;}
	.st5{fill:#F280B3;stroke:#593824;stroke-width:1.7325;}
	.st6{opacity:0.32;fill:#9A59A4;enable-background:new    ;}
	.st7{fill:#A46198;stroke:#593824;stroke-width:1.6579;}
	.st8{fill:#FFFFFF;stroke:#231F20;stroke-width:1.7325;}
	.st9{fill:#FFE6C4;stroke:#593824;stroke-width:1.7506;stroke-linecap:round;stroke-linejoin:round;}
	.st10{fill:#A46198;stroke:#593824;stroke-width:1.7506;}
	.st11{fill:#B3B3B3;stroke:#231F20;stroke-width:1.7325;}
	.st12{fill:#FFFFFF;stroke:#593824;stroke-width:1.7325;}
	.st13{fill:#C9966E;}
	.st14{fill:none;stroke:#593824;stroke-width:1.4956;stroke-linecap:round;stroke-linejoin:round;}
	.st15{fill:#593824;}
	.st16{fill:#521300;}
	.st17{fill:none;stroke:#593824;stroke-width:1.7325;stroke-linecap:round;stroke-linejoin:round;}
	.st18{fill:#FFE6C4;stroke:#593824;stroke-width:0.8662;}
	.st19{fill:#ED1C24;}
	.st20{opacity:0.42;}
	.st21{fill:#82A3BF;stroke:#593824;}
	.st22{fill:none;stroke:#593824;stroke-linejoin:round;stroke-dasharray:12,2;}
	.st23{fill:#AEDEE4;stroke:#593824;stroke-width:1.7325;}
	.st24{fill:#AEDEE4;stroke:#593824;stroke-width:1.6579;}
	.st25{fill:#F99F23;stroke:#231F20;stroke-width:2;}
	.st26{fill:#FFE600;}
	.st27{fill:#FFF0D8;stroke:#231F20;}
	.st28{fill:#AEDEE4;stroke:#593824;stroke-width:1.7506;}
	.st29{fill:none;}
	.st30{font-family:'ArialMT';}
	.st31{font-size:137.2866px;}
</style>
<path class="st0" d="M933.4,685.9l-2.9,103.5c0,0-15.7,14.2-24,1.5c-8.6-12.7-9.8-106.2-9.8-106.2S924.9,694.5,933.4,685.9z"/>
<path class="st1" d="M932.5,716l-2,73.3c0,0-15.7,14.2-24,1.5c-5.1-7.6-7.6-44.9-8.8-73.1L932.5,716z"/>
<path class="st2" d="M933.4,777.8c0,0,38.2,22.6,16.9,35.3c-21.3,12.7-45.4,5.6-48.1-35.3C902.3,777.8,929,804.8,933.4,777.8z"/>
<path class="st3" d="M929.8,718.7l-0.2,8.6c-2,4.2-3.9,7.1-4.9,4.2c-2.5-6.6-2.5-6.6-2.5-6.6s-4.2,9.6-7.6,4.7
	c-3.7-4.7-3.7-4.7-3.7-4.7s-4.2,14.2-9.6,5.4c-0.2-0.2-0.2-0.5-0.5-1c-0.2-3.2-0.2-6.4-0.5-9.3L929.8,718.7z"/>
<path class="st0" d="M801.1,690.8l2.9,103.5c0,0,15.7,14.2,24,1.5c8.6-12.7,9.8-106.2,9.8-106.2S809.6,699.4,801.1,690.8z"/>
<path class="st1" d="M801.8,720.9l2,73.3c0,0,15.7,14.2,24,1.5c5.1-7.6,7.6-44.9,8.8-73.1L801.8,720.9z"/>
<path class="st4" d="M873.9,73c0,0-91.2-29.7-153,31.9s-97.6,220.9-40.5,280.2c0,0-10.5,31.9-25.5,15c0,0,7.6,13.5,22.1,18.6
	c9.8,3.4,23,3.2,39.5-8.1c0,0,2.2,21.3-16.9,19.1c0,0,78.7,16.9,95.6-2.2c16.9-19.1,67.9,4.2,67.9,4.2s46.8,8.6,61.5,4.2
	c15-4.2,89.2,8.6,106.2-25.5c0,0-21.3,8.6-21.3-4.2c0,0,27.7,8.6,53.2-21.3c0,0-25.5,2.2-23.3-16.9c2.2-19.1,21.3-87,4.2-144.4
	C1026.8,166.4,1016.3,11.2,873.9,73z"/>
<path class="st5" d="M921.4,413.3c0,0,86.3,213.8,84.8,263.3c0,0-279,67.9-280.2-14.2l52.5-252C778.5,410.6,907.2,404.9,921.4,413.3
	z"/>
<path class="st2" d="M801.1,783c0,0-38.2,22.6-16.9,35.3c21.3,12.7,45.4,5.6,48.1-35.3C832.2,783,805.2,809.7,801.1,783z"/>
<path class="st3" d="M804.7,723.9l0.2,8.6c2,4.2,3.9,7.1,4.9,4.2c2.5-6.6,2.5-6.6,2.5-6.6s4.2,9.6,7.6,4.7c3.7-4.7,3.7-4.7,3.7-4.7
	s4.2,14.2,9.6,5.4c0.2-0.2,0.2-0.5,0.5-1c0.2-3.2,0.2-6.4,0.5-9.3L804.7,723.9z"/>
<path class="st6" d="M860.4,603.8c0,0-100-77.7-76.7-116.7s63.7-1.2,63.7-1.2s31.9-46.1,62.3-30.4
	C940.1,471.4,916.8,555.2,860.4,603.8z"/>
<path class="st7" d="M776.3,414.7c0,0-129.4,43.9-141.2,71.8c0,0,24-3.9,26.7,2.5c0,0,83.1-37,106.6-36.8
	C792,452.7,788.5,420.4,776.3,414.7z"/>
<polygon class="st8" points="558.8,487.1 791,477 783.4,649.1 764.3,654 752.3,673.9 540.5,673.9 "/>
<path class="st9" d="M798.6,508.4c0,0-37,15.9-35.8,28.9c1.2,12.7,1.2,33.6,2.5,20.8c1.2-12.7,6.4-20.8,6.4-20.8s-3.9,33.6,0,22.6
	c3.9-11.3,6.4-24,6.4-24s1.2,40.2,2.5,25.7s6.4-24,6.4-24s-1.2,41.7,2.5,25.7c3.9-15.9,5.1-24,5.1-24l8.8-6.4L798.6,508.4z"/>
<path class="st0" d="M645.9,469.9c0,0-13.5,17.4-10.8,29.9c0,0,9.8,18.1,8.1,9.8c-2-8.3-0.2-14.5-0.2-14.5s4.4,26.5,6.1,14.5
	c1.7-12,0.2-18.9,0.2-18.9s14,30.2,12.5,17.4c-1.5-12.7-3.7-22.3-3.7-22.3s22.3,28.4,19.6,15.9c-2.7-12.5-7.6-20.6-7.6-20.6l2.2-5.6
	C672.1,475.8,654.2,462.1,645.9,469.9z"/>
<path class="st10" d="M933.2,410.6c0,0,77.2,72.1,58.8,85.1C973.6,508.4,797.1,539,797.1,539l-6.9-36.3c0,0,167-18.1,166-27.7
	c-1-9.6-24.8-24.5-24.8-24.5S914.1,404.2,933.2,410.6z"/>
<polyline class="st11" points="753,673.1 782.2,650.1 755,632.2 751,674.9 "/>
<path class="st12" d="M791.2,417.4c0,0-9.6,34.6,16.9,39.7c26.5,5.1,40.9-23,40.9-23s36,43.6,56.6,2.5c20.3-40.9,2.5-34.6,2.5-34.6
	L791.2,417.4z"/>
<path class="st0" d="M689.3,206.6c0,0-48.8,173.1,129.4,218.7c0,0,8.6,11.8,29.7,7.4c21.3-4.2,23.3-7.4,23.3-7.4
	s145.4-19.1,154-116.7C1034.2,211,922.9,19.8,689.3,206.6z"/>
<path class="st13" d="M672.1,257.6c0,0,89.2-59.6,182.6-44.6c0,0-10.5-27.7,2.2-36c0,0-4.2,31.9,10.5,36c0,0,116.7,0,161.3,34.1
	c0,0,25.5-112.5-76.5-144.4C850.6,70.8,684.8,66.6,672.1,257.6z"/>
<path class="st14" d="M755,250.7c0,0,12.7-14.2,34.8-6.4"/>
<path class="st14" d="M890.8,243.6c0,0,21.1-15.9,41.9,4.9"/>
<path class="st15" d="M782.7,276.7c0,2.5-2,4.2-4.2,4.2c-2.5,0-4.2-2-4.2-4.2c0-2.5,2-4.2,4.2-4.2
	C780.7,272.6,782.7,274.5,782.7,276.7z"/>
<path class="st15" d="M907.9,276.7c0,2.5-2,4.2-4.2,4.2c-2.5,0-4.2-2-4.2-4.2c0-2.5,2-4.2,4.2-4.2
	C906,272.6,907.9,274.5,907.9,276.7z"/>
<path class="st15" d="M830.7,305.4c0,0-3.4,11.8,26,10.3c0,0-5.9,6.6-13,4.4C836.6,317.7,823.6,314.7,830.7,305.4z"/>
<path class="st16" d="M780.5,328.7c0,0,59.6,53.2,133.9-8.6c0,0-15,67.9-74.3,61.5C780.5,375.5,780.5,328.7,780.5,328.7z"/>
<path class="st3" d="M800.3,342.9c7.4,8.6,21.8,20.1,44.1,18.9c31.1-2,46.6-6.4,52.5-27.7C855.5,359.6,820.4,352,800.3,342.9z"/>
<path class="st17" d="M679.7,251.2c0,0,110.3-58.3,175.3-38.2c0,0-8.6-29.7,2.2-36c0,0-4.2,32.9,10.5,36c0,0,119.9,1,157.1,31.9"/>
<path class="st15" d="M976.8,137.7c0,0,37.3,53.2,30.9,94.4C1007.7,232.1,1023.7,207.8,976.8,137.7z"/>
<path class="st15" d="M710.8,161c0,0-37.3,53.2-30.9,94.4C680.2,255.6,664.3,231.1,710.8,161z"/>
<path class="st15" d="M851.6,81.3c0,0-105.2-8.6-106.2,143.4C745.4,224.8,751.8,86.7,851.6,81.3z"/>
<path class="st15" d="M903.8,100.5c0,0,61.5,71.1,48.8,123.1C952.6,223.8,978.1,171.6,903.8,100.5z"/>
<g>
	<path class="st15" d="M750.8,290.5c0,0.2-0.7,0.5-1.5,0.5c-0.7,0-1.5-0.2-1.5-0.5s0.7-0.5,1.5-0.5
		C750.1,290,750.8,290.2,750.8,290.5z"/>
	<path class="st15" d="M765.7,291.7c0,0.2-0.7,0.5-1.5,0.5c-0.7,0-1.5-0.2-1.5-0.5s0.7-0.5,1.5-0.5
		C765,291.2,765.7,291.4,765.7,291.7z"/>
	<path class="st15" d="M750.8,302.2c0,0.2-0.7,0.5-1.5,0.5c-0.7,0-1.5-0.2-1.5-0.5c0-0.2,0.7-0.5,1.5-0.5
		C750.1,301.7,750.8,302,750.8,302.2z"/>
</g>
<g>
	<path class="st15" d="M925.3,291.2c0,0.2-0.7,0.5-1.5,0.5c-0.7,0-1.5-0.2-1.5-0.5c0-0.2,0.7-0.5,1.5-0.5
		C924.6,290.5,925.3,290.7,925.3,291.2z"/>
	<path class="st15" d="M940.1,292.2c0,0.2-0.7,0.5-1.5,0.5s-1.5-0.2-1.5-0.5c0-0.2,0.7-0.5,1.5-0.5
		C939.6,291.7,940.1,291.9,940.1,292.2z"/>
	<path class="st15" d="M925.3,302.7c0,0.2-0.7,0.5-1.5,0.5c-0.7,0-1.5-0.2-1.5-0.5s0.7-0.5,1.5-0.5
		C924.6,302.2,925.3,302.5,925.3,302.7z"/>
</g>
<g>
	<path class="st0" d="M673.8,262c0,0-23.5-19.9-24.3,10.8c-0.7,30.6,24.5,42.2,39,35.8C688.5,308.6,679.5,277.9,673.8,262z"/>
	<path class="st18" d="M675,271.3c0,0-11,18.6,6.4,21.3"/>
</g>
<g>
	<path class="st0" d="M1030.8,259.6c0,0,18.6-24.5,26.2,5.1c7.4,29.9-14.7,46.6-30.2,43.6C1026.6,308.3,1028.8,276.5,1030.8,259.6z"
		/>
	<path class="st18" d="M1031.7,269.1c0,0,15,15.7-1.5,22.1"/>
</g>
<g>
	<path class="st19" d="M710.8,161c0,0,115-154.7,267-21.6l25.5,27.7c0,0-2.9-56.6-94.1-86.3C818,50.9,738.3,93.3,710.8,161z"/>
	<g class="st20">
		<path class="st3" d="M834.1,71.8c-1.7,0.2-3.7,0.2-5.4,0.5L818.9,88l-14-10.5c-1.7,0.5-3.4,1-4.9,1.5l15,11.3
			c2.9-0.7,5.9-1.5,9.1-2.2L834.1,71.8z"/>
		<path class="st3" d="M744.9,111.5c-1,1-2.2,2-3.2,3.2l11.3,6.1c1.2-1,2.5-1.7,3.9-2.7L744.9,111.5z"/>
		<path class="st3" d="M886.1,74.7c-1.5-0.2-3.2-0.5-4.7-1l5.1,15.4c1.7,0.5,3.2,0.7,4.9,1.2L886.1,74.7z"/>
		<path class="st3" d="M740,116.6c-1.2,1.5-2.7,2.7-3.9,4.2l1,13c1.2-1.2,2.7-2.2,3.9-3.4L740,116.6z"/>
		<path class="st3" d="M799.8,79.1c-1.7,0.5-3.7,1.2-5.4,2l-7.8,19.1l-14-9.1c-2.9,1.7-5.6,3.4-8.3,5.1l-4.4,19.6
			c1.7-1.2,3.4-2.2,5.1-3.4l4.2-18.6l13.5,8.6c2.9-1.5,6.1-2.9,9.3-4.4L799.8,79.1z"/>
		<path class="st3" d="M842,71.3c-1.7,0-3.7,0.2-5.4,0.2l12.3,13.7c2,0,3.7,0,5.6,0L842,71.3z"/>
		<path class="st3" d="M904.5,79.1l-11.3,11.8c1.5,0.5,3.2,0.7,4.7,1.2l11.3-11.8C907.4,80.1,906,79.6,904.5,79.1z"/>
		<path class="st3" d="M722.1,139.4l7.4,1.2c1.2-1.2,2.5-2.5,3.9-3.7l-8.8-1.5C723.8,136.7,722.8,138,722.1,139.4z"/>
		<path class="st3" d="M872.9,72.5l-15.4,13c2,0,4.2,0.2,6.1,0.2l15-12.5C876.8,73,874.8,72.8,872.9,72.5z"/>
		<path class="st3" d="M987.1,130.1l-10.3,8.3c0.5,0.2,0.7,0.7,1.2,1l2,2l9.8-7.8C988.8,132.3,987.9,131.1,987.1,130.1z"/>
		<path class="st3" d="M917.5,83.5c-1.5-0.5-2.9-1-4.7-1.5l2.9,17.2c1.5,0.7,3.2,1.5,4.7,2.2L917.5,83.5z"/>
		<path class="st3" d="M995.7,143.4c-1-1.7-2-3.7-3.2-5.6l-2.7,14.2l3.7,3.9L995.7,143.4z"/>
		<path class="st3" d="M1000.4,153.9l-6.4,2.9l2.9,3.2l4.7-2C1001.3,156.6,1000.9,155.4,1000.4,153.9z"/>
		<path class="st3" d="M973.6,115.7c-1.5-1.2-2.9-2.7-4.7-3.9l1.7,21.6c1.5,1.2,2.9,2.7,4.7,3.9L973.6,115.7z"/>
		<path class="st3" d="M933.2,89.9l-10.3,12.3c1.2,0.7,2.7,1.2,3.9,2l10.3-12.5C935.9,91.1,934.4,90.4,933.2,89.9z"/>
		<path class="st3" d="M945.7,96c-1.5-0.7-3.2-1.7-4.7-2.5l3.7,20.8c1.7,1,3.2,2,4.9,3.2L945.7,96z"/>
		<path class="st3" d="M961.9,106.3l-12,11.5c1.2,0.7,2.5,1.7,3.4,2.5l11.8-11.5C964.3,108.1,963.1,107.1,961.9,106.3z"/>
	</g>
</g>
<image style="overflow:visible;enable-background:new    ;" width="364" height="371" xlink:href="3D480B48.png"  transform="matrix(0.7503 0 0 0.7641 824.6244 175.8867)">
</image>
<image style="overflow:visible;enable-background:new    ;" width="364" height="367" xlink:href="3D480B49.png"  transform="matrix(0.7521 0 0 0.766 600.5435 175.8867)">
</image>
<g>
	<g>
		<path class="st0" d="M432.3,668.7l-2.9,103.5c0,0-15.7,14.2-24,1.5c-8.6-12.7-9.8-106.2-9.8-106.2S424,677.3,432.3,668.7z"/>
		<path class="st1" d="M431.6,698.9l-2,73.3c0,0-15.7,14.2-24,1.5c-5.1-7.6-7.6-44.9-8.8-73.1L431.6,698.9z"/>
		<path class="st2" d="M432.3,760.7c0,0,38.2,22.6,16.9,35.3c-21.3,12.7-45.4,5.6-48.1-35.3C401.2,760.7,428.2,787.6,432.3,760.7z"
			/>
		<path class="st3" d="M428.7,701.6l-0.2,8.6c-2,4.2-3.9,7.1-4.9,4.2c-2.5-6.6-2.5-6.6-2.5-6.6s-4.2,9.6-7.6,4.7
			c-3.7-4.7-3.7-4.7-3.7-4.7s-4.2,14.2-9.6,5.4c-0.2-0.2-0.2-0.5-0.5-1c-0.2-3.2-0.2-6.4-0.5-9.3L428.7,701.6z"/>
		<polygon class="st21" points="461.8,573.6 439,746.9 391.4,742 385,590 		"/>
		<line class="st22" x1="448.8" y1="583.4" x2="430.6" y2="738.6"/>
	</g>
	<g>
		<path class="st0" d="M322.8,668.7l2.9,103.5c0,0,15.7,14.2,24,1.5c8.6-12.7,9.8-106.2,9.8-106.2S331.3,677.3,322.8,668.7z"/>
		<path class="st1" d="M323.5,698.9l2,73.3c0,0,15.7,14.2,24,1.5c5.1-7.6,7.6-44.9,8.8-73.1L323.5,698.9z"/>
		<path class="st2" d="M322.8,760.7c0,0-38.2,22.6-16.9,35.3c21.3,12.7,45.4,5.6,48.1-35.3C353.9,760.7,326.9,787.6,322.8,760.7z"/>
		<path class="st3" d="M326.4,701.6l0.2,8.6c2,4.2,3.9,7.1,4.9,4.2c2.5-6.6,2.5-6.6,2.5-6.6s4.2,9.6,7.6,4.7
			c3.7-4.7,3.7-4.7,3.7-4.7s4.2,14.2,9.6,5.4c0.2-0.2,0.2-0.5,0.5-1c0.2-3.2,0.2-6.4,0.5-9.3L326.4,701.6z"/>
		<polygon class="st21" points="293.3,573.6 316.4,746.9 363.7,742 370.3,590 		"/>
		<line class="st22" x1="306.6" y1="583.4" x2="324.5" y2="738.6"/>
	</g>
	<path class="st23" d="M442.1,380.7c0,0,37.5,176.5,37.5,192.9c0,0-155.2,52.2-235.3,0l34.3-189.5
		C278.6,384.1,420.8,362.8,442.1,380.7z"/>
	<path class="st4" d="M430.6,22.7c0,0-22.8-24.5-40.9-13c0,0,34.3,14.7,22.8,21.3c0,0-142.2-3.2-183.1,44.1s-120.9,196.1-8.1,279.5
		l152,36c0,0,127.5-1.7,171.6-70.4c44.1-68.6,26.2-169.9,9.8-201c-16.4-31.1-78.4-75.3-99.8-76.7c0,0,14.7-22.8,27.7-14.7
		C483.1,27.6,448.8,14.7,430.6,22.7z"/>
	<path class="st24" d="M281.8,382.9c0,0-129.4,43.9-141.2,71.8c0,0,24-3.9,26.7,2.5c0,0,83.4-40.5,106.6-36.8
		C290.9,423.3,294.1,388.5,281.8,382.9z"/>
	<path class="st12" d="M300.2,393.7c0,0-9.6,34.6,16.9,39.7c26.5,5.1,40.9-23,40.9-23s36,43.6,56.6,2.5c20.3-40.9,2.5-34.6,2.5-34.6
		L300.2,393.7z"/>
	<path class="st0" d="M198,183.1c0,0-48.8,173.1,129.4,218.7c0,0,8.6,11.8,29.7,7.4c21.1-4.4,23.3-7.4,23.3-7.4
		s145.4-19.1,154-116.7C543.1,187.2,431.6-4,198,183.1z"/>
	<path class="st13" d="M181.1,234.1c0,0,89.2-59.6,182.6-44.6c0,0-10.5-27.7,2.2-36c0,0-4.2,31.9,10.5,36c0,0,116.7,0,161.3,34.1
		c0,0,25.5-112.5-76.5-144.4C359.5,47,193.8,42.8,181.1,234.1z"/>
	<path class="st14" d="M263.9,227.2c0,0,12.7-14.2,34.8-6.4"/>
	<path class="st14" d="M399.7,220.1c0,0,21.1-15.9,41.9,4.9"/>
	<path class="st15" d="M291.4,252.9c0,2.5-2,4.2-4.2,4.2c-2.5,0-4.2-2-4.2-4.2c0-2.5,2-4.2,4.2-4.2
		C289.7,248.8,291.4,250.7,291.4,252.9z"/>
	<path class="st15" d="M416.9,252.9c0,2.5-2,4.2-4.2,4.2c-2.5,0-4.2-2-4.2-4.2c0-2.5,2-4.2,4.2-4.2
		C414.9,248.8,416.9,250.7,416.9,252.9z"/>
	<path class="st15" d="M339.4,281.6c0,0-3.4,11.8,26,10.3c0,0-5.9,6.6-13,4.4C345.3,294.1,332.3,291.2,339.4,281.6z"/>
	<path class="st16" d="M289.4,305.2c0,0,59.6,53.2,133.9-8.6c0,0-15,67.9-74.3,61.5C289.4,351.7,289.4,305.2,289.4,305.2z"/>
	<path class="st3" d="M309,319.1c7.4,8.6,21.8,20.1,44.1,18.9c31.1-2,46.6-6.4,52.5-27.7C364.2,335.8,329.1,328.2,309,319.1z"/>
	<path class="st17" d="M188.4,227.7c0,0,110.3-58.3,175.3-38.2c0,0-8.6-29.7,2.2-36c0,0-4.2,32.9,10.5,36c0,0,119.9,1,157.1,31.9"/>
	<path class="st15" d="M485.8,113.9c0,0,37.3,53.2,30.9,94.4C516.7,208.6,532.6,184.1,485.8,113.9z"/>
	<path class="st15" d="M219.8,137.2c0,0-37.3,53.2-30.9,94.4C188.9,231.9,173,207.3,219.8,137.2z"/>
	<path class="st15" d="M360.5,57.8c0,0-105.2-8.6-106.2,143.4C254.4,201,260.7,62.9,360.5,57.8z"/>
	<path class="st15" d="M412.5,76.7c0,0,61.5,71.1,48.8,123.1C461.3,200,486.8,148,412.5,76.7z"/>
	<g>
		<path class="st15" d="M259.8,266.9c0,0.2-0.7,0.5-1.5,0.5c-0.7,0-1.5-0.2-1.5-0.5s0.7-0.5,1.5-0.5
			C259,266.4,259.8,266.7,259.8,266.9z"/>
		<path class="st15" d="M274.5,267.9c0,0.2-0.7,0.5-1.5,0.5c-0.7,0-1.5-0.2-1.5-0.5c0-0.2,0.7-0.5,1.5-0.5
			C274,267.4,274.5,267.7,274.5,267.9z"/>
		<path class="st15" d="M259.8,278.4c0,0.2-0.7,0.5-1.5,0.5c-0.7,0-1.5-0.2-1.5-0.5c0-0.2,0.7-0.5,1.5-0.5
			C259,277.9,259.8,278.2,259.8,278.4z"/>
	</g>
	<g>
		<path class="st15" d="M434.1,267.4c0,0.2-0.7,0.5-1.5,0.5s-1.5-0.2-1.5-0.5c0-0.2,0.7-0.5,1.5-0.5
			C433.6,266.9,434.1,267.2,434.1,267.4z"/>
		<path class="st15" d="M449,268.4c0,0.2-0.7,0.5-1.5,0.5c-0.7,0-1.5-0.2-1.5-0.5c0-0.2,0.7-0.5,1.5-0.5
			C448.3,267.9,449,268.1,449,268.4z"/>
		<path class="st15" d="M434.1,279.2c0,0.2-0.7,0.5-1.5,0.5s-1.5-0.2-1.5-0.5s0.7-0.5,1.5-0.5C433.6,278.4,434.1,278.7,434.1,279.2z
			"/>
	</g>
	<g>
		<path class="st0" d="M182.5,238.2c0,0-23.5-19.9-24.3,10.8s24.5,42.2,39,35.8C197.2,284.8,188.2,254.2,182.5,238.2z"/>
		<path class="st18" d="M183.8,247.8c0,0-11,18.6,6.4,21.3"/>
	</g>
	<g>
		<path class="st0" d="M539.5,235.8c0,0,18.6-24.5,26.2,5.1c7.4,29.9-14.7,46.6-30.2,43.6C535.5,284.6,537.8,252.7,539.5,235.8z"/>
		<path class="st18" d="M540.5,245.3c0,0,15,15.7-1.5,22.1"/>
	</g>
	
		<image style="overflow:visible;enable-background:new    ;" width="364" height="367" xlink:href="3D480B4F.png"  transform="matrix(0.7585 0 0 0.7724 332.0081 152.1876)">
	</image>
	
		<image style="overflow:visible;enable-background:new    ;" width="364" height="364" xlink:href="3D480B4A.png"  transform="matrix(0.7583 0 0 0.7723 108.2872 152.1876)">
	</image>
	<path class="st25" d="M152.9,178.2c0,0-109.1,48.5-116.7,72.6l187.1,327.8l78.4,165L421.1,830l-26.2-147.1L152.9,178.2z"/>
	<path class="st26" d="M66.6,226.5l280.9,540.1l34.3-40.7L125.4,194.4C107.8,202.9,84.7,214.7,66.6,226.5z"/>
	<path class="st27" d="M394.8,683.2l-1-2.2l-3.9-4.4c0,0-16.4-19.6-42.4-40.9c-26.2-21.3,9.8,49,16.4,70.4
		c6.6,21.3-17.9-22.8-39.2-45.8c-21.3-22.8,6.6,32.6,17.4,51.5c10.8,18.6-15.7-10.5-40.2-27c-24.5-16.4,0,58.8,0,58.8L421.3,830
		L394.8,683.2z"/>
	<path class="st15" d="M394.1,810.7l27,19.6l-5.1-28.4C406.8,802.3,399.5,806.5,394.1,810.7z"/>
	<path class="st0" d="M141.6,469.4c0,0,13.7,17.4,26.5,17.7c0,0,19.9-5.1,11.5-5.4c-8.6-0.2-14-3.2-14-3.2s27,2,15.7-2.5
		c-11.3-4.4-18.4-4.7-18.4-4.7s32.6-6.4,20.1-8.1c-12.7-1.7-22.6-2-22.6-2s32.9-14.7,20.1-15.2c-12.7-0.2-21.8,2.5-21.8,2.5
		l-4.9-3.4C153.6,445.4,136.2,459.4,141.6,469.4z"/>
	<path class="st9" d="M307.3,484.9c0,0-37,15.9-35.8,28.9c1.2,12.7,1.2,33.6,2.5,20.8c1.2-12.7,6.4-20.8,6.4-20.8s-3.9,33.6,0,22.6
		c3.9-11.3,6.4-24,6.4-24s1.2,40.2,2.5,25.7s6.4-24,6.4-24s-1.2,41.7,2.5,25.7c3.9-15.9,5.1-24,5.1-24l8.8-6.4L307.3,484.9z"/>
	<path class="st28" d="M446.3,389c0,0,73.1,70.1,54.7,83.1c-18.4,12.7-194.9,43.4-194.9,43.4l-6.9-36.3c0,0,167-18.1,166-27.7
		c-1-9.6-28.9-25.7-28.9-25.7S426.9,382.4,446.3,389z"/>
</g>
<path class="st29" d="M734.1,682.9c-0.2-0.2-0.2-0.2-0.5-0.5c0,0.5-0.2,1-0.2,1.5C733.6,683.4,733.9,683.2,734.1,682.9z"/>
<path class="st15" d="M446.1,835.2c0,0-47.1-0.7,47.1-1.7c94.1-0.7,113.8,25.7-9.8,34.8s-98.3-0.7-41.7-4.2
	c56.9-3.2,156.4-13.2,107.1-19.9C499.8,837.6,446.1,835.2,446.1,835.2z"/>
<rect x="626.7" y="523.1" class="st29" width="112.8" height="107.9"/>
<text transform="matrix(1 0 0 1 626.6831 620.6961)" class="st30 st31">2</text>
</svg>
