<?xml version="1.0" encoding="utf-8"?>
<!-- Generator: Adobe Illustrator 22.0.0, SVG Export Plug-In . SVG Version: 6.00 Build 0)  -->
<svg version="1.1" id="Ebene_1" xmlns="http://www.w3.org/2000/svg" xmlns:xlink="http://www.w3.org/1999/xlink" x="0px" y="0px"
	 viewBox="0 0 595.3 300" style="enable-background:new 0 0 595.3 300;" xml:space="preserve">
<style type="text/css">
	.st0{fill:#87888A;}
	.st1{fill:#58585A;}
	.st2{fill:none;stroke:#87888A;stroke-width:5.6167;stroke-miterlimit:10;}
	.st3{fill:none;stroke:#58585A;stroke-width:11.4534;stroke-miterlimit:10;}
	.st4{fill:none;stroke:#58585A;stroke-width:1.5128;stroke-miterlimit:10;}
	.st5{fill:none;stroke:#9C9E9F;stroke-width:5.6693;stroke-miterlimit:10;}
	.st6{fill:none;stroke:#9C9E9F;stroke-miterlimit:10;}
	.st7{fill:#9C9E9F;}
	.st8{fill:#707173;}
	.st9{fill:none;stroke:#707173;stroke-width:4.252;stroke-miterlimit:10;}
	.st10{fill:#009EE0;}
</style>
<polygon class="st0" points="232.3,146 238.4,143.8 260.9,202.7 256.7,203.1 252.9,205.5 "/>
<rect x="225.7" y="140.9" class="st1" width="17.1" height="5.6"/>
<g>
	<g>
		
			<ellipse transform="matrix(0.7071 -0.7071 0.7071 0.7071 -96.7003 153.9134)" class="st2" cx="137.4" cy="193.7" rx="80.1" ry="80.1"/>
		<path class="st3" d="M224.8,193.7c0,48.1-39,87.3-87.3,87.3c-48.1,0-87.3-39-87.3-87.3s39-87.3,87.3-87.3
			C185.6,106.5,224.8,145.5,224.8,193.7z"/>
	</g>
	<rect x="135.4" y="98.5" class="st1" width="4.2" height="3.5"/>
	
		<rect x="127.3" y="98.8" transform="matrix(0.9962 -8.717287e-02 8.717287e-02 0.9962 -8.2741 11.6577)" class="st1" width="4.2" height="3.5"/>
	
		<rect x="119.1" y="99.9" transform="matrix(0.9848 -0.1736 0.1736 0.9848 -15.808 22.5856)" class="st1" width="4.2" height="3.5"/>
	
		<rect x="111.2" y="101.7" transform="matrix(0.966 -0.2586 0.2586 0.966 -22.8928 32.8137)" class="st1" width="4.2" height="3.5"/>
	
		<rect x="103.4" y="104.1" transform="matrix(0.9398 -0.3416 0.3416 0.9398 -29.805 42.3985)" class="st1" width="4.2" height="3.5"/>
	
		<rect x="95.9" y="107.2" transform="matrix(0.9065 -0.4222 0.4222 0.9065 -36.8222 51.5454)" class="st1" width="4.2" height="3.5"/>
	<rect x="88.7" y="111" transform="matrix(0.8662 -0.4996 0.4996 0.8662 -44.189 60.4156)" class="st1" width="4.2" height="3.5"/>
	
		<rect x="81.7" y="115.3" transform="matrix(0.8194 -0.5733 0.5733 0.8194 -51.9799 69.1957)" class="st1" width="4.2" height="3.5"/>
	
		<rect x="75.3" y="120.4" transform="matrix(0.7663 -0.6425 0.6425 0.7663 -60.3834 78.2497)" class="st1" width="4.2" height="3.5"/>
	
		<rect x="69.3" y="125.8" transform="matrix(0.7074 -0.7069 0.7069 0.7074 -69.2854 87.8206)" class="st1" width="4.2" height="3.5"/>
	<rect x="63.7" y="131.8" transform="matrix(0.643 -0.7658 0.7658 0.643 -78.8409 98.0361)" class="st1" width="4.2" height="3.5"/>
	
		<rect x="58.8" y="138.3" transform="matrix(0.5739 -0.8189 0.8189 0.5739 -88.8033 109.5258)" class="st1" width="4.2" height="3.5"/>
	
		<rect x="54.4" y="145.3" transform="matrix(0.5003 -0.8659 0.8659 0.5003 -99.07 122.3733)" class="st1" width="4.2" height="3.5"/>
	
		<rect x="50.6" y="152.5" transform="matrix(0.4231 -0.9061 0.9061 0.4231 -109.3314 136.7666)" class="st1" width="4.2" height="3.5"/>
	
		<rect x="47.5" y="159.9" transform="matrix(0.3426 -0.9395 0.9395 0.3426 -119.3262 152.8862)" class="st1" width="4.2" height="3.5"/>
	
		<rect x="45" y="167.8" transform="matrix(0.2595 -0.9657 0.9657 0.2595 -128.8742 171.0461)" class="st1" width="4.2" height="3.5"/>
	
		<rect x="43.2" y="175.8" transform="matrix(0.1744 -0.9847 0.9847 0.1744 -137.3869 191.2002)" class="st1" width="4.2" height="3.5"/>
	
		<rect x="42.2" y="183.8" transform="matrix(8.793671e-02 -0.9961 0.9961 8.793671e-02 -144.4156 213.3396)" class="st1" width="4.2" height="3.5"/>
	<rect x="42.2" y="191.6" class="st1" width="3.5" height="4.2"/>
	
		<rect x="42.6" y="199.7" transform="matrix(0.9963 -8.639400e-02 8.639400e-02 0.9963 -17.2707 4.5871)" class="st1" width="3.5" height="4.2"/>
	
		<rect x="43.6" y="207.8" transform="matrix(0.9849 -0.1729 0.1729 0.9849 -35.6144 11.0049)" class="st1" width="3.5" height="4.2"/>
	<rect x="45.3" y="215.8" transform="matrix(0.9661 -0.2582 0.2582 0.9661 -54.6576 19.55)" class="st1" width="3.5" height="4.2"/>
	
		<rect x="47.9" y="223.6" transform="matrix(0.9399 -0.3415 0.3415 0.9399 -74.0769 30.518)" class="st1" width="3.5" height="4.2"/>
	<rect x="51" y="231.2" transform="matrix(0.9065 -0.4222 0.4222 0.9065 -93.5531 44.0663)" class="st1" width="3.5" height="4.2"/>
	
		<rect x="54.7" y="238.4" transform="matrix(0.8663 -0.4995 0.4995 0.8663 -112.5939 60.3611)" class="st1" width="3.5" height="4.2"/>
	
		<rect x="59.1" y="245.3" transform="matrix(0.8194 -0.5733 0.5733 0.8194 -130.8045 79.5763)" class="st1" width="3.5" height="4.2"/>
	
		<rect x="64.1" y="251.7" transform="matrix(0.7664 -0.6424 0.6424 0.7664 -147.6799 101.5867)" class="st1" width="3.5" height="4.2"/>
	
		<rect x="69.6" y="257.8" transform="matrix(0.7075 -0.7067 0.7067 0.7075 -162.8136 126.419)" class="st1" width="3.5" height="4.2"/>
	
		<rect x="75.6" y="263.3" transform="matrix(0.643 -0.7658 0.7658 0.643 -175.6077 153.948)" class="st1" width="3.5" height="4.2"/>
	
		<rect x="82.1" y="268.2" transform="matrix(0.5741 -0.8188 0.8188 0.5741 -185.6458 183.772)" class="st1" width="3.5" height="4.2"/>
	
		<rect x="89" y="272.6" transform="matrix(0.5003 -0.8658 0.8658 0.5003 -192.4664 215.7825)" class="st1" width="3.5" height="4.2"/>
	
		<rect x="96.1" y="276.4" transform="matrix(0.4234 -0.9059 0.9059 0.4234 -195.8781 249.2629)" class="st1" width="3.5" height="4.2"/>
	
		<rect x="103.8" y="279.5" transform="matrix(0.3425 -0.9395 0.9395 0.3425 -195.201 284.2951)" class="st1" width="3.5" height="4.2"/>
	
		<rect x="111.5" y="281.9" transform="matrix(0.2594 -0.9658 0.9658 0.2594 -190.3853 319.7725)" class="st1" width="3.5" height="4.2"/>
	
		<rect x="119.5" y="283.8" transform="matrix(0.1743 -0.9847 0.9847 0.1743 -181.3662 355.41)" class="st1" width="3.5" height="4.2"/>
	
		<rect x="127.6" y="284.8" transform="matrix(8.764676e-02 -0.9962 0.9962 8.764676e-02 -167.6866 390.5934)" class="st1" width="3.5" height="4.2"/>
	<rect x="135.4" y="285.5" class="st1" width="4.2" height="3.5"/>
	
		<rect x="143.5" y="285" transform="matrix(0.9962 -8.661288e-02 8.661288e-02 0.9962 -24.29 13.688)" class="st1" width="4.2" height="3.5"/>
	<rect x="151.7" y="284" transform="matrix(0.9849 -0.1733 0.1733 0.9849 -47.2029 30.968)" class="st1" width="4.2" height="3.5"/>
	<rect x="159.5" y="282.3" transform="matrix(0.966 -0.2584 0.2584 0.966 -67.906 51.4149)" class="st1" width="4.2" height="3.5"/>
	
		<rect x="167.3" y="279.8" transform="matrix(0.9397 -0.342 0.342 0.9397 -86.0628 74.9197)" class="st1" width="4.2" height="3.5"/>
	
		<rect x="174.8" y="276.7" transform="matrix(0.9065 -0.4221 0.4221 0.9065 -100.9938 100.7032)" class="st1" width="4.2" height="3.5"/>
	
		<rect x="182.1" y="272.9" transform="matrix(0.8661 -0.4998 0.4998 0.8661 -112.6416 128.83)" class="st1" width="4.2" height="3.5"/>
	
		<rect x="189.1" y="268.5" transform="matrix(0.8194 -0.5733 0.5733 0.8194 -120.4243 158.4015)" class="st1" width="4.2" height="3.5"/>
	
		<rect x="195.5" y="263.6" transform="matrix(0.7663 -0.6425 0.6425 0.7663 -124.2794 188.9745)" class="st1" width="4.2" height="3.5"/>
	
		<rect x="201.5" y="258.1" transform="matrix(0.7072 -0.707 0.707 0.7072 -124.1192 220.0126)" class="st1" width="4.2" height="3.5"/>
	
		<rect x="207.1" y="252" transform="matrix(0.6429 -0.766 0.766 0.6429 -119.6817 250.8287)" class="st1" width="4.2" height="3.5"/>
	<rect x="212" y="245.5" transform="matrix(0.5738 -0.819 0.819 0.5738 -111.2819 280.713)" class="st1" width="4.2" height="3.5"/>
	
		<rect x="216.3" y="238.6" transform="matrix(0.5001 -0.866 0.866 0.5001 -98.9546 309.3159)" class="st1" width="4.2" height="3.5"/>
	
		<rect x="220.1" y="231.5" transform="matrix(0.4228 -0.9062 0.9062 0.4228 -83.0723 335.9919)" class="st1" width="4.2" height="3.5"/>
	
		<rect x="223.2" y="224" transform="matrix(0.3422 -0.9396 0.9396 0.3422 -63.9147 360.1689)" class="st1" width="4.2" height="3.5"/>
	
		<rect x="225.6" y="216.1" transform="matrix(0.2591 -0.9658 0.9658 0.2591 -41.6883 381.3317)" class="st1" width="4.2" height="3.5"/>
	
		<rect x="227.4" y="208.1" transform="matrix(0.1741 -0.9847 0.9847 0.1741 -17.1239 399.3847)" class="st1" width="4.2" height="3.5"/>
	
		<rect x="228.4" y="200.1" transform="matrix(8.772148e-02 -0.9961 0.9961 8.772148e-02 9.1877 413.8398)" class="st1" width="4.2" height="3.5"/>
	<rect x="229.2" y="191.6" class="st1" width="3.5" height="4.2"/>
	
		<rect x="228.8" y="183.4" transform="matrix(0.9962 -8.668037e-02 8.668037e-02 0.9962 -15.2134 20.6844)" class="st1" width="3.5" height="4.2"/>
	
		<rect x="227.8" y="175.5" transform="matrix(0.9849 -0.1734 0.1734 0.9849 -27.3083 42.4846)" class="st1" width="3.5" height="4.2"/>
	
		<rect x="225.9" y="167.4" transform="matrix(0.966 -0.2584 0.2584 0.966 -36.0668 64.5962)" class="st1" width="3.5" height="4.2"/>
	
		<rect x="223.5" y="159.6" transform="matrix(0.9399 -0.3415 0.3415 0.9399 -41.6785 86.6577)" class="st1" width="3.5" height="4.2"/>
	
		<rect x="220.5" y="152.1" transform="matrix(0.9064 -0.4224 0.4224 0.9064 -44.3384 108.3001)" class="st1" width="3.5" height="4.2"/>
	
		<rect x="216.6" y="144.9" transform="matrix(0.8662 -0.4996 0.4996 0.8662 -44.2278 128.757)" class="st1" width="3.5" height="4.2"/>
	
		<rect x="212.3" y="137.9" transform="matrix(0.8193 -0.5733 0.5733 0.8193 -41.6005 148.0088)" class="st1" width="3.5" height="4.2"/>
	
		<rect x="207.3" y="131.6" transform="matrix(0.7662 -0.6426 0.6426 0.7662 -37.0296 165.6063)" class="st1" width="3.5" height="4.2"/>
	
		<rect x="201.8" y="125.5" transform="matrix(0.7072 -0.707 0.707 0.7072 -30.6303 181.2839)" class="st1" width="3.5" height="4.2"/>
	<rect x="195.9" y="120" transform="matrix(0.6429 -0.766 0.766 0.6429 -22.9281 194.974)" class="st1" width="3.5" height="4.2"/>
	
		<rect x="189.4" y="115" transform="matrix(0.5737 -0.8191 0.8191 0.5737 -14.4516 206.5097)" class="st1" width="3.5" height="4.2"/>
	
		<rect x="182.5" y="110.7" transform="matrix(0.5001 -0.866 0.866 0.5001 -5.5717 215.9359)" class="st1" width="3.5" height="4.2"/>
	
		<rect x="175.1" y="106.9" transform="matrix(0.4226 -0.9063 0.9063 0.4226 3.3786 223.2558)" class="st1" width="3.5" height="4.2"/>
	
		<rect x="167.7" y="103.7" transform="matrix(0.3421 -0.9397 0.9397 0.3421 12.0447 228.8597)" class="st1" width="3.5" height="4.2"/>
	
		<rect x="159.9" y="101.3" transform="matrix(0.259 -0.9659 0.9659 0.259 19.9431 232.8005)" class="st1" width="3.5" height="4.2"/>
	<rect x="152" y="99.5" transform="matrix(0.1739 -0.9848 0.9848 0.1739 26.9565 235.3621)" class="st1" width="3.5" height="4.2"/>
	<polygon class="st1" points="147.6,102.5 143.4,102.2 143.7,98.6 147.9,99 	"/>
</g>
<path class="st1" d="M154,194.4c0,9.1-7.4,16.5-16.5,16.5c-9.1,0-16.5-7.4-16.5-16.5s7.4-16.5,16.5-16.5
	C146.6,178,154,185.3,154,194.4z"/>
<line class="st4" x1="125.2" y1="116.1" x2="136.7" y2="181.4"/>
<line class="st4" x1="99.4" y1="125.4" x2="132.5" y2="182.8"/>
<line class="st4" x1="78.4" y1="143" x2="129.2" y2="185.6"/>
<line class="st4" x1="64.7" y1="166.7" x2="127" y2="189.4"/>
<line class="st4" x1="60" y1="193.7" x2="126.3" y2="193.7"/>
<line class="st4" x1="64.7" y1="220.7" x2="127" y2="198.1"/>
<line class="st4" x1="78.4" y1="244.5" x2="129.2" y2="201.8"/>
<line class="st4" x1="99.4" y1="262.1" x2="132.5" y2="204.7"/>
<line class="st4" x1="125.2" y1="271.4" x2="136.7" y2="206.1"/>
<line class="st4" x1="152.5" y1="271.4" x2="141.1" y2="206.1"/>
<line class="st4" x1="178.3" y1="262.1" x2="145.2" y2="204.7"/>
<line class="st4" x1="199.3" y1="244.5" x2="148.5" y2="201.8"/>
<line class="st4" x1="213" y1="220.7" x2="150.7" y2="198.1"/>
<line class="st4" x1="217.7" y1="193.7" x2="151.4" y2="193.7"/>
<line class="st4" x1="213" y1="166.7" x2="150.7" y2="189.4"/>
<line class="st4" x1="199.3" y1="143" x2="148.5" y2="185.6"/>
<line class="st4" x1="178.3" y1="125.4" x2="145.2" y2="182.8"/>
<line class="st4" x1="152.5" y1="116.1" x2="141.1" y2="181.3"/>
<g>
	<g>
		<g>
			<path class="st2" d="M528.6,185.4c4.6,44-27.3,83.4-71.2,88.2c-44,4.6-83.4-27.3-88.2-71.2c-4.6-44,27.3-83.4,71.2-88.2
				C484.5,109.5,524,141.3,528.6,185.4z"/>
			<path class="st3" d="M535.6,184.7c5.1,47.9-29.7,90.9-77.6,96s-90.9-29.7-96-77.6c-5.1-47.9,29.7-90.9,77.6-96
				C487.6,102,530.6,136.7,535.6,184.7z"/>
		</g>
		
			<rect x="436.9" y="99.1" transform="matrix(0.9945 -0.1051 0.1051 0.9945 -8.1636 46.6973)" class="st1" width="4.2" height="3.5"/>
		
			<rect x="428.9" y="100.2" transform="matrix(0.9815 -0.1915 0.1915 0.9815 -11.5542 84.4203)" class="st1" width="4.2" height="3.5"/>
		
			<rect x="421" y="102.2" transform="matrix(0.9612 -0.276 0.276 0.9612 -12.2668 120.8071)" class="st1" width="4.2" height="3.5"/>
		
			<rect x="413.3" y="104.7" transform="matrix(0.9334 -0.3588 0.3588 0.9334 -10.538 156.1202)" class="st1" width="4.2" height="3.5"/>
		
			<rect x="405.8" y="108" transform="matrix(0.8987 -0.4385 0.4385 0.8987 -6.8193 189.9742)" class="st1" width="4.2" height="3.5"/>
		
			<rect x="398.5" y="111.9" transform="matrix(0.8571 -0.5151 0.5151 0.8571 -1.3013 222.595)" class="st1" width="4.2" height="3.5"/>
		
			<rect x="391.7" y="116.5" transform="matrix(0.8091 -0.5877 0.5877 0.8091 5.711 254.0055)" class="st1" width="4.2" height="3.5"/>
		
			<rect x="385.4" y="121.6" transform="matrix(0.7545 -0.6563 0.6563 0.7545 14.1656 284.585)" class="st1" width="4.2" height="3.5"/>
		
			<rect x="379.5" y="127.2" transform="matrix(0.6946 -0.7194 0.7194 0.6946 23.797 313.912)" class="st1" width="4.2" height="3.5"/>
		
			<rect x="374.1" y="133.2" transform="matrix(0.629 -0.7774 0.7774 0.629 34.624 342.5157)" class="st1" width="4.2" height="3.5"/>
		
			<rect x="369.2" y="139.8" transform="matrix(0.5593 -0.829 0.829 0.5593 46.2544 370.2148)" class="st1" width="4.2" height="3.5"/>
		
			<rect x="365" y="146.8" transform="matrix(0.4847 -0.8747 0.8747 0.4847 59.2436 397.5997)" class="st1" width="4.2" height="3.5"/>
		
			<rect x="361.4" y="154.1" transform="matrix(0.4063 -0.9137 0.9137 0.4063 73.3996 424.5963)" class="st1" width="4.2" height="3.5"/>
		
			<rect x="358.4" y="161.7" transform="matrix(0.3254 -0.9456 0.9456 0.3254 88.5646 451.1487)" class="st1" width="4.2" height="3.5"/>
		
			<rect x="356" y="169.6" transform="matrix(0.2419 -0.9703 0.9703 0.2419 105.2563 477.3799)" class="st1" width="4.2" height="3.5"/>
		
			<rect x="354.5" y="177.5" transform="matrix(0.1567 -0.9876 0.9876 0.1567 123.6938 503.3311)" class="st1" width="4.2" height="3.5"/>
		
			<rect x="353.4" y="185.7" transform="matrix(7.000928e-02 -0.9975 0.9975 7.000928e-02 143.6681 528.9494)" class="st1" width="4.2" height="3.5"/>
		
			<rect x="353.6" y="193.4" transform="matrix(0.9998 -1.742138e-02 1.742138e-02 0.9998 -3.3523 6.2201)" class="st1" width="3.5" height="4.2"/>
		
			<rect x="354.2" y="201.6" transform="matrix(0.9945 -0.1044 0.1044 0.9945 -19.316 38.2713)" class="st1" width="3.5" height="4.2"/>
		
			<rect x="355.3" y="209.6" transform="matrix(0.9817 -0.1905 0.1905 0.9817 -33.7956 71.9026)" class="st1" width="3.5" height="4.2"/>
		
			<rect x="357.2" y="217.5" transform="matrix(0.9612 -0.2757 0.2757 0.9612 -46.6357 107.4801)" class="st1" width="3.5" height="4.2"/>
		
			<rect x="359.9" y="225.3" transform="matrix(0.9335 -0.3585 0.3585 0.9335 -57.494 144.7586)" class="st1" width="3.5" height="4.2"/>
		
			<rect x="363.1" y="232.8" transform="matrix(0.8987 -0.4385 0.4385 0.8987 -66.0553 183.7684)" class="st1" width="3.5" height="4.2"/>
		
			<rect x="367" y="239.9" transform="matrix(0.8569 -0.5154 0.5154 0.8569 -71.9918 224.6855)" class="st1" width="3.5" height="4.2"/>
		
			<rect x="371.5" y="246.8" transform="matrix(0.809 -0.5878 0.5878 0.809 -74.9765 266.9488)" class="st1" width="3.5" height="4.2"/>
		
			<rect x="376.6" y="253.2" transform="matrix(0.7544 -0.6564 0.6564 0.7544 -74.6418 311.0359)" class="st1" width="3.5" height="4.2"/>
		
			<rect x="382.2" y="259.1" transform="matrix(0.6948 -0.7192 0.7192 0.6948 -70.6418 355.8679)" class="st1" width="3.5" height="4.2"/>
		
			<rect x="388.4" y="264.4" transform="matrix(0.6294 -0.7771 0.7771 0.6294 -62.5381 401.9416)" class="st1" width="3.5" height="4.2"/>
		
			<rect x="394.9" y="269.4" transform="matrix(0.559 -0.8292 0.8292 0.559 -50.1784 448.6147)" class="st1" width="3.5" height="4.2"/>
		
			<rect x="401.9" y="273.6" transform="matrix(0.4846 -0.8747 0.8747 0.4846 -33.0902 495.1236)" class="st1" width="3.5" height="4.2"/>
		
			<rect x="409.2" y="277.3" transform="matrix(0.4064 -0.9137 0.9137 0.4064 -11.3071 541.2914)" class="st1" width="3.5" height="4.2"/>
		
			<rect x="416.8" y="280.2" transform="matrix(0.3257 -0.9455 0.9455 0.3257 15.2867 586.0846)" class="st1" width="3.5" height="4.2"/>
		
			<rect x="424.6" y="282.5" transform="matrix(0.2417 -0.9704 0.9704 0.2417 47.1259 629.5519)" class="st1" width="3.5" height="4.2"/>
		
			<rect x="432.6" y="284.2" transform="matrix(0.1564 -0.9877 0.9877 0.1564 83.7073 670.5093)" class="st1" width="3.5" height="4.2"/>
		
			<rect x="440.7" y="285" transform="matrix(6.973354e-02 -0.9976 0.9976 6.973354e-02 125.1949 708.4521)" class="st1" width="3.5" height="4.2"/>
		
			<rect x="448.4" y="285.5" transform="matrix(0.9998 -1.742373e-02 1.742373e-02 0.9998 -4.9375 7.8936)" class="st1" width="4.2" height="3.5"/>
		
			<rect x="456.6" y="285" transform="matrix(0.9945 -0.1045 0.1045 0.9945 -27.4597 49.5005)" class="st1" width="4.2" height="3.5"/>
		
			<rect x="464.7" y="283.8" transform="matrix(0.9816 -0.191 0.191 0.9816 -45.9469 94.4219)" class="st1" width="4.2" height="3.5"/>
		
			<rect x="472.6" y="282" transform="matrix(0.9612 -0.2758 0.2758 0.9612 -59.8399 141.932)" class="st1" width="4.2" height="3.5"/>
		
			<rect x="480.3" y="279.4" transform="matrix(0.9336 -0.3584 0.3584 0.9336 -68.705 191.5703)" class="st1" width="4.2" height="3.5"/>
		
			<rect x="487.8" y="276.1" transform="matrix(0.8985 -0.439 0.439 0.8985 -72.2613 243.2871)" class="st1" width="4.2" height="3.5"/>
		
			<rect x="495" y="272.2" transform="matrix(0.8571 -0.5152 0.5152 0.8571 -70.1052 295.2356)" class="st1" width="4.2" height="3.5"/>
		
			<rect x="501.8" y="267.7" transform="matrix(0.8088 -0.5881 0.5881 0.8088 -62.0957 347.8371)" class="st1" width="4.2" height="3.5"/>
		
			<rect x="508.1" y="262.6" transform="matrix(0.7547 -0.656 0.656 0.7547 -48.2961 399.5573)" class="st1" width="4.2" height="3.5"/>
		
			<rect x="514.1" y="257" transform="matrix(0.6944 -0.7196 0.7196 0.6944 -28.4141 450.5159)" class="st1" width="4.2" height="3.5"/>
		
			<rect x="519.5" y="250.9" transform="matrix(0.629 -0.7774 0.7774 0.629 -2.8998 499.1749)" class="st1" width="4.2" height="3.5"/>
		
			<rect x="524.3" y="244.3" transform="matrix(0.5587 -0.8294 0.8294 0.5587 28.2503 545.1373)" class="st1" width="4.2" height="3.5"/>
		
			<rect x="528.6" y="237.4" transform="matrix(0.4848 -0.8746 0.8746 0.4848 64.2324 587.3206)" class="st1" width="4.2" height="3.5"/>
		
			<rect x="532.2" y="230.1" transform="matrix(0.4063 -0.9137 0.9137 0.4063 105.3862 625.8331)" class="st1" width="4.2" height="3.5"/>
		
			<rect x="535.3" y="222.5" transform="matrix(0.3255 -0.9455 0.9455 0.3255 150.423 659.3691)" class="st1" width="4.2" height="3.5"/>
		
			<rect x="537.5" y="214.7" transform="matrix(0.2418 -0.9703 0.9703 0.2418 199.1242 687.7207)" class="st1" width="4.2" height="3.5"/>
		
			<rect x="539.1" y="206.7" transform="matrix(0.1561 -0.9877 0.9877 0.1561 250.8641 710.4672)" class="st1" width="4.2" height="3.5"/>
		
			<rect x="540.1" y="198.6" transform="matrix(6.974410e-02 -0.9976 0.9976 6.974410e-02 304.5071 727.1795)" class="st1" width="4.2" height="3.5"/>
		
			<rect x="540.6" y="190" transform="matrix(0.9998 -1.744111e-02 1.744111e-02 0.9998 -3.2681 9.4879)" class="st1" width="3.5" height="4.2"/>
		
			<rect x="540" y="181.9" transform="matrix(0.9945 -0.1046 0.1046 0.9945 -16.2761 57.6803)" class="st1" width="3.5" height="4.2"/>
		
			<rect x="538.9" y="173.9" transform="matrix(0.9816 -0.1912 0.1912 0.9816 -23.6724 106.6122)" class="st1" width="3.5" height="4.2"/>
		
			<rect x="536.9" y="165.9" transform="matrix(0.9612 -0.2757 0.2757 0.9612 -25.4247 155.0292)" class="st1" width="3.5" height="4.2"/>
		
			<rect x="534.4" y="158.2" transform="matrix(0.9336 -0.3584 0.3584 0.9336 -21.83 202.812)" class="st1" width="3.5" height="4.2"/>
		
			<rect x="531.1" y="150.7" transform="matrix(0.8987 -0.4385 0.4385 0.8987 -13.0131 249.1415)" class="st1" width="3.5" height="4.2"/>
		
			<rect x="527.2" y="143.6" transform="matrix(0.857 -0.5153 0.5153 0.857 0.5621 293.3964)" class="st1" width="3.5" height="4.2"/>
		
			<rect x="522.7" y="136.8" transform="matrix(0.809 -0.5878 0.5878 0.809 18.5453 334.7825)" class="st1" width="3.5" height="4.2"/>
		
			<rect x="517.6" y="130.4" transform="matrix(0.7546 -0.6562 0.6562 0.7546 40.5024 373.3387)" class="st1" width="3.5" height="4.2"/>
		
			<rect x="512" y="124.5" transform="matrix(0.6943 -0.7196 0.7196 0.6943 65.9533 408.3669)" class="st1" width="3.5" height="4.2"/>
		<rect x="506" y="119" transform="matrix(0.6291 -0.7774 0.7774 0.6291 94.197 439.6135)" class="st1" width="3.5" height="4.2"/>
		
			<rect x="499.4" y="114.2" transform="matrix(0.5588 -0.8293 0.8293 0.5588 124.6355 466.904)" class="st1" width="3.5" height="4.2"/>
		
			<rect x="492.4" y="109.9" transform="matrix(0.4843 -0.8749 0.8749 0.4843 156.8287 490.1189)" class="st1" width="3.5" height="4.2"/>
		
			<rect x="485" y="106.3" transform="matrix(0.4063 -0.9137 0.9137 0.4063 189.9371 509.1798)" class="st1" width="3.5" height="4.2"/>
		
			<rect x="477.5" y="103.4" transform="matrix(0.3249 -0.9457 0.9457 0.3249 223.7857 524.4313)" class="st1" width="3.5" height="4.2"/>
		
			<rect x="469.7" y="101" transform="matrix(0.2416 -0.9704 0.9704 0.2416 257.5146 535.6624)" class="st1" width="3.5" height="4.2"/>
		<polygon class="st1" points="465.3,103.5 461.1,102.9 461.7,99.4 465.8,100 		"/>
		
			<rect x="453.6" y="98.4" transform="matrix(6.933572e-02 -0.9976 0.9976 6.933572e-02 323.5142 547.8271)" class="st1" width="3.5" height="4.2"/>
		
			<rect x="445" y="98.6" transform="matrix(0.9998 -1.767788e-02 1.767788e-02 0.9998 -1.7037 7.9199)" class="st1" width="4.2" height="3.5"/>
	</g>
	<path class="st1" d="M465.3,192.1c1,9-5.6,17.1-14.6,18.1c-9,1-17.1-5.6-18.1-14.6c-1-9,5.6-17.1,14.6-18.1
		C456.2,176.5,464.3,183.1,465.3,192.1z"/>
	<line class="st4" x1="428.5" y1="117.5" x2="446.7" y2="181.3"/>
	<line class="st4" x1="403.8" y1="129.6" x2="442.9" y2="183.1"/>
	<line class="st4" x1="384.8" y1="149.3" x2="439.8" y2="186.3"/>
	<line class="st4" x1="373.7" y1="174.3" x2="438" y2="190.3"/>
	<line class="st4" x1="371.7" y1="201.6" x2="437.7" y2="194.7"/>
	<line class="st4" x1="379.3" y1="228" x2="438.9" y2="198.8"/>
	<line class="st4" x1="395.5" y1="250.1" x2="441.4" y2="202.5"/>
	<line class="st4" x1="418.2" y1="265.5" x2="445.2" y2="204.9"/>
	<line class="st4" x1="444.7" y1="272.1" x2="449.3" y2="205.9"/>
	<line class="st4" x1="472" y1="269.2" x2="453.7" y2="205.4"/>
	<line class="st4" x1="496.6" y1="257.1" x2="457.7" y2="203.6"/>
	<line class="st4" x1="515.6" y1="237.4" x2="460.7" y2="200.4"/>
	<line class="st4" x1="526.7" y1="212.4" x2="462.4" y2="196.4"/>
	<line class="st4" x1="528.7" y1="185.1" x2="462.8" y2="192"/>
	<line class="st4" x1="521.1" y1="158.7" x2="461.5" y2="187.8"/>
	<line class="st4" x1="505" y1="136.6" x2="459" y2="184.2"/>
	<line class="st4" x1="482.3" y1="121.2" x2="455.4" y2="181.8"/>
	<line class="st4" x1="455.7" y1="114.6" x2="451.1" y2="180.8"/>
</g>
<line class="st5" x1="209.9" y1="41.3" x2="233.9" y2="100.3"/>
<polyline class="st6" points="183.2,29.3 194.9,39.8 217.9,37.1 227.6,29.3 "/>
<path class="st7" d="M203,36.7c0,0.7-1.2,5.5-1.2,5.5l5.7,1.3l6.2-1l4.3-3.5l-1.3-4.3L203,36.7z"/>
<g>
	<path class="st8" d="M365.9,31.9c0,0-6.9-7.9-6-10.9c0.4-1.5,4-3.6,5.5-3.1c2.9,1.2,6,10.9,6,10.9L365.9,31.9z"/>
</g>
<path class="st8" d="M385.7,10.6c0,2.9-2.3,5.2-5.2,5.2c-2.9,0-5.2-2.3-5.2-5.2s2.3-5.2,5.2-5.2C383.4,5.5,385.7,7.8,385.7,10.6z"/>
<line class="st9" x1="382.5" y1="12.8" x2="365.7" y2="22.5"/>
<g>
	<polygon class="st1" points="139.2,183.4 139.1,181.1 255.2,179.9 255.3,182.4 	"/>
</g>
<g>
	<polygon class="st1" points="124.6,241.6 124.3,239.3 259.2,217.3 259.6,219.6 	"/>
</g>
<path class="st10" d="M372,26.5l-130.3,79.5c-5.1-13.9-9.5-23.5-9.9-24.6l-8.6,3.8c0.1,0.3,4.9,11,10.4,26.3l-99,75.1l0,0
	c-3.2,1.2-5.5,4.3-5.5,7.9c0,4.6,3.7,8.4,8.4,8.4c1.4,0,2.7-0.3,4-1c5.2,0.4,43.6,4,74.3,4c10.8,0,20.6-0.4,27.7-1.5
	c20.1-3.3,35.8-8.8,67.8-54.5c18.2-25.9,27.9-42.4,35.6-55.6c5.5-9.3,9.9-16.8,15.6-24.6c2.3-3.2,7.5-6.9,15.4-12.2l3.4,6.5l8.2-4.4
	L372,26.5z M137.6,196.5c-1.2,0-2.2-1-2.2-2.2s1-2.2,2.2-2.2c1.2,0,2.2,1,2.2,2.2S138.7,196.5,137.6,196.5z M250.4,190.2
	c-3,0.8-5.8,1.2-8.9,1.8c-23.1,3.7-80.5-0.9-95.5-2.2l91-69C244.3,142.7,251.8,170.3,250.4,190.2z M354.9,59.2c-0.9,1-1.8,2-2.4,3
	c-6,8.4-10.6,15.9-16.3,25.7c-7.6,13-17.1,29.2-35.1,54.7c-18.9,27-31.2,38.5-41.3,43.9c0.3-21.9-7.5-49.9-15-71.5l107-65.2
	c3.5-0.8,7-1.2,7.1,0.3C359.2,52.1,356.7,56.4,354.9,59.2z"/>
<path class="st1" d="M141.1,204.7l-15.9-2.9c0,0-2-3.3-2.7-2.1c-1.1,1.6,1.3,7.3,2.7,8.7c3,2.9,12.6,6.8,12.6,6.8l-17.3,16.5
	c-0.1,0.1-0.2,0.2-0.3,0.3l-0.1,0.1l0,0c-0.9,1-1.5,2.4-1.5,3.8c0,3.2,2.6,5.8,5.8,5.8c3.2,0,5.8-2.6,5.8-5.8c0-2-1-3.6-2.4-4.7
	c2.5-1.8,8.2-6,10-8c1.6-1.8,5.4-5.9,5.7-8.4C143.8,212.4,141.1,204.7,141.1,204.7z"/>
<path class="st1" d="M275,199.7c0,11.1-9,20.1-20.1,20.1c-11.1,0-20.1-9-20.1-20.1c0-11.1,9-20.1,20.1-20.1
	C266,179.6,275,188.6,275,199.7z"/>
<polygon class="st0" points="278,253.9 271.9,256.1 249.4,197.2 253.7,196.8 257.5,194.3 "/>
<path class="st1" d="M257.1,199.7c0,1.2-1,2.2-2.2,2.2s-2.2-1-2.2-2.2s1-2.2,2.2-2.2S257.1,198.5,257.1,199.7z"/>
<rect x="266.4" y="253.3" class="st1" width="17.1" height="5.6"/>
<path d="M173.8,27.7c0-1.5,3.5-3.2,5.1-3.2c17.8,0.2,50.7-2.1,67.4,0c1.4,0.2,6.3,1.5,4.6,3.2s-28.9,2.1-38.5,3.7
	c-3.3,0.5-9.5,3.7-12.9,3.7C192.9,35,173.8,30.4,173.8,27.7z"/>
<g>
	<path d="M176.1,25.4c0,0,1.5,3.6,15.7,5.3"/>
	<path class="st10" d="M176.5,25.2c0,0,0,0,0.1,0.1s0.2,0.1,0.3,0.2c0.2,0.1,0.3,0.2,0.7,0.4c0.2,0.2,0.5,0.3,0.9,0.4
		c0.1,0.1,0.3,0.2,0.5,0.2c0.2,0.1,0.4,0.1,0.5,0.2c0.4,0.1,0.9,0.3,1.3,0.4c1,0.2,2,0.4,3,0.7c1,0.1,2.1,0.3,3,0.4
		c1,0.1,1.9,0.2,2.6,0.2c1.5,0.1,2.5,0.2,2.5,0.2l-0.4,3.5c0,0-1.1-0.2-2.6-0.5c-0.8-0.2-1.8-0.3-2.7-0.7c-1-0.3-2-0.7-3.1-0.9
		c-1-0.4-2.1-0.8-3-1.2c-0.4-0.2-0.9-0.4-1.3-0.7c-0.2-0.1-0.4-0.2-0.7-0.3c-0.2-0.1-0.3-0.2-0.5-0.3c-0.3-0.2-0.7-0.4-0.9-0.7
		c-0.2-0.2-0.4-0.4-0.7-0.7c-0.2-0.2-0.3-0.4-0.4-0.5c-0.1-0.1-0.1-0.2-0.1-0.2L176.5,25.2z"/>
</g>
<path class="st8" d="M390.9,58l-10,5.9c0,0-0.9,3.6,0,4.4c0.9,0.8,5.7,0.8,11.8,11.1c0,0.1,22.6,49.6,22.6,49.6l8.5-3.8L390.9,58z"
	/>
<path class="st10" d="M431,136.8c-1.3-3.1-3.6-13.1-3.6-13.1l-11.8-26.4l-2.9,1.2l11.8,26.4l-10.3,4.5l31,71.3l11.4-4.9
	C456.6,195.8,436.9,150.6,431,136.8z"/>
<path class="st1" d="M451.4,193.8c0,1.4-1.1,2.5-2.5,2.5s-2.5-1.1-2.5-2.5s1.1-2.5,2.5-2.5S451.4,192.5,451.4,193.8z"/>
</svg>
