<?xml version="1.0" encoding="UTF-8"?>
<svg viewBox="0 0 267.575 267.575" xmlns="http://www.w3.org/2000/svg">
 <defs>
  <clipPath id="a">
   <path d="m0 891.9h891.67v-891.66h-891.67v891.66"/>
  </clipPath>
 </defs>
 <g transform="matrix(1.25 0 0 -1.25 0 267.58)">
  <g transform="scale(.24)">
   <g clip-path="url(#a)">
    <path d="m420.29 767.35h7.9492v48.992h-7.9492v-48.992z" fill="#1cacea"/>
    <path d="m445.95 47.773c219.91 0 398.18 178.21 398.18 398.17 0 219.91-178.27 398.19-398.18 398.19-219.89 0-398.18-178.27-398.18-398.19 0-219.96 178.29-398.17 398.18-398.17" fill="#fff"/>
    <path d="m0 445.94c0-245.89 200.06-445.94 445.95-445.94 245.9 0 445.96 200.06 445.96 445.94 0 245.9-200.06 445.95-445.96 445.95-245.89 0-445.95-200.06-445.95-445.95zm95.531 0c0 193.22 157.2 350.42 350.42 350.42s350.41-157.2 350.41-350.42c0-193.21-157.18-350.42-350.41-350.42s-350.42 157.21-350.42 350.42" fill="#1cacea"/>
    <path d="m445.95 274.96c94.461 0 171.01 76.515 171.01 170.98 0 94.422-76.547 170.95-171.01 170.95-94.441 0-170.99-76.531-170.99-170.95 0-94.465 76.547-170.98 170.99-170.98" fill="#fff"/>
    <path d="m261.69 445.94c0-101.59 82.661-184.25 184.26-184.25 101.61 0 184.28 82.656 184.28 184.25 0 101.58-82.668 184.22-184.28 184.22-101.6 0-184.26-82.641-184.26-184.22zm26.536 0c0 86.95 70.753 157.68 157.72 157.68 86.981 0 157.74-70.734 157.74-157.68 0-86.961-70.761-157.71-157.74-157.71-86.969 0-157.72 70.746-157.72 157.71" fill="#98cef0"/>
    <path d="m395.45 420.92 14.485-19.195 261.94 197.39-14.484 19.196-261.94-197.39" fill="#1cacea"/>
    <path d="m605.64 720.76h-0.153l-9.617-5.18-1.441 5.688 12.07 6.453h6.363v-55.184h-7.222v48.223" fill="#1cacea"/>
    <path d="m700.1 554.02v4.586l5.84 5.683c14.098 13.414 20.559 20.551 20.559 28.871 0 5.598-2.629 10.785-10.863 10.785-5.024 0-9.168-2.55-11.719-4.671l-2.375 5.265c3.742 3.133 9.25 5.598 15.617 5.598 11.793 0 16.816-8.149 16.816-16.043 0-10.192-7.398-18.426-19.023-29.629l-4.34-4.078v-0.168h24.723v-6.199h-35.235" fill="#1cacea"/>
    <path d="m731.98 423.22c2.125-1.27 6.949-3.41 12.222-3.41 9.504 0 12.559 6.035 12.485 10.707-0.082 7.73-7.051 11.039-14.27 11.039h-4.152v5.609h4.152c5.426 0 12.32 2.797 12.32 9.332 0 4.418-2.804 8.32-9.695 8.32-4.402 0-8.644-1.953-11.019-3.648l-2.043 5.433c2.976 2.122 8.586 4.243 14.503 4.243 10.883 0 15.809-6.457 15.809-13.16 0-5.774-3.484-10.61-10.207-13.075v-0.164c6.797-1.273 12.309-6.367 12.309-14.086 0-8.84-6.95-16.566-20.114-16.566-6.191 0-11.617 1.965-14.343 3.738l2.043 5.688" fill="#1cacea"/>
    <path d="m713.172,272.902v15.032h-25.645v4.828l24.61,35.316h8.078v-34.383h7.73v-5.761h-7.73v-15.032h-7.043zm0,20.793v18.512c0,2.906.094,5.785.25,8.668h-.25c-1.695-3.234-3.059-5.609-4.574-8.234l-13.516-18.77v-.176h18.09" fill="#1cacea"/>
    <path d="m630.977,205.758h-21.047l-2.141-13.996c1.281.156 2.453.328 4.516.328 4.32,0 8.488-.93 11.875-2.977 4.32-2.375 7.902-7.199 7.902-14.347 0-10.766-8.582-18.844-20.559-18.844-6.031,0-11.035,1.691-13.746,3.406l1.871,5.684c2.297-1.364 6.778-3.074 11.875-3.074 6.973,0 13.086,4.589 13.004,12.07 0,7.297-4.843,12.301-15.804,12.301-3.231,0-5.684-.25-7.711-.582l3.543,26.32h26.422v-6.289" fill="#1cacea"/>
    <path d="m460.852,155.316c-1.528.079-3.473-.078-5.598-.429-11.809-1.871-17.922-10.434-19.195-19.602h.175c2.629,3.563 7.301,6.442 13.414,6.442 9.766,0 16.645-7.122 16.645-17.832 0-10.184-6.879-19.508-18.426-19.508-11.722,0-19.437,9.152-19.437,23.515 0,10.868 3.812,19.43 9.332,24.961 4.586,4.496 10.695,7.282 17.66,8.137 2.207.352 4.078.43 5.43.43v-6.114zm-12.817-45.168c6.363,0 10.695,5.356 10.695,13.239 0,7.906-4.496,12.656-11.371,12.656-4.504,0-8.75-2.727-10.785-6.777-.429-.852-.769-1.868-.769-3.227 .086-9.094 4.332-15.891 12.148-15.891h.082" fill="#1cacea"/>
    <path d="m289.71 216.35v-4.926l-24.023-50.266h-7.641l23.855 48.824v0.176h-27v6.192h34.809" fill="#1cacea"/>
    <path d="m169.605,329.012c10.7,0 16.129-6.621 16.129-13.571 0-4.671-2.371-9.753-9.168-12.906v-.25c6.883-2.711 11.125-7.656 11.125-14.273 0-9.676-8.234-16.039-18.765-16.039-11.543,0-18.504,6.793-18.504,14.851 0,6.973 4.156,11.973 10.863,14.856v.269c-6.199,2.883-8.828,7.633-8.828,12.383 0,8.758 7.387,14.68 17.063,14.68h.085zm-.425-51.614c6.707,0 11.035,4.168 11.035,9.856 0,6.617-4.668,9.93-12.137,12.051-6.453-1.871-9.937-6.192-9.937-11.45-.254-5.527 3.992-10.457 10.961-10.457h.078zm.175,46.278c-6.203,0-9.601-4.09-9.601-8.84-.086-5.508 4.156-8.484 10.535-10.184 4.75,1.621 8.399,5.012 8.399,10.032 0,4.398-2.629,8.992-9.254,8.992h-.079" fill="#1cacea"/>
    <path d="m117.813,411.285c1.613-.078 3.484,0 6.035.348 4.32.508 8.398,2.281 11.543,5.34 3.652,3.304 6.281,8.152 7.3,14.675h-.25c-3.058-3.718-7.476-5.918-13.086-5.918-9.929,0-16.292,7.458-16.292,16.965 0,10.36 7.64,19.528 18.933,19.528s18.25-9.082 18.25-23.266c0-12.137-4.078-20.625-9.512-25.977-4.242-4.07-10.101-6.718-16.039-7.378-2.715-.352-5.179-.512-6.882-.43v6.113zm13.5,45.254c-6.278,0-10.786-5.609-10.786-13.414 0-6.883 4.168-11.711 10.621-11.711 5.004,0 8.907,2.453 10.95,5.766 .343.679.593,1.523.593,2.711 .09,9.511-3.484,16.648-11.289,16.648h-.089" fill="#1cacea"/>
    <path d="m152.25 594.74h-0.164l-9.598-5.179-1.441 5.687 12.062 6.453h6.364v-55.183h-7.223v48.222" fill="#1cacea"/>
    <path d="m200.813,545.586c-10.774,0-18.161,10.105-18.34,28.355 0,18.59 8.074,28.696 19.277,28.696 11.543,0 18.25-10.356 18.25-27.926 0-18.77-7.047-29.125-19.098-29.125h-.089zm.343,5.773c7.555,0 11.203,8.914 11.203,23.008 0,13.582-3.386,22.5-11.203,22.5-6.797,0-11.203-8.664-11.203-22.5-.176-14.347 4.242-23.008 11.113-23.008h.09" fill="#1cacea"/>
    <path d="m274.73 725.11h-0.164l-9.597-5.175-1.442 5.683 12.063 6.453h6.363v-55.179h-7.223v48.218" fill="#1cacea"/>
    <path d="m321.94 725.11h-0.175l-9.586-5.175-1.454 5.683 12.063 6.453h6.367v-55.179h-7.215v48.218" fill="#1cacea"/>
    <path d="m333.59 558.01-15.445-18.457 164.66-138.12 15.457 18.418-164.68 138.16" fill="#1cacea"/>
    <path d="m361.6 155.2 121.86 401.04-13.391 3.786-108.47-404.82" fill="#1cacea"/>
    <path d="m413.98 762.69h-0.164l-9.597-5.18-1.442 5.683 12.059 6.454h6.367v-55.184h-7.223v48.227" fill="#1cacea"/>
    <path d="m444.98 714.46v4.586l5.855 5.687c14.09 13.411 20.543 20.547 20.543 28.871 0 5.598-2.629 10.774-10.867 10.774-5.012 0-9.168-2.543-11.715-4.664l-2.375 5.269c3.734 3.133 9.254 5.598 15.621 5.598 11.809 0 16.813-8.148 16.813-16.043 0-10.191-7.379-18.426-19.024-29.633l-4.332-4.078v-0.164h24.699v-6.203h-35.218" fill="#1cacea"/>
    <path d="m445.95 857.07-15.058-15.019 15.058-15.059 15.031 15.059-15.031 15.019" fill="#fff"/>
    <path d="m445.95 61.129-15.058-15.066 15.058-15.035 15.031 15.035-15.031 15.066" fill="#fff"/>
    <path d="m844.17 460.96-15.031-15.02 15.031-15.058 15.07 15.058-15.07 15.02" fill="#fff"/>
    <path d="m47.996 460.96-15.027-15.02 15.027-15.058 15.062 15.058-15.062 15.02" fill="#fff"/>
   </g>
  </g>
 </g>
</svg>
