<?xml version="1.0" encoding="utf-8"?>
<!-- Generator: Adobe Illustrator 16.0.0, SVG Export Plug-In . SVG Version: 6.00 Build 0)  -->
<!DOCTYPE svg PUBLIC "-//W3C//DTD SVG 1.1//EN" "http://www.w3.org/Graphics/SVG/1.1/DTD/svg11.dtd">
<svg version="1.1" id="Capa_1" xmlns="http://www.w3.org/2000/svg" xmlns:xlink="http://www.w3.org/1999/xlink" x="0px" y="0px"
	 width="400px" height="400px" viewBox="0 0 400 400" enable-background="new 0 0 400 400" xml:space="preserve">
<g>
	<path fill="#698B9E" d="M395.677,122.847c5.044-5.439,2.829-14.789-3.954-17.812c-15.8-7.03-9.324-30.396-22.531-29.156
		c-15.149,1.415-26.274-9.701-24.851-24.851c1.415-15.149-9.701-26.274-24.851-24.851c-15.149,1.415-0.387-22.136-24.851-24.851
		c0,0-17.091-6.6-18.717,9.763l-0.255,63.778h-98.48c-96.995,0-175.624,78.629-175.624,175.624V400h148.295
		c97.662,0,176.837-79.174,176.837-176.836v-98.059l63.655,0.589C392.601,125.343,394.332,124.288,395.677,122.847z"/>
	<path fill="#5D7989" d="M192.891,350.606h-17.575c0-67.839-55.185-123.022-123.023-123.022v-17.575
		C129.815,210.009,192.891,273.076,192.891,350.606z"/>
	<path fill="#5D7989" d="M221.494,322.004h-17.575c0-67.839-55.185-123.023-123.022-123.023v-17.575
		C158.418,181.406,221.494,244.481,221.494,322.004z"/>
	<path fill="#5D7989" d="M248.813,294.675h-17.574c0-67.839-55.185-123.023-123.023-123.023v-17.575
		C185.738,154.077,248.813,217.152,248.813,294.675z"/>
	<path fill="#5D7989" d="M277.416,266.081h-17.574c0-67.838-55.185-123.023-123.023-123.023v-17.575
		C214.341,125.483,277.416,188.55,277.416,266.081z"/>
	<path fill="#546A79" d="M130.264,81.397c-3.462-17.399-10.642-36.318-24.341-55.228c0,0-72.267,35.834-42.627,90.782
		C82.496,100.563,105.255,88.331,130.264,81.397z"/>
	<path fill="#546A79" d="M323.541,255.984c-5.316,28.304-17.39,54.165-34.464,75.984c25.158,2.864,62.074,0.395,98.752-26.187
		C387.829,305.782,363.225,256.16,323.541,255.984z"/>
	<circle fill="#38454F" cx="52.293" cy="293.357" r="17.575"/>
</g>
</svg>
