<svg id="Layer_1" data-name="Layer 1" xmlns="http://www.w3.org/2000/svg" viewBox="0 0 1236.03 1695.96"><defs><style>.cls-1{fill:#ded6cc;fill-opacity:0.2;}.cls-2{fill:#b6cfd9;}.cls-3{fill:#c9dce1;}.cls-4,.cls-6{fill:#7dcbdb;}.cls-5,.cls-7{fill:#fefefe;}.cls-5{fill-opacity:0.43;}.cls-6{fill-opacity:0.26;}.cls-7{fill-opacity:0.63;}</style></defs><title>glasses</title><g id="Capa_1"><g id="_1941135937616" data-name=" 1941135937616"><path class="cls-1" d="M573,744.09c0,29.72-128.27,53.82-286.5,53.82S0,773.81,0,744.09s128.27-53.82,286.5-53.82S573,714.37,573,744.09Z" transform="translate(0.97 13.97)"/><path class="cls-2" d="M94.43,650.15l8.44,66.39c2.22,17.54,17,32.34,37.75,37.56,27.21,6.87,74.6,13.59,155.83,13.59,72.08,0,114.1-6.05,138.57-12.89,20.05-5.61,34.13-20.33,36.12-37.5l7.43-63.93c-19,10.5-65.55,22.06-178.58,22.06C175.2,675.43,119.22,661.34,94.43,650.15Z" transform="translate(0.97 13.97)"/><path class="cls-3" d="M537.7,19.42c-96.06-20-315-32.72-509.38,4.42C21.14,25.21,16,32.74,16.73,38.71l77.7,611.44c24.79,11.19,80.77,25.28,205.56,25.28,113,0,159.6-11.56,178.58-22.06L549.92,39.21C550.63,33.07,545,21,537.7,19.42Z" transform="translate(0.97 13.97)"/><path class="cls-4" d="M464.67,640.89,504.1,290.21S427,272.09,265.24,272.09C120.17,272.09,66,297.21,66,297.21L107.87,637.8s35.65,26.9,178.63,26.9S464.67,640.89,464.67,640.89Z" transform="translate(0.97 13.97)"/><path class="cls-2" d="M464.67,640.89S476.31,535.34,493.76,377c8.81-79.15,19.09-171.5,30.1-270.44q2.08-18.54,4.19-37.39.53-4.71,1.06-9.44c.17-1.57.35-3.15.53-4.73l.26-2.37a19.45,19.45,0,0,0,.19-2.27,15,15,0,0,0-.77-4.41,20,20,0,0,0-1.87-4.17,16.44,16.44,0,0,0-2.79-3.56A9.86,9.86,0,0,0,521,35.93a7.36,7.36,0,0,0-1-.25l-.54-.08-.6-.06-2.39-.25-4.79-.51L502,33.73l-19.26-2.1Q463.47,29.58,444,27.79c-52-4.74-105.06-7.7-158.12-8.06s-106.16,1.8-158,7.68c-25.94,2.94-51.57,6.8-76.67,11.75l-4.69.93a16.1,16.1,0,0,0-4.24,1.56,12.3,12.3,0,0,0-3.47,2.75,8.76,8.76,0,0,0-2,3.81,8.37,8.37,0,0,0-.18,2.12c0,.18,0,.36,0,.54l.07.58.14,1.18c.2,1.58.39,3.16.58,4.73.39,3.15.77,6.29,1.16,9.42q2.3,18.82,4.57,37.35c12,98.82,23.29,191.05,32.92,270.11C95.14,532.37,107.87,637.8,107.87,637.8s-13.19-105.37-33-263.42c-9.8-79-21.25-171.24-33.51-270Q39.09,85.83,36.76,67c-.39-3.14-.77-6.28-1.16-9.43-.2-1.57-.39-3.15-.59-4.72l-.14-1.18-.07-.6c0-.22,0-.44-.06-.66A10,10,0,0,1,35,47.81a10.64,10.64,0,0,1,2.36-4.6,14.14,14.14,0,0,1,4-3.17A17.88,17.88,0,0,1,46,38.3l4.73-.94c25.15-5,50.83-8.88,76.81-11.84,52-5.92,105.17-8.14,158.29-7.8s106.21,3.4,158.27,8.18q19.53,1.8,38.85,3.88l19.26,2.11L511.82,33l4.78.51,2.39.25.6.07.65.09a7.26,7.26,0,0,1,1.3.32,11.58,11.58,0,0,1,4.38,2.72,18.37,18.37,0,0,1,3.1,4,21.76,21.76,0,0,1,2,4.54,16.82,16.82,0,0,1,.85,5,20.42,20.42,0,0,1-.2,2.48l-.27,2.36c-.18,1.58-.35,3.16-.53,4.73-.36,3.16-.71,6.3-1.07,9.44q-2.13,18.84-4.22,37.39C514.39,205.7,503.9,298,494.92,377.15Z" transform="translate(0.97 13.97)"/><path class="cls-2" d="M528.57,34.05a4.26,4.26,0,0,1-.08,1.46,11.26,11.26,0,0,1-1.71,3.91,23.57,23.57,0,0,1-4.72,5,50.1,50.1,0,0,1-7.81,5.15,123.76,123.76,0,0,1-23.5,9.23,290.91,290.91,0,0,1-32,7.28q-8.88,1.56-18.52,2.89c-6.41.88-13.06,1.68-19.9,2.42s-13.89,1.38-21.09,2-14.56,1.1-22.06,1.53c-15,.9-30.48,1.49-46.24,1.91s-31.76.61-47.77.63c-32,0-64-.54-94-1.76-15-.58-29.48-1.44-43.21-2.45S119.29,71,107.37,69.53,84.56,66.34,75,64.35a158.38,158.38,0,0,1-24.34-6.77,55.43,55.43,0,0,1-8.45-4,19.77,19.77,0,0,1-5.31-4.39,6.28,6.28,0,0,1-1.58-3.9,3.9,3.9,0,0,1,.17-1.08,1.74,1.74,0,0,1,.15-.35,1.49,1.49,0,0,0-.14.35,3.32,3.32,0,0,0-.16,1.08A6.24,6.24,0,0,0,37,49.15a19.47,19.47,0,0,0,5.34,4.3,55.43,55.43,0,0,0,8.46,3.9,159.16,159.16,0,0,0,24.36,6.47c9.56,1.86,20.45,3.45,32.36,4.87s24.86,2.53,38.57,3.47,28.2,1.67,43.19,2.25c30,1.15,62,1.59,94,1.55,16,0,32-.15,47.74-.53s31.23-.94,46.2-1.81c7.49-.4,14.84-.93,22-1.45s14.23-1.15,21.06-1.84,13.48-1.45,19.89-2.29,12.59-1.77,18.5-2.77a307.64,307.64,0,0,0,32-7,122.85,122.85,0,0,0,23.53-8.93,48.85,48.85,0,0,0,7.84-5,23.4,23.4,0,0,0,4.75-4.95,10.85,10.85,0,0,0,1.75-3.87A4.38,4.38,0,0,0,528.57,34.05Z" transform="translate(0.97 13.97)"/><path class="cls-5" d="M528.57,34.05s7.41,42.66-246,42.66c-266.3,0-246.95-32.85-246.95-32.85S65.2,16.24,282,16.21C495.06,16.17,528.57,34.05,528.57,34.05Z" transform="translate(0.97 13.97)"/><path class="cls-2" d="M464.68,646.06s5.46-29.91-181.18-29.91c-196.14,0-175,29.91-175,29.91s136.06,18.64,178,18.64S464.68,667,464.68,646.06Z" transform="translate(0.97 13.97)"/><path class="cls-2" d="M498.41,301.75c7.49-1.62,7.67-10.21.25-12-29.32-7.2-92.91-17.63-215.16-17.63C87.36,272.09,66,297.21,66,297.21s18.81,23.43,220.52,23.43C394.54,320.64,465.37,308.89,498.41,301.75Z" transform="translate(0.97 13.97)"/><path class="cls-6" d="M430.61,503.18c-.11-3.2-.33-6.32-.59-9.39-.78-9.21-2-18-2.35-27.64-.19-17.7,2.58-35.17.77-52.62a45.14,45.14,0,0,0-2.47-11.3c-6.29-17.91-22.21-31.76-32.92-48.08q-6.39-9-12.16-18.28-6-9.69-11.29-19.69l-274.42.14c4,9.33,22.38,77.19,27.43,86.16,16.47,28.15,32.25,56.07,47.83,84.68,3.5,6.67,7.14,13.27,11,19.71,1.93,3.22,3.92,6.41,6,9.54a409.94,409.94,0,0,0,82.25,72.86,114.31,114.31,0,0,0,37.95,13.63l.14.3a8.18,8.18,0,0,0,5.22,4.1,2.88,2.88,0,0,0,.4.09l.12,0,.41,0A105.55,105.55,0,0,0,347.52,602c2-.45,4-.95,6-1.51,7.36-1.84,14.36-4.76,21.44-7.35,15.72-3.83,37.25-11,45.25-22.48l.16-.24a3.69,3.69,0,0,0,.3-3.53l-.12-.27s-.06-.15-.2-.42a12.7,12.7,0,0,0-1.59-2.28C428.63,546.6,430.94,523.44,430.61,503.18Z" transform="translate(0.97 13.97)"/><path class="cls-7" d="M379.29,3.63,352.48,766.26c39.2-2.19,65.26-6.63,82.54-11.46L505.39,14C474.93,11.51,437.64,4.58,379.29,3.63Z" transform="translate(0.97 13.97)"/></g></g><g id="Capa_1-2" data-name="Capa_1"><g id="_1941135937616-2" data-name=" 1941135937616"><path class="cls-1" d="M1235.07,730c0,29.72-128.27,53.82-286.5,53.82s-286.5-24.1-286.5-53.82,128.27-53.81,286.5-53.81S1235.07,700.31,1235.07,730Z" transform="translate(0.97 13.97)"/><path class="cls-2" d="M756.49,636.09l8.44,66.39C767.16,720,782,734.82,802.69,740c27.21,6.87,74.59,13.59,155.82,13.59,72.09,0,114.11-6,138.58-12.89,20.05-5.61,34.13-20.33,36.12-37.5l7.43-63.93c-19,10.5-65.55,22.06-178.59,22.06C837.27,661.37,781.29,647.28,756.49,636.09Z" transform="translate(0.97 13.97)"/><path class="cls-3" d="M1199.77,5.36c-96.06-20-315-32.72-509.38,4.42-7.19,1.37-12.35,8.9-11.59,14.87l77.69,611.44c24.8,11.19,80.78,25.28,205.56,25.28,113,0,159.6-11.56,178.59-22.06L1212,25.15C1212.7,19,1207.11,6.89,1199.77,5.36Z" transform="translate(0.97 13.97)"/><path class="cls-4" d="M1126.74,626.83l39.43-350.68S1089.11,258,927.31,258c-145.07,0-199.26,25.12-199.26,25.12l41.89,340.59s35.65,26.9,178.63,26.9S1126.74,626.83,1126.74,626.83Z" transform="translate(0.97 13.97)"/><path class="cls-2" d="M1126.74,626.83s11.63-105.55,29.08-263.87c8.81-79.15,19.09-171.5,30.11-270.43q2.07-18.56,4.18-37.4.54-4.71,1.06-9.44c.18-1.57.35-3.15.53-4.73l.27-2.37a19.45,19.45,0,0,0,.19-2.27,15.37,15.37,0,0,0-.77-4.41,20,20,0,0,0-1.87-4.17,16.76,16.76,0,0,0-2.79-3.56,9.94,9.94,0,0,0-3.69-2.31,7.72,7.72,0,0,0-1-.25l-.54-.08-.6-.06-2.39-.25-4.79-.51-9.59-1-19.26-2.09q-19.3-2.05-38.82-3.85C1054,9,1001,6,947.9,5.67s-106.16,1.8-158,7.68c-26,2.94-51.58,6.8-76.68,11.76l-4.69.93a15.86,15.86,0,0,0-4.24,1.55,12.59,12.59,0,0,0-3.47,2.75,8.91,8.91,0,0,0-2,3.81,8.41,8.41,0,0,0-.18,2.12c0,.18,0,.36,0,.54l.07.58.15,1.19c.19,1.57.38,3.15.58,4.72.38,3.15.77,6.29,1.15,9.43q2.31,18.81,4.58,37.35c12,98.82,23.28,191.05,32.92,270.1,19.09,158.13,31.82,263.56,31.82,263.56s-13.2-105.37-33-263.41c-9.81-79-21.25-171.25-33.51-270q-2.3-18.53-4.61-37.34l-1.17-9.43c-.19-1.57-.38-3.15-.58-4.72l-.15-1.18-.07-.6c0-.22-.05-.44-.05-.65a10,10,0,0,1,.22-2.62,10.62,10.62,0,0,1,2.35-4.6,14.18,14.18,0,0,1,4-3.17,17.75,17.75,0,0,1,4.72-1.74l4.72-.94c25.16-5,50.84-8.87,76.82-11.84,52-5.92,105.17-8.14,158.28-7.8s106.21,3.4,158.28,8.19q19.51,1.78,38.85,3.87l19.26,2.11,9.59,1.06,4.78.52,2.39.24.6.07.65.09a7,7,0,0,1,1.29.32,11.62,11.62,0,0,1,4.39,2.72,18.68,18.68,0,0,1,3.1,4,22.29,22.29,0,0,1,2,4.54,16.88,16.88,0,0,1,.85,5,20.42,20.42,0,0,1-.2,2.48l-.27,2.37L1193,45.9c-.35,3.15-.71,6.29-1.06,9.43q-2.13,18.84-4.22,37.39C1176.46,191.64,1166,284,1157,363.09,1138.84,521.33,1126.74,626.83,1126.74,626.83Z" transform="translate(0.97 13.97)"/><path class="cls-2" d="M1190.64,20a4.5,4.5,0,0,1-.09,1.46,10.81,10.81,0,0,1-1.71,3.91,23.32,23.32,0,0,1-4.72,5,50,50,0,0,1-7.8,5.15,124,124,0,0,1-23.5,9.23,288.62,288.62,0,0,1-32,7.28c-5.92,1-12.11,2-18.52,2.89s-13.06,1.68-19.91,2.42-13.88,1.38-21.08,2-14.56,1.09-22.06,1.52c-15,.9-30.49,1.49-46.24,1.91s-31.77.61-47.78.63c-32,0-64-.54-94-1.76-15-.58-29.48-1.44-43.21-2.45s-26.68-2.27-38.6-3.73-22.81-3.19-32.36-5.18a158.06,158.06,0,0,1-24.34-6.77,55,55,0,0,1-8.45-4A19.82,19.82,0,0,1,699,35.14a6.3,6.3,0,0,1-1.57-3.91,3.27,3.27,0,0,1,.17-1.08,1.74,1.74,0,0,1,.15-.35,1.74,1.74,0,0,0-.15.35,3.62,3.62,0,0,0-.16,1.08A6.3,6.3,0,0,0,699,35.09a19.63,19.63,0,0,0,5.34,4.3,55.07,55.07,0,0,0,8.47,3.9,159,159,0,0,0,24.35,6.47c9.57,1.87,20.45,3.46,32.36,4.87s24.87,2.53,38.58,3.48,28.2,1.66,43.18,2.24c30,1.15,62,1.59,94,1.55,16,0,32-.15,47.74-.53s31.23-.94,46.21-1.81c7.48-.4,14.84-.93,22-1.45s14.23-1.15,21.07-1.84,13.48-1.45,19.89-2.29,12.59-1.77,18.5-2.77a310.17,310.17,0,0,0,32-7,123,123,0,0,0,23.54-8.93,49.67,49.67,0,0,0,7.83-5,23.27,23.27,0,0,0,4.76-5,11,11,0,0,0,1.75-3.87A4.38,4.38,0,0,0,1190.64,20Z" transform="translate(0.97 13.97)"/><path class="cls-5" d="M1190.64,20s7.41,42.66-246,42.66c-266.3,0-246.94-32.85-246.94-32.85S727.27,2.19,944,2.15C1157.13,2.11,1190.64,20,1190.64,20Z" transform="translate(0.97 13.97)"/><path class="cls-2" d="M1126.75,632s5.45-29.92-181.18-29.92c-196.14,0-175,29.92-175,29.92s136,18.63,178,18.63S1126.75,652.93,1126.75,632Z" transform="translate(0.97 13.97)"/><path class="cls-2" d="M1160.48,287.69c7.48-1.62,7.66-10.21.25-12-29.33-7.2-92.91-17.63-215.16-17.63-196.14,0-217.52,25.12-217.52,25.12s18.8,23.43,220.52,23.43C1056.61,306.58,1127.43,294.83,1160.48,287.69Z" transform="translate(0.97 13.97)"/><path class="cls-6" d="M1092.68,489.12c-.12-3.2-.33-6.32-.59-9.39-.79-9.21-2-18-2.35-27.63-.19-17.7,2.58-35.18.76-52.63a45.13,45.13,0,0,0-2.46-11.3c-6.3-17.91-22.21-31.76-32.92-48.08q-6.39-9-12.16-18.28-6-9.69-11.29-19.69l-274.43.14c4,9.33,22.39,77.19,27.43,86.17,16.47,28.14,32.25,56.06,47.83,84.68,3.5,6.67,7.15,13.26,11,19.7,1.93,3.22,3.91,6.41,6,9.55a410.11,410.11,0,0,0,82.24,72.85,112.65,112.65,0,0,0,10.15,5.18,113.83,113.83,0,0,0,27.81,8.45,2,2,0,0,0,.14.3,8.13,8.13,0,0,0,5.22,4.1,2.59,2.59,0,0,0,.4.09l.11,0,.41,0a105.56,105.56,0,0,0,33.63-5.41c2-.44,4-1,6-1.51,7.35-1.83,14.36-4.76,21.43-7.35,15.73-3.83,37.26-11,45.25-22.48l.17-.24a3.69,3.69,0,0,0,.29-3.53l-.11-.27s-.06-.15-.2-.42a13.07,13.07,0,0,0-1.59-2.28C1090.7,532.54,1093,509.38,1092.68,489.12Z" transform="translate(0.97 13.97)"/><path class="cls-7" d="M1041.35-10.43l-26.8,762.63c39.2-2.19,65.25-6.63,82.54-11.46L1167.46,0C1137-2.55,1099.71-9.47,1041.35-10.43Z" transform="translate(0.97 13.97)"/></g></g><g id="Capa_1-3" data-name="Capa_1"><g id="_1941135937616-3" data-name=" 1941135937616"><path class="cls-1" d="M572,1628.18c0,29.72-128.27,53.81-286.5,53.81S-1,1657.9-1,1628.18s128.27-53.82,286.5-53.82S572,1598.46,572,1628.18Z" transform="translate(0.97 13.97)"/><path class="cls-2" d="M93.46,1534.23l8.44,66.4c2.23,17.54,17.06,32.33,37.76,37.56,27.21,6.87,74.59,13.59,155.82,13.59,72.08,0,114.1-6,138.58-12.9,20.05-5.61,34.12-20.32,36.12-37.49l7.42-63.93c-19,10.49-65.54,22.06-178.58,22.06C174.24,1559.52,118.26,1545.43,93.46,1534.23Z" transform="translate(0.97 13.97)"/><path class="cls-3" d="M536.73,903.51c-96.06-20-315-32.72-509.38,4.42-7.18,1.37-12.34,8.89-11.58,14.86l77.69,611.44c24.8,11.2,80.78,25.29,205.56,25.29,113,0,159.6-11.57,178.58-22.06L549,923.29C549.67,917.16,544.07,905,536.73,903.51Z" transform="translate(0.97 13.97)"/><path class="cls-4" d="M463.71,1525l39.43-350.68s-77.07-18.12-238.87-18.12C119.2,1156.17,65,1181.3,65,1181.3l41.89,340.58s35.65,26.91,178.62,26.91S463.71,1525,463.71,1525Z" transform="translate(0.97 13.97)"/><path class="cls-2" d="M463.71,1525s11.63-105.54,29.08-263.87c8.81-79.15,19.09-171.49,30.1-270.43q2.08-18.55,4.19-37.4c.35-3.13.71-6.28,1.06-9.43.17-1.58.35-3.15.53-4.73l.26-2.37a19.45,19.45,0,0,0,.19-2.27,15.42,15.42,0,0,0-.76-4.42,20.74,20.74,0,0,0-1.88-4.16,16.14,16.14,0,0,0-2.79-3.56A9.66,9.66,0,0,0,520,920a7.06,7.06,0,0,0-1-.26l-.54-.07-.59-.06-2.4-.25-4.79-.51-9.59-1.06-19.25-2.09q-19.32-2.06-38.83-3.84c-52-4.74-105-7.7-158.11-8.07s-106.16,1.81-158.06,7.69c-25.94,2.94-51.57,6.79-76.67,11.75l-4.69.93a15.75,15.75,0,0,0-4.24,1.56,12.27,12.27,0,0,0-3.47,2.75,8.87,8.87,0,0,0-2,3.8,7.65,7.65,0,0,0-.18,2.13c0,.18,0,.36,0,.53l.07.59.15,1.18.57,4.73c.39,3.14.77,6.28,1.16,9.42q2.31,18.82,4.58,37.35c12,98.82,23.28,191,32.91,270.11,19.1,158.13,31.83,263.55,31.83,263.55s-13.2-105.36-33-263.41c-9.81-79-21.25-171.24-33.52-270q-2.28-18.53-4.61-37.35-.57-4.7-1.16-9.42c-.19-1.58-.39-3.15-.58-4.73l-.15-1.18-.07-.6c0-.21,0-.43,0-.65A9.53,9.53,0,0,1,34,931.9a10.73,10.73,0,0,1,2.36-4.61,14.28,14.28,0,0,1,4-3.16,17.66,17.66,0,0,1,4.72-1.74l4.73-.95c25.15-5,50.83-8.87,76.82-11.83,52-5.93,105.16-8.14,158.28-7.81s106.21,3.41,158.27,8.19q19.53,1.8,38.85,3.88L501.27,916l9.58,1,4.79.52,2.39.25.59.06.66.09a9.35,9.35,0,0,1,1.29.32A11.64,11.64,0,0,1,525,921a18.19,18.19,0,0,1,3.1,4,22,22,0,0,1,2,4.54,17.49,17.49,0,0,1,.85,5,22.33,22.33,0,0,1-.21,2.48l-.26,2.37-.54,4.73c-.35,3.15-.71,6.3-1.06,9.44q-2.13,18.82-4.22,37.39c-11.24,98.91-21.72,191.23-30.71,270.36C475.81,1419.48,463.71,1525,463.71,1525Z" transform="translate(0.97 13.97)"/><path class="cls-2" d="M527.61,918.14a4.49,4.49,0,0,1-.09,1.46,10.85,10.85,0,0,1-1.71,3.9,23.34,23.34,0,0,1-4.72,5,49.27,49.27,0,0,1-7.8,5.15,122.56,122.56,0,0,1-23.51,9.23,287.46,287.46,0,0,1-32,7.29q-8.88,1.56-18.51,2.89c-6.42.88-13.07,1.68-19.91,2.42s-13.88,1.38-21.08,2-14.57,1.09-22.06,1.53c-15,.89-30.49,1.49-46.24,1.91s-31.77.6-47.78.62c-32,0-64-.53-94-1.75-15-.59-29.49-1.44-43.21-2.45s-26.68-2.27-38.6-3.74S83.59,950.42,74,948.44a159.86,159.86,0,0,1-24.34-6.77,54.33,54.33,0,0,1-8.44-4,19.64,19.64,0,0,1-5.32-4.38,6.36,6.36,0,0,1-1.58-3.91,3.62,3.62,0,0,1,.18-1.08,2.5,2.5,0,0,1,.14-.34,2.5,2.5,0,0,0-.14.34,3.73,3.73,0,0,0-.16,1.08A6.3,6.3,0,0,0,36,933.24a19.82,19.82,0,0,0,5.34,4.3,55.4,55.4,0,0,0,8.46,3.89,157.19,157.19,0,0,0,24.36,6.47c9.56,1.87,20.45,3.46,32.36,4.87s24.86,2.54,38.58,3.48,28.19,1.66,43.18,2.24c30,1.16,62,1.6,94,1.56,16,0,32-.15,47.74-.53s31.23-.95,46.2-1.81c7.49-.41,14.84-.94,22-1.45s14.23-1.16,21.07-1.85,13.48-1.45,19.89-2.28,12.59-1.77,18.5-2.77a307.42,307.42,0,0,0,31.95-7,123.23,123.23,0,0,0,23.54-8.93,49.42,49.42,0,0,0,7.83-5,23.4,23.4,0,0,0,4.75-4.95,10.7,10.7,0,0,0,1.75-3.88A4.56,4.56,0,0,0,527.61,918.14Z" transform="translate(0.97 13.97)"/><path class="cls-5" d="M527.61,918.14s7.4,42.66-246,42.66C15.32,960.8,34.67,928,34.67,928S64.24,900.33,281,900.29C494.1,900.26,527.61,918.14,527.61,918.14Z" transform="translate(0.97 13.97)"/><path class="cls-2" d="M463.71,1530.15s5.46-29.92-181.18-29.92c-196.14,0-175,29.92-175,29.92s136.05,18.64,178,18.64S463.71,1551.07,463.71,1530.15Z" transform="translate(0.97 13.97)"/><path class="cls-2" d="M497.44,1185.83c7.49-1.61,7.67-10.2.25-12-29.32-7.2-92.9-17.64-215.16-17.64C86.39,1156.17,65,1181.3,65,1181.3s18.8,23.43,220.51,23.43C393.58,1204.73,464.4,1193,497.44,1185.83Z" transform="translate(0.97 13.97)"/><path class="cls-6" d="M429.65,1387.27c-.12-3.21-.34-6.32-.6-9.39-.78-9.21-2-18-2.34-27.64-.2-17.7,2.57-35.17.76-52.62a45,45,0,0,0-2.47-11.3c-6.29-17.91-22.2-31.76-32.91-48.09q-6.4-9-12.16-18.27-6-9.69-11.3-19.7l-274.42.14c4,9.34,22.38,77.2,27.43,86.17,16.47,28.15,32.25,56.07,47.83,84.68,3.5,6.67,7.14,13.26,11,19.71,1.92,3.22,3.91,6.41,6,9.54a410.21,410.21,0,0,0,82.25,72.86,112.65,112.65,0,0,0,10.15,5.18,114.05,114.05,0,0,0,27.8,8.45l.14.3a8.22,8.22,0,0,0,5.22,4.1l.4.09h.12a2.87,2.87,0,0,0,.41,0,106.16,106.16,0,0,0,33.62-5.41c2-.45,4-1,6-1.52,7.35-1.83,14.35-4.76,21.43-7.35,15.73-3.83,37.26-11,45.25-22.47l.16-.24a3.68,3.68,0,0,0,.3-3.54l-.12-.27s-.06-.14-.2-.41a12.49,12.49,0,0,0-1.58-2.29C427.67,1430.69,430,1407.53,429.65,1387.27Z" transform="translate(0.97 13.97)"/><path class="cls-7" d="M378.32,887.71l-26.81,762.63c39.2-2.19,65.26-6.62,82.55-11.46l70.37-740.75C474,895.6,436.68,888.67,378.32,887.71Z" transform="translate(0.97 13.97)"/></g></g><g id="Capa_1-4" data-name="Capa_1"><g id="_1941135937616-4" data-name=" 1941135937616"><path class="cls-1" d="M1234.1,1614.12c0,29.72-128.27,53.82-286.5,53.82s-286.5-24.1-286.5-53.82,128.27-53.82,286.5-53.82S1234.1,1584.4,1234.1,1614.12Z" transform="translate(0.97 13.97)"/><path class="cls-2" d="M755.53,1520.17l8.43,66.4c2.23,17.54,17.06,32.34,37.76,37.56,27.21,6.87,74.6,13.59,155.83,13.59,72.08,0,114.1-6,138.57-12.9,20.05-5.61,34.13-20.32,36.12-37.49l7.43-63.93c-19,10.49-65.55,22.06-178.58,22.06C836.3,1545.46,780.32,1531.37,755.53,1520.17Z" transform="translate(0.97 13.97)"/><path class="cls-3" d="M1198.8,889.45c-96.06-20-315-32.72-509.38,4.42-7.18,1.37-12.35,8.89-11.59,14.87l77.7,611.43c24.79,11.2,80.77,25.29,205.56,25.29,113,0,159.6-11.57,178.58-22.06L1211,909.23C1211.73,903.1,1206.14,891,1198.8,889.45Z" transform="translate(0.97 13.97)"/><path class="cls-4" d="M1125.77,1510.92l39.43-350.69s-77.06-18.11-238.86-18.11c-145.07,0-199.26,25.12-199.26,25.12L769,1507.82s35.65,26.91,178.63,26.91S1125.77,1510.92,1125.77,1510.92Z" transform="translate(0.97 13.97)"/><path class="cls-2" d="M1125.77,1510.92s11.64-105.55,29.09-263.87c8.81-79.16,19.09-171.5,30.1-270.44q2.07-18.54,4.19-37.39.52-4.71,1.06-9.44c.17-1.58.35-3.15.53-4.73l.26-2.37a19.45,19.45,0,0,0,.19-2.27,15.16,15.16,0,0,0-.77-4.42,20.15,20.15,0,0,0-1.87-4.16,16.44,16.44,0,0,0-2.79-3.56,9.73,9.73,0,0,0-3.69-2.31,7.36,7.36,0,0,0-1-.25l-.54-.08-.6-.06-2.39-.25-4.79-.51-9.59-1-19.26-2.1q-19.3-2.05-38.82-3.84c-52-4.74-105.06-7.7-158.12-8.06s-106.16,1.8-158,7.68c-25.94,2.94-51.57,6.8-76.68,11.75l-4.68.93a16,16,0,0,0-4.24,1.56,12.3,12.3,0,0,0-3.47,2.75,8.76,8.76,0,0,0-2,3.81,8.37,8.37,0,0,0-.18,2.12c0,.18,0,.36.05.53l.07.59.14,1.18c.2,1.58.39,3.15.58,4.73.39,3.14.77,6.29,1.16,9.42q2.3,18.83,4.57,37.35c12,98.82,23.28,191.05,32.92,270.11C756.24,1402.4,769,1507.82,769,1507.82s-13.19-105.36-33-263.41c-9.8-79-21.25-171.24-33.51-270q-2.28-18.52-4.61-37.35c-.39-3.13-.77-6.27-1.16-9.42-.2-1.57-.39-3.15-.59-4.72L696,921.7l-.07-.59c0-.22,0-.44-.06-.66a10,10,0,0,1,.22-2.61,10.64,10.64,0,0,1,2.36-4.6,14,14,0,0,1,4-3.17,17.54,17.54,0,0,1,4.72-1.74l4.73-.94c25.15-5,50.83-8.88,76.81-11.84,52-5.92,105.17-8.14,158.29-7.8s106.21,3.4,158.27,8.18q19.53,1.8,38.85,3.88l19.26,2.11,9.59,1.06,4.78.51,2.39.25.6.06.65.09a9.49,9.49,0,0,1,1.3.32,11.6,11.6,0,0,1,4.38,2.73,17.89,17.89,0,0,1,3.1,4,21.76,21.76,0,0,1,2,4.54,16.82,16.82,0,0,1,.85,5,20.09,20.09,0,0,1-.2,2.47l-.27,2.37c-.18,1.58-.35,3.16-.53,4.73-.36,3.15-.71,6.3-1.07,9.44q-2.13,18.84-4.22,37.39c-11.23,98.91-21.72,191.23-30.7,270.37Z" transform="translate(0.97 13.97)"/><path class="cls-2" d="M1189.67,904.08a4.26,4.26,0,0,1-.08,1.46,11.23,11.23,0,0,1-1.71,3.9,23.85,23.85,0,0,1-4.72,5,50.58,50.58,0,0,1-7.81,5.15,123.76,123.76,0,0,1-23.5,9.23,290.91,290.91,0,0,1-32,7.28q-8.88,1.56-18.52,2.89c-6.41.88-13.06,1.68-19.9,2.42s-13.89,1.38-21.09,2-14.56,1.1-22.06,1.53c-15,.89-30.48,1.49-46.24,1.91s-31.77.61-47.77.63c-32,0-64-.54-94-1.76-15-.58-29.48-1.44-43.21-2.45s-26.67-2.27-38.6-3.73-22.8-3.2-32.36-5.18a158.06,158.06,0,0,1-24.34-6.77,54.47,54.47,0,0,1-8.45-4,19.57,19.57,0,0,1-5.31-4.38,6.3,6.3,0,0,1-1.58-3.9,4.06,4.06,0,0,1,.17-1.09,1.79,1.79,0,0,1,.15-.34,1.49,1.49,0,0,0-.14.35,3.32,3.32,0,0,0-.16,1.08,6.24,6.24,0,0,0,1.61,3.86,19.47,19.47,0,0,0,5.34,4.3,55.43,55.43,0,0,0,8.46,3.9,159.16,159.16,0,0,0,24.36,6.47c9.56,1.86,20.45,3.45,32.36,4.86s24.86,2.54,38.57,3.48,28.2,1.66,43.19,2.24c30,1.16,62,1.6,94,1.56,16,0,32-.15,47.74-.53s31.23-1,46.2-1.81c7.49-.41,14.84-.94,22-1.45s14.23-1.16,21.06-1.85,13.48-1.44,19.89-2.28,12.59-1.77,18.5-2.77a308.21,308.21,0,0,0,32-7,122.85,122.85,0,0,0,23.53-8.93,49.55,49.55,0,0,0,7.84-5,23.4,23.4,0,0,0,4.75-5,10.85,10.85,0,0,0,1.75-3.87A4.37,4.37,0,0,0,1189.67,904.08Z" transform="translate(0.97 13.97)"/><path class="cls-5" d="M1189.67,904.08s7.41,42.66-246,42.66c-266.29,0-246.94-32.85-246.94-32.85s29.56-27.62,246.32-27.65C1156.16,886.2,1189.67,904.08,1189.67,904.08Z" transform="translate(0.97 13.97)"/><path class="cls-2" d="M1125.78,1516.09s5.46-29.92-181.18-29.92c-196.14,0-175,29.92-175,29.92s136.06,18.64,178,18.64S1125.78,1537,1125.78,1516.09Z" transform="translate(0.97 13.97)"/><path class="cls-2" d="M1159.51,1171.78c7.49-1.62,7.67-10.21.25-12-29.32-7.2-92.91-17.63-215.16-17.63-196.14,0-217.52,25.12-217.52,25.12s18.81,23.43,220.52,23.43C1055.64,1190.67,1126.47,1178.91,1159.51,1171.78Z" transform="translate(0.97 13.97)"/><path class="cls-6" d="M1091.71,1373.21c-.12-3.2-.33-6.32-.59-9.39-.78-9.21-2-18-2.35-27.64-.19-17.7,2.58-35.17.77-52.62a45.14,45.14,0,0,0-2.47-11.3c-6.3-17.91-22.21-31.76-32.92-48.09q-6.39-9-12.16-18.27-6-9.69-11.29-19.69l-274.42.14c4,9.33,22.38,77.19,27.43,86.16,16.47,28.15,32.25,56.07,47.83,84.68,3.49,6.67,7.14,13.26,11,19.71,1.93,3.22,3.92,6.41,6,9.54a410.16,410.16,0,0,0,82.24,72.86q5,2.85,10.15,5.18a114.26,114.26,0,0,0,27.81,8.45l.14.3a8.22,8.22,0,0,0,5.22,4.1,2.88,2.88,0,0,0,.4.09l.12,0,.41,0a106.23,106.23,0,0,0,33.62-5.41c2-.45,4-1,6-1.51,7.36-1.84,14.36-4.76,21.44-7.36,15.72-3.82,37.25-11,45.25-22.47l.16-.24a3.69,3.69,0,0,0,.3-3.53l-.12-.28s-.06-.14-.2-.41a12.68,12.68,0,0,0-1.59-2.29C1089.73,1416.63,1092,1393.47,1091.71,1373.21Z" transform="translate(0.97 13.97)"/><path class="cls-7" d="M1040.39,873.65l-26.81,762.64c39.2-2.2,65.26-6.63,82.54-11.47l70.37-740.75C1136,881.54,1098.74,874.61,1040.39,873.65Z" transform="translate(0.97 13.97)"/></g></g></svg>