<?xml version="1.0" encoding="utf-8"?>
<!-- Generator: Adobe Illustrator 16.0.3, SVG Export Plug-In . SVG Version: 6.00 Build 0)  -->
<!DOCTYPE svg PUBLIC "-//W3C//DTD SVG 1.1//EN" "http://www.w3.org/Graphics/SVG/1.1/DTD/svg11.dtd">
<svg version="1.1" id="Capa_1" xmlns="http://www.w3.org/2000/svg" xmlns:xlink="http://www.w3.org/1999/xlink" x="0px" y="0px"
	 width="47.209px" height="17.322px" viewBox="0 0 47.209 17.322" enable-background="new 0 0 47.209 17.322" xml:space="preserve">
<path fill="#0B307F" d="M0,8.089C0,3.55,3.236,1.024,7.262,1.024c1.56,0,2.743,0.315,3.276,0.592L9.926,4.004
	c-0.61-0.256-1.46-0.493-2.524-0.493c-2.39,0-4.244,1.44-4.244,4.4c0,2.664,1.579,4.342,4.263,4.342
	c0.908,0,1.914-0.197,2.506-0.434l0.454,2.348c-0.552,0.276-1.795,0.572-3.414,0.572C2.368,14.739,0,11.878,0,8.089"/>
<path fill="#0B307F" d="M15.41,14.542v-1.815l1.658-1.5C19.87,8.72,21.232,7.28,21.271,5.78c0-1.046-0.632-1.875-2.111-1.875
	c-1.104,0-2.073,0.553-2.744,1.065l-0.848-2.15c0.967-0.73,2.467-1.322,4.203-1.322c2.9,0,4.5,1.697,4.5,4.025
	c0,2.15-1.56,3.868-3.414,5.525l-1.185,0.987v0.039h4.835v2.467H15.41z"/>
<polygon fill="#0B307F" points="27.467,4.379 27.427,4.379 24.979,5.544 24.486,3.294 27.881,1.715 30.367,1.715 30.367,14.542 
	27.467,14.542 "/>
<path fill="#FF0000" d="M14.703,8.751c0,1.245-1.009,2.254-2.254,2.254s-2.254-1.009-2.254-2.254s1.009-2.254,2.254-2.254
	S14.703,7.506,14.703,8.751"/>
<path fill="#FFD900" d="M37.595,16.728c1.256-1.289,1.123-2.956,1.123-2.956l-1.975-1.386c0,0-1.322,0.306-2.063,1.23
	c-1.103,1.381-0.027,3.706-0.027,3.706"/>
<path fill="#FF8C00" d="M36.962,12.811c0,0-1.162,0.292-1.701,1.193c-0.479,0.801-0.089,2.39,0.008,2.308
	c0,0,1.791,0.251,2.33-0.649c0.539-0.901,0.725-1.83,0.725-1.83L36.962,12.811z"/>
<polygon fill="#FF0000" points="36.804,6.996 34.686,7.642 32.713,12.43 36.333,10.533 "/>
<polyline fill="#FF0000" points="39.927,17.252 40.354,13.187 43.466,11.442 43.648,13.649 39.927,17.252 "/>
<path fill="#FF0000" d="M36.116,10.853l-0.389,1.167c0,0,0.058,0.879,1.318,1.655c1.26,0.778,2.065,0.624,2.065,0.624l1.282-1.135
	L36.116,10.853z"/>
<path fill="#0B307F" d="M35.741,10.831c0,0,0.185-4.648,3.631-7.644C42.819,0.193,46.821,0,46.821,0s1.542,5.634-1.521,9.463
	c-3.065,3.83-5.249,4.322-5.249,4.322s-1.151-0.298-2.348-1.125C36.508,11.833,35.741,10.831,35.741,10.831"/>
<path fill="#FF0000" d="M44.536,4.207c0.95,1.242,0.713,3.019-0.529,3.969c-1.241,0.95-3.019,0.714-3.97-0.528
	c-0.95-1.242-0.713-3.02,0.529-3.97C41.809,2.729,43.586,2.965,44.536,4.207"/>
<g>
	<defs>
		<path id="SVGID_1_" d="M40.984,4.257c-0.903,0.69-1.075,1.984-0.384,2.889s1.984,1.077,2.889,0.385
			c0.903-0.69,1.076-1.984,0.386-2.889c-0.406-0.53-1.02-0.809-1.64-0.809C41.799,3.833,41.358,3.971,40.984,4.257"/>
	</defs>
	<clipPath id="SVGID_2_">
		<use xlink:href="#SVGID_1_"  overflow="visible"/>
	</clipPath>
	
		<linearGradient id="SVGID_3_" gradientUnits="userSpaceOnUse" x1="-237.1182" y1="638.752" x2="-236.1186" y2="638.752" gradientTransform="matrix(4.1223 0 0 -4.1223 1017.6539 2639.1707)">
		<stop  offset="0" style="stop-color:#C0E7F1"/>
		<stop  offset="0.7317" style="stop-color:#40B7D4"/>
		<stop  offset="1" style="stop-color:#056CA2"/>
	</linearGradient>
	<rect x="39.909" y="3.833" clip-path="url(#SVGID_2_)" fill="url(#SVGID_3_)" width="4.656" height="4.39"/>
</g>
<polygon fill="#FF0000" points="39.235,9.145 40.673,9.937 35.99,15.509 "/>
</svg>
