<?xml version="1.0" encoding="utf-8"?>
<!-- Generator: Adobe Illustrator 16.0.3, SVG Export Plug-In . SVG Version: 6.00 Build 0)  -->
<!DOCTYPE svg PUBLIC "-//W3C//DTD SVG 1.1//EN" "http://www.w3.org/Graphics/SVG/1.1/DTD/svg11.dtd">
<svg version="1.1" id="Capa_1" xmlns="http://www.w3.org/2000/svg" xmlns:xlink="http://www.w3.org/1999/xlink" x="0px" y="0px"
	 width="290.357px" height="111.908px" viewBox="0 0 290.357 111.908" enable-background="new 0 0 290.357 111.908"
	 xml:space="preserve">
<g>
	<path fill="#FDFDFC" d="M275.656,82.508h-16.988c0.199-1.08,0.31-2.193,0.31-3.331c0-10.015-8.116-18.133-18.132-18.133
		c-2.376,0-4.643,0.462-6.723,1.293C230.402,50.048,218.992,41.1,205.488,41.1c-4.275,0-8.34,0.903-12.02,2.52
		C191.091,19.137,170.457,0,145.351,0c-17.359,0-32.574,9.149-41.099,22.888v89.021h171.404c8.119,0,14.701-6.581,14.701-14.7
		S283.775,82.508,275.656,82.508"/>
	<path fill="#FDFDFC" d="M14.701,82.508H31.69c-0.2-1.08-0.31-2.193-0.31-3.331c0-10.015,8.116-18.133,18.132-18.133
		c2.376,0,4.643,0.462,6.723,1.293C59.955,50.048,71.365,41.1,84.869,41.1c4.276,0,8.34,0.903,12.021,2.52
		C99.268,19.137,119.9,0,145.008,0c17.358,0,32.573,9.149,41.099,22.888v89.021H14.701C6.582,111.908,0,105.327,0,97.208
		S6.582,82.508,14.701,82.508"/>
</g>
</svg>
