<?xml version="1.0" encoding="utf-8"?>
<!-- Generator: Adobe Illustrator 16.0.3, SVG Export Plug-In . SVG Version: 6.00 Build 0)  -->
<!DOCTYPE svg PUBLIC "-//W3C//DTD SVG 1.1//EN" "http://www.w3.org/Graphics/SVG/1.1/DTD/svg11.dtd">
<svg version="1.1" id="Capa_1" xmlns="http://www.w3.org/2000/svg" xmlns:xlink="http://www.w3.org/1999/xlink" x="0px" y="0px"
	 width="401.386px" height="180.73px" viewBox="0 0 401.386 180.73" enable-background="new 0 0 401.386 180.73"
	 xml:space="preserve">
<g>
	<g>
		<path d="M65.41,2.846c0.619-0.124,1.871-0.217,3.045-0.217c1.438,0,2.318,0.139,3.076,0.587c0.727,0.387,1.252,1.098,1.252,2.041
			c0,0.927-0.541,1.793-1.716,2.226v0.031c1.19,0.325,2.071,1.221,2.071,2.566c0,0.943-0.433,1.685-1.082,2.21
			c-0.757,0.603-2.024,0.943-4.096,0.943c-1.16,0-2.025-0.078-2.551-0.155V2.846z M67.744,6.834h0.773
			c1.237,0,1.901-0.51,1.901-1.283c0-0.788-0.603-1.206-1.669-1.206c-0.51,0-0.804,0.031-1.005,0.062V6.834z M67.744,11.456
			c0.232,0.031,0.51,0.031,0.912,0.031c1.066,0,2.009-0.417,2.009-1.499c0-1.051-0.943-1.469-2.117-1.469h-0.804V11.456z"/>
		<path d="M81.745,2.707v10.418H79.38V2.707H81.745z"/>
		<path d="M94.619,8.72h-3.833v2.473h4.282v1.932H88.42V2.707h6.43v1.932h-4.065v2.164h3.833V8.72z"/>
		<path d="M101.309,13.125V2.707h2.751l2.164,3.818c0.618,1.097,1.237,2.396,1.7,3.57h0.046c-0.154-1.375-0.201-2.782-0.201-4.359
			V2.707h2.164v10.418h-2.473l-2.226-4.019c-0.618-1.113-1.298-2.458-1.809-3.679l-0.046,0.016c0.062,1.375,0.093,2.844,0.093,4.544
			v3.138H101.309z"/>
		<path d="M119.065,13.125l-3.339-10.418h2.581l1.268,4.405c0.355,1.236,0.68,2.427,0.928,3.725h0.046
			c0.263-1.252,0.587-2.489,0.943-3.679l1.329-4.452h2.504l-3.509,10.418H119.065z"/>
		<path d="M137.271,8.72h-3.833v2.473h4.281v1.932h-6.646V2.707h6.43v1.932h-4.065v2.164h3.833V8.72z"/>
		<path d="M143.945,13.125V2.707h2.751l2.164,3.818c0.618,1.097,1.236,2.396,1.7,3.57h0.046c-0.154-1.375-0.201-2.782-0.201-4.359
			V2.707h2.164v10.418h-2.474l-2.226-4.019c-0.618-1.113-1.298-2.458-1.809-3.679l-0.046,0.016c0.062,1.375,0.093,2.844,0.093,4.544
			v3.138H143.945z"/>
		<path d="M161.609,2.707v10.418h-2.365V2.707H161.609z"/>
		<path d="M168.284,2.846c0.866-0.139,1.994-0.217,3.185-0.217c1.979,0,3.261,0.356,4.266,1.113
			c1.082,0.804,1.762,2.086,1.762,3.926c0,1.994-0.726,3.37-1.731,4.22c-1.098,0.912-2.767,1.345-4.807,1.345
			c-1.221,0-2.087-0.078-2.674-0.155V2.846z M170.649,11.348c0.201,0.046,0.525,0.046,0.819,0.046
			c2.133,0.016,3.524-1.159,3.524-3.647c0.016-2.164-1.252-3.308-3.277-3.308c-0.525,0-0.866,0.046-1.066,0.093V11.348z"/>
		<path d="M193.198,7.808c0,3.416-2.071,5.487-5.116,5.487c-3.091,0-4.9-2.334-4.9-5.302c0-3.122,1.994-5.457,5.07-5.457
			C191.451,2.537,193.198,4.933,193.198,7.808z M185.67,7.947c0,2.041,0.958,3.478,2.535,3.478c1.592,0,2.504-1.515,2.504-3.54
			c0-1.871-0.897-3.478-2.52-3.478C186.598,4.407,185.67,5.922,185.67,7.947z"/>
	</g>
	<g>
		<path fill="#FFFFFF" d="M130.721,101.305c0-0.504,0.087-1.304,0.191-2.173h-0.035c-0.921,1.738-2.068,2.364-3.268,2.364
			c-1.478,0-2.416-1.182-2.416-2.781c0-2.92,2.155-6.013,5.822-6.013c0.8,0,1.686,0.139,2.26,0.33l-0.852,4.379
			c-0.278,1.46-0.399,2.955-0.365,3.894H130.721z M131.66,93.971c-0.208-0.053-0.521-0.122-1.008-0.122
			c-2.172,0-3.945,2.277-3.963,4.605c0,0.938,0.331,1.86,1.443,1.86c1.199,0,2.624-1.564,3.042-3.807L131.66,93.971z"/>
		<path fill="#FFFFFF" d="M133.47,104.746l1.686-8.864c0.174-1.008,0.348-2.154,0.469-3.006h1.321l-0.243,1.599h0.035
			c0.765-1.095,1.877-1.772,3.024-1.772c1.825,0,2.589,1.494,2.589,3.041c0,2.954-2.12,5.753-4.918,5.753
			c-0.903,0-1.495-0.191-1.825-0.383h-0.035l-0.678,3.633H133.47z M135.833,99.896c0.365,0.296,0.921,0.452,1.599,0.452
			c1.86,0,3.424-2.294,3.424-4.501c0-0.887-0.399-1.946-1.616-1.946c-1.129,0-2.555,1.303-2.989,3.649L135.833,99.896z"/>
		<path fill="#FFFFFF" d="M143.344,101.305l1.025-5.423c0.208-1.095,0.348-2.207,0.434-2.989h1.269
			c-0.07,0.591-0.139,1.183-0.226,1.825h0.052c0.539-1.147,1.442-2.016,2.572-2.016c0.122,0,0.295,0.017,0.399,0.034l-0.278,1.425
			c-0.087-0.017-0.226-0.034-0.382-0.034c-1.251,0-2.364,1.512-2.729,3.476l-0.695,3.702H143.344z"/>
		<path fill="#FFFFFF" d="M154.851,100.818c-0.626,0.364-1.651,0.678-2.781,0.678c-2.225,0-3.198-1.529-3.198-3.39
			c0-2.537,1.877-5.404,4.588-5.404c1.599,0,2.468,0.955,2.468,2.154c0,2.208-2.485,2.799-5.597,2.746
			c-0.069,0.365-0.017,1.147,0.174,1.6c0.331,0.747,1.008,1.129,1.877,1.129c0.99,0,1.738-0.313,2.259-0.591L154.851,100.818z
			 M154.538,94.892c0-0.678-0.521-1.061-1.286-1.061c-1.373,0-2.398,1.339-2.746,2.659c2.26,0.018,4.032-0.277,4.032-1.581V94.892z"
			/>
		<path fill="#FFFFFF" d="M156.661,101.305l1.129-5.961c0.191-0.938,0.295-1.756,0.4-2.451h1.286l-0.208,1.651h0.035
			c0.747-1.182,1.877-1.842,3.111-1.842c1.008,0,2.138,0.573,2.138,2.346c0,0.365-0.069,0.904-0.156,1.355l-0.938,4.901h-1.442
			l0.921-4.849c0.069-0.33,0.122-0.73,0.122-1.078c0-0.852-0.33-1.477-1.321-1.477c-1.025,0-2.485,1.233-2.868,3.319l-0.765,4.084
			H156.661z"/>
		<path fill="#FFFFFF" d="M174.895,88.965l-1.842,9.681c-0.173,0.869-0.313,1.843-0.365,2.659h-1.321l0.226-1.669h-0.035
			c-0.765,1.199-1.825,1.86-3.024,1.86c-1.634,0-2.52-1.339-2.52-3.059c0-2.99,2.225-5.735,5.197-5.735
			c0.539,0,1.129,0.121,1.495,0.295l0.747-4.032H174.895z M172.479,94.214c-0.295-0.191-0.782-0.348-1.391-0.348
			c-2.016,0-3.58,2.138-3.58,4.38c0,1.008,0.348,2.068,1.582,2.068c1.112,0,2.451-1.27,2.815-3.163L172.479,94.214z"/>
		<path fill="#FFFFFF" d="M181.137,100.818c-0.626,0.364-1.651,0.678-2.781,0.678c-2.225,0-3.198-1.529-3.198-3.39
			c0-2.537,1.877-5.404,4.588-5.404c1.599,0,2.468,0.955,2.468,2.154c0,2.208-2.485,2.799-5.597,2.746
			c-0.069,0.365-0.017,1.147,0.174,1.6c0.331,0.747,1.008,1.129,1.877,1.129c0.99,0,1.738-0.313,2.259-0.591L181.137,100.818z
			 M180.824,94.892c0-0.678-0.521-1.061-1.286-1.061c-1.373,0-2.398,1.339-2.746,2.659c2.26,0.018,4.032-0.277,4.032-1.581V94.892z"
			/>
		<path fill="#FFFFFF" d="M189.812,89.591l-2.225,11.714h-1.442l2.225-11.714H189.812z"/>
		<path fill="#FFFFFF" d="M190.161,101.305l1.129-5.961c0.191-0.938,0.295-1.756,0.4-2.451h1.286l-0.208,1.651h0.035
			c0.747-1.182,1.877-1.842,3.111-1.842c1.008,0,2.138,0.573,2.138,2.346c0,0.365-0.069,0.904-0.156,1.355l-0.938,4.901h-1.442
			l0.921-4.849c0.069-0.33,0.122-0.73,0.122-1.078c0-0.852-0.33-1.477-1.321-1.477c-1.025,0-2.485,1.233-2.868,3.319l-0.765,4.084
			H190.161z"/>
		<path fill="#FFFFFF" d="M199.531,103.217c0.504,0.313,1.338,0.556,2.225,0.556c1.408,0,2.52-0.729,3.024-3.007l0.278-1.251h-0.052
			c-0.73,1.199-1.755,1.79-2.92,1.79c-1.686,0-2.555-1.425-2.555-2.92c-0.018-2.851,2.085-5.683,5.335-5.683
			c0.973,0,2.033,0.277,2.694,0.591l-1.286,6.951c-0.348,1.773-0.817,3.007-1.703,3.755c-0.834,0.729-1.964,0.938-2.938,0.938
			c-1.025,0-1.981-0.244-2.52-0.592L199.531,103.217z M205.979,94.145c-0.261-0.122-0.782-0.278-1.391-0.278
			c-2.103,0-3.545,2.189-3.563,4.275c0,0.921,0.33,2.016,1.616,2.016c1.234,0,2.502-1.563,2.798-3.215L205.979,94.145z"/>
		<path fill="#FFFFFF" d="M208.571,101.305l2.346-12.34h1.443l-2.364,12.34H208.571z"/>
		<path fill="#FFFFFF" d="M218.6,100.818c-0.626,0.364-1.651,0.678-2.781,0.678c-2.225,0-3.198-1.529-3.198-3.39
			c0-2.537,1.877-5.404,4.588-5.404c1.599,0,2.468,0.955,2.468,2.154c0,2.208-2.485,2.799-5.597,2.746
			c-0.069,0.365-0.017,1.147,0.174,1.6c0.331,0.747,1.008,1.129,1.877,1.129c0.99,0,1.738-0.313,2.259-0.591L218.6,100.818z
			 M218.287,94.892c0-0.678-0.521-1.061-1.286-1.061c-1.373,0-2.398,1.339-2.746,2.659c2.26,0.018,4.032-0.277,4.032-1.581V94.892z
			 M219.869,89.382l-2.312,2.485h-1.129l1.72-2.485H219.869z"/>
		<path fill="#FFFFFF" d="M220.479,99.845c0.4,0.243,1.13,0.521,1.808,0.521c0.973,0,1.599-0.626,1.599-1.373
			c0-0.66-0.295-1.061-1.164-1.547c-0.974-0.539-1.512-1.286-1.512-2.138c0-1.478,1.269-2.606,3.042-2.606
			c0.765,0,1.442,0.208,1.755,0.417l-0.4,1.095c-0.295-0.174-0.834-0.383-1.46-0.383c-0.869,0-1.495,0.539-1.495,1.27
			c0,0.607,0.4,0.99,1.147,1.407c0.938,0.539,1.582,1.269,1.582,2.207c0,1.773-1.442,2.781-3.215,2.781
			c-0.904-0.018-1.704-0.296-2.086-0.591L220.479,99.845z"/>
		<path fill="#FFFFFF" d="M230.267,101.305l1.373-7.265h-1.112l0.208-1.147h1.13l0.087-0.435c0.191-1.182,0.608-2.259,1.373-2.937
			c0.521-0.487,1.269-0.748,1.999-0.748c0.573,0,0.956,0.104,1.147,0.227l-0.313,1.146c-0.226-0.104-0.521-0.156-0.852-0.156
			c-1.147,0-1.703,1.112-1.946,2.503l-0.069,0.399h1.877l-0.227,1.147h-1.859l-1.391,7.265H230.267z"/>
		<path fill="#FFFFFF" d="M240.452,101.305c0-0.504,0.088-1.304,0.191-2.173h-0.035c-0.92,1.738-2.068,2.364-3.268,2.364
			c-1.476,0-2.415-1.182-2.415-2.781c0-2.92,2.155-6.013,5.823-6.013c0.799,0,1.686,0.139,2.258,0.33l-0.852,4.379
			c-0.277,1.46-0.398,2.955-0.365,3.894H240.452z M241.391,93.971c-0.209-0.053-0.521-0.122-1.008-0.122
			c-2.174,0-3.945,2.277-3.963,4.605c0,0.938,0.33,1.86,1.441,1.86c1.199,0,2.625-1.564,3.043-3.807L241.391,93.971z
			 M243.006,89.382l-2.328,2.485h-1.129l1.721-2.485H243.006z"/>
		<path fill="#FFFFFF" d="M249.735,100.975c-0.434,0.208-1.303,0.521-2.434,0.521c-2.172,0-3.232-1.478-3.232-3.268
			c0-2.868,2.121-5.51,5.145-5.51c0.783,0,1.494,0.227,1.756,0.365l-0.418,1.147c-0.33-0.156-0.799-0.313-1.424-0.313
			c-2.191,0-3.564,2.155-3.564,4.137c0,1.355,0.713,2.242,2.086,2.242c0.852,0,1.512-0.261,1.947-0.47L249.735,100.975z"/>
		<path fill="#FFFFFF" d="M251.301,101.305l1.615-8.412h1.443l-1.617,8.412H251.301z M253.995,91.45
			c-0.486,0-0.816-0.382-0.816-0.903c0.018-0.557,0.434-0.974,0.955-0.974s0.852,0.383,0.852,0.904
			c-0.018,0.573-0.416,0.973-0.973,0.973H253.995z"/>
		<path fill="#FFFFFF" d="M255.299,101.305l2.348-12.34h1.441l-2.363,12.34H255.299z"/>
		<path fill="#FFFFFF" d="M259.262,101.305l1.131-5.961c0.174-0.938,0.295-1.756,0.383-2.451h1.268l-0.227,1.582h0.053
			c0.783-1.165,1.842-1.772,2.955-1.772c1.285,0,1.895,0.816,1.963,1.877c0.748-1.217,1.826-1.86,3.094-1.877
			c0.975,0,2.033,0.625,2.033,2.207c0,0.399-0.051,0.956-0.139,1.425l-0.938,4.971h-1.408l0.904-4.849
			c0.068-0.313,0.121-0.748,0.121-1.096c0-0.886-0.33-1.459-1.27-1.459c-1.041,0-2.275,1.216-2.623,3.093l-0.816,4.311h-1.391
			l0.938-4.936c0.07-0.365,0.105-0.695,0.105-1.025c0-0.713-0.191-1.442-1.252-1.442s-2.363,1.39-2.693,3.18l-0.783,4.224H259.262z"
			/>
		<path fill="#FFFFFF" d="M279.375,100.818c-0.625,0.364-1.65,0.678-2.781,0.678c-2.225,0-3.197-1.529-3.197-3.39
			c0-2.537,1.877-5.404,4.588-5.404c1.6,0,2.469,0.955,2.469,2.154c0,2.208-2.486,2.799-5.598,2.746
			c-0.068,0.365-0.018,1.147,0.174,1.6c0.33,0.747,1.008,1.129,1.877,1.129c0.992,0,1.738-0.313,2.26-0.591L279.375,100.818z
			 M279.063,94.892c0-0.678-0.521-1.061-1.287-1.061c-1.373,0-2.398,1.339-2.746,2.659c2.26,0.018,4.033-0.277,4.033-1.581V94.892z"
			/>
		<path fill="#FFFFFF" d="M281.184,101.305l1.131-5.961c0.191-0.938,0.295-1.756,0.398-2.451H284l-0.209,1.651h0.035
			c0.748-1.182,1.877-1.842,3.111-1.842c1.008,0,2.137,0.573,2.137,2.346c0,0.365-0.068,0.904-0.156,1.355l-0.938,4.901h-1.443
			l0.922-4.849c0.068-0.33,0.121-0.73,0.121-1.078c0-0.852-0.33-1.477-1.32-1.477c-1.025,0-2.486,1.233-2.867,3.319l-0.766,4.084
			H281.184z"/>
		<path fill="#FFFFFF" d="M294.188,90.877l-0.383,2.016h2.018l-0.227,1.13h-2.016l-0.783,4.084c-0.086,0.47-0.156,0.904-0.156,1.339
			c0,0.504,0.244,0.816,0.801,0.816c0.242,0,0.486-0.018,0.678-0.069l-0.07,1.147c-0.26,0.087-0.695,0.156-1.113,0.156
			c-1.285,0-1.771-0.782-1.771-1.634c0-0.486,0.053-0.974,0.174-1.582l0.834-4.258h-1.217l0.227-1.13h1.199l0.295-1.547
			L294.188,90.877z"/>
		<path fill="#FFFFFF" d="M301.922,100.818c-0.625,0.364-1.65,0.678-2.779,0.678c-2.225,0-3.199-1.529-3.199-3.39
			c0-2.537,1.877-5.404,4.59-5.404c1.598,0,2.467,0.955,2.467,2.154c0,2.208-2.484,2.799-5.596,2.746
			c-0.07,0.365-0.018,1.147,0.174,1.6c0.33,0.747,1.008,1.129,1.877,1.129c0.99,0,1.738-0.313,2.26-0.591L301.922,100.818z
			 M301.61,94.892c0-0.678-0.521-1.061-1.285-1.061c-1.373,0-2.398,1.339-2.746,2.659c2.26,0.018,4.031-0.277,4.031-1.581V94.892z"
			/>
	</g>
	<g>
		<polygon fill="#0B307F" points="79.65,27.983 50.03,29.938 50.85,77.582 78.358,77.229 79.316,62.759 63.175,64.257 
			64.123,56.481 76.737,57.186 77.884,46.237 64.258,47.036 63.343,38.466 78.317,39.14 		"/>
		<path fill="#0B307F" d="M109.432,41.683c-1.795-1.561-4.033-3.367-8.501-2.875c-5.892,0.646-8.024,3.053-9.042,4.669h-0.121
			v-3.531l-10.423,0.632l1.143,32.6l9.108,0.494l0.83-18.576c0-2.037,0-6.948,5.689-6.948c5.21,0,5.21,4.552,5.21,6.887
			l-0.187,18.879l10.978-1.05l-0.852-20.464C112.824,45.742,111.228,43.237,109.432,41.683"/>
		<path fill="#0B307F" d="M142.363,43.059h-0.121c-1.796-2.875-5.449-4.192-9.161-4.192c-8.622,0-16.546,6.154-16.546,17.529
			c0,10.658,7.504,17.859,16.546,17.859c5.208,0,8.082-2.816,9.101-4.731h0.12v1.018c0,8.923-7.558,9.586-8.814,9.586
			c-0.66,0-4.293-1.47-5.732-4.761l-11.704,1.855c0.66,4.729,5.892,10.744,17.448,10.744c8.203,0,14.251-3.654,16.825-7.844
			c1.618-2.815,1.979-5.988,1.979-10.957l0.718-29.8l-10.658,0.58V43.059z M134.053,65.679c-4.132,0-7.346-4.034-7.346-9.363
			c0-4.85,4.062-8.717,8.314-8.717c4.43,0,7.342,3.782,7.342,9.111C142.363,61.501,138.842,65.679,134.053,65.679"/>
		<polygon fill="#0B307F" points="156.088,73.912 165.474,73.177 166.018,27.983 155.534,28.868 		"/>
		<polygon fill="#0B307F" points="170.94,73.751 179.174,72.217 181.514,38.88 170.202,39.945 		"/>
		<polygon fill="#0B307F" points="181.111,27.983 171.182,27.661 170.202,36.412 180.627,37.025 		"/>
		<path fill="#0B307F" d="M198.164,52.578c-3.17,0.024-5.088-1.796-5.088-3.593c0-0.898,0.718-2.215,2.814-2.215
			c2.934,0,2.918,2.208,2.979,2.926l10.654-1.291c-0.838-8.742-10.008-9.605-14.61-9.201c-6.858,0.602-11.865,4.795-11.865,11.38
			c0,4.493,3.553,6.862,7.992,7.861c6.64,1.496,10.089,2.756,10.089,5.329c0,1.617-3.084,2.575-4.761,2.575
			c-0.419,0-3.7-1.169-4.118-4.224l-10.413,1.777c0.898,8.742,9.383,10.411,14.412,10.411c7.364,0,14.163-3.309,14.163-11.784
			C210.412,54.458,204.115,52.578,198.164,52.578"/>
		<path fill="#0B307F" d="M240.6,42.513c-2.096-2.515-5.221-3.793-8.395-3.793c-3.532,0-8.176,1.285-9.852,4.279h-0.12l0.528-14.45
			l-11.221,0.969l0.646,44.637l10.047-0.978l-0.36-18.072c0-1.617,0.459-5.92,5.93-6.957c5.451-1.033,5.328,5.329,5.328,6.947
			l-0.684,19.141l11.057-2.744l-0.434-16.877C243.071,48.687,243.413,45.806,240.6,42.513"/>
		<path fill="#0B307F" d="M285.479,41.786c0-6.286-4.809-13.758-14.688-13.758c-3.232,0-10.115,0.546-13.887,6.412
			c-2.395,3.654-3.029,6.491-3.146,9.364l11.943,1.13c0.18-2.574,0.979-7.588,5.408-7.588c3.174,0,3.473,3.611,3.473,5.408
			c0,4.49-4.518,9.744-5.895,11.302c-4.189,4.67-9.605,7.001-15.174,10.653l-1.453,8.395l33.578,1.372l2.26-12.269l-18,2.422
			C276.905,58.464,285.479,51.188,285.479,41.786"/>
		<polygon fill="#0B307F" points="290.239,32.423 290.483,41.464 296.293,38.639 292.5,73.266 305.901,72.298 307.756,26.289 		"/>
		<polygon fill="#FFD900" points="81.153,26.229 51.534,28.185 52.353,75.827 79.861,75.476 80.82,61.004 64.68,62.502 
			65.627,54.726 78.241,55.432 79.39,44.481 65.762,45.281 64.847,36.712 79.82,37.386 		"/>
		<path fill="#FFD900" d="M110.935,39.927c-1.795-1.558-4.033-3.366-8.501-2.874c-5.893,0.647-8.024,3.054-9.042,4.67h-0.121V38.19
			l-10.423,0.631l1.144,32.601l9.108,0.493l0.832-18.576c0-2.037,0-6.945,5.688-6.945c5.21,0,5.21,4.549,5.21,6.885l-0.187,18.879
			l10.978-1.049l-0.853-20.465C114.328,43.987,112.732,41.484,110.935,39.927"/>
		<path fill="#FFD900" d="M143.867,41.304h-0.121c-1.796-2.875-5.449-4.191-9.161-4.191c-8.622,0-16.546,6.153-16.546,17.529
			c0,10.658,7.504,17.858,16.546,17.858c5.209,0,8.083-2.815,9.101-4.73h0.119v1.018c0,8.92-7.558,9.585-8.814,9.585
			c-0.66,0-4.293-1.469-5.732-4.762l-11.704,1.856c0.66,4.729,5.892,10.745,17.448,10.745c8.203,0,14.251-3.652,16.825-7.844
			c1.617-2.815,1.978-5.988,1.978-10.959l0.718-29.799l-10.658,0.58V41.304z M135.557,63.925c-4.133,0-7.346-4.035-7.346-9.363
			c0-4.852,4.062-8.718,8.314-8.718c4.432,0,7.341,3.782,7.341,9.112C143.867,59.745,140.346,63.925,135.557,63.925"/>
		<polygon fill="#FFD900" points="157.592,72.157 166.978,71.422 167.521,26.229 157.038,27.114 		"/>
		<polygon fill="#FFD900" points="172.444,71.996 180.677,70.462 183.019,37.126 171.708,38.19 		"/>
		<polygon fill="#FFD900" points="182.614,26.229 172.687,25.907 171.706,34.657 182.131,35.271 		"/>
		<path fill="#FFD900" d="M199.668,50.823c-3.17,0.025-5.088-1.796-5.088-3.592c0-0.898,0.718-2.215,2.813-2.215
			c2.935,0,2.92,2.207,2.979,2.926l10.653-1.291c-0.837-8.742-10.007-9.605-14.608-9.201c-6.86,0.601-11.866,4.793-11.866,11.379
			c0,4.493,3.552,6.862,7.991,7.862c6.641,1.495,10.09,2.755,10.09,5.328c0,1.617-3.084,2.575-4.76,2.575
			c-0.42,0-3.701-1.169-4.119-4.223l-10.413,1.776c0.898,8.742,9.383,10.41,14.412,10.41c7.364,0,14.163-3.308,14.163-11.782
			C211.916,52.704,205.619,50.823,199.668,50.823"/>
		<path fill="#FFD900" d="M242.104,40.758c-2.096-2.515-5.223-3.792-8.396-3.792c-3.531,0-8.173,1.284-9.851,4.279h-0.119
			l0.527-14.451l-11.221,0.969l0.645,44.637l10.049-0.978l-0.361-18.071c0-1.617,0.459-5.92,5.93-6.957
			c5.451-1.033,5.328,5.328,5.328,6.945l-0.684,19.143l11.057-2.745l-0.434-16.876C244.575,46.932,244.917,44.052,242.104,40.758"/>
		<path fill="#FFD900" d="M286.983,40.032c0-6.287-4.807-13.756-14.688-13.756c-3.232,0-10.113,0.542-13.887,6.41
			c-2.395,3.652-3.029,6.489-3.148,9.363l11.945,1.131c0.18-2.576,0.979-7.587,5.408-7.587c3.174,0,3.471,3.612,3.471,5.407
			c0,4.49-4.514,9.744-5.893,11.3c-4.189,4.67-9.605,7.003-15.174,10.655l-1.453,8.395l33.58,1.372l2.26-12.271l-18.002,2.422
			C278.409,56.708,286.983,49.433,286.983,40.032"/>
		<polygon fill="#FFD900" points="291.743,30.669 291.985,39.709 297.797,36.884 294.002,71.511 307.405,70.544 309.258,24.534 		
			"/>
	</g>
	<g>
		<defs>
			<path id="SVGID_1_" d="M187.5,180.73c120.499,0,170.477-104.569,170.477-104.569L355,63.731L339.45,64.97
				c0,0-12.537,17.475-33.449,43.263c-24.604,30.34-67.945,61.5-112,61.5C27,169.732,0,44.231,0,44.231S24,180.73,187.5,180.73"/>
		</defs>
		<clipPath id="SVGID_2_">
			<use xlink:href="#SVGID_1_"  overflow="visible"/>
		</clipPath>
		<defs>
			<filter id="Adobe_OpacityMaskFilter" filterUnits="userSpaceOnUse" x="0" y="44.231" width="357.977" height="136.499">
				<feColorMatrix  type="matrix" values="1 0 0 0 0  0 1 0 0 0  0 0 1 0 0  0 0 0 1 0"/>
			</filter>
		</defs>
		<mask maskUnits="userSpaceOnUse" x="0" y="44.231" width="357.977" height="136.499" id="SVGID_3_">
			<g filter="url(#Adobe_OpacityMaskFilter)">
				
					<linearGradient id="SVGID_4_" gradientUnits="userSpaceOnUse" x1="-159.5811" y1="398.6006" x2="-158.5811" y2="398.6006" gradientTransform="matrix(-357.9775 0 0 357.9775 -56768.4102 -142577.6563)">
					<stop  offset="0" style="stop-color:#FFFFFF"/>
					<stop  offset="1" style="stop-color:#000000"/>
				</linearGradient>
				<rect y="44.231" clip-path="url(#SVGID_2_)" fill="url(#SVGID_4_)" width="357.977" height="136.499"/>
			</g>
		</mask>
		
			<linearGradient id="SVGID_5_" gradientUnits="userSpaceOnUse" x1="-159.5811" y1="398.6006" x2="-158.5811" y2="398.6006" gradientTransform="matrix(-357.9775 0 0 357.9775 -56768.4102 -142577.6563)">
			<stop  offset="0" style="stop-color:#FFFFFF"/>
			<stop  offset="1" style="stop-color:#386CAF"/>
		</linearGradient>
		<rect y="44.231" clip-path="url(#SVGID_2_)" mask="url(#SVGID_3_)" fill="url(#SVGID_5_)" width="357.977" height="136.499"/>
	</g>
	<g>
		<path fill="#FFD900" d="M343.667,70.191c0,0-6.649,2.758-10.483,7.74c-5.712,7.43-0.677,16.92-0.677,16.92
			s8.313,1.424,14.783-5.748c6.469-7.172,6.045-14.631,6.045-14.631L343.667,70.191z"/>
		<path fill="#FF8C00" d="M344.698,71.905c0,0-5.848,2.528-8.674,7.192c-2.512,4.141-0.792,10.982-0.301,10.513
			c0,0,8.912-0.703,11.74-5.365c2.827-4.667,3.891-9.091,3.891-9.091L344.698,71.905z"/>
		<polygon fill="#FF0000" points="344.92,37.962 333.428,41.471 322.721,67.45 342.365,57.15 		"/>
		<polygon fill="#FF0000" points="381.076,62.091 382.058,74.068 361.872,93.615 364.185,71.556 		"/>
		<path fill="#FF0000" d="M341.19,58.884l-2.105,6.334c0,0,0.308,4.77,7.149,8.987c6.84,4.22,11.203,3.384,11.203,3.384l6.968-6.162
			L341.19,58.884z"/>
		<path fill="#FFD900" d="M339.155,58.772c0,0,0.999-25.226,19.702-41.478C377.561,1.043,399.28,0,399.28,0
			s8.369,30.568-8.26,51.347c-16.629,20.782-28.484,23.456-28.484,23.456s-6.242-1.618-12.732-6.106
			C343.316,64.208,339.155,58.772,339.155,58.772"/>
		<path fill="#FF0000" d="M386.879,22.824c5.156,6.743,3.872,16.386-2.868,21.543c-6.742,5.153-16.386,3.868-21.54-2.873
			c-5.156-6.738-3.869-16.381,2.869-21.539C372.083,14.801,381.723,16.085,386.879,22.824"/>
	</g>
	<g>
		<defs>
			<path id="SVGID_6_" d="M367.881,23.276c-4.906,3.752-5.842,10.772-2.088,15.678c3.752,4.906,10.77,5.842,15.676,2.09
				c4.908-3.753,5.844-10.771,2.092-15.678c-2.203-2.879-5.529-4.391-8.893-4.391C372.295,20.976,369.907,21.726,367.881,23.276"/>
		</defs>
		<clipPath id="SVGID_7_">
			<use xlink:href="#SVGID_6_"  overflow="visible"/>
		</clipPath>
		
			<linearGradient id="SVGID_8_" gradientUnits="userSpaceOnUse" x1="-160.0557" y1="399.3799" x2="-159.0557" y2="399.3799" gradientTransform="matrix(22.3694 0 0 -22.3694 3943.8516 8966.7754)">
			<stop  offset="0" style="stop-color:#C0E7F1"/>
			<stop  offset="0.7317" style="stop-color:#40B7D4"/>
			<stop  offset="1" style="stop-color:#056CA2"/>
		</linearGradient>
		<rect x="362.04" y="20.976" clip-path="url(#SVGID_7_)" fill="url(#SVGID_8_)" width="25.273" height="23.82"/>
	</g>
</g>
</svg>
