<svg id="Capa_1" data-name="Capa 1" xmlns="http://www.w3.org/2000/svg" xmlns:xlink="http://www.w3.org/1999/xlink" viewBox="0 0 417.332 186.281"><defs><style>.cls-1{fill:url(#linear-gradient);}.cls-2{fill:none;}.cls-3{font-size:15.454px;fill:#211915;font-family:MyriadPro-Bold, Myriad Pro;font-weight:700;letter-spacing:0.3em;}.cls-4{letter-spacing:0.299em;}.cls-5{letter-spacing:0em;}.cls-10,.cls-6{font-size:17.385px;fill:#fdfffd;font-family:MyriadPro-It, Myriad Pro;font-style:italic;}.cls-6{stroke:#211915;stroke-linecap:square;stroke-linejoin:round;stroke-width:2px;}.cls-7{letter-spacing:-0.005em;}.cls-8{letter-spacing:-0.006em;}.cls-9{letter-spacing:-0.003em;}.cls-11{clip-path:url(#clip-path);}.cls-12{mask:url(#mask);}.cls-13{fill:url(#linear-gradient-2);}.cls-14{fill:#005091;}.cls-15,.cls-18{fill:#005092;}.cls-16{fill:#f4d700;}.cls-17,.cls-19{fill:#f4d800;}.cls-18,.cls-19{font-size:61.654px;font-family:Toonish;}.cls-20{fill:#dd9e00;}.cls-21{fill:#be0811;}.cls-22{clip-path:url(#clip-path-2);}.cls-23{fill:url(#linear-gradient-3);}</style><linearGradient id="linear-gradient" x1="-89.079" y1="702.673" x2="-88.031" y2="702.673" gradientTransform="matrix(-357.978, 0, 0, 357.978, -31421.412, -251224.268)" gradientUnits="userSpaceOnUse"><stop offset="0" stop-color="#fff"/><stop offset="1"/></linearGradient><clipPath id="clip-path" transform="translate(-91.766 -202.19)"><path class="cls-2" d="M288.225,388.47c126.257,0,178.622-109.516,178.622-109.516l-3.119-13.018-16.292,1.3s-13.138,18.3-35.049,45.307c-25.78,31.776-71.191,64.41-117.352,64.41-174.979,0-203.269-131.437-203.269-131.437S116.912,388.47,288.225,388.47"/></clipPath><mask id="mask" x="0" y="43.324" width="375.082" height="142.956" maskUnits="userSpaceOnUse"><g transform="translate(-91.766 -202.19)"><rect class="cls-1" x="91.766" y="245.514" width="375.082" height="142.956"/></g></mask><linearGradient id="linear-gradient-2" x1="-89.079" y1="702.673" x2="-88.031" y2="702.673" gradientTransform="matrix(-357.978, 0, 0, 357.978, -31513.177, -251426.458)" gradientUnits="userSpaceOnUse"><stop offset="0" stop-color="#fff"/><stop offset="1" stop-color="#5981bc"/></linearGradient><clipPath id="clip-path-2" transform="translate(-91.766 -202.19)"><path class="cls-2" d="M475.31,225.585a11.24,11.24,0,1,0,6.819-2.312,11.239,11.239,0,0,0-6.819,2.312"/></clipPath><linearGradient id="linear-gradient-3" x1="-87.802" y1="708.291" x2="-86.797" y2="708.291" gradientTransform="matrix(22.369, 0, 0, -22.369, 2343.212, 15877.105)" gradientUnits="userSpaceOnUse"><stop offset="0" stop-color="#d3e7f7"/><stop offset="0.732" stop-color="#6fb5e6"/><stop offset="1" stop-color="#007ab8"/></linearGradient></defs><title>logo 2</title><text class="cls-3" transform="translate(79.496 17.674)">BIENVENI<tspan class="cls-4" x="102.89" y="0">D</tspan><tspan class="cls-5" x="118.266" y="0">O</tspan></text><text class="cls-6" transform="translate(144.57 105.247)">Ap<tspan class="cls-7" x="19.001" y="0">r</tspan><tspan x="24.443" y="0">ende inglés </tspan><tspan class="cls-8" x="105.646" y="0">f</tspan><tspan x="110.461" y="0">ácilmen</tspan><tspan class="cls-9" x="166.057" y="0">t</tspan><tspan x="171.446" y="0">e</tspan></text><text class="cls-10" transform="translate(144.571 105.247)">Ap<tspan class="cls-7" x="19.001" y="0">r</tspan><tspan x="24.443" y="0">ende inglés </tspan><tspan class="cls-8" x="105.646" y="0">f</tspan><tspan x="110.461" y="0">ácilmen</tspan><tspan class="cls-9" x="166.057" y="0">t</tspan><tspan x="171.446" y="0">e</tspan></text><g class="cls-11"><g class="cls-12"><rect class="cls-13" y="43.324" width="375.082" height="142.956"/></g></g><polygon class="cls-14" points="157.159 28.118 127.27 30.091 128.097 78.167 155.857 77.813 156.823 63.21 140.536 64.72 141.492 56.875 154.221 57.585 155.379 46.536 141.628 47.343 140.705 38.696 155.815 39.375 157.159 28.118"/><path class="cls-14" d="M278.979,244.13a10,10,0,0,0-8.58-2.9c-5.945.654-8.1,3.081-9.123,4.713h-.122v-3.565l-10.519.638,1.154,32.9,9.191.5.839-18.746c0-2.055,0-7.009,5.74-7.009,5.257,0,5.257,4.592,5.257,6.948l-.188,19.05,11.078-1.057-.86-20.652c-.444-6.716-2.055-9.244-3.867-10.814" transform="translate(-91.766 -202.19)"/><path class="cls-14" d="M312.21,245.519h-.122c-1.812-2.9-5.5-4.229-9.244-4.229-8.7,0-16.7,6.209-16.7,17.689,0,10.754,7.573,18.02,16.7,18.02,5.256,0,8.157-2.841,9.184-4.774h.121v1.028c0,9-7.627,9.673-8.895,9.673a8.946,8.946,0,0,1-5.784-4.806l-11.81,1.873c.665,4.773,5.946,10.843,17.607,10.843,8.277,0,14.381-3.686,16.978-7.916,1.632-2.84,2-6.042,2-11.056l.726-30.072-10.756.585Zm-8.386,22.827c-4.17,0-7.412-4.072-7.412-9.448a8.807,8.807,0,0,1,8.39-8.8c4.471,0,7.408,3.818,7.408,9.2,0,4.835-3.553,9.051-8.386,9.051" transform="translate(-91.766 -202.19)"/><polygon class="cls-14" points="234.295 74.464 243.766 73.721 244.314 28.118 233.736 29.01 234.295 74.464"/><polygon class="cls-14" points="249.282 74.302 257.59 72.754 259.953 39.114 248.538 40.188 249.282 74.302"/><path class="cls-14" d="M368.52,255.126c-3.2.025-5.135-1.813-5.135-3.625,0-.906.724-2.235,2.84-2.235,2.96,0,2.945,2.228,3.006,2.952l10.751-1.3c-.845-8.821-10.1-9.693-14.742-9.285-6.923.607-11.975,4.838-11.975,11.484,0,4.532,3.585,6.924,8.065,7.933,6.7,1.51,10.181,2.78,10.181,5.377,0,1.632-3.111,2.6-4.8,2.6-.423,0-3.734-1.18-4.157-4.262l-10.508,1.793c.907,8.821,9.469,10.505,14.544,10.505,7.432,0,14.292-3.338,14.292-11.89,0-8.145-6.354-10.043-12.359-10.043" transform="translate(-91.766 -202.19)"/><path class="cls-14" d="M411.341,244.969a10.947,10.947,0,0,0-8.471-3.828c-3.564,0-8.249,1.3-9.94,4.318h-.121l.532-14.581-11.322.977.65,45.043,10.14-.987-.364-18.235c0-1.632.463-5.974,5.984-7.021,5.5-1.043,5.376,5.378,5.376,7.009l-.69,19.316,11.159-2.769-.438-17.031c0-5.981.345-8.888-2.5-12.211" transform="translate(-91.766 -202.19)"/><path class="cls-15" d="M188.826,246.32c0-6.344-4.852-13.883-14.821-13.883-3.263,0-10.207.55-14.014,6.47a17.359,17.359,0,0,0-3.176,9.45l12.055,1.14c.18-2.6.986-7.657,5.457-7.657,3.2,0,3.5,3.645,3.5,5.457,0,4.532-4.556,9.833-5.946,11.4-4.228,4.713-9.694,7.066-15.312,10.751l-1.467,8.472,33.884,1.384,2.281-12.381-18.164,2.444c7.07-6.223,15.721-13.564,15.721-23.051" transform="translate(-91.766 -202.19)"/><polygon class="cls-14" points="101.865 34.681 102.109 43.805 107.974 40.954 104.146 75.897 117.668 74.92 119.541 28.492 101.865 34.681"/><polygon class="cls-16" points="158.677 26.347 128.788 28.32 129.615 76.396 157.373 76.042 158.341 61.439 142.054 62.951 143.009 55.104 155.738 55.815 156.897 44.765 143.146 45.573 142.222 36.926 157.333 37.605 158.677 26.347"/><path class="cls-16" d="M280.5,242.359a10.007,10.007,0,0,0-8.58-2.9c-5.947.654-8.1,3.081-9.124,4.712h-.121v-3.564l-10.519.637,1.154,32.9,9.191.5.839-18.745c0-2.056,0-7.009,5.739-7.009,5.258,0,5.258,4.591,5.258,6.947l-.189,19.051,11.078-1.058-.86-20.651c-.444-6.717-2.054-9.244-3.866-10.815" transform="translate(-91.766 -202.19)"/><path class="cls-16" d="M313.727,243.748h-.121c-1.812-2.9-5.5-4.229-9.244-4.229-8.7,0-16.7,6.209-16.7,17.689,0,10.755,7.572,18.021,16.7,18.021,5.256,0,8.156-2.841,9.183-4.774h.122v1.028c0,9-7.627,9.672-8.9,9.672a8.94,8.94,0,0,1-5.783-4.8l-11.811,1.873c.665,4.773,5.946,10.843,17.607,10.843,8.278,0,14.381-3.687,16.979-7.916,1.631-2.841,2-6.042,2-11.058l.725-30.07-10.756.585Zm-8.386,22.828c-4.169,0-7.411-4.072-7.411-9.449a8.805,8.805,0,0,1,8.389-8.8c4.472,0,7.408,3.817,7.408,9.195,0,4.833-3.552,9.051-8.386,9.051" transform="translate(-91.766 -202.19)"/><polygon class="cls-16" points="235.813 72.694 245.283 71.951 245.831 26.347 235.253 27.239 235.813 72.694"/><polygon class="cls-16" points="250.8 72.531 259.108 70.983 261.47 37.344 250.055 38.417 250.8 72.531"/><path class="cls-16" d="M370.038,253.356c-3.2.024-5.136-1.813-5.136-3.626,0-.906.725-2.236,2.84-2.236,2.961,0,2.946,2.229,3.006,2.954l10.751-1.3c-.844-8.822-10.1-9.693-14.742-9.286-6.922.608-11.974,4.838-11.974,11.485,0,4.532,3.584,6.923,8.065,7.933,6.7,1.509,10.181,2.78,10.181,5.377,0,1.632-3.111,2.6-4.8,2.6-.422,0-3.733-1.18-4.156-4.262l-10.508,1.792c.906,8.822,9.469,10.5,14.543,10.5,7.432,0,14.292-3.337,14.292-11.889,0-8.146-6.354-10.043-12.358-10.043" transform="translate(-91.766 -202.19)"/><path class="cls-16" d="M412.859,243.2a10.952,10.952,0,0,0-8.472-3.827c-3.564,0-8.248,1.3-9.939,4.318h-.121l.531-14.582-11.322.977.651,45.044,10.14-.987-.365-18.236c0-1.632.464-5.974,5.984-7.02,5.5-1.044,5.377,5.377,5.377,7.009l-.69,19.315,11.158-2.769-.438-17.03c0-5.982.346-8.888-2.494-12.212" transform="translate(-91.766 -202.19)"/><path class="cls-17" d="M190.343,244.549c0-6.344-4.851-13.882-14.82-13.882-3.263,0-10.208.549-14.014,6.47a17.35,17.35,0,0,0-3.177,9.449l12.055,1.14c.181-2.6.987-7.656,5.457-7.656,3.2,0,3.5,3.645,3.5,5.457,0,4.532-4.557,9.833-5.947,11.4-4.228,4.713-9.693,7.066-15.312,10.752l-1.466,8.471,33.884,1.384,2.28-12.381L174.622,267.6c7.07-6.223,15.721-13.564,15.721-23.051" transform="translate(-91.766 -202.19)"/><polygon class="cls-16" points="103.383 32.911 103.627 42.034 109.492 39.183 105.663 74.126 119.185 73.149 121.058 26.721 103.383 32.911"/><text class="cls-18" transform="translate(21.823 76.74) scale(1.223 1)">C</text><text class="cls-19" transform="translate(24.467 74.527) scale(1.223 1)">C</text><polygon class="cls-14" points="260.981 28.351 251.005 28.027 250.02 36.82 260.495 37.436 260.981 28.351"/><polygon class="cls-16" points="262.493 26.588 252.516 26.263 251.531 35.057 262.006 35.673 262.493 26.588"/><path class="cls-16" d="M450.853,273.021s-6.711,2.784-10.578,7.81c-5.767,7.5-.685,17.075-.685,17.075a17.388,17.388,0,0,0,14.919-5.8c6.527-7.238,6.1-14.765,6.1-14.765Z" transform="translate(-91.766 -202.19)"/><path class="cls-20" d="M451.894,274.75s-5.9,2.551-8.755,7.257c-2.534,4.18-.8,11.084-.3,10.609,0,0,9-.708,11.848-5.415a35.965,35.965,0,0,0,3.924-9.172Z" transform="translate(-91.766 -202.19)"/><polygon class="cls-21" points="360.353 38.307 348.755 41.848 337.951 68.065 357.773 57.672 360.353 38.307"/><polygon class="cls-21" points="396.836 62.658 397.828 74.743 377.457 94.467 379.793 72.208 396.836 62.658"/><path class="cls-21" d="M448.352,261.611,446.228,268s.313,4.81,7.216,9.068,11.307,3.414,11.307,3.414l7.027-6.216Z" transform="translate(-91.766 -202.19)"/><path class="cls-16" d="M446.3,261.5s1.008-25.456,19.883-41.855a73.82,73.82,0,0,1,40.789-17.452s8.446,30.847-8.335,51.816-28.744,23.668-28.744,23.668a45.165,45.165,0,0,1-12.848-6.163A52.566,52.566,0,0,1,446.3,261.5" transform="translate(-91.766 -202.19)"/><path class="cls-21" d="M494.46,225.223a15.505,15.505,0,1,1-21.736-2.9,15.507,15.507,0,0,1,21.736,2.9" transform="translate(-91.766 -202.19)"/><g class="cls-22"><rect class="cls-23" x="377.674" y="21.083" width="25.396" height="23.937"/></g><polygon class="cls-21" points="373.928 48.585 381.795 52.917 356.177 83.411 373.928 48.585"/></svg>