<?xml version="1.0" encoding="utf-8"?>
<!-- Generator: Adobe Illustrator 16.0.3, SVG Export Plug-In . SVG Version: 6.00 Build 0)  -->
<!DOCTYPE svg PUBLIC "-//W3C//DTD SVG 1.1//EN" "http://www.w3.org/Graphics/SVG/1.1/DTD/svg11.dtd">
<svg version="1.1" id="Capa_1" xmlns="http://www.w3.org/2000/svg" xmlns:xlink="http://www.w3.org/1999/xlink" x="0px" y="0px"
	 width="453.266px" height="492.126px" viewBox="0 0 453.266 492.126" enable-background="new 0 0 453.266 492.126"
	 xml:space="preserve">
<g>
	<defs>
		<rect id="SVGID_1_" x="-156.078" y="-60.471" width="792" height="612"/>
	</defs>
	<clipPath id="SVGID_2_">
		<use xlink:href="#SVGID_1_"  overflow="visible"/>
	</clipPath>
	<g clip-path="url(#SVGID_2_)">
		<defs>
			<rect id="SVGID_3_" x="-156.078" y="-60.471" width="792" height="612"/>
		</defs>
		<clipPath id="SVGID_4_">
			<use xlink:href="#SVGID_3_"  overflow="visible"/>
		</clipPath>
		<g opacity="0.11" clip-path="url(#SVGID_4_)">
			<g>
				<defs>
					<rect id="SVGID_5_" x="74.376" y="17.071" width="250.098" height="192.085"/>
				</defs>
				<clipPath id="SVGID_6_">
					<use xlink:href="#SVGID_5_"  overflow="visible"/>
				</clipPath>
				<path clip-path="url(#SVGID_6_)" fill="#010102" d="M99.541,165.227c0.219,3.165,0.611,6.318,0.95,9.474
					c0.092,0.856,0.185,1.722,0.401,2.552c0.251,0.965,1.026,1.402,1.968,1.313c0.851-0.08,1.689-0.331,2.522-0.548
					c2.653-0.691,5.292-1.435,7.952-2.093c1.381-0.342,1.762-0.155,2.321,1.231c1.241,3.078,2.38,6.197,3.605,9.282
					c0.478,1.202,1.021,2.385,1.635,3.523c0.373,0.693,1.123,0.977,1.863,0.729c0.95-0.318,1.874-0.75,2.758-1.227
					c1.778-0.96,3.504-2.017,5.284-2.971c1.471-0.789,1.896-0.657,2.681,0.925c1.542,3.102,3.066,6.215,4.505,9.366
					c2.13,4.66,2.214,5.354,7.76,2.846c2.235-1.01,4.421-2.13,6.659-3.134c1.512-0.678,1.845-0.544,2.878,0.845
					c0.43,0.579,0.828,1.182,1.221,1.788c1.413,2.182,2.777,4.395,4.239,6.544c1.126,1.656,1.901,1.836,3.612,0.702
					c1.922-1.275,3.728-2.723,5.586-4.094c1.247-0.92,2.246-2.2,3.829-2.776c1.755,1.47,2.829,3.372,4.128,5.084
					c0.873,1.149,1.661,2.366,2.578,3.478c1.1,1.334,1.974,1.433,3.328,0.35c5.074-4.055,10.121-8.144,15.173-12.227
					c0.447-0.362,0.877-0.752,1.278-1.165c0.723-0.742,0.688-1.697-0.127-2.206c-0.855-0.533-1.769-0.972-2.658-1.449
					c-6.862-3.685-13.814-7.212-20.563-11.094c-8.023-4.614-15.567-9.95-22.232-16.427c-3.423-3.327-6.576-6.883-9.057-11.004
					c-6.666-11.073-8.01-22.992-5.762-35.503c0.106-0.588,0.315-1.099,1.104-1.43c1.095,1.79,2.205,3.619,3.328,5.44
					c1.054,1.708,2.589,2.78,4.581,2.889c3.17,0.173,6.352,0.139,9.49-0.438c0.837-0.154,1.666-0.489,2.427-0.88
					c0.867-0.445,1.179-1.249,0.832-2.191c-0.243-0.658-0.998-1.663-0.818-1.856c1.36-1.463-0.723-2.945,0.217-4.513
					c0.564-0.94-0.325-1.875-1.52-2.07c-0.851-0.138-1.721-0.187-2.585-0.208c-1.441-0.035-2.885,0.018-4.325-0.04
					c-0.4-0.016-0.957-0.176-1.156-0.466c-0.673-0.982-0.704-2.176-0.587-3.297c0.084-0.808,0.964-1.009,1.638-1.194
					c5.567-1.524,11.138-3.032,16.716-4.512c1.131-0.3,1.651,0.006,1.961,1.049c0.286,0.968,0.462,1.968,0.741,2.937
					c0.678,2.356,1.34,4.717,2.1,7.047c0.494,1.514,1.639,2.417,3.242,2.437c4.361,0.056,8.602-0.773,12.777-1.96
					c0.795-0.227,1.097-0.911,0.889-1.712c-0.106-0.406-0.635-0.907-0.519-1.135c0.88-1.726-0.722-3.253-0.301-4.955
					c0.198-0.802-0.566-1.317-1.311-1.414c-0.846-0.11-1.726-0.085-2.579,0.004c-1.409,0.149-2.807,0.397-4.317,0.618
					c-0.72-2.293-0.572-4.448-0.468-6.596c0.038-0.801,0.467-1.35,1.258-1.528c0.561-0.126,1.141-0.172,1.714-0.239
					c11.748-1.375,23.496-2.751,35.245-4.113c0.568-0.066,1.179-0.106,1.718,0.037c0.343,0.092,0.796,0.511,0.845,0.836
					c0.126,0.843,0.06,1.715,0.062,2.575c0.011,3.461-0.106,6.928,0.066,10.381c0.129,2.588,0.922,3.437,3.313,3.768
					c4.157,0.576,8.347,0.609,12.515,0.072c1.928-0.249,1.6-0.447,1.993-2.766c0.282-1.66-0.502-3.269,0.209-4.878
					c0.35-0.789-0.298-1.368-0.982-1.662c-0.516-0.221-1.119-0.362-1.677-0.345c-4.45,0.135-3.921-0.348-3.84-4.612
					c0.006-0.288,0.025-0.578,0.064-0.864c0.169-1.25,0.674-1.847,1.961-1.848c4.473-0.006,8.945,0.065,13.417,0.138
					c1.055,0.017,1.539,0.702,1.523,1.698c-0.02,1.297-0.124,2.593-0.171,3.89c-0.116,3.173-0.302,6.347-0.3,9.52
					c0.001,2.207,0.884,3.082,3.045,3.506c0.283,0.056,0.569,0.099,0.857,0.124c4.169,0.37,8.337,0.761,12.51,1.085
					c1.666,0.13,1.687-0.26,2.223-2.254c0.412-1.533-0.314-3.038,0.344-4.531c0.33-0.748-0.362-1.369-1.063-1.614
					c-0.81-0.283-1.672-0.476-2.525-0.563c-2.457-0.252-2.897-0.401-2.499-3.315c0.137-1.002,0.234-2.009,0.386-3.008
					c0.412-2.728,0.646-2.924,3.261-2.78c0.576,0.032,1.15,0.103,1.724,0.168c10.475,1.197,20.988,1.908,31.511,2.484
					c3.742,0.205,7.504,0.355,11.237-0.189c2.333-0.341,4.458-1.118,6.085-2.977c2.956-3.378,3.735-7.393,3.499-11.702
					c-0.061-1.099-1.006-1.775-2.131-1.627c-0.709,0.093-1.414,0.274-2.098,0.489c-1.515,0.476-3.011,1.008-4.52,1.499
					c-2.002,0.652-2.22,0.575-3.021-1.174c-0.603-1.311-1.088-2.679-1.745-3.96c-1.13-2.203-1.778-2.511-4.164-1.643
					c-2.573,0.935-5.076,2.067-7.596,3.146c-3.105,1.331-2.987,1.685-4.907-1.74c-0.918-1.636-1.846-3.267-2.813-4.874
					c-0.602-1-1.579-1.314-2.624-0.919c-1.207,0.456-2.367,1.056-3.506,1.671c-1.649,0.892-3.26,1.859-4.891,2.787
					c-0.886,0.504-1.651,0.38-2.235-0.488c-1.45-2.156-2.838-4.356-4.35-6.468c-2.545-3.555-2.952-3.575-6.452-0.942
					c-1.813,1.366-3.471,2.967-5.401,3.963c-1.092-0.589-1.189-1.516-1.464-2.312c-0.801-2.318-1.544-4.656-2.319-6.983
					c-0.211-0.631-0.007-1.217,0.436-1.566c2.381-1.873,4.796-3.704,7.224-5.517c0.693-0.519,1.343-0.311,1.845,0.368
					c1.029,1.393,2.054,2.791,3.084,4.183c0.686,0.928,1.318,1.903,2.08,2.764c1.325,1.498,2.126,1.641,3.757,0.612
					c1.708-1.078,3.319-2.308,5.016-3.407c0.798-0.517,1.483-1.383,3.124-1.061c0.256,0.441,0.654,1.208,1.129,1.927
					c1.193,1.807,2.347,3.647,3.652,5.37c1.66,2.193,2.487,2.293,4.68,0.76c1.537-1.077,2.983-2.282,4.532-3.34
					c3.953-2.699,3.468-2.815,5.991,1.32c2.401,3.935,2.765,3.966,6.677,1.338c0.839-0.564,1.643-1.191,2.525-1.675
					c0.961-0.527,1.74-1.535,2.983-1.391c1.099,1.174,1.416,2.615,2.025,3.9c0.434,0.911,0.784,1.863,1.241,2.761
					c0.469,0.92,1.486,1.138,2.128,0.405c1.612-1.846,3.231-3.694,4.698-5.654c1.39-1.858,1.259-2.858-0.464-4.52
					c-3.021-2.916-6.352-5.438-9.933-7.64c-12.633-7.767-26.151-13.446-40.51-17.104c-1.872-0.477-3.039-1.119-3.333-3.251
					c-0.357-2.593-1.401-4.979-3.322-6.907c-3.274-3.287-7.17-3.684-10.908-0.908c-1.143,0.849-2.267,1.872-3.025,3.055
					c-1.253,1.955-2.656,2.604-5.036,2.175c-2.236-0.402-3.787-1.105-4.352-3.419c-0.133-0.545-0.48-1.048-0.774-1.542
					c-4.264-7.153-11.654-8.306-17.935-2.797c-0.433,0.38-0.824,0.807-1.241,1.206c-0.611,0.583-1.019,1.441-2.377,1.508
					c-1.389-1.521-2.929-3.219-4.484-4.902c-0.783-0.846-1.579-1.683-2.397-2.496c-0.708-0.703-1.563-0.785-2.361-0.236
					c-0.829,0.57-1.605,1.229-2.339,1.92c-1.686,1.579-3.324,3.207-4.995,4.801c-0.728,0.694-1.46,0.716-2.296,0.075
					c-2.406-1.842-4.846-3.64-7.285-5.439c-0.929-0.685-1.866-1.366-2.842-1.979c-1.068-0.672-1.799-0.581-2.698,0.323
					c-0.608,0.612-1.156,1.289-1.685,1.973c-1.503,1.939-2.967,3.908-4.476,5.843c-1.107,1.417-1.4,1.484-2.843,0.58
					c-2.691-1.684-5.341-3.432-8.035-5.111c-3.774-2.353-3.981-2.313-6.452,1.374c-1.687,2.517-3.29,5.089-4.967,7.613
					c-0.825,1.241-1.169,1.333-2.466,0.677c-2.703-1.367-5.363-2.82-8.078-4.161c-4.122-2.038-4.435-1.925-6.402,2.379
					c-0.959,2.098-1.753,4.269-2.66,6.391c-1.129,2.637-1.217,2.688-3.787,1.786c-2.857-1.004-5.659-2.177-8.548-3.076
					c-3.85-1.198-4.445-0.771-5.21,3.242c-0.433,2.269-0.74,4.563-1.222,6.82c-0.589,2.753-0.71,2.787-3.415,2.656
					c-3.027-0.146-6.054-0.3-9.083-0.41c-3.054-0.11-3.683,0.487-3.559,3.367c0.144,3.314,0.334,6.625,0.494,9.939
					c0.071,1.451-0.197,1.896-1.498,2.093c-2.566,0.387-5.153,0.644-7.717,1.048c-1.955,0.308-2.436,1.023-1.955,2.991
					c0.685,2.801,1.508,5.569,2.251,8.356c0.367,1.376,0.202,1.832-1.054,2.437c-3.51,1.69-7.048,3.325-10.566,5.002
					c-0.779,0.372-1.557,0.77-2.262,1.261c-0.636,0.442-0.899,1.138-0.614,1.902c0.302,0.808,0.629,1.615,1.04,2.372
					c1.72,3.171,3.491,6.314,5.207,9.487c0.455,0.841,1.285,1.578,0.798,3.351c-0.55,0.329-1.561,0.887-2.524,1.52
					c-3.255,2.143-6.445,4.39-9.75,6.454c-3.983,2.486-4.374,2.876-0.511,6.48c3.047,2.843,5.923,5.87,9.217,9.156
					c-2.687,2.867-5.067,5.378-7.41,7.922c-0.977,1.06-1.911,2.165-2.8,3.299c-0.507,0.647-0.41,1.422,0.176,1.949
					c0.853,0.767,1.779,1.467,2.739,2.098c2.169,1.428,4.371,2.806,6.573,4.183c0.97,0.606,1.357,1.403,1.113,2.547
					c-0.726,3.389-1.404,6.787-2.128,10.175c-0.941,4.405-0.571,4.993,3.904,5.615c2.716,0.378,5.449,0.637,8.176,0.94
					C99.106,162.629,99.398,163.172,99.541,165.227"/>
			</g>
		</g>
		<path clip-path="url(#SVGID_4_)" fill="#84C51B" d="M78.784,106.556c-3.294-3.286-6.17-6.313-9.217-9.156
			c-3.864-3.604-3.472-3.994,0.511-6.481c3.305-2.064,6.495-4.31,9.75-6.453c0.962-0.634,1.974-1.192,2.524-1.521
			c0.488-1.773-0.344-2.509-0.798-3.35c-1.716-3.174-3.488-6.317-5.208-9.488c-0.41-0.757-0.737-1.564-1.039-2.371
			c-0.285-0.764-0.022-1.461,0.614-1.903c0.705-0.49,1.483-0.889,2.262-1.26c3.518-1.678,7.055-3.312,10.566-5.003
			c1.255-0.605,1.421-1.06,1.054-2.436c-0.744-2.788-1.566-5.556-2.251-8.357c-0.481-1.968,0-2.682,1.955-2.991
			c2.564-0.403,5.151-0.661,7.717-1.048c1.301-0.196,1.569-0.641,1.498-2.093c-0.161-3.313-0.35-6.625-0.494-9.939
			c-0.124-2.879,0.505-3.477,3.559-3.366c3.029,0.109,6.056,0.263,9.083,0.409c2.705,0.131,2.826,0.098,3.414-2.656
			c0.483-2.257,0.79-4.551,1.223-6.82c0.765-4.013,1.36-4.44,5.21-3.241c2.888,0.899,5.691,2.072,8.548,3.075
			c2.569,0.902,2.658,0.851,3.786-1.785c0.908-2.122,1.702-4.294,2.661-6.391c1.967-4.305,2.28-4.417,6.402-2.38
			c2.715,1.341,5.375,2.795,8.078,4.162c1.297,0.655,1.641,0.564,2.466-0.678c1.677-2.523,3.28-5.096,4.967-7.613
			c2.471-3.686,2.678-3.727,6.452-1.374c2.694,1.679,5.344,3.427,8.035,5.112c1.443,0.903,1.736,0.837,2.843-0.581
			c1.509-1.934,2.973-3.904,4.475-5.843c0.529-0.683,1.078-1.36,1.686-1.972c0.899-0.905,1.63-0.996,2.698-0.324
			c0.976,0.614,1.913,1.294,2.842,1.979c2.438,1.8,4.878,3.597,7.285,5.439c0.836,0.641,1.568,0.62,2.296-0.074
			c1.671-1.594,3.31-3.223,4.994-4.802c0.735-0.689,1.511-1.349,2.34-1.919c0.798-0.549,1.653-0.467,2.36,0.236
			c0.819,0.813,1.615,1.649,2.397,2.496c1.556,1.683,3.095,3.381,4.485,4.901c1.358-0.066,1.766-0.925,2.376-1.508
			c0.418-0.398,0.809-0.826,1.242-1.206c6.281-5.508,13.671-4.356,17.935,2.797c0.294,0.495,0.641,0.997,0.774,1.543
			c0.564,2.314,2.116,3.016,4.352,3.419c2.38,0.429,3.783-0.22,5.036-2.176c0.758-1.183,1.883-2.206,3.025-3.054
			c3.737-2.777,7.634-2.38,10.908,0.907c1.921,1.929,2.964,4.314,3.322,6.908c0.294,2.131,1.461,2.773,3.332,3.25
			c14.359,3.658,27.878,9.337,40.511,17.105c3.581,2.202,6.912,4.723,9.933,7.639c1.722,1.662,1.854,2.662,0.463,4.52
			c-1.467,1.96-3.085,3.809-4.697,5.654c-0.642,0.734-1.659,0.515-2.128-0.404c-0.457-0.898-0.81-1.85-1.241-2.762
			c-0.61-1.285-0.927-2.725-2.026-3.899c-1.242-0.144-2.022,0.864-2.982,1.391c-0.883,0.484-1.687,1.111-2.525,1.674
			c-3.912,2.628-4.275,2.597-6.677-1.338c-2.524-4.135-2.038-4.019-5.991-1.319c-1.549,1.057-2.995,2.263-4.533,3.339
			c-2.191,1.534-3.019,1.433-4.679-0.759c-1.306-1.724-2.459-3.564-3.653-5.371c-0.474-0.718-0.872-1.486-1.129-1.926
			c-1.641-0.323-2.325,0.544-3.123,1.061c-1.696,1.098-3.308,2.328-5.016,3.406c-1.632,1.03-2.432,0.886-3.757-0.612
			c-0.762-0.861-1.395-1.836-2.08-2.763c-1.03-1.393-2.055-2.79-3.084-4.183c-0.502-0.679-1.151-0.887-1.845-0.369
			c-2.428,1.814-4.843,3.644-7.224,5.518c-0.443,0.349-0.646,0.934-0.436,1.566c0.774,2.327,1.519,4.665,2.318,6.982
			c0.275,0.796,0.373,1.723,1.465,2.313c1.931-0.997,3.587-2.598,5.401-3.963c3.499-2.634,3.907-2.614,6.452,0.941
			c1.512,2.112,2.899,4.312,4.35,6.468c0.582,0.868,1.35,0.992,2.235,0.488c1.631-0.928,3.24-1.894,4.891-2.787
			c1.139-0.615,2.299-1.214,3.505-1.67c1.046-0.395,2.023-0.082,2.625,0.918c0.967,1.607,1.895,3.238,2.813,4.875
			c1.92,3.425,1.801,3.07,4.907,1.74c2.52-1.08,5.021-2.211,7.595-3.147c2.385-0.867,3.034-0.559,4.165,1.643
			c0.657,1.282,1.143,2.65,1.744,3.961c0.803,1.748,1.021,1.825,3.022,1.174c1.509-0.492,3.005-1.024,4.52-1.499
			c0.684-0.215,1.389-0.396,2.098-0.49c1.125-0.147,2.07,0.529,2.131,1.627c0.236,4.309-0.544,8.324-3.499,11.702
			c-1.628,1.859-3.754,2.637-6.085,2.977c-3.733,0.544-7.495,0.394-11.237,0.189c-10.522-0.576-21.036-1.286-31.511-2.483
			c-0.573-0.065-1.147-0.137-1.724-0.168c-2.615-0.145-2.85,0.052-3.261,2.78c-0.151,0.999-0.249,2.006-0.386,3.007
			c-0.398,2.915,0.042,3.064,2.499,3.316c0.854,0.087,1.715,0.28,2.524,0.563c0.702,0.245,1.395,0.865,1.064,1.613
			c-0.658,1.494,0.068,2.999-0.344,4.532c-0.536,1.993-0.557,2.384-2.223,2.254c-4.173-0.324-8.341-0.716-12.51-1.085
			c-0.288-0.025-0.575-0.068-0.857-0.125c-2.161-0.424-3.044-1.299-3.045-3.506c-0.002-3.173,0.184-6.346,0.299-9.519
			c0.048-1.297,0.152-2.593,0.172-3.891c0.016-0.996-0.469-1.681-1.523-1.698c-4.472-0.073-8.944-0.143-13.417-0.138
			c-1.287,0.002-1.792,0.598-1.961,1.849c-0.039,0.285-0.059,0.575-0.064,0.863c-0.081,4.264-0.61,4.748,3.84,4.612
			c0.558-0.017,1.161,0.125,1.677,0.346c0.684,0.294,1.332,0.872,0.983,1.661c-0.712,1.609,0.073,3.218-0.209,4.879
			c-0.394,2.318-0.065,2.517-1.993,2.765c-4.168,0.537-8.358,0.505-12.515-0.071c-2.391-0.331-3.184-1.181-3.313-3.768
			c-0.172-3.453-0.055-6.921-0.065-10.382c-0.003-0.86,0.063-1.732-0.064-2.574c-0.048-0.326-0.501-0.745-0.844-0.836
			c-0.539-0.143-1.15-0.103-1.718-0.038c-11.75,1.362-23.497,2.738-35.245,4.113c-0.573,0.067-1.153,0.113-1.714,0.239
			c-0.791,0.178-1.22,0.728-1.259,1.529c-0.103,2.148-0.251,4.302,0.469,6.596c1.509-0.222,2.908-0.469,4.317-0.618
			c0.852-0.09,1.733-0.115,2.579-0.004c0.745,0.096,1.51,0.611,1.311,1.413c-0.421,1.703,1.181,3.23,0.301,4.956
			c-0.116,0.227,0.413,0.728,0.519,1.135c0.208,0.801-0.094,1.485-0.889,1.711c-4.175,1.188-8.417,2.016-12.778,1.961
			c-1.602-0.021-2.747-0.924-3.241-2.438c-0.76-2.329-1.423-4.69-2.1-7.046c-0.279-0.97-0.455-1.97-0.742-2.937
			c-0.309-1.043-0.829-1.35-1.96-1.05c-5.578,1.481-11.149,2.989-16.716,4.513c-0.674,0.185-1.554,0.386-1.638,1.194
			c-0.117,1.12-0.087,2.314,0.587,3.296c0.199,0.29,0.755,0.45,1.156,0.466c1.44,0.058,2.884,0.006,4.325,0.041
			c0.863,0.021,1.734,0.069,2.585,0.208c1.195,0.194,2.083,1.129,1.52,2.069c-0.94,1.568,1.143,3.051-0.217,4.514
			c-0.179,0.193,0.575,1.197,0.818,1.855c0.347,0.943,0.035,1.746-0.833,2.191c-0.761,0.392-1.589,0.726-2.426,0.881
			c-3.138,0.576-6.32,0.61-9.49,0.437c-1.992-0.108-3.527-1.181-4.581-2.889c-1.123-1.82-2.233-3.649-3.328-5.44
			c-0.789,0.332-0.998,0.842-1.104,1.43c-2.248,12.512-0.904,24.431,5.762,35.503c2.48,4.121,5.634,7.678,9.057,11.004
			c6.665,6.477,14.209,11.813,22.232,16.427c6.749,3.882,13.701,7.41,20.563,11.094c0.889,0.478,1.803,0.917,2.658,1.45
			c0.815,0.509,0.85,1.463,0.127,2.206c-0.401,0.413-0.831,0.803-1.278,1.165c-5.052,4.083-10.099,8.172-15.173,12.227
			c-1.355,1.082-2.229,0.984-3.328-0.351c-0.917-1.111-1.705-2.329-2.578-3.478c-1.299-1.712-2.373-3.614-4.128-5.084
			c-1.583,0.576-2.582,1.856-3.829,2.776c-1.858,1.371-3.664,2.82-5.586,4.095c-1.711,1.134-2.486,0.954-3.613-0.703
			c-1.461-2.148-2.825-4.362-4.238-6.544c-0.393-0.605-0.791-1.209-1.221-1.788c-1.033-1.389-1.366-1.523-2.878-0.844
			c-2.238,1.004-4.424,2.123-6.659,3.134c-5.546,2.508-5.63,1.813-7.76-2.847c-1.44-3.15-2.963-6.263-4.505-9.366
			c-0.786-1.582-1.21-1.714-2.681-0.925c-1.781,0.955-3.507,2.011-5.284,2.972c-0.884,0.477-1.808,0.908-2.758,1.226
			c-0.741,0.249-1.49-0.036-1.864-0.728c-0.613-1.138-1.157-2.322-1.634-3.524c-1.225-3.084-2.364-6.204-3.605-9.282
			c-0.559-1.385-0.94-1.572-2.321-1.23c-2.66,0.658-5.3,1.401-7.952,2.093c-0.833,0.216-1.671,0.468-2.522,0.547
			c-0.942,0.089-1.717-0.348-1.968-1.313c-0.216-0.829-0.31-1.696-0.401-2.552c-0.339-3.156-0.732-6.309-0.95-9.474
			c-0.142-2.055-0.434-2.598-2.908-2.872c-2.727-0.303-5.46-0.562-8.176-0.94c-4.475-0.622-4.845-1.211-3.904-5.615
			c0.724-3.389,1.402-6.787,2.127-10.175c0.245-1.144-0.142-1.941-1.112-2.548c-2.202-1.376-4.404-2.755-6.573-4.182
			c-0.96-0.631-1.886-1.331-2.739-2.098c-0.587-0.527-0.684-1.302-0.176-1.949c0.889-1.135,1.822-2.24,2.799-3.299
			C73.717,111.934,76.097,109.423,78.784,106.556"/>
		<path clip-path="url(#SVGID_4_)" fill="#435110" d="M126.147,32.761c-0.656,3.543-0.222,6.562-0.25,9.559
			c-0.018,1.872,0.161,3.745,0.181,5.619c0.021,1.963-0.541,2.618-2.471,2.776c-2.73,0.221-5.469,0.334-8.203,0.515
			c-1.87,0.124-3.743,0.232-5.604,0.441c-2.269,0.255-2.48,0.523-2.09,2.696c0.661,3.69,1.46,7.356,2.075,11.054
			c1.147,6.899,1.936,5.639-4.624,8.245c-2.768,1.1-5.697,1.862-8.271,3.603c0.45,1.612,1.54,2.614,2.319,3.795
			c1.589,2.408,3.248,4.771,4.795,7.205c0.716,1.128,0.593,1.785-0.422,2.666c-3.053,2.646-6.17,5.217-9.223,7.864
			c-2.546,2.207-2.55,2.263-0.356,4.671c2.138,2.346,4.355,4.619,6.513,6.946c0.476,0.514,0.859,1.116,1.257,1.696
			c0.056,0.081-0.001,0.335-0.088,0.402c-0.21,0.162-0.495,0.395-0.702,0.355c-0.398-0.078-0.831-0.249-1.133-0.513
			c-3.372-2.956-6.326-6.322-9.319-9.644c-1.247-1.385-1.135-2.281,0.403-3.671c2.569-2.321,5.216-4.555,7.829-6.829
			c1.078-0.939,2.149-1.887,3.287-2.887c-1.811-3.335-3.985-6.205-6.08-9.126c-2.622-3.655-2.535-4.062,1.626-5.809
			c3.191-1.34,6.428-2.569,9.654-3.825c0.98-0.382,1.293-1.094,1.105-2.049c-0.699-3.536-1.438-7.064-2.133-10.602
			c-0.361-1.839-0.72-3.682-0.969-5.538c-0.188-1.399,0.373-2.234,1.82-2.418c3.286-0.417,6.598-0.63,9.891-1
			c2.231-0.251,4.584,0.335,6.67-0.941c0.723-2.13,0.034-4.292,0.123-6.44c0.125-3.023-0.019-6.058,0.084-9.083
			c0.063-1.846,1.189-2.499,2.975-1.788c3.215,1.279,6.391,2.656,9.592,3.969c1.199,0.492,2.416,0.948,3.642,1.373
			c1.448,0.503,1.828,0.392,2.367-0.915c0.932-2.266,1.763-4.573,2.651-6.857c0.784-2.015,1.539-4.044,2.402-6.024
			c0.51-1.168,1.312-1.552,2.435-1.129c1.477,0.556,2.928,1.218,4.316,1.971c3.163,1.715,6.281,3.513,9.314,5.219
			c1.243-0.394,1.68-1.342,2.153-2.218c1.503-2.791,2.956-5.609,4.456-8.402c0.542-1.009,1.11-2.012,1.767-2.948
			c0.361-0.513,0.999-0.516,1.563-0.246c0.254,0.122,0.471,0.332,0.688,0.52c3.483,3.031,6.963,6.064,10.443,9.097
			c0.217,0.19,0.442,0.374,0.636,0.587c0.403,0.445,0.717,0.976,0.344,1.539c-0.397,0.602-0.997,0.453-1.48,0.093
			c-0.806-0.603-1.581-1.251-2.347-1.906c-2.411-2.064-4.794-4.162-7.225-6.201c-1.261-1.058-1.878-0.922-2.615,0.648
			c-1.536,3.267-3.187,6.469-5.135,9.509c-0.463,0.722-0.989,1.42-1.58,2.039c-0.406,0.424-1.046,0.587-1.601,0.33
			c-0.913-0.424-1.775-0.957-2.659-1.441c-3.414-1.87-6.827-3.739-10.241-5.608c-0.775-0.423-1.408-0.229-1.75,0.556
			c-0.805,1.848-1.571,3.715-2.322,5.586c-0.966,2.41-1.857,4.85-2.868,7.24c-0.692,1.637-1.328,1.973-3.05,1.367
			c-3.398-1.195-6.746-2.534-10.105-3.838C129.272,34.099,127.961,33.519,126.147,32.761"/>
		<path clip-path="url(#SVGID_4_)" fill="#435110" d="M198.929,40.345c-1.847,2.558-3.339,4.666-4.875,6.741
			c-1.973,2.664-3.923,5.348-5.997,7.932c-1.105,1.377-1.902,1.459-3.36,0.468c-2.861-1.945-5.623-4.034-8.479-5.985
			c-6.572-4.489-4.779-4.571-8.923,1.83c-2.035,3.146-3.949,6.372-5.985,9.518c-0.877,1.355-1.588,1.383-2.757,0.187
			c-1.916-1.958-3.735-4.014-5.678-5.944c-1.1-1.093-2.071-2.377-3.431-3.04c-1.246,0.357-1.115,1.373-1.269,2.133
			c-0.862,4.241-1.631,8.5-2.483,12.742c-0.312,1.556-1.035,1.931-2.472,1.217c-3.227-1.604-6.403-3.307-9.611-4.946
			c-0.766-0.392-1.557-0.76-2.378-1.002c-0.417-0.123-0.85,0.239-0.798,0.726c0.077,0.707,0.258,1.408,0.449,2.096
			c0.771,2.778,1.583,5.545,2.337,8.327c0.263,0.971,0.476,1.966,0.584,2.963c0.153,1.414-0.375,2.241-1.751,2.54
			c-2.675,0.582-5.369,1.084-8.068,1.543c-2.414,0.412-4.852,0.683-7.267,1.092c-1.165,0.197-1.477,0.85-0.894,1.838
			c1.684,2.857,3.425,5.681,5.146,8.517c0.598,0.986,1.216,1.959,1.797,2.955c0.221,0.379,0.288,0.845-0.078,1.158
			c-0.581,0.496-1.04,0.05-1.476-0.313c-0.109-0.09-0.202-0.209-0.278-0.33c-2.618-4.146-5.285-8.261-7.822-12.456
			c-1.002-1.658-0.463-2.716,1.475-3.11c2.398-0.487,4.831-0.8,7.246-1.21c2.699-0.457,5.402-0.892,8.086-1.425
			c1.617-0.321,1.869-0.746,1.433-2.428c-0.797-3.068-1.696-6.11-2.538-9.167c-0.383-1.389-0.785-2.776-1.078-4.186
			c-0.386-1.86,0.626-2.708,2.473-2.054c1.081,0.382,2.117,0.906,3.142,1.428c2.569,1.308,5.108,2.674,7.686,3.963
			c0.745,0.372,1.431,1.034,2.661,0.72c0.792-1.69,0.874-3.699,1.208-5.634c0.54-3.127,0.968-6.276,2.022-9.289
			c0.625-1.788,1.805-2.171,3.251-0.867c2.14,1.93,4.153,4.002,6.202,6.032c0.819,0.811,1.564,1.698,2.388,2.504
			c0.82,0.802,1.488,0.752,2.1-0.238c2.2-3.555,4.35-7.141,6.522-10.713c2.658-4.368,2.719-4.418,6.83-1.618
			c3.336,2.271,6.57,4.692,9.883,6.996c2.061,1.435,2.212,1.429,3.803-0.681c2.082-2.762,4.04-5.617,6.082-8.41
			c1.106-1.511,2.221-3.022,3.436-4.445c0.951-1.113,1.944-1.14,2.985-0.154c1.256,1.19,2.472,2.427,3.63,3.711
			c2.898,3.213,5.76,6.459,8.62,9.706c0.376,0.427,0.703,0.913,0.96,1.419c0.101,0.199,0.027,0.7-0.107,0.763
			c-0.355,0.165-0.92,0.362-1.164,0.196c-0.703-0.477-1.338-1.082-1.91-1.717c-2.125-2.356-4.191-4.766-6.323-7.117
			C202.577,44.13,200.969,42.495,198.929,40.345"/>
		<path clip-path="url(#SVGID_4_)" fill="#FBA2A8" d="M204.463,28.395c0.624-4.452,4.623-7.187,9.506-6.5
			c4.23,0.595,7.252,4.405,6.609,8.558c-0.669,4.315-4.972,8.252-9.448,7.533C206.964,37.318,203.84,32.843,204.463,28.395"/>
		<path clip-path="url(#SVGID_4_)" fill="#FFFFFF" d="M221.792,7.216c2.904,0.301,5.044,2.64,4.804,5.249
			c-0.296,3.202-3.614,5.812-6.79,5.341c-2.565-0.381-4.332-2.633-4.094-5.22C216.014,9.298,218.73,6.898,221.792,7.216"/>
		<path clip-path="url(#SVGID_4_)" d="M222.844,9.351c2.159-0.566,4.32,0.531,4.85,2.462c0.65,2.371-1.021,5.132-3.42,5.65
			c-1.938,0.418-3.809-0.718-4.335-2.633C219.27,12.395,220.568,9.948,222.844,9.351"/>
		<path clip-path="url(#SVGID_4_)" fill="#FFFFFF" d="M251.693,11.959c2.904,0.301,5.045,2.64,4.804,5.249
			c-0.296,3.202-3.613,5.813-6.789,5.341c-2.565-0.381-4.332-2.633-4.095-5.22C245.916,14.041,248.631,11.642,251.693,11.959"/>
		<path clip-path="url(#SVGID_4_)" d="M252.746,14.094c2.158-0.566,4.319,0.531,4.85,2.463c0.65,2.37-1.021,5.132-3.42,5.649
			c-1.938,0.418-3.809-0.718-4.335-2.633C249.171,17.138,250.469,14.691,252.746,14.094"/>
		<g opacity="0.11" clip-path="url(#SVGID_4_)">
			<g>
				<defs>
					<rect id="SVGID_7_" x="181.799" y="186.905" width="271.467" height="175.106"/>
				</defs>
				<clipPath id="SVGID_8_">
					<use xlink:href="#SVGID_7_"  overflow="visible"/>
				</clipPath>
				<path clip-path="url(#SVGID_8_)" fill="#010102" d="M452.717,333.691c-1.115-1.788-2.267-3.606-3.704-5.126
					c-1.881-1.99-2.633-4.235-2.915-6.9c-0.764-7.208-1.697-14.4-2.637-21.59c-0.704-5.392-1.458-10.777-2.303-16.148
					c-1.101-7.009-2.013-14.056-4.094-20.878c-0.8-2.62-1.931-5.056-3.354-7.395c-3.453-5.672-10.091-6.577-16.258-5.325
					c-1.036-3.236-2.334-6.4-3.988-9.465c-2.688-4.983-6.069-9.361-10.465-12.95c-5.784-4.726-12.171-8.388-19.167-11.007
					c-6.531-2.445-13.283-4.056-20.129-5.264c-9.002-1.589-18.082-2.223-27.223-1.994c-1.829-5.866-4.702-11.237-9.124-15.722
					c-6.267-6.354-13.587-8.594-22.336-5.904c-6.302,1.938-12.042,4.916-17.233,8.862c-2.351,1.786-4.182,1.941-6.918,0.811
					c-15.962-6.588-34.729-0.18-44.069,11.226c-4.075,4.977-7.262,10.382-9.287,16.482c-2.349,7.08-3.516,14.362-3.753,21.805
					c-0.273,8.614-0.143,17.226,0.263,25.832c0.129,2.733-0.011,5.442-0.415,8.135c-0.36,2.399-1.005,4.743-2.169,6.886
					c-1.686,3.106-4.691,3.826-7.622,1.793c-1.106-0.767-2.107-1.726-3.024-2.719c-2.576-2.793-4.755-5.882-6.305-9.361
					c-4.063-9.122-7.527-18.456-9.841-28.191c-0.384-1.616-0.762-3.237-1.226-4.832c-0.5-1.717-1.155-2.174-3.015-1.906
					c-2.089,0.302-4.174,0.697-6.22,1.213c-2.336,0.59-2.57,1.046-2.297,3.568c0.097,0.9,0.234,1.801,0.416,2.688
					c0.913,4.438,1.853,8.872,2.772,13.31c2.002,9.661,5.263,18.9,9.3,27.882c1.553,3.454,3.332,6.78,5.56,9.848
					c2.696,3.711,5.933,6.832,9.951,9.119c2.836,1.614,5.839,2.366,9.107,2.242c6.447-0.244,12.069-2.403,16.833-6.823
					c4.823-4.476,8.662-9.655,11.611-15.523c0.661-1.314,1.014-2.819,2.67-4.463c0.105,1.353,0.135,2.104,0.233,2.848
					c0.059,0.442,0.177,0.892,0.351,1.303c0.576,1.368,2.249,1.753,3.381,0.763c2.154-1.884,2.774-4.603,3.854-7.083
					c0.891-2.045,0.641-4.879,2.606-6.067c2.023-1.224,4.717-0.668,7.11-0.943c0.15-0.018,0.302-0.023,0.452-0.026
					c1.905-0.046,2.154,0.15,2.121,1.943c-0.267,13.896,0.025,27.802-0.836,41.686c-0.457,7.388-0.983,14.771-1.337,22.165
					c-0.165,3.464-1.193,6.47-3.448,9.119c-0.217,0.254-0.424,0.519-0.631,0.782c-0.607,0.333-1.165,0.979-1.713,1.951
					c-0.432,0.764-0.698,1.645-0.899,2.505c-0.214,0.912,0.427,1.93,1.346,1.996c0.04,0.003,0.081,0.002,0.121,0.005
					c0.27,0.104,0.563,0.182,0.921,0.178c0.586-0.007,1.175-0.047,1.764-0.073c1.452,0.069,2.904,0.167,4.359,0.17
					c2.115,0.005,4.138-0.64,6.134-1.272c0.883-0.28,1.307-0.869,1.351-1.601c0.19-0.174,0.382-0.361,0.579-0.577
					c-0.447,1.528-0.29,2.435,0.648,2.991c0.39,0.836,1.646,1.276,3.631,1.762c8.187,2.003,16.411,2.017,24.655,0.541
					c2.519-0.451,4.938-1.352,7.241-2.489c1.114-0.551,1.438-1.422,1.173-2.626c-0.043-0.193-0.131-0.362-0.188-0.548
					c0.229-0.874,0.409-2.018,0.577-3.569c0.7-6.451,1.405-12.903,2.224-19.341c0.57-4.491,1.305-8.963,2.031-13.433
					c0.252-1.551,0.739-1.922,2.094-1.669c8.803,1.645,17.679,1.997,26.613,1.844c8.172-0.141,16.298-0.629,24.365-1.973
					c1.113-0.186,2.23-0.343,3.348-0.502c-0.078,0.357-0.127,0.778-0.154,1.306c-0.063,1.206-0.032,2.416-0.055,3.624
					c-0.105,5.283-0.275,10.566-0.304,15.85c-0.013,2.338,0.03,4.65-0.533,6.832c-1.166,0.565-2.145,1.657-2.674,3.274
					c-0.094,0.285-0.145,0.586-0.211,0.88c-0.528,2.337,0.317,3.613,2.655,3.563c2.707-0.059,5.408-0.388,8.089-0.598
					c0.131,0.332,0.245,0.619,0.354,0.884c0.08,0.418,0.234,0.771,0.486,1.05c0.568,1.044,1.129,1.213,2.781,1.399
					c7.998,0.9,15.966,0.511,23.902-0.727c1.661-0.259,3.211-0.88,4.621-1.761c0.44-0.275,0.893-0.976,0.875-1.465
					c-0.006-0.19-0.06-0.36-0.085-0.543c0.515-0.644,0.967-1.36,1.282-2.226c0.615-1.69,1.107-3.46,1.377-5.235
					c0.566-3.729,0.977-7.483,1.404-11.232c1.921-16.841,2.659-33.722,1.715-50.665c-0.378-4.819-0.623-9.652-1.158-14.455
					c-0.418-3.745-1.02-7.441-1.878-11.067c0.076,0.018,0.121,0.049,0.199,0.065c0.296,0.063,0.595,0.115,0.892,0.17
					c4.671,0.829,7.96,3.479,9.942,7.724c0.828,1.771,1.546,3.617,2.082,5.495c1.458,5.087,2.55,10.257,3.125,15.526
					c0.458,4.205,0.901,8.412,1.403,12.612c1.038,8.698,2.062,17.4,3.205,26.086c0.29,2.197,0.135,4.139-1.087,6.051
					c-1.055,1.648-1.91,3.432-2.768,5.196c-1.213,2.494-0.496,3.65,2.371,3.633c2.11-0.014,4.218-0.301,6.325-0.465
					c0.002,0.024,0.004,0.049,0.006,0.074c0.753-0.06,1.507-0.112,2.26-0.179c1.505-0.132,3.02-0.201,4.511-0.425
					C453.245,336.625,453.806,335.436,452.717,333.691"/>
			</g>
		</g>
		<path clip-path="url(#SVGID_4_)" fill="#A7AFD4" d="M410.792,265.872c0.943,16.943,0.206,33.823-1.715,50.664
			c-0.429,3.75-0.838,7.503-1.404,11.232c-0.271,1.775-0.763,3.545-1.378,5.235c-1.014,2.785-3.094,4.453-6.046,4.817
			c-7.198,0.889-14.408,1.848-21.672,1.72c-6.06-0.105-7.374-0.922-5.317-6.897c1.768-5.141,2.047-10.311,1.692-15.629
			c-0.291-4.371-0.432-8.752-0.65-13.127c-0.038-0.753-0.105-1.508-0.228-2.25c-0.181-1.103-0.833-1.613-1.905-1.303
			c-3.356,0.974-6.828,1.257-10.252,1.827c-8.067,1.345-16.193,1.833-24.365,1.974c-8.934,0.153-17.811-0.2-26.612-1.844
			c-1.355-0.253-1.842,0.117-2.094,1.668c-0.727,4.47-1.461,8.941-2.033,13.434c-0.816,6.437-1.522,12.889-2.222,19.341
			c-0.752,6.932-1.704,6.046-6.428,6.764c-9.138,1.388-18.324,1.879-27.544,0.932c-4.196-0.431-4.781-1.436-3.26-5.207
			c0.113-0.28,0.18-0.6,0.359-0.829c2.995-3.869,2.891-8.324,2.791-12.921c-0.322-14.949-0.352-29.905-0.645-44.855
			c-0.116-5.887-0.531-11.774-1.004-17.646c-0.244-3.033,0.321-5.636,2.323-7.983c1.467-1.719,2.667-3.662,4.081-5.43
			c14.152-17.708,29.101-34.751,43.576-52.188c1.643-1.979,3.443-2.649,5.823-2.721c9.392-0.283,18.718,0.359,27.963,1.991
			c6.846,1.208,13.598,2.819,20.129,5.264c6.996,2.619,13.383,6.281,19.168,11.007c4.395,3.589,7.776,7.967,10.465,12.95
			c4.312,7.992,6.25,16.649,7.243,25.556C410.168,256.218,410.416,261.052,410.792,265.872"/>
		<path clip-path="url(#SVGID_4_)" fill="#939DBA" d="M239.034,270.903c-1.656,1.643-2.008,3.148-2.669,4.462
			c-2.95,5.868-6.788,11.049-11.611,15.523c-4.764,4.421-10.387,6.579-16.833,6.823c-3.268,0.124-6.271-0.628-9.108-2.242
			c-4.017-2.286-7.254-5.407-9.95-9.118c-2.228-3.068-4.007-6.395-5.56-9.848c-4.038-8.982-7.298-18.222-9.3-27.883
			c-0.919-4.438-1.859-8.871-2.772-13.31c-0.183-0.887-0.319-1.787-0.417-2.688c-0.272-2.523-0.038-2.979,2.297-3.568
			c2.047-0.517,4.132-0.912,6.221-1.213c1.86-0.269,2.515,0.188,3.015,1.905c0.464,1.595,0.842,3.216,1.226,4.833
			c2.314,9.735,5.778,19.069,9.841,28.19c1.55,3.479,3.729,6.568,6.305,9.361c0.917,0.993,1.917,1.952,3.023,2.72
			c2.932,2.031,5.937,1.313,7.623-1.793c1.164-2.144,1.808-4.486,2.169-6.886c0.404-2.692,0.543-5.402,0.415-8.135
			c-0.406-8.607-0.536-17.218-0.263-25.833c0.237-7.443,1.403-14.724,3.753-21.804c2.025-6.101,5.211-11.506,9.287-16.482
			c9.34-11.406,28.107-17.814,44.069-11.226c2.736,1.129,4.568,0.975,6.918-0.811c5.191-3.946,10.933-6.925,17.233-8.862
			c8.749-2.69,16.068-0.45,22.336,5.904c5.132,5.203,8.184,11.595,9.931,18.573c4.591,18.343,3.883,36.538-1.951,54.526
			c-1.313,4.049-3.211,7.824-5.506,11.398c-6.641,10.343-17.48,14.147-29.155,10.219c-5.048-1.698-9.684-4.229-14.095-7.186
			c-1.004-0.672-1.963-1.414-2.983-2.062c-0.343-0.218-0.818-0.362-1.218-0.329c-0.618,0.051-0.542,0.66-0.534,1.073
			c0.105,5.59-0.016,11.199,0.409,16.766c1.05,13.729,0.947,27.485,1.204,41.233c0.045,2.412-0.106,4.835-0.28,7.245
			c-0.165,2.285-0.74,4.459-2.164,6.344c-4.405,5.836-3.969,5.721-10.958,6.813c-2.081,0.325-4.207,0.463-6.315,0.487
			c-1.656,0.02-2.395-1.212-1.915-2.773c0.545-1.776,1.602-3.27,2.771-4.644c2.255-2.649,3.283-5.654,3.449-9.119
			c0.354-7.393,0.878-14.777,1.337-22.165c0.86-13.884,0.569-27.79,0.835-41.686c0.034-1.793-0.215-1.989-2.12-1.943
			c-0.151,0.004-0.303,0.009-0.452,0.026c-2.395,0.276-5.087-0.279-7.111,0.943c-1.966,1.189-1.716,4.022-2.605,6.067
			c-1.08,2.48-1.7,5.2-3.854,7.083c-1.133,0.99-2.805,0.605-3.382-0.762c-0.173-0.412-0.292-0.86-0.351-1.304
			C239.168,273.006,239.14,272.255,239.034,270.903"/>
		<path clip-path="url(#SVGID_4_)" fill="#525674" d="M433.447,322.442c-2.108,0.165-4.216,0.451-6.325,0.465
			c-2.867,0.019-3.584-1.138-2.372-3.633c0.858-1.765,1.714-3.547,2.768-5.195c1.222-1.912,1.377-3.854,1.088-6.052
			c-1.144-8.686-2.167-17.387-3.206-26.086c-0.501-4.2-0.945-8.407-1.403-12.611c-0.574-5.271-1.666-10.44-3.124-15.527
			c-0.537-1.877-1.254-3.724-2.081-5.494c-1.983-4.244-5.273-6.895-9.944-7.725c-0.297-0.053-0.595-0.105-0.891-0.168
			c-2.288-0.49-3.076-1.512-2.874-3.723c0.062-0.668,0.434-1.195,1.043-1.325c6.237-1.329,13.011-0.467,16.511,5.283
			c1.425,2.339,2.555,4.774,3.354,7.396c2.081,6.82,2.993,13.867,4.094,20.876c0.845,5.371,1.6,10.758,2.304,16.149
			c0.938,7.188,1.871,14.381,2.636,21.589c0.282,2.666,1.034,4.911,2.916,6.9c1.437,1.521,2.589,3.338,3.703,5.126
			c1.089,1.745,0.528,2.935-1.42,3.227c-1.491,0.223-3.006,0.293-4.511,0.425c-0.752,0.066-1.506,0.119-2.259,0.178
			C433.451,322.492,433.449,322.466,433.447,322.442"/>
		<path clip-path="url(#SVGID_4_)" fill="#525674" d="M377.22,309.758c0.166,4.077,0.325,8.143,0.015,12.226
			c-0.315,4.136-1.637,7.96-3.228,11.729c-0.506,1.198-1.263,2.026-2.662,2.098c-2.563,0.131-5.124,0.359-7.688,0.416
			c-1.702,0.038-2.736-1.508-1.674-2.695c2.93-3.277,2.748-7.154,2.77-11.092c0.029-5.283,0.198-10.565,0.304-15.849
			c0.024-1.208-0.009-2.418,0.055-3.624c0.118-2.211,0.519-2.747,2.52-3.063c1.938-0.308,3.895-0.526,5.851-0.674
			c2.085-0.157,2.854,0.41,3.08,2.401C376.867,304.331,377.008,307.048,377.22,309.758"/>
		<path clip-path="url(#SVGID_4_)" fill="#525674" d="M277.024,226.263c-0.236-8.037-0.275-17.092-0.346-26.144
			c-0.03-3.835,0.514-4.53,4.188-6.02c2.807-1.137,5.675-1.98,8.729-2.227c5.223-0.423,9.435,1.423,12.836,5.33
			c2.745,3.155,4.251,6.945,5.384,10.865c2.61,9.027,2.799,18.143,0.561,27.285c-0.648,2.649-1.61,5.19-3.012,7.539
			c-3.302,5.537-8.163,8.33-14.638,8.09c-3.494-0.129-6.852-0.974-10.095-2.293c-1.727-0.702-2.602-1.896-2.688-3.78
			C277.673,239.029,277.226,233.156,277.024,226.263"/>
		<path clip-path="url(#SVGID_4_)" fill="#C4C8CB" d="M225.068,265.765c-8.806,0.111-15.805-2.66-20.808-9.627
			c-0.966-1.346-1.932-2.697-1.973-4.468c-0.018-0.805,0.782-1.461,1.509-1.106c0.805,0.393,1.59,0.843,2.332,1.344
			c8.902,6.007,18.144,5.583,27.521,1.358c3.988-1.797,3.98-1.816,5.745,2.269c0.783,1.813,0.552,3.131-0.851,4.431
			C234.605,263.612,229.798,265.137,225.068,265.765"/>
		<path clip-path="url(#SVGID_4_)" fill="#525674" d="M372.787,334.758c1.152-1.181,1.894-2.174,2.853-2.869
			c1.589-1.155,3.552-0.901,4.936,0.521c0.624,0.643,1.089,1.438,1.646,2.15c0.438,0.559,0.489,1.456,1.401,1.619
			c1.217-0.258,1.387-1.473,2.031-2.246c2.735-3.281,4.918-3.381,7.832-0.318c0.405,0.426,0.798,0.86,1.233,1.331
			c1.368-1.147,2.113-2.682,3.652-3.468c1.538-0.784,2.929-0.633,4.284,0.202c1.497,0.923,2.381,2.332,2.444,4.092
			c0.017,0.489-0.435,1.189-0.877,1.466c-1.409,0.88-2.959,1.501-4.62,1.76c-7.937,1.237-15.904,1.628-23.903,0.727
			c-2.372-0.268-2.493-0.456-3.619-3.332c-2.682,0.21-5.384,0.539-8.091,0.597c-2.338,0.051-3.182-1.227-2.654-3.563
			c0.066-0.295,0.116-0.595,0.21-0.881c1.285-3.924,5.15-4.945,8.186-2.125c0.652,0.606,1.146,1.393,1.669,2.128
			C371.826,333.147,372.185,333.792,372.787,334.758"/>
		<path clip-path="url(#SVGID_4_)" fill="#FBA2A8" d="M254.375,237.241c-5.091,0.469-9.239-2.862-9.764-7.842
			c-0.588-5.578,3.686-10.715,9.344-11.23c5.047-0.46,9.258,2.92,9.791,7.859C264.343,231.565,260.035,236.72,254.375,237.241"/>
		<path clip-path="url(#SVGID_4_)" fill="#525674" d="M286.415,341.609c0.941-1.195,1.517-2.094,2.254-2.829
			c1.961-1.956,3.311-2.019,5.518-0.353c0.456,0.345,0.843,0.783,1.176,1.097c1.38-0.191,1.697-1.408,2.566-1.969
			c1.766-1.138,3.463-0.993,4.868,0.508c0.74,0.791,1.174,1.734,1.404,2.787c0.265,1.205-0.059,2.076-1.173,2.626
			c-2.304,1.138-4.723,2.038-7.241,2.489c-8.244,1.476-16.469,1.462-24.655-0.541c-3.931-0.961-5.027-1.73-2.123-5.798
			c2.11-2.957,4.756-2.938,7.053-0.098c0.462,0.571,0.797,1.243,1.186,1.86c1.626-0.223,2.057-1.78,3.173-2.5
			c1.571-1.014,2.687-1.034,4.034,0.296C285.088,339.812,285.587,340.575,286.415,341.609"/>
		<path clip-path="url(#SVGID_4_)" fill="#525674" d="M257.983,339.573c0.732-0.658,1.345-1.309,2.054-1.824
			c1.873-1.364,3.655-1.116,5.095,0.689c0.369,0.461,0.636,1.013,0.894,1.55c0.631,1.316,0.25,2.433-1.104,2.861
			c-1.995,0.633-4.018,1.278-6.134,1.273c-2.389-0.006-4.782-0.107-7.164-0.279c-0.918-0.066-1.559-1.084-1.346-1.997
			c0.201-0.86,0.469-1.741,0.899-2.505c1.469-2.606,3.003-2.873,5.409-1.019C257.051,338.682,257.465,339.108,257.983,339.573"/>
		<path clip-path="url(#SVGID_4_)" fill="#525674" d="M212.061,288.436c0.008,0.104,0.037,0.254,0.028,0.401
			c-0.028,0.455-0.101,0.928-0.692,0.899c-0.234-0.011-0.54-0.196-0.667-0.395c-0.237-0.373-0.424-0.802-0.534-1.23
			c-0.557-2.175-1.114-4.351-1.589-6.544c-0.07-0.329,0.188-0.9,0.474-1.096c0.469-0.32,0.836,0.135,0.953,0.546
			C210.73,283.468,211.382,285.932,212.061,288.436"/>
		<path clip-path="url(#SVGID_4_)" fill="#525674" d="M216.187,274.473c0.273,0.076,0.64,0.066,0.803,0.244
			c1.822,1.984,3.622,3.991,5.396,6.021c0.13,0.149,0.115,0.594-0.013,0.766c-0.299,0.398-0.819,0.486-1.152,0.121
			c-1.817-1.988-3.6-4.009-5.36-6.048c-0.135-0.157-0.025-0.554,0.027-0.828C215.908,274.642,216.083,274.564,216.187,274.473"/>
		<path clip-path="url(#SVGID_4_)" fill="#525674" d="M197.084,285.015c-0.118-0.261-0.396-0.579-0.327-0.774
			c0.752-2.145,2.259-3.813,3.637-5.557c0.125-0.157,0.584-0.22,0.766-0.115c0.2,0.114,0.427,0.55,0.353,0.718
			c-0.919,2.047-2.149,3.901-3.675,5.549C197.692,284.993,197.341,284.96,197.084,285.015"/>
		<path clip-path="url(#SVGID_4_)" fill="#525674" d="M194.094,271.014c-0.071,0.282-0.047,0.683-0.228,0.828
			c-1.389,1.121-2.814,2.198-4.239,3.274c-0.293,0.22-0.632,0.155-0.78-0.173c-0.106-0.236-0.186-0.646-0.06-0.799
			c1.245-1.519,2.765-2.705,4.58-3.471C193.532,270.605,193.848,270.892,194.094,271.014"/>
		<path clip-path="url(#SVGID_4_)" fill="#525674" d="M175.717,239.23c-0.33-0.131-0.595-0.237-0.859-0.342
			c0.176-0.365,0.271-0.958,0.544-1.057c1.522-0.551,3.081-1.001,4.643-1.428c0.205-0.056,0.636,0.158,0.727,0.355
			c0.203,0.442-0.03,0.827-0.47,1.037C178.825,238.501,177.289,239.022,175.717,239.23"/>
		<path clip-path="url(#SVGID_4_)" fill="#525674" d="M179.316,251.362c-0.35-0.225-0.581-0.303-0.583-0.389
			c-0.01-0.28-0.039-0.7,0.124-0.824c1.578-1.204,3.447-1.786,5.322-2.322c0.125-0.035,0.523,0.358,0.538,0.571
			c0.043,0.598,0.529,0.068,0.057,0.443C183.108,250.166,181.146,250.804,179.316,251.362"/>
		<path clip-path="url(#SVGID_4_)" fill="#525674" d="M183.45,263.462c0.021-0.146-0.013-0.363,0.069-0.426
			c1.609-1.206,3.162-2.562,5.395-2.275c0.071,0.009,0.197,0.265,0.161,0.325c-1.144,1.918-3.194,2.281-5.083,2.9
			C183.88,264.023,183.633,263.647,183.45,263.462"/>
		<path clip-path="url(#SVGID_4_)" fill="#FFFFFF" d="M240.271,221.966c-2.799,0.831-5.67-0.513-6.444-3.016
			c-0.95-3.072,1.119-6.752,4.234-7.529c2.516-0.628,5.009,0.778,5.777,3.259C244.816,217.836,243.222,221.09,240.271,221.966"/>
		<path clip-path="url(#SVGID_4_)" d="M238.483,220.395c-1.779,1.348-4.196,1.16-5.423-0.423c-1.507-1.943-1.017-5.133,1.003-6.528
			c1.631-1.126,3.794-0.791,5.012,0.778C240.624,216.216,240.358,218.974,238.483,220.395"/>
		<g opacity="0.11" clip-path="url(#SVGID_4_)">
			<g>
				<defs>
					<rect id="SVGID_9_" x="9.872" y="285.931" width="261.338" height="206.195"/>
				</defs>
				<clipPath id="SVGID_10_">
					<use xlink:href="#SVGID_9_"  overflow="visible"/>
				</clipPath>
				<path clip-path="url(#SVGID_10_)" fill="#010102" d="M261.907,405.941c-1.027-4.568-2.313-9.084-4.292-13.361
					c-1.824-3.941-4.447-7.183-8.163-9.468c-5.069-3.118-10.257-3.276-15.436-0.368c-5.235,2.942-9.205,7.274-12.656,12.123
					c-0.018,0.027-0.024,0.053-0.041,0.08c-2.401-2.279-5.167-4.291-8.406-5.954c-8.757-4.496-17.911-8.03-27.557-10.119
					c-8.655-1.874-17.382-3.168-26.158-4.053c-0.093-1.269-0.47-2.603-1.207-3.964c-1.093-2.022-2.523-3.802-4.302-5.229
					c-1.882-1.51-3.886-2.87-5.865-4.255c-0.865-0.604-1.814-1.087-2.702-1.66c-0.534-0.345-0.386-1.14,0.265-1.396
					c1.122-0.441,2.288-0.778,3.385-1.272c2.623-1.183,5.145-2.521,7.192-4.639c4.054-4.189,4.227-9.429,0.362-13.833
					c-1.61-1.836-3.536-3.28-5.637-4.524c-1.134-0.671-2.518-0.985-3.413-2.268c0.812-1.415,1.672-2.832,2.45-4.294
					c1.003-1.88,1.785-3.831,1.906-6.014c0.284-5.095-2.398-8.401-7.472-9.022c-2.418-0.296-4.808-0.064-7.17,0.617
					c-2.638,0.762-5.047,1.985-7.407,3.354c-0.682,0.396-1.322,1.173-2.422,0.571c0.456-1.936,1.001-3.819,1.33-5.741
					c0.54-3.161,0.648-6.33-0.426-9.437c-1.228-3.551-3.758-5.376-7.431-5.665c-1.512-0.12-3.003,0.028-4.484,0.431
					c-2.521,0.685-4.662,2.065-6.859,3.417c-1.851,1.139-2.797,3.606-5.361,3.659c-0.111-2.086-0.244-4.17-0.329-6.256
					c-0.107-2.631-0.776-5.099-2.157-7.333c-1.727-2.795-4.214-4.187-7.555-4.137c-3.569,0.053-6.38,1.603-8.771,4.105
					c-2.015,2.111-3.306,4.666-4.509,7.302c-0.54,1.185-0.489,2.745-2.072,3.615c-0.783-1.632-1.511-3.242-2.319-4.812
					c-1.25-2.429-2.578-4.819-4.588-6.721c-2.494-2.359-5.478-3.362-8.759-2.311c-3.319,1.064-5.02,3.732-5.615,7.096
					c-0.21,1.188-0.304,2.411-0.31,3.619c-0.008,1.817,0.132,3.636,0.159,5.452c0.01,0.7,0.375,1.481-0.546,2.293
					c-1.42-0.739-2.262-2.215-3.367-3.338c-2.651-2.696-5.818-4.305-9.509-4.875c-5.055-0.781-9.332,2.381-10.142,7.45
					c-0.39,2.44-0.098,4.85,0.531,7.207c0.9,3.378,2.19,6.604,3.817,9.705c0.545,1.04,1.482,1.94,1.44,3.448
					c-1.482,0.49-2.933-0.036-4.346-0.292c-2.545-0.459-5.097-0.553-7.668-0.518c-1.987,0.027-3.907,0.442-5.762,1.093
					c-3.844,1.348-6.107,5.989-4.087,10.066c0.817,1.65,1.876,3.103,3.183,4.387c2.609,2.563,5.528,4.688,8.751,6.409
					c0.551,0.294,1.467,0.476,1.024,1.66c-2.984,0-6.002-0.082-9.013,0.023c-2.89,0.101-5.72,0.706-8.27,2.116
					c-3.712,2.052-4.355,6.57-1.456,9.639c1.477,1.565,3.3,2.646,5.23,3.535c2.748,1.268,5.589,2.281,8.535,2.988
					c0.58,0.139,1.268,0.247,1.465,0.904c0.22,0.73-0.468,1.007-0.929,1.313c-2.647,1.763-5.18,3.672-7.508,5.848
					c-1.439,1.344-2.849,2.726-3.863,4.436c-2.041,3.443-0.803,6.676,3.043,7.828c2.363,0.707,4.804,0.584,7.182,0.124
					c2.809-0.544,5.578-1.296,8.364-1.959c0.833-0.197,1.644-0.757,2.803,0.029c-1.129,1.038-2.207,2.039-3.295,3.028
					c-2.136,1.938-4.134,3.996-5.69,6.449c-0.986,1.557-1.718,3.199-1.772,5.083c-0.093,3.237,1.71,5.51,4.885,6.104
					c0.328,0.062,0.654,0.076,0.981,0.11c-3.1,9.253-5.533,18.704-7.433,28.323c-2.437,12.345-4.184,24.802-6.07,37.233
					c-0.505,3.332-1.428,6.131-4.138,8.204c-0.472,0.361-0.872,0.848-1.222,1.337c-0.95,1.326-2.559,2.642-1.763,4.387
					c0.915,2.004,3.065,1.674,4.835,1.444c4.653-0.604,9.177-1.785,13.562-3.468c2.02-0.776,3.623-2.131,5.048-3.745
					c2.132-2.415,3.672-5.19,4.923-8.125c4.987-11.696,10.659-23.104,14.772-35.173c0.725-2.128,0.902-2.187,3.364-1.637
					c3.681,0.821,7.354,1.679,11.014,2.59c3.696,0.92,3.638,0.943,2.558,4.801c-1.182,4.228-2.353,8.463-3.367,12.733
					c-1.857,7.821-3.021,15.773-4.09,23.731c-0.312,2.326-0.824,4.435-2.544,6.133c-0.531,0.522-0.937,1.191-1.32,1.841
					c-0.382,0.647-0.743,1.33-0.975,2.042c-0.705,2.17,0.228,3.65,2.425,3.859c0.745,0.07,1.514,0.046,2.256-0.055
					c2.541-0.343,5.092-0.649,7.609-1.131c5.651-1.08,9.967-4.058,12.814-9.173c2.295-4.124,4.111-8.448,5.549-12.921
					c2.548-7.93,4.931-15.912,7.445-23.854c1.384-4.371,0.339-4.325,5.391-4.046c0.754,0.042,1.506,0.098,2.261,0.134
					c11.307,0.533,22.615,1.068,33.924,1.587c1.809,0.083,3.623,0.051,5.432,0.145c1.774,0.092,2.214,0.612,1.696,2.27
					c-1.456,4.646-2.181,9.438-3.006,14.216c-0.904,5.235-2.231,10.359-4.057,15.356c-1.042,2.851-1.915,5.754-4.161,7.97
					c-0.417,0.411-0.684,0.998-0.952,1.538c-1.01,2.032-0.16,3.56,2.13,3.865c2.611,0.349,5.096-0.429,7.612-0.884
					c4.21-0.762,7.528-2.901,10.014-6.445c2.005-2.856,3.816-5.814,5.476-8.884c4.828-8.922,9.781-17.775,14.545-26.732
					c1.24-2.331,2.858-3.242,5.417-3.129c2.558,0.112,5.129-0.126,7.694-0.13c2.094-0.002,2.254,0.072,2.897,2.098
					c2.022,6.37,5.64,11.687,10.409,16.277c2.308,2.223,4.951,3.976,7.729,5.521c1.989,1.106,2.748,2.744,2.37,4.922
					c-0.439,2.537-0.975,5.057-1.445,7.589c-0.475,2.563-1.086,5.047-3.341,6.721c-0.233,0.173-0.384,0.465-0.555,0.714
					c-1.449,2.104-0.686,3.768,1.924,4.128c0.743,0.103,1.507,0.095,2.26,0.086c2.43-0.028,4.801-0.479,7.145-1.091
					c3.744-0.979,6.401-3.182,7.943-6.814c1.424-3.355,2.619-6.78,3.544-10.299c1.928-7.335,3.165-14.814,4.459-22.276
					c0.985-5.68,1.341-11.438,1.648-17.455c-0.319-5.492-0.646-11.236-1.484-16.949c-0.897-6.11-2.981-11.376-6.22-15.803
					c0.119-0.106,0.225-0.168,0.357-0.307c2.507-2.636,5.312-4.925,8.102-7.236c2.025-1.678,4.331-2.737,6.893-3.215
					c3.361-0.627,6.268,0.21,8.569,2.853c1.397,1.605,2.491,3.401,3.471,5.29c2.326,4.489,3.356,9.359,4.417,14.246
					c0.348,1.603,0.199,2.931-0.528,4.336c-1.117,2.16-1.882,4.479-2.315,6.856c-1.725,9.474,2.426,16.736,8.837,23.087
					c0.726,0.718,1.713,0.566,2.337-0.352c3.549-5.219,5.882-10.874,6.004-16.007c-0.021-7.33-2.048-12.598-6.249-16.885
					C263.284,410.108,262.425,408.248,261.907,405.941"/>
			</g>
		</g>
		<path clip-path="url(#SVGID_4_)" fill="#FCE31B" d="M222.9,416.082c-0.308,6.018-0.663,11.775-1.648,17.455
			c-1.294,7.462-2.532,14.94-4.459,22.274c-0.925,3.521-2.121,6.945-3.544,10.301c-1.542,3.633-4.199,5.836-7.943,6.814
			c-2.344,0.612-4.715,1.063-7.146,1.091c-0.753,0.009-1.516,0.017-2.259-0.086c-2.61-0.36-3.374-2.024-1.924-4.128
			c0.171-0.249,0.321-0.541,0.554-0.714c2.256-1.674,2.867-4.157,3.343-6.721c0.469-2.532,1.005-5.052,1.444-7.589
			c0.378-2.178-0.381-3.815-2.371-4.922c-2.777-1.545-5.421-3.298-7.729-5.521c-4.768-4.591-8.386-9.907-10.408-16.277
			c-0.643-2.025-0.804-2.1-2.896-2.098c-2.566,0.004-5.138,0.242-7.696,0.13c-2.559-0.114-4.176,0.798-5.416,3.129
			c-4.763,8.956-9.717,17.811-14.545,26.732c-1.661,3.069-3.472,6.027-5.476,8.884c-2.486,3.543-5.804,5.684-10.014,6.445
			c-2.516,0.455-5.002,1.232-7.612,0.884c-2.291-0.306-3.141-1.833-2.13-3.865c0.268-0.54,0.535-1.127,0.952-1.538
			c2.245-2.216,3.119-5.119,4.16-7.97c1.827-4.998,3.154-10.122,4.058-15.357c0.825-4.776,1.55-9.568,3.005-14.215
			c0.519-1.657,0.078-2.178-1.696-2.27c-1.808-0.094-3.623-0.061-5.432-0.144c-11.309-0.52-22.616-1.056-33.923-1.589
			c-0.754-0.035-1.508-0.091-2.262-0.133c-5.051-0.278-4.007-0.325-5.39,4.046c-2.514,7.94-4.897,15.924-7.445,23.853
			c-1.438,4.474-3.255,8.798-5.549,12.922c-2.848,5.115-7.163,8.093-12.814,9.173c-2.517,0.48-5.068,0.788-7.609,1.131
			c-0.742,0.1-1.512,0.125-2.256,0.055c-2.197-0.209-3.131-1.689-2.425-3.859c0.232-0.712,0.593-1.395,0.975-2.042
			c0.382-0.65,0.789-1.318,1.319-1.842c1.721-1.697,2.233-3.807,2.545-6.131c1.068-7.96,2.232-15.911,4.089-23.732
			c1.014-4.271,2.185-8.506,3.368-12.733c1.079-3.857,1.138-3.881-2.559-4.801c-3.659-0.911-7.332-1.769-11.013-2.59
			c-2.462-0.55-2.639-0.491-3.364,1.637c-4.113,12.069-9.785,23.476-14.772,35.173c-1.251,2.935-2.791,5.71-4.923,8.125
			c-1.425,1.614-3.028,2.969-5.048,3.745c-4.386,1.683-8.909,2.863-13.561,3.468c-1.771,0.229-3.921,0.56-4.836-1.444
			c-0.797-1.745,0.812-3.061,1.762-4.387c0.351-0.489,0.75-0.976,1.223-1.337c2.71-2.073,3.632-4.872,4.138-8.204
			c1.886-12.432,3.633-24.889,6.071-37.234c2.767-14.013,6.553-27.707,12.104-40.881c0.409-0.971,0.795-1.979,1.377-2.844
			c0.888-1.318,2.32-1.468,3.489-0.458c1.371,1.188,2.704,2.42,4.045,3.643c4.459,4.066,9.746,6.573,15.475,8.205
			c8.699,2.479,17.455,3.131,26.404,1.242c6.944-1.466,13.899-2.748,20.458-5.641c5.289-2.333,10.271-5.147,14.716-8.839
			c5.002-4.153,9.941-8.388,14.81-12.698c1.564-1.386,3.116-2.09,5.256-2.019c14.669,0.487,29.191,2.159,43.538,5.266
			c9.645,2.089,18.8,5.623,27.557,10.119c10.555,5.42,16.641,14.145,18.374,25.961C222.254,404.844,222.581,410.589,222.9,416.082"
			/>
		<path clip-path="url(#SVGID_4_)" fill="#AC8007" d="M156.723,413.042c-1.393-0.235-2.997-0.477-4.584-0.8
			c-0.382-0.077-0.865-0.346-0.616-0.937c0.179-0.425,0.494-0.729,0.995-0.677c1.905,0.197,3.81,0.402,5.713,0.624
			c0.429,0.05,0.854,0.216,0.853,0.743c-0.001,0.513-0.394,0.786-0.827,0.896C157.835,412.999,157.384,412.984,156.723,413.042"/>
		<path clip-path="url(#SVGID_4_)" fill="#AC8007" d="M170.885,402.739c1.647,0.306,3.565,0.646,5.47,1.044
			c0.174,0.036,0.38,0.473,0.362,0.707c-0.017,0.229-0.287,0.61-0.472,0.626c-2.264,0.197-4.474-0.105-6.602-0.908
			c-0.201-0.076-0.418-0.451-0.404-0.672c0.015-0.223,0.271-0.502,0.493-0.617C169.98,402.791,170.309,402.818,170.885,402.739"/>
		<path clip-path="url(#SVGID_4_)" fill="#AC8007" d="M129.71,418.406c0.909,0.072,1.804,0.119,2.693,0.225
			c0.42,0.05,0.8,0.205,0.989,0.688c0.177,0.453-0.384,1.048-1.141,1.022c-1.622-0.058-3.291,0.264-4.834-0.478
			c-0.207-0.101-0.394-0.475-0.389-0.718c0.003-0.205,0.278-0.55,0.471-0.579C128.231,418.457,128.98,418.451,129.71,418.406"/>
		<path clip-path="url(#SVGID_4_)" fill="#AC8007" d="M120.285,408.458c1.396,0.197,2.905,0.069,4.254,0.771
			c0.213,0.111,0.4,0.422,0.448,0.67c0.12,0.614-0.438,0.809-0.808,0.774c-1.6-0.149-3.198-0.361-4.78-0.642
			c-0.4-0.07-0.753-0.516-0.635-1.006c0.051-0.207,0.362-0.413,0.598-0.498C119.625,408.433,119.939,408.477,120.285,408.458"/>
		<path clip-path="url(#SVGID_4_)" fill="#AC8007" d="M157.459,384.922c1.249,0.514,3.057,0.05,4.05,1.678
			c0.058,0.095,0.021,0.358-0.06,0.415c-1.621,1.126-3.059-0.217-4.587-0.383c-0.244-0.026-0.477-0.301-0.683-0.495
			c-0.091-0.087-0.1-0.261-0.143-0.396c-0.103-0.323,0.016-0.568,0.375-0.665C156.688,385.001,156.98,384.99,157.459,384.922"/>
		<path clip-path="url(#SVGID_4_)" fill="#AC8007" d="M145.145,396.933c-1.273-0.224-2.657-0.112-3.841-0.91
			c-0.299-0.201-0.48-0.426-0.322-0.751c0.117-0.237,0.372-0.612,0.528-0.594c1.621,0.188,3.238,0.424,4.844,0.707
			c0.192,0.034,0.383,0.411,0.466,0.665c0.218,0.663-0.373,0.695-0.751,0.82C145.796,396.959,145.479,396.916,145.145,396.933"/>
		<path clip-path="url(#SVGID_4_)" d="M104.621,371.162c0.286,0.045,0.64,0,0.843,0.154c0.474,0.36,0.91,0.787,1.301,1.24
			c2.958,3.431,5.909,6.869,8.842,10.322c0.381,0.448,0.702,0.974,0.934,1.514c0.08,0.188-0.124,0.605-0.32,0.774
			c-0.179,0.154-0.607,0.245-0.78,0.135c-0.5-0.318-0.988-0.698-1.372-1.149c-3.129-3.682-6.24-7.38-9.333-11.093
			c-0.274-0.328-0.453-0.781-0.533-1.203C104.166,371.658,104.471,371.395,104.621,371.162"/>
		<path clip-path="url(#SVGID_4_)" fill="#FE7A00" d="M119.34,378.881c3.305,3.417,5.597,7.496,7.542,11.783
			c0.496,1.093,0.862,2.282,1.057,3.466c0.545,3.304-1.302,5.251-4.673,4.938c-1.814-0.167-3.577-0.681-5.164-1.592
			c-1.962-1.128-3.858-2.372-5.777-3.575c-0.605-0.38-1.133-0.964-2.131-0.655c0.402,2.538,0.863,5.05,1.185,7.58
			c0.383,3.015,0.632,6.051-0.351,9.014c-0.331,1-0.673,2.025-1.208,2.921c-1.464,2.454-3.417,3.14-6.168,2.414
			c-2.302-0.606-4.017-2.021-5.499-3.799c-2.453-2.944-4.117-6.329-5.511-9.873c-0.553-1.404-1.175-2.784-1.822-4.148
			c-0.088-0.186-0.523-0.315-0.772-0.281c-0.246,0.035-0.626,0.283-0.658,0.484c-0.168,1.041-0.281,2.094-0.344,3.147
			c-0.225,3.788-0.607,7.552-1.533,11.244c-0.408,1.629-0.95,3.198-1.869,4.609c-1.682,2.581-4.074,2.954-6.547,1.037
			c-1.594-1.237-2.73-2.854-3.484-4.69c-0.86-2.098-1.55-4.265-2.302-6.405c-0.3-0.853-0.568-1.716-0.847-2.563
			c-0.942,0.132-1.222,0.831-1.536,1.52c-1.133,2.492-2.515,4.844-4.189,7.003c-0.828,1.067-1.731,2.133-2.79,2.952
			c-2.38,1.841-4.842,1.444-6.749-0.918c-1.184-1.468-1.666-3.194-1.86-5.039c-0.353-3.347-0.019-6.663,0.384-9.979
			c0.073-0.601,0.239-1.188,0.334-1.787c0.136-0.862,0.711-2.056-0.115-2.508c-1.291-0.709-1.742,0.774-2.316,1.546
			c-2.727,3.663-5.795,6.994-9.35,9.854c-1.652,1.329-3.428,2.421-5.45,3.18c-2.882,1.081-5.698-0.995-5.943-3.766
			c-0.214-2.429-0.091-4.83,0.449-7.229c0.932-4.145,2.419-8.104,3.965-11.937c-0.776-0.993-1.458-0.373-2.108-0.164
			c-2.584,0.831-5.131,1.799-7.748,2.501c-2.335,0.627-4.75,0.931-7.179,0.478c-3.174-0.594-4.978-2.867-4.884-6.104
			c0.054-1.884,0.785-3.527,1.772-5.083c1.556-2.453,3.554-4.512,5.689-6.449c1.089-0.989,2.166-1.99,3.295-3.029
			c-1.158-0.785-1.969-0.227-2.802-0.028c-2.786,0.663-5.556,1.415-8.365,1.959c-2.378,0.46-4.819,0.583-7.182-0.124
			c-3.845-1.152-5.084-4.385-3.043-7.828c1.014-1.711,2.424-3.092,3.863-4.436c2.328-2.176,4.861-4.085,7.508-5.848
			c0.461-0.307,1.15-0.583,0.93-1.313c-0.198-0.657-0.886-0.766-1.466-0.904c-2.946-0.707-5.787-1.721-8.535-2.988
			c-1.93-0.89-3.752-1.971-5.23-3.534c-2.899-3.069-2.256-7.588,1.457-9.641c2.549-1.409,5.379-2.016,8.269-2.115
			c3.011-0.105,6.029-0.024,9.013-0.024c0.443-1.184-0.472-1.365-1.024-1.659c-3.223-1.721-6.142-3.847-8.751-6.409
			c-1.306-1.284-2.366-2.735-3.183-4.387c-2.02-4.077,0.243-8.719,4.086-10.066c1.857-0.651,3.777-1.065,5.763-1.093
			c2.571-0.035,5.123,0.059,7.668,0.519c1.414,0.255,2.865,0.781,4.347,0.29c0.041-1.507-0.895-2.407-1.44-3.447
			c-1.627-3.101-2.917-6.327-3.818-9.706c-0.63-2.357-0.921-4.766-0.531-7.206c0.811-5.069,5.087-8.231,10.143-7.45
			c3.69,0.57,6.858,2.179,9.508,4.875c1.106,1.123,1.948,2.599,3.367,3.338c0.922-0.812,0.557-1.594,0.546-2.293
			c-0.027-1.817-0.167-3.635-0.159-5.452c0.006-1.208,0.1-2.432,0.311-3.619c0.595-3.364,2.295-6.031,5.614-7.096
			c3.281-1.052,6.265-0.049,8.759,2.311c2.011,1.9,3.337,4.292,4.588,6.721c0.808,1.569,1.536,3.18,2.319,4.812
			c1.584-0.871,1.532-2.431,2.072-3.615c1.203-2.636,2.494-5.19,4.51-7.302c2.39-2.503,5.201-4.053,8.77-4.106
			c3.341-0.049,5.828,1.343,7.555,4.138c1.382,2.234,2.051,4.702,2.158,7.332c0.085,2.087,0.217,4.171,0.328,6.257
			c2.564-0.053,3.511-2.521,5.362-3.659c2.196-1.352,4.337-2.733,6.859-3.417c1.48-0.402,2.971-0.551,4.484-0.432
			c3.673,0.29,6.202,2.114,7.431,5.666c1.074,3.106,0.965,6.275,0.425,9.438c-0.328,1.921-0.873,3.803-1.329,5.74
			c1.099,0.602,1.739-0.176,2.422-0.571c2.359-1.369,4.769-2.593,7.407-3.354c2.361-0.682,4.751-0.914,7.17-0.617
			c5.073,0.621,7.756,3.929,7.472,9.022c-0.122,2.183-0.903,4.134-1.906,6.014c-0.779,1.462-1.639,2.879-2.451,4.294
			c0.896,1.282,2.28,1.597,3.414,2.268c2.1,1.244,4.027,2.688,5.637,4.524c3.864,4.404,3.692,9.643-0.363,13.833
			c-2.047,2.116-4.568,3.456-7.192,4.639c-1.097,0.494-2.263,0.831-3.385,1.272c-0.652,0.256-0.799,1.051-0.265,1.396
			c0.888,0.573,1.837,1.056,2.702,1.66c1.98,1.385,3.983,2.745,5.866,4.255c1.778,1.428,3.208,3.207,4.302,5.229
			c2.718,5.024,0.917,9.771-4.421,11.665c-3.072,1.089-6.234,0.951-9.408,0.689c-1.166-0.096-2.297-0.776-3.508-0.239
			c-0.147,1.119,0.773,1.577,1.34,2.239c1.867,2.185,3.8,4.315,5.605,6.55c1.044,1.292,1.898,2.736,2.207,4.431
			c0.595,3.262-1.296,5.393-4.554,5.022c-2.12-0.241-4.126-0.95-5.997-1.96c-2.525-1.363-5.013-2.795-7.49-4.241
			c-0.835-0.487-1.608-0.833-2.469-0.145c0.009,0.001,0.131-0.114,0.131-0.114L119.34,378.881z"/>
		<path clip-path="url(#SVGID_4_)" fill="#FCE31B" d="M74.184,377.741c-10.989-0.111-21.796-7.811-25.797-18.354
			c-1.412-3.722-2.158-7.577-2.204-11.543c-0.114-9.711,0.237-19.384,2.574-28.881c0.469-1.905,0.657-3.882,1.163-5.775
			c0.807-3.023,1.882-3.748,4.896-3.164c2.955,0.571,5.909,1.236,8.785,2.117c13.695,4.19,27.374,8.436,41.031,12.748
			c2.433,0.768,4.793,1.83,7.086,2.962c2.133,1.054,2.529,2.115,2.019,4.457c-0.224,1.028-0.569,2.041-0.956,3.021
			c-4.769,12.077-11.299,23.08-19.927,32.794c-1.711,1.925-3.512,3.759-5.605,5.271C83.349,376.208,79.059,377.867,74.184,377.741"
			/>
		<path clip-path="url(#SVGID_4_)" fill="#FE7A00" d="M261.338,412.881c-0.122,5.133-2.455,10.788-6.004,16.007
			c-0.624,0.918-1.612,1.069-2.337,0.352c-6.411-6.351-10.562-13.613-8.837-23.088c0.434-2.377,1.198-4.695,2.315-6.855
			c0.728-1.405,0.876-2.733,0.528-4.337c-1.062-4.886-2.091-9.757-4.417-14.245c-0.979-1.889-2.072-3.685-3.47-5.29
			c-2.302-2.644-5.208-3.48-8.57-2.853c-2.561,0.478-4.868,1.537-6.893,3.215c-2.791,2.312-5.595,4.6-8.102,7.236
			c-1.149,1.21-1.767,1.137-2.989-0.091c-0.319-0.321-0.618-0.661-0.919-1c-0.819-0.919-0.856-1.902-0.156-2.887
			c3.451-4.849,7.421-9.181,12.657-12.123c5.178-2.909,10.366-2.75,15.436,0.368c3.715,2.285,6.338,5.526,8.162,9.468
			c1.979,4.276,3.265,8.793,4.292,13.361c0.519,2.307,1.377,4.167,3.053,5.877C259.291,400.284,261.317,405.55,261.338,412.881"/>
		<path clip-path="url(#SVGID_4_)" fill="#FF8C08" d="M84.424,334.677c-0.733,6.024-1.616,13.524-2.576,21.014
			c-0.237,1.85-1.008,2.424-2.776,1.945c-3.479-0.944-6.92-2.034-10.348-3.157c-2.427-0.796-4.824-1.695-7.191-2.656
			c-0.722-0.292-1.152-1.037-0.639-1.859c1.117-1.789,2.287-3.545,3.436-5.314c2.957-4.558,5.902-9.125,9.342-13.339
			c3.697-4.527,3.141-3.691,7.927-2.315C84.458,329.817,84.581,330.159,84.424,334.677"/>
		<path clip-path="url(#SVGID_4_)" fill="#FCE31B" d="M125.211,315.727c1.856-0.118,3.693,0.443,5.371,1.583
			c2.369,1.609,3.505,4.419,2.59,7.128c-1.35,3.998-3.867,7.148-7.462,9.379c-1.087,0.674-1.979,0.574-2.806-0.431
			c-3.079-3.741-5.61-7.864-8.14-11.984c-0.557-0.909-0.271-1.779,0.604-2.347C118.313,317.146,121.407,315.642,125.211,315.727"/>
		<path clip-path="url(#SVGID_4_)" fill="#FCE31B" d="M35.488,305.329c-0.095-1.489,0.272-3.389,1.336-5.107
			c1.689-2.729,4.486-3.767,7.373-2.473c3.708,1.662,6.131,4.717,8.052,8.203c0.337,0.61,0.031,1.205-0.406,1.622
			c-0.537,0.514-1.145,0.972-1.778,1.361c-3.335,2.048-6.883,3.659-10.553,4.988c-1.992,0.722-2.51,0.345-3.164-1.837
			C35.736,310.045,35.536,307.958,35.488,305.329"/>
		<path clip-path="url(#SVGID_4_)" fill="#FEC547" d="M109.259,291.386c-0.026,0.302,0.025,0.634-0.09,0.889
			c-2.868,6.34-6.603,12.192-10.181,18.132c-0.073,0.122-0.214,0.243-0.346,0.278c-0.275,0.073-0.627,0.204-0.831,0.095
			c-0.212-0.114-0.445-0.526-0.391-0.736c0.182-0.712,0.398-1.442,0.757-2.075c3.127-5.51,6.285-11.001,9.447-16.489
			c0.144-0.252,0.403-0.446,0.639-0.629c0.094-0.072,0.316-0.096,0.404-0.033C108.888,290.975,109.066,291.194,109.259,291.386"/>
		<path clip-path="url(#SVGID_4_)" fill="#FEC547" d="M21.086,361.583c-0.244-0.141-0.697-0.288-0.693-0.422
			c0.011-0.403,0.096-0.896,0.348-1.176c0.278-0.309,0.76-0.453,1.174-0.611c4.322-1.646,8.646-3.289,12.978-4.91
			c0.402-0.15,0.87-0.215,1.295-0.178c0.205,0.019,0.512,0.345,0.546,0.566c0.092,0.596,0.492,0.028,0.049,0.438
			c-0.323,0.299-0.666,0.631-1.062,0.787c-4.579,1.808-9.168,3.589-13.76,5.363C21.692,361.545,21.379,361.538,21.086,361.583"/>
		<path clip-path="url(#SVGID_4_)" fill="#FEC547" d="M77.235,301.76c0.129-0.574,0.278-1.312,0.462-2.038
			c1.033-4.086,2.069-8.17,3.118-12.251c0.148-0.573,0.325-1.151,0.587-1.678c0.104-0.21,0.474-0.392,0.725-0.393
			c0.192-0.002,0.51,0.273,0.553,0.474c0.092,0.429,0.136,0.911,0.036,1.333c-1.17,4.981-2.368,9.956-3.571,14.93
			c-0.068,0.28-0.198,0.585-0.394,0.784c-0.188,0.191-0.505,0.364-0.756,0.352c-0.218-0.011-0.504-0.251-0.612-0.465
			C77.256,302.559,77.292,302.228,77.235,301.76"/>
		<path clip-path="url(#SVGID_4_)" fill="#FEC547" d="M46.365,370.055c-0.194,0.29-0.374,0.719-0.686,1
			c-3.71,3.327-7.437,6.636-11.169,9.938c-0.336,0.296-0.718,0.58-1.128,0.735c-0.217,0.081-0.608-0.058-0.801-0.23
			c-0.192-0.172-0.342-0.523-0.314-0.773c0.03-0.269,0.242-0.565,0.457-0.756c3.848-3.396,7.703-6.785,11.576-10.153
			c0.326-0.284,0.776-0.47,1.2-0.574c0.219-0.056,0.524,0.14,0.755,0.28C46.338,369.572,46.317,369.793,46.365,370.055"/>
		<path clip-path="url(#SVGID_4_)" fill="#FEC547" d="M30.478,344.191c-3-0.307-6-0.604-8.998-0.928
			c-0.44-0.047-0.894-0.154-1.291-0.342c-0.208-0.099-0.356-0.413-0.441-0.662c-0.122-0.354,0.055-0.621,0.426-0.683
			c0.583-0.098,1.181-0.266,1.758-0.218c4.208,0.341,8.412,0.729,12.617,1.104c0.15,0.014,0.303,0.037,0.444,0.086
			c0.538,0.185,1.267,0.219,1.299,0.966c0.038,0.87-0.726,0.86-1.285,0.837c-1.506-0.062-3.008-0.211-4.513-0.325
			C30.489,344.081,30.482,344.136,30.478,344.191"/>
		<path clip-path="url(#SVGID_4_)" fill="#FEC547" d="M103.736,393.965c-0.293,0.261-0.477,0.468-0.703,0.604
			c-0.102,0.061-0.365,0.033-0.425-0.049c-0.344-0.473-0.752-0.935-0.951-1.471c-1.51-4.079-2.983-8.174-4.448-12.27
			c-0.149-0.416-0.233-0.879-0.226-1.318c0.004-0.239,0.213-0.592,0.42-0.679c0.21-0.09,0.575,0.017,0.791,0.16
			c0.233,0.155,0.442,0.427,0.542,0.692c1.594,4.21,3.18,8.422,4.73,12.647C103.666,392.826,103.658,393.447,103.736,393.965"/>
		<path clip-path="url(#SVGID_4_)" fill="#FEC547" d="M132.432,351.913c-0.203,0.18-0.398,0.495-0.629,0.525
			c-0.431,0.056-0.901,0.013-1.323-0.105c-4.051-1.129-8.006-2.54-11.877-4.184c-0.4-0.17-0.78-0.472-1.062-0.804
			c-0.13-0.152-0.03-0.536,0.031-0.799c0.027-0.115,0.206-0.222,0.339-0.279c0.128-0.055,0.304-0.093,0.43-0.051
			c4.549,1.511,9.099,3.019,13.633,4.572C132.373,350.926,132.621,351.392,132.432,351.913"/>
		<path clip-path="url(#SVGID_4_)" fill="#FEC547" d="M55,380.365c-0.083,0.374-0.09,0.851-0.29,1.223
			c-1.975,3.689-3.969,7.37-5.998,11.031c-0.268,0.484-0.692,1.092-1.394,0.759c-0.639-0.304-0.69-0.941-0.371-1.513
			c2.186-3.912,4.387-7.816,6.61-11.707c0.233-0.407,0.694-0.479,1.123-0.216C54.797,380.015,54.861,380.176,55,380.365"/>
		<path clip-path="url(#SVGID_4_)" fill="#FEC547" d="M61.055,297.498c-0.232,0.34-0.348,0.697-0.56,0.771
			c-0.226,0.077-0.552-0.093-0.817-0.198c-0.128-0.051-0.27-0.184-0.316-0.312c-1.496-4.127-2.649-8.348-3.366-12.682
			c-0.074-0.453,0.179-0.908,0.728-0.91c0.238-0.001,0.566,0.173,0.694,0.371c0.242,0.373,0.415,0.808,0.536,1.239
			c0.941,3.346,1.87,6.694,2.784,10.047C60.895,296.4,60.963,297,61.055,297.498"/>
		<path clip-path="url(#SVGID_4_)" fill="#FEC547" d="M123.447,368.26c-0.207,0.35-0.332,0.783-0.499,0.8
			c-0.408,0.041-0.926,0.019-1.242-0.204c-3.291-2.326-6.551-4.696-9.815-7.062c-0.113-0.082-0.215-0.236-0.241-0.372
			c-0.048-0.263-0.146-0.614-0.023-0.784c0.14-0.193,0.518-0.348,0.757-0.308c0.422,0.072,0.867,0.234,1.218,0.479
			c3.059,2.142,6.106,4.3,9.135,6.483C123.057,367.525,123.232,367.959,123.447,368.26"/>
		<path clip-path="url(#SVGID_4_)" fill="#FEC547" d="M38.6,326.123c-0.164,0.193-0.296,0.482-0.51,0.567
			c-0.257,0.103-0.612,0.116-0.875,0.023c-3.65-1.285-7.299-2.575-10.922-3.936c-0.281-0.105-0.366-0.738-0.542-1.126
			c0.385-0.16,0.828-0.534,1.144-0.447c3.875,1.068,7.622,2.505,11.288,4.151C38.389,325.448,38.457,325.847,38.6,326.123"/>
		<path clip-path="url(#SVGID_4_)" fill="#FEC547" d="M67.077,397.067c-0.154-0.368-0.505-0.788-0.442-1.132
			c0.245-1.337,0.577-2.662,0.958-3.968c0.59-2.03,1.231-4.046,1.9-6.05c0.067-0.2,0.48-0.384,0.735-0.388
			c0.201-0.002,0.595,0.31,0.579,0.442c-0.452,3.752-1.273,7.413-2.842,10.869C67.896,396.994,67.457,396.978,67.077,397.067"/>
		<path clip-path="url(#SVGID_4_)" fill="#FEC547" d="M82.636,396.319c-0.039,0.295-0.116,1.032-0.244,1.761
			c-0.06,0.343-0.343,0.459-0.707,0.368c-0.129-0.033-0.314-0.036-0.374-0.122c-0.167-0.242-0.363-0.508-0.407-0.786
			c-0.548-3.444-0.919-6.907-0.882-10.399c0.005-0.425,0.093-0.939,0.613-0.996c0.773-0.083,1.008,0.521,1.075,1.137
			C82.019,390.141,82.3,393.005,82.636,396.319"/>
		<path clip-path="url(#SVGID_4_)" fill="#FFFFFF" d="M64.639,322.561c2.79,0.86,4.434,3.571,3.69,6.083
			c-0.914,3.084-4.676,4.998-7.699,3.917c-2.442-0.872-3.737-3.426-3-5.917C58.565,323.477,61.698,321.653,64.639,322.561"/>
		<path clip-path="url(#SVGID_4_)" d="M65.255,324.86c2.228-0.135,4.134,1.362,4.278,3.36c0.176,2.452-2.001,4.834-4.455,4.875
			c-1.982,0.032-3.596-1.446-3.739-3.427C61.157,327.151,62.906,325.002,65.255,324.86"/>
		<path clip-path="url(#SVGID_4_)" fill="#FFFFFF" d="M93.717,330.412c2.79,0.861,4.434,3.572,3.69,6.084
			c-0.914,3.083-4.677,4.998-7.7,3.917c-2.442-0.873-3.737-3.427-2.999-5.917C87.644,331.329,90.776,329.504,93.717,330.412"/>
		<path clip-path="url(#SVGID_4_)" d="M94.333,332.711c2.228-0.136,4.134,1.361,4.277,3.359c0.177,2.452-2,4.835-4.454,4.875
			c-1.982,0.033-3.596-1.445-3.74-3.426C90.234,335.001,91.984,332.853,94.333,332.711"/>
		<path clip-path="url(#SVGID_4_)" d="M75.575,364.981c-2.271,0.691-4.519,0.662-6.556,0.021l3.785-9.019
			c0.765-1.823-2.211-2.62-2.968-0.817c-1.186,2.826-2.372,5.652-3.557,8.479c-1.18-0.822-2.235-1.881-3.071-3.226
			c-1.044-1.678-3.708-0.134-2.658,1.554c3.404,5.473,9.658,7.858,15.843,5.976C78.283,367.374,77.477,364.402,75.575,364.981"/>
	</g>
</g>
</svg>
