<?xml version="1.0" encoding="utf-8"?>
<!-- Generator: Adobe Illustrator 16.0.3, SVG Export Plug-In . SVG Version: 6.00 Build 0)  -->
<!DOCTYPE svg PUBLIC "-//W3C//DTD SVG 1.1//EN" "http://www.w3.org/Graphics/SVG/1.1/DTD/svg11.dtd">
<svg version="1.1" id="Capa_1" xmlns="http://www.w3.org/2000/svg" xmlns:xlink="http://www.w3.org/1999/xlink" x="0px" y="0px"
	 width="423.399px" height="507.664px" viewBox="0 0 423.399 507.664" enable-background="new 0 0 423.399 507.664"
	 xml:space="preserve">
<g>
	<defs>
		<rect id="SVGID_1_" x="-174.601" y="-62.669" width="792" height="612"/>
	</defs>
	<clipPath id="SVGID_2_">
		<use xlink:href="#SVGID_1_"  overflow="visible"/>
	</clipPath>
	<polygon clip-path="url(#SVGID_2_)" fill="#F6E6D5" points="209.155,455.033 197.011,460.276 202.032,462.278 209.053,459.248 
		225.044,467.094 226.527,463.557 	"/>
	<polygon clip-path="url(#SVGID_2_)" fill="#F6E6D5" points="174.639,207.636 170.256,204.953 154.29,209.746 153.181,214.077 	"/>
	<polygon clip-path="url(#SVGID_2_)" fill="#F6E6D5" points="108.042,227.626 132.835,220.185 133.876,215.874 108.059,223.624 
		80.013,214.94 79.287,218.725 	"/>
	<g clip-path="url(#SVGID_2_)">
		<defs>
			<rect id="SVGID_3_" x="-174.601" y="-62.669" width="792" height="612"/>
		</defs>
		<clipPath id="SVGID_4_">
			<use xlink:href="#SVGID_3_"  overflow="visible"/>
		</clipPath>
		<path clip-path="url(#SVGID_4_)" fill="#F6E6D5" d="M306.439,502.768l-0.886-0.434l-67.212-32.98l-1.27,3.642l35.422,17.382
			l37.709,15.039l35.038-13.576c0.437-1.545,0.903-3.089,1.358-4.634L306.439,502.768z"/>
		<path clip-path="url(#SVGID_4_)" fill="#F6E6D5" d="M375.045,480.292l3.974-1.539l-2.955-1.358
			C375.735,478.365,375.386,479.327,375.045,480.292"/>
		<polygon clip-path="url(#SVGID_4_)" fill="#F6E6D5" points="6.215,307.39 2.4,305.636 1.916,369.494 5.74,370.341 		"/>
		<polygon clip-path="url(#SVGID_4_)" fill="#F6E6D5" points="145.454,482.532 144.582,487.078 190.531,467.243 185.45,465.266 		
			"/>
		<polygon clip-path="url(#SVGID_4_)" fill="#F6E6D5" points="6.756,235.887 2.939,234.239 2.508,291.194 6.325,292.957 		"/>
		<polygon clip-path="url(#SVGID_4_)" fill="#F6E6D5" points="5.011,466.645 5.158,447.183 1.338,445.825 1.16,469.314 
			10.718,472.808 11.448,468.999 		"/>
		<polygon clip-path="url(#SVGID_4_)" fill="#F6E6D5" points="5.656,381.428 1.833,380.555 1.423,434.708 5.243,436.026 		"/>
		<polygon clip-path="url(#SVGID_4_)" fill="#F6E6D5" points="7.055,196.36 60.524,212.916 61.249,209.131 3.265,191.178 
			3.062,218.129 6.875,220.007 		"/>
		<path clip-path="url(#SVGID_4_)" fill="#F6E6D5" d="M418.587,301.94c1.275-2.821,2.578-5.63,3.87-8.444l0.374-76.339l-3.874,9.279
			L418.587,301.94z"/>
		<polygon clip-path="url(#SVGID_4_)" fill="#F6E6D5" points="408.973,197.087 397.396,196.806 356.219,210.121 354.003,214.861 		
			"/>
		<polygon clip-path="url(#SVGID_4_)" fill="#F6E6D5" points="422.928,197.426 422.928,197.426 421.361,197.388 		"/>
		<path clip-path="url(#SVGID_4_)" fill="#F6E6D5" d="M394.425,472.249c0.565-1.409,1.131-2.819,1.697-4.229l-5.902,2.285
			L394.425,472.249z"/>
		<path clip-path="url(#SVGID_4_)" fill="#F6E6D5" d="M418.01,419.889c1.186-1.51,2.457-2.936,3.849-4.233l0.195-39.744
			c-1.295,2.104-2.581,4.212-3.859,6.326L418.01,419.889z"/>
		<polygon clip-path="url(#SVGID_4_)" fill="#F6E6D5" points="217.025,194.914 221.54,193.559 307.214,229.992 334.291,221.236 
			336.45,216.513 307.396,225.908 229.361,192.723 212.787,192.32 		"/>
		<polygon clip-path="url(#SVGID_4_)" fill="#88CC87" points="113.57,496.295 113.129,500.656 133.747,491.754 134.619,487.209 		
			"/>
		<polygon clip-path="url(#SVGID_4_)" fill="#88CC87" points="30.024,475.788 29.294,479.598 56.812,489.658 57.955,485.998 		"/>
		<path clip-path="url(#SVGID_4_)" fill="#88CFCB" d="M418.508,318.262l3.816,2.337l0.133-27.104
			c-1.292,2.814-2.596,5.622-3.87,8.444L418.508,318.262z"/>
		<path clip-path="url(#SVGID_4_)" fill="#88CFCB" d="M418.195,382.238c1.278-2.114,2.563-4.223,3.859-6.326l0.082-16.758
			l-3.817-2.337L418.195,382.238z"/>
		<path clip-path="url(#SVGID_4_)" fill="#88CFCB" d="M374.171,476.524l-27.572,10.683c-0.455,1.546-0.922,3.089-1.358,4.634
			l29.805-11.549c0.341-0.965,0.689-1.927,1.019-2.897L374.171,476.524z"/>
		<polygon clip-path="url(#SVGID_4_)" fill="#FFFFFF" points="79.287,218.724 80.013,214.94 61.249,209.131 60.523,212.915 		"/>
		<polygon clip-path="url(#SVGID_4_)" fill="#FFFFFF" points="11.448,468.998 10.718,472.808 23.218,477.377 23.942,473.564 		"/>
		<polygon clip-path="url(#SVGID_4_)" fill="#FFFFFF" points="23.942,473.564 23.218,477.377 29.294,479.598 30.024,475.788 		"/>
		<polygon clip-path="url(#SVGID_4_)" fill="#FFFFFF" points="143.822,483.237 142.95,487.782 144.582,487.078 145.453,482.532 		
			"/>
		<polygon clip-path="url(#SVGID_4_)" fill="#FFFFFF" points="134.619,487.209 133.747,491.754 142.951,487.782 143.822,483.237 		
			"/>
		<path clip-path="url(#SVGID_4_)" fill="#FFFFFF" d="M390.22,470.305l-13.547,5.249c-0.203,0.613-0.402,1.229-0.609,1.84
			l2.955,1.358l15.153-5.871c0.084-0.211,0.168-0.422,0.253-0.633L390.22,470.305z"/>
		<polygon clip-path="url(#SVGID_4_)" fill="#FFFFFF" points="6.325,292.957 2.509,291.194 2.4,305.636 6.215,307.39 		"/>
		<path clip-path="url(#SVGID_4_)" fill="#FFFFFF" d="M376.064,477.394c0.207-0.611,0.406-1.227,0.608-1.84l-2.502,0.97
			L376.064,477.394z"/>
		<path clip-path="url(#SVGID_4_)" fill="#88CC87" d="M417.816,459.614l-21.693,8.405c-0.566,1.41-1.132,2.82-1.697,4.229
			l0.629,0.29l26.575-10.297l0.229-46.586c-1.392,1.298-2.663,2.724-3.849,4.233L417.816,459.614z"/>
		<path clip-path="url(#SVGID_4_)" fill="#88CC87" d="M394.172,472.881l0.882-0.343l-0.629-0.29
			C394.34,472.459,394.256,472.67,394.172,472.881"/>
		<polygon clip-path="url(#SVGID_4_)" fill="#FFFFFF" points="185.449,465.266 190.53,467.243 202.032,462.278 197.011,460.276 		
			"/>
		<polygon clip-path="url(#SVGID_4_)" fill="#FFFFFF" points="303.869,505.774 306.259,506.944 310.203,505.417 272.494,490.378 		
			"/>
		<polygon clip-path="url(#SVGID_4_)" fill="#FFFFFF" points="226.527,463.557 225.044,467.094 237.072,472.996 238.34,469.354 		
			"/>
		<polygon clip-path="url(#SVGID_4_)" fill="#FFFFFF" points="6.875,220.008 3.062,218.13 2.938,234.238 6.755,235.887 		"/>
		<polygon clip-path="url(#SVGID_4_)" fill="#FFFFFF" points="5.243,436.026 1.423,434.708 1.338,445.825 5.159,447.183 		"/>
		<polygon clip-path="url(#SVGID_4_)" fill="#FFFFFF" points="5.74,370.341 1.916,369.493 1.833,380.555 5.656,381.428 		"/>
		<polygon clip-path="url(#SVGID_4_)" fill="#FFFFFF" points="354.003,214.862 356.219,210.121 336.45,216.513 334.291,221.236 		
			"/>
		<polygon clip-path="url(#SVGID_4_)" fill="#FFFFFF" points="419.1,197.333 418.958,226.436 422.831,217.158 422.928,197.426 
			421.361,197.389 		"/>
		<polygon clip-path="url(#SVGID_4_)" fill="#FFFFFF" points="153.181,214.077 154.29,209.746 133.876,215.873 132.835,220.184 		
			"/>
		<polygon clip-path="url(#SVGID_4_)" fill="#F6E6D5" points="100.987,501.727 100.145,501.419 57.955,485.999 56.812,489.658 
			98.654,504.954 102.932,505.057 113.129,500.656 113.57,496.295 		"/>
		<polygon clip-path="url(#SVGID_4_)" fill="#FCD241" points="189.023,203.319 189.836,199.076 170.256,204.954 174.639,207.636 		
			"/>
		<polygon clip-path="url(#SVGID_4_)" fill="#FCD241" points="217.025,194.914 212.787,192.32 212.377,192.31 200.381,195.911 
			199.568,200.154 		"/>
		<polygon clip-path="url(#SVGID_4_)" fill="#FCD241" points="418.319,356.817 422.136,359.154 422.325,320.599 418.508,318.262 		
			"/>
		<polygon clip-path="url(#SVGID_4_)" fill="#FCD241" points="199.568,200.154 200.381,195.911 189.836,199.076 189.023,203.32 		
			"/>
		<polygon clip-path="url(#SVGID_4_)" fill="#F6E6D5" points="364.776,324.038 316.74,294.63 301.081,328.151 352.201,353.605 		"/>
		<polygon clip-path="url(#SVGID_4_)" fill="#F6E6D5" points="5.159,447.183 5.012,466.645 11.449,468.997 14.961,450.669 		"/>
		<polygon clip-path="url(#SVGID_4_)" fill="#F6E6D5" points="280.357,339.223 183.742,282.739 167.513,367.421 250.039,405.546 		
			"/>
		<polygon clip-path="url(#SVGID_4_)" fill="#F6E6D5" points="165.027,380.39 153.076,442.754 197.011,460.276 209.155,455.033 
			226.527,463.557 245.827,417.529 		"/>
		<polygon clip-path="url(#SVGID_4_)" fill="#F6E6D5" points="54.092,246.472 60.523,212.915 7.054,196.36 6.875,220.008 
			54.655,243.534 		"/>
		<polygon clip-path="url(#SVGID_4_)" fill="#F6E6D5" points="145.454,482.532 185.45,465.266 151.308,451.983 		"/>
		<polygon clip-path="url(#SVGID_4_)" fill="#F6E6D5" points="39.487,322.684 6.215,307.39 5.739,370.341 29.35,375.581 		"/>
		<polygon clip-path="url(#SVGID_4_)" fill="#F6E6D5" points="377.825,293.356 421.361,197.389 422.971,188.536 354.003,214.862 
			330.788,264.56 		"/>
		<polygon clip-path="url(#SVGID_4_)" fill="#F6E6D5" points="27.283,386.368 5.656,381.428 5.242,436.026 16.991,440.079 		"/>
		<path clip-path="url(#SVGID_4_)" fill="#F6E6D5" d="M358.306,371.699l-65.734-25.335l-30.289,64.838l-9.212-4.255l104.128,48.104
			c7.368-20.535,15.528-40.795,22.902-60.293c6.26-16.552,12.807-32.995,19.613-49.329l-24.242-14.842L358.306,371.699z"/>
		<polygon clip-path="url(#SVGID_4_)" fill="#F6E6D5" points="288.323,321.797 304.239,286.977 195.667,220.509 186.019,270.857 		
			"/>
		<path clip-path="url(#SVGID_4_)" fill="#F6E6D5" d="M379.882,465.53l10.338,4.775l5.902-2.286
			c3.546-8.842,7.093-17.683,10.64-26.524c3.008-7.498,6.326-15.343,11.248-21.605l0.186-37.651
			c-12.732,21.062-24.528,42.731-32.686,65.909C383.49,453.887,381.696,459.713,379.882,465.53"/>
		<path clip-path="url(#SVGID_4_)" fill="#F6E6D5" d="M412.853,314.8c1.896-4.294,3.802-8.583,5.734-12.86l0.369-75.505
			l-30.625,73.353L412.853,314.8z"/>
		<polygon clip-path="url(#SVGID_4_)" fill="#F6E6D5" points="52.348,255.579 6.755,235.887 6.325,292.957 42.023,309.449 		"/>
		<polygon clip-path="url(#SVGID_4_)" fill="#F6E6D5" points="334.291,221.236 307.214,229.992 221.54,193.559 217.024,194.914 
			318.051,256.762 		"/>
		<polygon clip-path="url(#SVGID_4_)" fill="#F6E6D5" points="104.334,338.234 132.836,220.184 108.042,227.627 79.287,218.724 
			60.284,317.884 		"/>
		<path clip-path="url(#SVGID_4_)" fill="#F6E6D5" d="M254.95,421.722l-16.608,47.632l67.212,32.98l0.886,0.434l40.16-15.562
			c2.007-6.803,4.17-13.602,6.473-20.38L254.95,421.722z"/>
		<polygon clip-path="url(#SVGID_4_)" fill="#F6E6D5" points="158.383,363.204 186.772,215.064 174.639,207.637 153.18,214.078 
			119.596,345.285 		"/>
		<polygon clip-path="url(#SVGID_4_)" fill="#88CC87" points="57.755,331.082 30.024,475.788 57.954,485.998 75.831,428.734 
			117.924,453.321 113.569,496.295 134.619,487.209 155.893,376.191 		"/>
		<path clip-path="url(#SVGID_4_)" fill="#88CFCB" d="M418.508,318.262l0.079-16.322c-1.933,4.277-3.839,8.566-5.734,12.86
			L418.508,318.262z"/>
		<path clip-path="url(#SVGID_4_)" fill="#88CFCB" d="M380.101,394.757c-7.374,19.498-15.534,39.758-22.902,60.293l22.684,10.479
			c1.813-5.816,3.607-11.643,5.628-17.383c8.156-23.178,19.953-44.848,32.685-65.909l0.124-25.421l-18.604-11.39
			C392.908,361.762,386.361,378.206,380.101,394.757"/>
		<path clip-path="url(#SVGID_4_)" fill="#88CFCB" d="M346.599,487.207l27.572-10.683l-21.1-9.698
			C350.769,473.605,348.606,480.404,346.599,487.207"/>
		<polygon clip-path="url(#SVGID_4_)" fill="#FFFFFF" points="52.348,255.579 52.348,255.579 42.023,309.449 60.284,317.884 
			79.287,218.725 60.523,212.915 54.093,246.472 		"/>
		<polygon clip-path="url(#SVGID_4_)" fill="#FFFFFF" points="39.487,322.684 29.35,375.581 36.251,377.112 28.813,386.717 
			27.283,386.368 16.99,440.079 19.642,440.994 14.961,450.669 11.448,468.997 23.942,473.564 51.532,328.221 		"/>
		<polygon clip-path="url(#SVGID_4_)" fill="#FFFFFF" points="51.532,328.221 23.942,473.564 30.024,475.788 57.755,331.082 		"/>
		<polygon clip-path="url(#SVGID_4_)" fill="#FFFFFF" points="151.686,442.2 153.076,442.754 165.027,380.39 163.652,379.757 		"/>
		<polygon clip-path="url(#SVGID_4_)" fill="#FFFFFF" points="149.915,451.441 143.822,483.237 145.454,482.532 151.308,451.983 		
			"/>
		<polygon clip-path="url(#SVGID_4_)" fill="#FFFFFF" points="158.383,363.204 167.513,367.421 183.741,282.739 177.463,279.068 
			181.836,268.774 186.018,270.857 195.667,220.51 186.772,215.064 		"/>
		<polygon clip-path="url(#SVGID_4_)" fill="#FFFFFF" points="149.203,451.165 149.456,441.311 151.686,442.2 163.652,379.757 
			155.893,376.191 134.619,487.209 143.822,483.237 149.915,451.441 		"/>
		<polygon clip-path="url(#SVGID_4_)" fill="#FFFFFF" points="42.024,309.449 6.325,292.957 6.215,307.39 39.487,322.684 		"/>
		<polygon clip-path="url(#SVGID_4_)" fill="#FFFFFF" points="156.735,371.805 158.383,363.204 119.596,345.284 119.003,347.6 
			102.177,347.167 104.334,338.234 60.284,317.884 58.456,327.423 		"/>
		<path clip-path="url(#SVGID_4_)" fill="#FFFFFF" d="M376.673,475.554l13.547-5.249l-10.338-4.775
			C378.837,468.881,377.777,472.227,376.673,475.554"/>
		<path clip-path="url(#SVGID_4_)" fill="#FFFFFF" d="M250.039,405.546L250.039,405.546l-82.525-38.125l-2.486,12.969l80.799,37.139
			l9.123,4.193l98.122,45.104c1.337-3.935,2.721-7.858,4.127-11.775l-104.128-48.104L250.039,405.546z"/>
		<polygon clip-path="url(#SVGID_4_)" fill="#FFFFFF" points="58.456,327.423 57.755,331.082 155.894,376.191 156.735,371.805 		"/>
		<path clip-path="url(#SVGID_4_)" fill="#FFFFFF" d="M357.199,455.05c-1.406,3.917-2.79,7.841-4.127,11.775l21.1,9.698l2.502-0.97
			c1.104-3.327,2.164-6.673,3.209-10.025L357.199,455.05z"/>
		<polygon clip-path="url(#SVGID_4_)" fill="#FFFFFF" points="58.456,327.423 60.284,317.884 42.024,309.449 39.487,322.684 
			51.532,328.221 52.219,324.606 		"/>
		<polygon clip-path="url(#SVGID_4_)" fill="#FFFFFF" points="52.219,324.606 51.532,328.221 57.756,331.082 58.456,327.423 		"/>
		<polygon clip-path="url(#SVGID_4_)" fill="#FFFFFF" points="158.383,363.204 156.735,371.805 164.504,375.314 163.652,379.757 
			165.027,380.39 167.513,367.421 		"/>
		<polygon clip-path="url(#SVGID_4_)" fill="#FFFFFF" points="156.735,371.805 155.894,376.191 163.652,379.757 164.504,375.314 		
			"/>
		<path clip-path="url(#SVGID_4_)" fill="#88CC87" d="M396.123,468.019l21.693-8.405l0.194-39.725
			c-4.922,6.263-8.241,14.107-11.248,21.605C403.215,450.336,399.668,459.177,396.123,468.019"/>
		<polygon clip-path="url(#SVGID_4_)" fill="#FFFFFF" points="151.308,451.983 185.45,465.266 197.012,460.276 153.077,442.753 		
			"/>
		<polygon clip-path="url(#SVGID_4_)" fill="#FFFFFF" points="149.915,451.441 151.308,451.983 153.076,442.754 151.686,442.2 		"/>
		<polygon clip-path="url(#SVGID_4_)" fill="#FFFFFF" points="149.457,441.311 149.204,451.166 149.915,451.441 151.686,442.2 		"/>
		<polygon clip-path="url(#SVGID_4_)" fill="#FFFFFF" points="245.827,417.529 226.527,463.557 238.341,469.354 254.95,421.722 		
			"/>
		<polygon clip-path="url(#SVGID_4_)" fill="#FFFFFF" points="245.827,417.529 245.827,417.529 254.95,421.722 		"/>
		<polygon clip-path="url(#SVGID_4_)" fill="#FFFFFF" points="54.092,246.472 54.655,243.534 6.875,220.008 6.756,235.887 
			52.347,255.579 		"/>
		<path clip-path="url(#SVGID_4_)" fill="#FFFFFF" d="M54.092,246.472l-1.745,9.106L54.092,246.472z"/>
		<polygon clip-path="url(#SVGID_4_)" fill="#FFFFFF" points="16.991,440.079 5.243,436.026 5.159,447.182 14.961,450.669 		"/>
		<polygon clip-path="url(#SVGID_4_)" fill="#FFFFFF" points="14.961,450.669 19.642,440.994 16.991,440.079 		"/>
		<polygon clip-path="url(#SVGID_4_)" fill="#FFFFFF" points="29.351,375.581 5.74,370.341 5.656,381.428 27.284,386.368 		"/>
		<polygon clip-path="url(#SVGID_4_)" fill="#FFFFFF" points="28.813,386.717 36.251,377.112 29.351,375.581 27.283,386.368 		"/>
		<polygon clip-path="url(#SVGID_4_)" fill="#FFFFFF" points="301.081,328.151 316.74,294.629 304.239,286.977 288.323,321.797 		
			"/>
		<polygon clip-path="url(#SVGID_4_)" fill="#FFFFFF" points="330.788,264.56 354.003,214.862 334.291,221.236 318.051,256.762 		
			"/>
		<polygon clip-path="url(#SVGID_4_)" fill="#FFFFFF" points="280.357,339.223 250.039,405.546 253.071,406.947 262.283,411.203 
			292.572,346.364 		"/>
		<path clip-path="url(#SVGID_4_)" fill="#FFFFFF" d="M250.039,405.546l3.032,1.4L250.039,405.546z"/>
		<polygon clip-path="url(#SVGID_4_)" fill="#FFFFFF" points="377.825,293.356 388.332,299.788 420.877,225.253 421.01,198.162 
			421.023,195.58 		"/>
		<polygon clip-path="url(#SVGID_4_)" fill="#FFFFFF" points="358.306,371.699 375.472,330.586 364.776,324.038 352.201,353.605 
			301.081,328.151 292.572,346.364 		"/>
		<polygon clip-path="url(#SVGID_4_)" fill="#FFFFFF" points="288.323,321.797 186.019,270.857 183.742,282.739 280.357,339.223 		
			"/>
		<polygon clip-path="url(#SVGID_4_)" fill="#FFFFFF" points="181.836,268.774 177.463,279.068 183.742,282.739 186.019,270.857 		
			"/>
		<polygon clip-path="url(#SVGID_4_)" fill="#FFFFFF" points="292.572,346.364 292.572,346.364 301.081,328.151 288.323,321.797 
			280.357,339.223 		"/>
		<polygon clip-path="url(#SVGID_4_)" fill="#FFFFFF" points="119.596,345.285 153.18,214.077 132.836,220.184 104.334,338.234 		
			"/>
		<polygon clip-path="url(#SVGID_4_)" fill="#FFFFFF" points="119.003,347.6 119.596,345.285 104.334,338.234 102.177,347.167 		"/>
		<polygon clip-path="url(#SVGID_4_)" fill="#F6E6D5" points="75.831,428.734 57.955,485.998 100.145,501.419 100.986,501.727 
			113.569,496.295 117.924,453.321 		"/>
		<polygon clip-path="url(#SVGID_4_)" fill="#FCD241" points="195.667,220.51 304.239,286.977 318.051,256.762 217.025,194.914 
			199.568,200.154 		"/>
		<polygon clip-path="url(#SVGID_4_)" fill="#FCD241" points="189.023,203.319 174.639,207.636 186.772,215.064 		"/>
		<path clip-path="url(#SVGID_4_)" fill="#FCD241" d="M399.714,345.427c4.272-10.254,8.652-20.464,13.139-30.627l-24.521-15.013
			l-12.859,30.799L399.714,345.427z"/>
		<polygon clip-path="url(#SVGID_4_)" fill="#FCD241" points="364.776,324.038 377.825,293.356 330.788,264.559 316.74,294.63 		"/>
		<path clip-path="url(#SVGID_4_)" fill="#FCD241" d="M399.714,345.427l18.604,11.39l0.19-38.555l-5.655-3.462
			C408.367,324.963,403.987,335.173,399.714,345.427"/>
		<polygon clip-path="url(#SVGID_4_)" fill="#FCD241" points="195.667,220.51 199.568,200.154 189.023,203.32 186.772,215.065 		"/>
		<polygon clip-path="url(#SVGID_4_)" fill="#FCD241" points="330.788,264.56 318.051,256.762 304.239,286.977 316.74,294.63 		"/>
		<polygon clip-path="url(#SVGID_4_)" fill="#FCD241" points="375.472,330.586 388.331,299.788 377.825,293.357 364.776,324.038 		
			"/>
		<g opacity="0.1" clip-path="url(#SVGID_4_)">
			<g>
				<defs>
					<rect id="SVGID_5_" x="5.285" y="195.537" width="100.78" height="306.181"/>
				</defs>
				<clipPath id="SVGID_6_">
					<use xlink:href="#SVGID_5_"  overflow="visible"/>
				</clipPath>
				<polygon clip-path="url(#SVGID_6_)" fill="#010103" points="106.065,226.741 7.32,195.537 5.286,466.779 98.924,501.717 				"/>
			</g>
		</g>
		<g opacity="0.1" clip-path="url(#SVGID_4_)">
			<g>
				<defs>
					<rect id="SVGID_7_" x="210.301" y="191.988" width="95.574" height="310.74"/>
				</defs>
				<clipPath id="SVGID_8_">
					<use xlink:href="#SVGID_7_"  overflow="visible"/>
				</clipPath>
				<polygon clip-path="url(#SVGID_8_)" fill="#010103" points="305.875,229.187 220.18,191.988 210.3,456.604 305.286,502.729 				
					"/>
			</g>
		</g>
		<path clip-path="url(#SVGID_4_)" fill="#D9D9D2" d="M1.73,470.681c3.162,1.152,6.324,2.305,9.486,3.457
			c28.741,10.473,57.481,20.946,86.221,31.418c6.049,2.205,10.598-1.231,16.372-3.715c6.77-2.914,13.539-5.827,20.308-8.74
			c13.415-5.771,26.829-11.543,40.242-17.314c5.896-2.537,11.793-5.074,17.69-7.611c3.627-1.562,7.253-3.121,10.881-4.683
			c1.511-0.65,3.41-1.136,4.763-2.049c0.19-0.129,0.551-0.295,0.928-0.45c0.293,0.099,0.658,0.264,1.106,0.576
			c6.232,4.366,14.755,7.218,21.648,10.589c6.022,2.947,12.046,5.893,18.07,8.84c14.27,6.979,28.539,13.959,42.808,20.939
			c3.052,1.492,6.097,2.994,9.152,4.477c3.529,1.713,4.212,1.581,8.014,0.113c7.334-2.832,14.667-5.665,22.001-8.497
			c29.633-11.444,59.267-22.89,88.9-34.334c0.989-0.382,1.746-1.155,1.752-2.277c0.168-34.411,0.337-68.82,0.506-103.23
			c0.182-37.199,0.364-74.397,0.547-111.596c0.091-18.654,0.182-37.31,0.273-55.964c0.007-1.48-1.511-2.778-2.99-2.301
			c-27.945,9.006-55.89,18.013-83.835,27.019l-20.15,6.495c-3,0.967-6.653,2.908-9.853,3.269c-0.053-0.014-0.104-0.027-0.175-0.044
			c-0.932-0.216-1.893-0.802-2.767-1.172c-16.989-7.203-33.98-14.405-50.971-21.607c-6.995-2.966-13.99-5.931-20.985-8.896
			c-4.067-1.724-8.078-4.531-12.46-3.676c-13.893,2.713-27.79,8.315-41.368,12.378c-13.824,4.135-27.648,8.272-41.473,12.408
			c-6.689,2.002-13.378,4.003-20.067,6.005c-1.975,0.59-4.041,1.08-5.978,1.788c-0.699,0.255-2.545,0.458-2.076,0.614
			c-3.291-0.473-7.057-2.309-10.098-3.248c-31.019-9.573-62.037-19.146-93.055-28.719c-1.483-0.458-3.002,0.765-3.014,2.272
			c-0.269,35.618-0.54,71.236-0.809,106.854c-0.273,36.289-0.549,72.577-0.824,108.866L0,468.386
			C-0.008,469.494,0.741,470.321,1.73,470.681 M208.362,460.918C207.79,460.976,207.856,460.809,208.362,460.918 M98.313,224.674
			c2.938,0.907,6.44,2.731,9.513,2.936c2.319,0.155,4.861-1.071,7.046-1.725c4.887-1.462,9.774-2.924,14.661-4.387
			c13.275-3.971,26.55-7.943,39.824-11.915c13.394-4.007,26.788-8.014,40.181-12.022c3.04-0.909,6.105-1.759,9.124-2.73
			c2.696-0.866,2.326-0.692,3.197-0.488c2.105,0.494,4.362,1.849,6.362,2.697c4.404,1.866,8.807,3.733,13.209,5.599
			c18.082,7.665,36.163,15.33,54.246,22.995c3.273,1.388,7.716,4.383,11.359,4.212c2.924-0.136,6.417-2.068,9.198-2.964
			c5.104-1.645,10.206-3.29,15.309-4.934c29.032-9.357,58.065-18.714,87.098-28.071c-0.165,33.674-0.33,67.348-0.495,101.022
			c-0.178,36.347-0.355,72.692-0.534,109.039c-0.091,18.618-0.183,37.236-0.273,55.854c-25.089,9.689-50.178,19.379-75.268,29.068
			c-8.608,3.325-17.218,6.65-25.827,9.975c-2.572,0.993-5.144,1.987-7.716,2.98c-3.563,1.376-2.803,1.446-6.095-0.163
			c-13.45-6.575-26.898-13.157-40.347-19.735c-13.203-6.457-26.404-12.916-39.606-19.373c-3.725-1.822-8.134-4.946-12.178-5.957
			c-3.011-0.752-5.18,0.836-8.098,2.092c-5.23,2.25-10.46,4.5-15.69,6.75c-14.596,6.28-29.191,12.561-43.787,18.841
			c-6.262,2.694-12.523,5.389-18.785,8.083c-6.366,2.739-14.385,7.715-21.186,9.115c-4.573,0.941-14.043-4.125-19.321-6.049
			c-8.395-3.059-16.79-6.117-25.184-9.177c-15.25-5.557-30.5-11.114-45.75-16.671c-2.582-0.939-5.163-1.881-7.744-2.821
			c0.252-33.274,0.504-66.549,0.757-99.822c0.299-39.506,0.597-79.011,0.897-118.517c0.131-17.326,0.262-34.653,0.393-51.98
			c25.845,7.977,51.69,15.953,77.535,23.931C88.997,221.799,93.655,223.236,98.313,224.674"/>
		<path clip-path="url(#SVGID_4_)" fill="#F00F13" d="M292.241,100.722c-0.17,55.454-102.602,201.462-102.602,201.462
			S88.104,155.552,88.275,100.097C88.445,44.643,134.241-0.171,190.565,0C246.889,0.174,292.411,45.268,292.241,100.722"/>
		<path clip-path="url(#SVGID_4_)" fill="#FFFFFF" d="M238.208,96.131c-0.079,26.067-21.607,47.132-48.082,47.051
			c-26.476-0.081-47.873-21.278-47.793-47.344c0.08-26.067,21.607-47.133,48.082-47.051
			C216.892,48.868,238.289,70.065,238.208,96.131"/>
		<path clip-path="url(#SVGID_4_)" fill="#FB302D" d="M105.726,108.969c0.147-48.173,39.931-87.103,88.859-86.953
			c28.599,0.087,53.988,13.512,70.122,34.268C249.49,30.09,220.87,12.399,188.02,12.298c-48.927-0.15-88.711,38.78-88.859,86.953
			c-0.061,20.015,6.734,38.473,18.203,53.227C109.916,139.657,105.677,124.799,105.726,108.969"/>
	</g>
</g>
</svg>
