<?xml version="1.0" encoding="utf-8"?>
<!-- Generator: Adobe Illustrator 16.0.3, SVG Export Plug-In . SVG Version: 6.00 Build 0)  -->
<!DOCTYPE svg PUBLIC "-//W3C//DTD SVG 1.1//EN" "http://www.w3.org/Graphics/SVG/1.1/DTD/svg11.dtd">
<svg version="1.1" id="Capa_1" xmlns="http://www.w3.org/2000/svg" xmlns:xlink="http://www.w3.org/1999/xlink" x="0px" y="0px"
	 width="523.88px" height="444.301px" viewBox="0 0 523.88 444.301" enable-background="new 0 0 523.88 444.301"
	 xml:space="preserve">
<g>
	<defs>
		<rect id="SVGID_1_" x="-158.634" y="-83.85" width="792" height="612"/>
	</defs>
	<clipPath id="SVGID_2_">
		<use xlink:href="#SVGID_1_"  overflow="visible"/>
	</clipPath>
	<path clip-path="url(#SVGID_2_)" fill="#1A535B" d="M414.712,206.646c-24.414-6.477-60.067-10.333-60.067-10.333
		s0.454-23.315,0-27.619c-0.455-4.305-51.954,0-57.082,0c-5.127,0-0.613,30.688-0.613,30.688s-35.6,5.525-48.489,11.662
		c-7.991,3.805-15.319,18.99-15.319,18.99l41.754,32.23c0,0-57.422,152.929-26.106,182.036h142.713
		c7.338-27.938,13.594-62.722,18.398-93.831c0.03,6.286,1.296,11.889,5.509,12.792c10.255,2.197,105.461-7.912,108.392-35.016
		C526.73,301.144,448.448,215.597,414.712,206.646 M412.803,330.95c4.946-34.509,7.73-60.614,7.73-60.614
		s46.909,41.146,48.687,47.661C469.95,320.67,418.145,329.996,412.803,330.95"/>
	<path clip-path="url(#SVGID_2_)" fill="#774034" d="M74.801,98.689c0,0,28.042-21.904,61.532-5.372
		c38.579,19.046,26.384,44.613,44.229,77.768c17.49,32.497,29.813,86.87-38.555,103.962c-53.399,13.351-47.184-67.457-47.184-67.457
		L74.801,98.689z"/>
	<path clip-path="url(#SVGID_2_)" fill="#FDCCBB" d="M115.076,226.371v25.639l37.509,4.258c0,0-35.311,30.17-96.843,3.8
		l28.568-7.325v-26.371H115.076z"/>
	<path clip-path="url(#SVGID_2_)" fill="#FDCCBB" d="M115.076,226.371v25.639l33.953,3.84c0,0-31.755,30.588-93.287,4.218
		l28.568-7.325v-26.371H115.076z"/>
	<path clip-path="url(#SVGID_2_)" fill="#FDCCBB" d="M86.997,103.797c0,0,25.394-1.465,41.998,11.231
		c16.604,12.698,24.417,30.278,26.858,57.625c2.442,27.348-5.989,59.116-36.267,64.976c-30.942,5.988-77.341-13.111-80.271-45.831
		c0,0-1.152,4.784-6.036-3.029c-4.884-7.814-8.79-45.905,3.907-39.068C49.883,156.538,86.997,103.797,86.997,103.797"/>
	<path clip-path="url(#SVGID_2_)" fill="#774034" d="M107.507,106.238c0,0-5.86,54.695-59.089,65.927
		c0,0-1.906-18.692-11.721-14.162c-12.697,5.86-4.341,36.451,11.286,36.939c0,0-0.916,28.347,37.295,40.481
		c0,0,0.498,20.98-2.432,22.445c-2.93,1.466-41.754,16.848-67.636-8.058c-25.882-24.905-13.674-67.391-0.488-102.552
		c13.185-35.161,30.765-67.88,63.973-68.368C111.903,78.403,107.507,106.238,107.507,106.238"/>
	<path clip-path="url(#SVGID_2_)" fill="#FFFFFF" d="M89.832,199.806c0,0,25.223,4.099,36.044,3.927c0,0-5.419,9.996-19.225,8.117
		C92.844,209.972,89.832,199.806,89.832,199.806"/>
	<path clip-path="url(#SVGID_2_)" fill="#FA6D70" d="M224.709,444.301c-0.396-34.723-6.953-187.962-91.808-192.291
		c0,0-1.953,15.627-28.324,17.58c-24.833,1.839-29.743-10.618-29.743-10.618s-40.656,3.067-49.571,31.671
		C5.812,353.049,35.594,422.477,46.294,444.301H224.709z"/>
	<path clip-path="url(#SVGID_2_)" fill="#FDCCBB" d="M145.623,444.301L87.242,341.983c0,0-28.643,16.368-60.564,17.921
		c9.128,14.356,43.839,53.203,72.416,84.396H145.623z"/>
	<polygon clip-path="url(#SVGID_2_)" fill="#FCC2B0" points="206.639,328.191 206.274,351.632 234.111,353.097 233.679,328.191 	"/>
	<path clip-path="url(#SVGID_2_)" fill="#FCC2B0" d="M202.556,230.73c0,0-27.413,11.787-27.413,56.484
		c0,37.18,30.349,45.314,44.005,46.475c25.249,2.146,54.825-14.3,50.497-65.063C265.316,217.86,202.556,230.73,202.556,230.73"/>
	<path clip-path="url(#SVGID_2_)" fill="#C26750" d="M223.123,234.063c0,0-10.988,35.894-44.317,34.795
		c0,0-8.791,22.708,1.098,40.654c8.285,15.036,16.482,17.581,26.737,21.243v16.115c0,0-23.074,1.466-40.289-9.156
		c0,0-8.423-39.923,2.931-79.845s38.09-42.486,50.91-39.189C233.012,221.977,223.123,234.063,223.123,234.063"/>
	<path clip-path="url(#SVGID_2_)" fill="#C26750" d="M223.489,226.371c0,0-13.185,39.922,41.388,46.515
		c0,0,10.255,49.079-32.231,59.7l1.098,14.284c0,0,18.672,15.624,38.45-4.887c0,0,13.912-63.015,3.304-94.735
		C268.001,224.831,232.28,205.495,223.489,226.371"/>
	<path clip-path="url(#SVGID_2_)" fill="#FCC2B0" d="M271.103,280.577l-2.198,18.68c0,0,11.354,2.563,12.453-6.959
		S278.062,280.577,271.103,280.577"/>
	<path clip-path="url(#SVGID_2_)" fill="#FCC2B0" d="M170.808,272.815l0.946,18.784c0,0-11.499,1.801-11.961-7.774
		C159.332,274.251,163.864,272.351,170.808,272.815"/>
	<path clip-path="url(#SVGID_2_)" fill="#FCBAA8" d="M369.886,131.715c0,0,0.006-28.219,5.923-29.128
		c5.917-0.909,15.475,2.279,14.106,14.568s-6.378,29.583-22.763,24.573C350.769,136.717,369.886,131.715,369.886,131.715"/>
	<path clip-path="url(#SVGID_2_)" fill="#FCBAA8" d="M309.296,39.506c0,0-11.892-19.995-22.093-6.092
		c-3.466,4.724-11.413,33.966-13.317,43.445c-4.37,21.756-13.061,74.792,5.924,97.342c16.061,19.078,71.926,28.526,86.706-21.842
		c0,0,12.495-66.699,9.652-82.057C373.326,54.943,377.965,23.588,309.296,39.506"/>
	<path clip-path="url(#SVGID_2_)" fill="#FFFFFF" d="M294.114,151.417c0,0,23.779,17.485,43.079-4.545"/>
	<path clip-path="url(#SVGID_2_)" fill="#4C2722" d="M371.337,30.394c0,0-16.384-26.012-54.976-30.394l13.214,9.621
		c-5.355-3.604-24.639-14.212-57.179-6.622c0,0,1.61,12.021,13.192,16.337c-4.842-1.527-15.065-4.991-17.727-7.781
		c0,0-8.631,26.989,16.046,36.362c15.062,5.72,49.626,6.982,69.056,8.08c-0.785,8.78-1.378,27.081,6.049,35.624
		c5.438,6.254,3.949,34.544,3.949,34.544l7.727,1.519c0,0,5.891-28.249,14.347-23.159
		C385.036,104.525,404.885,29.084,371.337,30.394"/>
	<path clip-path="url(#SVGID_2_)" fill="#FA6D70" d="M225.616,187.809c0,0-29.232-5.586-29.942-24.651
		c-0.709-19.064,17.898-13.316,22.922-3.414c0,0,2.962-19.336,17.878-11.426C253.145,157.159,233.123,181.011,225.616,187.809"/>
	<path clip-path="url(#SVGID_2_)" fill="#37AA7B" d="M278.503,444.301c0.295-9.8,1.27-47.271-0.563-62.072
		c-2.198-17.74-20.998-31.234-39.801-33.982l-0.732-10.12c0,0-3.906-0.125-18.557-1.874c0,0-15.138-0.75-15.627,1.249
		c-0.488,1.999,0.122,8.496,0.122,8.496s-28.446,4.248-38.213,26.986c-8.503,19.797-7.012,60.986-6.484,71.317H278.503z"/>
	<path clip-path="url(#SVGID_2_)" fill="#FFFFFF" d="M202.074,311.44c0,0,25.549,0.484,36.237-1.218c0,0-3.948,10.662-17.882,10.758
		C206.495,321.077,202.074,311.44,202.074,311.44"/>
	<path clip-path="url(#SVGID_2_)" fill="#FCBAA8" d="M424.878,354.776c0,0,8.38-22.697-4.583-29.179
		c-12.962-6.481-51.849-3.703-3.703,9.259c0,0-63.885-2.777-0.926,11.11c0,0-51.85,0-1.852,10.185c0,0-41.276,4.138-3.432,8.192
		C426.619,366.083,424.878,354.776,424.878,354.776"/>
	<path clip-path="url(#SVGID_2_)" fill="#FDCCBB" d="M244.069,355.543c0,0,4.479-10.183,10.607-9.695
		c12.094,0.963,22.195,14.998,9.202,24.238c-12.993,9.241,0.352-9.784,0.352-9.784s-25.775,22.943-4.337-4.163
		c0,0-25.214,24.869-5.724-3.469C254.169,352.67,234.324,372.177,244.069,355.543"/>
</g>
</svg>
