<?xml version="1.0" encoding="utf-8"?>
<!-- Generator: Adobe Illustrator 16.0.3, SVG Export Plug-In . SVG Version: 6.00 Build 0)  -->
<!DOCTYPE svg PUBLIC "-//W3C//DTD SVG 1.1//EN" "http://www.w3.org/Graphics/SVG/1.1/DTD/svg11.dtd">
<svg version="1.1" id="Capa_1" xmlns="http://www.w3.org/2000/svg" xmlns:xlink="http://www.w3.org/1999/xlink" x="0px" y="0px"
	 width="492.803px" height="358.914px" viewBox="0 0 492.803 358.914" enable-background="new 0 0 492.803 358.914"
	 xml:space="preserve">
<g>
	<defs>
		<rect id="SVGID_1_" x="-136.786" y="-128.595" width="792" height="612"/>
	</defs>
	<clipPath id="SVGID_2_">
		<use xlink:href="#SVGID_1_"  overflow="visible"/>
	</clipPath>
	<g clip-path="url(#SVGID_2_)">
		<defs>
			<rect id="SVGID_3_" x="-136.786" y="-128.595" width="792" height="612"/>
		</defs>
		<clipPath id="SVGID_4_">
			<use xlink:href="#SVGID_3_"  overflow="visible"/>
		</clipPath>
		<g opacity="0.11" clip-path="url(#SVGID_4_)">
			<g>
				<defs>
					<rect id="SVGID_5_" x="8.31" y="11.089" width="484.493" height="347.825"/>
				</defs>
				<clipPath id="SVGID_6_">
					<use xlink:href="#SVGID_5_"  overflow="visible"/>
				</clipPath>
				<path clip-path="url(#SVGID_6_)" fill="#010102" d="M469.566,121.797c0,0-0.114-0.052-0.307-0.135
					c-0.012-0.005-0.021-0.009-0.033-0.014c-0.201-0.087-0.515-0.214-0.914-0.369c-0.021-0.008-0.042-0.016-0.064-0.024
					c-0.41-0.16-0.933-0.349-1.55-0.563c-0.019-0.007-0.037-0.013-0.058-0.02c-3.468-1.199-10.156-3.098-20.41-4.466
					c0.531-3.035,1.646-7.289,4.069-13.009c0,0-18.832-5.184-38.308-6.31L394.05,33.388c0,0,4.203-1.071,0.824-4.779
					c0,0,1.235-4.532-3.131-2.225c0,0-0.742-4.615-4.12-1.895c0,0,0.082-3.131-4.533,1.401
					c-4.614,4.532-51.174,47.383-51.174,47.383s7.856,1.978,7.197,9.23c0,0,46.367-46.588,47.025-45.708
					c0.54,0.72,11.036,38.35,16.715,59.903c-1.321,0.026-2.636,0.068-3.931,0.149c-23.091,1.444-36.08,6.206-45.821,13.061
					c0,0,2.938,2.616,4.401,9.219c-2.415,0.359-4.588,0.74-6.565,1.147c-0.022,0.004-0.045,0.009-0.066,0.014
					c-2.712,0.56-5.052,1.173-7.115,1.858c-0.04,0.013-0.08,0.026-0.12,0.04c-1.005,0.337-1.948,0.69-2.835,1.063
					c-0.019,0.008-0.039,0.015-0.058,0.024c-0.895,0.378-1.736,0.777-2.536,1.198c-0.033,0.018-0.065,0.036-0.099,0.054
					c-0.762,0.405-1.486,0.832-2.184,1.28c-0.057,0.036-0.112,0.072-0.168,0.108c-0.714,0.466-1.406,0.954-2.078,1.471
					c0,0-13.267,14.979-21.997,18.66c0,0,5.807,4.783,16.356,10.239c1.359,4.862,3.017,10.882,4.849,17.72
					c-4.315-1.528-8.694-2.865-13.101-3.99c-14.559-3.715-29.558-5.331-44.579-5.208c-0.916,0.008-1.831,0.052-2.748,0.073
					l9.988-101.856c0.14-0.032,0.271-0.063,0.408-0.094c0.456-0.105,0.908-0.208,1.342-0.309c0.795-0.186,1.542-0.364,2.264-0.539
					c0.411-0.1,0.81-0.197,1.197-0.293c0.673-0.167,1.31-0.327,1.912-0.482c0.354-0.091,0.685-0.177,1.015-0.263
					c0.559-0.147,1.091-0.287,1.581-0.421c0.302-0.082,0.57-0.156,0.847-0.233c0.438-0.121,0.859-0.238,1.234-0.346
					c0.263-0.075,0.479-0.139,0.714-0.207c0.313-0.093,0.627-0.184,0.888-0.263c0.22-0.066,0.381-0.116,0.563-0.172
					c0.202-0.063,0.413-0.127,0.57-0.178c0.184-0.058,0.294-0.094,0.42-0.136c0.085-0.028,0.188-0.06,0.246-0.08
					c0.144-0.048,0.218-0.074,0.218-0.074l-7.864-20.919c0,0-0.095-0.045-0.235-0.107c-0.033-0.015-0.058-0.026-0.099-0.043
					c-0.086-0.038-0.192-0.082-0.316-0.133c-0.031-0.013-0.061-0.025-0.095-0.039c-1.9-0.778-7.667-2.832-18.171-4.264l-0.064-0.008
					c-0.539-0.073-1.054-0.149-1.617-0.219l-3.193-11.025l-0.454-1.565c0,0-0.069-0.029-0.205-0.084
					c-0.127-0.053-0.334-0.132-0.598-0.231c-0.004-0.002-0.004-0.002-0.008-0.003c-0.249-0.094-0.571-0.208-0.938-0.335
					c-0.03-0.011-0.049-0.018-0.079-0.028c-0.366-0.127-0.8-0.266-1.276-0.417c-0.052-0.016-0.094-0.03-0.147-0.047
					c-0.486-0.152-1.036-0.313-1.633-0.482c-0.062-0.018-0.117-0.034-0.18-0.052c-0.606-0.171-1.271-0.344-1.985-0.524
					c-0.075-0.019-0.147-0.038-0.225-0.057c-0.723-0.18-1.5-0.359-2.329-0.541c-0.089-0.019-0.176-0.038-0.265-0.057
					c-0.845-0.184-1.737-0.361-2.687-0.538c-0.041-0.008-0.075-0.016-0.116-0.023c-0.001,0-0.001,0.001-0.002,0.002
					c-9.617-1.782-24.509-3.094-44.192-0.427c-0.555,0.075-1.088,0.165-1.635,0.245c-3.097-3.06-7.652-6.912-8.67-5.69
					c-1.122,0.421-1.709,4.218-2.035,7.683c-14.886,3.359-24.61,7.967-24.61,7.967l-4.202,15.116
					c-0.075,0.016-0.147,0.032-0.222,0.048c-0.992,0.224-2.001,0.457-3.007,0.69c-1.974,0.455-3.975,0.927-6.003,1.417
					c-0.878,0.212-1.757,0.426-2.644,0.645c-2.764,0.681-5.557,1.384-8.422,2.133l-7.845,18.078c0,0,0.096,0.036,0.237,0.087
					c0.008,0.004,0.008,0.003,0.016,0.006c1.293,0.468,8.009,2.8,18.957,4.943l5.623,23.931
					c-23.587-14.697-48.759-19.835-64.915-20.786c-52.421-3.084-75.407,17.272-85.674,46.844c-2.357,6.788-6.167,14.776-3.33,21.83
					c-2.27,10.054-3.074,21.465-1.016,33.943c3.616,21.929,18.299,41.147,56.366,62.733c38.512,21.836,83.946,22.463,105.65,10.796
					c0.652-0.351,1.281-0.716,1.92-1.074c1.538,10.37,3.527,11.424,3.527,11.424h0.001c-8.575,4.234-18.214,10.232-22.688,17.377
					l1.662,2.435l1.662,2.434c0,0,4.098-1.069,10.822-2.469c-3.484,8.492-2.012,23.847,2.955,31.22l-2.911,3.976
					c0,0,3.589,27.229,10.232,32.982c6.542,5.665,120.286,22.488,191.587-0.809c2.127-0.694,3.838-2.282,4.744-4.327
					c3.281-7.413,10.782-25.717,8.971-34.366v-0.001l1.438-1.595c5.444,0.859,11.769,1.471,19.178,1.635
					c37.67,0.83,46.193-10.472,46.193-10.472s0.845-76.247,23.761-142.63c9.512-4.506,15.149-8.868,18.237-11.719
					C492.803,143.445,478.082,134.354,469.566,121.797 M89.765,142.047c0.208-0.008,0.416-0.029,0.624-0.035
					c16.459-2.806,39.584,15.742,51.663,30.243C122.74,173.741,90.099,159.206,89.765,142.047"/>
			</g>
		</g>
		<path clip-path="url(#SVGID_4_)" fill="#B2412F" d="M147.648,42.741l33.819,143.922c0,0,49.868,14.514,79.292-2.408
			l14.274-145.567C275.034,38.688,183.941,48.388,147.648,42.741"/>
		<path clip-path="url(#SVGID_4_)" fill="#C19B99" d="M253.962,113.071c1.135,16.53-13.879,30.764-33.537,31.792
			c-19.656,1.029-36.511-11.537-37.646-28.067c-1.135-16.53,13.88-30.765,33.537-31.793
			C235.972,83.975,252.827,96.541,253.962,113.071"/>
		<path clip-path="url(#SVGID_4_)" fill="#EDD7CE" d="M245.453,112.839c0.86,12.523-10.589,23.311-25.572,24.094
			c-14.982,0.784-27.825-8.732-28.685-21.255c-0.86-12.523,10.589-23.31,25.572-24.094C231.75,90.8,244.593,100.316,245.453,112.839
			"/>
		<path clip-path="url(#SVGID_4_)" fill="#7A2D2E" d="M207.474,121.275c0.208-3.93,3.527-6.333,7.405-7.833
			c2.51-0.971,5.378-1.047,7.824-2.058c2.591-1.071,3.252-3.43,3.81-5.681c0.481-1.942,0.937-3.86,1.174-5.821
			c-5.787-1.688-13.751,0.769-19.558,6.483c-7.091,6.98-8.275,16.173-2.646,20.532c0.741,0.573,1.564,1.031,2.448,1.384
			C207.438,125.958,207.354,123.536,207.474,121.275"/>
		<path clip-path="url(#SVGID_4_)" fill="#7A2D2E" d="M231.164,101.621c-0.023-0.018-0.048-0.034-0.072-0.052
			c-0.252,1.608-0.598,3.194-1.011,4.795c-0.777,3.015-1.942,6.275-5.397,7.703c-3.821,1.579-10.937,1.408-12.999,5.369
			c-1.256,2.416-0.909,6.587,0.132,9.691c5.368,0.35,11.803-2.153,16.702-6.975C235.61,115.171,236.794,105.979,231.164,101.621"/>
		<path clip-path="url(#SVGID_4_)" fill="#EFEEEA" d="M139.138,31.771l-7.846,18.078c0,0,35.273,13.379,86.492,7.216
			c51.218-6.163,71.778-13.382,71.778-13.382l-7.864-20.919C281.697,22.765,244.024,4.323,139.138,31.771"/>
		<g opacity="0.9" clip-path="url(#SVGID_4_)">
			<g>
				<defs>
					<rect id="SVGID_7_" x="131.292" y="25.715" width="33.237" height="28.266"/>
				</defs>
				<clipPath id="SVGID_8_">
					<use xlink:href="#SVGID_7_"  overflow="visible"/>
				</clipPath>
				<path clip-path="url(#SVGID_8_)" fill="#EFEEEA" d="M151.223,46.126c3.505-6.137,7.322-12.137,11.604-17.97
					c0.581-0.791,1.139-1.619,1.702-2.441c-7.991,1.714-16.439,3.714-25.391,6.057l-7.847,18.078c0,0,5.358,2.023,14.899,4.131
					C147.68,51.33,149.334,48.702,151.223,46.126"/>
			</g>
		</g>
		<g opacity="0.9" clip-path="url(#SVGID_4_)">
			<g>
				<defs>
					<rect id="SVGID_9_" x="228.768" y="17.83" width="60.793" height="37.835"/>
				</defs>
				<clipPath id="SVGID_10_">
					<use xlink:href="#SVGID_9_"  overflow="visible"/>
				</clipPath>
				<path clip-path="url(#SVGID_10_)" fill="#EFEEEA" d="M228.768,55.665c43.179-5.804,60.793-11.981,60.793-11.981l-7.864-20.92
					c0,0-6.541-3.182-21.686-4.933C250.501,30.876,239.041,42.984,228.768,55.665"/>
			</g>
		</g>
		<path clip-path="url(#SVGID_4_)" fill="#D7D7CE" d="M139.138,31.771l-7.846,18.078c0,0,35.273,13.379,86.492,7.216
			c51.218-6.163,71.778-13.382,71.778-13.382l-7.864-20.919C281.697,22.765,232.679,45.875,139.138,31.771"/>
		<path clip-path="url(#SVGID_4_)" fill="#EFEEEA" d="M163.637,11.722l-5.199,18.701c0,0,26.743,4.55,60.062,0.775
			c33.319-3.775,43.964-8.54,43.964-8.54l-5.012-17.296c0,0-20.22-8.81-56.865-3.845C178.941,4.45,163.637,11.722,163.637,11.722"/>
		<g opacity="0.9" clip-path="url(#SVGID_4_)">
			<g>
				<defs>
					<rect id="SVGID_11_" x="236.32" y="1.942" width="21.939" height="13.724"/>
				</defs>
				<clipPath id="SVGID_12_">
					<use xlink:href="#SVGID_11_"  overflow="visible"/>
				</clipPath>
				<path clip-path="url(#SVGID_12_)" fill="#EFEEEA" d="M253.988,10.883c0.82-0.524,1.618-1.074,2.392-1.656
					c0.608-0.458,1.239-0.802,1.879-1.08l-0.806-2.785c0,0-4.356-1.888-12.672-3.42c-1.294,2.364-2.599,4.731-4.114,7.008
					c-1.483,2.228-2.952,4.454-4.347,6.716C242.317,14.388,248.245,12.779,253.988,10.883"/>
			</g>
		</g>
		<g opacity="0.9" clip-path="url(#SVGID_4_)">
			<g>
				<defs>
					<rect id="SVGID_13_" x="205.428" y="0.015" width="21.849" height="18.719"/>
				</defs>
				<clipPath id="SVGID_14_">
					<use xlink:href="#SVGID_13_"  overflow="visible"/>
				</clipPath>
				<path clip-path="url(#SVGID_14_)" fill="#EFEEEA" d="M211.523,18.712c2.292-0.053,4.596-0.198,6.903-0.386
					c-0.414-1.509-0.32-3.179,0.584-4.904c2.413-4.604,5.384-8.933,8.267-13.319c-2.712-0.095-5.59-0.12-8.646-0.043
					c-4.748,6.002-8.931,12.319-13.203,18.594C207.461,18.728,209.494,18.758,211.523,18.712"/>
			</g>
		</g>
		<g opacity="0.9" clip-path="url(#SVGID_4_)">
			<g>
				<defs>
					<rect id="SVGID_15_" x="162.778" y="5.785" width="17.495" height="9.546"/>
				</defs>
				<clipPath id="SVGID_16_">
					<use xlink:href="#SVGID_15_"  overflow="visible"/>
				</clipPath>
				<path clip-path="url(#SVGID_16_)" fill="#EFEEEA" d="M171.878,15.331c0.777-0.882,1.589-1.75,2.448-2.593
					c1.951-2.338,3.937-4.653,5.947-6.952c-10.28,2.927-16.636,5.936-16.636,5.936l-0.86,3.093
					C165.801,14.881,168.835,15.065,171.878,15.331"/>
			</g>
		</g>
		<path clip-path="url(#SVGID_4_)" fill="#D7D7CE" d="M217.561,12.673c-18.639,1.312-34.649,1.475-53.177-1.182
			c-0.464,0.142-0.747,0.231-0.747,0.231l-5.199,18.701c0,0,26.743,4.55,60.062,0.775c33.319-3.775,43.964-8.54,43.964-8.54
			l-4.926-17.001C245.32,8.821,229.906,11.804,217.561,12.673"/>
		<path clip-path="url(#SVGID_4_)" fill="#909489" d="M177.858,9.826c0,0,18.376-5.13,32.952-5.893
			c14.576-0.763,29.695,1.494,29.695,1.494s-19.423,4.063-30.879,4.662C191.269,11.05,177.858,9.826,177.858,9.826"/>
		<path clip-path="url(#SVGID_4_)" fill="#D7D7CE" d="M189.489,9.042c-0.96-0.168-1.551-1.238-1.468-2.481
			c0.255-3.814,0.818-9.947,2.261-10.489c1.596-1.916,11.897,8.644,11.62,9.062c-0.841,1.269-2.832,4.055-4.075,4.28
			C196.498,9.653,192.021,9.486,189.489,9.042"/>
		<path clip-path="url(#SVGID_4_)" fill="#F6852B" d="M1.19,160.647c3.616,21.929,18.299,41.147,56.366,62.733
			c38.511,21.836,83.945,22.462,105.649,10.796c38.326-20.602,54.976-55.866,8.42-104.439c-9.266-9.666-16.343-22.631-28.263-31.488
			C108.482,72.331,36.629,70.075,26.197,81.452C26.197,81.452-6.576,113.55,1.19,160.647 M45.057,134.05
			c8.789-1.923,17.648-4.127,26.568-5.381c0.343-0.131,0.652-0.301,1.012-0.412c3.123-0.964,6.284-1.415,9.447-1.494
			c24.425-4.165,63.572,38.712,59.427,45.572c-7.744,6.206-15.309,31.945-23.187,14.516c-1.35-2.988-3.135-6.334-5.254-9.684
			c-1.462-1.106-2.747-2.452-3.703-4.096c-2.723-4.686-6.379-6.751-11.161-9.155c-1.72-0.866-4.407-2.92-6.842-4.687
			c-5.457-1.016-11.106-1.33-16.597-1.649c-0.298-0.017-0.55-0.091-0.838-0.12c-8.518,1.582-17.019,4.362-22.774,5.622
			C32.459,167.172,26.376,138.137,45.057,134.05"/>
		<g opacity="0.65" clip-path="url(#SVGID_4_)">
			<g>
				<defs>
					<rect id="SVGID_17_" x="33.737" y="123.342" width="111.396" height="69.463"/>
				</defs>
				<clipPath id="SVGID_18_">
					<use xlink:href="#SVGID_17_"  overflow="visible"/>
				</clipPath>
				<path clip-path="url(#SVGID_18_)" fill="#D77328" d="M39.801,136.235c1.852-2.509,4.663-4.467,8.574-5.322
					c8.789-1.923,17.648-4.127,26.568-5.382c0.342-0.13,0.652-0.3,1.012-0.411c3.122-0.964,6.284-1.415,9.447-1.493
					c24.424-4.165,63.572,38.712,59.426,45.571c-5.131,4.112-10.184,16.792-15.301,19.814c-3.699,4.61-7.415,6.221-11.204-2.161
					c-1.35-2.987-3.134-6.333-5.253-9.684c-1.462-1.106-2.747-2.452-3.703-4.096c-2.723-4.685-6.379-6.751-11.161-9.155
					c-1.721-0.865-4.407-2.919-6.842-4.687c-5.458-1.015-11.106-1.33-16.597-1.648c-0.299-0.018-0.55-0.091-0.839-0.121
					c-8.517,1.583-17.018,4.363-22.773,5.622C34.512,166.723,27.882,144.127,39.801,136.235"/>
			</g>
		</g>
		<path clip-path="url(#SVGID_4_)" fill="#6E1101" d="M186.045,189.805c-1.14,1.208-2.291,2.357-3.444,3.5
			c-1.192-0.505-2.399-1.007-3.637-1.515c-10.131-4.153-19.197-10.467-29.313-14.634c-3.031-1.249-6.121-2.53-9.233-3.808
			c0.364-0.373,0.728-0.721,1.092-1.013c4.146-6.859-35.002-49.736-59.426-45.571c-3.164,0.078-6.325,0.53-9.447,1.493
			c-0.361,0.111-0.67,0.281-1.012,0.412c-5.111,0.719-10.2,1.757-15.269,2.868c-4.284-5.382-8.473-10.934-13.07-16.191
			c-6.089-6.963-14.715-17.858-24.002-25.147c3.977-5.563,6.912-8.746,6.912-8.746c10.432-11.377,82.286-9.121,117.166,16.797
			c11.92,8.857,18.998,21.822,28.264,31.488c19.734,20.589,27.378,39.488,26.757,56.011
			C194.366,184.735,189.921,185.698,186.045,189.805"/>
		<path clip-path="url(#SVGID_4_)" fill="#9E200D" d="M31.008,179.318c2.729,5.268-1.936,10.495,2.149,15.74
			c4.065,5.219,9.644,3.751,15.356,2.838c15.708-2.507,13.573,14.33,24.744,19.064c5.151,2.184,10.052,1.947,15.448,0.785
			c7.123-1.533,9.564,0.737,15.764,4.155c11.292,6.225,18.575,7.805,28.979,0.199c4.235-3.096,8.117-5.359,13.31-6.444
			c6.473-1.351,9.382,1.885,15.192,2.504c11.892,1.266,28.523-12.393,34.141-20.41c14.84-21.178,19.42-42.98,2.901-73.484
			c-27.69-51.133-80.547-64.633-107.782-66.235c-52.421-3.084-75.406,17.272-85.673,46.843c-2.535,7.297-6.757,15.981-2.587,23.4
			c2.419,4.305,8.789,8.381,9.633,13.638c0.798,4.978-5.36,14.126-6.138,19.349C3.7,179.687,25.374,168.443,31.008,179.318
			 M82.855,120.328c3.662-7.676,42.089-26.862,62.044,15.3C164.74,177.548,68.549,150.32,82.855,120.328"/>
		<path clip-path="url(#SVGID_4_)" fill="#D3161A" d="M63.698,76.713c1.388-0.257,2.772,0.362,4.049,0.964
			c2.892,1.365,5.785,2.73,8.678,4.096c-0.825,1.488-1.651,2.977-2.476,4.466c-4.272-2.909-9.324-4.661-14.48-5.021
			C60.383,79.279,61.59,77.103,63.698,76.713"/>
		<path clip-path="url(#SVGID_4_)" fill="#D3161A" d="M15.948,114.619c1.388-0.257,2.772,0.361,4.05,0.964
			c2.892,1.366,5.785,2.73,8.678,4.096c-0.826,1.488-1.651,2.977-2.477,4.466c-4.271-2.909-9.323-4.661-14.48-5.021
			C12.634,117.185,13.84,115.009,15.948,114.619"/>
		<path clip-path="url(#SVGID_4_)" fill="#E5CC95" d="M19.158,131.099c3.259-1.045,6.518-2.09,9.777-3.135
			c4.258,4.875,8.815,9.488,13.639,13.803c-4.224,0.65-8.24,2.596-11.366,5.508C27.89,141.407,23.831,135.957,19.158,131.099"/>
		<path clip-path="url(#SVGID_4_)" fill="#E5CC95" d="M175.503,158.682c3.259-1.045,6.519-2.09,9.777-3.135
			c4.258,4.875,8.815,9.488,13.638,13.804c-4.223,0.649-8.239,2.595-11.366,5.508C184.235,168.99,180.176,163.541,175.503,158.682"
			/>
		<path clip-path="url(#SVGID_4_)" fill="#FFCB13" d="M77.177,178.578c1.29-0.834,2.916-0.893,4.452-0.927
			c2.954-0.063,5.908-0.125,8.862-0.189c0.788,3.135,1.575,6.266,2.362,9.398c-5.96-1.802-12.285-2.392-18.476-1.722
			C74.648,182.69,75.11,179.917,77.177,178.578"/>
		<path clip-path="url(#SVGID_4_)" fill="#FFCB13" d="M54.706,120.87c1.29-0.834,2.915-0.894,4.451-0.927
			c2.954-0.063,5.908-0.126,8.862-0.189c0.788,3.133,1.576,6.265,2.363,9.398c-5.961-1.803-12.285-2.392-18.476-1.722
			C52.176,124.982,52.639,122.208,54.706,120.87"/>
		<path clip-path="url(#SVGID_4_)" fill="#43AB50" d="M172.137,133.708c-0.204,2.652-0.407,5.305-0.611,7.957
			c-6.069-1.355-12.137-2.71-18.204-4.065c0.986-1.969,1.353-4.242,1.038-6.42C160.165,132.689,166.141,133.54,172.137,133.708"/>
		<path clip-path="url(#SVGID_4_)" fill="#D3161A" d="M141.93,95.802c4.884,2.087,9.768,4.174,14.652,6.261
			c0.586,2.516,0.694,5.142,0.317,7.698c-5.281-3.257-11.052-5.718-17.059-7.273C141.159,100.521,141.894,98.169,141.93,95.802"/>
		<path clip-path="url(#SVGID_4_)" fill="#FFCB13" d="M116.86,97.253c-2.415-1.04-4.829-2.08-7.244-3.12
			c2.46-1.083,3.673-3.834,4.484-6.396c0.811-2.562,1.55-5.353,3.616-7.071c1.841,0.406,3.683,0.812,5.524,1.218
			C121.113,87.008,118.987,92.13,116.86,97.253"/>
		<path clip-path="url(#SVGID_4_)" fill="#FFCB13" d="M156.565,160.226c-2.415-1.04-4.83-2.08-7.244-3.12
			c2.459-1.083,3.673-3.834,4.484-6.396c0.81-2.562,1.55-5.353,3.616-7.072c1.841,0.407,3.683,0.813,5.524,1.219
			C160.818,149.98,158.691,155.103,156.565,160.226"/>
		<path clip-path="url(#SVGID_4_)" fill="#E5CC95" d="M81.654,96.606c1.618-0.819,3.236-1.639,4.855-2.458
			c3.454,2.744,6.908,5.488,10.361,8.232c-2.613,1.163-5.227,2.327-7.84,3.49C86.571,102.782,84.112,99.694,81.654,96.606"/>
		<path clip-path="url(#SVGID_4_)" fill="#E5CC95" d="M129.405,198.331c1.618-0.819,3.237-1.639,4.855-2.458
			c3.454,2.744,6.908,5.488,10.361,8.231c-2.612,1.164-5.226,2.327-7.84,3.491C134.323,204.507,131.864,201.419,129.405,198.331"/>
		<path clip-path="url(#SVGID_4_)" fill="#43AB50" d="M52.542,97.772c0.282-1.388,1.362-2.609,2.734-2.959
			c1.371-0.352,2.959,0.249,3.675,1.47c0.242,0.414,0.384,0.878,0.512,1.34c1.227,4.425,1.33,9.159,0.294,13.633
			c-2.224-1.081-4.787-1.45-7.226-1.042c0.992-2.36,1.243-5.026,0.706-7.529C52.888,101.053,52.209,99.407,52.542,97.772"/>
		<path clip-path="url(#SVGID_4_)" fill="#43AB50" d="M86.854,191.668c0.282-1.388,1.362-2.608,2.733-2.96
			c1.372-0.351,2.96,0.249,3.676,1.472c0.241,0.413,0.384,0.877,0.512,1.339c1.228,4.426,1.33,9.159,0.294,13.634
			c-2.224-1.081-4.787-1.451-7.227-1.043c0.993-2.359,1.244-5.025,0.707-7.529C87.201,194.949,86.522,193.304,86.854,191.668"/>
		<path clip-path="url(#SVGID_4_)" fill="#D3161A" d="M142.685,186.247c-2.39,0.363-4.779,0.727-7.169,1.091
			c-0.757-4.623-1.516-9.245-2.273-13.867c1.84,0.681,3.682,1.363,5.522,2.045L142.685,186.247z"/>
		<path clip-path="url(#SVGID_4_)" fill="#FFCB13" d="M180.771,180.051c-0.341,0.317-0.867,0.301-1.332,0.264
			c-3.002-0.235-6.005-0.472-9.008-0.707c0.55-5.474-0.016-11.057-1.654-16.308c2.579,1.362,5.447,2.173,8.357,2.365
			c1.258,4.205,2.515,8.409,3.772,12.613C181.085,178.878,181.229,179.623,180.771,180.051"/>
		<path clip-path="url(#SVGID_4_)" fill="#FFCB13" d="M38.205,167.553c-0.342,0.318-0.867,0.301-1.332,0.264l-9.008-0.707
			c0.55-5.474-0.016-11.057-1.655-16.308c2.579,1.362,5.448,2.174,8.359,2.366c1.257,4.204,2.514,8.409,3.77,12.613
			C38.519,166.381,38.663,167.126,38.205,167.553"/>
		<path clip-path="url(#SVGID_4_)" fill="#43AB50" d="M48.396,176.47c0.023-4.81-1.021-9.621-3.036-13.988
			c2.422-0.01,4.844-0.02,7.266-0.03c1.644,4.341,3.288,8.683,4.931,13.024C54.503,175.807,51.45,176.138,48.396,176.47"/>
		<path clip-path="url(#SVGID_4_)" fill="#6BC4A9" d="M119.297,209.27c-2.717,0.13-5.435,0.259-8.152,0.388
			c-0.578-4.979-1.572-9.908-2.969-14.721c0.853-0.664,2.074-0.818,3.064-0.388C113.926,199.456,116.611,204.362,119.297,209.27"/>
		<path clip-path="url(#SVGID_4_)" fill="#D3161A" d="M193.064,138.533c1.224,4.242,2.448,8.484,3.672,12.727
			c-2.41,0.186-4.82,0.373-7.23,0.559c-0.784-4.632-1.569-9.265-2.353-13.897C189.124,138.126,191.094,138.329,193.064,138.533"/>
		<path clip-path="url(#SVGID_4_)" fill="#6BC4A9" d="M171.601,113.554c1.606,0.067,3.039,0.979,4.383,1.861
			c2.307,1.515,4.615,3.029,6.923,4.544c-1.618,1.935-3.234,3.871-4.851,5.806c-3.219-4.094-7.56-7.296-12.421-9.164
			C167.348,115.077,169.31,113.458,171.601,113.554"/>
		<path clip-path="url(#SVGID_4_)" fill="#6BC4A9" d="M151.167,174.761c1.606,0.067,3.039,0.979,4.383,1.861
			c2.308,1.516,4.615,3.029,6.923,4.544c-1.617,1.936-3.234,3.871-4.851,5.807c-3.219-4.094-7.559-7.296-12.421-9.164
			C146.914,176.284,148.876,174.667,151.167,174.761"/>
		<path clip-path="url(#SVGID_4_)" fill="#6BC4A9" d="M29.411,106.548c-0.781,0.278-1.584,0.561-2.414,0.542
			c-1.221-0.027-2.402-0.765-2.961-1.852c-0.559-1.086-0.473-2.476,0.215-3.486c4.099-1.53,8.035-3.496,11.72-5.856
			c1.917,2.089,3.834,4.178,5.751,6.266C37.619,103.625,33.515,105.086,29.411,106.548"/>
		<path clip-path="url(#SVGID_4_)" fill="#6BC4A9" d="M66.104,168.375c-0.781,0.279-1.584,0.561-2.414,0.542
			c-1.221-0.026-2.401-0.765-2.961-1.852c-0.559-1.086-0.473-2.476,0.215-3.485c4.099-1.531,8.035-3.497,11.72-5.857
			c1.917,2.089,3.835,4.178,5.752,6.267C74.312,165.453,70.208,166.915,66.104,168.375"/>
		<path clip-path="url(#SVGID_4_)" fill="#6BC4A9" d="M86.177,91.858c-0.781,0.279-1.584,0.561-2.414,0.542
			c-1.221-0.027-2.402-0.765-2.961-1.852c-0.559-1.086-0.474-2.476,0.215-3.486c4.099-1.53,8.035-3.496,11.72-5.856
			c1.917,2.089,3.834,4.177,5.752,6.266C94.385,88.936,90.281,90.397,86.177,91.858"/>
		<path clip-path="url(#SVGID_4_)" fill="#6BC4A9" d="M137.859,121.617c-0.781,0.278-1.584,0.561-2.414,0.542
			c-1.221-0.027-2.401-0.765-2.961-1.852c-0.559-1.086-0.473-2.476,0.215-3.485c4.099-1.531,8.035-3.497,11.72-5.857
			c1.917,2.089,3.834,4.177,5.752,6.267C146.067,118.693,141.963,120.156,137.859,121.617"/>
		<path clip-path="url(#SVGID_4_)" fill="#43AB50" d="M90.563,69.508c3.474,2.169,7.391,3.623,11.438,4.247l-0.791,6.261
			c-4.577-2.515-9.532-4.34-14.647-5.394C88.415,73.425,89.847,71.593,90.563,69.508"/>
		<path clip-path="url(#SVGID_4_)" fill="#E5CC95" d="M121.331,166.946c4.447-0.264,8.736-2.544,11.442-6.084
			c1.816,1.907,3.633,3.813,5.45,5.72c-5.029,1.821-9.797,4.364-14.111,7.528C123.185,171.721,122.257,169.334,121.331,166.946"/>
		<path clip-path="url(#SVGID_4_)" fill="#E5CC95" d="M131.676,85.422c4.447-0.263,8.736-2.543,11.442-6.084
			c1.817,1.907,3.634,3.813,5.45,5.72c-5.029,1.821-9.797,4.364-14.111,7.527C133.53,90.197,132.603,87.811,131.676,85.422"/>
		<path clip-path="url(#SVGID_4_)" fill="#E5CC95" d="M51.816,188.54c4.448-0.264,8.736-2.544,11.442-6.084
			c1.817,1.906,3.633,3.813,5.45,5.721c-5.029,1.82-9.797,4.363-14.111,7.526C53.67,193.315,52.743,190.929,51.816,188.54"/>
		<path clip-path="url(#SVGID_4_)" fill="#D3161A" d="M72.789,154.731c-0.699,0.92-1.905,1.428-3.051,1.284
			c-1.147-0.143-2.191-0.932-2.642-1.996c0.271-3.964,0.542-7.927,0.814-11.892c2.27,0.704,6.078,2.255,5.712,2.327
			c0.946,2.846,0.908,6.009-0.106,8.833C73.333,153.796,73.116,154.3,72.789,154.731"/>
		<path clip-path="url(#SVGID_4_)" fill="#43AB50" d="M100.79,160.333c0.453-0.579,1.354-0.415,2.056-0.195
			c1.696,0.532,3.394,1.064,5.09,1.596c1.062,4.4,2.124,8.799,3.186,13.199c-2.264-0.037-4.527-0.073-6.79-0.109
			c-1.201-4.283-2.402-8.567-3.603-12.85C100.576,161.426,100.438,160.781,100.79,160.333"/>
		<path clip-path="url(#SVGID_4_)" fill="#43AB50" d="M172.208,199.329c-5.339-0.333-10.737,0.304-15.852,1.869
			c-0.549-2.932-1.099-5.863-1.648-8.795c4.708,0.491,9.459,0.566,14.18,0.223C169.995,194.86,171.101,197.095,172.208,199.329"/>
		<path clip-path="url(#SVGID_4_)" fill="#CDD0C5" d="M421.338,283.219c-11.372,1.237-22.513,1.369-33.935,1.293
			c-10.247-0.069-21.321,1.386-31.232-0.979l2.685,22.408c0,0,25.196,8.067,42.082,6.119c16.885-1.948,31.749-6.639,31.749-6.639
			l3.755-25.327C431.603,281.531,426.67,282.639,421.338,283.219"/>
		<path clip-path="url(#SVGID_4_)" fill="#FC1722" d="M316.077,128.197c0,0,33.771,115.025,31.605,151.897
			c0,0,10.954,12.093,48.623,12.924c37.671,0.83,46.195-10.472,46.195-10.472s0.91-83.921,27.276-152.328
			C469.777,130.218,409.02,146.959,316.077,128.197"/>
		<path clip-path="url(#SVGID_4_)" fill="#E1F4E8" d="M431.533,162.545c0,0,5.917,26.266-38.606,25.978
			c-44.522-0.29-53.235,43.007-36.756,68.118c16.479,25.112,56.833,34.06,75.622,6.927c0,0-17.435,17.319-38.866,3.176
			c-21.431-14.143-9.597-36.368,11.474-49.357C425.471,204.397,446.831,196.893,431.533,162.545"/>
		<path clip-path="url(#SVGID_4_)" fill="#FC1722" d="M416.957,197.687c0,3.229-2.649,5.846-5.918,5.846
			c-3.268,0-5.916-2.616-5.916-5.846c0-3.228,2.648-5.845,5.916-5.845C414.308,191.842,416.957,194.459,416.957,197.687"/>
		<path clip-path="url(#SVGID_4_)" fill="#FC1722" d="M394.442,207.789c0,5.062-4.49,9.164-10.03,9.164
			c-5.539,0-10.03-4.103-10.03-9.164s4.491-9.164,10.03-9.164C389.952,198.625,394.442,202.728,394.442,207.789"/>
		<path clip-path="url(#SVGID_4_)" fill="#FC1722" d="M374.382,238.023c0,3.906-3.392,7.072-7.576,7.072s-7.577-3.166-7.577-7.072
			c0-3.905,3.393-7.071,7.577-7.071S374.382,234.118,374.382,238.023"/>
		<path clip-path="url(#SVGID_4_)" fill="#FC1722" d="M379.072,260.79c0,2.093-1.89,3.789-4.221,3.789
			c-2.332,0-4.222-1.696-4.222-3.789c0-2.092,1.89-3.788,4.222-3.788C377.183,257.002,379.072,258.698,379.072,260.79"/>
		<path clip-path="url(#SVGID_4_)" fill="#FC1722" d="M389.896,272.174c0,1.325-1.114,2.399-2.489,2.399s-2.49-1.074-2.49-2.399
			s1.115-2.399,2.49-2.399S389.896,270.849,389.896,272.174"/>
		<path clip-path="url(#SVGID_4_)" fill="#FC1722" d="M430.378,188.45c0,1.395-1.066,2.525-2.381,2.525
			c-1.315,0-2.382-1.131-2.382-2.525c0-1.396,1.066-2.525,2.382-2.525C429.312,185.925,430.378,187.054,430.378,188.45"/>
		<path clip-path="url(#SVGID_4_)" fill="#D7D7CE" d="M303.377,130.795c0,0,36.946,30.523,94.313,25.328
			c56.799-5.144,79.303-20.999,86.808-27.926c0,0-14.721-9.092-23.235-21.648l-135.889,5.587
			C325.374,112.136,312.108,127.114,303.377,130.795"/>
		<g clip-path="url(#SVGID_4_)">
			<g>
				<defs>
					<rect id="SVGID_19_" x="400.348" y="118.777" width="43.063" height="36.774"/>
				</defs>
				<clipPath id="SVGID_20_">
					<use xlink:href="#SVGID_19_"  overflow="visible"/>
				</clipPath>
				<path clip-path="url(#SVGID_20_)" fill="#AEC7C2" d="M429.262,118.777c-9.713,2.069-19.276,4.257-28.914,5.983
					c0.741,10.289,1.77,20.55,3.014,30.792c16.126-1.733,29.316-4.341,40.05-7.324c-2.038-4.389-4.094-8.766-6.29-13.063
					C434.346,129.736,431.643,124.31,429.262,118.777"/>
			</g>
		</g>
		<g clip-path="url(#SVGID_4_)">
			<g>
				<defs>
					<rect id="SVGID_21_" x="325.374" y="99.322" width="135.889" height="29.211"/>
				</defs>
				<clipPath id="SVGID_22_">
					<use xlink:href="#SVGID_21_"  overflow="visible"/>
				</clipPath>
				<path clip-path="url(#SVGID_22_)" fill="#AEC7C2" d="M461.263,106.549c0,0-20.35-9.669-67.325-6.639
					c-46.977,3.031-59.243,5.052-68.563,12.226c0,0,14.853,19.149,72.749,16.061C446.831,125.599,459.964,111.023,461.263,106.549"
					/>
			</g>
		</g>
		<path clip-path="url(#SVGID_4_)" fill="#F7F9F8" d="M439.971,101.238c-2.663,7.721-6.18,15.237-9.718,22.651
			c22.779-5.442,30.062-14.076,31.01-17.34C461.263,106.549,454.532,103.378,439.971,101.238"/>
		<path clip-path="url(#SVGID_4_)" fill="#F7F9F8" d="M346.346,113.888c1.708-3.362,3.848-6.845,5.761-10.417
			c-14.506,1.923-21.153,4.371-26.732,8.665c0,0,4.273,5.41,16.93,10.016C343.615,119.383,344.955,116.625,346.346,113.888"/>
		<path clip-path="url(#SVGID_4_)" fill="#909489" d="M447.913,105.466c0,0-55.347-19.483-109.033,4.546
			c0,0,16.452,11.257,59.026,10.247C432.767,119.431,447.913,105.466,447.913,105.466"/>
		<g clip-path="url(#SVGID_4_)">
			<g>
				<defs>
					<rect id="SVGID_23_" x="344.797" y="87.948" width="97.199" height="27.075"/>
				</defs>
				<clipPath id="SVGID_24_">
					<use xlink:href="#SVGID_23_"  overflow="visible"/>
				</clipPath>
				<path clip-path="url(#SVGID_24_)" fill="#AEC7C2" d="M344.797,94.66c0,0,4.762,4.096,5.195,15.353
					c0,0,28.702,6.325,49.646,4.762c19.339-1.443,37.884-8.226,37.884-8.226s-0.938-5.828,4.475-18.6L344.797,94.66z"/>
			</g>
		</g>
		<path clip-path="url(#SVGID_4_)" fill="#F7F9F8" d="M441.996,87.948c0,0-28.287-7.793-51.378-6.35
			c-23.091,1.443-36.08,6.206-45.821,13.061c0,0,12.628,10.013,48.13,10.013c35.503,0,48.797-16.054,48.797-16.054L441.996,87.948z"
			/>
		<path clip-path="url(#SVGID_4_)" fill="#909489" d="M366.444,93.793c0,0,17.102-5.304,31.822-4.871s21.973,2.423,21.973,2.423
			s-9.85,6.778-29.657,7.103C370.774,98.772,366.444,93.793,366.444,93.793"/>
		<path clip-path="url(#SVGID_4_)" fill="#9C9396" d="M323.611,58.024c0,0-0.192,8.982,7.197,9.23c0,0,1.867-4.945-1.538-7.527
			C325.864,57.145,325.534,57.475,323.611,58.024"/>
		<path clip-path="url(#SVGID_4_)" fill="#C4C8C2" d="M397.447,92.799c0,0,2.802,2.308,9.394,0l-21.096-74.66
			c0,0,4.203-1.07,0.824-4.779c0,0,1.236-4.532-3.131-2.225c0,0-0.742-4.615-4.12-1.895c0,0,0.082-3.131-4.533,1.401
			c-4.614,4.532-51.174,47.383-51.174,47.383s7.856,1.978,7.197,9.23c0,0,46.367-46.587,47.025-45.708
			C378.494,22.425,393.986,78.295,397.447,92.799"/>
		<path clip-path="url(#SVGID_4_)" fill="#FD842E" d="M160.156,299.498c0,0,3.589,27.229,10.232,32.982
			c6.541,5.665,120.286,22.488,191.587-0.809c2.127-0.694,3.839-2.282,4.744-4.327c3.281-7.413,10.782-25.717,8.972-34.366
			C373.391,281.984,327.624,318.29,160.156,299.498"/>
		<path clip-path="url(#SVGID_4_)" fill="#B93E13" d="M252.967,244.271c0,0-88.72,10.14-92.811,19.907
			c-4.09,9.769-1.521,28.865,5.448,34.144c6.967,5.277,96.706,5.006,111.396,5.975c56.388,3.72,90.254-16.396,92.556-16.744
			c2.301-0.35,14.593-24.105,0-39.072C355.974,234.55,269.324,245.184,252.967,244.271"/>
		<path clip-path="url(#SVGID_4_)" fill="#69AC1E" d="M160.156,297.581c0,0,11.122-5.389,17.833-6.722
			c6.712-1.333,25.696,4.804,44.105,1.544c18.408-3.26,17.4,8.065,38.735,3.644c21.334-4.423,27.229,3.835,34.133,1.534
			c6.903-2.302,27.038-0.708,31.448,0.413c4.41,1.12,27.811-13.722,36.242-11.919c8.431,1.802,16.491-5.562,18.408-2.109
			c1.918,3.451,5.562,11.494-6.137,14.089c-11.696,2.594-17.066,6.813-22.243,4.512c-5.178-2.301-33.366,13.614-37.009,9.013
			c-3.644-4.602-15.725-4.027-26.271-2.493c-10.546,1.534-14.573-1.917-27.229,0.767c-12.656,2.686-30.552-2.386-36.051,0.384
			c-5.498,2.77-22.818,5.178-27.229,1.343c-4.41-3.836-19.175-6.137-23.011-4.027C172.045,309.661,160.731,300.266,160.156,297.581"
			/>
		<path clip-path="url(#SVGID_4_)" fill="#89C828" d="M171.406,290.422c0.014-0.328-0.297-0.537,0.27-0.378
			c0.661-0.421,2.006-1.476,3.019-1.718c-0.019-0.113-0.039-0.227-0.058-0.341c1.435-0.407,2.752-1.446,4.135-1.768
			c-0.018-0.095-0.035-0.189-0.049-0.285c2.818-0.036,6.731-0.867,9.415-1.277c3.133,0.157,7.379,2.549,4.95,5.959
			c-1.105,1.551-3.039,1.733-2.762,4.153c0.2,1.735,2.145,3.439,3.294,3.962c3.795,1.188,8.996,0.982,12.942,0.563
			c3.336-0.354,10.287-0.897,10.466-5.435c0.32-1.309-1.714-2.129-1.977-3.493c-0.348-1.802,1.071-3.294,2.022-3.928
			c1.731-0.061,4.051-0.641,5.558-1.145c2.152,0.405,5.07-0.46,7.312-0.553c2.071-0.086,4.585,0.385,6.476,0.554
			c1.342,0.667,2.778,1.608,4.141,2.169c1.102,1.257,2.957,3.225,1.999,5.259c-0.567,1.205-2.187,1.333-3.144,2.04
			c-1.249,0.924-1.668,1.859-2.597,2.876c0.353,1.266,1.046,2.159,2.022,2.782c0.457,0.151,0.65,0.106,1.145,0.512
			c4.906-0.528,9.991,1.377,14.812,0.342c0.888,0.229,1.671,0.14,2.174-0.269c1.177,0.342,2.556-0.119,3.618-0.143
			c-0.006-0.123-0.021-0.244-0.046-0.364c0.183,0.089,0.375,0.125,0.577,0.109c0.02-0.143-0.019-0.264-0.116-0.364
			c3.155-1.367-3.077-3.855-3.953-4.715c-3.107-3.045,1.489-4.862,4.303-5.369c6.685-1.203,16.464-1.695,22.441,2.437
			c0.604,2.323-1.194,5.173-3.57,5.616c-0.532,0.65-1.816,1.543-2.492,2.437c0.003,0.167,0.007,0.848,0,1.105
			c0.556,0.314,1.15,0.746,1.683,0.854c1.401,1.028,4.008,0.506,5.367,0.454c0.333,0.054,0.631,0.021,0.77,0.001
			c0.726,0.18,1.409,0.104,2.149,0.092c-0.023-0.117-0.039-0.235-0.049-0.354c1.024,0.021,2.878-0.58,2.812-2.039
			c1.913-2.653-2.857-7.21,2.898-7.526c3.257-0.18,7.733,1.434,9.83-1.677c2.279-0.693,3.855-1.529,6.142-0.71
			c3.184,4.241-0.658,6.3-3.464,9.558c0.003-0.01-0.146,0.229-0.263,0.357c0.085,0.442,0.077,0.896,0.13,1.361
			c0.148,0.198,0.36,0.322,0.501,0.54c-0.019-0.095-0.057-0.182-0.112-0.262c0.987,1.216,4.89,2.031,5.873,1.285
			c3.938,1.738,7.194-4.519,9.183-7.117c1.394-1.822,2.623-3.65,4.402-5.057c1.927-1.523,3.758-0.961,5.52-1.889
			c3.159,0.915,5.278,1.479,7.584,4.057c1.631,1.823,2.689,5.457,5.654,4.779c9.419,1.64,12.436-13.928,19.65-17.443
			c2.053-1,4.209-0.772,5.505,1.222c1.136,1.746,0.51,3.962,1.585,5.637c1.148,1.79,3.505,1.963,5.126,0.754
			c1.834-1.368,1.471-3.779,2.737-5.418c3.519-4.556,10.027-2.104,10.039,3.374c0.008,3.416-4.846,10.496-7.953,11.406
			c-0.215,1.679-4.702,5.379-6.619,5.929c-3.735,1.07-6.305-1.755-6.646-5.063c-0.292-2.815,0.374-7.176-2.672-8.301
			c-2.389-0.883-6.113,1.836-6.057,4.262c-1.045,1.68-1.004,4.886-1.512,7.107c-0.478,2.089-1.273,4.468-2.452,6.206
			c-0.414,0.347-0.454,0.339-0.567,0.57c-5.74,2.643-11.981-1.352-14.012-7.542c-2.011-1.933-5.58-6.467-7.046-0.769
			c-0.494,1.919-0.046,3.961,0.049,5.88c0.087,1.754-0.687,4.046-0.35,5.626c-2.308,3.859-5.111,5.027-9.948,5.452
			c-4.959,0.437-9.85-1.411-14.23-3.471c-3.551-1.669-6.52-2.839-5.551-7.281c0.283-1.296,1.384-3.78,0.695-5.195
			c-0.79-1.625-3.538-2.328-4.785-1.372c-4.82-0.088-3.768,5.835-4.751,9.041c-1.417,4.616-5.368,6.413-9.967,6.853
			c-3.207,0.307-13.333,0.494-13.178-4.282c0.068-2.095,2.632-3.437,2.952-5.426c0.396-2.464-1.709-4.194-3.777-5.127
			c-1.594-0.719-7.602-1.338-6.113,1.803c-0.052,1.021,1.003,2.203,1.312,3.381c0.313,1.197,0.021,2.577,0.496,3.637
			c-1.109,1.233-1.146,3.288-1.769,4.531c-0.867,1.732-2.187,2.873-3.67,3.855c-0.504,0.112-0.756,0.212-1.152,0.397
			c-5.9-0.319-10.896-0.15-16.404-3.025c-1.45-0.756-3.907-1.904-4.837-3.167c-1.394-1.896-0.372-4.203-1.407-6.24
			c-1.751-3.45-10.06-5.374-8.859,0.455c0.589,2.859,2.834,3.999,2.773,7.227c-0.038,2.044-0.353,3.946-2.322,5.121
			c-0.062,0.094-0.064,0.179-0.007,0.255c-10.587,3.291-5.587-12.486-13.254-13.826c-2.442-0.427-8.03,0.303-9.555,2.514
			c-2.324,3.367,3.473,5.399,0.223,8.897c-0.151,0.002-1.069,0.125-0.878,0.107c-4.657,1.13-12.154-0.589-13.779-5.938
			c-0.635-2.093,0.997-4.408,0.146-6.278c-0.638-1.401-3.819-3.059-4.918-2.969c-1.276-0.788-3.193-0.49-4.505,0.421
			c-1.989,1.381-1.469,2.618-0.426,4.543c2.475,4.569,3.057,7.214-0.182,11.646c-3.649,0.942-8.559,1.229-11.908-1.098
			c-2.705-1.879-3.429-6.899-4.451-9.646c-1.339-1.918-6.499-1.438-8.444-1.023c-9.223-0.895-11.895-14.382-1.164-14.204
			c4.08,0.067,7.485,2.808,11.007,4.795c2.695,1.521,8.648,3.759,9.453-1.215c0.633-3.912-4.014-3.269-5.094-6.067
			C171.471,289.726,170.991,290.712,171.406,290.422"/>
		<path clip-path="url(#SVGID_4_)" fill="#FFD015" d="M184.957,237.752c0,0-29.978,9.76-38.991,24.151l3.324,4.869
			c0,0,49.473-12.934,87.569-7.81c38.096,5.124,79.602,14.633,91.852,19.665c0,0,26.463-32.247,61.938-30.713v-5.944
			c0,0-13.167-8.693-28.636-9.46C346.545,231.744,243.763,247.212,184.957,237.752"/>
		<path clip-path="url(#SVGID_4_)" fill="#F39A0D" d="M337.457,263.692c-5.822,4.07-10.712,7.761-10.712,7.761
			c-40.221-9.897-70.327-18.142-98.903-18.142c-46.546,0-81.779,8.438-81.876,8.592l3.324,4.868c0,0,49.474-12.933,87.569-7.808
			c38.096,5.123,79.602,14.632,91.852,19.664c0,0,26.463-32.248,61.938-30.713v-5.944
			C361.885,243.121,345.268,258.231,337.457,263.692"/>
		<path clip-path="url(#SVGID_4_)" fill="#FD1312" d="M362.907,217.554c0,0,5.114,2.365,5.689,6.584s-0.655,12.776-2.845,14.382
			c-4.677,3.428-112.666,15.082-197.099,6.007c0,0-2.744-1.405-4.278-17.704c0,0,24.673,9.141,112.945,5.812
			C347.261,229.997,362.907,217.554,362.907,217.554"/>
		<path clip-path="url(#SVGID_4_)" fill="#FD842E" d="M266.902,149.557c-18.899,0.156-37.834,3.066-55.972,8.02
			c-12.24,3.343-24.432,7.875-35.058,14.919c-10.286,6.819-16.657,15.151-21.341,26.394c0,0-5.634,15.438,5.625,30.681
			c11.26,15.243,182.859,8.757,206.996-8.661c0,0,8.817-10.387,2.871-27.069c-3.121-8.76-11.822-16.941-19.287-22.069
			c-11.806-8.108-25.434-13.479-39.256-17.006C296.924,151.05,281.924,149.433,266.902,149.557"/>
		<path clip-path="url(#SVGID_4_)" fill="#F45E0E" d="M330.505,209.045c-24.37,7.414-48.378,5.019-73.457,5.479
			c-25.772,0.475-52.312,3.115-77.83-1.773c-11.352-2.176-19.907-5.533-24.971-12.931c-0.986,3.507-3.742,16.685,5.909,29.75
			c11.26,15.243,182.86,8.756,206.995-8.661c0,0,8.287-9.826,3.302-25.69C358.539,202.433,344.981,204.642,330.505,209.045"/>
		<g opacity="0.32" clip-path="url(#SVGID_4_)">
			<g>
				<defs>
					<rect id="SVGID_25_" x="248.843" y="155.91" width="30.338" height="15.14"/>
				</defs>
				<clipPath id="SVGID_26_">
					<use xlink:href="#SVGID_25_"  overflow="visible"/>
				</clipPath>
				<path clip-path="url(#SVGID_26_)" fill="#FDE1AC" d="M271.12,157.214c-5.485-1.69-20.646-3.128-22.187,5.114
					c-1.324,7.086,12.128,8.481,16.574,8.692c5.03,0.239,13.011-0.869,13.634-6.039C279.621,161.002,275.665,158.615,271.12,157.214
					"/>
			</g>
		</g>
		<path clip-path="url(#SVGID_4_)" fill="#FCC87C" d="M222.914,173.451c0.866,1.711-0.834,4.315-3.799,5.815
			c-2.964,1.501-6.07,1.331-6.936-0.382c-0.867-1.71,0.835-4.314,3.799-5.815C218.941,171.569,222.046,171.74,222.914,173.451"/>
		<path clip-path="url(#SVGID_4_)" fill="#FCC87C" d="M271.813,199.393c0.866,1.712-0.835,4.315-3.799,5.816
			s-6.069,1.33-6.937-0.382s0.835-4.315,3.798-5.816C267.841,197.511,270.946,197.682,271.813,199.393"/>
		<path clip-path="url(#SVGID_4_)" fill="#FCC87C" d="M312.465,195.635c0.866,1.712-0.835,4.315-3.799,5.816
			c-2.964,1.5-6.069,1.33-6.936-0.383c-0.867-1.711,0.834-4.314,3.798-5.815C308.493,193.753,311.599,193.924,312.465,195.635"/>
		<path clip-path="url(#SVGID_4_)" fill="#FCC87C" d="M194.15,184.744c0.866,1.712-0.834,4.315-3.799,5.816
			c-2.964,1.5-6.07,1.33-6.936-0.382c-0.866-1.712,0.835-4.315,3.799-5.816C190.178,182.862,193.283,183.033,194.15,184.744"/>
		<path clip-path="url(#SVGID_4_)" fill="#FCC87C" d="M352.158,183.083c0.866,1.712-0.835,4.315-3.799,5.816
			c-2.965,1.5-6.07,1.33-6.937-0.382c-0.867-1.712,0.835-4.315,3.798-5.816C348.187,181.201,351.291,181.372,352.158,183.083"/>
		<path clip-path="url(#SVGID_4_)" fill="#FCC87C" d="M284.603,190.069c-0.832,1.729-3.934,1.963-6.927,0.522
			c-2.994-1.441-4.747-4.01-3.916-5.738c0.832-1.729,3.934-1.963,6.928-0.522C283.681,185.772,285.434,188.341,284.603,190.069"/>
		<path clip-path="url(#SVGID_4_)" fill="#FCC87C" d="M320.355,178.504c0.39,1.879-1.933,3.948-5.187,4.622
			c-3.253,0.675-6.206-0.301-6.595-2.179c-0.39-1.879,1.932-3.948,5.186-4.623C317.013,175.65,319.966,176.626,320.355,178.504"/>
		<path clip-path="url(#SVGID_4_)" fill="#FCC87C" d="M222.967,202.726c-0.832,1.729-3.933,1.962-6.927,0.521
			c-2.994-1.44-4.746-4.01-3.915-5.738c0.832-1.729,3.933-1.962,6.927-0.521C222.046,198.428,223.799,200.997,222.967,202.726"/>
		<path clip-path="url(#SVGID_4_)" fill="#FCC87C" d="M251.033,191.547c-0.777,1.469-3.794,1.396-6.741-0.162
			c-2.946-1.558-4.704-4.012-3.927-5.48c0.776-1.469,3.794-1.396,6.74,0.163C250.051,187.624,251.81,190.078,251.033,191.547"/>
		<path clip-path="url(#SVGID_4_)" fill="#FCC87C" d="M187.703,204.115c-0.398,1.613-3.343,2.273-6.579,1.476
			c-3.236-0.798-5.536-2.752-5.139-4.365c0.398-1.613,3.343-2.274,6.579-1.476C185.8,200.548,188.101,202.502,187.703,204.115"/>
		<path clip-path="url(#SVGID_4_)" fill="#FCC87C" d="M298.518,166.777c-0.834,1.576-3.809,1.637-6.646,0.138
			c-2.836-1.501-4.459-3.994-3.626-5.57c0.833-1.576,3.809-1.638,6.645-0.138C297.728,162.708,299.351,165.201,298.518,166.777"/>
		<path clip-path="url(#SVGID_4_)" fill="#FCC87C" d="M336.951,172.025c-0.833,1.576-3.809,1.638-6.646,0.137
			c-2.835-1.5-4.459-3.993-3.626-5.569c0.833-1.576,3.809-1.638,6.646-0.137C336.161,167.956,337.785,170.449,336.951,172.025"/>
		<path clip-path="url(#SVGID_4_)" fill="#FCC87C" d="M238.498,164.503c-0.833,1.576-3.809,1.637-6.645,0.137
			s-4.459-3.993-3.626-5.57c0.833-1.576,3.808-1.637,6.645-0.137C237.707,160.433,239.331,162.927,238.498,164.503"/>
	</g>
</g>
</svg>
