<?xml version="1.0" encoding="utf-8"?>
<!-- Generator: Adobe Illustrator 16.0.3, SVG Export Plug-In . SVG Version: 6.00 Build 0)  -->
<!DOCTYPE svg PUBLIC "-//W3C//DTD SVG 1.1//EN" "http://www.w3.org/Graphics/SVG/1.1/DTD/svg11.dtd">
<svg version="1.1" id="Capa_1" xmlns="http://www.w3.org/2000/svg" xmlns:xlink="http://www.w3.org/1999/xlink" x="0px" y="0px"
	 width="291.417px" height="453.983px" viewBox="0 0 291.417 453.983" enable-background="new 0 0 291.417 453.983"
	 xml:space="preserve">
<g>
	<defs>
		<rect id="SVGID_1_" x="-238.3" y="-66.819" width="792" height="612"/>
	</defs>
	<clipPath id="SVGID_2_">
		<use xlink:href="#SVGID_1_"  overflow="visible"/>
	</clipPath>
	<path clip-path="url(#SVGID_2_)" fill="#DE9865" d="M93.725,268.309c0.705-0.144,1.426-0.057,2.128,0.437
		c0.652,0.47,0.981,1.08,1.071,1.726c0.126,0.854-0.162,1.786-0.761,2.569c-0.04,0.051-0.05,0.126-0.04,0.211
		c0,0,0.325,0.9,1.123,1.544c1.184,0.825,2.888,0.942,4.236,0.952c0.737,0.006,1.468-0.036,2.199-0.105
		c0.561-0.049,1.111-0.157,1.667-0.26c0.44-0.088,0.783-0.252,1.207-0.394c0.193-0.063,0.466-0.134,0.724-0.157
		c-0.114-0.377-0.232-0.752-0.376-1.125v-6.602H93.725V268.309z"/>
	<path clip-path="url(#SVGID_2_)" fill="#E4AA7F" d="M122.614,273.712c-0.139,0.367-0.268,0.743-0.376,1.119
		c0.298-0.005,0.638,0.082,0.865,0.157c0.427,0.142,0.767,0.306,1.215,0.394c0.546,0.103,1.101,0.211,1.663,0.26
		c0.73,0.069,1.466,0.111,2.197,0.105c1.56-0.01,3.594-0.162,4.742-1.377c0.164-0.178,0.808-1.037,0.581-1.33
		c-0.597-0.775-0.886-1.694-0.772-2.535c0.093-0.662,0.417-1.279,1.086-1.759c0.649-0.463,1.313-0.571,1.972-0.463v-1.995h-13.173
		V273.712z"/>
	<polygon clip-path="url(#SVGID_2_)" fill="#050406" points="121.607,282.682 121.607,282.287 121.314,282.287 121.314,284.483 
		153.695,284.483 153.695,282.287 153.69,282.287 153.69,282.682 	"/>
	<path clip-path="url(#SVGID_2_)" fill="#575251" d="M133.815,268.747c-0.669,0.479-0.993,1.097-1.086,1.759
		c-0.114,0.841,0.175,1.76,0.772,2.535c0.227,0.293-0.417,1.152-0.581,1.33c-1.148,1.215-3.182,1.367-4.742,1.377
		c-0.731,0.006-1.467-0.036-2.197-0.105c-0.562-0.049-1.117-0.157-1.663-0.26c-0.448-0.088-0.788-0.252-1.215-0.394
		c-0.227-0.075-0.567-0.162-0.865-0.157c-0.347,0.008-0.633,0.145-0.63,0.587v2.903v3.964v0.396h32.082v-0.396v-3.128
		c0.031-1.727-1.142-4.408-6.028-5.878c0,0-7.052-2.173-8.831-3.441c-0.913-0.659-1.968-1.385-3.044-1.555
		C135.128,268.175,134.464,268.284,133.815,268.747 M140.322,276.958l-9.06-1.57c1.76-0.304,2.383-2.142,2.383-2.142
		C135.514,274.008,140.322,276.958,140.322,276.958"/>
	<polygon clip-path="url(#SVGID_2_)" fill="#050406" points="75.966,282.682 75.966,282.287 75.821,282.287 75.821,284.483 
		108.2,284.483 108.2,282.287 108.056,282.287 108.056,282.682 	"/>
	<path clip-path="url(#SVGID_2_)" fill="#302C2D" d="M105.348,275.382c-0.556,0.104-1.106,0.211-1.667,0.26
		c-0.731,0.069-1.462,0.111-2.199,0.105c-1.348-0.01-3.052-0.126-4.236-0.952c0.334,0.272,0.751,0.505,1.269,0.592l-9.063,1.57
		c0,0,4.803-2.949,6.671-3.712v0.006c-0.01-0.085,0-0.16,0.039-0.211c0.6-0.783,0.888-1.715,0.762-2.569
		c-0.09-0.646-0.419-1.256-1.071-1.725c-0.702-0.494-1.423-0.581-2.128-0.438c-1.024,0.211-2.023,0.901-2.893,1.529
		c-1.784,1.269-8.836,3.441-8.836,3.441c-4.883,1.47-6.056,4.151-6.03,5.878v3.128v0.396h32.09v-0.396v-3.964v-2.903
		c0.005-0.51-0.371-0.615-0.777-0.587c-0.258,0.023-0.531,0.095-0.724,0.157C106.131,275.13,105.788,275.294,105.348,275.382"/>
	<path clip-path="url(#SVGID_2_)" fill="#EBE8E1" d="M114.794,170.491v17.299h4.087l1.946,78.499h1.786h13.173h1.282l2.116-85.134
		c1.297-2.115,2.059-4.599,2.059-7.263v-8.808h-0.083l0.077,5.642L114.794,170.491z"/>
	<polygon clip-path="url(#SVGID_2_)" fill="#D8D7CF" points="88.343,165.083 88.343,169.846 88.395,165.083 	"/>
	<path clip-path="url(#SVGID_2_)" fill="#D8D7CF" d="M114.789,170.491H88.343v3.4c0,2.674,0.77,5.165,2.072,7.279l2.1,85.935h1.21
		h13.178h1.858l1.931-79.315h4.102v-17.299H114.789z"/>
	<path clip-path="url(#SVGID_2_)" fill="#DE9865" d="M71.199,173.839c-0.7,0.947-1.117,2.116-1.117,3.388v4.812
		c0,3.105,2.461,5.616,5.5,5.616c3.04,0,5.506-2.511,5.506-5.616v-3.433l0.705,1.879c0.309,0.867,1.261,1.318,2.123,1.014
		c0.868-0.311,1.321-1.256,1.012-2.123L84,176.902c-0.025-0.075-0.061-0.139-0.097-0.201l0.002-0.005c0,0-0.698-1.487-2.206-2.857
		h-5.832H71.199z"/>
	<path clip-path="url(#SVGID_2_)" fill="#E4AA7F" d="M156.758,173.839h-4.671h-5.833c-1.505,1.37-2.205,2.857-2.205,2.857
		l0.005,0.005c-0.031,0.062-0.07,0.126-0.093,0.201l-0.926,2.474c-0.315,0.867,0.139,1.812,1.003,2.123
		c0.87,0.304,1.818-0.147,2.126-1.014l0.708-1.879v3.433c0,3.105,2.463,5.616,5.5,5.616c3.043,0,5.509-2.511,5.509-5.616v-4.812
		C157.881,175.956,157.461,174.787,156.758,173.839"/>
	<path clip-path="url(#SVGID_2_)" fill="#DE9865" d="M151.791,54.728c2.142-6.664-2.25-8.463-3.706-8.87
		c-0.248,5.081-0.947,10.61-2.384,15.951C147.452,61.343,150.164,59.788,151.791,54.728"/>
	<path clip-path="url(#SVGID_2_)" fill="#E4AA7F" d="M144.013,30.143c1.021-6.033-17.935-4.694-29.218-0.839v-0.098l-0.036,0.098
		c-0.037-0.015-0.067-0.02-0.103-0.036v25.533h0.489h3.289c0.463-1.534,2.069-2.667,4.005-2.667h17.996
		c2.293,0,4.149,1.591,4.149,3.557c0,0-2.28,13.111-13.188,13.111c-7.969,0-11.284-6.99-12.499-10.758h-3.752h-0.489v30.283
		c2.233,0,4.314-0.201,6.27-0.545c14.336-2.525,21.491-13.742,24.775-25.973c1.437-5.341,2.136-10.869,2.384-15.95
		c0-0.088,0.005-0.175,0.007-0.262C147.43,44.339,143.065,35.718,144.013,30.143"/>
	<polygon clip-path="url(#SVGID_2_)" fill="#E4AA7F" points="114.655,88.327 114.583,88.327 114.653,88.327 	"/>
	<path clip-path="url(#SVGID_2_)" fill="#6C6864" d="M114.789,113.458h-0.031v-6.98c-0.051-0.005-15.638-3.006-15.741-10.439
		c-2.224,0.64-4.186,1.395-5.915,2.223c-3.032,1.38-6.007,3.207-8.205,5.616l-0.005-0.01c0,0-11.441,8.767-13.775,69.972h0.082
		h4.669H81.7h0.587c0,0,0.695-28.363,6.532-46.895l-0.425,38.139l-0.051,4.762l-0.008,0.646h0.008h26.446V113.458z"/>
	<path clip-path="url(#SVGID_2_)" fill="#918C85" d="M156.758,173.839h0.518c-1.418-37.284-6.226-55.11-9.758-63.347
		c-1.096-3.33-4.483-9.791-14.707-13.594c-0.785-0.361-1.544-0.665-2.27-0.925c-0.015,7.492-15.746,10.504-15.746,10.504v-0.026
		l-0.037,0.026v6.98h0.031v57.034h0.006l26.443,0.234l-0.077-5.642l-0.541-36.983c4.875,17.929,5.477,45.739,5.477,45.739h0.157
		h5.833H156.758z"/>
	<path clip-path="url(#SVGID_2_)" fill="#DE9865" d="M115.145,54.8h-0.489h-2.97c-0.463-1.534-2.07-2.667-4-2.667H89.687
		c-2.293,0-4.151,1.591-4.151,3.558c0,0,2.277,13.11,13.188,13.11c7.968,0,11.289-6.99,12.504-10.758h3.428h0.489V54.8z"/>
	<path clip-path="url(#SVGID_2_)" fill="#E4AA7F" d="M118.897,58.043c1.215,3.768,4.53,10.758,12.499,10.758
		c10.907,0,13.188-13.111,13.188-13.111c0-1.966-1.856-3.557-4.149-3.557h-17.996c-1.936,0-3.542,1.133-4.005,2.667h-3.289v3.243
		H118.897z"/>
	<path clip-path="url(#SVGID_2_)" fill="#E4AA7F" d="M115.335,93.804c-0.186,0.005-0.371,0.005-0.559,0.005l0.018,12.643v0.026
		c0,0,15.732-3.012,15.747-10.504v-0.01c0,0-2.517-1.555-9.616-2.031C119.309,93.827,117.451,93.773,115.335,93.804"/>
	<path clip-path="url(#SVGID_2_)" fill="#DE9865" d="M114.758,106.478L114.758,106.478l0.036-0.026l-0.018-12.643
		c0.188,0,0.373,0,0.559-0.005c2.115-0.031,3.973,0.023,5.59,0.129v-6.151c-1.956,0.344-4.036,0.545-6.27,0.545V58.043h-3.428
		c-1.215,3.768-4.535,10.758-12.504,10.758c-10.91,0-13.188-13.111-13.188-13.111c0-1.967,1.858-3.557,4.152-3.557h17.998
		c1.93,0,3.537,1.132,4,2.667h2.97V29.268c-11.294-3.825-30.134-5.137-29.12,0.875c1.022,6.028-4.16,15.616-4.16,15.616
		s-0.051-0.137-0.144-0.381c0.011,0.224,0.026,0.453,0.036,0.677c-1.765,0.674-5.024,2.749-3.124,8.673
		c1.559,4.837,4.1,6.471,5.853,7.012c3.631,12.223,11.129,23.457,24.667,26.026v6.167c-7.124,0.476-9.652,2.031-9.652,2.031
		c0,0.028,0.005,0.054,0.005,0.054C99.119,103.472,114.707,106.473,114.758,106.478 M114.655,88.327h-0.002h-0.07H114.655z"/>
	<path clip-path="url(#SVGID_2_)" fill="#010103" d="M85.535,30.143c-1.014-6.012,17.826-4.7,29.12-0.875
		c0.036,0.016,0.067,0.021,0.103,0.036l0.036-0.098V2.516V0l-2.962,4.682L104.777,0l-4.35,8.084L91.55,1.336
		c-1.336,2.093-3.344,11.724-3.344,11.724c-2.687-1.344-9.383-2.342-9.383-2.342l1.353,14.902l-4.705-1.487
		c0.309,6.383,4.891,18.912,5.76,21.244c0.093,0.244,0.144,0.381,0.144,0.381S86.557,36.17,85.535,30.143"/>
	<path clip-path="url(#SVGID_2_)" fill="#1A1719" d="M114.794,29.206v0.098c11.284-3.856,30.24-5.194,29.218,0.839
		c-0.947,5.575,3.418,14.197,4.079,15.453c0.06,0.1,0.085,0.162,0.085,0.162s5.565-14.565,5.905-21.623l-4.705,1.486l1.349-14.903
		c0,0-6.692,0.999-9.374,2.342c0,0-2.008-9.631-3.351-11.724l-8.875,6.749L124.775,0l-7.057,4.683L114.794,0v2.515V29.206z"/>
	<path clip-path="url(#SVGID_2_)" fill="#D8D7CF" d="M89.453,276.958l9.063-1.57c-0.518-0.087-0.935-0.319-1.27-0.592
		c-0.797-0.644-1.122-1.544-1.122-1.544v-0.006C94.255,274.008,89.453,276.958,89.453,276.958"/>
	<path clip-path="url(#SVGID_2_)" fill="#D8D7CF" d="M131.262,275.387l9.06,1.57c0,0-4.808-2.949-6.677-3.712
		C133.645,273.246,133.021,275.083,131.262,275.387"/>
	<path clip-path="url(#SVGID_2_)" fill="#010103" d="M207.407,174.676c0,0-9.328-2.926-18.027,5.375c0,0,0.51,8.164,4.648,14.343
		l6.938-2.81l-5.176,5.165l1.624,1.406c0,0,13.348-4.548,13.44-16.028C210.855,182.127,206.869,179.904,207.407,174.676"/>
	<path clip-path="url(#SVGID_2_)" fill="#0D2E14" d="M210.396,172.033c0,0-3.061,1.29-3.449,3.258
		c-0.389,1.977,0.211,9.014,4.543,9.318c0,0,1.374,0.535,2.417-1.604C213.906,183.005,209.854,176.022,210.396,172.033"/>
	<path clip-path="url(#SVGID_2_)" fill="#1D1A1B" d="M273.385,174.597c0.537,5.225-3.449,7.451-3.449,7.451
		c0.093,11.477,13.445,16.03,13.445,16.03l1.622-1.408l-5.179-5.166l6.938,2.814c4.143-6.183,4.654-14.347,4.654-14.347
		C282.709,171.667,273.385,174.597,273.385,174.597"/>
	<path clip-path="url(#SVGID_2_)" fill="#164C22" d="M270.394,170.839c0.538,3.987-3.511,10.975-3.511,10.975
		c1.04,2.133,2.414,1.601,2.414,1.601c4.329-0.304,4.932-7.348,4.543-9.315C273.451,172.121,270.394,170.839,270.394,170.839"/>
	<path clip-path="url(#SVGID_2_)" fill="#CB9767" d="M205.113,170.515c2.433,7.554,7.413,6.913,7.413,6.913l-3.441-15.451
		C209.085,161.977,202.684,162.963,205.113,170.515"/>
	<path clip-path="url(#SVGID_2_)" fill="#CB9767" d="M270.911,161.977l-3.438,15.451c0,0,4.979,0.641,7.409-6.913
		C277.314,162.963,270.911,161.977,270.911,161.977"/>
	<rect x="234.224" y="196.656" clip-path="url(#SVGID_2_)" fill="#CB9767" width="11.694" height="11.678"/>
	<path clip-path="url(#SVGID_2_)" fill="#D3AB80" d="M239.938,126.111c-17.667,0-31.985,14.29-31.985,31.92
		c0,17.637,3.434,44.469,31.985,44.469c31.517,0,31.984-26.832,31.984-44.469C271.922,140.401,257.606,126.111,239.938,126.111"/>
	<path clip-path="url(#SVGID_2_)" fill="#CB9767" d="M207.958,158.031c0,17.636,3.428,44.468,31.987,44.468v-76.388
		C222.278,126.111,207.958,140.401,207.958,158.031"/>
	<path clip-path="url(#SVGID_2_)" fill="#010103" d="M206.846,138.542c-7.273,10.563,0.206,30.566,0.206,30.566
		c15.294-3.304,32.894-33.004,32.894-33.004v-9.994C221.578,125.52,206.846,138.542,206.846,138.542"/>
	<path clip-path="url(#SVGID_2_)" fill="#1D1A1B" d="M239.771,126.111v9.994c0,0,17.934,29.859,33.223,33.159
		c0,0,7.299-20.158,0.021-30.721C273.014,138.543,258.137,125.519,239.771,126.111"/>
	<path clip-path="url(#SVGID_2_)" fill="#010103" d="M210.438,136.288c0.041,0.106-0.062,0.162-0.062,0.162
		c13.083-8.221,29.394-4.676,29.394-4.676v-8.133C237.351,118.03,208.02,130.68,210.438,136.288"/>
	<path clip-path="url(#SVGID_2_)" fill="#1D1A1B" d="M239.729,123.035v8.131c0,0,16.313-3.542,29.394,4.679
		c0,0-0.016-0.057-0.057-0.165C268.471,134.098,263.071,121.689,239.729,123.035"/>
	<rect x="245.275" y="315.483" clip-path="url(#SVGID_2_)" fill="#EDC49B" width="13.483" height="76.463"/>
	<path clip-path="url(#SVGID_2_)" fill="#EDC49B" d="M244.375,393.5c0,3.213,0,5.817,5.814,5.817h18.933
		c3.212,0,5.812-1.817,5.812-5.024c0.026-1.647-1.094-4.195-5.745-5.596l-19.479-4.115
		C246.501,384.583,244.375,390.289,244.375,393.5"/>
	<rect x="221.357" y="315.483" clip-path="url(#SVGID_2_)" fill="#E6AF7E" width="13.479" height="76.463"/>
	<path clip-path="url(#SVGID_2_)" fill="#E6AF7E" d="M235.739,393.5c0,3.213,0,5.817-5.819,5.817h-18.925
		c-3.213,0-5.817-1.817-5.817-5.024c-0.021-1.647,1.097-4.195,5.75-5.596l19.477-4.115
		C233.618,384.583,235.739,390.289,235.739,393.5"/>
	<path clip-path="url(#SVGID_2_)" fill="#EDC49B" d="M207.093,226.346h33.244v-18.099h-8.425
		C231.912,208.247,207.093,211.49,207.093,226.346"/>
	<path clip-path="url(#SVGID_2_)" fill="#E6AF7E" d="M218.05,228.822l-6.422-12.21c0,0-18.027,15.355-16.251,74.893h8.153
		C203.53,291.505,204.408,243.031,218.05,228.822"/>
	<path clip-path="url(#SVGID_2_)" fill="#E6AF7E" d="M204.728,297.873c0,3.099-2.463,5.613-5.498,5.613
		c-3.037,0-5.495-2.515-5.495-5.613v-4.811c0-3.094,2.458-5.608,5.495-5.608c3.035,0,5.498,2.515,5.498,5.608V297.873z"/>
	<path clip-path="url(#SVGID_2_)" fill="#E6AF7E" d="M208.56,295.211c0.31,0.865-0.142,1.813-1.006,2.115
		c-0.865,0.31-1.813-0.139-2.121-1.006l-0.927-2.466c-0.309-0.862,0.145-1.813,1.007-2.118c0.864-0.314,1.816,0.139,2.121,1.004
		L208.56,295.211z"/>
	<path clip-path="url(#SVGID_2_)" fill="#E6AF7E" d="M207.543,292.538c0,0-2.396-5.182-8.024-5.063v6.296h5.045L207.543,292.538z"/>
	<path clip-path="url(#SVGID_2_)" fill="#1D1A1D" d="M229.135,208.744c0,0-12.284,2.767-17.507,7.868c0,0,6.361,3.887,4.059,46.712
		h-0.085l-10.874,60.879h35.609v-60.879v-36.978v-20.894L229.135,208.744z"/>
	<path clip-path="url(#SVGID_2_)" fill="#D7D3CC" d="M229.135,208.744c0.927,5.284,9.132,7.868,9.132,7.868l1.921-11.16
		l-10.144-1.117L229.135,208.744z"/>
	<path clip-path="url(#SVGID_2_)" fill="#EDC49B" d="M273.055,226.346h-33.248v-18.099h8.427
		C248.233,208.247,273.055,211.49,273.055,226.346"/>
	<path clip-path="url(#SVGID_2_)" fill="#EDC49B" d="M262.091,228.822l6.424-12.21c0,0,18.032,15.355,16.254,74.893h-8.157
		C276.611,291.505,275.734,243.031,262.091,228.822"/>
	<path clip-path="url(#SVGID_2_)" fill="#EDC49B" d="M275.418,297.873c0,3.099,2.46,5.613,5.495,5.613
		c3.034,0,5.497-2.515,5.497-5.613v-4.811c0-3.094-2.463-5.608-5.497-5.608c-3.035,0-5.495,2.515-5.495,5.608V297.873z"/>
	<path clip-path="url(#SVGID_2_)" fill="#EDC49B" d="M271.58,295.211c-0.304,0.865,0.146,1.813,1.009,2.115
		c0.867,0.31,1.814-0.139,2.123-1.006l0.925-2.466c0.309-0.862-0.145-1.813-1.007-2.118c-0.861-0.314-1.814,0.139-2.121,1.004
		L271.58,295.211z"/>
	<path clip-path="url(#SVGID_2_)" fill="#EDC49B" d="M272.602,292.538c0,0,2.396-5.182,8.023-5.063v6.296h-5.044L272.602,292.538z"
		/>
	<path clip-path="url(#SVGID_2_)" fill="#3E393C" d="M251.01,208.744c0,0,12.282,2.767,17.505,7.868c0,0-6.358,3.887-4.057,46.712
		h0.083l10.877,60.879h-35.611v-60.879v-36.978v-20.894L251.01,208.744z"/>
	<path clip-path="url(#SVGID_2_)" fill="#D7D3CC" d="M251.01,208.744c-0.932,5.284-9.134,7.868-9.134,7.868l-1.918-11.16
		l10.144-1.117L251.01,208.744z"/>
	<path clip-path="url(#SVGID_2_)" fill="#2B272A" d="M209.543,389.187c0,0,3.969,1.555,4.272,8.586h6.644
		c0,0-0.281-6.795-4.875-10.059C215.584,387.714,211.271,388.292,209.543,389.187"/>
	<path clip-path="url(#SVGID_2_)" fill="#2B272A" d="M218.758,394.021c0,0,13.533-0.736,16.078-4.911c0,0,0.816,1.21,0.768,2.836
		c0,0-3.185,3.547-16.846,4.154V394.021z"/>
	<path clip-path="url(#SVGID_2_)" fill="#131113" d="M236.062,399.57c0,0.71-0.576,1.282-1.29,1.282h-28.631
		c-0.708,0-1.284-0.572-1.284-1.282v-0.51c0-0.71,0.576-1.287,1.284-1.287h28.631c0.714,0,1.29,0.577,1.29,1.287V399.57z"/>
	<path clip-path="url(#SVGID_2_)" fill="#2B272A" d="M270.571,389.187c0,0-3.969,1.555-4.275,8.586h-6.643
		c0,0,0.285-6.795,4.877-10.059C264.53,387.714,268.843,388.292,270.571,389.187"/>
	<path clip-path="url(#SVGID_2_)" fill="#2B272A" d="M261.359,394.021c0,0-13.536-0.736-16.084-4.911c0,0-0.815,1.21-0.764,2.836
		c0,0,3.181,3.547,16.848,4.154V394.021z"/>
	<path clip-path="url(#SVGID_2_)" fill="#131113" d="M244.056,399.57c0,0.71,0.574,1.282,1.284,1.282h28.632
		c0.71,0,1.286-0.572,1.286-1.282v-0.51c0-0.71-0.576-1.287-1.286-1.287H245.34c-0.71,0-1.284,0.577-1.284,1.287V399.57z"/>
	<path clip-path="url(#SVGID_2_)" fill="#2B272A" d="M204.251,285.565c0.058,0.496-0.27,0.941-0.726,0.993l-7.814,0.891
		c-0.452,0.057-0.872-0.304-0.926-0.803c-0.056-0.5,0.265-0.945,0.721-0.994l7.816-0.893
		C203.778,284.711,204.192,285.065,204.251,285.565"/>
	<polygon clip-path="url(#SVGID_2_)" fill="#A2804F" points="204.257,284.247 204.257,284.247 194.778,284.247 194.778,280.458 
		204.257,280.458 	"/>
	<path clip-path="url(#SVGID_2_)" fill="#699889" d="M247.592,206.271c2.126,0.18,4.839,0.627,7.769,1.461
		c1.892,0.51,4.599,1.414,7.456,2.904c1.313,0.669,2.607,1.433,3.86,2.299c0.991,0.684,1.838,1.433,2.584,2.205
		c2.337,2.177,4.381,4.921,5.688,8.36l2.229,4.697l-11.061,5.385l0.08,4.599l2.466,43.531h-28.59v-57.209v-0.931v-9.871
		C245.507,213.701,247.592,206.271,247.592,206.271"/>
	<path clip-path="url(#SVGID_2_)" fill="#647C75" d="M233.083,206.271c-2.128,0.18-4.844,0.627-7.768,1.461
		c-1.892,0.51-4.602,1.414-7.454,2.904c-1.317,0.669-2.612,1.433-3.863,2.299c-0.993,0.684-1.84,1.433-2.586,2.205
		c-2.335,2.177-4.381,4.921-5.686,8.36l-2.231,4.697l11.062,5.385l-0.085,4.599l-2.458,43.531h28.591v-57.209v-0.931v-9.871
		C235.168,213.701,233.083,206.271,233.083,206.271"/>
	<path clip-path="url(#SVGID_2_)" fill="#1D1A1B" d="M234.638,206.195l-2.535,0.126c0,8.535,8.502,8.257,8.502,8.257v-2.435
		C235.409,212.144,234.638,206.195,234.638,206.195"/>
	<path clip-path="url(#SVGID_2_)" fill="#1D1A1B" d="M246.449,206.195l2.532,0.126c0,8.535-8.501,8.257-8.501,8.257v-2.435
		C245.677,212.144,246.449,206.195,246.449,206.195"/>
	<path clip-path="url(#SVGID_2_)" fill="#E7B17E" d="M30.35,371.412l-9.206,4.798l0.01-0.005c-4.075,4.025,3.034,4.272,9.739,2.337
		c4.674-1.354,9.138-3.753,11.418-5.086c0.994-0.582,1.58-0.963,1.58-0.963v-50.185H30.35V371.412z"/>
	<path clip-path="url(#SVGID_2_)" fill="#E7B17E" d="M20.946,388.085l1.402-0.396c-0.995,0.229-2.035,0.459-3.124,0.68
		C19.787,388.342,20.364,388.245,20.946,388.085"/>
	<path clip-path="url(#SVGID_2_)" fill="#E7B17E" d="M18.014,377.836c-0.062,0.044-0.126,0.082-0.19,0.123
		c0.267-0.146,0.522-0.288,0.766-0.427L18.014,377.836z"/>
	<path clip-path="url(#SVGID_2_)" fill="#E7B17E" d="M43.719,379.79c-0.036,0.126-0.077,0.266-0.124,0.435
		c0.132-0.288,0.214-0.592,0.255-0.896v0.006C43.82,379.489,43.77,379.644,43.719,379.79"/>
	<polygon clip-path="url(#SVGID_2_)" fill="#E7B17E" points="37.112,383.579 37.133,383.574 37.122,383.574 	"/>
	<polygon clip-path="url(#SVGID_2_)" fill="#0C0C0E" points="43.85,379.329 43.85,379.327 43.85,379.334 	"/>
	<path clip-path="url(#SVGID_2_)" fill="#0C0C0E" d="M38.35,383.262c0.806,1.981,0.734,4.38,0.734,4.38h3.189
		c-0.297-1.287,0.805-5.554,1.323-7.418c0.046-0.169,0.087-0.309,0.123-0.435C42.952,381.893,40.226,382.768,38.35,383.262"/>
	<path clip-path="url(#SVGID_2_)" fill="#1A3A73" d="M30.894,378.542c-6.705,1.937-13.814,1.688-9.739-2.337l-0.011,0.005
		c-0.021,0.005-1.117,0.538-2.553,1.323c-0.245,0.139-0.5,0.28-0.767,0.427c-1.923,1.092-4.18,2.519-5.338,3.763
		c-2.242,2.42-3.436,8.736,6.738,6.646c1.089-0.222,2.129-0.451,3.125-0.68c8.282-1.866,13.275-3.696,14.763-4.11h0.005
		c0,0,0.01-0.005,0.016-0.005c0.317-0.086,0.741-0.186,1.217-0.312c1.877-0.493,4.602-1.368,5.369-3.473
		c0.051-0.146,0.101-0.301,0.132-0.455v-0.008c0.625-3.024,0.041-6.834,0.041-6.834s-0.587,0.381-1.581,0.963
		C40.031,374.789,35.567,377.188,30.894,378.542"/>
	<path clip-path="url(#SVGID_2_)" fill="#EDC49B" d="M59.262,372.653c0.013,0.005,0.584,0.375,1.544,0.941
		c2.275,1.329,6.759,3.746,11.443,5.097c6.682,1.925,13.765,1.693,9.781-2.296l-9.235-4.78v-49.307H59.262V372.653z"/>
	<path clip-path="url(#SVGID_2_)" fill="#EDC49B" d="M59.324,379.594c0.044,0.285,0.119,0.561,0.237,0.831
		c-0.049-0.188-0.092-0.348-0.134-0.479C59.386,379.829,59.354,379.709,59.324,379.594"/>
	<path clip-path="url(#SVGID_2_)" fill="#EDC49B" d="M84.934,377.895l-0.021-0.008c0.011,0.008,0.021,0.011,0.026,0.014
		L84.934,377.895z"/>
	<path clip-path="url(#SVGID_2_)" fill="#0C0C0E" d="M59.427,379.947c0.042,0.131,0.085,0.291,0.134,0.479
		c0.523,1.89,1.606,6.095,1.315,7.366h3.189c0,0-0.072-2.398,0.731-4.375C62.917,382.927,60.194,382.049,59.427,379.947"/>
	<path clip-path="url(#SVGID_2_)" fill="#1A3A73" d="M72.25,378.691c-4.684-1.352-9.168-3.769-11.443-5.097
		c-0.96-0.566-1.532-0.937-1.544-0.941l-0.008-0.006c0,0-0.587,3.805,0.038,6.834c0.008,0.036,0.021,0.074,0.031,0.113
		c0.031,0.116,0.062,0.234,0.103,0.353c0.767,2.103,3.49,2.98,5.369,3.47c0.479,0.123,0.906,0.227,1.23,0.313
		c1.661,0.458,7.722,2.705,17.899,4.793c10.174,2.085,8.975-4.222,6.733-6.648c-1.23-1.328-3.719-2.857-5.719-3.974
		c-0.005-0.003-0.015-0.006-0.025-0.014c-1.624-0.905-2.919-1.531-2.919-1.531c0.015,0.016,0.02,0.025,0.036,0.039
		C86.015,380.384,78.932,380.616,72.25,378.691"/>
	<path clip-path="url(#SVGID_2_)" fill="#010103" d="M84.743,171.619c0.414,0.504,0.674,1.143,0.674,1.835
		c0,1.622-1.31,2.929-2.924,2.929c-0.967,0-1.822-0.476-2.357-1.204c-3.969,11.144-11.331,21.275-22.552,23.972v6.689h2.594
		c0,0,0.023,0,0.054,0.006c-0.018-0.006-0.031-0.006-0.031-0.006c0.042,0.006,0.075,0.016,0.119,0.018
		c0.27,0.036,0.934,0.147,1.894,0.33c9.14,1.706,14.635,4.689,17.994,7.752c0.093,0.077,0.178,0.155,0.262,0.235
		c0.103,0.09,0.193,0.18,0.286,0.27c0.312,0.306,0.597,0.612,0.873,0.916c0.179,0.206,0.357,0.412,0.53,0.618
		c0.278,0.345,0.543,0.679,0.782,1.024c0.87,1.231,1.465,2.414,1.879,3.449c0.52-0.437,0.952-0.921,1.269-1.472
		c2.844-4.893-1.418-11.943-4.185-17.816c-2.759-5.874-1.3-11.163,3.984-22.372c2.574-5.472,2.077-9.116,0.896-11.415
		c-0.028,0.085-0.046,0.16-0.072,0.244C86.156,169.341,85.474,170.639,84.743,171.619"/>
	<path clip-path="url(#SVGID_2_)" fill="#010103" d="M42.221,206.054c0.842-0.149,1.336-0.214,1.336-0.214h2.268v-6.606
		c-0.196-0.039-0.374-0.098-0.567-0.145c-0.275-0.064-0.553-0.134-0.816-0.205c-10.475-2.889-17.28-12.015-21.105-22.274
		c-0.535,0.555-1.282,0.913-2.116,0.913c-1.614,0-2.921-1.31-2.921-2.927c0-0.844,0.363-1.595,0.929-2.128
		c-0.983-1.039-1.943-2.571-2.674-4.847c-0.078-0.239-0.144-0.468-0.206-0.694c-1.351,2.265-2.108,6.02,0.643,11.865
		c5.279,11.209,6.747,16.498,3.977,22.372c-2.754,5.873-7.021,12.923-4.183,17.816c0.343,0.589,0.816,1.117,1.377,1.608
		C20.333,216.2,25.406,208.872,42.221,206.054"/>
	<path clip-path="url(#SVGID_2_)" fill="#DE9865" d="M19.229,172.468c0.522-0.491,1.22-0.795,1.992-0.795
		c0.18,0,0.361,0.025,0.53,0.054c-0.746-2.7-1.31-5.418-1.693-8.074l-0.719,0.376c0,0-1.744,0.823-2.99,2.898
		c0.062,0.226,0.128,0.455,0.206,0.694C17.286,169.897,18.246,171.428,19.229,172.468"/>
	<path clip-path="url(#SVGID_2_)" fill="#DE9865" d="M82.494,170.535c0.908,0,1.714,0.424,2.25,1.083
		c0.73-0.98,1.412-2.277,1.968-3.997c0.026-0.085,0.044-0.159,0.073-0.244c-1.246-2.407-3.238-3.349-3.238-3.349l-0.52-0.273
		c-0.364,2.288-0.858,4.623-1.496,6.955C81.832,170.604,82.157,170.535,82.494,170.535"/>
	<path clip-path="url(#SVGID_2_)" fill="#CCC3B6" d="M21.221,177.523c0.834,0,1.581-0.358,2.116-0.914
		c-0.6-1.606-1.125-3.237-1.586-4.882c-0.169-0.029-0.35-0.055-0.53-0.055c-0.772,0-1.47,0.305-1.992,0.796
		c-0.566,0.533-0.929,1.284-0.929,2.128"/>
	<path clip-path="url(#SVGID_2_)" fill="#DDD9CF" d="M82.494,176.383c1.614,0,2.924-1.308,2.924-2.929
		c0-0.693-0.26-1.331-0.674-1.835c-0.536-0.659-1.342-1.084-2.25-1.084c-0.337,0-0.662,0.07-0.963,0.175
		c-0.406,1.498-0.867,2.991-1.395,4.468C80.672,175.907,81.526,176.383,82.494,176.383"/>
	<path clip-path="url(#SVGID_2_)" fill="#E4AA7F" d="M51.569,199.846L51.569,199.846c-0.553,0-1.104-0.021-1.642-0.051
		C50.465,199.825,51.013,199.846,51.569,199.846"/>
	<path clip-path="url(#SVGID_2_)" fill="#E4AA7F" d="M23.337,176.609c3.825,10.259,10.63,19.386,21.105,22.274
		c-14.629-4.118-22.207-20.702-24.364-35.246l-0.021,0.015c0.383,2.656,0.947,5.374,1.693,8.074
		C22.212,173.372,22.737,175.003,23.337,176.609"/>
	<path clip-path="url(#SVGID_2_)" fill="#E4AA7F" d="M49.335,199.748c-0.337-0.031-0.672-0.06-1.004-0.098
		C48.663,199.691,48.998,199.717,49.335,199.748"/>
	<path clip-path="url(#SVGID_2_)" fill="#E4AA7F" d="M47.675,199.563c-0.33-0.046-0.659-0.108-0.983-0.162
		C47.016,199.455,47.345,199.517,47.675,199.563"/>
	<path clip-path="url(#SVGID_2_)" fill="#E4AA7F" d="M45.258,199.089c0.193,0.046,0.371,0.105,0.566,0.145
		c0.124,0.03,0.252,0.051,0.373,0.077C45.883,199.244,45.572,199.166,45.258,199.089"/>
	<path clip-path="url(#SVGID_2_)" fill="#E4AA7F" d="M57.584,199.151c11.222-2.697,18.583-12.828,22.552-23.973
		c0.528-1.477,0.989-2.97,1.395-4.468c0.638-2.332,1.132-4.666,1.495-6.955l-5.871-3.124c0,0-8.936-3.912-7.515-15.665
		c1.346-11.121-16.177-5.932-18.063-5.34v60.22C53.69,199.846,55.692,199.601,57.584,199.151"/>
	<path clip-path="url(#SVGID_2_)" fill="#DE9865" d="M44.442,198.883c0.263,0.072,0.54,0.142,0.816,0.206
		c0.314,0.077,0.625,0.155,0.939,0.222c-0.121-0.026-0.249-0.047-0.373-0.078v6.607h-2.267c0,0-18.295,4.751,8.149,5.351v-5.351
		h0.162h0.164h5.552v-6.689c-1.892,0.45-3.894,0.695-6.007,0.695v-60.22c-0.039,0.013-0.072,0.018-0.098,0.028v0.023
		c0,0-0.023-0.007-0.036-0.007c-0.021,0-0.042,0.007-0.042,0.007v-0.023c-1.286-0.411-19.532-6.025-18.16,5.312
		c1.415,11.753-7.516,15.665-7.516,15.665l-5.647,3.006C22.235,178.182,29.812,194.765,44.442,198.883 M50.905,203.238v-0.159
		l0.265,0.079l0.265-0.079v0.159l-0.265-0.08L50.905,203.238z M51.569,199.846L51.569,199.846c-0.556,0-1.104-0.021-1.642-0.051
		C50.465,199.825,51.016,199.846,51.569,199.846 M46.691,199.4c0.325,0.055,0.654,0.116,0.984,0.163
		C47.345,199.516,47.016,199.455,46.691,199.4 M48.331,199.65c0.332,0.039,0.667,0.067,1.004,0.098
		C48.998,199.717,48.663,199.692,48.331,199.65"/>
	<path clip-path="url(#SVGID_2_)" fill="#1A1719" d="M26.693,261.183c0.105-2.016,0.195-3.936,0.265-5.778h0.188
		c0.353-8.772,0.546-15.44,0.63-20.514h-3.309c-2.17,4.257-3.884,9.492-5.238,15.052l7.096,12.817l0.281-1.577H26.693z"/>
	<path clip-path="url(#SVGID_2_)" fill="#1A1719" d="M93.399,190.395C80,183.739,113.501,168.856,99.29,154.76
		c-14.215-14.104-13.546-13.919-12.997-18.997c0.653-6.059-4.293-8.035-10.654-8.242c-8.851-0.282-20.426,2.868-23.447,3.238
		c-0.083,0.006-0.16,0.018-0.232,0.021c-2.623-0.211-14.897-3.531-24.276-3.259c-6.595,0.191-11.755,2.16-11.096,8.242
		c0.548,5.078,1.215,4.893-12.998,18.997c-14.215,14.097,19.291,28.979,5.889,35.635c-13.402,6.656-4.669,33.48-4.669,33.48
		l6.985,12.627c0.168-0.55,0.338-1.088,0.51-1.61h-0.7l5.364-11.747c0.311-0.613,0.669-1.504,1.194-2.557
		c-0.561-0.491-1.035-1.019-1.377-1.608c-2.839-4.893,1.429-11.942,4.183-17.816c2.769-5.873,1.302-11.163-3.977-22.372
		c-2.751-5.845-1.994-9.6-0.643-11.865c1.246-2.074,2.99-2.898,2.99-2.898l0.719-0.376l0.02-0.015l5.647-3.007
		c0,0,8.931-3.912,7.516-15.664c-1.372-11.338,16.874-5.724,18.16-5.312v0.023c0,0,0.021-0.008,0.042-0.008
		c0.013,0,0.036,0.008,0.036,0.008v-0.023c0.026-0.01,0.059-0.016,0.098-0.029c1.886-0.591,19.409-5.78,18.063,5.341
		c-1.421,11.752,7.515,15.664,7.515,15.664l5.871,3.125l0.52,0.273c0,0,1.993,0.942,3.238,3.348
		c1.181,2.299,1.678,5.943-0.896,11.415c-5.283,11.209-6.743,16.499-3.984,22.372c2.767,5.874,7.029,12.923,4.185,17.816
		c-0.316,0.551-0.749,1.035-1.269,1.472c0.719,1.776,0.919,3.135,1.159,3.619l3.798,10.55l-0.362,0.005
		c0.342,1.027,0.682,2.105,1.011,3.235l7.642-13.986C98.068,223.875,106.801,197.051,93.399,190.395"/>
	<path clip-path="url(#SVGID_2_)" fill="#1A1719" d="M75.467,234.721c-0.26,5.384-0.301,12.153,0.021,20.684h-0.104
		c0.073,1.843,0.161,3.763,0.269,5.778h0.085l0.478,2.684l6.738-12.334c-1.423-6.229-3.281-12.138-5.703-16.819L75.467,234.721z"/>
	<polygon clip-path="url(#SVGID_2_)" fill="#520005" points="51.435,203.079 51.17,203.159 51.435,203.238 	"/>
	<polygon clip-path="url(#SVGID_2_)" fill="#8D0413" points="50.905,203.238 51.17,203.158 50.905,203.079 	"/>
	<path clip-path="url(#SVGID_2_)" fill="#D7D3CC" d="M27.776,234.891c-0.085,5.073-0.278,11.741-0.63,20.514h24.976v-20.514H27.776z
		"/>
	<path clip-path="url(#SVGID_2_)" fill="#1A3A73" d="M52.123,255.405H27.146h-0.188c-0.069,1.843-0.159,3.763-0.265,5.778h-0.087
		l-0.281,1.576l-10.638,59.549h14.664h13.541h8.231v-61.125V255.405z"/>
	<path clip-path="url(#SVGID_2_)" fill="#DE9865" d="M43.557,205.84c0,0-0.494,0.064-1.336,0.214
		C42.661,205.982,43.104,205.904,43.557,205.84"/>
	<path clip-path="url(#SVGID_2_)" fill="#DE9865" d="M12.305,234.891c-0.172,0.522-0.342,1.06-0.51,1.611
		c-3.593,11.595-6.534,29.136-5.765,54.969c-1.012,1.021-1.647,2.442-1.647,4.01v4.829c0,3.111,2.476,5.634,5.518,5.634
		c3.045,0,5.521-2.522,5.521-5.634v-3.446l0.705,1.889c0.309,0.868,1.259,1.318,2.129,1.015c0.867-0.312,1.32-1.264,1.014-2.134
		l-0.932-2.477c-0.026-0.074-0.062-0.136-0.098-0.202l0.011-0.006c0,0-1.244-2.661-4.015-4.123
		c0.102-3.81,0.849-23.844,4.993-40.883c1.353-5.56,3.068-10.795,5.238-15.052H12.305z"/>
	<path clip-path="url(#SVGID_2_)" fill="#E4AA7F" d="M77.25,234.713c2.422,4.682,4.28,10.591,5.704,16.82
		c3.287,14.388,4.265,30.442,4.543,36.949c0.684,0.206,1.148,0.87,1.083,1.606c0.08-0.839,0.826-1.449,1.66-1.369
		c0.667,0.062,1.181,0.54,1.331,1.143v0.01c0.046,0.162,0.064,0.335,0.052,0.51v-0.01c0.017-0.181,0.074-0.355,0.151-0.515
		c0.27-0.557,0.862-0.911,1.514-0.853c0.818,0.08,1.415,0.788,1.372,1.599c0,0.021,0.002,0.041,0,0.072
		c0.002-0.026,0.01-0.047,0.015-0.067c0.085-0.633,0.553-1.127,1.156-1.271c0.527-23.689-2.103-40.216-5.405-51.477
		c-0.33-1.129-0.67-2.208-1.012-3.234L77.25,234.713z"/>
	<path clip-path="url(#SVGID_2_)" fill="#E4AA7F" d="M94.66,290.676c-0.08,0.834-0.827,1.451-1.666,1.372
		c-0.787-0.075-1.369-0.736-1.371-1.511c0-0.052-0.008-0.104,0-0.155c-0.083,0.839-0.826,1.454-1.666,1.375
		c-0.746-0.069-1.312-0.67-1.377-1.391c-0.007-0.087-0.012-0.18,0-0.277c-0.012,0.107-0.033,0.206-0.059,0.309
		c-0.208,0.674-0.87,1.143-1.608,1.073c-0.106-0.013-0.207-0.033-0.299-0.062c-2.105,1.495-3.05,3.539-3.05,3.539l0.003,0.005
		c-0.036,0.067-0.07,0.129-0.095,0.203l-0.93,2.477c-0.314,0.87,0.144,1.822,1.009,2.134c0.87,0.304,1.825-0.147,2.131-1.015
		l0.708-1.89v3.447c0,3.111,2.471,5.634,5.521,5.634c3.045,0,5.518-2.522,5.518-5.634v-4.829c0-1.179-0.358-2.267-0.96-3.171
		c-0.142,0.028-0.288,0.039-0.437,0.028C95.198,292.259,94.58,291.51,94.66,290.676"/>
	<path clip-path="url(#SVGID_2_)" fill="#E9E7E5" d="M52.123,255.405h23.262h0.103c-0.322-8.53-0.281-15.299-0.021-20.684
		l-23.344,0.17V255.405z"/>
	<path clip-path="url(#SVGID_2_)" fill="#315FA4" d="M75.652,261.183c-0.108-2.016-0.196-3.936-0.268-5.778H52.122v5.778v61.125
		h7.14h13.533h13.863l-10.443-58.441l-0.478-2.684H75.652z"/>
	<path clip-path="url(#SVGID_2_)" fill="#E4AA7F" d="M81.629,215.361c0.185,0.208,0.357,0.412,0.53,0.618
		C81.986,215.773,81.809,215.567,81.629,215.361"/>
	<path clip-path="url(#SVGID_2_)" fill="#E4AA7F" d="M60.32,205.858c0.651,0.103,1.282,0.216,1.895,0.33
		C61.255,206.005,60.59,205.894,60.32,205.858"/>
	<path clip-path="url(#SVGID_2_)" fill="#E4AA7F" d="M60.232,205.845c-0.031-0.005-0.054-0.005-0.054-0.005h-2.594h-5.552h-0.165
		h-0.162v5.351h0.173C78.004,210.619,60.981,206.046,60.232,205.845"/>
	<path clip-path="url(#SVGID_2_)" fill="#315FA4" d="M82.159,215.979c-0.172-0.206-0.345-0.409-0.53-0.618
		c-0.275-0.303-0.561-0.61-0.872-0.916c-0.093-0.09-0.183-0.18-0.286-0.27c-0.085-0.08-0.17-0.157-0.263-0.235
		c-3.359-3.063-8.854-6.045-17.993-7.752c-0.613-0.113-1.243-0.227-1.895-0.33c-0.043-0.002-0.077-0.012-0.118-0.018
		c0,0,0.013,0,0.031,0.006c0.749,0.2,17.772,4.774-8.354,5.345c0.082,0,0.162,0.006,0.245,0.006v5.629v7.235v0.01v10.821
		l23.344-0.17l1.784-0.008l12.164-0.088l0.363-0.005l-3.799-10.55c-0.24-0.484-0.44-1.843-1.158-3.619
		c-0.415-1.035-1.009-2.218-1.879-3.449C82.702,216.658,82.437,216.324,82.159,215.979"/>
	<path clip-path="url(#SVGID_2_)" fill="#DDD9CF" d="M88.521,290.398c0.026-0.103,0.046-0.201,0.059-0.309
		c0.065-0.736-0.399-1.4-1.083-1.606c-0.093-0.021-0.193-0.046-0.294-0.057c-0.839-0.077-1.585,0.541-1.665,1.38
		c-0.075,0.733,0.394,1.395,1.076,1.604c0.092,0.028,0.193,0.049,0.299,0.062C87.651,291.541,88.313,291.073,88.521,290.398"/>
	<path clip-path="url(#SVGID_2_)" fill="#DDD9CF" d="M89.958,291.757c0.839,0.079,1.583-0.536,1.666-1.375
		c0.012-0.175-0.006-0.348-0.052-0.51v-0.01c-0.15-0.603-0.664-1.081-1.331-1.143c-0.834-0.08-1.58,0.53-1.66,1.369
		c-0.013,0.098-0.008,0.19,0,0.277C88.646,291.087,89.21,291.688,89.958,291.757"/>
	<path clip-path="url(#SVGID_2_)" fill="#DDD9CF" d="M92.995,292.048c0.839,0.079,1.585-0.538,1.666-1.372
		c0.002-0.031,0-0.052,0-0.072c0.043-0.811-0.554-1.519-1.373-1.599c-0.651-0.059-1.243,0.296-1.513,0.853
		c-0.077,0.159-0.134,0.334-0.152,0.515v0.01c-0.007,0.052,0,0.104,0,0.155C91.625,291.312,92.207,291.973,92.995,292.048"/>
	<path clip-path="url(#SVGID_2_)" fill="#DDD9CF" d="M94.675,290.609c-0.005,0.021-0.013,0.041-0.015,0.067
		c-0.08,0.834,0.537,1.583,1.371,1.661c0.15,0.012,0.296,0,0.438-0.027c0.648-0.126,1.168-0.656,1.238-1.351
		c0.075-0.84-0.543-1.583-1.382-1.663c-0.17-0.016-0.335,0.005-0.494,0.041C95.229,289.482,94.76,289.976,94.675,290.609"/>
	<path clip-path="url(#SVGID_2_)" fill="#1A3A73" d="M27.776,234.891h24.346V224.07v-0.01v-7.235v-5.629
		c-0.082,0-0.162-0.005-0.244-0.005h-0.173c-26.443-0.6-8.149-5.351-8.149-5.351c-0.453,0.064-0.896,0.141-1.336,0.214
		c-16.815,2.818-21.887,10.146-24.057,14.534c-0.525,1.053-0.883,1.943-1.194,2.556l-5.364,11.747h0.7h12.161H27.776z"/>
	<path clip-path="url(#SVGID_2_)" fill="#E4AA7F" d="M107.051,336.333c-0.571,0.891-0.911,1.963-0.911,3.108v4.886
		c0,3.15,2.502,5.703,5.582,5.703c3.086,0,5.588-2.553,5.588-5.703v-3.485l0.716,1.91c0.309,0.88,1.279,1.333,2.154,1.019
		c0.875-0.309,1.331-1.273,1.022-2.151l-0.942-2.507c-0.026-0.072-0.062-0.139-0.093-0.203v-0.003c0,0-0.597-1.287-1.894-2.573
		h-6.257H107.051z"/>
	<path clip-path="url(#SVGID_2_)" fill="#E9BD9A" d="M194.301,336.493h-5.058h-6.161c0,0-0.006-0.096-0.011-0.247
		c-1.358,1.313-1.987,2.661-1.987,2.661l0.011,0.003c-0.036,0.064-0.072,0.131-0.098,0.203l-0.942,2.507
		c-0.309,0.878,0.149,1.843,1.024,2.152c0.88,0.313,1.843-0.14,2.152-1.02l0.715-1.91v3.485c0,3.15,2.502,5.703,5.586,5.703
		c3.083,0,5.585-2.553,5.585-5.703v-4.886C195.117,338.356,194.818,337.355,194.301,336.493"/>
	<rect x="158.348" y="409.621" clip-path="url(#SVGID_2_)" fill="#E9BD9A" width="13.697" height="20.719"/>
	<path clip-path="url(#SVGID_2_)" fill="#680000" d="M129.505,436.203c0.736,0.417,2.404,1.614,3.187,4.17
		c0.138,0.468-0.122,0.965-0.59,1.102c-0.088,0.03-0.173,0.041-0.26,0.041c-0.381,0-0.731-0.242-0.849-0.623
		c-0.533-1.75-1.568-2.633-2.136-3.011c-0.269,0.43-0.587,0.813-0.942,1.166c0.833,0.589,2.074,1.763,2.72,3.862
		c0.121,0.407-0.069,0.809-0.42,1.015c-0.056,0.033-0.108,0.077-0.172,0.093c-0.085,0.025-0.175,0.041-0.26,0.041
		c-0.358,0-0.69-0.229-0.819-0.574c-0.007-0.025-0.02-0.038-0.03-0.054c-0.695-2.283-2.281-3.114-2.492-3.212
		c-0.453,0.288-0.895,0.532-1.294,0.729c0.507,0.357,1.16,0.937,1.742,1.802c0.376,0.563,0.716,1.237,0.968,2.062
		c0.139,0.463-0.119,0.962-0.589,1.106c-0.088,0.021-0.168,0.038-0.255,0.038c-0.382,0-0.737-0.247-0.85-0.63
		c-0.741-2.433-2.471-3.202-2.543-3.238c-0.19-0.08-0.334-0.231-0.422-0.412l-1.709,0.358c0.777,0.592,2.929,2.741,3.57,8.725
		h19.831v-2.962c0-0.688-0.097-1.478-0.267-2.301l-0.675-9.663h-14.413C129.531,435.96,129.523,436.084,129.505,436.203"/>
	<path clip-path="url(#SVGID_2_)" fill="#EDEDE9" d="M121.49,442.033c-0.175-0.132-0.283-0.193-0.283-0.193l-2.904,0.618
		c-5.07,1.523-6.288,4.311-6.264,6.1v2.2h13.021C124.419,444.774,122.267,442.625,121.49,442.033"/>
	<polygon clip-path="url(#SVGID_2_)" fill="#C5C4BE" points="112.039,450.757 112.039,450.757 112.039,453.983 144.891,453.983 
		144.891,452.85 112.039,452.85 112.039,452.212 112.039,451.749 144.891,451.749 144.891,450.757 125.06,450.757 	"/>
	<polygon clip-path="url(#SVGID_2_)" fill="#293B70" points="112.039,452.212 112.039,452.85 144.891,452.85 144.891,452.212 
		144.891,451.749 112.039,451.749 	"/>
	<path clip-path="url(#SVGID_2_)" fill="#C5C4BE" d="M123.621,442.086c0.072,0.036,1.802,0.806,2.543,3.238
		c0.113,0.383,0.468,0.63,0.85,0.63c0.087,0,0.167-0.018,0.254-0.038c0.471-0.145,0.728-0.643,0.59-1.106
		c-0.253-0.824-0.592-1.498-0.968-2.062c-0.582-0.865-1.235-1.444-1.743-1.802c-0.465-0.327-0.805-0.472-0.841-0.494
		c-0.448-0.188-0.957,0.025-1.153,0.476c-0.103,0.252-0.078,0.525,0.046,0.746C123.287,441.855,123.431,442.006,123.621,442.086"/>
	<path clip-path="url(#SVGID_2_)" fill="#C5C4BE" d="M128.934,443.43c0.01,0.016,0.023,0.028,0.031,0.054
		c0.128,0.345,0.461,0.574,0.819,0.574c0.084,0,0.174-0.016,0.259-0.041c0.064-0.016,0.116-0.06,0.173-0.093
		c0.35-0.206,0.54-0.607,0.419-1.016c-0.646-2.099-1.887-3.272-2.72-3.861c-0.459-0.327-0.798-0.477-0.834-0.489
		c-0.453-0.188-0.971,0.028-1.159,0.48c-0.185,0.451,0.026,0.968,0.479,1.153c0,0,0.031,0.019,0.041,0.026
		C126.653,440.316,128.239,441.147,128.934,443.43"/>
	<path clip-path="url(#SVGID_2_)" fill="#C5C4BE" d="M130.993,440.892c0.118,0.381,0.468,0.623,0.849,0.623
		c0.088,0,0.172-0.011,0.26-0.041c0.469-0.137,0.728-0.634,0.59-1.103c-0.783-2.555-2.45-3.752-3.187-4.169
		c-0.205-0.116-0.34-0.175-0.36-0.188c-0.453-0.188-0.965,0.028-1.153,0.476c-0.193,0.448,0.018,0.968,0.463,1.164
		c0.021,0.009,0.18,0.082,0.402,0.227C129.426,438.259,130.459,439.142,130.993,440.892"/>
	<path clip-path="url(#SVGID_2_)" fill="#B0000F" d="M158.013,430.339v5.163l-0.695,9.992c-0.175,0.823-0.267,1.613-0.267,2.301
		v2.962h19.833c0.639-5.983,2.79-8.133,3.563-8.725l-1.705-0.358c-0.087,0.181-0.226,0.332-0.421,0.412
		c-0.077,0.036-1.797,0.806-2.538,3.238c-0.123,0.383-0.474,0.63-0.852,0.63c-0.085,0-0.17-0.018-0.258-0.038
		c-0.468-0.145-0.733-0.644-0.589-1.106c0.252-0.824,0.592-1.498,0.962-2.062c0.587-0.865,1.241-1.444,1.748-1.802
		c-0.404-0.196-0.847-0.44-1.295-0.729c-0.206,0.098-1.797,0.929-2.496,3.212c-0.006,0.016-0.016,0.036-0.026,0.054
		c-0.128,0.345-0.458,0.574-0.817,0.574c-0.088,0-0.176-0.016-0.264-0.041c-0.062-0.016-0.107-0.06-0.175-0.093
		c-0.345-0.206-0.535-0.607-0.406-1.015c0.638-2.1,1.879-3.273,2.713-3.862c-0.36-0.354-0.68-0.736-0.942-1.166
		c-0.571,0.378-1.606,1.261-2.142,3.011c-0.113,0.381-0.463,0.623-0.85,0.623c-0.082,0-0.175-0.011-0.254-0.041
		c-0.469-0.137-0.729-0.634-0.59-1.102c0.782-2.556,2.45-3.753,3.187-4.17c-0.036-0.222-0.057-0.455-0.057-0.7v-5.163h-0.335
		h-13.698H158.013z"/>
	<path clip-path="url(#SVGID_2_)" fill="#EDEDE9" d="M176.884,450.757h13.019v-2.2c0.025-1.789-1.194-4.576-6.265-6.1l-2.908-0.618
		c0,0-0.108,0.062-0.283,0.193C179.674,442.625,177.522,444.774,176.884,450.757"/>
	<rect x="157.05" y="452.85" clip-path="url(#SVGID_2_)" fill="#C5C4BE" width="32.852" height="1.133"/>
	<polygon clip-path="url(#SVGID_2_)" fill="#C5C4BE" points="157.05,450.757 157.05,451.749 189.902,451.749 189.902,450.757 
		176.883,450.757 	"/>
	<polygon clip-path="url(#SVGID_2_)" fill="#293B70" points="157.05,452.212 157.05,452.85 189.902,452.85 189.902,452.212 
		189.902,451.749 157.05,451.749 	"/>
	<path clip-path="url(#SVGID_2_)" fill="#C5C4BE" d="M175.046,442.749c-0.37,0.563-0.71,1.237-0.962,2.063
		c-0.145,0.462,0.121,0.961,0.589,1.105c0.088,0.021,0.173,0.038,0.258,0.038c0.378,0,0.729-0.247,0.852-0.63
		c0.741-2.433,2.461-3.202,2.538-3.238c0.195-0.08,0.334-0.231,0.422-0.412c0.124-0.221,0.149-0.494,0.041-0.746
		c-0.188-0.45-0.7-0.664-1.15-0.476c-0.036,0.022-0.373,0.167-0.839,0.494C176.287,441.304,175.633,441.883,175.046,442.749"/>
	<path clip-path="url(#SVGID_2_)" fill="#C5C4BE" d="M171.314,442.91c-0.129,0.407,0.062,0.809,0.406,1.015
		c0.067,0.033,0.114,0.077,0.175,0.093c0.088,0.025,0.176,0.041,0.263,0.041c0.36,0,0.69-0.229,0.818-0.574
		c0.011-0.018,0.021-0.038,0.026-0.054c0.699-2.283,2.291-3.114,2.496-3.212c0.013-0.008,0.039-0.021,0.039-0.021
		c0.453-0.191,0.666-0.708,0.481-1.159c-0.185-0.452-0.705-0.669-1.158-0.48c-0.036,0.013-0.376,0.162-0.834,0.489
		C173.193,439.636,171.952,440.81,171.314,442.91"/>
	<path clip-path="url(#SVGID_2_)" fill="#C5C4BE" d="M169.25,440.373c-0.139,0.468,0.121,0.965,0.59,1.102
		c0.079,0.03,0.172,0.041,0.254,0.041c0.386,0,0.736-0.242,0.85-0.623c0.535-1.75,1.57-2.633,2.142-3.011
		c0.222-0.145,0.378-0.217,0.401-0.227c0.445-0.196,0.653-0.716,0.469-1.164c-0.195-0.447-0.705-0.664-1.153-0.476
		c-0.025,0.013-0.159,0.071-0.365,0.188C171.7,436.62,170.032,437.817,169.25,440.373"/>
	<path clip-path="url(#SVGID_2_)" fill="#1A1719" d="M150.847,352.914h4.283l1.57,48.458h17.013l1.781-55.047
		c1.374-2.178,2.183-4.751,2.183-7.513v-3.91h-26.83V352.914z"/>
	<path clip-path="url(#SVGID_2_)" fill="#010103" d="M150.832,334.902H124.48v3.91c0,2.406,0.561,4.666,1.568,6.647l2.205,90.372
		h1.282h14.414h0.777l2.021-82.918h4.1v-18.012H150.832z"/>
	<path clip-path="url(#SVGID_2_)" fill="#680000" d="M111.458,212.715l6.403-6.201c0,0-0.247-1.534,0.139-3.665
		c0-0.129,0-0.262,0.008-0.397h0.008c0.015,0,0.041-0.005,0.067-0.005c1.457-0.025,13.615-3.551,32.412-4.506h0.023
		c0.016,0,0.042-0.003,0.062-0.003c0.046-0.005,0.092-0.005,0.139-0.005v-5.374h-0.031h-7.145c-0.185,0.278,1.122-4.443,7.145-4.728
		l0.016,2.329l0.01-1.192l-0.005-20.181c0,0-31.463,0.571-32.796,28.101c-0.016,0.01-0.031,0.018-0.052,0.02
		c0,0-28.461,10.075-6.146,17.526C111.354,213.432,111.458,212.715,111.458,212.715 M118.021,202.298h-0.005v-0.044
		C118.016,202.273,118.016,202.283,118.021,202.298"/>
	<path clip-path="url(#SVGID_2_)" fill="#DE9865" d="M115.611,218.3c1.519,3.59,3.645,4.908,5.163,5.377
		c-0.486-1.622-0.901-3.269-1.251-4.906C118.216,218.941,116.812,218.797,115.611,218.3"/>
	<path clip-path="url(#SVGID_2_)" fill="#DE9865" d="M181.022,223.744c1.715-0.448,4.36-1.967,5.951-6.914
		c1.977-6.146-1.745-8.05-3.367-8.575c-0.123,0.784-0.263,1.513-0.396,2.115C182.896,214.707,182.22,219.293,181.022,223.744"/>
	<path clip-path="url(#SVGID_2_)" fill="#010103" d="M150.832,274.528c0.023-0.021,0.052-0.06,0.087-0.098
		c0.109-0.234,0.353-0.662,0.786-1.205c-0.528,0.554-0.775,0.966-0.873,1.192v-0.132l-0.002,0.055v-17.333h-0.003l-0.011,10.354
		c0,0-3.217-0.612-6.696-1.979c-2.399-4.247-3.743-8.63-0.026-9.816l0.613,0.064v-6.571c-4.119-0.809-7.655-2.425-10.682-4.648
		v0.005c-12.859,8.515-4.803,19.976,5.112,22.613c4.313,1.145,7.088,2.733,8.843,4.154c1.951,1.586,2.651,2.971,2.811,3.341
		c0.005,0.006,0.013,0.026,0.015,0.036c0.021,0.036,0.024,0.062,0.024,0.062v5.677l0.002-5.677V274.528z"/>
	<path clip-path="url(#SVGID_2_)" fill="#010103" d="M150.831,331.191v-50.896l-0.002,0.003l-3.951-5.676
		c-0.463-2.326-8.365-4.035-8.365-4.035s-10.424,0.68-14.187-8.095c-1.215,0.852-2.352,1.802-3.333,2.87l-0.007-0.008
		c0,0-11.603,8.893-13.972,70.979h0.037h4.964h6.258h0.079c0,0,0.698-28.771,6.623-47.575l-0.459,41.125h-0.036v1.308h0.021H150.831
		z M137.18,305.998l0.932,0.461l2.064,1.015l-5.426,11.06l-2.059-1.02l-0.942-0.458L137.18,305.998z"/>
	<path clip-path="url(#SVGID_2_)" fill="#1A1719" d="M178.146,333.332v-0.169V333.332z"/>
	<path clip-path="url(#SVGID_2_)" fill="#1A1719" d="M189.243,336.492h5.058h0.116c-1.336-34.923-5.591-53.01-9.06-62.152h0.005
		c-1.194-5.312-4.319-9.126-8.01-11.854c-3.896,8.874-14.208,8.262-14.208,8.262s-7.901,1.709-8.365,4.028l-3.948,5.521v50.896
		h27.282l-0.595-41.102c4.682,17.234,5.485,43.443,5.552,46.156c0.005,0.151,0.011,0.246,0.011,0.246H189.243z M168.751,317.513
		l-2.069,1.02l-5.421-11.06l2.064-1.015l0.941-0.461l5.422,11.058L168.751,317.513z"/>
	<path clip-path="url(#SVGID_2_)" fill="#1A1719" d="M150.832,274.623c0,0,0.026-0.071,0.087-0.192
		c-0.035,0.038-0.064,0.077-0.087,0.098V274.623z"/>
	<path clip-path="url(#SVGID_2_)" fill="#1A1719" d="M150.832,274.286v0.132c0.098-0.227,0.345-0.639,0.873-1.192
		c0.309-0.394,0.713-0.835,1.243-1.32c1.31-1.714,2.98-4.041,4.313-6.414c-3.376,1.292-6.413,1.871-6.413,1.871l-0.016-10.354
		h-0.002v17.332L150.832,274.286z"/>
	<path clip-path="url(#SVGID_2_)" fill="#E9BD9A" d="M157.261,265.491c2.379-4.231,3.701-8.586,0-9.765l-0.586,0.057v1.225h-5.843
		l0.015,10.354C150.847,267.362,153.885,266.783,157.261,265.491"/>
	<path clip-path="url(#SVGID_2_)" fill="#010103" d="M157.261,265.491c-1.333,2.373-3.003,4.7-4.313,6.414
		c1.678-1.534,4.607-3.397,9.574-4.723c9.874-2.623,17.896-13.994,5.277-22.503c-3.101,2.157-6.774,3.709-11.124,4.45v6.653
		l0.586-0.057C160.962,256.905,159.64,261.259,157.261,265.491"/>
	<path clip-path="url(#SVGID_2_)" fill="#680000" d="M138.513,270.587c0,0,7.902,1.709,8.365,4.035l3.951,5.676v-5.676
		c0,0-0.003-0.025-0.024-0.062c-0.002-0.01-0.01-0.03-0.015-0.035c-0.159-0.371-0.86-1.756-2.81-3.342
		c-1.756-1.421-4.53-3.011-8.844-4.154c-9.915-2.638-17.971-14.099-5.112-22.613v-0.005c-0.664-0.481-1.297-0.983-1.912-1.524
		c-2.252,1.521-11.039,8.159-8.468,17.639c0.193,0.708,0.425,1.354,0.682,1.967C128.089,271.267,138.513,270.587,138.513,270.587"/>
	<path clip-path="url(#SVGID_2_)" fill="#B0000F" d="M162.521,267.182c-4.967,1.325-7.896,3.188-9.574,4.723
		c-0.53,0.484-0.934,0.927-1.243,1.32c-0.433,0.543-0.677,0.971-0.786,1.205c-0.061,0.121-0.087,0.192-0.087,0.192l-0.002,5.676
		l0.002-0.003l3.948-5.521c0.464-2.319,8.365-4.028,8.365-4.028s10.312,0.612,14.208-8.262c0.247-0.571,0.474-1.169,0.661-1.812
		c2.515-8.427-6.005-15.392-8.378-17.395c-0.592,0.494-1.204,0.955-1.837,1.4C180.417,253.188,172.396,264.559,162.521,267.182"/>
	<path clip-path="url(#SVGID_2_)" fill="#E9BD9A" d="M118.008,202.453C118,202.586,118,202.721,118,202.849c0,0,0-0.02,0.008-0.028
		c0-0.123,0-0.247,0.007-0.368H118.008z"/>
	<path clip-path="url(#SVGID_2_)" fill="#E9BD9A" d="M118.021,202.298c-0.005-0.015-0.005-0.025-0.005-0.044v0.044H118.021z"/>
	<path clip-path="url(#SVGID_2_)" fill="#E9BD9A" d="M182.814,212.045c0,0-0.933-2.172-1.858-4.187
		c-0.932-2.013,1.081-0.773-3.563-0.464c-3.361,0.224-5.102-4.648-5.807-7.371c-0.685-0.111-1.354-0.216-2.028-0.319
		c-2.821,2.11-4.28,0.798-7.849-0.924c-3.312-0.291-6.502-0.448-9.541-0.494c-0.818,0.908-1.24,2.069-1.451,2.959v12.187h2.852
		c13.234-7.672,22.563,1.035,22.563,1.035c0.828,2.893-1.035,13.219-10.327,14.46c-8.354,1.112-11.252-7.93-12.189-12.602h-2.898
		v33.306c2.121,0,4.093-0.186,5.956-0.502c4.35-0.741,8.025-2.293,11.125-4.45c0.633-0.445,1.245-0.905,1.837-1.4
		c5.838-4.869,9.364-12.002,11.387-19.535c1.197-4.45,1.874-9.037,2.188-13.373C182.994,211.381,182.814,212.045,182.814,212.045"/>
	<path clip-path="url(#SVGID_2_)" fill="#E9BD9A" d="M150.708,249.631h-0.067H150.708z"/>
	<path clip-path="url(#SVGID_2_)" fill="#E4AA7F" d="M144.706,249.06v6.57l-0.613-0.063c-3.716,1.187-2.373,5.569,0.026,9.816
		c3.48,1.366,6.697,1.979,6.697,1.979l0.01-10.354h0.003h0.003h5.842v-1.225v-6.653c-1.863,0.316-3.835,0.502-5.956,0.502v-33.306
		h-0.123h-0.1h-2.953c-0.893,4.607-3.752,13.94-12.23,12.808c-9.292-1.241-11.15-11.567-10.322-14.455c0,0,9.158-8.552,22.192-1.246
		h3.313h0.1h0.123v-12.187c-0.195,0.78-0.223,1.352-0.223,1.352s-0.42,5.775-11.153,3.917c-10.738-1.856-17.347,2.278-15.697,7.027
		c1.047,3.011-1.311,4.859-4.122,5.23c0.351,1.636,0.765,3.284,1.251,4.905c2.188,7.359,5.797,14.342,11.338,19.211
		c0.615,0.541,1.248,1.043,1.912,1.524C137.051,246.635,140.588,248.251,144.706,249.06 M150.708,249.631L150.708,249.631h-0.067
		H150.708z"/>
	<path clip-path="url(#SVGID_2_)" fill="#E4AA7F" d="M118.008,202.821c0.018-0.124,0.043-0.242,0.074-0.373
		c-0.025,0-0.051,0.005-0.067,0.005C118.008,202.574,118.008,202.697,118.008,202.821"/>
	<polygon clip-path="url(#SVGID_2_)" fill="#E4AA7F" points="150.495,197.941 150.495,202.597 150.518,197.941 	"/>
	<path clip-path="url(#SVGID_2_)" fill="#010103" d="M119.523,218.771c2.811-0.371,5.168-2.219,4.121-5.23
		c-1.65-4.749,4.96-8.882,15.698-7.027c10.733,1.859,11.152-3.917,11.152-3.917v-4.656c-18.797,0.955-30.955,4.481-32.412,4.507
		c-0.031,0.131-0.057,0.249-0.075,0.373C118,202.829,118,202.844,118,202.844c-0.387,2.136-0.14,3.67-0.14,3.67l-6.403,6.201
		c0,0-0.103,0.718,0.257,1.719c0.36,1.006,1.184,2.303,3.047,3.441c0.268,0.165,0.552,0.304,0.85,0.425
		C116.812,218.797,118.216,218.941,119.523,218.771"/>
	<path clip-path="url(#SVGID_2_)" fill="#1A1719" d="M177.394,207.395c4.644-0.309,2.631-1.549,3.563,0.463
		c0.925,2.016,1.857,4.188,1.857,4.188s0.18-0.664,0.396-1.675c0.134-0.603,0.273-1.331,0.396-2.116
		c0.283-1.812,0.461-3.949,0.165-5.637c-4.175-1.099-8.252-1.946-12.185-2.595C172.292,202.747,174.032,207.619,177.394,207.395"/>
	<path clip-path="url(#SVGID_2_)" fill="#1A1719" d="M150.718,198.268v-0.329h-0.139c-0.02,0-0.046,0.002-0.062,0.002l-0.023,4.657
		c0,0,0.029-0.572,0.224-1.352c0.211-0.891,0.633-2.051,1.452-2.959C151.681,198.284,151.197,198.272,150.718,198.268"/>
	<path clip-path="url(#SVGID_2_)" fill="#1A1719" d="M169.559,199.704c-2.687-0.396-5.302-0.7-7.85-0.924
		C165.278,200.502,166.737,201.814,169.559,199.704"/>
	<polygon clip-path="url(#SVGID_2_)" fill="#010103" points="150.713,188.889 150.708,168.787 150.713,188.969 	"/>
	<path clip-path="url(#SVGID_2_)" fill="#010103" d="M150.718,192.559L150.718,192.559v5.374c-0.046,0-0.092,0-0.139,0.005h0.139
		V192.559z"/>
	<path clip-path="url(#SVGID_2_)" fill="#B0000F" d="M150.718,187.831c5.585-0.404,7.155,4.728,7.155,4.728h-7.155v5.379v0.33
		c0.479,0.005,0.963,0.015,1.452,0.018c3.037,0.046,6.229,0.203,9.539,0.494c2.548,0.224,5.163,0.528,7.85,0.924
		c0.675,0.103,1.344,0.209,2.028,0.319c3.933,0.649,8.01,1.496,12.185,2.595c0.175,0.046,0.348,0.085,0.52,0.131
		c0,0,3.526-30.721-33.583-34.42v0.458l0.005,20.102L150.718,187.831z"/>
	<path clip-path="url(#SVGID_2_)" fill="#010103" d="M150.688,187.831c-6.023,0.286-7.33,5.006-7.145,4.728h7.145l0.016-2.399
		L150.688,187.831z"/>
	<path clip-path="url(#SVGID_2_)" fill="#1A1719" d="M150.718,192.559h7.155c0,0-1.57-5.132-7.155-4.728l-0.005,1.058v0.08
		l-0.01,1.191l-0.016,2.399H150.718z"/>
	<path clip-path="url(#SVGID_2_)" fill="#E4AA7F" d="M147.182,213.433c-13.034-7.307-22.192,1.246-22.192,1.246
		c-0.829,2.888,1.03,13.214,10.321,14.455c8.478,1.132,11.338-8.201,12.231-12.808h2.953v-2.893H147.182z"/>
	<path clip-path="url(#SVGID_2_)" fill="#E9BD9A" d="M165.806,228.927c9.292-1.241,11.155-11.567,10.327-14.46
		c0,0-9.328-8.707-22.562-1.035h-2.852h-0.124h-0.1v2.893h0.1h0.124h2.898C154.554,220.997,157.452,230.039,165.806,228.927"/>
	<polygon clip-path="url(#SVGID_2_)" fill="#680000" points="150.832,333.039 150.832,331.191 124.501,331.191 124.48,331.191 
		124.48,334.902 150.832,334.902 	"/>
	<polygon clip-path="url(#SVGID_2_)" fill="#B0000F" points="150.832,333.039 150.832,334.902 150.848,334.902 177.677,334.902 
		178.146,334.902 178.146,333.332 178.146,333.163 178.146,331.191 178.114,331.191 150.832,331.191 	"/>
	<polygon clip-path="url(#SVGID_2_)" fill="#B0000F" points="134.75,318.533 140.175,307.473 138.111,306.458 132.691,317.513 	"/>
	<polygon clip-path="url(#SVGID_2_)" fill="#FFFFFF" points="138.112,306.458 137.18,305.998 131.75,317.055 132.692,317.513 	"/>
	<polygon clip-path="url(#SVGID_2_)" fill="#B0000F" points="161.261,307.473 166.682,318.533 168.751,317.513 163.324,306.458 	"/>
	
		<rect x="160.349" y="311.236" transform="matrix(-0.4406 -0.8977 0.8977 -0.4406 -39.995 598.5911)" clip-path="url(#SVGID_2_)" fill="#FFFFFF" width="12.314" height="1.043"/>
	<polygon clip-path="url(#SVGID_2_)" fill="#010103" points="156.118,401.372 156.118,409.621 156.968,409.621 158.347,409.621 
		172.045,409.621 173.44,409.621 174.048,409.621 174.048,401.372 173.713,401.372 156.7,401.372 	"/>
</g>
</svg>
