<?xml version="1.0" encoding="utf-8"?>
<!-- Generator: Adobe Illustrator 16.0.3, SVG Export Plug-In . SVG Version: 6.00 Build 0)  -->
<!DOCTYPE svg PUBLIC "-//W3C//DTD SVG 1.1//EN" "http://www.w3.org/Graphics/SVG/1.1/DTD/svg11.dtd">
<svg version="1.1" id="Capa_1" xmlns="http://www.w3.org/2000/svg" xmlns:xlink="http://www.w3.org/1999/xlink" x="0px" y="0px"
	 width="442.099px" height="488.11px" viewBox="0 0 442.099 488.11" enable-background="new 0 0 442.099 488.11"
	 xml:space="preserve">
<g>
	<defs>
		<rect id="SVGID_1_" x="-164.976" y="-61.84" width="792" height="612"/>
	</defs>
	<clipPath id="SVGID_2_">
		<use xlink:href="#SVGID_1_"  overflow="visible"/>
	</clipPath>
	<g clip-path="url(#SVGID_2_)">
		<defs>
			<rect id="SVGID_3_" x="-164.976" y="-61.84" width="792" height="612"/>
		</defs>
		<clipPath id="SVGID_4_">
			<use xlink:href="#SVGID_3_"  overflow="visible"/>
		</clipPath>
		<path clip-path="url(#SVGID_4_)" fill="#B74147" d="M129.972,359.952c0,9.008-7.302,16.31-16.31,16.31H40.776
			c-9.008,0-16.31-7.302-16.31-16.31v-67.789c0-9.008,7.302-16.311,16.31-16.311h72.886c9.008,0,16.31,7.303,16.31,16.311V359.952z"
			/>
		<path clip-path="url(#SVGID_4_)" fill="#7C3137" d="M139.656,359.952c0,9.008-7.302,16.31-16.31,16.31H50.46
			c-9.008,0-16.31-7.302-16.31-16.31v-67.789c0-9.008,7.302-16.311,16.31-16.311h72.886c9.008,0,16.31,7.303,16.31,16.311V359.952z"
			/>
		<polygon clip-path="url(#SVGID_4_)" fill="#F4B9A4" points="34.998,235.036 42.455,232.15 69.633,239.366 61.456,253.797 		"/>
		<polygon clip-path="url(#SVGID_4_)" fill="#F4B9A4" points="62.696,213.16 63.224,243.6 39.326,233.352 39.168,204.332 		"/>
		<path clip-path="url(#SVGID_4_)" fill="#F4B9A4" d="M91.041,279.414c0,0,23.452,30.308,30.307,29.706
			c2.408-0.211,54.119,6.254,54.119,6.254l-8.658-7.456l-37.163-13.35l-20.084-25.617L91.041,279.414z"/>
		<g opacity="0.2" clip-path="url(#SVGID_4_)">
			<g>
				<defs>
					<rect id="SVGID_5_" x="91.041" y="268.951" width="84.427" height="46.423"/>
				</defs>
				<clipPath id="SVGID_6_">
					<use xlink:href="#SVGID_5_"  overflow="visible"/>
				</clipPath>
				<path clip-path="url(#SVGID_6_)" fill="#623030" d="M91.041,279.414c0,0,23.452,30.308,30.307,29.706
					c2.408-0.211,54.119,6.254,54.119,6.254l-8.658-7.456l-37.163-13.35l-20.084-25.617L91.041,279.414z"/>
			</g>
		</g>
		<path clip-path="url(#SVGID_4_)" fill="#3EAB7B" d="M3.049,286.185c0,0-3.248-33.915,2.525-37.521
			c5.773-3.608,32.111-14.434,32.111-14.434s12.628,19.123,29.225,5.412c0,0,29.224,7.216,33.554,11.546
			c4.33,4.329,15.514,23.091,15.514,23.091l-19.483,15.153l-2.526-3.247l-0.721,22.369l-15.154,17.319l-47.782-11.306l-4.894-26.218
			L3.049,286.185z"/>
		<path clip-path="url(#SVGID_4_)" fill="#328D64" d="M8.066,246.281c-0.72,0.381-1.341,0.729-1.812,1.022
			c-5.773,3.607-2.526,37.522-2.526,37.522l22.369,2.165l4.894,26.218l47.783,11.305l15.153-17.318l0.002-0.063
			C59.03,298.056,27.654,277.424,8.066,246.281"/>
		<g opacity="0.15" clip-path="url(#SVGID_4_)">
			<g>
				<defs>
					<rect id="SVGID_7_" y="470.217" width="234.458" height="17.893"/>
				</defs>
				<clipPath id="SVGID_8_">
					<use xlink:href="#SVGID_7_"  overflow="visible"/>
				</clipPath>
				<path clip-path="url(#SVGID_8_)" fill="#01050E" d="M0,479.164c0,4.941,52.485,8.946,117.229,8.946s117.229-4.005,117.229-8.946
					c0-4.94-52.485-8.946-117.229-8.946S0,474.223,0,479.164"/>
			</g>
		</g>
		<g opacity="0.2" clip-path="url(#SVGID_4_)">
			<g>
				<defs>
					<rect id="SVGID_9_" x="39.168" y="204.333" width="23.964" height="33.955"/>
				</defs>
				<clipPath id="SVGID_10_">
					<use xlink:href="#SVGID_9_"  overflow="visible"/>
				</clipPath>
				<path clip-path="url(#SVGID_10_)" fill="#623030" d="M63.132,238.288l-0.436-25.127l-23.528-8.828l0.271,24.231
					C46.893,232.142,54.903,235.63,63.132,238.288"/>
			</g>
		</g>
		<path clip-path="url(#SVGID_4_)" fill="#F4B9A4" d="M49.026,176.015c-12.991,3.02-12.327,11.123-12.327,11.123
			s0.649,6.251,1.196,13.703c-1.269-1.473-3.344-2.05-5.415-1.186c-4.392,1.831-0.609,14.408,6.126,13.145
			c0.428,3.528,0.918,6.272,1.458,7.212c2.042,3.554,12.873,12.29,20.325,12.962c7.451,0.672,15.011-10.202,14.705-18.09
			C74.79,206.995,75,176.764,75,176.764S70.54,171.014,49.026,176.015"/>
		<path clip-path="url(#SVGID_4_)" fill="#7D4445" d="M39.876,175.128c0.068-0.068,0.136-0.126,0.204-0.193
			c2.263,4.053,6.729,0.51,7.402,5.159c0.05,0.339,4.628,0.547,4.719,0.832c-7.771,0.556-10.533,10.556-10.533,10.556
			s-1.262,16.434-1.018,16.92c0.245,0.487-2.248-0.276-2.248-0.276l-0.538-6.763c-0.996-1.797-3.076-2.205-3.076-2.205
			s-3.372-9.699-2.113-17.459C33.595,176.034,39.876,175.128,39.876,175.128"/>
		<path clip-path="url(#SVGID_4_)" fill="#443F3F" d="M54.164,472.503c0,2.285-2.101,4.139-4.694,4.139
			c-2.592,0-4.693-1.854-4.693-4.139v-41.071c0-2.285,2.101-4.138,4.693-4.138c2.593,0,4.694,1.853,4.694,4.138V472.503z"/>
		<g opacity="0.5" clip-path="url(#SVGID_4_)">
			<g>
				<defs>
					<rect id="SVGID_11_" x="44.776" y="427.294" width="9.388" height="7.547"/>
				</defs>
				<clipPath id="SVGID_12_">
					<use xlink:href="#SVGID_11_"  overflow="visible"/>
				</clipPath>
				<path clip-path="url(#SVGID_12_)" fill="#0A090D" d="M54.164,434.487v-3.055c0-2.285-2.101-4.138-4.694-4.138
					c-2.592,0-4.693,1.853-4.693,4.138v3.409C47.891,434.571,51.022,434.485,54.164,434.487"/>
			</g>
		</g>
		<path clip-path="url(#SVGID_4_)" fill="#443F3F" d="M172.391,472.503c0,2.285-2.102,4.139-4.694,4.139
			c-2.592,0-4.694-1.854-4.694-4.139v-41.071c0-2.285,2.102-4.138,4.694-4.138c2.592,0,4.694,1.853,4.694,4.138V472.503z"/>
		<g opacity="0.5" clip-path="url(#SVGID_4_)">
			<g>
				<defs>
					<rect id="SVGID_13_" x="163.003" y="427.294" width="9.388" height="7.547"/>
				</defs>
				<clipPath id="SVGID_14_">
					<use xlink:href="#SVGID_13_"  overflow="visible"/>
				</clipPath>
				<path clip-path="url(#SVGID_14_)" fill="#0A090D" d="M172.391,434.487v-3.055c0-2.285-2.102-4.138-4.694-4.138
					c-2.592,0-4.694,1.853-4.694,4.138v3.409C166.118,434.571,169.25,434.485,172.391,434.487"/>
			</g>
		</g>
		<path clip-path="url(#SVGID_4_)" fill="#2E2A2C" d="M32.277,471.353c0,2.229-2.048,4.033-4.574,4.033
			c-2.527,0-4.574-1.805-4.574-4.033v-40.026c0-2.227,2.047-4.032,4.574-4.032c2.526,0,4.574,1.806,4.574,4.032V471.353z"/>
		<g opacity="0.5" clip-path="url(#SVGID_4_)">
			<g>
				<defs>
					<rect id="SVGID_15_" x="23.128" y="427.294" width="9.149" height="7.355"/>
				</defs>
				<clipPath id="SVGID_16_">
					<use xlink:href="#SVGID_15_"  overflow="visible"/>
				</clipPath>
				<path clip-path="url(#SVGID_16_)" fill="#0A090D" d="M32.277,434.304v-2.979c0-2.226-2.048-4.031-4.575-4.031
					c-2.526,0-4.574,1.806-4.574,4.031v3.324C26.163,434.385,29.216,434.301,32.277,434.304"/>
			</g>
		</g>
		<path clip-path="url(#SVGID_4_)" fill="#2E2A2C" d="M147.496,471.353c0,2.229-2.048,4.033-4.575,4.033
			c-2.526,0-4.574-1.805-4.574-4.033v-40.026c0-2.227,2.048-4.032,4.574-4.032c2.527,0,4.575,1.806,4.575,4.032V471.353z"/>
		<g opacity="0.5" clip-path="url(#SVGID_4_)">
			<g>
				<defs>
					<rect id="SVGID_17_" x="138.347" y="427.294" width="9.149" height="7.355"/>
				</defs>
				<clipPath id="SVGID_18_">
					<use xlink:href="#SVGID_17_"  overflow="visible"/>
				</clipPath>
				<path clip-path="url(#SVGID_18_)" fill="#0A090D" d="M147.496,434.304v-2.979c0-2.226-2.048-4.031-4.575-4.031
					c-2.526,0-4.574,1.806-4.574,4.031v3.324C141.382,434.385,144.435,434.301,147.496,434.304"/>
			</g>
		</g>
		<path clip-path="url(#SVGID_4_)" fill="#FEE897" d="M182.296,424.645c0,3.985-3.231,7.216-7.216,7.216
			c-3.985,0-7.216-3.23-7.216-7.216V327.47c0-3.985,3.231-7.216,7.216-7.216c3.985,0,7.216,3.23,7.216,7.216V424.645z"/>
		<path clip-path="url(#SVGID_4_)" fill="#B74147" d="M183.186,420.966c0,6.377-5.169,11.546-11.545,11.546h-22.129
			c-6.376,0-11.546-5.169-11.546-11.546v-96.212c0-6.377,5.17-11.546,11.546-11.546h22.129c6.376,0,11.545,5.169,11.545,11.546
			V420.966z"/>
		<path clip-path="url(#SVGID_4_)" fill="#632127" d="M172.465,420.966c0,6.377-5.169,11.546-11.545,11.546h-11.408
			c-6.376,0-11.546-5.169-11.546-11.546v-96.212c0-6.377,5.17-11.546,11.546-11.546h11.408c6.376,0,11.545,5.169,11.545,11.546
			V420.966z"/>
		<path clip-path="url(#SVGID_4_)" fill="#B74147" d="M182.443,420.966c0,6.377-5.169,11.546-11.545,11.546H41.011
			c-6.377,0-11.546-5.169-11.546-11.546v-40.409c0-6.376,5.169-11.545,11.546-11.545h129.887c6.376,0,11.545,5.169,11.545,11.545
			V420.966z"/>
		<polygon clip-path="url(#SVGID_4_)" fill="#5C657E" points="153.406,435.951 154.947,469.535 169.749,467.414 170.238,418.566 		
			"/>
		<path clip-path="url(#SVGID_4_)" fill="#614C44" d="M172.478,452.789c0,0,6.187,8.903,15.862,12.237
			c9.675,3.333,18.382,7.474,17.5,13.587c0,0-14.728,7.026-38.066-1.874l-0.071,2.595l-15.452-1.131l0.587-21.466l12.827,1.295
			l-0.895-2.148L172.478,452.789z"/>
		<path clip-path="url(#SVGID_4_)" fill="#0D0A0C" d="M178.019,477.318c20.963,6.248,26.497,0.099,27.743-0.306
			c0.121,0.534,0.154,1.069,0.078,1.601c0,0-14.728,7.026-38.066-1.874l-0.071,2.595l-15.452-1.131l0.117-4.281
			C157.88,474.42,162.563,472.71,178.019,477.318"/>
		<polygon clip-path="url(#SVGID_4_)" fill="#5C657E" points="157.976,337.723 189.384,338.917 197.91,327.162 148.298,316.417 		
			"/>
		<path clip-path="url(#SVGID_4_)" fill="#614C44" d="M188.014,321.968c0,0,10.778,1.178,19.644-3.931
			c8.866-5.109,17.706-8.959,21.738-4.279c0,0-4.37,15.722-26.405,27.482l1.911,1.757l-10.998,10.913l-15.806-14.535l9.398-8.825
			l-2.208-0.736L188.014,321.968z"/>
		<path clip-path="url(#SVGID_4_)" fill="#0D0A0C" d="M210.153,333.893c18.476-11.71,17.471-19.922,17.984-21.127
			c0.483,0.261,0.908,0.585,1.258,0.992c0,0-4.369,15.722-26.405,27.482l1.911,1.757l-10.998,10.913l-3.152-2.899
			C194.748,347.181,196.53,342.526,210.153,333.893"/>
		<path clip-path="url(#SVGID_4_)" fill="#7AA19A" d="M42.694,354.821c0,0,23.812-56.284,41.131-54.842
			c17.318,1.443,80.818,14.433,91.642,14.433c0,0,7.216,20.204-0.721,26.698l-77.932-7.216c0,0,80.581,4.726,80.096,17.318
			c-0.721,18.762-3.608,95.972-3.608,95.972l-24.534,4.33c0,0-10.102-51.955-2.886-81.54l-98.858,2.887L42.694,354.821z"/>
		<path clip-path="url(#SVGID_4_)" fill="#5C7A75" d="M46.238,369.583l0.786,3.277l3.093-0.091
			C48.825,371.865,47.53,370.793,46.238,369.583"/>
		<path clip-path="url(#SVGID_4_)" fill="#5C7A75" d="M131.42,337.099l10.23,0.946c-21.356-2.825-41.95-5.595-41.95-5.595
			s-12.692,28.694-30.355,39.758l76.537-2.234c-7.215,29.585,2.887,81.54,2.887,81.54l24.534-4.33c0,0,2.886-77.21,3.608-95.972
			C177.176,344.328,153.203,339.793,131.42,337.099"/>
		<path clip-path="url(#SVGID_4_)" fill="#F4B9A4" d="M3.728,284.826l25.978,1.443l2.165,16.597c0,0,40.291-11.144,51.954-7.938
			c14.432,3.969,15.153,11.546,15.153,11.546l-22.369-3.608c0,0-22.369,23.813-60.613,14.432
			C15.996,317.297,4.45,312.968,3.728,284.826"/>
		<g opacity="0.5" clip-path="url(#SVGID_4_)">
			<g>
				<defs>
					<rect id="SVGID_19_" x="3.729" y="284.826" width="26.407" height="4.746"/>
				</defs>
				<clipPath id="SVGID_20_">
					<use xlink:href="#SVGID_19_"  overflow="visible"/>
				</clipPath>
				<g opacity="0.3" clip-path="url(#SVGID_20_)">
					<g>
						<defs>
							<rect id="SVGID_21_" x="3.729" y="284.826" width="26.407" height="4.746"/>
						</defs>
						<clipPath id="SVGID_22_">
							<use xlink:href="#SVGID_21_"  overflow="visible"/>
						</clipPath>
						<path clip-path="url(#SVGID_22_)" fill="#623030" d="M30.136,289.571l-0.431-3.302l-25.977-1.443
							c0.03,1.158,0.084,2.261,0.149,3.339L30.136,289.571z"/>
					</g>
				</g>
			</g>
		</g>
		<path clip-path="url(#SVGID_4_)" fill="#B74147" d="M64.667,420.966c0,6.377-5.169,11.546-11.546,11.546H30.992
			c-6.376,0-11.545-5.169-11.545-11.546v-96.212c0-6.377,5.169-11.546,11.545-11.546h22.129c6.377,0,11.546,5.169,11.546,11.546
			V420.966z"/>
		<path clip-path="url(#SVGID_4_)" fill="#7C3137" d="M53.519,420.966c0,6.377-5.169,11.546-11.546,11.546H19.844
			c-6.376,0-11.545-5.169-11.545-11.546v-96.212c0-6.377,5.169-11.546,11.545-11.546h22.129c6.377,0,11.546,5.169,11.546,11.546
			V420.966z"/>
		<path clip-path="url(#SVGID_4_)" fill="#F4B9A4" d="M84.908,303.227c0,0,2.886,26.698,3.969,1.442c0,0,7.576,33.555,4.329,0.722
			c0,0,12.267,30.668,2.887,0c0,0,12.988,18.401,1.082-2.525L84.908,303.227z"/>
		<path clip-path="url(#SVGID_4_)" fill="#7D4445" d="M45.399,182.003c0,0,11.661,7.468,22.273,4.717l-6.158-1.31
			c0,0,12.316,1.703,19.784-6.027c0,0-5.634-8.909-15.591-9.172c0,0,5.896-0.13,9.826,1.573c0,0-3.275-5.896-14.412-6.944
			c-9.667-0.91-21.88,0.786-24.631,13.888C33.738,191.83,45.399,182.003,45.399,182.003"/>
		<path clip-path="url(#SVGID_4_)" fill="#FEE897" d="M258.238,241.902c0,3.985,3.231,7.216,7.217,7.216
			c3.984,0,7.216-3.231,7.216-7.216v-97.175c0-3.985-3.231-7.216-7.216-7.216c-3.985,0-7.217,3.231-7.217,7.216V241.902z"/>
		<path clip-path="url(#SVGID_4_)" fill="#443F3F" d="M268.144,289.761c0,2.285,2.102,4.138,4.694,4.138
			c2.592,0,4.693-1.853,4.693-4.138V248.69c0-2.284-2.102-4.138-4.693-4.138c-2.593,0-4.694,1.854-4.694,4.138V289.761z"/>
		<g opacity="0.5" clip-path="url(#SVGID_4_)">
			<g>
				<defs>
					<rect id="SVGID_23_" x="268.144" y="244.551" width="9.388" height="7.549"/>
				</defs>
				<clipPath id="SVGID_24_">
					<use xlink:href="#SVGID_23_"  overflow="visible"/>
				</clipPath>
				<path clip-path="url(#SVGID_24_)" fill="#0A090D" d="M268.144,251.745v-3.055c0-2.286,2.102-4.139,4.694-4.139
					c2.592,0,4.693,1.853,4.693,4.139v3.409C274.417,251.828,271.285,251.742,268.144,251.745"/>
			</g>
		</g>
		<path clip-path="url(#SVGID_4_)" fill="#B74147" d="M311.109,177.209c0,9.008,7.302,16.31,16.31,16.31h72.886
			c9.008,0,16.311-7.302,16.311-16.31V109.42c0-9.008-7.303-16.31-16.311-16.31h-72.886c-9.008,0-16.31,7.302-16.31,16.31V177.209z"
			/>
		<path clip-path="url(#SVGID_4_)" fill="#7C3137" d="M301.424,177.209c0,9.008,7.303,16.31,16.311,16.31h72.886
			c9.008,0,16.31-7.302,16.31-16.31V109.42c0-9.008-7.302-16.31-16.31-16.31h-72.886c-9.008,0-16.311,7.302-16.311,16.31V177.209z"
			/>
		<path clip-path="url(#SVGID_4_)" fill="#020204" d="M311.66,26.917c0,0,11.434-4.133,21.169-20.647
			c0,0-15.761-16.722-29.701,4.454c-2.23,3.388-2.618,7.005-1.947,10.531c0.084,1.255-1.056,5.694-4.088,7.125
			c-4.14,1.952-7.646,7.39-4.078,13.251c3.178,5.221-4.587,11.723-1.783,18.095c7.094,16.122,28.541,13.843,36.951,8.409
			c3.997-2.581-5.351-24.719-13.838-29.927L311.66,26.917z"/>
		<path clip-path="url(#SVGID_4_)" fill="#B74147" d="M257.348,238.224c0,6.376,5.169,11.546,11.546,11.546h22.129
			c6.376,0,11.545-5.17,11.545-11.546v-96.212c0-6.377-5.169-11.546-11.545-11.546h-22.129c-6.377,0-11.546,5.169-11.546,11.546
			V238.224z"/>
		<path clip-path="url(#SVGID_4_)" fill="#7C3137" d="M268.07,238.224c0,6.376,6.085,11.546,13.592,11.546h13.431
			c7.507,0,13.592-5.17,13.592-11.546v-96.212c0-6.377-6.085-11.546-13.592-11.546h-13.431c-7.507,0-13.592,5.169-13.592,11.546
			V238.224z"/>
		<path clip-path="url(#SVGID_4_)" fill="#53B571" d="M353.472,66.144c0,0,67.22,109.026,21.008,121.938h-84.269l4.076-30.582
			l31.262-15.629l-8.834-48.251L353.472,66.144z"/>
		<g opacity="0.15" clip-path="url(#SVGID_4_)">
			<g>
				<defs>
					<rect id="SVGID_25_" x="248.161" y="287.475" width="193.938" height="17.893"/>
				</defs>
				<clipPath id="SVGID_26_">
					<use xlink:href="#SVGID_25_"  overflow="visible"/>
				</clipPath>
				<path clip-path="url(#SVGID_26_)" fill="#01050E" d="M248.161,296.421c0,4.94,43.414,8.946,96.969,8.946
					s96.969-4.006,96.969-8.946c0-4.941-43.414-8.946-96.969-8.946S248.161,291.48,248.161,296.421"/>
			</g>
		</g>
		<path clip-path="url(#SVGID_4_)" fill="#E1C77C" d="M332.562,59.839c0,0,7.607-0.159,11.297,1.039
			c4.858,1.579,0.733-15.294,0.733-15.294l-15.473-0.296L332.562,59.839z"/>
		<path clip-path="url(#SVGID_4_)" fill="#7D4445" d="M335.921,63.415l-3.749-28.137l-12.222,14.21l1.559,15.523l-13.687,4.703
			c0,0-0.288,24.48,21.079,21.366c21.366-3.115,21.097-25.542,21.097-25.542L335.921,63.415z"/>
		<g opacity="0.1" clip-path="url(#SVGID_4_)">
			<g>
				<defs>
					<rect id="SVGID_27_" x="319.951" y="35.279" width="15.683" height="28.374"/>
				</defs>
				<clipPath id="SVGID_28_">
					<use xlink:href="#SVGID_27_"  overflow="visible"/>
				</clipPath>
				<path clip-path="url(#SVGID_28_)" fill="#010103" d="M335.633,61.254l-3.461-25.976l-12.222,14.21l1.536,14.164
					C326.19,62.76,330.908,61.969,335.633,61.254"/>
			</g>
		</g>
		<path clip-path="url(#SVGID_4_)" fill="#915857" d="M335.717,15.389c0,0-22.206-14.749-31.278,9.698
			c-5.843,15.747-1.124,27.938,7.865,31.782c6.992,2.991,15.899,0.533,23.437-9.514C352.048,25.618,350.48,16.907,335.717,15.389"/>
		<path clip-path="url(#SVGID_4_)" fill="#7D4445" d="M316.25,132.1c-0.021,4.479,0.093,8.238,4.341,10.443
			c4.248,2.206,4.107,2.179,4.107,2.179s-5.752,18.878,3.603-0.077c0,0,3.242,23.003,2.675-0.539c0,0,8.156,16.54,2.103-1.536
			c0,0,16.812,7.93-0.183-3.21l-10.369-6.156C322.526,133.204,323.548,135.084,316.25,132.1"/>
		<path clip-path="url(#SVGID_4_)" fill="#443F3F" d="M383.653,289.761c0,2.285,2.101,4.138,4.693,4.138s4.694-1.853,4.694-4.138
			V248.69c0-2.284-2.102-4.138-4.694-4.138s-4.693,1.854-4.693,4.138V289.761z"/>
		<g opacity="0.5" clip-path="url(#SVGID_4_)">
			<g>
				<defs>
					<rect id="SVGID_29_" x="383.652" y="244.551" width="9.388" height="7.549"/>
				</defs>
				<clipPath id="SVGID_30_">
					<use xlink:href="#SVGID_29_"  overflow="visible"/>
				</clipPath>
				<path clip-path="url(#SVGID_30_)" fill="#0A090D" d="M383.652,251.745v-3.055c0-2.286,2.102-4.139,4.694-4.139
					s4.694,1.853,4.694,4.139v3.409C389.924,251.828,386.793,251.742,383.652,251.745"/>
			</g>
		</g>
		<path clip-path="url(#SVGID_4_)" fill="#2E2A2C" d="M405.539,288.611c0,2.227,2.049,4.032,4.575,4.032s4.574-1.806,4.574-4.032
			v-40.026c0-2.228-2.048-4.032-4.574-4.032s-4.575,1.805-4.575,4.032V288.611z"/>
		<g opacity="0.5" clip-path="url(#SVGID_4_)">
			<g>
				<defs>
					<rect id="SVGID_31_" x="405.539" y="244.551" width="9.149" height="7.356"/>
				</defs>
				<clipPath id="SVGID_32_">
					<use xlink:href="#SVGID_31_"  overflow="visible"/>
				</clipPath>
				<path clip-path="url(#SVGID_32_)" fill="#0A090D" d="M405.539,251.562v-2.979c0-2.227,2.049-4.031,4.575-4.031
					s4.574,1.805,4.574,4.031v3.324C411.653,251.643,408.6,251.559,405.539,251.562"/>
			</g>
		</g>
		<path clip-path="url(#SVGID_4_)" fill="#2E2A2C" d="M293.039,288.611c0,2.227,2.048,4.032,4.575,4.032
			c2.526,0,4.574-1.806,4.574-4.032v-40.026c0-2.228-2.048-4.032-4.574-4.032c-2.527,0-4.575,1.805-4.575,4.032V288.611z"/>
		<g opacity="0.5" clip-path="url(#SVGID_4_)">
			<g>
				<defs>
					<rect id="SVGID_33_" x="293.039" y="244.551" width="9.149" height="7.356"/>
				</defs>
				<clipPath id="SVGID_34_">
					<use xlink:href="#SVGID_33_"  overflow="visible"/>
				</clipPath>
				<path clip-path="url(#SVGID_34_)" fill="#0A090D" d="M293.039,251.562v-2.979c0-2.227,2.048-4.031,4.575-4.031
					c2.526,0,4.574,1.805,4.574,4.031v3.324C299.153,251.643,296.1,251.559,293.039,251.562"/>
			</g>
		</g>
		<path clip-path="url(#SVGID_4_)" fill="#B74147" d="M258.091,238.224c0,6.376,5.169,11.546,11.546,11.546h129.887
			c6.376,0,11.545-5.17,11.545-11.546v-40.409c0-6.377-5.169-11.546-11.545-11.546H269.637c-6.377,0-11.546,5.169-11.546,11.546
			V238.224z"/>
		<path clip-path="url(#SVGID_4_)" fill="#B74147" d="M371.791,238.224c0,6.376,5.169,11.546,11.546,11.546h22.129
			c6.376,0,11.545-5.17,11.545-11.546v-96.212c0-6.377-5.169-11.546-11.545-11.546h-22.129c-6.377,0-11.546,5.169-11.546,11.546
			V238.224z"/>
		<path clip-path="url(#SVGID_4_)" fill="#7C3137" d="M382.939,238.224c0,6.376,5.169,11.546,11.545,11.546h22.129
			c6.377,0,11.546-5.17,11.546-11.546v-96.212c0-6.377-5.169-11.546-11.546-11.546h-22.129c-6.376,0-11.545,5.169-11.545,11.546
			V238.224z"/>
		<path clip-path="url(#SVGID_4_)" fill="#7D4445" d="M309.013,69.806c0,0-9.405,3.18-14.47,14.895
			c-5.063,11.714-9.063,43.475-7.391,49.185c1.674,5.709,43.826,14.052,46.235,8.744c2.41-5.308-29.415-17.664-29.415-17.664
			s5.017-23.351,8.299-30.753C315.385,87.191,309.013,69.806,309.013,69.806"/>
		<path clip-path="url(#SVGID_4_)" fill="#7D4445" d="M326.256,141.542c0.992-1.469,1.837-3.186,2.505-4.945
			c-11.134-6.601-24.788-11.632-24.788-11.632s-0.307-8.061,2.803-14.271c-5.713-3.896-8.973-4.478-15.385-7.464
			c-4.46,12.096-4.905,24.347-3.729,28.361c1.224,4.174,21.035,11.254,37.621,13.191
			C325.285,143.687,325.553,142.584,326.256,141.542"/>
		<path clip-path="url(#SVGID_4_)" fill="#5EBB7B" d="M307.823,69.714c0,0-17.476,30.711,5.465,40.722
			c21.307,9.299,58.757,3.089,40.184-44.292l-8.874-2.319c0,0,0.661,27.246-21.325,24.893c-15.016-1.607-14.144-14.13-11.338-20.542
			L307.823,69.714z"/>
		<path clip-path="url(#SVGID_4_)" fill="#7D4445" d="M294.289,157.5c0,0-18.349,5.437-14.271,39.586
			c4.078,34.15,39.246,92.764,39.246,92.764s11.724-79.512-13.252-103.977C306.011,185.874,313.657,161.749,294.289,157.5"/>
		<path clip-path="url(#SVGID_4_)" fill="#7D4445" d="M297.347,183.816l32.11,0.529c0,0-7.841-26.759-27.719-29.93
			c0,0-15.178,0.552-20.33,18.489C277.031,188.149,297.347,183.816,297.347,183.816"/>
		<path clip-path="url(#SVGID_4_)" fill="#915857" d="M312.454,162.265c0,0-16.844,9.084-5.849,41.671
			c10.995,32.588,58.531,85.914,58.531,85.914s-5.928-83.397-35.39-102.22C329.747,187.63,332.281,162.45,312.454,162.265"/>
		<path clip-path="url(#SVGID_4_)" fill="#915857" d="M319.773,186.364l32.11,0.529c0,0-6.116-25.371-25.993-28.543
			c0,0-17.84,0.529-21.917,15.857C299.895,189.535,319.773,186.364,319.773,186.364"/>
		<path clip-path="url(#SVGID_4_)" fill="#915857" d="M353.868,65.728c0,0,12.771,5.582,17.835,17.297
			c5.063,11.715,14.475,40.563,12.802,46.273c-1.674,5.709-55.649,15.899-58.06,10.591c-2.409-5.309,37.962-21.79,37.962-21.79
			s-10.654-20.502-13.798-27.964C342.2,70.174,353.868,65.728,353.868,65.728"/>
		<path clip-path="url(#SVGID_4_)" fill="#1E181A" d="M318.883,9.76c0,0-5.227,9.189,6.496,14.542
			c11.295,5.156,6.372,14.016,6.372,14.016s-5.604,6.794,1.019,13.507c3.056,3.097-4.684,12.567-0.509,16.31
			c14.78,13.252,29.726-0.155,32.365-8.665c2.639-8.509-10.856-18.558-9.967-21.5c0.889-2.941,4.51-9.937-2.309-15.607
			c-6.14-5.106-1.949-11.384-8.157-15.954C341.504,4.43,328.892-5.928,318.883,9.76"/>
		<path clip-path="url(#SVGID_4_)" fill="#7D4445" d="M311.364,276.598l-28.288,14.271l36.188-1.02
			C319.263,289.85,315.951,276.088,311.364,276.598"/>
		<polygon clip-path="url(#SVGID_4_)" fill="#53B571" points="283.076,290.87 319.264,289.85 319.264,293.164 282.566,293.164 		"/>
		<polygon clip-path="url(#SVGID_4_)" fill="#53B571" points="293.015,284.753 295.563,291.125 308.56,291.125 304.993,278.892 		
			"/>
		<path clip-path="url(#SVGID_4_)" fill="#915857" d="M357.236,276.598l-28.288,14.271l36.188-1.02
			C365.136,289.85,361.823,276.088,357.236,276.598"/>
		<polygon clip-path="url(#SVGID_4_)" fill="#53B571" points="328.948,290.87 365.135,289.85 365.135,293.164 328.438,293.164 		"/>
		<polygon clip-path="url(#SVGID_4_)" fill="#53B571" points="338.887,284.753 341.435,291.125 354.432,291.125 350.866,278.892 		
			"/>
		<path clip-path="url(#SVGID_4_)" fill="#915857" d="M336.338,131.337c0,0-32.365,11.723-10.194,6.88c0,0-16.473,6.911,0.301,1.672
			c0,0-12.278,8.012,2.248,1.387c0,0-12.742,8.919,6.881-0.255C355.197,131.846,336.338,131.337,336.338,131.337"/>
		<path clip-path="url(#SVGID_4_)" fill="#915857" d="M335.319,132.866c0,0-18.094-3.568-4.842,0.765
			C343.729,137.963,335.319,132.866,335.319,132.866"/>
		<g opacity="0.15" clip-path="url(#SVGID_4_)">
			<g>
				<defs>
					<rect id="SVGID_35_" x="147.857" y="341.479" width="151.888" height="17.893"/>
				</defs>
				<clipPath id="SVGID_36_">
					<use xlink:href="#SVGID_35_"  overflow="visible"/>
				</clipPath>
				<path clip-path="url(#SVGID_36_)" fill="#01050E" d="M147.857,350.425c0,4.94,34.001,8.946,75.944,8.946
					s75.944-4.006,75.944-8.946c0-4.941-34.001-8.946-75.944-8.946S147.857,345.484,147.857,350.425"/>
			</g>
		</g>
		<path clip-path="url(#SVGID_4_)" fill="#2E2A2C" d="M201.743,279.633c0,0-29.562,68.299-26.504,69.827
			c3.058,1.529,38.227-68.808,38.227-68.808s-1.019,70.847,3.058,70.847c4.078,0,6.626-70.847,6.626-70.847
			s47.177,75.963,49.95,66.26c1.019-3.568-39.246-69.318-39.246-69.318L201.743,279.633z"/>
		<g opacity="0.5" clip-path="url(#SVGID_4_)">
			<g>
				<defs>
					<rect id="SVGID_37_" x="198.086" y="277.594" width="43.591" height="12.894"/>
				</defs>
				<clipPath id="SVGID_38_">
					<use xlink:href="#SVGID_37_"  overflow="visible"/>
				</clipPath>
				<path clip-path="url(#SVGID_38_)" fill="#0A090D" d="M209.482,288.551c2.444-4.819,3.984-7.898,3.984-7.898
					s-0.045,3.146-0.078,8.08c3.138,0.146,6.276,0.308,9.412,0.49c0.23-5.227,0.35-8.57,0.35-8.57s2.184,3.516,5.634,8.931
					c4.3,0.278,8.597,0.576,12.893,0.903c-4.598-7.627-7.822-12.893-7.822-12.893l-32.111,2.039c0,0-1.444,3.337-3.657,8.543
					C201.887,288.269,205.685,288.394,209.482,288.551"/>
			</g>
		</g>
		<path clip-path="url(#SVGID_4_)" fill="#8E5C36" d="M148.251,269.808c0,6.958,33.945,12.6,75.817,12.6
			c41.873,0,75.817-5.642,75.817-12.6c0-6.96-33.944-12.602-75.817-12.602C182.196,257.207,148.251,262.848,148.251,269.808"/>
		<rect x="148.251" y="261.143" clip-path="url(#SVGID_4_)" fill="#8E5C36" width="151.634" height="8.665"/>
		<path clip-path="url(#SVGID_4_)" fill="#C29261" d="M148.251,261.143c0,6.959,33.945,12.601,75.817,12.601
			c41.873,0,75.817-5.642,75.817-12.601s-33.944-12.601-75.817-12.601C182.196,248.542,148.251,254.184,148.251,261.143"/>
		<path clip-path="url(#SVGID_4_)" fill="#B74147" d="M217.297,264.339c0,1.908-8.757,3.456-19.559,3.456
			s-19.559-1.548-19.559-3.456c0-0.395-0.27-1.491,0.419-1.845c2.644-1.355,10.57-1.611,19.14-1.611
			c8.713,0,16.78,0.221,19.309,1.611C217.654,262.829,217.297,263.97,217.297,264.339"/>
		<path clip-path="url(#SVGID_4_)" fill="#872D33" d="M217.297,263.016c0,1.908-8.757,3.456-19.559,3.456
			s-19.559-1.548-19.559-3.456c0-1.909,8.757-3.456,19.559-3.456S217.297,261.107,217.297,263.016"/>
		<g opacity="0.2" clip-path="url(#SVGID_4_)">
			<g>
				<defs>
					<rect id="SVGID_39_" x="185.569" y="260.866" width="24.337" height="4.3"/>
				</defs>
				<clipPath id="SVGID_40_">
					<use xlink:href="#SVGID_39_"  overflow="visible"/>
				</clipPath>
				<path clip-path="url(#SVGID_40_)" fill="#0A090D" d="M197.738,265.166c-6.72,0-12.168-0.963-12.168-2.149
					c0-1.188,5.448-2.15,12.168-2.15c6.72,0,12.168,0.963,12.168,2.15"/>
			</g>
		</g>
		<path clip-path="url(#SVGID_4_)" fill="#B74147" d="M274.382,258.733c0,1.908-8.757,3.456-19.56,3.456
			c-10.802,0-19.559-1.548-19.559-3.456c0-0.396-0.27-1.491,0.419-1.845c2.644-1.355,10.57-1.611,19.14-1.611
			c8.714,0,16.78,0.221,19.31,1.611C274.739,257.222,274.382,258.364,274.382,258.733"/>
		<path clip-path="url(#SVGID_4_)" fill="#872D33" d="M274.382,257.41c0,1.908-8.757,3.455-19.56,3.455
			c-10.802,0-19.559-1.547-19.559-3.455c0-1.909,8.757-3.456,19.559-3.456C265.625,253.954,274.382,255.5,274.382,257.41"/>
		<g opacity="0.2" clip-path="url(#SVGID_4_)">
			<g>
				<defs>
					<rect id="SVGID_41_" x="242.655" y="255.258" width="24.337" height="4.302"/>
				</defs>
				<clipPath id="SVGID_42_">
					<use xlink:href="#SVGID_41_"  overflow="visible"/>
				</clipPath>
				<path clip-path="url(#SVGID_42_)" fill="#0A090D" d="M266.992,257.41c0,1.188-5.448,2.149-12.169,2.149
					c-6.72,0-12.168-0.962-12.168-2.149c0-1.187,5.448-2.15,12.168-2.15C261.543,255.259,266.992,256.223,266.992,257.41"/>
			</g>
		</g>
		
			<ellipse clip-path="url(#SVGID_4_)" fill="none" stroke="#B74147" stroke-width="1.746" stroke-miterlimit="10" cx="182.51" cy="252.901" rx="4.242" ry="4.512"/>
		<path clip-path="url(#SVGID_4_)" fill="#872D33" d="M182.063,245.007c0,2.601,6.835,4.709,15.267,4.709
			c8.431,0,15.267-2.108,15.267-4.709c0-2.6-6.836-4.708-15.267-4.708C188.898,240.299,182.063,242.407,182.063,245.007"/>
		<path clip-path="url(#SVGID_4_)" fill="#614C44" d="M186.083,250.78c0,2.601,5.148,4.708,11.499,4.708s11.5-2.107,11.5-4.708
			s-5.149-4.709-11.5-4.709S186.083,248.179,186.083,250.78"/>
		<path clip-path="url(#SVGID_4_)" fill="#B74147" d="M197.331,249.716c7.953,0,14.479-1.876,15.195-4.271
			c0.073-0.061,0.141-0.13,0.212-0.194c-0.016,10.016-6.851,18.13-15.281,18.13c-8.335,0-15.1-7.936-15.267-17.796
			C183.114,247.913,189.534,249.716,197.331,249.716"/>
		
			<ellipse clip-path="url(#SVGID_4_)" fill="none" stroke="#B74147" stroke-width="1.746" stroke-miterlimit="10" cx="268.937" cy="248.048" rx="4.242" ry="4.511"/>
		<path clip-path="url(#SVGID_4_)" fill="#872D33" d="M269.383,240.155c0,2.601-6.835,4.708-15.267,4.708
			s-15.267-2.107-15.267-4.708s6.835-4.709,15.267-4.709S269.383,237.554,269.383,240.155"/>
		<path clip-path="url(#SVGID_4_)" fill="#614C44" d="M265.365,245.926c0,2.601-5.148,4.709-11.499,4.709
			s-11.499-2.108-11.499-4.709c0-2.6,5.148-4.708,11.499-4.708S265.365,243.326,265.365,245.926"/>
		<path clip-path="url(#SVGID_4_)" fill="#B74147" d="M254.117,244.863c-7.953,0-14.479-1.875-15.195-4.271
			c-0.072-0.061-0.141-0.13-0.212-0.195c0.017,10.016,6.851,18.13,15.28,18.13c8.336,0,15.101-7.937,15.268-17.796
			C268.333,243.059,261.914,244.863,254.117,244.863"/>
	</g>
</g>
</svg>
