<?xml version='1.0' encoding='utf-8'?>
<svg xmlns:xlink="http://www.w3.org/1999/xlink" xmlns="http://www.w3.org/2000/svg" id="Ebene_1" data-name="Ebene 1" viewBox="0 0 800 800"><defs><clipPath id="clip-path"><circle cx="400" cy="400" r="400" style="fill:none"/></clipPath><linearGradient id="Unbenannter_Verlauf_5" x1="203.849" y1="731.1823" x2="464.8543" y2="470.177" gradientUnits="userSpaceOnUse"><stop offset="0" stop-opacity="0"/><stop offset="1"/></linearGradient><linearGradient id="Unbenannter_Verlauf_5-2" x1="136.3333" y1="663.6666" x2="397.3386" y2="402.6613" xlink:href="#Unbenannter_Verlauf_5"/><linearGradient id="Unbenannter_Verlauf_5-3" x1="68.8177" y1="596.151" x2="329.823" y2="335.1457" xlink:href="#Unbenannter_Verlauf_5"/></defs><title>more</title><circle cx="400" cy="400" r="400" style="fill:#1c8adb"/><g style="clip-path:url(#clip-path)"><g style="opacity:0.42"><path d="M535.0313,357.0576a42.8314,42.8314,0,0,0-31.7835,14.0655L152.9354,721.4354l76.66,44.66L563.9082,431.7834a42.9426,42.9426,0,0,0-28.8769-74.7259Z" style="fill:url(#Unbenannter_Verlauf_5)"/><path d="M442.9424,400a42.9426,42.9426,0,0,0-74.7259-28.877L85.6083,653.7312l60.3468,60.9739L428.8769,431.7834A42.8315,42.8315,0,0,0,442.9424,400Z" style="fill:url(#Unbenannter_Verlauf_5-2)"/><path d="M307.9111,400a42.9426,42.9426,0,0,0-74.7259-28.877L31.6542,572.6541l40.2437,81.0771L293.8456,431.7834A42.8315,42.8315,0,0,0,307.9111,400Z" style="fill:url(#Unbenannter_Verlauf_5-3)"/></g><circle cx="264.9687" cy="400" r="42.9424" style="fill:#fff"/><circle cx="400" cy="400" r="42.9424" style="fill:#fff"/><circle cx="535.0313" cy="400" r="42.9424" style="fill:#fff"/></g></svg>