<svg id="Layer_1" data-name="Layer 1" xmlns="http://www.w3.org/2000/svg" xmlns:xlink="http://www.w3.org/1999/xlink" viewBox="0 0 200.27 200.3"><defs><style>.cls-1{fill:#ff4545;}.cls-2{fill:url(#linear-gradient);}.cls-3{fill:#fff;}</style><linearGradient id="linear-gradient" x1="178.47" y1="167.05" x2="-4.4" y2="15.15" gradientTransform="matrix(1, 0, 0, -1, 0, 200)" gradientUnits="userSpaceOnUse"><stop offset="0.15"/><stop offset="0.25" stop-color="#2c0c0c"/><stop offset="0.4" stop-color="#6b1d1d"/><stop offset="0.55" stop-color="#a02b2b"/><stop offset="0.69" stop-color="#c93636"/><stop offset="0.81" stop-color="#e73e3e"/><stop offset="0.92" stop-color="#f94343"/><stop offset="1" stop-color="#ff4545"/></linearGradient></defs><title>question</title><g id="Layer_1-2" data-name="Layer 1"><path class="cls-1" d="M200,99.86a100.24,100.24,0,0,1-69.45,95.35.39.39,0,0,1-.22,0,3.25,3.25,0,0,1-.81.28,1.73,1.73,0,0,1-.57.22,1.65,1.65,0,0,0-.48.1h-.1a3.92,3.92,0,0,0-.42.15,98.89,98.89,0,0,1-28.07,4c-2.12,0-4.2-.13-6.28-.23-.27,0-.52,0-.8,0-1.7-.1-3.4-.25-5.06-.47-.27-.05-.52-.05-.8-.1-3-.38-5.91-.9-8.78-1.53a100.15,100.15,0,0,1-70.37-58.5,4.41,4.41,0,0,1-.28-.58c-.7-1.65-1.4-3.31-2-5-.07-.22-.17-.42-.22-.65-.8-2.23-1.48-4.5-2.13-6.86-.05-.22-.1-.42-.15-.65-.48-1.75-.9-3.58-1.23-5.38a3.2,3.2,0,0,1-.15-.65c-.55-2.73-1-5.51-1.3-8.34A96.21,96.21,0,0,1-.32,99.86,105.23,105.23,0,0,1,.89,84.11c.22-1.4.47-2.73.75-4,.07-.38.17-.71.22-1.08A100.15,100.15,0,0,1,200,99.86Z" transform="translate(0.32 0.28)"/></g><g id="Layer_2" data-name="Layer 2"><path class="cls-2" d="M146.63,69.37c0,6.3-1,11.56-4.1,15.77-2.06,3.5-5.46,7.46-10.54,12.51l-.78.78-.75.75c-.25.25-.5.5-.77.75l-.78.78-.75.75c-.25.25-.5.5-.75.78l-.78.77-.75.75-.63.63h0s-.07.1-.12.12c-.25.25-.5.5-.78.75l-.75.76-.77.77-.76.75-.75.75-.77.78-.75.75-.78.78-.75.75c-.25.25-.5.5-.75.77s-.5.5-.78.75-.5.51-.77.76l-.75.75-.78.77-.53.53h0l-.22.22-.78.78a3.63,3.63,0,0,1-.27.28c-.85,2.2-.88,6.88-.88,12.51v.8H111V131h-.75v.76h-.78v.75h-.77v.77H108v.75h-.76v.78h-.75v.75h-.75v.75h-.77v.78h-.85v.75h-.76v.75h-.75v.78h-.75v.3h9.94v24.18H111v.75h-.75v.75h-.78v.78h-.77v.75H108v.77h-.76v.75h-.75v.76h-.75V170h-.77v.75h-.85v.75h-.76v.78h-.75V173h-.77v.75h-.75v.75h-.75v.75h-.78V176h-.75v.78H98v.77h-.75v.75h-.75v.75h-.78v.76H95v.77h-.77v.78h-.75v.75h-.76v.75h-.75v.75h-.77v.78h-.78v.75h-.75v.77h-.75v.75h-.75v.76h-.75v.77H86.6V189h-.77v.75h-.76v.78h-.75v.78h-.77V192H82.8v.75h-.75v.75h-.78v.75h-.75V195h-.78v.77H79v.75h-.75v.75A98.93,98.93,0,0,1,7.75,139.14a4.41,4.41,0,0,1-.28-.58c-.7-1.65-1.4-3.31-2-5-.07-.22-.17-.42-.22-.65-.8-2.23-1.48-4.5-2.13-6.86-.05-.22-.1-.42-.15-.65-.48-1.75-.9-3.58-1.23-5.38a3.2,3.2,0,0,1-.15-.65c-.55-2.73-1-5.51-1.3-8.34l.35-.32c.25-.25.5-.5.78-.75l.75-.76.75-.77c.25-.25.5-.5.75-.78s.5-.5.78-.75.5-.5.77-.75l.75-.75c.25-.25.5-.5.75-.78l.75-.75c.26-.25.51-.5.76-.77s.5-.5.77-.75.5-.51.78-.76.5-.5.75-.77l.75-.75c.25-.25.5-.5.75-.78s.5-.5.78-.75l.75-.75.77-.78.76-.75.75-.75.77-.77.75-.78c.25-.25.5-.5.78-.75l.75-.75.75-.75c.25-.25.5-.5.78-.75s.5-.53.75-.78.5-.5.75-.78.5-.5.78-.75.5-.5.77-.75l.75-.75c.25-.25.5-.5.75-.78l.75-.75c.25-.25.51-.5.76-.77s.5-.5.77-.75.5-.5.78-.76.5-.5.75-.77l.75-.75.78-.78.75-.75.75-.75.77-.78.75-.75.76-.75.77-.77.75-.76.78-.77.75-.75.75-.75c.25-.25.5-.5.78-.75s.5-.53.75-.78.5-.5.75-.78.5-.5.78-.75.5-.5.77-.75l.75-.75c.25-.25.5-.5.75-.78l.75-.75.76-.77c.25-.25.5-.5.77-.75s.5-.5.78-.75l.75-.78.75-.75.78-.78.75-.75.75-.75.77-.78.75-.75.78-.75c.25-.25.5-.5.75-.77l.75-.76.78-.77.75-.75.75-.75c.25-.25.5-.5.78-.75l.75-.78c.25-.25.5-.5.75-.78s.5-.5.77-.75l.78-.75.75-.75c.25-.25.5-.5.75-.78l.23-.22h0l.52-.53c.25-.25.5-.5.75-.77l.78-.75.78-.78a40.65,40.65,0,0,1,3.78-3.43C76.54,36,86.8,31.82,100.15,31.82c14.36,0,25.65,4.2,33.87,11.56A33.53,33.53,0,0,1,146.63,69.37Z" transform="translate(0.32 0.28)"/></g><g id="Layer_3" data-name="Layer 3"><path class="cls-3" d="M89.88,139v24.23h22.91V139Zm45.79-96.91c-8.34-7.39-19.78-11.59-34.35-11.59-13.52,0-23.93,4.2-32.27,11.59A37.76,37.76,0,0,0,62,49.34h0a33.12,33.12,0,0,0-6.46,20.18l21.86,3.15C79.47,65.29,82.6,59,86.75,55.82c4.16-4.2,9.36-5.25,15.62-5.25,7.29,0,12.49,1,15.62,5.25a15.1,15.1,0,0,1,6.24,12.64A17.16,17.16,0,0,1,121.1,78c-2.08,2.11-6.24,5.26-13.52,11.59A93.9,93.9,0,0,0,93,105.34a51.57,51.57,0,0,0-3.13,19v5.26h22.91c0-6.34,0-11.59,1-13.7l.07-.1h0c2.08-3.13,5.19-6.25,10.34-10.44l1-.92h0c9.79-9,15.72-15,18.75-20.13,3.13-4.2,4.16-9.49,4.16-15.8C148.16,59,144,49.49,135.67,42.13Z" transform="translate(0.32 0.28)"/></g></svg>