<svg id="Layer_4" data-name="Layer 4" xmlns="http://www.w3.org/2000/svg" xmlns:xlink="http://www.w3.org/1999/xlink" viewBox="0 0 199.44 199.48"><defs><style>.cls-1{fill:#3de851;}.cls-2{fill:url(#linear-gradient);}.cls-3{fill:#fff;}</style><linearGradient id="linear-gradient" x1="70.68" y1="67.08" x2="201.09" y2="189.34" gradientTransform="matrix(1, 0, 0, -1, 0, 201.46)" gradientUnits="userSpaceOnUse"><stop offset="0" stop-color="#3de851"/><stop offset="1"/></linearGradient></defs><title>Translate1</title><path class="cls-1" d="M199.44,99.72a99.8,99.8,0,0,1-69.16,95,.41.41,0,0,1-.22,0,3.17,3.17,0,0,1-.8.28,1.73,1.73,0,0,1-.57.22,1.58,1.58,0,0,0-.48.1h-.1l-.42.15a96.88,96.88,0,0,1-21.44,3.78q-3.23.21-6.51.21c-2.12,0-4.18-.12-6.25-.22-.28,0-.53-.05-.8-.05-1.7-.1-3.39-.25-5-.48-.27-.05-.52-.05-.79-.1A99.61,99.61,0,0,1,8,138.83a3.77,3.77,0,0,1-.28-.57c-.69-1.65-1.39-3.29-2-5-.07-.22-.17-.42-.22-.65-.8-2.22-1.47-4.48-2.12-6.83a3.2,3.2,0,0,0-.15-.65c-.47-1.74-.9-3.56-1.22-5.36a3.5,3.5,0,0,1-.15-.64A94.66,94.66,0,0,1,.18,105.71q-.18-3-.18-6A105.39,105.39,0,0,1,1.2,84c.22-1.4.47-2.72.74-4,.08-.38.18-.7.23-1.08a99.73,99.73,0,0,1,197.27,20.8Z" transform="translate(0 0.01)"/><path class="cls-2" d="M140.82,96v-9.8h-8v.65h-.65v.65h-.65v.65h-.65v.64h-.64v.63h-.65v.65h-.65v.65h-.65v.7h-.64v.65H127v.64h-.65v.65h-.65v.65H125v.65h-.65v.65h-.64V96h-.65v.08H110l.54-.73.09.11.56-.76.09.11.55-.76.1.11.55-.76.1.11.55-.75.1.11.55-.76.09.11.56-.76.09.11.56-.76.09.11.55-.76.1.12.55-.76.09.11.56-.76.09.11.56-.76.09.11.56-.76.09.11.55-.76.1.11.55-.76.1.12.55-.76.09.11.56-.76.09.11.55-.76.1.11.55-.76.1.11.55-.75.1.11.55-.76.09.11,3.53-4.83h.09V77.6h0l4.37-6-4.46-.08h0a4.58,4.58,0,0,0-.18-.94.51.51,0,0,0-.08-.33c-.08-.11,0-.21-.08-.32s-.06-.25-.1-.38c-.08-.29-.17-.58-.27-.88a1.35,1.35,0,0,0-.16-.45l-.12-.3-.13-.46a11.67,11.67,0,0,0-.67-1.43l-.13-.25a.41.41,0,0,1,0-.09l-.18-.31c-.27-.46-.57-.93-.9-1.39l-.23-.3-.24-.31h0l-.25-.3-.28-.33q-.24-.27-.51-.54l-.18-.19-.57-.55h0l-.33-.28-.36-.31-.19-.15-.38-.3-.2-.15-.2-.14q-.41-.3-.84-.57l-.21-.14-.51-.3-.41-.24-.48-.26-.21-.11-.29-.14-.25-.13-.31-.14-.75-.34-.28-.11c-.55-.23-1.13-.44-1.74-.64l-.3-.1-.63-.19c-.63-.19-1.29-.36-2-.52l-.41-.09-1-.21-.34-.06c-.61-.11-1.25-.21-1.9-.3l-.4,0c-.81-.1-1.65-.18-2.53-.24H104c-.77,0-1.57-.08-2.39-.1h-.78v.66h-.65v.65h-.65v.66h-.64v.66h-.65v.66h-.65v.66h-.65v.65h-.65v.66h-.64v.66H95v.66h-.65v.66h-.65v.67H93v.39H92.3v.66h-.65v.66H91v.68h-.65v.65H89.7v.66h-.64v.66h-.65v.66h-.65v.66h-.65v.65h-.65v.66h-.64v.66h-.65v.66h-.65V72h-.65v.66h-.65v.65h-.64V74h-.65v.66h-.65v.66h-.65V76h-.07L68.64,46.74h-9.5l-.26.65h-.39l-.26.65h-.39l-.26.65H57.2l-.27.64h-.38l-.26.65H55.9l-.26.65h-.39l-.26.65H54.6l-.26.65H54l-.27.64h-.38l-.26.65H52.7l-.26.65H52l-.26.65h-.39l-.26.64H50.7l-.26.65h-.38l-.26.65h-.38l-.26.65h-.39l-.26.65h-.39l-.26.65h-.39l-.26.64h-.38l-.26.65h-.39l-.26.65h-.39l-.26.65h-.39l-.26.65h-.38l-.27.64h-.38l-.26.65h-.39l-.26.65h-.39l-.26.65h-.39l-.26.65H41l-.26.65h-.38l-.27.64H39.7l-.26.65h-.39l-.26.65H38.4l-.26.65h-.39l-.26.64h-.38l-.27.65h-.38l-.26.65h-.39l-.26.65h-.39l-.26.65h-.39l-.26.64h-.38l-.26.65h-.39l-.26.65h-.39l-.26.65h-.39l-.26.65h-.39l-.27.65h-.38l-.27.64H30l-.26.65h-.39l-.26.65H28.7l-.26.65H28l-.26.65h-.38l-.27.64h-.38l-.26.65h-.39l-.26.65h-.39l-.26.65h-.39l-.26.64h-.39l-.26.65H23.5l-.27.65h-.38l-.26.65H22.2l-.26.65h-.39l-.26.65h-.38l-.27.64h-.38l-.26.65h-.39l-.26.65H19l-.26.65h-.39l-.26.65h-.38l-.27.64H17l-.26.65h-.39l-.26.65H15.7l-.26.65h-.39l-.26.65H14.4l-.26.65h-.38l-.27.64h-.38l-.26.65h-.39l-.26.65h-.39l-.26.65h-.39l-.26.64h-.38l-.27.65H9.89l-.26.65H9.24L9,97.29H8.59l-.26.65H8l-.27.64H7.3l-.3.65H6.65l-.26.65H6l-.26.65H5.35l-.26.65H4.7l-.26.65H4.06l-.27.64H3.41l-.26.65H2.76l-.26.65H2.11l-.26.65H1.46l-.26.65H.82l-.27.64H.18a94.9,94.9,0,0,0,1.74,13.43,3.5,3.5,0,0,0,.15.64c.32,1.8.75,3.62,1.22,5.36a2.92,2.92,0,0,0,.15.65c.65,2.35,1.32,4.61,2.12,6.83.05.23.15.43.22.65.58,1.7,1.28,3.34,2,5a3.77,3.77,0,0,0,.28.57,99.6,99.6,0,0,0,78.83,59.78,2.15,2.15,0,0,1,.79.1c1.65.23,3.34.38,5,.48.27,0,.52.05.8.05,2.07.1,4.13.22,6.25.22s4.36-.07,6.51-.21l.11-.32.38.1.27-.75.38.1.26-.74.39.09.26-.74.39.09.26-.74.38.1.27-.75.38.1.27-.75.38.1.26-.75.39.1.26-.74.38.09.27-.74.38.1.27-.75.38.1.27-.75.38.1.27-.74.38.09.26-.74.39.09.26-.74.38.1.27-.75.38.1.27-.75.38.1.27-.74.38.09.26-.74.39.09.26-.74.38.1.27-.75.38.1.27-.75.38.1.27-.75.38.1.26-.74.39.09.26-.74.39.1.26-.75.38.1.27-.75.38.1.27-.75.38.1.26-.74.39.09.26-.74.38.09.27-.74.38.1.27-.75.38.1.27-.75.38.1.26-.74.39.09.26-.74.38.1.27-.75.38.1.27-.75.38.1.27-.75.38.1.27-.74.38.09.26-.74.39.09.26-.74.38.1.27-.75.38.1.27-.75.38.1.26-.74.39.09.26-.74.39.09.26-.74.38.1.27-.75.38.1.27-.75.38.1.26-.75.39.1.26-.74.38.09.27-.74.38.1.27-.75.38.1.27-.75.38.1.27-.74.38.09.26-.74.39.09.26-.74.38.1.27-.75.38.1.27-.75.38.1.27-.75.38.1.26-.74.39.09.26-.74.38.1.27-.75.38.1.27-.75.38.1.26-.75.39.1.26-.74.39.09.26-.74.39.1.26-.75.38.1.27-.75.38.1.27-.75.38.1.26-.74.39.09.26-.74.23.06h.15l3-8.31c-10.09-3.25-13.68-8.87-13.68-8.87.51-.6,1-1.19,1.48-1.78.18-.22.35-.44.53-.65.65-.81,1.28-1.61,1.88-2.41l.53-.69c.82-1.09,1.6-2.17,2.34-3.22l.44-.63.55-.8.49-.74.09-.12h0v-.07l.35-.53h.26v-.41l.16-.24H151v-.71h.64v-.65h.65v-.64H153v-.65h.65v-.65h.65v-.65h.7v-.65h.64v-.65h.65v-.64h.65v-.65h.65V117h.65v-.65h.64v-.65h.65V115h.65v-.65h.65v-.65h.65v-.65h.65v-.63h.64v-.65h.65v-.65H164v-.7h.65v-.65h.64v-.65H166v-.64h.65v-.65h.65v-.65H168v-.65h.64v-.65h.65v-.64h.65v-.65h.65V96Zm-31,0,.06-.08L110,96Z" transform="translate(0 0.01)"/><path class="cls-3" d="M140.82,96v-9.8h-8V96H103.39V105h47.23c-4.46,13.37-15.15,25.51-15.15,25.51a91,91,0,0,1-11-20.79l-8,1.78c1.79,11,12.48,24.65,12.48,24.65-11,8.32-19.61,7.72-19.61,7.72l.3,8.91c12.77-.59,25.25-10.09,25.25-10.09,5.64,8.31,17.22,11,17.22,11l3-8.31c-10.11-3.25-13.7-8.87-13.7-8.87,14.85-17.53,18.71-31.78,18.71-31.78h10.4V96Z" transform="translate(0 0.01)"/><path class="cls-3" d="M68.64,46.74h-9.5l-.26.65L32.41,113H43.1L52.31,90.1H75.77L85,112.68H95.67L80.56,75.8ZM56.17,80.6l8-19,7.72,19Z" transform="translate(0 0.01)"/><path class="cls-3" d="M118.24,71.24l-4.2-.07,9.5,11.29,3.53-4.83h.09v-.16l4.38-6-4.47-.08c-1.12-6.61-6.24-16.14-26.37-16.33v8.31S114.11,62.1,118.24,71.24Z" transform="translate(0 0.01)"/><path class="cls-3" d="M73.9,127.46l4,.07-9.51-11.28-8,11,4.68.08c1.05,6.62,6,16.37,26.41,16.56v-8.31S77.91,136.83,73.9,127.46Z" transform="translate(0 0.01)"/></svg>