<?xml version="1.0" encoding="utf-8"?>
<!-- Generator: Adobe Illustrator 16.0.0, SVG Export Plug-In . SVG Version: 6.00 Build 0)  -->
<!DOCTYPE svg PUBLIC "-//W3C//DTD SVG 1.1//EN" "http://www.w3.org/Graphics/SVG/1.1/DTD/svg11.dtd">
<svg version="1.1" id="Capa_1" xmlns="http://www.w3.org/2000/svg" xmlns:xlink="http://www.w3.org/1999/xlink" x="0px" y="0px"
	 width="400px" height="400px" viewBox="0 0 400 400" enable-background="new 0 0 400 400" xml:space="preserve">
<g>
	<g>
		<path fill="#CC5C56" d="M90.866,125.096c-17.348-7.979-24.921-28.475-16.942-45.816c6.732-14.628,2.396-31.496-9.527-41.203
			c-2.75-2.239-2.059-6.597,1.27-7.829L147.479,0c17.348,7.979,24.921,28.476,16.942,45.816
			c-7.979,17.341-0.406,37.837,16.942,45.816c17.348,7.979,24.922,28.476,16.942,45.816c-7.979,17.348-0.406,37.837,16.942,45.816
			c17.348,7.979,24.922,28.476,16.943,45.816c-7.98,17.348-0.406,37.837,16.941,45.816c17.349,7.979,24.922,28.475,16.943,45.816
			c-6.702,14.575-2.428,31.367,9.398,41.098c2.803,2.299,2.104,6.731-1.3,7.994L192.528,400
			c-17.348-7.979-24.921-28.476-16.942-45.816c7.979-17.34,0.406-37.836-16.942-45.815s-24.921-28.476-16.942-45.816
			c7.979-17.349,0.406-37.837-16.942-45.815c-17.348-7.979-24.922-28.476-16.942-45.816
			C115.795,153.579,108.214,133.075,90.866,125.096"/>
		<path fill="#E6E6E6" d="M217.728,354.139c11.044-23.997,0.503-52.502-23.486-63.539c-12.179-5.605-17.536-20.084-11.924-32.277
			c11.037-23.998,0.503-52.504-23.486-63.54c-12.187-5.605-17.543-20.091-11.939-32.27c11.037-23.997,0.503-52.502-23.486-63.54
			c-11.923-5.485-17.303-19.467-12.284-31.481c15.703-23.486,9.685-34.764-4.2-44.418c-2.757-1.916-5.086-3.644-6.95-5.883
			l-22.675,8.385c4.673,8.821,11.45,13.577,16.176,16.853c1.067,0.736,2.404,1.675,3.253,2.366
			c-0.413,1.375-1.69,4.501-5.672,10.324c-0.376,0.541-0.707,1.127-0.984,1.728c-11.044,23.997-0.503,52.503,23.486,63.54
			c12.187,5.613,17.544,20.091,11.931,32.277c-11.037,23.99-0.503,52.496,23.494,63.533c12.187,5.611,17.543,20.09,11.931,32.277
			c-11.044,23.996-0.503,52.502,23.479,63.539c12.187,5.605,17.543,20.091,11.931,32.277c-6.927,15.057-3.403,36.462,4.854,52.127
			l22.337-8.257C217.352,378.512,214.061,362.104,217.728,354.139z"/>
		<path fill="#E6E6E6" d="M217.728,354.139c11.044-23.997,0.503-52.502-23.486-63.539c-12.179-5.605-17.536-20.084-11.924-32.277
			c11.037-23.998,0.503-52.504-23.486-63.54c-12.187-5.605-17.543-20.091-11.939-32.27c11.037-23.997,0.503-52.502-23.486-63.54
			c-11.923-5.485-17.303-19.467-12.284-31.481c15.703-23.486,9.685-34.764-4.2-44.418c-2.757-1.916-5.086-3.644-6.95-5.883
			l-22.675,8.385c4.673,8.821,11.45,13.577,16.176,16.853c1.067,0.736,2.404,1.675,3.253,2.366
			c-0.413,1.375-1.69,4.501-5.672,10.324c-0.376,0.541-0.707,1.127-0.984,1.728c-11.044,23.997-0.503,52.503,23.486,63.54
			c12.187,5.613,17.544,20.091,11.931,32.277c-11.037,23.99-0.503,52.496,23.494,63.533c12.187,5.611,17.543,20.09,11.931,32.277
			c-11.044,23.996-0.503,52.502,23.479,63.539c12.187,5.605,17.543,20.091,11.931,32.277c-6.927,15.057-3.403,36.462,4.854,52.127
			l22.337-8.257C217.352,378.512,214.061,362.104,217.728,354.139z"/>
		<path fill="#E85D65" d="M240.598,346.07c11.045-23.998,0.504-52.504-23.486-63.541c-12.179-5.604-17.536-20.082-11.924-32.277
			c11.037-23.996,0.504-52.502-23.486-63.539c-12.187-5.605-17.543-20.091-11.938-32.27c11.037-23.998,0.503-52.503-23.486-63.54
			c-11.924-5.485-17.303-19.467-12.284-31.48c15.703-23.487,9.685-34.764-4.2-44.419c-2.757-1.916-5.086-3.644-6.95-5.883
			l-22.675,8.385c4.673,8.821,11.451,13.577,16.176,16.853c1.067,0.736,2.404,1.675,3.253,2.367c-0.414,1.375-1.69,4.5-5.673,10.323
			c-0.375,0.541-0.706,1.127-0.984,1.728c-11.045,23.997-0.503,52.503,23.486,63.54c12.187,5.613,17.543,20.091,11.931,32.277
			c-11.037,23.99-0.503,52.495,23.494,63.532c12.187,5.613,17.543,20.092,11.931,32.277c-11.044,23.998-0.503,52.504,23.479,63.54
			c12.187,5.604,17.543,20.091,11.932,32.277c-6.928,15.057-3.404,36.462,4.854,52.127l22.336-8.257
			C240.23,370.443,236.932,354.033,240.598,346.07z"/>
	</g>
	<g>
		<path fill="#B63E32" d="M227.397,105.141c-13.704-13.299-14.035-35.14-0.736-48.844c11.21-11.555,12.735-28.903,4.718-42.029
			c-1.848-3.028,0.256-6.904,3.803-6.957l87.214-1.315c13.704,13.298,14.034,35.14,0.736,48.844
			c-13.299,13.705-12.968,35.545,0.736,48.844c13.704,13.298,14.034,35.14,0.736,48.844c-13.299,13.704-12.969,35.545,0.736,48.844
			c13.704,13.299,14.034,35.14,0.736,48.844c-13.299,13.705-12.969,35.545,0.736,48.844c13.704,13.299,14.034,35.141,0.736,48.844
			c-11.173,11.511-12.721,28.776-4.809,41.879c1.87,3.104-0.256,7.048-3.885,7.108l-87.034,1.314
			c-13.704-13.298-14.035-35.14-0.736-48.844s12.969-35.546-0.736-48.844c-13.704-13.298-14.035-35.14-0.736-48.844
			s12.969-35.546-0.736-48.845c-13.703-13.298-14.035-35.139-0.736-48.843C241.432,140.281,241.102,118.432,227.397,105.141"/>
		<path fill="#E6E6E6" d="M270.847,363.335c18.393-18.956,17.941-49.347-1.015-67.731c-9.624-9.34-9.857-24.771-0.511-34.404
			c18.393-18.955,17.942-49.348-1.015-67.739c-9.632-9.339-9.864-24.779-0.518-34.404c18.393-18.956,17.941-49.347-1.015-67.74
			c-9.422-9.136-9.843-24.11-1.112-33.772c22.623-16.92,20.699-29.565,10.819-43.292c-1.961-2.72-3.583-5.124-4.599-7.867
			l-24.178,0.368c1.473,9.873,6.281,16.612,9.647,21.278c0.759,1.044,1.714,2.374,2.276,3.313c-0.842,1.157-3.088,3.681-8.783,7.851
			c-0.533,0.391-1.036,0.827-1.502,1.3c-18.393,18.956-17.941,49.347,1.014,67.732c9.625,9.347,9.857,24.779,0.52,34.411
			c-18.393,18.956-17.936,49.34,1.021,67.732c9.624,9.347,9.857,24.778,0.518,34.411c-18.393,18.956-17.941,49.34,1.008,67.732
			c9.624,9.339,9.857,24.778,0.518,34.41c-11.54,11.895-15.334,33.262-12.765,50.775l23.817-0.361
			C262.387,386.19,264.738,369.631,270.847,363.335z"/>
		<path fill="#E6E6E6" d="M270.847,363.335c18.393-18.956,17.941-49.347-1.015-67.731c-9.624-9.34-9.857-24.771-0.511-34.404
			c18.393-18.955,17.942-49.348-1.015-67.739c-9.632-9.339-9.864-24.779-0.518-34.404c18.393-18.956,17.941-49.347-1.015-67.74
			c-9.422-9.136-9.843-24.11-1.112-33.772c22.623-16.92,20.699-29.565,10.819-43.292c-1.961-2.72-3.583-5.124-4.599-7.867
			l-24.178,0.368c1.473,9.873,6.281,16.612,9.647,21.278c0.759,1.044,1.714,2.374,2.276,3.313c-0.842,1.157-3.088,3.681-8.783,7.851
			c-0.533,0.391-1.036,0.827-1.502,1.3c-18.393,18.956-17.941,49.347,1.014,67.732c9.625,9.347,9.857,24.779,0.52,34.411
			c-18.393,18.956-17.936,49.34,1.021,67.732c9.624,9.347,9.857,24.778,0.518,34.411c-18.393,18.956-17.941,49.34,1.008,67.732
			c9.624,9.339,9.857,24.778,0.518,34.41c-11.54,11.895-15.334,33.262-12.765,50.775l23.817-0.361
			C262.387,386.19,264.738,369.631,270.847,363.335z"/>
		<path fill="#E85D65" d="M295.1,363.335c18.393-18.956,17.941-49.347-1.015-67.731c-9.624-9.34-9.857-24.771-0.511-34.404
			c18.393-18.955,17.941-49.348-1.014-67.739c-9.633-9.339-9.865-24.779-0.52-34.404c18.394-18.956,17.942-49.347-1.014-67.74
			c-9.422-9.136-9.842-24.11-1.111-33.772c22.622-16.92,20.698-29.565,10.818-43.292c-1.961-2.72-3.584-5.124-4.598-7.867
			l-24.178,0.368c1.473,9.873,6.281,16.612,9.646,21.278c0.759,1.044,1.713,2.374,2.277,3.313c-0.842,1.157-3.088,3.681-8.783,7.851
			c-0.533,0.391-1.037,0.827-1.503,1.3c-18.393,18.956-17.942,49.347,1.015,67.732c9.624,9.347,9.857,24.779,0.518,34.411
			c-18.393,18.956-17.934,49.34,1.021,67.732c9.625,9.347,9.857,24.778,0.52,34.411c-18.393,18.956-17.942,49.34,1.006,67.732
			c9.625,9.339,9.857,24.778,0.52,34.41c-11.541,11.895-15.336,33.262-12.766,50.775l23.816-0.361
			C286.64,386.19,288.991,369.631,295.1,363.335z"/>
	</g>
</g>
</svg>
