<?xml version="1.0" encoding="utf-8"?>
<!-- Generator: Adobe Illustrator 16.0.0, SVG Export Plug-In . SVG Version: 6.00 Build 0)  -->
<!DOCTYPE svg PUBLIC "-//W3C//DTD SVG 1.1//EN" "http://www.w3.org/Graphics/SVG/1.1/DTD/svg11.dtd">
<svg version="1.1" id="Capa_1" xmlns="http://www.w3.org/2000/svg" xmlns:xlink="http://www.w3.org/1999/xlink" x="0px" y="0px"
	 width="400px" height="400px" viewBox="0 0 400 400" enable-background="new 0 0 400 400" xml:space="preserve">
<g>
	<path fill="#659C35" d="M235.262,74.186c34.176,0,62.301,25.734,66.153,58.884c0.909-0.091,1.781-0.272,2.681-0.4
		c23.136-30.996,37.193-52.732,37.193-52.732c7.006-10.886,12.749-21.118,17.492-30.487C351.14,21.063,325.296,0.146,294.5,0.146
		c-36.803,0-66.645,29.833-66.645,66.644c0,2.636,0.191,5.216,0.491,7.761C230.619,74.313,232.927,74.186,235.262,74.186z"/>
	<path fill="#88C057" d="M235.071,207.465c0.063,0,0.127,0.01,0.19,0.01c2.98,0,5.898-0.264,8.778-0.646
		c22.208-25.171,41.864-49.96,57.611-70.924c-2.526-34.494-31.25-61.719-66.398-61.719c-36.802,0-66.644,29.833-66.644,66.644
		c0,1.254,0.118,2.472,0.191,3.708C204.275,144.646,233.136,172.462,235.071,207.465z"/>
	<path fill="#88C057" d="M61.601,343.07c29.86-6.997,60.828-24.789,90.833-48.043c0.9-4.361,1.372-8.878,1.372-13.504
		c0-36.802-29.833-66.644-66.644-66.644c-36.811,0-66.644,29.833-66.644,66.644C20.519,309.275,37.484,333.038,61.601,343.07z"/>
	<path fill="#659C35" d="M153.534,276.045c4.853,1.127,9.887,1.781,15.084,1.781c1.69,0,3.353-0.128,5.007-0.256
		c21.527-18.691,42.236-39.555,61.346-60.601c0.164-1.908,0.291-3.835,0.291-5.788c0-36.802-29.832-66.644-66.644-66.644
		s-66.644,29.833-66.644,66.644c0,1.854,0.127,3.671,0.272,5.479C130.053,223.104,151.153,246.894,153.534,276.045z"/>
	<g>
		<path fill="#436B1C" d="M263.295,80.429c2.881,1.345,5.652,2.881,8.297,4.607C268.947,83.3,266.176,81.765,263.295,80.429z"/>
		<path fill="#436B1C" d="M262.605,80.12c-2.945-1.327-5.98-2.499-9.143-3.398c-0.009,0.009-0.018,0.009-0.018,0.018
			C256.607,77.63,259.651,78.784,262.605,80.12z"/>
		<path fill="#436B1C" d="M286.367,98.194c-4.098-4.907-8.878-9.214-14.203-12.776C277.489,88.98,282.278,93.287,286.367,98.194z"/>
		<path fill="#436B1C" d="M299.943,125.137c-1.545-6.388-4.008-12.404-7.242-17.929
			C295.927,112.724,298.398,118.749,299.943,125.137z"/>
		<path fill="#436B1C" d="M292.21,106.381c-1.617-2.671-3.407-5.225-5.38-7.642C288.803,101.156,290.593,103.71,292.21,106.381z"/>
		<path fill="#436B1C" d="M384.116,9.85c0.245-1.045,0.354-1.599,0.354-1.599c3.871-10.768-8.979-7.906-8.979-7.906
			c-11.968,4.853-23.998,10.759-35.993,17.347c9.159,8.424,15.957,19.382,19.292,31.759c-4.744,9.36-10.487,19.592-17.493,30.487
			c0,0-14.058,21.736-37.192,52.731c-0.891,0.127-1.772,0.309-2.682,0.4c-0.29-2.481-0.754-4.907-1.309-7.306
			c0.764,3.299,1.301,6.679,1.555,10.141c-15.748,20.964-35.402,45.753-57.611,70.924c-2.881,0.382-5.798,0.646-8.778,0.646
			c-0.055,0-0.118-0.01-0.173-0.01c0.072,1.236,0.173,2.463,0.173,3.707c0,1.954-0.127,3.881-0.29,5.789
			c-19.102,21.055-39.811,41.909-61.347,60.602c-1.663,0.127-3.316,0.254-5.007,0.254c-5.18,0-10.195-0.654-15.039-1.771
			c0.146,1.808,0.228,3.625,0.228,5.47c0,4.626-0.473,9.142-1.372,13.503c-30.005,23.254-60.974,41.047-90.833,48.043
			c-12.431-5.17-22.899-14.029-30.187-25.17c-16.139,22.053-22.027,31.322-24.008,34.703l-1.699,1.553
			c0.509,1.373,2.453,3.844,5.37,7.025c45.244,49.342,112.042,51.858,171.89,6.287c101.056-76.939,186.583-203.094,186.583-203.094
			C412.895,95.432,386.615,22,384.116,9.85z"/>
	</g>
</g>
</svg>
