<?xml version="1.0" encoding="utf-8"?>
<!-- Generator: Adobe Illustrator 16.0.0, SVG Export Plug-In . SVG Version: 6.00 Build 0)  -->
<!DOCTYPE svg PUBLIC "-//W3C//DTD SVG 1.1//EN" "http://www.w3.org/Graphics/SVG/1.1/DTD/svg11.dtd">
<svg version="1.1" id="Capa_1" xmlns="http://www.w3.org/2000/svg" xmlns:xlink="http://www.w3.org/1999/xlink" x="0px" y="0px"
	 width="400px" height="400px" viewBox="0 0 400 400" enable-background="new 0 0 400 400" xml:space="preserve">
<g>
	<path fill="#A46F3E" d="M341.818,61.818H203.637h-7.273H58.182C26.182,61.818,0,88,0,120v43.636
		c0,16.058,6.611,30.625,17.229,41.164c7.964,7.905,11.862,19.048,11.862,30.27v52.007c0,28.109,22.997,51.105,51.105,51.105
		h116.167h7.273h122.516c24.618,0,44.757-20.139,44.757-44.756v-56.699c0-12.29,4.545-24.217,13.025-33.119
		C393.869,193.178,400,179.098,400,163.636V120C400,88,373.818,61.818,341.818,61.818z"/>
	<path fill="#FBD490" d="M165.542,61.818H58.182C26.182,61.818,0,88,0,120v43.636c0,16.058,6.611,30.625,17.229,41.164
		c7.964,7.905,11.862,19.048,11.862,30.27v52.007c0,28.109,22.997,51.105,51.105,51.105h54.771
		c25.767,0,46.851-21.084,46.851-46.851v-59.658c0-10.226,4.604-19.665,11.862-26.873c10.619-10.538,17.229-25.105,17.229-41.164
		v-56.451C210.909,82.233,190.495,61.818,165.542,61.818z"/>
	<path fill="#704928" d="M334.546,221.818h-65.455c-4.015,0-7.272-3.251-7.272-7.273c0-4.021,3.258-7.271,7.272-7.271h65.455
		c4.014,0,7.272,3.25,7.272,7.271C341.818,218.567,338.56,221.818,334.546,221.818z"/>
	<path fill="#704928" d="M240,221.818h-14.545c-4.016,0-7.273-3.251-7.273-7.273c0-4.021,3.258-7.271,7.273-7.271H240
		c4.015,0,7.273,3.25,7.273,7.271C247.273,218.567,244.015,221.818,240,221.818z"/>
	<path fill="#A46F3E" d="M69.091,254.545c-1.862,0-3.724-0.713-5.142-2.131c-2.844-2.844-2.844-7.439,0-10.283l10.909-10.909
		c2.843-2.844,7.44-2.844,10.283,0c2.844,2.844,2.844,7.44,0,10.284l-10.909,10.908C72.814,253.832,70.953,254.545,69.091,254.545z"
		/>
	<path fill="#A46F3E" d="M127.949,202.858c-1.535,0-3.084-0.48-4.4-1.483l-12.276-9.353c-3.193-2.437-3.811-6.997-1.375-10.189
		c2.429-3.192,6.989-3.811,10.189-1.382l12.276,9.346c3.192,2.437,3.811,6.997,1.375,10.189
		C132.306,201.869,130.146,202.858,127.949,202.858z"/>
	<path fill="#A46F3E" d="M87.266,309.091c-1.535,0-3.084-0.479-4.4-1.483l-12.276-9.346c-3.192-2.436-3.811-6.996-1.375-10.189
		c2.429-3.192,6.989-3.818,10.189-1.381l12.276,9.345c3.192,2.437,3.811,6.997,1.375,10.189
		C91.629,308.102,89.462,309.091,87.266,309.091z"/>
	<path fill="#A46F3E" d="M124.647,279.6c-3.135,0-6.029-2.036-6.967-5.199c-1.142-3.848,1.047-7.898,4.895-9.048l14.785-4.393
		c3.854-1.091,7.898,1.055,9.047,4.901c1.149,3.848-1.047,7.898-4.895,9.048l-14.786,4.393
		C126.036,279.506,125.331,279.6,124.647,279.6z"/>
	<path fill="#A46F3E" d="M38.742,123.636c-1.862,0-3.724-0.712-5.142-2.131c-2.844-2.844-2.844-7.44,0-10.284l10.909-10.909
		c2.843-2.843,7.44-2.843,10.284,0c2.843,2.844,2.843,7.44,0,10.284l-10.909,10.909C42.465,122.924,40.604,123.636,38.742,123.636z"
		/>
	<path fill="#A46F3E" d="M56.917,178.182c-1.535,0-3.084-0.48-4.4-1.483l-12.276-9.346c-3.193-2.436-3.811-6.996-1.375-10.189
		c2.429-3.2,6.989-3.818,10.189-1.382l12.276,9.346c3.192,2.436,3.811,6.996,1.375,10.189
		C61.28,177.193,59.113,178.182,56.917,178.182z"/>
	<path fill="#A46F3E" d="M174.684,173.84c-3.483,0-6.567-2.516-7.164-6.065l-2.567-15.214c-0.669-3.957,2-7.716,5.957-8.378
		c3.993-0.625,7.716,2,8.378,5.964l2.567,15.214c0.669,3.957-2,7.716-5.957,8.378C175.491,173.804,175.083,173.84,174.684,173.84z"
		/>
	<path fill="#A46F3E" d="M94.298,148.691c-3.135,0-6.029-2.037-6.967-5.2c-1.142-3.847,1.047-7.898,4.895-9.047l14.785-4.393
		c3.854-1.127,7.906,1.055,9.047,4.902c1.142,3.847-1.047,7.898-4.895,9.047l-14.785,4.393
		C95.688,148.596,94.989,148.691,94.298,148.691z"/>
	<path fill="#A46F3E" d="M152.567,118.313c-0.88,0-1.768-0.152-2.633-0.487l-14.385-5.585c-3.746-1.455-5.607-5.666-4.146-9.418
		c1.447-3.746,5.666-5.6,9.411-4.146l14.386,5.585c3.745,1.455,5.607,5.666,4.146,9.418
		C158.226,116.545,155.477,118.313,152.567,118.313z"/>
	<path fill="#775131" d="M338.975,101.062c4.262-12.175,4.88-26.328-7.28-37.186c-1.556-1.389-3.658-2.058-5.738-2.058h-8.771
		c-7.215,0-11.411,8.124-7.207,13.978c5.091,7.091,9.563,15.375,12.131,24.676C324.4,108.764,336.131,109.178,338.975,101.062z"/>
	<path fill="#775131" d="M270.669,101.062c4.262-12.175,4.88-26.328-7.28-37.186c-1.557-1.389-3.658-2.058-5.738-2.058h-8.771
		c-7.214,0-11.411,8.124-7.207,13.978c5.091,7.091,9.563,15.375,12.131,24.676C256.095,108.764,267.826,109.178,270.669,101.062z"/>
</g>
</svg>
