<svg height="464pt" viewBox="0 -8 464 464" width="464pt" xmlns="http://www.w3.org/2000/svg"><path d="m40 264h384v40h-384zm0 0" fill="#bf7341"/><path d="m40 344h384v40h-384zm0 0" fill="#bf7341"/><path d="m0 384h464c0 35.347656-28.652344 64-64 64h-336c-35.347656 0-64-28.652344-64-64zm0 0" fill="#dedede"/><path d="m400 384c0 35.347656-28.652344 64-64 64h64c35.347656 0 64-28.652344 64-64zm0 0" fill="#d4d4d4"/><path d="m40 184 264-184c72.472656 28.992188 119.996094 99.183594 120 177.238281v6.761719zm0 0" fill="#734730"/><g fill="#bf7341"><path d="m304 40h80c0 17.671875-14.328125 32-32 32h-16c-17.671875 0-32-14.328125-32-32zm0 0"/><path d="m224 96h80c0 17.671875-14.328125 32-32 32h-16c-17.671875 0-32-14.328125-32-32zm0 0"/><path d="m128 120h16c17.671875 0 32 14.328125 32 32h-80c0-17.671875 14.328125-32 32-32zm0 0"/><path d="m384 120h16c17.671875 0 32 14.328125 32 32h-80c0-17.671875 14.328125-32 32-32zm0 0"/></g><path d="m424 224h-384v40h49.160156c3.9375-.003906 7.710938 1.5625 10.496094 4.34375 2.78125 2.785156 4.347656 6.558594 4.34375 10.496094v10.320312c-.003906 3.9375 1.5625 7.710938 4.34375 10.496094 2.785156 2.78125 6.558594 4.347656 10.496094 4.34375h2.320312c3.9375.003906 7.710938-1.5625 10.496094-4.34375 2.78125-2.785156 4.347656-6.558594 4.34375-10.496094v-10.320312c-.003906-3.9375 1.5625-7.710938 4.34375-10.496094 2.785156-2.78125 6.558594-4.347656 10.496094-4.34375h273.160156zm0 0" fill="#8c563b"/><path d="m40 184v40h208c8.835938 0 16 7.164062 16 16v16c0 8.835938 7.164062 16 16 16s16-7.164062 16-16v-8c0-8.835938 7.164062-16 16-16s16 7.164062 16 16v40c0 8.835938 7.164062 16 16 16s16-7.164062 16-16v-48c0-8.835938 7.164062-16 16-16h48v-40zm0 0" fill="#69412c"/><path d="m40 304v40h208c8.835938 0 16 7.164062 16 16v8c0 8.835938 7.164062 16 16 16s16-7.164062 16-16v-8c0-8.835938 7.164062-16 16-16h112v-40zm0 0" fill="#8c563b"/></svg>