<?xml version="1.0" encoding="utf-8"?>
<!-- Generator: Adobe Illustrator 16.0.0, SVG Export Plug-In . SVG Version: 6.00 Build 0)  -->
<!DOCTYPE svg PUBLIC "-//W3C//DTD SVG 1.1//EN" "http://www.w3.org/Graphics/SVG/1.1/DTD/svg11.dtd">
<svg version="1.1" id="Capa_1" xmlns="http://www.w3.org/2000/svg" xmlns:xlink="http://www.w3.org/1999/xlink" x="0px" y="0px"
	 width="400px" height="400px" viewBox="0 0 400 400" enable-background="new 0 0 400 400" xml:space="preserve">
<g>
	<path fill="#88C057" d="M245.393,161.364c0,0,87.318-51.76,142.757,21.38c0,0,14.376,16.626,3.325,32.545
		c-10.874,15.649-35.147,12.324-47.231-4.267C333.341,196.059,307.071,177.063,245.393,161.364z"/>
	<path fill="#88C057" d="M245.393,161.364c0,0,53.104-85.974-15.176-136.553c0,0-22.533-20.255-42.888-13.046
		c-18.933,6.7-19.428,33.096-2.009,43.079C204.408,65.79,230.557,93.127,245.393,161.364z"/>
	<path fill="#88C057" d="M386.317,187.244c0,0,0.474,0.608,1.097,1.45c1.818-1.627,3.58-3.382,5.179-5.434
		c14.744-18.89,2.929-33.507,2.929-33.507c-43.766-65.839-145.629,5.709-145.629,5.709c4.902,0.34,9.486,0.778,13.923,1.246
		C292.943,146.082,347.447,135.965,386.317,187.244z"/>
	<path fill="#A4E869" d="M230.225,24.812c52.672,39.011,33.117,99.063,21.422,124.49c0.021,0.573,0.064,1.09,0.085,1.663
		c0,0,72.694-100.718,11.001-140.337c0,0-19.66-16.817-42.441-5.235c-3.912,1.988-7.287,4.563-10.104,7.471
		C221.586,17.064,230.225,24.812,230.225,24.812z"/>
	<path fill="#659C35" d="M356.992,43.376c-25.803-16.718-58.553,8.525-58.553,8.525c-5.434,6.509-10.364,13.513-14.914,20.708
		c-4.514,32.892-25.943,68.443-36.598,84.432c-0.63,2.221-1.16,4.167-1.528,5.568c12.346-8.292,48.308-30.727,83.653-36.535
		c8.773-5.816,17.136-12.205,24.416-19.138C392.486,69.787,356.992,43.376,356.992,43.376z"/>
	<path fill="#A4E869" d="M245.393,161.364c0,0,87.318-51.76,142.757,21.38c0,0,14.376,16.626,3.325,32.545
		c-10.874,15.649-35.147,12.324-47.231-4.267C333.341,196.059,307.071,177.063,245.393,161.364z"/>
	<g>
		<path fill="#F2681C" d="M250.281,153.532c-1.988,3.87-3.34,6.063-3.34,6.063s3.312-1.953,9-4.549
			C254.095,154.537,252.234,154.035,250.281,153.532z"/>
		<path fill="#ED8F20" d="M295.794,200.057c2.979-8.292,2.794-16.513,0.935-24.26c-13.295-5.582-29.616-11.072-49.787-16.202
			c-4.889-22.477-11.008-40.44-17.693-54.915c-9.219-3.205-19.301-4.344-29.503-0.679C167.731,115.504,26.955,318.052,0.63,388.674
			c-2.477,6.643,2.738,11.85,9.374,9.373C80.625,371.722,284.29,232.063,295.794,200.057z"/>
	</g>
	<g>
		<path fill="#DD7017" d="M58.269,331.508c-4.768-2.277-9.402-5.059-13.774-8.264c-3.156-2.32-7.577-1.627-9.884,1.521
			s-1.627,7.577,1.521,9.884c5.08,3.729,10.478,6.969,16.039,9.622c0.983,0.467,2.023,0.693,3.049,0.693
			c2.639,0,5.171-1.486,6.388-4.025C63.285,337.416,61.792,333.185,58.269,331.508z"/>
		<path fill="#DD7017" d="M277.06,196.852c-14.476-5.519-27.91-15.438-39.917-29.481c-2.539-2.971-7.004-3.318-9.975-0.778
			c-2.972,2.54-3.318,7.004-0.779,9.976c13.563,15.862,28.916,27.139,45.634,33.514c0.827,0.311,1.677,0.467,2.519,0.467
			c2.852,0,5.533-1.74,6.615-4.563C282.543,202.335,280.711,198.246,277.06,196.852z"/>
		<g>
			<path fill="#DD7017" d="M160.755,141.13c2.752,0.714,4.96,3.028,5.292,6.042c1.266,11.546,7.23,26.51,17.722,33.903
				c3.191,2.25,3.955,6.665,1.698,9.862c-1.373,1.953-3.566,2.993-5.788,2.993c-1.408,0-2.83-0.417-4.075-1.294
				c-14.157-9.983-21.197-27.925-23.234-41.367"/>
			<path fill="#DD7017" d="M175.606,192.635c1.238,0.877,2.66,1.294,4.075,1.294c2.221,0,4.415-1.04,5.787-2.993
				c2.25-3.198,1.493-7.605-1.698-9.862c-10.485-7.4-16.456-22.364-17.722-33.903c-0.333-3.007-2.54-5.328-5.292-6.042
				c-2.724,3.233-5.512,6.587-8.384,10.131C154.41,164.71,161.449,182.652,175.606,192.635z"/>
		</g>
		<g>
			<path fill="#DD7017" d="M214.709,272.936c-13.372-2.166-30.911-9.212-40.737-23.143c-2.25-3.19-1.486-7.605,1.705-9.862
				c3.184-2.25,7.605-1.485,9.862,1.705c7.393,10.478,22.356,16.456,33.902,17.723c3.1,0.339,5.42,2.653,6.057,5.532"/>
			<path fill="#DD7017" d="M219.449,259.358c-11.554-1.267-26.517-7.237-33.903-17.723c-2.25-3.19-6.679-3.962-9.862-1.705
				c-3.198,2.25-3.962,6.665-1.705,9.862c9.827,13.931,27.365,20.977,40.737,23.143c3.672-2.71,7.272-5.385,10.789-8.037
				C224.868,262.012,222.541,259.697,219.449,259.358z"/>
		</g>
		<g>
			<path fill="#DD7017" d="M104.397,215.147c2.823,0.665,5.094,2.999,5.434,6.056c0.792,7.252,4.493,16.619,10.959,21.189
				c3.191,2.25,3.955,6.664,1.698,9.862c-1.379,1.953-3.565,2.993-5.787,2.993c-1.408,0-2.83-0.418-4.075-1.295
				c-9.396-6.629-14.433-18.111-16.265-27.344"/>
			<path fill="#DD7017" d="M112.632,253.953c1.238,0.877,2.66,1.295,4.075,1.295c2.221,0,4.408-1.04,5.787-2.993
				c2.25-3.19,1.493-7.605-1.698-9.862c-6.474-4.57-10.167-13.93-10.959-21.189c-0.333-3.063-2.604-5.398-5.433-6.056
				c-2.682,3.785-5.356,7.605-8.037,11.461C98.199,235.842,103.237,247.324,112.632,253.953z"/>
		</g>
		<g>
			<path fill="#DD7017" d="M127.518,332.852c-9.601-1.252-22.951-6.281-30.316-16.731c-2.25-3.198-1.493-7.605,1.698-9.862
				c3.198-2.264,7.612-1.486,9.862,1.697c4.57,6.475,13.931,10.167,21.182,10.959c3.884,0.426,6.686,3.92,6.261,7.805
				c-0.021,0.219-0.141,0.402-0.184,0.615"/>
			<path fill="#DD7017" d="M129.944,318.922c-7.251-0.793-16.619-4.492-21.182-10.959c-2.25-3.191-6.657-3.962-9.862-1.698
				c-3.191,2.25-3.955,6.665-1.698,9.862c7.372,10.449,20.715,15.48,30.316,16.732c2.83-1.818,5.667-3.665,8.504-5.512
				c0.042-0.212,0.163-0.396,0.184-0.615C136.637,322.848,133.829,319.346,129.944,318.922z"/>
		</g>
	</g>
</g>
</svg>
