<?xml version="1.0" encoding="utf-8"?>
<!-- Generator: Adobe Illustrator 16.0.0, SVG Export Plug-In . SVG Version: 6.00 Build 0)  -->
<!DOCTYPE svg PUBLIC "-//W3C//DTD SVG 1.1//EN" "http://www.w3.org/Graphics/SVG/1.1/DTD/svg11.dtd">
<svg version="1.1" id="Capa_1" xmlns="http://www.w3.org/2000/svg" xmlns:xlink="http://www.w3.org/1999/xlink" x="0px" y="0px"
	 width="400px" height="400px" viewBox="0 0 400 400" enable-background="new 0 0 400 400" xml:space="preserve">
<g>
	<path fill="#F4C647" d="M321.153,139.338v39.316l34.085,4.482l-0.015-81.309c-0.557-22.667-79.845-48.13-177.597-48.13
		c-97.759,0-177.048,25.471-177.598,48.13L0,232.115c0,22.773,76.62,50.75,174.722,50.75c1.242,0,2.462-0.015,3.697-0.021V153.611
		l-33.571-51.542L321.153,139.338z"/>
	<path fill="#F9E295" d="M178.418,224.979v-71.367l-33.571-51.542l176.306,37.268v39.316l-99.915-10.769v71.367
		C221.238,239.252,178.269,224.801,178.418,224.979z"/>
	<path fill="#EEAF4B" d="M177.626,53.697C79.525,53.697,0,79.296,0,102.07c0,22.773,76.62,51.542,174.714,51.542
		c1.235,0,2.455-0.015,3.683-0.021l-33.55-51.52l178.74,37.268c19.94-6.666,31.658-28.54,31.658-37.268
		C355.253,79.296,275.729,53.697,177.626,53.697z"/>
	<path fill="#F4C647" d="M256.923,206.758v139.545c58.971-0.277,111.661-7.229,143.077-17.734V189.017l-178.762-23.487
		L256.923,206.758z"/>
	<path fill="#EEAF4B" d="M221.582,165.529l35.662,41.208c58.721-0.356,111.126-7.322,142.328-17.821L221.582,165.529z"/>
	<polygon fill="#FCDF76" points="256.923,206.758 256.923,346.303 221.238,303.482 221.238,165.529 	"/>
</g>
</svg>
