<svg height="464pt" viewBox="0 0 464 464" width="464pt" xmlns="http://www.w3.org/2000/svg"><path d="m256.089844 391.777344c4.28125-8.046875 7.734375-16.507813 10.308594-25.25l69.601562-170.847656c4.859375-11.925782 2.097656-25.597657-7.007812-34.703126l-25.953126-25.953124c-9.101562-9.117188-22.785156-11.886719-34.71875-7.023438l-170.847656 69.601562c-8.742187 2.566407-17.203125 6.011719-25.25 10.285157l-.222656.113281c-51.4375 27.433594-79.667969 84.59375-70.191406 142.113281 9.480468 57.519531 54.558594 102.597657 112.078125 112.078125 57.519531 9.476563 114.679687-18.753906 142.113281-70.191406zm0 0" fill="#eb922a"/><path d="m303.023438 135.023438c-9.101563-9.109376-22.777344-11.878907-34.703126-7.023438l-170.847656 69.601562c-8.742187 2.566407-17.203125 6.011719-25.25 10.285157l-.222656.113281c-17.238281 9.25-32.292969 22.09375-44.144531 37.664062l18.167969 19.398438c31.125 33.253906 78.765624 45.335938 121.976562 30.9375 30.492188-10.15625 63.820312-7.324219 92.160156 7.839844 14.097656 7.542968 26.046875 13.984375 26.046875 13.984375l49.792969-122.144531c4.859375-11.925782 2.097656-25.597657-7.007812-34.703126zm0 0" fill="#f09e3e"/><g fill="#ffb433"><path d="m96 224h16v16h-16zm0 0"/><path d="m168 248h16v16h-16zm0 0"/><path d="m272 232h16v16h-16zm0 0"/><path d="m240 168h16v16h-16zm0 0"/></g><path d="m450.398438 47.007812c-4.042969-3.308593-8.832032-5.578124-13.949219-6.617187-6.558594-1.101563-11.699219-6.238281-12.800781-12.796875-1.046876-5.140625-3.328126-9.941406-6.65625-13.992188-5.882813-8.269531-15.304688-13.304687-25.449219-13.601562-10.960938.152344-21.082031 5.910156-26.820313 15.253906-5.734375 9.34375-6.289062 20.972656-1.464844 30.816406 2.792969 6.21875 1.367188 13.523438-3.5625 18.234376l-63.695312 63.695312 40 40 63.695312-63.695312c4.710938-4.929688 12.015626-6.355469 18.234376-3.5625 9.847656 4.824218 21.476562 4.269531 30.820312-1.46875 9.34375-5.738282 15.097656-15.863282 15.25-26.824219-.296875-10.144531-5.332031-19.558594-13.601562-25.441407zm0 0" fill="#f0dbc2"/></svg>