<?xml version="1.0" encoding="utf-8"?>
<!-- Generator: Adobe Illustrator 16.0.0, SVG Export Plug-In . SVG Version: 6.00 Build 0)  -->
<!DOCTYPE svg PUBLIC "-//W3C//DTD SVG 1.1//EN" "http://www.w3.org/Graphics/SVG/1.1/DTD/svg11.dtd">
<svg version="1.1" id="Capa_1" xmlns="http://www.w3.org/2000/svg" xmlns:xlink="http://www.w3.org/1999/xlink" x="0px" y="0px"
	 width="400px" height="400px" viewBox="0 0 400 400" enable-background="new 0 0 400 400" xml:space="preserve">
<g>
	<g>
		<polygon fill="#4C312C" points="178.702,0 178.702,49.695 129.007,49.695 129.007,99.39 79.313,99.39 79.313,205.878 
			320.688,56.794 320.688,0 		"/>
	</g>
	<g>
		<path fill="#583E68" d="M320.688,347.863V56.794l-63.894,234.275L79.313,212.978v134.886l-14.199,35.496
			c12.388,11.678,46.088,12.516,59.492,2.506c1.739-1.299,4.224-1.299,5.957,0c12.374,9.243,29.944,9.243,42.318,0
			c1.739-1.299,4.224-1.299,5.957,0c12.374,9.243,29.944,9.243,42.319,0c1.738-1.299,4.224-1.299,5.956,0
			c12.374,9.243,29.944,9.243,42.318,0c1.739-1.299,4.224-1.299,5.956,0c13.404,10.01,47.104,9.172,59.492-2.506L320.688,347.863z"
			/>
	</g>
	<path fill="#6A3311" d="M320.688,42.596h-35.496V0h-14.199v42.596h-35.496V0h-14.198v42.596h-35.496V0h-7.1v49.695h-49.695V99.39
		H79.313v7.099h42.595v35.496H79.313v14.199h42.595v15.043l-42.595,26.31v8.341L320.688,56.794V42.596z M136.107,162.459v-6.275
		h10.159L136.107,162.459z M171.603,140.53l-2.35,1.455h-33.146v-35.496h35.496V140.53z M171.603,92.29h-35.496V56.794h35.496V92.29
		z M221.298,109.839l-35.496,21.923v-25.273h35.496V109.839z M221.298,92.29h-35.496V56.794h35.496V92.29z M270.992,79.143
		l-21.297,13.155V92.29h-14.199V56.794h35.496V79.143z M285.191,70.375V56.794h21.986L285.191,70.375z"/>
	<path fill="#6F58A8" d="M97.302,400c-14.397,0-29.057-3.926-37.058-11.473l9.74-10.329c9.641,9.08,39.309,10.244,50.376,1.98
		c4.245-3.188,10.187-3.181,14.454-0.007c9.797,7.319,24.017,7.313,33.821,0.007c4.267-3.188,10.208-3.188,14.461,0
		c9.783,7.306,24.01,7.306,33.821,0c4.245-3.188,10.188-3.181,14.453-0.007c9.797,7.319,24.018,7.313,33.821,0.007
		c4.253-3.188,10.194-3.181,14.454-0.007c11.082,8.271,40.735,7.113,50.376-1.974l9.74,10.329
		c-14.348,13.524-50.071,15.413-67.329,3.934c-14.426,9.967-33.856,9.96-48.289,0.007c-14.433,9.96-33.849,9.953-48.275,0
		c-14.44,9.96-33.863,9.953-48.289-0.007C119.949,397.529,108.704,400,97.302,400z"/>
	<rect x="107.71" y="340.764" fill="#6F58A8" width="14.198" height="14.199"/>
	<rect x="129.007" y="340.764" fill="#6F58A8" width="14.199" height="14.199"/>
	<rect x="150.305" y="340.764" fill="#6F58A8" width="14.199" height="14.199"/>
	<rect x="171.603" y="340.764" fill="#6F58A8" width="14.199" height="14.199"/>
	<rect x="192.901" y="340.764" fill="#6F58A8" width="14.199" height="14.199"/>
	<rect x="214.199" y="340.764" fill="#6F58A8" width="14.197" height="14.199"/>
	<rect x="235.496" y="340.764" fill="#6F58A8" width="14.199" height="14.199"/>
	<rect x="256.794" y="340.764" fill="#6F58A8" width="14.198" height="14.199"/>
	<rect x="278.092" y="340.764" fill="#6F58A8" width="14.198" height="14.199"/>
	<polygon fill="#372742" points="79.313,205.878 320.688,56.794 270.992,326.565 79.313,212.978 	"/>
	<g>
		<polygon fill="#E6E6E6" points="79.313,205.878 320.688,56.794 256.794,291.069 79.313,212.978 		"/>
		<path fill="#E6E6E6" d="M259.129,295.975L75.756,215.292v-11.395L326.48,49.042L259.129,295.975z M82.862,210.663l171.589,75.501
			l60.443-221.618L82.862,207.859V210.663z"/>
	</g>
</g>
</svg>
