<svg height="416pt" viewBox="-21 0 416 416.00167" width="416pt" xmlns="http://www.w3.org/2000/svg"><path d="m296 152-23.03125 8.851562-193.3125-.851562-23.65625-8c0-26.507812 21.492188-48 48-48h144c26.511719 0 48 21.492188 48 48zm0 0" fill="#fbedbf"/><path d="m119.992188 80c-4.417969 0-8-3.578125-8-8 .109374-6.375-2.199219-12.554688-6.464844-17.292969-6.261719-7.480469-9.644532-16.949219-9.535156-26.707031-.175782-8.871094 2.640624-17.542969 8-24.613281 2.550781-3.609375 7.542968-4.46875 11.152343-1.921875 3.609375 2.550781 4.46875 7.542968 1.921875 11.152344-3.457031 4.367187-5.253906 9.820312-5.074218 15.382812-.109376 6.378906 2.207031 12.558594 6.472656 17.296875 6.261718 7.480469 9.640625 16.953125 9.527344 26.703125 0 4.421875-3.582032 8-8 8zm0 0" fill="#fbedbf"/><path d="m175.992188 80c-4.417969 0-8-3.578125-8-8 .109374-6.375-2.199219-12.554688-6.464844-17.292969-6.261719-7.480469-9.644532-16.949219-9.535156-26.707031-.175782-8.871094 2.640624-17.542969 8-24.613281 2.550781-3.609375 7.542968-4.46875 11.152343-1.921875 3.609375 2.550781 4.46875 7.542968 1.921875 11.152344-3.457031 4.367187-5.253906 9.820312-5.074218 15.382812-.109376 6.378906 2.207031 12.558594 6.472656 17.296875 6.261718 7.480469 9.640625 16.953125 9.527344 26.703125 0 4.421875-3.582032 8-8 8zm0 0" fill="#fbedbf"/><path d="m231.992188 80c-4.417969 0-8-3.578125-8-8 .109374-6.375-2.199219-12.554688-6.464844-17.292969-6.261719-7.480469-9.644532-16.949219-9.535156-26.707031-.175782-8.871094 2.640624-17.542969 8-24.613281 2.550781-3.609375 7.542968-4.46875 11.152343-1.921875 3.609375 2.550781 4.46875 7.542968 1.921875 11.152344-3.457031 4.367187-5.253906 9.820312-5.074218 15.382812-.109376 6.378906 2.207031 12.558594 6.472656 17.296875 6.261718 7.480469 9.640625 16.953125 9.527344 26.703125 0 4.421875-3.582032 8-8 8zm0 0" fill="#fbedbf"/><path d="m232 360-8 8h-96l-8-8-32.800781-58.269531c-25.703125-45.714844-39.203125-97.28125-39.199219-149.730469h256c.007812 52.449219-13.492188 104.015625-39.199219 149.730469zm0 0" fill="#ebebeb"/><g fill="#daa857"><path d="m167.992188 112h16v16h-16zm0 0"/><path d="m199.992188 120h16v16h-16zm0 0"/><path d="m231.992188 104h16v16h-16zm0 0"/><path d="m103.992188 104h16v16h-16zm0 0"/><path d="m135.992188 120h16v16h-16zm0 0"/></g><path d="m271.921875 304h-15.921875v-32h16.800781c13.164063.207031 26.105469-3.425781 37.238281-10.453125 16.589844-10.738281 27.378907-28.449219 29.3125-48.113281l2.96875-29.433594h-54.320312v-32h54.320312c9.042969 0 17.664063 3.828125 23.734376 10.535156 6.066406 6.707032 9.011718 15.667969 8.105468 24.667969l-2.941406 29.429687c-2.78125 28.351563-17.925781 54.03125-41.386719 70.183594-17.105469 11.488282-37.308593 17.484375-57.910156 17.183594zm0 0" fill="#ebebeb"/><path d="m0 376c0 8.839844 7.164062 16 16 16h88l8 24h128l8-24h88c8.835938 0 16-7.160156 16-16 0-8.835938-7.164062-16-16-16h-320c-8.835938 0-16 7.164062-16 16zm0 0" fill="#e4e4e2"/></svg>