<?xml version="1.0" encoding="utf-8"?>
<!-- Generator: Adobe Illustrator 16.0.0, SVG Export Plug-In . SVG Version: 6.00 Build 0)  -->
<!DOCTYPE svg PUBLIC "-//W3C//DTD SVG 1.1//EN" "http://www.w3.org/Graphics/SVG/1.1/DTD/svg11.dtd">
<svg version="1.1" id="Capa_1" xmlns="http://www.w3.org/2000/svg" xmlns:xlink="http://www.w3.org/1999/xlink" x="0px" y="0px"
	 width="400px" height="400px" viewBox="0 0 400 400" enable-background="new 0 0 400 400" xml:space="preserve">
<g>
	<g>
		<path fill="#6A3311" d="M104.301,246.381c0-80.856,65.544-146.4,146.4-146.4c1.742,0,3.428,0.2,5.148,0.257
			C240.917,46.505,193.019,7.142,136.116,7.142c-68.844,0-124.654,57.553-124.654,128.546c0,59.888,39.771,110.064,93.524,124.34
			C104.572,255.528,104.301,250.986,104.301,246.381z"/>
		<path fill="#6A3311" d="M113.049,269.555l-9.891-2.621c-58.196-15.455-98.837-69.43-98.837-131.246
			C4.321,60.867,63.445,0,136.116,0c58.46,0,110.528,40.435,126.618,98.331l2.606,9.37l-9.712-0.321
			c-0.808-0.021-1.615-0.079-2.414-0.136c-0.843-0.057-1.672-0.121-2.514-0.121c-76.785,0-139.259,62.473-139.259,139.259
			c0,3.97,0.214,8.212,0.657,12.982L113.049,269.555z M136.116,14.283c-64.802,0-117.513,54.461-117.513,121.405
			c0,51.869,31.858,97.538,78.613,114.428c-0.036-1.271-0.057-2.514-0.057-3.734c0-83.091,66.351-150.985,148.842-153.471
			C228.941,46.162,185.021,14.283,136.116,14.283z"/>
	</g>
	<g>
		<path fill="#6A3311" d="M104.301,246.381c0-80.856,65.544-146.4,146.4-146.4c1.742,0,3.428,0.2,5.148,0.257
			C240.917,46.505,193.019,7.142,136.116,7.142c-68.844,0-124.654,57.553-124.654,128.546c0,59.888,39.771,110.064,93.524,124.34
			C104.572,255.528,104.301,250.986,104.301,246.381z"/>
		<path fill="#6A3311" d="M113.049,269.555l-9.891-2.621c-58.196-15.455-98.837-69.43-98.837-131.246
			C4.321,60.867,63.445,0,136.116,0c58.46,0,110.528,40.435,126.618,98.331l2.606,9.37l-9.712-0.321
			c-0.808-0.021-1.615-0.079-2.414-0.136c-0.843-0.057-1.672-0.121-2.514-0.121c-76.785,0-139.259,62.473-139.259,139.259
			c0,3.97,0.214,8.212,0.657,12.982L113.049,269.555z M136.116,14.283c-64.802,0-117.513,54.461-117.513,121.405
			c0,51.869,31.858,97.538,78.613,114.428c-0.036-1.271-0.057-2.514-0.057-3.734c0-83.091,66.351-150.985,148.842-153.471
			C228.941,46.162,185.021,14.283,136.116,14.283z"/>
	</g>
	<path fill="#8C572C" d="M114.97,191.669c4.399-10.905,10.105-21.125,16.875-30.544c-2.942-10.526-12.505-18.296-23.974-18.296
		c-13.804,0-24.995,11.19-24.995,24.995c0,13.804,11.191,24.995,24.995,24.995C110.357,192.819,112.707,192.348,114.97,191.669z"/>
	<g>
		<path fill="#A46F3E" d="M18.604,114.263c0,0,12.498,11.162,35.707,14.283"/>
		<path fill="#A46F3E" d="M54.318,135.688c-0.314,0-0.643-0.021-0.964-0.064c-25.095-3.378-38.936-15.519-39.514-16.033
			c-2.942-2.628-3.2-7.142-0.571-10.084c2.614-2.942,7.105-3.192,10.062-0.593c0.3,0.257,11.605,9.82,31.93,12.555
			c3.906,0.529,6.656,4.121,6.127,8.034C60.902,133.088,57.839,135.688,54.318,135.688z"/>
	</g>
	<g>
		<path fill="#A46F3E" d="M54.311,99.98c0,11.84-9.583,21.424-21.424,21.424"/>
		<path fill="#A46F3E" d="M32.886,128.546c-3.942,0-7.141-3.192-7.141-7.142s3.199-7.142,7.141-7.142
			c7.877,0,14.283-6.406,14.283-14.283c0-3.949,3.199-7.142,7.141-7.142c3.942,0,7.142,3.192,7.142,7.142
			C61.452,115.734,48.641,128.546,32.886,128.546z"/>
	</g>
	<circle fill="#4C312C" cx="115.013" cy="67.844" r="24.995"/>
	<g>
		<path fill="#A46F3E" d="M204.281,28.566c0,0,2.229,32.136-21.424,42.849c0,0-14.733,3.128-14.283,14.283"/>
		<path fill="#A46F3E" d="M168.567,92.839c-3.813,0-6.977-3.014-7.134-6.856c-0.521-13.062,11.355-19.453,19.075-21.353
			c18.132-8.798,16.661-35.315,16.647-35.586c-0.25-3.928,2.721-7.327,6.648-7.591c3.921-0.271,7.327,2.692,7.599,6.62
			c0.106,1.514,2.257,37.235-25.602,49.847l-1.464,0.479c-0.05,0.007-8.819,2.2-8.626,7.006c0.157,3.942-2.907,7.27-6.849,7.42
			C168.76,92.839,168.667,92.839,168.567,92.839z M182.857,71.415h0.071H182.857z"/>
	</g>
	<g>
		<path fill="#A46F3E" d="M197.14,57.132c0,0-25.888-8.927-28.565-7.142"/>
		<path fill="#A46F3E" d="M197.14,64.273c-0.771,0-1.557-0.128-2.328-0.393c-9.313-3.207-20.981-6.642-24.502-6.963
			c-2.842,0.714-5.949-0.393-7.677-2.971c-2.185-3.285-1.3-7.712,1.978-9.905c2.635-1.757,5.621-3.75,34.857,6.334
			c3.728,1.285,5.706,5.349,4.421,9.077C202.875,62.417,200.104,64.273,197.14,64.273z M172.538,55.932l-0.007,0.007
			C172.53,55.939,172.53,55.932,172.538,55.932z"/>
	</g>
	<g>
		<path fill="#A46F3E" d="M374.848,301.848c-16.461-6.635-24.431-25.352-17.804-41.813c3.171-7.871,9.148-13.727,16.275-17.047
			c-12.184-7.328-17.653-22.546-12.169-36.158c1.214-3.02,2.971-5.627,4.971-7.977c-3.164-0.45-6.32-1.235-9.42-2.478
			c-20.581-8.291-30.544-31.693-22.253-52.268c1.857-4.606,4.499-8.641,7.663-12.098c-7.685-6.135-16.097-11.591-25.217-16.211
			c-72.114-36.557-160.218-7.734-196.775,64.387s-7.734,160.218,64.388,196.775c72.121,36.558,160.219,7.734,196.775-64.387
			c1.436-2.828,2.585-5.713,3.82-8.584C381.668,303.805,378.211,303.205,374.848,301.848z"/>
		<path fill="#A46F3E" d="M250.543,400c-23.795,0-47.426-5.592-69.264-16.668c-36.586-18.547-63.752-50.219-76.506-89.197
			c-12.755-38.978-9.563-80.591,8.977-117.169s50.226-63.752,89.204-76.506c38.979-12.755,80.592-9.577,117.17,8.977
			c9.355,4.735,18.246,10.455,26.444,16.99l5.971,4.771l-5.163,5.634c-2.729,2.978-4.85,6.328-6.307,9.956
			c-6.799,16.889,1.407,36.164,18.304,42.977c2.399,0.971,4.928,1.635,7.741,2.028l12.833,1.814l-8.384,9.883
			c-1.742,2.05-2.985,4.021-3.785,6.021c-4.099,10.184-0.214,21.688,9.228,27.373l11.512,6.927l-12.184,5.664
			c-5.813,2.707-10.313,7.412-12.661,13.24c-2.5,6.191-2.429,12.982,0.186,19.132c2.613,6.134,7.463,10.891,13.661,13.39l0,0
			c2.321,0.943,4.928,1.479,7.97,1.643l10.191,0.558l-4.764,11.147c-1.028,2.422-2.05,4.85-3.257,7.228
			c-18.553,36.585-50.226,63.759-89.204,76.513C282.744,397.443,266.605,400,250.543,400z M250.844,107.05
			c-14.576,0-29.201,2.307-43.449,6.977c-35.35,11.569-64.087,36.214-80.905,69.394c-16.818,33.179-19.71,70.922-8.148,106.272
			c11.562,35.35,36.208,64.087,69.387,80.905c33.179,16.812,70.915,19.71,106.272,8.142c35.321-11.563,64.037-36.164,80.854-69.309
			c-0.914-0.285-1.813-0.6-2.692-0.957c-9.733-3.928-17.354-11.397-21.467-21.045c-4.106-9.656-4.214-20.332-0.293-30.066
			c2.378-5.877,6.113-11.025,10.884-15.082c-9.213-10.141-12.134-24.816-6.777-38.114c0.114-0.278,0.229-0.55,0.35-0.828
			c-0.278-0.107-0.563-0.214-0.842-0.329c-24.195-9.748-35.95-37.364-26.21-61.559c1.143-2.828,2.55-5.535,4.235-8.098
			c-5.835-4.192-11.998-7.935-18.39-11.177C293.856,112.128,272.418,107.05,250.844,107.05z"/>
	</g>
	<circle fill="#6A3311" cx="241.453" cy="185.649" r="24.995"/>
	<circle fill="#4C312C" cx="196.247" cy="274.825" r="24.995"/>
	<circle fill="#8C572C" cx="288.743" cy="297.691" r="24.995"/>
	<path fill="#8C572C" d="M286.637,395.844c-1.086,0-2.186-0.242-3.221-0.771c-3.521-1.778-4.921-6.084-3.143-9.598
		c3.049-6.014-4.441-18.262-19.025-25.66c-3.52-1.785-4.92-6.084-3.142-9.598s6.077-4.935,9.599-3.135
		c21.432,10.861,32.543,30.565,25.302,44.848C291.757,394.416,289.243,395.844,286.637,395.844z"/>
	<path fill="#4C312C" d="M291.186,149.949c-1.086,0-2.186-0.243-3.221-0.771c-17.554-8.898-24.603-30.437-15.704-47.998
		c1.785-3.514,6.077-4.942,9.599-3.135c3.521,1.778,4.92,6.078,3.142,9.598c-5.342,10.541-1.114,23.46,9.42,28.802
		c3.521,1.778,4.921,6.084,3.142,9.598C296.307,148.521,293.793,149.949,291.186,149.949z"/>
	<path fill="#8C572C" d="M159.861,219.485c-1.085,0-2.185-0.243-3.221-0.771c-7.113-3.607-12.069-9.799-14.304-16.861
		c-1.971,1.092-4.071,2.006-6.256,2.728c-9.07,2.956-18.739,2.222-27.252-2.1c-3.521-1.785-4.92-6.084-3.142-9.598
		c1.785-3.513,6.077-4.942,9.598-3.135c5.113,2.592,10.912,3.042,16.354,1.257c5.435-1.778,9.855-5.563,12.44-10.676
		c1.785-3.514,6.077-4.942,9.598-3.135c3.521,1.778,4.921,6.084,3.143,9.598c-3.563,7.02-0.743,15.632,6.284,19.196
		c3.521,1.777,4.92,6.084,3.143,9.598C164.982,218.057,162.468,219.485,159.861,219.485z"/>
	<path fill="#8C572C" d="M165.239,363.729c-5.106,0-10.562-1.385-16.211-4.764c-3.385-2.027-4.485-6.412-2.457-9.798
		c2.021-3.378,6.406-4.478,9.798-2.464c15.747,9.441,28.202-9.49,28.723-10.298c11.755-22.067,37.792-19.183,38.9-19.011
		c3.913,0.479,6.698,4.043,6.22,7.956c-0.479,3.906-4.12,6.706-7.927,6.22c-0.814-0.114-17.518-1.756-24.888,12.055
		C191.969,352.096,180.043,363.729,165.239,363.729z"/>
</g>
</svg>
