<?xml version="1.0" encoding="utf-8"?>
<!-- Generator: Adobe Illustrator 16.0.0, SVG Export Plug-In . SVG Version: 6.00 Build 0)  -->
<!DOCTYPE svg PUBLIC "-//W3C//DTD SVG 1.1//EN" "http://www.w3.org/Graphics/SVG/1.1/DTD/svg11.dtd">
<svg version="1.1" id="Capa_1" xmlns="http://www.w3.org/2000/svg" xmlns:xlink="http://www.w3.org/1999/xlink" x="0px" y="0px"
	 width="400px" height="400px" viewBox="0 0 400 400" enable-background="new 0 0 400 400" xml:space="preserve">
<g>
	<path fill="#EEAF4B" d="M196.429,300L196.429,300c-10.529,0-19.736-7.086-22.429-17.264L134.65,134.05
		C131.479,116.3,145.128,100,163.157,100h66.536c18.027,0,31.678,16.3,28.507,34.05l-39.343,148.687
		C216.164,292.914,206.957,300,196.429,300z"/>
	<path fill="#F4C44E" d="M331.265,140.057c-23.687-17.207-56.172-26.886-75.765-24.164c2.736,5.378,3.864,11.664,2.707,18.157
		l-39.35,148.687c-0.615,2.328-1.607,4.464-2.844,6.421c3.244,1.957,6.973,3.3,11.051,3.614l0,0
		c34.028,10.971,87.328-57.75,114.621-97.264C355.679,175.236,351.192,154.528,331.265,140.057z"/>
	<path fill="#F4C44E" d="M174,282.736L134.65,134.05c-1.171-6.557-0.021-12.9,2.771-18.314
		c-19.679-2.279-51.521,7.393-74.821,24.314c-19.929,14.472-24.415,35.186-10.421,55.458
		c27.286,39.521,80.593,108.235,114.621,97.264l0,0c3.765-0.293,7.229-1.457,10.3-3.164
		C175.729,287.543,174.664,285.236,174,282.736z"/>
	<g>
		<path fill="#F1B501" d="M52.186,195.507c-2.693-3.9-4.686-7.814-6.036-11.7c-19.207,19.264-34.293,42.057-43.707,67.314
			c-10.136,27.179,12.921,55.229,38.979,47.6l79.279-23.192C95.029,254.4,68.793,219.557,52.186,195.507z"/>
		<path fill="#F1B501" d="M397.558,251.129c-10.2-27.357-27-51.865-48.551-72.072c-1.136,5.429-3.528,10.957-7.321,16.457
			c-16.257,23.55-41.757,57.458-66.907,78.701l83.808,24.521C384.636,306.35,407.692,278.307,397.558,251.129z"/>
	</g>
	<path fill="#F4C44E" d="M163.157,100c-0.3,0-0.571,0.086-0.864,0.1L174,144.35c2.693,10.178,11.9,17.264,22.429,17.264
		c10.528,0,19.735-7.086,22.429-17.264l11.707-44.25c-0.301-0.014-0.564-0.1-0.864-0.1H163.157z"/>
</g>
</svg>
