<?xml version="1.0" encoding="utf-8"?>
<!-- Generator: Adobe Illustrator 16.0.0, SVG Export Plug-In . SVG Version: 6.00 Build 0)  -->
<!DOCTYPE svg PUBLIC "-//W3C//DTD SVG 1.1//EN" "http://www.w3.org/Graphics/SVG/1.1/DTD/svg11.dtd">
<svg version="1.1" id="Capa_1" xmlns="http://www.w3.org/2000/svg" xmlns:xlink="http://www.w3.org/1999/xlink" x="0px" y="0px"
	 width="400px" height="400px" viewBox="0 0 400 400" enable-background="new 0 0 400 400" xml:space="preserve">
<g>
	<path fill="#436B1C" d="M270.793,297.109c-1.361-8.162-2.512-16.344-3.529-24.541c1.018-0.4,2.014-0.891,2.947-1.551
		c6.336-4.471,7.846-13.229,3.382-19.559c-2.225-3.157-5.522-5.115-9.046-5.732c-0.596-7.614-1.073-15.229-1.375-22.856
		c1.27-0.421,2.512-0.968,3.663-1.782c6.337-4.471,7.846-13.221,3.382-19.559c-1.887-2.68-4.561-4.435-7.48-5.305
		c0.035-7.102,0.162-14.21,0.449-21.305c1.727-0.393,3.411-1.116,4.947-2.197c6.338-4.47,7.846-13.228,3.383-19.558
		c-1.698-2.407-4.021-4.112-6.59-5.06c0.639-7.369,1.391-14.737,2.303-22.084c6.379-1.319,11.178-6.968,11.178-13.74
		c0-5.319-2.996-9.895-7.361-12.274c1.109-6.547,2.316-13.087,3.643-19.6c7.467-0.323,13.432-6.428,13.432-13.972
		c0-5.909-3.656-10.94-8.828-13.01C279.873,23.045,257.438,0,224.477,0c-17.298,0-32.862,9.319-45.585,20.989
		c-2.337-1.747-5.214-2.814-8.358-2.814c-7.754,0-14.035,6.281-14.035,14.035c0,3.706,1.46,7.046,3.804,9.551
		c-4.365,5.79-7.944,11.172-10.589,15.467c-1.663-0.695-3.502-1.087-5.425-1.087c-7.754,0-14.035,6.28-14.035,14.035
		c0,5.018,2.653,9.383,6.611,11.867c-2.154,5.228-4.028,10.674-5.677,16.295c-0.309-0.021-0.611-0.091-0.934-0.091
		c-7.754,0-14.035,6.281-14.035,14.035c0,5.958,3.726,11.018,8.968,13.053c-1.151,7.298-2,14.758-2.589,22.315
		c-1.656,0.407-3.271,1.095-4.751,2.133c-6.337,4.47-7.846,13.221-3.382,19.558c1.796,2.554,4.309,4.281,7.06,5.186
		c-0.042,7.249,0.105,14.491,0.407,21.698c-1.417,0.421-2.807,1.018-4.091,1.916c-6.336,4.47-7.845,13.229-3.382,19.558
		c2.281,3.228,5.677,5.187,9.292,5.755c0.723,7.824,1.593,15.48,2.554,22.912c-1.179,0.421-2.337,0.939-3.411,1.697
		c-6.337,4.471-7.846,13.222-3.382,19.559c2.597,3.684,6.653,5.684,10.835,5.873c1.193,7.088,2.428,13.762,3.649,19.973
		c-1.509,0.709-2.926,1.663-4.147,2.934c-5.375,5.586-5.207,14.47,0.379,19.846c2.667,2.561,6.084,3.831,9.509,3.881
		c2.639,11.192,4.554,17.992,4.765,18.639c0.436,1.305,0.898,2.547,1.348,3.816c-0.225,0.204-0.47,0.358-0.681,0.583
		c-5.375,5.586-5.207,14.47,0.379,19.846c3.116,3.003,7.256,4.21,11.249,3.775C168.982,387.678,185.881,400,210.955,400
		c33.003,0,60.604-24.302,65.789-55.895c1.01-6.168,0.54-12.491-0.66-18.632l-0.225-1.165c2.021-0.701,3.923-1.817,5.509-3.467
		c5.376-5.586,5.207-14.47-0.379-19.846C278.147,298.267,274.449,296.982,270.793,297.109z"/>
	<path fill="#659C35" d="M213.48,63.158c-3.873,0-7.018-3.137-7.018-7.017c0-1.453-1.179-2.632-2.631-2.632
		c-1.453,0-2.632,1.179-2.632,2.632c0,3.88-3.144,7.017-7.018,7.017c-3.874,0-7.018-3.137-7.018-7.017
		c0-9.193,7.474-16.667,16.667-16.667c9.192,0,16.666,7.474,16.666,16.667C220.498,60.014,217.354,63.158,213.48,63.158z"/>
	<path fill="#659C35" d="M240.779,107.895c-3.874,0-7.018-3.137-7.018-7.018c0-1.452-1.18-2.631-2.632-2.631
		s-2.632,1.179-2.632,2.631c0,3.881-3.144,7.018-7.018,7.018c-3.873,0-7.018-3.137-7.018-7.018c0-9.193,7.475-16.667,16.667-16.667
		s16.667,7.474,16.667,16.667C247.797,104.751,244.66,107.895,240.779,107.895z"/>
	<path fill="#659C35" d="M174.533,226.898c-3.874,0-7.018-3.137-7.018-7.018c0-1.453-1.179-2.632-2.631-2.632
		s-2.632,1.179-2.632,2.632c0,3.881-3.144,7.018-7.018,7.018c-3.874,0-7.017-3.137-7.017-7.018c0-9.193,7.474-16.667,16.667-16.667
		s16.667,7.474,16.667,16.667C181.551,223.754,178.414,226.898,174.533,226.898z"/>
	<path fill="#659C35" d="M235.516,353.509c-3.873,0-7.018-3.137-7.018-7.018c0-1.452-1.179-2.632-2.631-2.632
		c-1.453,0-2.633,1.18-2.633,2.632c0,3.881-3.143,7.018-7.017,7.018s-7.018-3.137-7.018-7.018c0-9.192,7.474-16.667,16.667-16.667
		c9.192,0,16.666,7.475,16.666,16.667C242.533,350.365,239.396,353.509,235.516,353.509z"/>
	<path fill="#659C35" d="M233.762,182.456c-3.874,0-7.018-3.137-7.018-7.018c0-1.453-1.18-2.631-2.632-2.631
		s-2.632,1.179-2.632,2.631c0,3.881-3.144,7.018-7.018,7.018c-3.873,0-7.018-3.137-7.018-7.018c0-9.193,7.475-16.667,16.667-16.667
		s16.667,7.474,16.667,16.667C240.779,179.313,237.643,182.456,233.762,182.456z"/>
	<path fill="#659C35" d="M191.2,308.786c-3.874,0-7.018-3.138-7.018-7.018c0-1.452-1.179-2.632-2.632-2.632s-2.631,1.18-2.631,2.632
		c0,3.88-3.144,7.018-7.018,7.018c-3.874,0-7.018-3.138-7.018-7.018c0-9.193,7.474-16.667,16.667-16.667s16.667,7.474,16.667,16.667
		C198.218,305.643,195.081,308.786,191.2,308.786z"/>
	<path fill="#659C35" d="M191.656,142.982c-3.874,0-7.018-3.137-7.018-7.018c0-1.453-1.179-2.631-2.632-2.631
		s-2.631,1.179-2.631,2.631c0,3.881-3.144,7.018-7.018,7.018s-7.018-3.137-7.018-7.018c0-9.193,7.474-16.667,16.667-16.667
		c9.193,0,16.667,7.474,16.667,16.667C198.674,139.838,195.537,142.982,191.656,142.982z"/>
	<path fill="#659C35" d="M235.516,252.632c-3.873,0-7.018-3.138-7.018-7.018c0-1.452-1.179-2.632-2.631-2.632
		c-1.453,0-2.633,1.18-2.633,2.632c0,3.88-3.143,7.018-7.017,7.018s-7.018-3.138-7.018-7.018c0-9.193,7.474-16.667,16.667-16.667
		c9.192,0,16.666,7.474,16.666,16.667C242.533,249.488,239.396,252.632,235.516,252.632z"/>
</g>
</svg>
