<svg height="464pt" viewBox="-31 0 463 464" width="464pt" xmlns="http://www.w3.org/2000/svg"><path d="m264.5 80h-128c-75.109375 0-136 60.890625-136 136l56 248h288l56-248c0-75.109375-60.890625-136-136-136zm0 0" fill="#f2b9b8"/><path d="m264.5 80h-88c75.109375 0 136 60.890625 136 136l-56 248h88l56-248c0-75.109375-60.890625-136-136-136zm0 0" fill="#f2aeac"/><path d="m240.5 40c0 22.089844-17.910156 40-40 40s-40-17.910156-40-40 17.910156-40 40-40 40 17.910156 40 40zm0 0" fill="#f05d46"/><path d="m98.847656 117.65625 11.3125-11.3125 24.003906 24-11.316406 11.3125zm0 0" fill="#f05d46"/><path d="m266.847656 173.660156 11.3125-11.3125 24.003906 24-11.316406 11.316406zm0 0" fill="#734730"/><path d="m186.847656 117.65625 11.316406-11.316406 24 24.003906-11.3125 11.3125zm0 0" fill="#734730"/><path d="m82.84375 173.65625 11.3125-11.3125 24.003906 24-11.316406 11.3125zm0 0" fill="#734730"/><path d="m42.84375 162.339844 24.003906-24 11.3125 11.3125-24 24zm0 0" fill="#f05d46"/><path d="m266.839844 130.34375 24.003906-24 11.3125 11.3125-24 24.003906zm0 0" fill="#f05d46"/><path d="m146.847656 170.339844 24.003906-24.003906 11.3125 11.3125-24 24.003906zm0 0" fill="#f05d46"/><path d="m336.5 144h16v32h-16zm0 0" fill="#734730"/><path d="m208.5 168h16v32h-16zm0 0" fill="#f05d46"/><path d="m360.5 248-40-32-40 32-40-32-40 32-40-32-40 32-40-32-40 32-40-32 56 248h288l56-248zm0 0" fill="#8c563b"/><path d="m328.867188 222.6875-188.421876 241.3125h204.054688l56-248-40 32zm0 0" fill="#874e35"/><g fill="#734730"><path d="m160.5 272.003906c4.414062-.234375 8.179688 3.15625 8.410156 7.566406l7.160156 136.019532c.230469 4.414062-3.15625 8.179687-7.570312 8.410156-4.410156.234375-8.175781-3.15625-8.40625-7.566406l-7.160156-136.019532c-.234375-4.414062 3.15625-8.179687 7.566406-8.410156zm0 0"/><path d="m80.542969 272.058594c4.367187-.6875 8.464843 2.292968 9.152343 6.65625l21.511719 136.226562c.6875 4.363282-2.292969 8.460938-6.65625 9.152344-4.367187.6875-8.464843-2.292969-9.152343-6.65625l-21.507813-136.226562c-.691406-4.363282 2.289063-8.460938 6.652344-9.152344zm0 0"/><path d="m224.921875 415.585938 7.183594-136.015626c.230469-4.414062 3.996093-7.800781 8.410156-7.566406 4.410156.230469 7.800781 3.996094 7.566406 8.410156l-7.183593 136.015626c-.234376 4.414062-4 7.800781-8.410157 7.570312-4.414062-.234375-7.800781-4-7.566406-8.414062zm0 0"/><path d="m289.828125 414.847656 21.542969-136.183594c.6875-4.367187 4.785156-7.34375 9.148437-6.652343 4.367188.6875 7.34375 4.785156 6.652344 9.152343l-21.542969 136.183594c-.6875 4.363282-4.785156 7.34375-9.152344 6.652344-4.363281-.691406-7.339843-4.785156-6.648437-9.152344zm0 0"/></g></svg>