<svg height="464pt" viewBox="0 0 464.01241 464" width="464pt" xmlns="http://www.w3.org/2000/svg"><path d="m372.199219 464.007812h-280.386719l-43.804688-208h368zm0 0" fill="#f0dbc2"/><path d="m173.078125 464.007812h199.121094l43.808593-208h-54.136718c-45.070313 83.660157-109.875 155.058594-188.792969 208zm0 0" fill="#edd4b7"/><path d="m397.8125 128.007812h-5.804688c0-70.695312-57.308593-127.9999995-128-127.9999995h-64c-70.695312 0-128 57.3046875-128 127.9999995h-5.808593c-34.261719-.445312-63.066407 25.601563-66.058594 59.734376-1.179687 17.675781 5.019531 35.050781 17.125 47.988281 12.101563 12.9375 29.023437 20.277343 46.742187 20.277343h336c17.714844 0 34.636719-7.339843 46.742188-20.277343 12.101562-12.9375 18.300781-30.3125 17.121094-47.988281-2.992188-34.132813-31.796875-60.179688-66.058594-59.734376zm0 0" fill="#bf7341"/><path d="m463.871094 187.742188c-2.992188-34.132813-31.796875-60.179688-66.058594-59.734376h-5.804688c.007813-31.648437-11.765624-62.160156-33.027343-85.601562-68.070313 126.960938-213.980469 184.710938-315.261719 210.289062 6.539062 2.195313 13.390625 3.3125 20.289062 3.3125h336c17.714844 0 34.636719-7.339843 46.742188-20.277343 12.101562-12.9375 18.300781-30.3125 17.121094-47.988281zm0 0" fill="#b36b3d"/><g fill="#e6c7a3"><path d="m232.007812 280.007812c4.417969 0 8 3.582032 8 8v136c0 4.417969-3.582031 8-8 8-4.417968 0-8-3.582031-8-8v-136c0-4.417968 3.582032-8 8-8zm0 0"/><path d="m176.007812 280.007812c-4.410156.234376-7.792968 3.996094-7.5625 8.40625l7.152344 136c.105469 2.121094 1.050782 4.117188 2.628906 5.539063 1.578126 1.425781 3.65625 2.164063 5.78125 2.054687 4.40625-.238281 7.789063-4 7.558594-8.410156l-7.152344-136c-.105468-2.121094-1.050781-4.117187-2.628906-5.539062-1.578125-1.425782-3.65625-2.164063-5.777344-2.050782zm0 0"/><path d="m112.007812 280.007812c-4.359374.691407-7.335937 4.78125-6.648437 9.140626l21.503906 136.210937c.34375 2.910156 2.253907 5.398437 4.976563 6.488281 2.722656 1.085938 5.824218.59375 8.078125-1.277344 2.257812-1.875 3.304687-4.832031 2.734375-7.707031l-21.503906-136.210937c-.691407-4.355469-4.78125-7.332032-9.140626-6.644532zm0 0"/><path d="m288.007812 280.007812c-4.414062-.234374-8.175781 3.15625-8.410156 7.566407l-7.152344 136c-.117187 2.121093.613282 4.203125 2.03125 5.785156 1.417969 1.582031 3.410157 2.535156 5.53125 2.648437 4.410157.230469 8.175782-3.160156 8.40625-7.570312l7.152344-136c.117188-2.121094-.613281-4.203125-2.03125-5.785156-1.417968-1.578125-3.40625-2.53125-5.527344-2.644532zm0 0"/><path d="m352.007812 280.007812c-4.363281-.6875-8.453124 2.289063-9.144531 6.644532l-21.503906 136.210937c-.507813 4.265625 2.449219 8.171875 6.695313 8.84375 4.242187.671875 8.261718-2.132812 9.09375-6.347656l21.503906-136.210937c.6875-4.359376-2.289063-8.449219-6.644532-9.140626zm0 0"/></g><path d="m96.007812 168.007812h16c8.835938 0 16 7.160157 16 16 0 8.835938-7.164062 16-16 16h-16c-8.839843 0-16-7.164062-16-16 0-8.839843 7.160157-16 16-16zm0 0" fill="#734730"/><path d="m242.8125 157.199219c-6.925781-6.921875-18.152344-6.921875-25.078125 0l-12.535156 12.535156c-6.761719 6.953125-6.683594 18.046875.175781 24.90625 6.855469 6.855469 17.949219 6.933594 24.902344.171875l12.535156-12.535156c6.921875-6.925782 6.921875-18.152344 0-25.078125zm0 0" fill="#734730"/><path d="m157.199219 53.199219c6.925781-6.921875 18.152343-6.921875 25.078125 0l12.535156 12.535156c6.761719 6.953125 6.683594 18.046875-.171875 24.90625-6.859375 6.855469-17.953125 6.933594-24.90625.171875l-12.535156-12.535156c-6.921875-6.925782-6.921875-18.152344 0-25.078125zm0 0" fill="#734730"/><path d="m280.007812 56.007812h16c8.835938 0 16 7.160157 16 16 0 8.835938-7.164062 16-16 16h-16c-8.839843 0-16-7.164062-16-16 0-8.839843 7.160157-16 16-16zm0 0" fill="#734730"/><path d="m325.199219 157.199219c6.925781-6.921875 18.152343-6.921875 25.078125 0l12.535156 12.535156c4.585938 4.457031 6.417969 11.039063 4.792969 17.226563-1.628907 6.1875-6.457031 11.015624-12.644531 12.644531-6.1875 1.625-12.769532-.207031-17.226563-4.792969l-12.535156-12.535156c-6.921875-6.925782-6.921875-18.152344 0-25.078125zm0 0" fill="#734730"/></svg>