<?xml version="1.0" encoding="utf-8"?>
<!-- Generator: Adobe Illustrator 16.0.0, SVG Export Plug-In . SVG Version: 6.00 Build 0)  -->
<!DOCTYPE svg PUBLIC "-//W3C//DTD SVG 1.1//EN" "http://www.w3.org/Graphics/SVG/1.1/DTD/svg11.dtd">
<svg version="1.1" xmlns="http://www.w3.org/2000/svg" xmlns:xlink="http://www.w3.org/1999/xlink" x="0px" y="0px" width="400px"
	 height="400px" viewBox="0 0 400 400" enable-background="new 0 0 400 400" xml:space="preserve">
<g id="Capa_2">
	<path fill="#EBEBEB" d="M113.837,72.315V43.588H56.384v35.909c-3.668,5.134-7.144,9.875-10.412,14.363
		c-17.797,24.417-29.677,41.516-34.888,75.408l-0.849,5.488c-2.283,16.173-1.361,32.637,2.714,48.456
		c2.185,9.443,3.814,19.009,4.884,28.646l2.641,21.545l2.286,28.728l-7.349,43.091c-2.578,15.313,2.447,30.929,13.471,41.862
		c11.825,11.239,28.637,15.531,44.398,11.334l0.186-0.046c7.645-1.887,15.633-1.887,23.278,0l0.186,0.046
		c15.762,4.201,32.577-0.092,44.398-11.334c11.028-10.934,16.053-26.549,13.472-41.862l-7.346-43.091l2.29-28.728l2.156-17.351
		c1.474-11.986,3.591-23.881,6.003-35.709c3.447-16.812,3.875-34.099,1.263-51.061c-6.175-40.145-21.695-56.735-45.303-89.771
		L113.837,72.315z"/>
	<path fill="#B96836" d="M137.789,113.207c-9.63-4.022-13.421-12.165-28.728-12.165c-20.353,0-20.353,14.363-40.706,14.363
		c-15.475,0-19.195-8.3-29.036-12.281c-15.037,19.196-24.774,42.003-28.235,66.144l-0.849,5.488
		c-2.283,16.173-1.361,32.637,2.714,48.456c2.185,9.443,3.814,19.009,4.884,28.646l2.641,21.545l2.286,28.728l-7.349,43.091
		c-2.578,15.313,2.447,30.929,13.471,41.862c11.825,11.239,28.637,15.531,44.398,11.334l0.186-0.046
		c7.645-1.887,15.633-1.887,23.278,0l0.186,0.046c15.762,4.201,32.577-0.092,44.398-11.334
		c11.028-10.934,16.053-26.549,13.472-41.862l-7.346-43.091l2.29-28.728l2.156-17.351c1.474-11.986,3.591-23.881,6.003-35.709
		c3.44-16.812,3.872-34.099,1.263-51.061C156.447,149.196,149.129,130.008,137.789,113.207z"/>
	<path fill="#E06661" d="M56.384,0.498h57.453c3.966,0,7.182,3.216,7.182,7.182v28.727c0,3.966-3.216,7.182-7.182,7.182H56.384
		c-3.966,0-7.182-3.216-7.182-7.182V7.68C49.202,3.714,52.418,0.498,56.384,0.498z"/>
	<path fill="#E06661" d="M11.084,169.269c-2.833,18.361-2.101,37.098,2.153,55.186c2.027,9.043,3.555,18.191,4.589,27.404h134.665
		c1.435-10.566,3.243-21.064,5.386-31.515c3.439-16.812,3.868-34.099,1.262-51.061c-1.262-8.536-3.265-16.948-5.988-25.136H17.073
		C14.342,152.328,12.34,160.736,11.084,169.269z"/>
	<path fill="#CBCBCB" d="M92.292,197.996c0,13.883-11.253,25.136-25.136,25.136c-13.879,0-25.136-11.253-25.136-25.136
		s11.257-25.136,25.136-25.136C81.039,172.86,92.292,184.113,92.292,197.996z"/>
	<path fill="#AC6132" d="M49.202,373.947c-2.721,0-5.211-1.535-6.428-3.972c-5.499-11.068-5.499-24.077,0-35.146
		c1.136-2.317,3.426-3.847,6-4.008c2.574-0.161,5.036,1.069,6.453,3.223c1.417,2.157,1.567,4.906,0.396,7.203
		c-3.489,7.027-3.489,15.282,0,22.31c1.112,2.224,0.993,4.867-0.315,6.982C54.003,372.658,51.692,373.947,49.202,373.947z"/>
	<g>
		<path fill="#CD743C" d="M113.837,273.403h14.364v14.363h-14.364V273.403z"/>
		<path fill="#CD743C" d="M106.656,115.406h14.363v14.364h-14.363V115.406z"/>
		<path fill="#CD743C" d="M77.929,294.949h14.364v14.363H77.929V294.949z"/>
		<path fill="#CD743C" d="M106.656,316.494h14.363v14.363h-14.363V316.494z"/>
		<path fill="#CD743C" d="M77.929,338.039h14.364v14.364H77.929V338.039z"/>
	</g>
	<path fill="#FBB540" d="M128.201,197.996c0,13.883-11.254,25.136-25.137,25.136c-13.879,0-25.136-11.253-25.136-25.136
		s11.257-25.136,25.136-25.136C116.947,172.86,128.201,184.113,128.201,197.996z"/>
	<path fill="#E4E4E2" d="M56.384,43.588h57.453v14.364H56.384V43.588z"/>
</g>
<g id="Capa_3">
	<path fill="#F3E5B9" d="M222.379,89h132.759v26.552H222.379V89z"/>
	<path fill="#FFF1C2" d="M323.275,184.586l-5.31,5.31H206.448l-10.621-5.31l26.551-74.345h132.759L323.275,184.586z"/>
	<path fill="#EBEBEB" d="M286.104,147.414c0,8.798-7.133,15.931-15.931,15.931s-15.932-7.133-15.932-15.931
		s7.134-15.931,15.932-15.931S286.104,138.616,286.104,147.414z"/>
	<path fill="#EBEBEB" d="M110.862,264.241h-10.621v-47.793c0-2.012,1.136-3.854,2.938-4.753l31.862-15.931l4.745,9.506
		l-28.924,14.46V264.241z"/>
	<path fill="#FBEDBF" d="M195.828,184.586h138.069V397H195.828V184.586z"/>
	<path fill="#F3E5B9" d="M323.275,184.586l10.621-5.311h42.482L387,184.586V397h-63.725V184.586z"/>
	<path fill="#E6D9AF" d="M387,184.586l-31.862-74.345l-31.862,74.345H387z"/>
	<path fill="#85BC94" d="M264.862,248.311h-10.621c0.047-18.376,8.694-35.669,23.365-46.73l6.373,8.495
		C271.972,219.124,264.898,233.276,264.862,248.311z"/>
	<path fill="#E06661" d="M323.275,306.725l-25.841,25.841c-10.657,10.657-25.11,16.642-40.183,16.642
		c-12.296,0-24.26,3.988-34.098,11.364l-11.396,8.55l5.31,27.879h106.207V306.725z"/>
	<path fill="#E06661" d="M233,184.586l-37.172,37.172v-37.172H233z"/>
	<path fill="#E6D9AF" d="M323.275,397l31.862-26.552L387,397H323.275z"/>
	<path fill="#E6D9AF" d="M349.827,280.173h10.621v100.896h-10.621V280.173z"/>
	<path fill="#E6D9AF" d="M349.827,179.276h10.621v90.276h-10.621V179.276z"/>
	<path fill="#E8B3B2" d="M174.586,258.931h42.482V397h-42.482V258.931z"/>
	<g>
		<path fill="#DCAAA9" d="M195.828,370.448L174.586,397h42.482L195.828,370.448z"/>
		<path fill="#DCAAA9" d="M190.517,338.586h10.621v42.483h-10.621V338.586z"/>
		<path fill="#DCAAA9" d="M174.586,258.931l21.241,21.242l21.241-21.242H174.586z"/>
		<path fill="#DCAAA9" d="M190.517,269.552h10.621v37.173h-10.621V269.552z"/>
		<path fill="#DCAAA9" d="M190.517,317.345h10.621v10.621h-10.621V317.345z"/>
	</g>
	<path fill="#FFC5C3" d="M79,258.931h95.586V397H79V258.931z"/>
	<path fill="#E06661" d="M153.345,327.966c0,14.663-11.889,26.552-26.552,26.552s-26.552-11.889-26.552-26.552
		s11.889-26.552,26.552-26.552S153.345,313.303,153.345,327.966z"/>
	<path fill="#85BC94" d="M132.104,317.345h-10.621v-7.434c-0.016-13.74,6.853-26.575,18.293-34.183l5.896,8.836
		c-8.495,5.646-13.59,15.174-13.569,25.372V317.345z"/>
	<path fill="#CD5D59" d="M133.659,326.41c-3.796-3.786-9.936-3.786-13.732,0l-7.509-7.51c7.947-7.921,20.803-7.921,28.75,0
		L133.659,326.41z"/>
	<path fill="#E06661" d="M274.738,317.345c-2.767,0.013-5.435-1.021-7.465-2.898c-4.667-4.271-11.821-4.271-16.488,0
		c-2.033,1.877-4.704,2.914-7.473,2.898c-4.126,0.058-7.912-2.281-9.709-5.995l-1.029-1.595
		c-12.199-18.902-17.445-41.461-14.836-63.807c1.189-7.952,8.118-13.771,16.154-13.569h2.568c5.679-0.075,10.992,2.782,14.063,7.557
		c2.035,3.072,5.403,5.001,9.083,5.201c3.679,0.197,7.236-1.356,9.589-4.193l1.985-2.474c3.185-3.884,7.955-6.124,12.979-6.091
		c8.032-0.204,14.961,5.604,16.159,13.546c2.598,22.352-2.661,44.91-14.868,63.81l-1.029,1.595
		C282.634,315.042,278.861,317.387,274.738,317.345z"/>
	<path fill="#CD5D59" d="M259.552,269.552c-5.391,0.011-10.563-2.129-14.375-5.943l7.509-7.509c3.796,3.785,9.937,3.785,13.732,0
		l7.509,7.509C270.115,267.423,264.942,269.563,259.552,269.552z"/>
	<path fill="#E0E0E0" d="M100.241,248.311h10.621v10.62h-10.621V248.311z"/>
</g>
</svg>
