<?xml version="1.0" encoding="utf-8"?>
<!-- Generator: Adobe Illustrator 16.0.0, SVG Export Plug-In . SVG Version: 6.00 Build 0)  -->
<!DOCTYPE svg PUBLIC "-//W3C//DTD SVG 1.1//EN" "http://www.w3.org/Graphics/SVG/1.1/DTD/svg11.dtd">
<svg version="1.1" id="Capa_1" xmlns="http://www.w3.org/2000/svg" xmlns:xlink="http://www.w3.org/1999/xlink" x="0px" y="0px"
	 width="400px" height="400px" viewBox="0 0 400 400" enable-background="new 0 0 400 400" xml:space="preserve">
<g>
	<path fill="#FAF5E5" d="M294.938,334.51c12.842,1.842,26.684,1,40.738-3.109c31.6-9.248,55.083-34.256,59.214-61.621
		c2.2-14.572-0.827-28.063-7.621-39.428c-4.861-8.138-4.62-18.234,0.938-26.199C395.696,193.407,400,180.786,400,167.221
		c0-29.586-20.731-56.386-51.193-68.917c-14.289-5.875-25.331-17.269-29.579-30.751c-8.966-28.435-29.276-41.704-58.394-45.958
		c-26.24-3.834-50.006,4.828-62.531,21.172c-7.345,9.586-22.827,13.648-38.689,9.779c-9.407-2.297-19.455-3.607-29.958-3.697
		c-44.104-0.379-81.731,22.414-88.021,55.235c-2.151,11.228-0.621,22.241,3.862,32.469c7.627,17.421,0.634,36.027-17.29,49.117
		C10.828,198.366,0,215.621,0,234.572c0,22.655,36.731,40.73,67.91,51.518c23.628,8.18,38.007,24.131,41.331,42.621
		c0.042,0.248,0.09,0.489,0.138,0.737c5.972,30.704,39.745,51.249,79.51,49.786c31.779-1.166,59.435-14.876,76.234-33.531
		C272.469,337.552,284.345,332.993,294.938,334.51z"/>
	<circle fill="#F8B600" cx="251.725" cy="203.448" r="86.207"/>
	<path fill="#F4C45B" d="M234.482,154.303c-2.951,0-5.676-1.903-6.593-4.869c-1.117-3.635,0.925-7.497,4.565-8.621
		c6.214-1.911,12.703-2.883,19.27-2.883c3.813,0,6.896,3.083,6.896,6.896s-3.083,6.896-6.896,6.896
		c-5.193,0-10.311,0.766-15.215,2.276C235.834,154.207,235.152,154.303,234.482,154.303z"/>
	<path fill="#F4C45B" d="M193.104,210.345c-3.814,0-6.896-3.083-6.896-6.896c0-19.358,8.49-37.614,23.303-50.104
		c2.918-2.455,7.263-2.076,9.718,0.828c2.448,2.911,2.083,7.262-0.827,9.717c-11.689,9.862-18.4,24.276-18.4,39.559
		C200,207.262,196.917,210.345,193.104,210.345z"/>
	<path fill="#FFFFFF" d="M68.958,117.241c-1.296,0-2.6-0.365-3.766-1.124c-3.186-2.083-4.089-6.352-2-9.545
		c8.821-13.517,20.676-23.648,35.221-30.124c3.49-1.538,7.559,0.021,9.104,3.503c1.545,3.476-0.021,7.559-3.503,9.104
		c-12.083,5.373-21.938,13.807-29.283,25.062C73.421,116.145,71.207,117.241,68.958,117.241z"/>
	<path fill="#FFFFFF" d="M144.834,82.759c-0.317,0-0.634-0.021-0.958-0.069c-0.145-0.014-6.359-0.82-15.249,0.035
		c-3.841,0.359-7.166-2.407-7.531-6.193c-0.373-3.793,2.407-7.166,6.193-7.531c10.697-1.035,18.179-0.007,18.497,0.035
		c3.772,0.531,6.4,4.021,5.869,7.793C151.172,80.276,148.214,82.759,144.834,82.759z"/>
	<path fill="#FFFFFF" d="M167.166,351.49c-21.345,0-40-15.297-43.683-36.635c-0.648-3.752,1.869-7.324,5.621-7.966
		c3.745-0.655,7.324,1.869,7.965,5.62c2.731,15.801,17.386,26.76,33.455,25l1.028-0.117c3.821-0.476,7.228,2.207,7.696,5.986
		c0.469,3.779-2.207,7.229-5.986,7.697l-1.125,0.131C170.476,351.4,168.814,351.49,167.166,351.49z"/>
	<path fill="#FFFFFF" d="M123.862,303.448c-2.324,0-4.586-1.173-5.89-3.296c-4.979-8.132-11.165-12.063-11.228-12.104
		c-3.255-1.986-4.276-6.229-2.283-9.477c1.986-3.255,6.242-4.289,9.476-2.283c0.373,0.221,9.027,5.601,15.793,16.656
		c1.993,3.255,0.973,7.496-2.276,9.482C126.331,303.117,125.09,303.448,123.862,303.448z"/>
	
		<ellipse transform="matrix(-0.5577 -0.83 0.83 -0.5577 240.5049 602.4963)" fill="#F79B21" cx="280.774" cy="237.171" rx="31.033" ry="51.722"/>
</g>
</svg>
