<?xml version="1.0" encoding="utf-8"?>
<!-- Generator: Adobe Illustrator 16.0.0, SVG Export Plug-In . SVG Version: 6.00 Build 0)  -->
<!DOCTYPE svg PUBLIC "-//W3C//DTD SVG 1.1//EN" "http://www.w3.org/Graphics/SVG/1.1/DTD/svg11.dtd">
<svg version="1.1" id="Capa_1" xmlns="http://www.w3.org/2000/svg" xmlns:xlink="http://www.w3.org/1999/xlink" x="0px" y="0px"
	 width="400px" height="400px" viewBox="0 0 400 400" enable-background="new 0 0 400 400" xml:space="preserve">
<g>
	<path fill="#FAB900" d="M199.969,184.28c5.926,0,12.676-0.886,19.705-2.563V0h-38.835v181.856
		C187.658,183.441,194.206,184.28,199.969,184.28z"/>
	<path fill="#FDEB08" d="M258.509,164.521V38.835h-38.835v139.806C232.792,175.519,246.866,172.676,258.509,164.521z"/>
	<path fill="#E09A0A" d="M275.713,148.101c5.359-7.472,13.01-12.8,21.631-15.262V69.903h-38.835v93.204
		C265.305,158.354,271.285,154.284,275.713,148.101z"/>
	<path fill="#FDEB08" d="M308.07,131.278h22.205c2.074,0,4.023,0.388,5.903,0.947V93.204h-38.835v39.635
		C300.8,131.853,304.389,131.278,308.07,131.278z"/>
	<path fill="#FDEB08" d="M180.839,178.641V38.835h-38.835v126.066C153.709,172.979,167.775,175.604,180.839,178.641z"/>
	<path fill="#F8B700" d="M124.264,148.101c4.551,6.346,10.726,10.167,17.74,15.006V69.903h-38.835v63.099
		C111.565,135.534,119.021,140.777,124.264,148.101z"/>
	<path fill="#FDEB08" d="M69.701,131.278h22.206c3.876,0,7.65,0.637,11.262,1.732V93.204H64.334v38.827
		C66.05,131.581,67.829,131.278,69.701,131.278z"/>
	<path fill="#D32500" d="M308.07,127.394c-12.762,0-24.785,6.105-32.148,16.528c-16,22.641-52.419,36.481-75.953,36.481
		c-23.534,0-59.915-13.833-75.915-36.481c-7.363-10.423-19.386-16.528-32.147-16.528H69.701c-12.909,0-20.606,11.286-20.606,24.326
		v1.359c-0.187,76.046,12.474,151.581,37.46,223.402l1.748,5.025C91.845,391.682,103.549,400,114.322,400H285.67
		c13.764,0,25.507-9.949,27.767-23.519l0,0c25.336-71.798,38.012-147.448,37.469-223.581l-0.008-1.181
		c0-13.041-7.697-24.326-20.606-24.326H308.07z"/>
	<path fill="#F55E30" d="M330.283,169.305h-22.205c-12.762,0-24.785,6.105-32.148,16.528c-16,22.641-52.419,36.481-75.953,36.481
		c-23.534,0-59.915-13.833-75.915-36.481c-7.363-10.423-19.386-16.528-32.147-16.528H69.701c-10.548,0-17.53,7.573-19.767,17.437
		c3.068,64.622,15.324,128.528,36.621,189.732c0,0,67.216-15.316,113.709-15.316c46.431,0,112.885,16.994,113.165,15.316
		c21.522-61.002,33.811-124.8,36.723-189.297C348.023,177.095,340.986,169.305,330.283,169.305z"/>
	<ellipse fill="#FAC84D" cx="204.14" cy="291.263" rx="54.369" ry="38.835"/>
</g>
</svg>
