<?xml version="1.0" encoding="utf-8"?>
<!-- Generator: Adobe Illustrator 16.0.0, SVG Export Plug-In . SVG Version: 6.00 Build 0)  -->
<!DOCTYPE svg PUBLIC "-//W3C//DTD SVG 1.1//EN" "http://www.w3.org/Graphics/SVG/1.1/DTD/svg11.dtd">
<svg version="1.1" xmlns="http://www.w3.org/2000/svg" xmlns:xlink="http://www.w3.org/1999/xlink" x="0px" y="0px" width="400px"
	 height="400px" viewBox="0 0 400 400" enable-background="new 0 0 400 400" xml:space="preserve">
<g id="Capa_3">
	<g>
		<path fill="#003879" d="M133.034,86.105c-30.91,0-55.966,25.056-55.966,55.966c0,9.214,2.267,17.883,6.211,25.549
			c6.146-2.321,12.776-3.648,19.736-3.648c21.695,0,40.47,12.37,49.754,30.418c21.157-7.987,36.23-28.368,36.23-52.318
			C189,111.161,163.94,86.105,133.034,86.105z"/>
		<path fill="#1A49C1" d="M47.045,219.938c0-23.22,14.145-43.132,34.283-51.603c-3.809-27.205-27.106-48.16-55.358-48.16
			C-4.944,120.17-30,145.226-30,176.136c0,30.911,25.056,55.967,55.966,55.967c7.69,0,15.016-1.558,21.688-4.363
			C47.292,225.184,47.045,222.592,47.045,219.938z"/>
		<circle fill="#415CCE" cx="103.833" cy="219.938" r="60.904"/>
		<path fill="#121C60" d="M85.453,206.064c-1.303,0-2.585-0.616-3.386-1.774c-1.289-1.866-0.821-4.425,1.044-5.715l11.671-8.068
			c4.65-3.208,10.912-2.896,15.218,0.765l8.894,7.555c1.729,1.466,1.938,4.063,0.473,5.792c-1.471,1.729-4.063,1.943-5.793,0.473
			l-8.895-7.555c-1.458-1.241-3.656-1.348-5.225-0.263l-11.672,8.068C87.071,205.826,86.258,206.064,85.453,206.064z"/>
		<path fill="#121C60" d="M87.519,191.456h-9.674c-2.269,0-4.108-1.841-4.108-4.108c0-2.269,1.84-4.108,4.108-4.108h9.674
			c1.973,0,3.328-1.162,3.447-1.635l1.849-7.346c0.555-2.202,2.79-3.528,4.987-2.982c2.202,0.554,3.533,2.785,2.982,4.987
			l-1.848,7.346C97.802,188.083,92.896,191.456,87.519,191.456z"/>
		<path fill="#121C60" d="M125.462,191.456c-0.118,0-0.241-0.004-0.365-0.018l-11.889-1.051c-5.46-0.485-9.881-4.281-10.279-8.828
			l-0.518-5.941c-0.197-2.259,1.475-4.252,3.734-4.448c2.317-0.243,4.252,1.479,4.45,3.733l0.518,5.937
			c0.103,0.284,1.108,1.208,2.817,1.36l11.894,1.052c2.26,0.201,3.932,2.193,3.73,4.453
			C129.361,189.846,127.57,191.456,125.462,191.456z"/>
		<path fill="#121C60" d="M8.05,162.92c-1.302,0-2.584-0.616-3.385-1.774c-1.29-1.865-0.821-4.425,1.043-5.715l11.672-8.068
			c4.65-3.208,10.912-2.893,15.217,0.765l8.895,7.551c1.729,1.467,1.939,4.059,0.472,5.792c-1.466,1.733-4.059,1.936-5.792,0.473
			l-8.898-7.555c-1.454-1.237-3.652-1.352-5.222-0.264l-11.667,8.068C9.669,162.682,8.855,162.92,8.05,162.92z"/>
		<path fill="#121C60" d="M10.116,148.312H0.441c-2.268,0-4.108-1.841-4.108-4.108s1.841-4.108,4.108-4.108h9.675
			c1.973,0,3.328-1.162,3.447-1.635l1.849-7.346c0.555-2.202,2.785-3.533,4.987-2.982c2.202,0.555,3.533,2.785,2.983,4.987
			l-1.85,7.346C20.403,144.938,15.494,148.312,10.116,148.312z"/>
		<path fill="#121C60" d="M48.06,148.312c-0.119,0-0.242-0.004-0.365-0.017l-11.89-1.052c-5.459-0.485-9.88-4.28-10.278-8.829
			l-0.518-5.936c-0.197-2.26,1.475-4.257,3.734-4.449c2.321-0.234,4.256,1.475,4.449,3.734l0.518,5.937
			c0.103,0.283,1.109,1.212,2.818,1.363l11.893,1.052c2.26,0.201,3.932,2.194,3.73,4.453
			C51.959,146.701,50.167,148.312,48.06,148.312z"/>
		<path fill="#0A1135" d="M114.863,128.009c-1.303,0-2.584-0.616-3.385-1.775c-1.29-1.864-0.822-4.424,1.043-5.714l11.672-8.068
			c4.65-3.213,10.907-2.893,15.217,0.764l8.895,7.551c1.729,1.467,1.938,4.059,0.472,5.793c-1.467,1.733-4.063,1.938-5.793,0.473
			l-8.898-7.556c-1.454-1.236-3.647-1.347-5.221-0.263l-11.671,8.068C116.481,127.771,115.669,128.009,114.863,128.009z"/>
		<path fill="#0A1135" d="M116.93,113.399h-9.675c-2.268,0-4.108-1.84-4.108-4.107c0-2.269,1.841-4.108,4.108-4.108h9.675
			c1.972,0,3.328-1.163,3.446-1.636l1.85-7.345c0.554-2.202,2.781-3.533,4.987-2.982c2.201,0.554,3.533,2.785,2.982,4.987
			l-1.85,7.345C127.217,110.027,122.308,113.399,116.93,113.399z"/>
		<path fill="#0A1135" d="M154.873,113.399c-0.119,0-0.242-0.004-0.365-0.017l-11.89-1.051c-5.46-0.485-9.88-4.281-10.278-8.829
			l-0.518-5.937c-0.197-2.259,1.475-4.256,3.734-4.448c2.313-0.234,4.256,1.475,4.449,3.733l0.518,5.937
			c0.103,0.284,1.109,1.212,2.818,1.364l11.893,1.052c2.26,0.201,3.932,2.193,3.73,4.453
			C158.772,111.789,156.98,113.399,154.873,113.399z"/>
		<path fill="#3265D6" d="M-1.152,206.064c-0.715,0-1.446-0.186-2.104-0.583c-17.447-10.432-14.934-37.487-14.817-38.634
			c0.229-2.256,2.259-3.87,4.494-3.677c2.255,0.226,3.902,2.235,3.681,4.49c-0.021,0.229-2.095,23.022,10.857,30.766
			c1.947,1.163,2.581,3.686,1.418,5.637C1.604,205.35,0.244,206.064-1.152,206.064z"/>
		<path fill="#447CE0" d="M70.035,251.888c-0.72,0-1.446-0.186-2.104-0.584c-17.448-10.431-14.934-37.487-14.818-38.633
			c0.229-2.256,2.26-3.879,4.494-3.678c2.255,0.227,3.903,2.235,3.681,4.49c-0.021,0.23-2.095,23.022,10.858,30.767
			c1.947,1.162,2.58,3.686,1.417,5.637C72.795,251.173,71.432,251.888,70.035,251.888z"/>
		<path fill="#1951A3" d="M92.19,157.641c-1.331,0-2.638-0.645-3.427-1.84c-11.228-16.946,2.732-40.261,3.332-41.247
			c1.184-1.935,3.705-2.547,5.641-1.367c1.935,1.179,2.556,3.701,1.376,5.641c-0.119,0.197-11.836,19.854-3.504,32.438
			c1.253,1.891,0.735,4.441-1.155,5.694C93.755,157.423,92.967,157.641,92.19,157.641z"/>
	</g>
</g>
<g id="Capa_1">
	<g>
		<g>
			<path fill="#F9E280" d="M269.575,51.833c-0.831-1.572-1.651-3.148-2.559-4.698c-3.344-5.704-7.211-10.926-11.369-15.873
				c11.515,47.899-8.436,98.197-38.13,131.017c-59.964,66.283-116.905,88.789-156.908,92.613c-9.538,3.898-19.281,7.015-29.85,9.445
				c-0.475,0.107-0.918,0.141-1.377,0.216c5.406,0.826,11.995,1.459,19.723,1.459c38.195,0,102.923-15.236,176.422-96.485
				C252.602,139.595,272.055,96.011,269.575,51.833z"/>
			<path fill="#F9E280" d="M13.358,259.552l-0.405,1.031c0.362,0.141,1.506,0.567,3.338,1.118
				C15.249,261.042,14.282,260.308,13.358,259.552z"/>
		</g>
		<g>
			<path fill="#F9D70B" d="M30.754,264.337c2.663-0.616,5.276-1.27,7.847-1.972C36.03,263.067,33.417,263.727,30.754,264.337z"/>
			<path fill="#E8C52E" d="M254.681,30.046L238.009,3.447l-11.85,7.81l14.166,27.214c1.199,3.78,2.906,7.782,2.928,11.423
				c0.361,56.935-45.562,116.17-111.656,162.909c-27.209,19.243-48.078,32.594-69.967,41.683c-0.346,0.141-0.691,0.266-1.037,0.406
				c0.005,0,0.011-0.006,0.011-0.006c40.003-3.824,96.944-26.334,156.909-92.613c29.688-32.814,49.639-83.101,38.135-130.995
				C255.318,30.883,255.021,30.44,254.681,30.046z"/>
			<path fill="#F9D70B" d="M45.255,260.405c0.275-0.087,0.562-0.162,0.837-0.249C45.817,260.243,45.53,260.318,45.255,260.405z"/>
			<path fill="#F9D70B" d="M269.371,51.46c0.064,0.125,0.135,0.243,0.199,0.367c2.484,44.178-16.969,87.763-44.049,117.694
				c-73.499,81.254-138.227,96.49-176.421,96.49c-7.728,0-14.317-0.633-19.723-1.459c0.459-0.07,0.902-0.103,1.377-0.216
				c-5.822,1.339-10.58-0.189-14.458-2.636c-1.832-0.551-2.976-0.978-3.338-1.118l0.405-1.031c-4.823-3.959-7.993-8.701-9.992-8.754
				c-3.889-0.109-6.481,7.981-6.772,13.695c46.733,49.472,117.315,38.216,191.322-5.142
				C269.809,211.371,305.421,119.305,269.371,51.46L269.371,51.46z"/>
		</g>
		<path fill="#B58C30" d="M248.751,48.123l8.636-2.074c3.797-0.913,5.449-5.406,3.153-8.571c-1.793-2.474-3.672-4.872-5.644-7.178
			c-0.141-0.173-0.275-0.351-0.395-0.54L240.979,8.189c-1.632-2.598-5.077-3.349-7.638-1.658l-3.062,2.02
			c-2.339,1.539-3.133,4.601-1.842,7.085l11.688,22.457c0.135,0.259,0.242,0.524,0.334,0.805c0.589,1.809,1.259,3.656,1.799,5.493
			C243.069,47.161,245.932,48.797,248.751,48.123z"/>
	</g>
</g>
<g id="Capa_4">
	<path fill="#FF8520" d="M151.646,317.838c0,43.539-35.295,78.834-78.834,78.834s-78.834-35.295-78.834-78.834
		c0-43.536,35.295-78.835,78.834-78.835S151.646,274.302,151.646,317.838z"/>
	<g>
		<path fill="#E6781D" d="M74.137,333.805L79.47,320.5l13.305,5.334l-5.333,13.305L74.137,333.805z"/>
		<path fill="#E6781D" d="M106.076,331.149l5.333-13.305l13.305,5.333l-5.333,13.305L106.076,331.149z"/>
		<path fill="#E6781D" d="M86.105,361.759l5.333-13.305l13.305,5.333l-5.333,13.305L86.105,361.759z"/>
	</g>
	<path fill="#85BC94" d="M153.43,234.548L166,215.267l-22.627-4.192c-17.07-3.163-34.368,4.252-43.851,18.792l-12.57,19.278
		l22.63,4.192C126.653,256.5,143.947,249.085,153.43,234.548z"/>
	<path fill="#A45E14" d="M82.228,267.068c-0.788,0.003-1.571-0.13-2.317-0.385c-3.744-1.277-5.746-5.351-4.472-9.096l0.462-1.347
		c6.649-19.544,6.478-40.769-0.497-60.2c-1.34-3.727,0.591-7.832,4.314-9.176c3.724-1.34,7.832,0.592,9.175,4.315
		c8.066,22.498,8.269,47.071,0.571,69.698l-0.458,1.34C88.016,265.119,85.293,267.068,82.228,267.068z"/>
	<path fill="#E6781D" d="M89.709,278.738c-10.768-0.014-20.968-4.85-27.792-13.182l-0.539-0.658
		c-1.68-1.974-2.166-4.703-1.263-7.135c0.899-2.433,3.044-4.189,5.606-4.592c2.562-0.406,5.141,0.609,6.747,2.646l0.549,0.676
		c4.707,5.795,12.094,8.724,19.495,7.723c3.923-0.528,7.531,2.223,8.063,6.142c0.528,3.923-2.219,7.534-6.142,8.063
		C92.866,278.63,91.288,278.735,89.709,278.738z"/>
</g>
<g id="Capa_2">
	<g>
		<path fill="#D13834" d="M121.488,295.76c0-40.33,27.973-72.968,62.543-72.968h10.426c34.57,0,62.543,32.638,62.543,72.968
			c0,37.423-30.333,67.756-67.756,67.756S121.488,333.177,121.488,295.76z"/>
		<path fill="#ED3F32" d="M178.597,346.691c-0.376,0-0.762-0.042-1.143-0.125c-18.533-4.148-33.605-17.695-39.34-35.358
			c-0.886-2.736,0.61-5.676,3.352-6.566c2.747-0.881,5.682,0.609,6.567,3.351c4.529,13.958,16.976,25.106,31.699,28.4
			c2.81,0.631,4.576,3.414,3.95,6.224C183.13,345.04,180.983,346.691,178.597,346.691z"/>
		<path fill="#ED3F32" d="M141.961,288.453c-0.339,0-0.688-0.032-1.037-0.104c-2.819-0.568-4.648-3.32-4.081-6.14
			c1.423-7.057,4.013-13.691,7.693-19.728c1.5-2.455,4.711-3.227,7.166-1.735c2.455,1.501,3.231,4.707,1.735,7.166
			c-3.044,4.993-5.19,10.497-6.369,16.36C146.568,286.743,144.39,288.453,141.961,288.453z"/>
		<path fill="#ED3F32" d="M257,332.244c0-40.33,27.973-72.969,62.543-72.969h10.426c34.57,0,62.543,32.639,62.543,72.969
			c0,37.422-30.334,67.756-67.756,67.756C287.333,400,257,369.66,257,332.244z"/>
		<path fill="#ED3F32" d="M230.94,274.912c-17.247,0-31.272-14.025-31.272-31.272c0-2.876,2.335-5.212,5.212-5.212
			s5.213,2.336,5.213,5.212c0,11.498,9.35,20.849,20.848,20.849c2.877,0,5.211,2.335,5.211,5.212S233.817,274.912,230.94,274.912z"
			/>
		<path fill="#ED7161" d="M356.027,311.396c-17.246,0-31.271-14.025-31.271-31.271c0-2.877,2.335-5.212,5.213-5.212
			c2.876,0,5.211,2.335,5.211,5.212c0,11.498,9.351,20.848,20.848,20.848c2.878,0,5.213,2.335,5.213,5.212
			C361.24,309.062,358.905,311.396,356.027,311.396z"/>
		<path fill="#4C312C" d="M345.599,290.548c-0.855,0-1.726-0.213-2.528-0.656c-2.512-1.397-3.424-4.571-2.021-7.089
			c22.036-39.663,18.439-73.057-15.418-127.49c-8.25,57.4-59.521,103.818-102.134,103.818c-2.877,0-5.211-2.336-5.211-5.213
			s2.334-5.212,5.211-5.212c40.93,0,92.857-51.468,92.857-109.306c0-2.293,1.506-4.326,3.7-4.988
			c2.194-0.667,4.57,0.188,5.848,2.096c37.428,56.144,53.397,98.908,24.257,151.36C349.205,289.578,347.428,290.548,345.599,290.548
			z"/>
		<path fill="#88C057" d="M319.543,136.68c20.911,15.329,52.893,7.192,68.221-13.718
			C366.853,107.628,334.873,115.769,319.543,136.68z"/>
		<path fill="#659C35" d="M262.213,100.29c3.944,25.627,32.313,42.483,57.94,38.538C316.203,113.2,287.834,96.344,262.213,100.29z"
			/>
		<path fill="#ED7161" d="M313.373,384.974c-0.376,0-0.762-0.042-1.142-0.125c-18.534-4.148-33.606-17.7-39.341-35.363
			c-0.885-2.736,0.61-5.676,3.353-6.567c2.741-0.892,5.681,0.61,6.566,3.352c4.529,13.957,16.976,25.106,31.699,28.405
			c2.81,0.631,4.576,3.42,3.951,6.223C317.907,383.326,315.755,384.974,313.373,384.974z"/>
	</g>
</g>
</svg>
