<?xml version="1.0" encoding="utf-8"?>
<!-- Generator: Adobe Illustrator 16.0.0, SVG Export Plug-In . SVG Version: 6.00 Build 0)  -->
<!DOCTYPE svg PUBLIC "-//W3C//DTD SVG 1.1//EN" "http://www.w3.org/Graphics/SVG/1.1/DTD/svg11.dtd">
<svg version="1.1" id="Capa_1" xmlns="http://www.w3.org/2000/svg" xmlns:xlink="http://www.w3.org/1999/xlink" x="0px" y="0px"
	 width="400px" height="400px" viewBox="0 0 400 400" enable-background="new 0 0 400 400" xml:space="preserve">
<g>
	<g>
		<path fill="#773F3A" d="M311.56,341.975c4.894-3.502,9.627-7.323,14.017-11.713c5.094-5.094,9.531-10.594,13.433-16.359
			l19.102,8.684c6.133-7.893,10.146-13.801,10.146-13.801c15.096-29.32,14.072-61.375-11.945-87.385L192.352,57.441
			c-35.757-35.757-94.277-35.757-130.034,0s-35.757,94.277,0,130.034l163.959,163.959c26.282,26.282,58.721,27.059,88.281,11.467
			L311.56,341.975z"/>
		<path fill="#773F3A" d="M276.027,381.194c-20.31,0-39.428-8.124-55.41-24.106L56.657,193.136
			c-38.963-38.971-38.963-102.377,0-141.348c38.963-38.963,102.385-38.963,141.348,0l163.96,163.968
			c26.506,26.497,31.398,61.75,13.4,96.699l-0.496,0.832c-0.168,0.248-4.229,6.213-10.458,14.216l-3.87,4.981l-18.861-8.579
			c-3.263,4.31-6.765,8.331-10.45,12.018c-3.303,3.302-6.948,6.484-11.082,9.65l3.118,21.788l-4.981,2.631
			C304.044,377.484,289.764,381.194,276.027,381.194z M127.331,38.555c-21.5,0-43,8.171-59.368,24.539
			c-32.727,32.734-32.727,86.002,0,118.736l163.967,163.959c26.729,26.738,56.114,20.51,73.88,12.498l-2.854-19.99l3.957-2.83
			c5.069-3.622,9.323-7.172,13.009-10.857c4.502-4.502,8.691-9.604,12.466-15.185l3.782-5.589l19.453,8.835
			c2.982-3.989,5.053-6.956,5.765-7.979c14.536-28.617,10.746-56.17-10.722-77.63L186.699,63.094
			C170.332,46.735,148.824,38.555,127.331,38.555z"/>
	</g>
	<path fill="#965E5E" d="M62.311,57.441c3.614-3.614,7.516-6.764,11.545-9.651L67.812,5.453c-0.864-6.021-8.883-7.5-11.842-2.183
		l-17.902,32.23c-0.768,1.383-2.031,2.431-3.542,2.934l-16.239,5.413c-5.477,1.823-5.877,9.419-0.624,11.802l33.582,15.264
		C54.458,66.172,58.121,61.639,62.311,57.441z"/>
	<path fill="#965E5E" d="M325.576,330.262c-4.39,4.39-9.123,8.211-14.017,11.713l7.34,51.396c1.048,7.309,10.778,9.107,14.368,2.655
		L355,356.903c0.936-1.687,2.471-2.958,4.302-3.565l19.718-6.573c6.645-2.215,7.132-11.434,0.751-14.328l-40.77-18.526
		C335.107,319.668,330.67,325.168,325.576,330.262z"/>
	<path fill="#965E5E" d="M68.627,201.787c-0.096,0-0.192,0-0.288-0.008c-4.414-0.152-7.859-3.854-7.708-8.268
		C64.437,84.298,150.71,55.746,197.206,55.746c0.52,0,1.047,0,1.559,0.008c4.413,0.064,7.932,3.686,7.876,8.1
		c-0.057,4.382-3.631,7.892-7.996,7.892c-0.136-0.008-0.264,0-0.496,0c-8.707,0-117.369,2.455-121.55,122.326
		C76.455,198.389,72.913,201.787,68.627,201.787z"/>
	<path fill="#965E5E" d="M119.511,252.672c-0.096,0-0.184,0-0.288-0.008c-4.414-0.152-7.86-3.847-7.708-8.268
		c3.806-109.206,90.08-137.758,136.574-137.758c0.52,0,1.048,0,1.56,0.008c4.413,0.064,7.932,3.686,7.876,8.1
		c-0.057,4.414-3.679,7.972-8.092,7.892c-4.798,0.096-117.689,0.088-121.95,122.326
		C127.347,249.273,123.797,252.672,119.511,252.672z"/>
	<path fill="#965E5E" d="M170.396,303.548c-0.096,0-0.184,0-0.288-0.008c-4.414-0.151-7.86-3.846-7.708-8.268
		c3.838-110.444,92.326-138.501,138.133-137.75c4.414,0.064,7.933,3.686,7.876,8.1c-0.056,4.382-3.63,7.892-7.995,7.892
		c-0.12,0.008-0.264,0-0.496,0c-8.723,0-117.376,2.455-121.55,122.318C178.232,300.158,174.689,303.548,170.396,303.548z"/>
	<path fill="#965E5E" d="M221.28,354.44c-0.096,0-0.192,0-0.288-0.008c-4.413-0.151-7.859-3.854-7.707-8.268
		c3.813-109.205,90.079-137.758,136.574-137.758c0.52,0,1.047,0,1.559,0.009c4.414,0.063,7.932,3.686,7.876,8.1
		c-0.056,4.381-3.63,7.891-7.996,7.891c-0.119,0.009-0.264,0-0.495,0c-8.707,0-117.369,2.455-121.551,122.326
		C229.108,351.043,225.566,354.44,221.28,354.44z"/>
	<path fill="#965E5E" d="M68.171,122.502c-2.215,0-4.43-0.919-6.013-2.719c-1.167-1.343-2.19-2.455-3.102-3.438
		c-4.43-4.797-6.868-7.684-9.771-15.943c-1.471-4.166,0.728-8.731,4.894-10.187c4.158-1.487,8.731,0.72,10.187,4.893
		c1.943,5.525,2.895,6.557,6.437,10.403c0.983,1.063,2.095,2.263,3.374,3.718c2.911,3.326,2.583,8.379-0.735,11.29
		C71.929,121.846,70.05,122.502,68.171,122.502z"/>
	<path fill="#965E5E" d="M118.48,172.499c-2.047,0-4.094-0.784-5.653-2.343l-19.83-19.837c-3.126-3.126-3.126-8.18,0-11.306
		c3.126-3.126,8.18-3.126,11.306,0l19.829,19.837c3.126,3.126,3.126,8.18,0,11.306C122.574,171.715,120.527,172.499,118.48,172.499z
		"/>
	<path fill="#965E5E" d="M169.756,223.775c-2.047,0-4.094-0.783-5.653-2.343l-20.653-20.661c-3.126-3.126-3.126-8.18,0-11.306
		c3.126-3.126,8.179-3.126,11.306,0l20.653,20.661c3.126,3.126,3.126,8.18,0,11.306C173.85,222.992,171.803,223.775,169.756,223.775
		z"/>
	<path fill="#965E5E" d="M222.032,276.051c-2.047,0-4.094-0.783-5.653-2.343l-19.597-19.597c-3.126-3.127-3.126-8.18,0-11.307
		c3.126-3.126,8.179-3.126,11.306,0l19.598,19.598c3.126,3.127,3.126,8.18,0,11.306
		C226.126,275.268,224.079,276.051,222.032,276.051z"/>
	<path fill="#965E5E" d="M290.268,339.377c-1.543,0-3.119-0.447-4.494-1.383c-12.232-8.332-24.69-18.742-38.059-31.815
		c-3.158-3.087-3.207-8.155-0.129-11.306c3.103-3.158,8.164-3.215,11.307-0.129c12.689,12.418,24.426,22.236,35.868,30.024
		c3.654,2.495,4.598,7.468,2.119,11.114C295.328,338.146,292.826,339.377,290.268,339.377z"/>
	<path fill="#965E5E" d="M114.314,77.694c-2.063,0-4.126-0.799-5.685-2.375l-1.416-1.439c-4.589-4.677-6.148-6.252-11.658-8.571
		c-4.078-1.711-5.988-6.396-4.277-10.466c1.703-4.085,6.42-6.004,10.466-4.278c8.491,3.558,11.826,6.964,16.879,12.114l1.375,1.399
		c3.103,3.15,3.07,8.212-0.064,11.306C118.376,76.935,116.345,77.694,114.314,77.694z"/>
	<path fill="#965E5E" d="M163.927,127.659c-2.047,0-4.094-0.784-5.653-2.343l-21.9-21.908c-3.126-3.126-3.126-8.18,0-11.306
		c3.126-3.126,8.179-3.126,11.306,0l21.9,21.908c3.126,3.126,3.126,8.18,0,11.306C168.021,126.883,165.975,127.659,163.927,127.659z
		"/>
	<path fill="#965E5E" d="M213.789,177.52c-2.047,0-4.094-0.784-5.653-2.343l-19.757-19.757c-3.126-3.126-3.126-8.18,0-11.306
		c3.126-3.126,8.179-3.126,11.306,0l19.757,19.757c3.127,3.126,3.127,8.18,0,11.306C217.883,176.736,215.836,177.52,213.789,177.52z
		"/>
	<path fill="#965E5E" d="M264.625,228.356c-2.047,0-4.094-0.783-5.652-2.343l-19.742-19.741c-3.126-3.126-3.126-8.18,0-11.306
		c3.127-3.126,8.18-3.126,11.307,0l19.74,19.741c3.127,3.126,3.127,8.18,0,11.306C268.711,227.573,266.664,228.356,264.625,228.356z
		"/>
	<path fill="#965E5E" d="M329.566,299.51c-2.679,0-5.294-1.343-6.813-3.789c-8.659-13.992-20.157-26.362-31.295-37.652
		c-3.103-3.143-3.07-8.203,0.08-11.306c3.134-3.103,8.188-3.07,11.305,0.08c11.803,11.945,24.02,25.13,33.511,40.466
		c2.318,3.758,1.167,8.684-2.591,11.01C332.452,299.135,330.997,299.51,329.566,299.51z"/>
</g>
</svg>
