<?xml version="1.0" encoding="utf-8"?>
<!-- Generator: Adobe Illustrator 16.0.0, SVG Export Plug-In . SVG Version: 6.00 Build 0)  -->
<!DOCTYPE svg PUBLIC "-//W3C//DTD SVG 1.1//EN" "http://www.w3.org/Graphics/SVG/1.1/DTD/svg11.dtd">
<svg version="1.1" id="Capa_1" xmlns="http://www.w3.org/2000/svg" xmlns:xlink="http://www.w3.org/1999/xlink" x="0px" y="0px"
	 width="400px" height="400px" viewBox="0 0 400 400" enable-background="new 0 0 400 400" xml:space="preserve">
<g>
	<path fill="#B85133" d="M370.909,244.698H21.818c-8,0-14.545-6.546-14.545-14.546l0,0c0-8,6.545-14.545,14.545-14.545h349.091
		c8,0,14.545,6.545,14.545,14.545l0,0C385.454,238.152,378.909,244.698,370.909,244.698z"/>
	<path fill="#B85133" d="M363.637,186.517H14.545c-8,0-14.545-6.546-14.545-14.546l0,0c0-8,6.545-14.545,14.545-14.545h349.091
		c8,0,14.545,6.545,14.545,14.545l0,0C378.182,179.971,371.637,186.517,363.637,186.517z"/>
	<path fill="#6A3311" d="M385.454,215.607H29.091c-8,0-14.545-6.545-14.545-14.545l0,0c0-8,6.545-14.546,14.545-14.546h356.363
		c8,0,14.546,6.545,14.546,14.546l0,0C400,209.063,393.454,215.607,385.454,215.607z"/>
	<path fill="#88C057" d="M39.593,126.211v26.647v0.014c0,11.047,8.953,20,20,20c9.294,0,17.105-6.342,19.353-14.931
		c0.189-0.713,1.113-0.713,1.295,0c2.247,8.589,10.058,14.931,19.353,14.931s17.105-6.342,19.353-14.931
		c0.189-0.713,1.113-0.713,1.295,0c2.247,8.589,10.058,14.931,19.353,14.931s17.105-6.342,19.353-14.931
		c0.189-0.713,1.113-0.713,1.295,0c2.247,8.589,10.058,14.931,19.353,14.931s17.105-6.342,19.353-14.931
		c0.189-0.713,1.113-0.713,1.294,0c2.248,8.589,10.059,14.931,19.353,14.931s17.105-6.342,19.353-14.931
		c0.189-0.713,1.113-0.713,1.295,0c2.247,8.589,10.059,14.931,19.353,14.931s17.105-6.342,19.353-14.931
		c0.189-0.713,1.113-0.713,1.295,0c2.247,8.589,10.059,14.931,19.353,14.931c9.295,0,17.105-6.342,19.353-14.931
		c0.189-0.713,1.113-0.713,1.295,0c2.247,8.589,10.058,14.931,19.353,14.931c11.047,0,20-8.953,20-20v-0.014v-26.647H39.593z"/>
	<path fill="#659C35" d="M356.363,273.789v-26.647v-0.015c0-11.047-8.952-20-20-20c-9.294,0-17.105,6.342-19.353,14.932
		c-0.188,0.713-1.112,0.713-1.294,0c-2.248-8.59-10.059-14.932-19.354-14.932c-9.294,0-17.105,6.342-19.353,14.932
		c-0.188,0.713-1.112,0.713-1.294,0c-2.248-8.59-10.059-14.932-19.354-14.932c-9.294,0-17.105,6.342-19.353,14.932
		c-0.188,0.713-1.112,0.713-1.294,0c-2.248-8.59-10.059-14.932-19.354-14.932c-9.294,0-17.105,6.342-19.353,14.932
		c-0.189,0.713-1.112,0.713-1.294,0c-2.247-8.59-10.058-14.932-19.353-14.932s-17.105,6.342-19.353,14.932
		c-0.189,0.713-1.112,0.713-1.294,0c-2.247-8.59-10.058-14.932-19.353-14.932s-17.105,6.342-19.353,14.932
		c-0.189,0.713-1.112,0.713-1.294,0c-2.247-8.59-10.058-14.932-19.353-14.932s-17.105,6.342-19.353,14.932
		c-0.189,0.713-1.112,0.713-1.294,0c-2.247-8.59-10.058-14.932-19.353-14.932c-11.047,0-20,8.953-20,20v0.015v26.647H356.363
		L356.363,273.789z"/>
	<path fill="#D99F4C" d="M199.593,53.483h80c59.898,0,86.851,43.607,96.858,66.429c5.192,11.847-1.731,26.138-14.538,27.927
		c-0.902,0.124-1.761,0.189-2.561,0.189h-159.76H39.84c-0.8,0-1.658-0.065-2.56-0.189c-12.807-1.789-19.73-16.08-14.538-27.927
		c10-22.822,36.953-66.429,96.858-66.429H199.593z"/>
	<path fill="#EFDFA0" d="M272.313,126.211c-1.381,0-2.785-0.4-4.029-1.222l-21.818-14.545c-3.338-2.233-4.239-6.742-2.014-10.087
		c2.225-3.346,6.742-4.24,10.087-2.015l21.818,14.545c3.338,2.233,4.239,6.742,2.015,10.087
		C276.967,125.076,274.662,126.211,272.313,126.211z"/>
	<path fill="#EFDFA0" d="M170.495,97.12c-1.091,0-2.204-0.248-3.244-0.764c-3.593-1.796-5.047-6.167-3.251-9.76l7.273-14.545
		c1.796-3.593,6.152-5.047,9.76-3.251c3.593,1.796,5.047,6.167,3.251,9.76l-7.273,14.545
		C175.731,95.651,173.164,97.12,170.495,97.12z"/>
	<path fill="#EFDFA0" d="M90.495,118.938c-1.091,0-2.204-0.247-3.244-0.763c-3.593-1.796-5.047-6.167-3.251-9.76l7.273-14.545
		c1.796-3.585,6.16-5.033,9.76-3.251c3.593,1.796,5.047,6.167,3.251,9.76l-7.273,14.545
		C95.731,117.469,93.164,118.938,90.495,118.938z"/>
	<path fill="#D99F4C" d="M356.363,251.971H327.52h-29.09H196.611H36.858c-8,0-14.546,6.546-14.546,14.546c0,0,13.164,80,94.298,80
		h80h80c81.134,0,94.298-80,94.298-80C370.909,258.517,364.363,251.971,356.363,251.971z"/>
	<path fill="#EFDFA0" d="M109.331,302.88c-1.382,0-2.786-0.399-4.029-1.222l-21.818-14.545c-3.338-2.233-4.24-6.742-2.014-10.088
		c2.225-3.338,6.734-4.247,10.087-2.015l21.818,14.546c3.338,2.232,4.24,6.742,2.015,10.087
		C113.985,301.746,111.68,302.88,109.331,302.88z"/>
	<path fill="#EFDFA0" d="M189.346,317.426c-2.669,0-5.237-1.469-6.517-4.021l-7.273-14.546c-1.796-3.593-0.342-7.964,3.251-9.761
		c3.6-1.796,7.964-0.342,9.76,3.252l7.272,14.545c1.796,3.593,0.342,7.964-3.251,9.76
		C191.549,317.178,190.437,317.426,189.346,317.426z"/>
	<path fill="#EFDFA0" d="M240.24,302.873c-1.092,0-2.204-0.248-3.244-0.764c-3.592-1.797-5.047-6.168-3.25-9.76l7.271-14.546
		c1.797-3.585,6.153-5.032,9.761-3.251c3.593,1.797,5.048,6.168,3.251,9.76l-7.273,14.546
		C245.477,301.404,242.909,302.873,240.24,302.873z"/>
</g>
</svg>
