<?xml version="1.0" encoding="utf-8"?>
<!-- Generator: Adobe Illustrator 16.0.0, SVG Export Plug-In . SVG Version: 6.00 Build 0)  -->
<!DOCTYPE svg PUBLIC "-//W3C//DTD SVG 1.1//EN" "http://www.w3.org/Graphics/SVG/1.1/DTD/svg11.dtd">
<svg version="1.1" id="Capa_1" xmlns="http://www.w3.org/2000/svg" xmlns:xlink="http://www.w3.org/1999/xlink" x="0px" y="0px"
	 width="400px" height="400px" viewBox="0 0 400 400" enable-background="new 0 0 400 400" xml:space="preserve">
<g>
	<path fill="#E7A33E" d="M373.375,101.6l-14.821-14.822c-11.887-11.88-29.218-14.919-44.081-9.469v72.935
		c0,13.452-11.006,24.458-24.459,24.458c-6.834,0-13.019-2.858-17.47-7.421v17.903c0,9.609-7.862,17.47-17.471,17.47
		s-17.478-7.861-17.478-17.47v-23.78c-45.709,50.622-96.149,96.848-150.817,137.855c-16.303,16.303-16.303,42.99,0,59.293
		l14.822,14.822c16.303,16.304,42.991,16.304,59.294,0c78.68-59.008,148.784-128.665,208.288-206.967l4.186-5.507
		C389.679,144.591,389.679,117.903,373.375,101.6z"/>
	<g>
		<path fill="#E7A33E" d="M296.205,46.799c-18.645-10.517-42.704-7.882-58.588,7.995c-6.436,6.436-10.678,14.221-12.76,22.446
			c-1.461,5.758-5.976,10.272-11.734,11.733c-8.225,2.083-16.009,6.324-22.445,12.76s-10.678,14.221-12.76,22.446
			c-1.46,5.758-5.975,10.272-11.733,11.733c-8.225,2.083-16.01,6.324-22.446,12.76s-10.678,14.221-12.76,22.446
			c-1.461,5.758-5.975,10.272-11.733,11.733c-8.225,2.083-16.01,6.324-22.446,12.76c-6.436,6.436-10.678,14.221-12.76,22.445
			c-1.46,5.759-5.975,10.273-11.733,11.734c-8.225,2.082-16.01,6.324-22.446,12.76c-15.723,15.723-18.484,39.447-8.351,58.008
			C135.318,225.43,220.734,140.363,296.205,46.799z"/>
	</g>
	<path fill="#231F20" d="M35.031,373.089c-2.041,0-4.06-0.888-5.437-2.6c-13.313-16.478-5.569-32.628,0.384-38.868
		c2.663-2.803,7.093-2.893,9.881-0.23c2.774,2.655,2.893,7.044,0.272,9.84c-1.454,1.593-8.155,9.951,0.342,20.481
		c2.425,3.005,1.957,7.4-1.041,9.825C38.127,372.578,36.569,373.089,35.031,373.089z"/>
	<path fill="#231F20" d="M336.45,42.013c-2.041,0-4.061-0.888-5.444-2.6c-2.425-3.005-1.956-7.407,1.049-9.825
		c16.492-13.299,32.627-5.563,38.86,0.384c2.789,2.669,2.9,7.093,0.231,9.881c-2.656,2.774-7.045,2.886-9.84,0.272
		c-1.586-1.447-9.937-8.162-20.482,0.342C339.546,41.502,337.994,42.013,336.45,42.013z"/>
	<path fill="#E2D8BF" d="M133.851,313.787c-3.857,0-6.988-3.123-6.988-6.988v-9.881c0-3.864,3.131-6.988,6.988-6.988
		s6.988,3.124,6.988,6.988v9.881C140.838,310.664,137.715,313.787,133.851,313.787z"/>
	<path fill="#E2D8BF" d="M114.088,353.319c-3.857,0-6.988-3.124-6.988-6.988v-9.881c0-3.864,3.13-6.988,6.988-6.988
		s6.988,3.124,6.988,6.988v9.881C121.076,350.188,117.945,353.319,114.088,353.319z"/>
	<path fill="#E2D8BF" d="M153.62,353.319c-3.857,0-6.988-3.124-6.988-6.988v-9.881c0-3.864,3.13-6.988,6.988-6.988
		s6.988,3.124,6.988,6.988v9.881C160.608,350.188,157.477,353.319,153.62,353.319z"/>
	<path fill="#E2D8BF" d="M163.501,303.906c-3.857,0-6.988-3.123-6.988-6.988v-9.888c0-3.864,3.131-6.988,6.988-6.988
		s6.988,3.124,6.988,6.988v9.888C170.489,300.783,167.358,303.906,163.501,303.906z"/>
	<path fill="#E2D8BF" d="M188.211,269.314c-3.857,0-6.988-3.123-6.988-6.987v-9.882c0-3.863,3.13-6.988,6.988-6.988
		s6.988,3.125,6.988,6.988v9.882C195.199,266.191,192.068,269.314,188.211,269.314z"/>
	<path fill="#E2D8BF" d="M198.092,318.729c-3.857,0-6.988-3.124-6.988-6.988v-9.881c0-3.865,3.131-6.988,6.988-6.988
		c3.857,0,6.988,3.123,6.988,6.988v9.881C205.08,315.604,201.949,318.729,198.092,318.729z"/>
	<path fill="#E2D8BF" d="M217.854,279.196c-3.857,0-6.987-3.124-6.987-6.988v-9.881c0-3.864,3.13-6.988,6.987-6.988
		s6.988,3.124,6.988,6.988v9.881C224.843,276.072,221.719,279.196,217.854,279.196z"/>
	<path fill="#E2D8BF" d="M227.736,239.672c-3.857,0-6.988-3.124-6.988-6.988v-9.889c0-3.864,3.131-6.988,6.988-6.988
		s6.988,3.124,6.988,6.988v9.889C234.725,236.548,231.6,239.672,227.736,239.672z"/>
	<path fill="#E2D8BF" d="M257.387,269.314c-3.857,0-6.988-3.123-6.988-6.987v-9.882c0-3.863,3.131-6.988,6.988-6.988
		s6.988,3.125,6.988,6.988v9.882C264.375,266.191,261.244,269.314,257.387,269.314z"/>
	<path fill="#E2D8BF" d="M346.331,160.601c-3.857,0-6.988-3.124-6.988-6.988v-9.881c0-3.864,3.131-6.988,6.988-6.988
		s6.988,3.124,6.988,6.988v9.881C353.319,157.478,350.188,160.601,346.331,160.601z"/>
	<path fill="#E2D8BF" d="M336.45,121.076c-3.857,0-6.988-3.124-6.988-6.988V104.2c0-3.864,3.131-6.988,6.988-6.988
		s6.988,3.124,6.988,6.988v9.888C343.438,117.953,340.308,121.076,336.45,121.076z"/>
	<path fill="#A35A2D" d="M387.771,17.17l-4.94-4.941c-16.303-16.303-42.991-16.303-59.294,0l-12.83,16.366
		C224.074,139.126,123.788,238.225,12.229,323.536c-16.303,16.304-16.303,42.991,0,59.294l4.941,4.941
		c16.303,16.303,42.991,16.303,59.294,0c7.463-5.703,14.864-11.482,22.222-17.311l-11.915-11.914
		c-2.041-2.041-3.822-4.235-5.353-6.563c-4.584-6.967-6.876-15.024-6.876-23.088c0-10.748,4.074-21.496,12.229-29.651
		c11.209-8.407,22.194-17.093,33.047-25.926c1.586-1.293,3.187-2.558,4.766-3.857c9.909-8.162,19.63-16.548,29.231-25.066
		c2.481-2.201,4.969-4.402,7.428-6.632c8.924-8.057,17.694-16.282,26.332-24.641c2.963-2.871,5.898-5.771,8.826-8.679
		c8.218-8.134,16.332-16.373,24.285-24.773c5.701-6.031,11.341-12.124,16.91-18.281v23.794c0,9.609,7.861,17.47,17.471,17.47
		c9.608,0,17.471-7.861,17.471-17.47v-17.903c4.451,4.563,10.635,7.421,17.47,7.421c13.452,0,24.459-11.006,24.459-24.458V77.303
		c13.822-5.066,29.72-2.69,41.446,7.205c0.755,0.538,1.593,1.23,2.635,2.264l0.007,0.007l11.816,11.817
		c1.523-1.921,3.068-3.822,4.584-5.751l12.831-16.366C404.081,60.161,404.081,33.48,387.771,17.17z"/>
	<path fill="#FFEE76" d="M279.525,105.982c-1.607,0-3.229-0.552-4.543-1.684c-2.928-2.509-3.271-6.918-0.755-9.854l6.988-8.148
		c2.516-2.928,6.933-3.264,9.854-0.748c2.928,2.509,3.271,6.918,0.755,9.854l-6.988,8.148
		C283.452,105.157,281.488,105.982,279.525,105.982z"/>
	<path fill="#FFEE76" d="M233.201,167.715c-3.383,0-6.779-1.16-9.547-3.543c-6.156-5.276-6.869-14.535-1.593-20.692l43.425-50.657
		c5.289-6.164,14.549-6.869,20.705-1.593s6.869,14.535,1.594,20.692l-43.425,50.657
		C241.453,165.982,237.338,167.715,233.201,167.715z"/>
	<path fill="#FFEE76" d="M290.007,174.703L290.007,174.703c-13.452,0-24.458-11.006-24.458-24.458V80.363
		c0-13.452,11.006-24.458,24.458-24.458l0,0c13.452,0,24.459,11.006,24.459,24.458v69.881
		C314.466,163.697,303.459,174.703,290.007,174.703z"/>
	<path fill="#FFEE76" d="M255.066,202.655L255.066,202.655c-9.609,0-17.471-7.861-17.471-17.47v-48.917
		c0-9.609,7.861-17.471,17.471-17.471l0,0c9.608,0,17.471,7.862,17.471,17.471v48.917
		C272.537,194.794,264.675,202.655,255.066,202.655z"/>
</g>
</svg>
