<?xml version="1.0" encoding="utf-8"?>
<!-- Generator: Adobe Illustrator 16.0.0, SVG Export Plug-In . SVG Version: 6.00 Build 0)  -->
<!DOCTYPE svg PUBLIC "-//W3C//DTD SVG 1.1//EN" "http://www.w3.org/Graphics/SVG/1.1/DTD/svg11.dtd">
<svg version="1.1" id="Capa_1" xmlns="http://www.w3.org/2000/svg" xmlns:xlink="http://www.w3.org/1999/xlink" x="0px" y="0px"
	 width="400px" height="400px" viewBox="0 0 400 400" enable-background="new 0 0 400 400" xml:space="preserve">
<g>
	<g>
		<path fill="#F75B57" d="M333.721,122.885l-15.38-10.253c-6.402-4.273-15.03-2.797-19.651,3.368l-0.55,0.734
			c-6.877,9.17-21.165,7.122-25.187-3.613l-5.061-13.495c-4.221-11.254-19.511-12.79-25.883-2.596l-14.342,22.946
			c-5.4,8.643-17.789,9.169-23.91,1.016l-0.379-0.504c-5.801-7.738-17.412-7.738-23.213,0l-3.035,4.043
			c-5.297,7.063-15.624,7.797-21.863,1.55l-3.955-3.954c-5.104-5.104-13.183-5.683-18.962-1.35l-9.971,7.478
			c-6.885,5.164-16.715,3.235-21.144-4.14L91.192,107.38c-3.665-6.105-11.217-8.65-17.827-6.002l-13.206,5.282v220.665
			c0,38.081,30.87,68.958,68.958,68.958h70.872h70.873c38.08,0,68.957-30.869,68.957-68.958V125.088
			C337.749,124.807,335.672,124.184,333.721,122.885z"/>
		<path fill="#E24040" d="M270.868,400H129.125c-40.069,0-72.667-32.598-72.667-72.667v-223.18l15.535-6.209
			c8.339-3.354,17.761-0.164,22.39,7.545l10.045,16.737c1.595,2.648,4.147,4.444,7.181,5.037c3.049,0.594,6.076-0.096,8.554-1.958
			l9.971-7.478c7.189-5.401,17.427-4.689,23.807,1.699l3.954,3.954c2.211,2.211,5.252,3.391,8.398,3.131
			c3.124-0.215,5.995-1.78,7.879-4.288l3.034-4.043c3.472-4.629,8.784-7.286,14.571-7.286s11.099,2.656,14.57,7.286
			c2.545,3.39,5.868,5,9.466,4.8c3.613-0.156,6.789-2.003,8.703-5.06l14.34-22.954c3.703-5.92,10.35-9.155,17.264-8.472
			c6.951,0.697,12.791,5.186,15.238,11.722l5.061,13.495c1.402,3.754,4.614,6.335,8.583,6.899c3.933,0.556,7.761-1.001,10.171-4.199
			l0.542-0.734c5.81-7.745,16.647-9.6,24.683-4.229l15.379,10.252c1.276,0.854,2.723,1.365,4.548,1.617l3.212,0.438v205.479
			C343.535,367.402,310.938,400,270.868,400z M63.876,109.175v218.15c0,35.981,29.267,65.249,65.249,65.249h141.744
			c35.981,0,65.248-29.268,65.248-65.249V128.071c-1.617-0.49-3.086-1.187-4.451-2.1l-15.379-10.252
			c-4.777-3.183-11.188-2.07-14.63,2.5l-0.541,0.734c-4.066,5.408-10.49,8.049-17.16,7.107c-6.691-0.957-12.1-5.312-14.475-11.633
			l-5.059-13.495c-1.477-3.932-4.853-6.536-9.037-6.959c-4.146-0.423-8.004,1.454-10.23,5.022l-14.34,22.954
			c-3.184,5.104-8.673,8.287-14.675,8.539c-6.017,0.371-11.744-2.463-15.343-7.263c-4.866-6.492-13.531-5.995-17.649-0.497
			l-3.034,4.043c-3.167,4.229-8.012,6.87-13.287,7.249c-5.252,0.363-10.438-1.558-14.17-5.29l-3.954-3.955
			c-3.769-3.761-9.845-4.207-14.11-1.001l-9.971,7.478c-4.125,3.079-9.385,4.295-14.43,3.294c-5.052-0.986-9.466-4.087-12.115-8.502
			l-10.045-16.737c-2.738-4.563-8.316-6.447-13.272-4.474L63.876,109.175z"/>
	</g>
	<path fill="#F4BDBD" d="M281.084,179.09h3.346c-14.586,0-28.311-6.061-38.956-16.069c-7.353-6.915-15.535-12.085-24.267-15.29
		c-5.482,2.411-12.145,1.298-16.5-3.487c-1.188-0.074-2.366-0.193-3.568-0.193c-16.358,0-31.574,6.974-44.327,18.97
		c-10.646,10.008-24.371,16.069-38.956,16.069h2.018c-12.79,0-23.258,10.513-23.258,23.362v99.427
		c0,12.85,10.468,23.361,23.258,23.361h-3.45c14.86,0,28.822,6.27,39.513,16.633c12.923,12.531,28.458,19.861,45.203,19.861
		s32.279-7.33,45.203-19.861c10.69-10.363,24.66-16.633,39.512-16.633h-4.777c12.791,0,23.258-10.512,23.258-23.361v-99.435
		C304.35,189.603,293.881,179.09,281.084,179.09z"/>
	<path fill="#FBD490" d="M97.171,126.624l9.489,15.817c4.184,6.974,13.48,8.791,19.986,3.917l9.422-7.063
		c5.46-4.095,13.094-3.553,17.924,1.276l3.732,3.731c5.898,5.898,15.661,5.208,20.661-1.469l2.864-3.821
		c5.482-7.315,16.455-7.315,21.938,0l0.356,0.475c5.779,7.708,17.493,7.211,22.598-0.957l13.554-21.685
		c6.024-9.637,20.476-8.183,24.468,2.456l4.785,12.753c3.805,10.142,17.308,12.078,23.807,3.413l0.52-0.697
		c4.369-5.824,12.522-7.218,18.576-3.183l14.533,9.689c9.11,6.076,21.314-0.46,21.314-11.41v-9.963
		c0-55.76-69.967-39.728-69.967-69.967v-7.864h0.475c12.575,0,22.857-5.713,22.857-18.288v-0.927
		C301.063,10.282,290.773,0,278.205,0H121.794C109.22,0,98.937,10.282,98.937,22.857v0.927c0,12.575,10.283,18.288,22.857,18.288
		h0.468v7.856c0,30.239-69.967,14.207-69.967,69.967v12.263l28.028-11.21C86.57,118.449,93.707,120.853,97.171,126.624z"/>
	<path fill="#EEAF4B" d="M193.067,47.695c-4.095,0-7.418-3.316-7.418-7.418s3.324-7.419,7.418-7.419
		c13.621,0,21.641-0.022,29.654-0.044c8.026-0.03,16.054-0.052,29.697-0.052c4.095,0,7.418,3.316,7.418,7.418
		s-3.323,7.419-7.418,7.419c-13.621,0-21.641,0.022-29.653,0.044C214.73,47.673,206.703,47.695,193.067,47.695z"/>
	<path fill="#EEAF4B" d="M163.392,47.606h-14.838c-4.095,0-7.419-3.316-7.419-7.419s3.324-7.418,7.419-7.418h14.838
		c4.095,0,7.418,3.316,7.418,7.418S167.487,47.606,163.392,47.606z"/>
	<path fill="#ED3F32" d="M241.816,278.131c0,22.924-27.428,51.547-42.258,51.383c-13.532,0-42.257-28.466-42.257-51.383
		c0-22.924,16.462-35.572,42.257-35.572C225.354,242.559,241.816,255.215,241.816,278.131z"/>
	<path fill="#88C057" d="M200.887,246.505c-4.095,0-7.419-3.316-7.419-7.419c0-26.723,21.737-48.459,48.452-48.459
		c4.096,0,7.419,3.316,7.419,7.418c0,4.104-3.323,7.419-7.419,7.419c-18.539,0-33.615,15.083-33.615,33.622
		C208.305,243.188,204.982,246.505,200.887,246.505z"/>
	<path fill="#659C35" d="M200.887,246.505c-4.095,0-7.419-3.316-7.419-7.419c0-18.539-15.083-33.622-33.615-33.622
		c-4.095,0-7.419-3.315-7.419-7.419c0-4.103,3.324-7.418,7.419-7.418c26.723,0,48.452,21.745,48.452,48.459
		C208.305,243.188,204.982,246.505,200.887,246.505z"/>
	<path fill="#D13834" d="M185.648,285.008c-1.929,0-3.858-0.748-5.268-2.15c-1.335-1.41-2.151-3.339-2.151-5.268
		c0-1.93,0.816-3.865,2.151-5.268c2.819-2.745,7.79-2.745,10.535,0c1.335,1.402,2.152,3.338,2.152,5.268
		c0,1.929-0.816,3.857-2.152,5.268C189.506,284.186,187.57,285.008,185.648,285.008z"/>
	<path fill="#D13834" d="M215.324,285.008c-1.93,0-3.858-0.815-5.268-2.15c-1.336-1.41-2.152-3.339-2.152-5.268
		c0-1.93,0.816-3.865,2.152-5.268c2.744-2.745,7.789-2.745,10.534,0c1.335,1.402,2.151,3.338,2.151,5.268
		c0,1.929-0.816,3.857-2.151,5.268C219.182,284.186,217.245,285.008,215.324,285.008z"/>
	<path fill="#D13834" d="M200.486,307.265c-1.929,0-3.858-0.815-5.267-2.151c-1.335-1.41-2.152-3.338-2.152-5.268
		c0-1.929,0.816-3.865,2.152-5.268c2.745-2.744,7.789-2.744,10.535,0c1.335,1.402,2.15,3.339,2.15,5.268
		c0,1.93-0.815,3.857-2.15,5.268C204.344,306.441,202.407,307.265,200.486,307.265z"/>
</g>
</svg>
