<?xml version="1.0" encoding="utf-8"?>
<!-- Generator: Adobe Illustrator 16.0.0, SVG Export Plug-In . SVG Version: 6.00 Build 0)  -->
<!DOCTYPE svg PUBLIC "-//W3C//DTD SVG 1.1//EN" "http://www.w3.org/Graphics/SVG/1.1/DTD/svg11.dtd">
<svg version="1.1" id="Capa_1" xmlns="http://www.w3.org/2000/svg" xmlns:xlink="http://www.w3.org/1999/xlink" x="0px" y="0px"
	 width="400px" height="400px" viewBox="0 0 400 400" enable-background="new 0 0 400 400" xml:space="preserve">
<g>
	<path fill="#DAE7EF" d="M288.852,55.852V52.17h6.156c9.563,0,15.777-7.822,15.777-17.393V17.393C310.785,7.83,304.57,0,295.008,0
		h-78.26h-8.052h-17.748h-8.341h-78.259C94.785,0,88.57,7.822,88.57,17.393v17.393c0,9.563,6.215,17.393,15.778,17.393h8.696v3.674
		c0,33.822-60.867,15.889-60.867,78.259v192.992c0,40.26,32.637,72.896,72.896,72.896H200h74.926
		c40.26,0,72.896-32.637,72.896-72.896v-193C347.83,71.741,288.852,89.674,288.852,55.852z"/>
	<path fill="#F75B57" d="M187.941,146.437c-16.711-5.763-33.267-9.259-49.237-11.111C92.629,130,52.17,165.926,52.17,212.311
		v114.785c0,40.26,32.637,72.896,72.896,72.896H200h74.926c40.26,0,72.896-32.637,72.896-72.896V240.26
		c0-43.882-36.438-78.741-80.304-77.386c-36.378,1.126-63.178-9.333-72.059-13.363C193,148.407,190.496,147.318,187.941,146.437z"/>
	<circle fill="#D13834" cx="133.015" cy="207.407" r="29.63"/>
	<circle fill="#D75A4A" cx="281.163" cy="229.629" r="22.222"/>
	<circle fill="#ED3F32" cx="199.682" cy="274.074" r="14.814"/>
	<circle fill="#F96C7E" cx="133.015" cy="340.741" r="22.222"/>
	<circle fill="#D13834" cx="281.163" cy="333.333" r="14.815"/>
	<path fill="#E22F37" d="M216.451,219.504c-1.11,0-2.244-0.252-3.303-0.777l-18.741-9.379c-3.659-1.829-5.141-6.281-3.311-9.94
		s6.282-5.133,9.941-3.311l18.74,9.378c3.66,1.829,5.141,6.281,3.312,9.94C221.785,218.008,219.163,219.504,216.451,219.504z"/>
	<path fill="#F96C7E" d="M266.348,296.297c-1.896,0-3.792-0.727-5.236-2.171l-14.814-14.815c-2.896-2.896-2.896-7.577,0-10.474
		c2.896-2.896,7.577-2.896,10.474,0l14.814,14.815c2.896,2.896,2.896,7.577,0,10.474
		C270.133,295.57,268.236,296.297,266.348,296.297z"/>
	<path fill="#ED3F32" d="M197.148,358.867c-3.104,0-5.992-1.963-7.029-5.067c-1.296-3.882,0.8-8.081,4.681-9.37l19.882-6.63
		c3.889-1.304,8.074,0.8,9.37,4.682s-0.8,8.081-4.682,9.37l-19.881,6.63C198.711,358.748,197.918,358.867,197.148,358.867z"/>
	<path fill="#ED3F32" d="M103.385,288.889c-1.896,0-3.792-0.726-5.237-2.17c-2.896-2.896-2.896-7.578,0-10.475l14.815-14.814
		c2.896-2.896,7.578-2.896,10.474,0s2.896,7.578,0,10.475l-14.815,14.814C107.17,288.163,105.274,288.889,103.385,288.889z"/>
	<path fill="#FFFFFF" d="M310.785,148.148c-3.452,0-6.541-2.422-7.252-5.94c-8.223-40.704-60.563-53.393-61.096-53.519
		c-3.986-0.934-6.46-4.918-5.526-8.896c0.933-3.985,4.919-6.43,8.896-5.526c2.533,0.593,62.155,15.082,72.236,65
		c0.808,4.015-1.785,7.918-5.792,8.733C311.763,148.104,311.267,148.148,310.785,148.148z"/>
	<path fill="#E6E6E6" d="M190.948,0h25.8h78.26c9.563,0,15.777,7.83,15.777,17.393v17.393c0,9.563-6.215,17.393-15.777,17.393
		h-78.26h-26.089h17.748h-25.8h-78.259c-9.563,0-15.778-7.83-15.778-17.393V17.393C88.57,7.83,94.785,0,104.348,0h78.259h26.089"/>
	<g>
		<path fill="#D2D5D7" d="M266.407,52.17h14.682c0.007-0.111,0.074-0.208,0.074-0.318V0h-14.815v51.852
			C266.348,51.963,266.407,52.059,266.407,52.17z"/>
		<path fill="#D2D5D7" d="M236.777,52.17h14.682c0.008-0.111,0.074-0.208,0.074-0.318V0h-14.814v51.852
			C236.719,51.963,236.777,52.059,236.777,52.17z"/>
		<path fill="#D2D5D7" d="M207.148,52.17h1.259h8.341h5.089c0-0.111,0.067-0.208,0.067-0.318V0h-5.156h-8.052h-1.607v51.852
			C207.089,51.963,207.148,52.059,207.148,52.17z"/>
		<path fill="#D2D5D7" d="M177.519,52.17h5.089h8.052h1.548c0-0.111,0.066-0.208,0.066-0.318V0h-1.326h-8.341h-5.156v51.852
			C177.459,51.963,177.519,52.059,177.519,52.17z"/>
		<path fill="#D2D5D7" d="M147.889,52.17h14.682c0.007-0.111,0.074-0.208,0.074-0.318V0H147.83v51.852
			C147.83,51.963,147.889,52.059,147.889,52.17z"/>
		<path fill="#D2D5D7" d="M118.259,52.17h14.682c0.007-0.111,0.074-0.208,0.074-0.318V0H118.2v51.852
			C118.2,51.963,118.259,52.059,118.259,52.17z"/>
	</g>
</g>
</svg>
