<svg height="512pt" viewBox="0 -99 512.00003 512" width="512pt" xmlns="http://www.w3.org/2000/svg" xmlns:xlink="http://www.w3.org/1999/xlink"><linearGradient id="a"><stop offset="0" stop-color="#cfffb4"/><stop offset="1" stop-color="#8ee388"/></linearGradient><linearGradient id="b" gradientUnits="userSpaceOnUse" x1="341.4455176952" x2="451.2906472472" xlink:href="#a" y1="142.5699259778" y2="142.5699259778"/><linearGradient id="c" gradientUnits="userSpaceOnUse" x1="131.0257755158" x2="183.2297195158" xlink:href="#a" y1="145.2362424176" y2="150.2558524176"/><linearGradient id="d" gradientUnits="userSpaceOnUse" x1="191.3788555664" x2="251.6141755664" xlink:href="#a" y1="144.1076333052" y2="148.1233213052"/><linearGradient id="e" gradientUnits="userSpaceOnUse" x1="285.8432977252" x2="376.47075" xlink:href="#a" y1="142.5699259778" y2="142.5699259778"/><linearGradient id="f" gradientUnits="userSpaceOnUse" x1="213.8355867844" x2="298.164834" xlink:href="#a" y1="142.5699259778" y2="142.5699259778"/><linearGradient id="g"><stop offset="0" stop-color="#f8ebe1"/><stop offset="1" stop-color="#fbd1a2"/></linearGradient><linearGradient id="h" gradientUnits="userSpaceOnUse" x1="256.00011" x2="256.00011" xlink:href="#g" y1="309.0676790884" y2="277.958445329"/><linearGradient id="i" gradientUnits="userSpaceOnUse" x1="224.3155285424" x2="513.9893910508" xlink:href="#g" y1="262.2572056412" y2="262.2572056412"/><linearGradient id="j"><stop offset="0" stop-color="#53d6be" stop-opacity="0"/><stop offset="1" stop-color="#4e6d79"/></linearGradient><linearGradient id="k" gradientUnits="userSpaceOnUse" x1="305.1944966284" x2="144.3168996582" xlink:href="#j" y1="141.788473093" y2="-218.6134009828"/><linearGradient id="l" gradientUnits="userSpaceOnUse" x1="344.4559785966" x2="168.7614968284" xlink:href="#j" y1="137.2638970312" y2="121.3434007786"/><linearGradient id="m" gradientUnits="userSpaceOnUse" x1="418.6755304878" x2="333.1390670672" xlink:href="#j" y1="90.5115506678" y2="4.9750872472"/><linearGradient id="n"><stop offset="0" stop-color="#ffb92d"/><stop offset="1" stop-color="#f59500"/></linearGradient><linearGradient id="o" gradientUnits="userSpaceOnUse" x1="229.5820029622" x2="229.5820029622" xlink:href="#n" y1="71.6782751244" y2="215.3339917534"/><linearGradient id="p" gradientUnits="userSpaceOnUse" x1="369.80972753" x2="369.80972753" xlink:href="#n" y1="71.6782751244" y2="215.3339917534"/><linearGradient id="q" gradientUnits="userSpaceOnUse" x1="256.4050921348" x2="256.4050921348" y1="113.9352595562" y2="2.5185905054"><stop offset="0" stop-color="#fff465" stop-opacity="0"/><stop offset="1" stop-color="#ffe600"/></linearGradient><linearGradient id="r"><stop offset="0" stop-color="#fff465" stop-opacity="0"/><stop offset="1" stop-color="#fff"/></linearGradient><linearGradient id="s" gradientUnits="userSpaceOnUse" x1="256.4059956646" x2="256.4059956646" xlink:href="#r" y1="59.1568579794" y2="-20.001086622"/><linearGradient id="t" gradientUnits="userSpaceOnUse" x1="178.5122900378" x2="134.7585582962" xlink:href="#r" y1="65.3299743574" y2="104.7083128464"/><linearGradient id="u" gradientUnits="userSpaceOnUse" x1="293.0693274968" x2="270.1819137408" xlink:href="#r" y1="73.3071385694" y2="113.4996578004"/><linearGradient id="v" gradientUnits="userSpaceOnUse" x1="372.7961946956" x2="355.3790515254" xlink:href="#r" y1="38.7352774398" y2="69.3214678372"/><path d="m367.390625 10.039062c-15.835937 0-27.976563 14.0625-25.660156 29.730469l34.738281 235.332031h74.820312l-58.667968-245.160156c-2.792969-11.671875-13.230469-19.902344-25.230469-19.902344zm0 0" fill="url(#b)"/><path d="m119.378906 29.941406-58.667968 245.160156h74.820312l34.738281-235.332031c2.316407-15.667969-9.824219-29.730469-25.660156-29.730469-12 0-22.4375 8.230469-25.230469 19.902344zm0 0" fill="url(#c)"/><path d="m171.390625 32.191406-35.859375 242.910156h78.304688l12.285156-237.785156c.765625-14.832031-11.054688-27.277344-25.90625-27.277344h-3.160156c-12.863282 0-23.785157 9.425782-25.664063 22.152344zm0 0" fill="url(#d)"/><path d="m285.878906 37.316406 12.285156 237.785156h78.304688l-35.859375-242.910156c-1.878906-12.726562-12.796875-22.152344-25.660156-22.152344h-3.164063c-14.851562 0-26.671875 12.445313-25.90625 27.277344zm0 0" fill="url(#e)"/><path d="m226.261719 34.640625-12.425781 240.460937h84.328124l-12.425781-240.460937c-.710937-13.789063-12.097656-24.601563-25.90625-24.601563h-7.664062c-13.808594 0-25.195313 10.8125-25.90625 24.601563zm0 0" fill="url(#f)"/><path d="m373.867188 314.082031h-235.734376c-21.859374 0-43.117187-7.136719-60.546874-20.328125l-32.78125-24.8125h422.390624l-32.78125 24.8125c-17.429687 13.191406-38.6875 20.328125-60.546874 20.328125zm0 0" fill="url(#h)"/><path d="m488.128906 286.128906h-464.257812c-13.183594 0-23.871094-10.6875-23.871094-23.871094 0-13.183593 10.6875-23.871093 23.871094-23.871093h464.257812c13.183594 0 23.871094 10.6875 23.871094 23.871093 0 13.183594-10.6875 23.871094-23.871094 23.871094zm0 0" fill="url(#i)"/><path d="m451.292969 275.101562h-120.742188l-167.664062-167.664062c-6.125-4.617188-10.078125-11.957031-10.078125-20.21875v-20.558594c-.050782-.082031-.113282-.152344-.164063-.234375l-29.925781-29.933593c-1.503906-1.066407-2.851562-2.3125-4.023438-3.714844l.679688-2.832032c1.398438-5.84375 4.710938-10.8125 9.167969-14.335937 4.457031-3.515625 10.058593-5.570313 16.0625-5.570313 15.839843 0 27.980469 14.0625 25.667969 29.722657l1.117187-7.566407c1.875-12.730468 12.800781-22.15625 25.660156-22.15625h3.160157c14.859374 0 26.675781 12.445313 25.914062 27.273438l.140625-2.667969c.710937-13.796875 12.09375-24.605469 25.898437-24.605469h7.671876c13.804687 0 25.1875 10.808594 25.898437 24.605469l.140625 2.667969c-.761719-14.828125 11.054688-27.273438 25.914062-27.273438h3.160157c12.859375 0 23.785156 9.425782 25.660156 22.15625l1.09375 7.425782c-2.21875-15.597656 9.898437-29.582032 25.691406-29.582032 11.996094 0 22.429688 8.230469 25.230469 19.90625zm0 0" fill="url(#k)"/><path d="m392.625 29.945312c-2.800781-11.675781-13.234375-19.90625-25.230469-19.90625-15.792969 0-27.910156 13.984376-25.691406 29.582032l-1.09375-7.425782c-1.875-12.730468-12.800781-22.15625-25.660156-22.15625h-3.160157c-14.859374 0-26.675781 12.445313-25.914062 27.273438l-.140625-2.667969c-.601563-11.699219-8.882813-21.25-19.804687-23.882812v85.25c.738281 6.648437 4.050781 12.515625 8.917968 16.589843l158.910156 158.910157c1.105469 1.320312 2.34375 2.519531 3.691407 3.589843h13.84375zm0 0" fill="url(#l)"/><path d="m392.625 29.945312c-2.800781-11.675781-13.234375-19.90625-25.230469-19.90625-8.214843 0-15.433593 3.789063-20.15625 9.621094v21.890625c.167969.902344.25 1.828125.25 2.78125v4.445313c0 7.40625 3.183594 14.070312 8.253907 18.699218l60.292968 60.289063zm0 0" fill="url(#m)"/><path d="m314.949219 10.039062h-3.160157c-14.859374 0-26.675781 12.445313-25.914062 27.273438l-.140625-2.667969c-.710937-13.796875-12.09375-24.605469-25.898437-24.605469h-7.671876c-13.804687 0-25.1875 10.808594-25.898437 24.605469l-.140625 2.667969c.761719-14.828125-11.054688-27.273438-25.914062-27.273438h-3.160157c-12.859375 0-23.785156 9.425782-25.660156 22.15625l-1.117187 7.566407c2.3125-15.660157-9.828126-29.722657-25.667969-29.722657-6.003907 0-11.605469 2.054688-16.0625 5.570313-4.457031 3.523437-7.769531 8.492187-9.167969 14.335937l-.679688 2.832032c3.824219 4.617187 9.605469 7.558594 16.070313 7.558594 9.960937 0 18.042969 8.082031 18.042969 18.050781v28.832031c0 13.984375 11.332031 25.320312 25.308594 25.320312 6.984374 0 13.320312-2.832031 17.898437-7.421874 4.589844-4.578126 7.417969-10.902344 7.417969-17.898438v-28.703125c0-8.089844 6.183594-15.058594 14.265625-15.488281 2.921875-.160156 5.664062.511718 8.03125 1.804687h.011719c4.636718 2.53125 7.808593 7.421875 7.890624 13.0625.121094 8.90625 7.078126 16.191407 15.980469 16.191407h.171875c8.824219 0 15.984375 7.160156 15.984375 15.992187v3.105469c0 13.640625 10.789063 24.765625 24.304688 25.296875.332031.011719.671875.019531 1.011719.019531 6.988281 0 13.3125-2.832031 17.902343-7.417969 4.578125-4.578125 7.40625-10.902343 7.40625-17.898437v-48.410156c0-8.375 6.4375-15.570313 14.789063-15.960938 3.433594-.164062 6.644531.792969 9.285156 2.527344-2.226562-12.296875-12.949219-21.300782-25.519531-21.300782zm0 0" fill="url(#o)"/><path d="m392.625 29.945312c-2.800781-11.675781-13.234375-19.90625-25.230469-19.90625-13.242187 0-23.894531 9.828126-25.679687 22.195313 3.523437 2.859375 5.773437 7.21875 5.773437 12.097656v4.445313c0 13.976562 11.332031 25.308594 25.308594 25.308594 6.988281 0 13.320313-2.828126 17.898437-7.417969 3.867188-3.863281 6.484376-8.964844 7.210938-14.65625zm0 0" fill="url(#p)"/><path d="m134.761719 40.335938c9.964843 0 18.046875 8.078124 18.046875 18.046874v28.839844c0 13.980469 11.332031 25.3125 25.3125 25.3125 13.980468 0 25.3125-11.332031 25.3125-25.3125v-28.707031c0-8.085937 6.1875-15.058594 14.265625-15.492187 8.644531-.464844 15.816406 6.347656 15.933593 14.867187.121094 8.910156 7.074219 16.195313 15.988282 16.195313h.160156c8.832031 0 15.988281 7.160156 15.988281 15.988281v3.109375c0 13.980468 11.332031 25.3125 25.3125 25.3125s25.3125-11.332032 25.3125-25.3125v-48.410156c0-8.371094 6.433594-15.574219 14.792969-15.964844 8.925781-.421875 16.292969 6.691406 16.292969 15.523437v4.441407c0 13.980468 11.335937 25.316406 25.316406 25.316406s25.3125-11.335938 25.3125-25.316406c0 0-.035156-16.5625-.09375-25.792969-.027344-4.707031-1.90625-9.210938-5.242187-12.535157-6.554688-6.527343-15.566407-10.445312-25.382813-10.445312-5.492187 0-10.832031 1.25-15.660156 3.582031-6.734375 3.257813-14.65625 3.148438-21.40625-.082031-4.695313-2.246094-9.921875-3.5-15.378907-3.5h-3.160156c-5.488281 0-10.765625 1.207031-15.546875 3.5-6.613281 3.171875-14.378906 3.089844-21.007812-.050781-4.675781-2.214844-9.898438-3.449219-15.398438-3.449219h-7.664062c-5.503907 0-10.722657 1.234375-15.398438 3.449219-6.628906 3.140625-14.394531 3.222656-21.007812.050781-4.78125-2.292969-10.058594-3.5-15.546875-3.5h-3.160156c-5.457032 0-10.683594 1.253906-15.378907 3.5-6.75 3.230469-14.671875 3.339844-21.410156.082031-4.824219-2.332031-10.164063-3.582031-15.65625-3.582031-9.179687 0-17.65625 3.425781-24.078125 9.207031-4.84375 4.363281-6.925781 11.113281-5.269531 17.417969.152343.582031.316406 1.09375.5 1.488281 3.285156 7.210938 10.558593 12.222657 19 12.222657zm0 0" fill="url(#q)"/><path d="m291.082031 109.460938c-8.972656 0-16.277343-7.300782-16.277343-16.277344v-3.109375c0-13.796875-11.226563-25.023438-25.023438-25.023438h-.164062c-3.84375 0-6.898438-3.199219-6.953126-7.285156-.179687-13.125-11.003906-23.800781-24.132812-23.800781-.4375 0-.878906.011718-1.320312.035156-12.792969.691406-22.8125 11.457031-22.8125 24.515625v28.707031c0 8.976563-7.300782 16.277344-16.277344 16.277344-8.976563 0-16.28125-7.300781-16.28125-16.277344v-28.84375c0-14.929687-12.148438-27.078125-27.078125-27.078125-4.578125 0-8.765625-2.660156-10.714844-6.796875-.019531-.054687-.03125-.113281-.050781-.175781-.78125-2.988281.230468-6.289063 2.582031-8.40625 4.929687-4.441406 11.335937-6.886719 18.027344-6.886719 4.042969 0 8.097656.925782 11.726562 2.679688 4.457031 2.15625 9.460938 3.292968 14.46875 3.292968 5.070313 0 10.179688-1.164062 14.769531-3.359374 3.628907-1.734376 7.492188-2.617188 11.480469-2.617188h3.164063c4.109375 0 8.023437.878906 11.636718 2.613281 4.40625 2.113281 9.351563 3.230469 14.292969 3.230469 4.976563 0 9.988281-1.128906 14.492188-3.261719 3.613281-1.714843 7.492187-2.582031 11.527343-2.582031h7.667969c4.035157 0 7.914063.867188 11.527344 2.582031 4.503906 2.132813 9.515625 3.261719 14.492187 3.261719 4.945313 0 9.886719-1.117188 14.292969-3.230469 3.613281-1.734375 7.53125-2.613281 11.636719-2.613281h3.164062c3.988282 0 7.851563.878906 11.480469 2.617188 4.59375 2.195312 9.699219 3.359374 14.769531 3.359374 5.011719 0 10.011719-1.140624 14.46875-3.292968 3.628907-1.753906 7.683594-2.683594 11.726563-2.683594 7.195313 0 13.949219 2.777344 19.007813 7.816406 1.652343 1.644532 2.570312 3.839844 2.582031 6.183594.058593 9.21875.09375 25.753906.09375 25.757812 0 8.957032-7.300781 16.261719-16.277344 16.261719s-16.277344-7.304687-16.277344-16.277343v-4.441407c0-13.554687-11.027343-24.578125-24.578125-24.578125-.390625 0-.785156.007813-1.179687.027344-13.121094.617188-23.402344 11.59375-23.402344 24.988281v48.414063c.003906 8.976562-7.300781 16.277344-16.277344 16.277344zm0 0" fill="url(#s)"/><path d="m158.808594 35v52.316406c0 10.757813 8.753906 19.511719 19.511718 19.511719 5.214844 0 10.113282-2.027344 13.796876-5.71875 3.6875-3.679687 5.714843-8.578125 5.714843-13.792969v-52.316406zm0 0" fill="url(#t)"/><path d="m271.667969 65.445312c.578125 1.839844.886719 3.769532.886719 5.753907v21.523437c0 10.761719 8.753906 19.515625 19.515624 19.515625 5.207032 0 10.105469-2.03125 13.789063-5.714843 2.921875-2.925782 4.785156-6.613282 5.441406-10.609376v-42.113281h-39.632812zm0 0" fill="url(#u)"/><path d="m352.589844 26.550781c0 .035157.003906.074219.003906.109375v21.527344c0 10.757812 8.753906 19.511719 19.511719 19.511719 5.210937 0 10.105469-2.027344 13.789062-5.714844 2.925781-2.921875 4.789063-6.613281 5.445313-10.609375v-24.824219zm0 0" fill="url(#v)"/></svg>