<svg height="464pt" viewBox="-3 0 464 464.04379" width="464pt" xmlns="http://www.w3.org/2000/svg"><path d="m341.324219 432.890625h-208l-33.085938-44.109375c-23.761719-31.675781-27.101562-74.214844-8.578125-109.210938l5.722656-10.804687c23.6875-44.746094 37.671876-93.984375 41.039063-144.496094l2.894531-43.378906-8.160156-20.398437c-1.859375-4.648438-1.433594-9.902344 1.148438-14.191407 2.582031-4.289062 7.027343-7.125 12.003906-7.65625l112.304687-9.601562c39.097657-3.332031 78.304688-4.734375 117.625-4.199219l5.085938.0625c.011719 19.625-11.070313 37.566406-28.625 46.335938-11.734375 5.871093-18.804688 18.210937-17.933594 31.304687l1.449219 21.761719c3.375 50.5 17.359375 99.722656 41.046875 144.457031l5.71875 10.804687c18.53125 34.992188 15.191406 77.535157-8.566407 109.210938zm0 0" fill="#e4e4e2"/><path d="m82.011719 339.355469-72.648438-72.648438c-8.925781-8.949219-11.746093-22.316406-7.199219-34.109375l30.296876-78.914062c5.941406-15.449219 20.789062-25.644532 37.34375-25.640625h85.054687v32h-68.566406c-13.226563.015625-25.082031 8.167969-29.832031 20.511719l-17.007813 44.121093c-4.546875 11.792969-1.726563 25.160157 7.199219 34.113281l57.945312 57.941407zm0 0" fill="#e4e4e2"/><path d="m97.390625 268.765625-5.730469 10.804687c-18.523437 34.992188-15.1875 77.535157 8.570313 109.210938l33.085937 44.109375h208l33.082032-44.109375c23.757812-31.675781 27.097656-74.21875 8.566406-109.210938l-5.703125-10.804687c-19.113281-36.191406-31.914063-75.378906-37.847657-115.875h-204.167968c-5.941406 40.496094-18.742188 79.683594-37.855469 115.875zm0 0" fill="#fbb540"/><path d="m135.988281 432.042969h204v32h-204zm0 0" fill="#e4e4e2"/><path d="m90.859375 48.042969c-.019531-24.96875 19.105469-45.785157 43.988281-47.875 24.882813-2.085938 47.210938 15.25 51.347656 39.875-11.847656 19.015625-24.988281 37.191406-39.335937 54.402343-2.542969 1.027344-5.253906 1.570313-8 1.597657-26.507813 0-48-21.488281-48-48zm0 0" fill="#fece2f"/><path d="m141.324219 80.890625-1.007813 15.082031c14.726563-.382812 28.453125-7.53125 37.207032-19.382812 8.753906-11.847656 11.554687-27.070313 7.59375-41.257813l-38.785157 3.3125c-4.976562.53125-9.417969 3.367188-12 7.65625-2.585937 4.289063-3.007812 9.542969-1.152343 14.191407zm0 0" fill="#dbdbdb"/><path d="m208.46875 112.042969 45.617188 32.480469-32.480469 45.621093-45.617188-32.480469zm0 0" fill="#c0f5f9"/><g fill="#e4e4e2"><path d="m248.125 152.890625h-68.742188l-3.394531 4.769531 45.617188 32.480469zm0 0"/><path d="m137.894531 373.660156 32.476563-45.617187 45.621094 32.480469-32.480469 45.617187zm0 0"/><path d="m283.203125 312.050781-18.699219-52.789062 52.785156-18.695313 18.699219 52.785156zm0 0"/><path d="m151.984375 247.542969 48.5-28 28 48.496093-48.5 28zm0 0"/></g><path d="m443.773438 390.261719-9.800782-1.601563c-10.070312-21.375-36.175781-36.617187-66.878906-36.617187-30.265625 0-56.066406 14.800781-66.449219 35.664062l-15.328125 2.554688c-8.703125 1.433593-15.089844 8.960937-15.089844 17.78125 0 8.824219 6.386719 16.351562 15.089844 17.785156l15.328125 2.550781c10.382813 20.863282 36.183594 35.664063 66.449219 35.664063 30.703125 0 56.800781-15.238281 66.878906-36.582031l9.800782-1.601563c8.707031-1.433594 15.09375-8.960937 15.09375-17.785156 0-8.820313-6.386719-16.347657-15.09375-17.78125zm0 0" fill="#fece2f"/><path d="m394.859375 400.042969h16v16h-16zm0 0" fill="#eabe2b"/><path d="m362.859375 424.042969h16v16h-16zm0 0" fill="#eabe2b"/><path d="m362.859375 376.042969h16v16h-16zm0 0" fill="#eabe2b"/></svg>