<?xml version="1.0" encoding="utf-8"?>
<!-- Generator: Adobe Illustrator 16.0.0, SVG Export Plug-In . SVG Version: 6.00 Build 0)  -->
<!DOCTYPE svg PUBLIC "-//W3C//DTD SVG 1.1//EN" "http://www.w3.org/Graphics/SVG/1.1/DTD/svg11.dtd">
<svg version="1.1" id="Capa_1" xmlns="http://www.w3.org/2000/svg" xmlns:xlink="http://www.w3.org/1999/xlink" x="0px" y="0px"
	 width="400px" height="400px" viewBox="0 0 400 400" enable-background="new 0 0 400 400" xml:space="preserve">
<g>
	
		<ellipse transform="matrix(0.7071 -0.7071 0.7071 0.7071 30.8241 247.0829)" fill="#C56458" cx="313.667" cy="86.333" rx="42.857" ry="114.284"/>
	<path fill="#FBD490" d="M303.564,96.436c-17.015-17.014-28.914-33.178-36.572-46.329c-3.979-6.821,3.622-14.421,10.451-10.45
		c13.143,7.657,29.313,19.557,46.328,36.571s28.914,33.179,36.571,46.329c3.979,6.821-3.621,14.421-10.45,10.45
		C336.75,125.343,320.578,113.45,303.564,96.436z"/>
	<path fill="#773F3A" d="M283.364,116.636c-44.628-44.628-67.243-94.378-50.507-111.114
		c-59.972,59.971-125.443,197.807-80.814,242.436c44.628,44.629,182.464-20.843,242.436-80.814
		C377.743,183.878,327.993,161.271,283.364,116.636z"/>
	<path fill="#FBD490" d="M162.093,255.364c-3.714-2.021-7.093-4.457-10.043-7.407c-3.9-3.9-6.907-8.543-9.2-13.75l-49.086,49.086
		c-16.721,16.721-39.807,25.371-63.4,23.907c-2.736-0.171-5.585,0.05-8.5,0.714c-10.314,2.357-18.707,10.715-21.079,21.029
		c-4.307,18.721,9.8,35.342,27.786,35.342c0.357,0,0.686-0.092,1.043-0.106c-2.057,7.821-2.057,16.45,9.407,27.735
		c5.114,5.036,11.835,8.286,19.007,8.071c15.371-0.464,27.686-13.071,27.686-28.557c0-0.107,0-0.214,0-0.321
		c-0.264-23.607,7.25-46.615,23.943-63.308L162.093,255.364z"/>
	<path fill="#994530" d="M273.643,154.764c-1.385,0-2.793-0.407-4.021-1.25c-7.399-5.057-14.692-11.164-21.671-18.136
		c-6.979-6.971-13.086-14.271-18.144-21.671c-2.957-4.329-7.842-6.807-13.199-6.543c-5.328,0.229-10.051,3.107-12.643,7.693
		c-4.522,8.036-8.436,16.15-11.629,24.122c-1.464,3.657-5.614,5.436-9.286,3.979c-3.664-1.471-5.443-5.628-3.971-9.293
		c3.421-8.55,7.607-17.235,12.443-25.807c5.021-8.928,14.172-14.521,24.465-14.964c10.342-0.45,19.85,4.314,25.606,12.75
		c4.493,6.585,10.187,13.371,16.442,19.635c6.357,6.35,12.957,11.879,19.637,16.45c3.257,2.229,4.092,6.671,1.863,9.929
		C278.164,153.671,275.922,154.764,273.643,154.764z"/>
	<path fill="#994530" d="M199.357,237.8c-11.221,0.007-20.985-2.864-27.9-9.786c-6.528-6.527-9.829-15.964-9.814-28.014
		c0.007-3.95,3.2-7.136,7.143-7.136h0.007c3.943,0.007,7.143,3.207,7.136,7.157c-0.007,8.129,1.878,14.143,5.628,17.893
		c11.243,11.243,43.829,5.193,79.221-14.735c3.45-1.95,7.793-0.722,9.729,2.722c1.936,3.428,0.713,7.793-2.723,9.721
		C245.95,227.922,220.157,237.8,199.357,237.8z"/>
</g>
</svg>
