<?xml version="1.0" encoding="utf-8"?>
<!-- Generator: Adobe Illustrator 16.0.0, SVG Export Plug-In . SVG Version: 6.00 Build 0)  -->
<!DOCTYPE svg PUBLIC "-//W3C//DTD SVG 1.1//EN" "http://www.w3.org/Graphics/SVG/1.1/DTD/svg11.dtd">
<svg version="1.1" id="Capa_1" xmlns="http://www.w3.org/2000/svg" xmlns:xlink="http://www.w3.org/1999/xlink" x="0px" y="0px"
	 width="400px" height="400px" viewBox="0 0 400 400" enable-background="new 0 0 400 400" xml:space="preserve">
<g>
	<polygon fill="#C6C6C6" points="182.456,400 84.21,357.895 84.21,126.316 182.456,161.403 	"/>
	<polygon fill="#E6E6E6" points="315.789,364.912 182.456,400 182.456,161.403 315.789,126.316 	"/>
	<polygon fill="#E2E2E2" points="266.666,28.07 133.333,56.141 133.333,28.07 266.666,0 	"/>
	<polygon fill="#D1D1D1" points="182.456,161.403 84.21,126.316 133.333,56.141 133.333,56.141 	"/>
	<polygon fill="#EAEAEA" points="315.789,126.316 182.456,161.403 133.333,56.141 266.666,28.07 	"/>
	<polygon fill="#3DABEF" points="315.789,259.648 182.456,364.912 182.456,259.648 315.789,147.368 	"/>
	<polygon fill="#2B9DD6" points="84.21,322.807 182.456,364.912 182.456,259.648 84.21,217.544 	"/>
	<path fill="#FFFFFF" d="M240.105,118.421L240.105,118.421c-15.559,4.07-20.744-9.986-23.193-19.319l0,0
		c-2.441-9.333-4.8-24.133,10.758-28.203l0,0c15.559-4.07,20.744,9.986,23.186,19.319l0,0
		C253.299,99.551,255.663,114.351,240.105,118.421z"/>
	<polygon fill="#EDEDED" points="238.597,33.979 252.631,31.024 252.631,2.955 238.597,5.909 	"/>
	<polygon fill="#EDEDED" points="210.526,39.888 224.562,36.934 224.562,8.863 210.526,11.817 	"/>
	<polygon fill="#EDEDED" points="182.456,45.796 196.491,42.842 196.491,14.772 182.456,17.727 	"/>
	<polygon fill="#EDEDED" points="154.386,51.705 168.421,48.751 168.421,20.681 154.386,23.635 	"/>
</g>
</svg>
