<?xml version="1.0" encoding="utf-8"?>
<!-- Generator: Adobe Illustrator 16.0.0, SVG Export Plug-In . SVG Version: 6.00 Build 0)  -->
<!DOCTYPE svg PUBLIC "-//W3C//DTD SVG 1.1//EN" "http://www.w3.org/Graphics/SVG/1.1/DTD/svg11.dtd">
<svg version="1.1" id="Capa_1" xmlns="http://www.w3.org/2000/svg" xmlns:xlink="http://www.w3.org/1999/xlink" x="0px" y="0px"
	 width="400px" height="400px" viewBox="0 0 400 400" enable-background="new 0 0 400 400" xml:space="preserve">
<g>
	<path fill="#E6E6E6" d="M372.924,203.917c3.304,4.876,2.779,9.959,2.779,15.2c0,0.124-0.027,0.256-0.027,0.379
		c0,0.104,0.027,0.201,0.027,0.304c0,35.132-78.662,66.738-175.696,66.738S24.303,254.932,24.303,219.8
		c0-0.103,0.028-0.2,0.028-0.304c0-0.123-0.028-0.255-0.028-0.379c0-5.241-0.986-10.331,2.317-15.2
		C7.986,214.917,0,227.862,0,241.711c0,39.992,58.621,89.324,200,89.324c156.034,0,200-49.332,200-89.324
		C400,227.862,391.552,214.917,372.924,203.917z"/>
	<path fill="#231F20" d="M241.379,279.642c-15.213,0-27.586-12.372-27.586-27.587c0-3.813,3.083-6.896,6.896-6.896
		c3.814,0,6.896,3.083,6.896,6.896c0,7.607,6.187,13.793,13.793,13.793c7.607,0,13.793-6.186,13.793-13.793
		c0-3.813,3.084-6.896,6.896-6.896c3.814,0,6.896,3.083,6.896,6.896C268.965,267.27,256.594,279.642,241.379,279.642z"/>
	<path fill="#FBD490" d="M28.469,206.124c-2.676,4.407-4.166,8.979-4.166,13.676c0,35.132,78.662,66.738,175.697,66.738
		c97.035,0,175.696-31.606,175.696-66.738c0-4.696-1.489-9.269-4.165-13.676H28.469z"/>
	<path fill="#FBD490" d="M28.469,206.124c-2.676,4.407-4.166,8.979-4.166,13.676c0,35.132,78.662,66.738,175.697,66.738
		c97.035,0,175.696-31.606,175.696-66.738c0-4.696-1.489-9.269-4.165-13.676H28.469z"/>
	<path fill="#D8B173" d="M28.469,179.311c-2.676,4.407-4.166,8.979-4.166,13.676c0,35.131,78.662,66.738,175.697,66.738
		c97.035,0,175.696-31.607,175.696-66.738c0-4.697-1.489-9.269-4.165-13.676H28.469z"/>
	<path fill="#A46F3E" d="M371.531,123.228C351.807,94.379,285.759,68.965,200,68.965S48.193,94.379,28.469,123.228
		c-2.676,4.407-4.166,8.979-4.166,13.676c0,33.448,71.324,63.683,161.904,66.503v24.511c0,9.483,7.758,17.241,17.241,17.241
		c9.483,0,17.241-7.758,17.241-17.241v24.138c0,11.38,9.311,20.689,20.689,20.689c11.38,0,20.689-9.31,20.689-20.689v3.117
		c0,7.587,6.207,13.793,13.794,13.793c7.586,0,13.793-6.206,13.793-13.793v-61.317c51.482-12.014,86.041-33.689,86.041-56.958
		C375.696,132.2,374.207,127.634,371.531,123.228z"/>
	<g>
		<path fill="#FBD490" d="M186.207,227.917v-24.511c-77.793-2.42-141.338-25.068-157.738-52.6l0,0
			c-2.676,4.407-4.166,8.979-4.166,13.676c0,33.49,71.49,63.751,162.221,66.51C186.338,229.993,186.207,228.973,186.207,227.917z"/>
		<path fill="#FBD490" d="M371.504,150.807c-10.607,17.759-40.821,33.476-81.849,43.048v27.58
			c51.482-12.014,86.041-33.69,86.041-56.958c0-4.697-1.489-9.269-4.165-13.676h-0.027V150.807z"/>
	</g>
	<path fill="#FBD490" d="M224.669,177.752c-3.813,0-6.896-3.083-6.896-6.897c0-3.813,3.083-6.896,6.896-6.896
		c63.896,0,111.642-19.145,111.642-36.269c0-3.813,3.083-6.896,6.896-6.896s6.896,3.083,6.896,6.896
		C350.104,160.207,285.477,177.752,224.669,177.752z"/>
	<path fill="#F9D70B" d="M131.035,162.4h-20.69c-7.586,0-13.793-6.207-13.793-13.793v-20.69c0-7.586,6.207-13.793,13.793-13.793
		h20.69c7.586,0,13.793,6.207,13.793,13.793v20.69C144.828,156.193,138.621,162.4,131.035,162.4z"/>
	<path fill="#FBD490" d="M186.207,137.931h-20.69c-7.586,0-13.793-6.207-13.793-13.793v-20.689c0-7.586,6.207-13.793,13.793-13.793
		h20.69c7.586,0,13.793,6.207,13.793,13.793v20.689C200,131.724,193.793,137.931,186.207,137.931z"/>
</g>
</svg>
