<?xml version="1.0" encoding="utf-8"?>
<!-- Generator: Adobe Illustrator 16.0.0, SVG Export Plug-In . SVG Version: 6.00 Build 0)  -->
<!DOCTYPE svg PUBLIC "-//W3C//DTD SVG 1.1//EN" "http://www.w3.org/Graphics/SVG/1.1/DTD/svg11.dtd">
<svg version="1.1" id="Capa_1" xmlns="http://www.w3.org/2000/svg" xmlns:xlink="http://www.w3.org/1999/xlink" x="0px" y="0px"
	 width="400px" height="400px" viewBox="0 0 400 400" enable-background="new 0 0 400 400" xml:space="preserve">
<g>
	<path fill="#EEAF4B" d="M236.764,350.414c26.475,0,51.105-12.151,67.233-32.344c10.588-13.266,21.366-26.378,33.627-38.118
		l18.352-17.588h-0.565c26.085,0,44.59-20.214,44.59-45.154c0-24.94-21.146-45.154-47.238-45.154
		c0-79.802-67.674-122.477-151.158-122.477c-83.485,0-154.365,42.682-154.365,122.483C21.146,172.063,0,192.277,0,217.21
		s21.146,45.154,47.238,45.154l18.351,17.588c12.253,11.74,23.032,24.853,33.627,38.118c16.12,20.192,40.752,32.344,67.233,32.344
		H236.764z"/>
	<path fill="#FBD490" d="M47.238,262.364C21.146,262.364,0,242.15,0,217.21c0-24.94,21.146-45.154,47.238-45.154
		c0-79.802,70.887-122.477,154.365-122.477c83.478,0,151.158,42.682,151.158,122.477c26.084,0,47.238,20.214,47.238,45.154
		c0,24.94-18.498,45.154-44.59,45.154h0.565c-28.366,0-51.362-16.429-51.362-36.687c0,20.258-22.996,36.687-51.361,36.687
		c-28.367,0-51.363-16.429-51.363-36.687c0,20.258-22.995,36.687-51.361,36.687s-51.362-16.429-51.362-36.687
		c0,20.258-22.996,36.687-51.362,36.687"/>
	<path fill="#DC9628" d="M201.787,328.401c-37.143,0-46.05-2.686-65.619-10.097c-3.793-1.438-5.694-5.672-4.263-9.465
		c1.446-3.793,5.672-5.68,9.465-4.264c19.195,7.279,25.63,9.708,75.091,9.033c4.109-0.096,7.382,3.184,7.441,7.234
		c0.059,4.051-3.186,7.381-7.235,7.44C211.244,328.357,206.299,328.401,201.787,328.401z"/>
	<path fill="#DC9628" d="M120.312,300.438c-2.04,0-4.08-0.851-5.533-2.517c-3.911-4.49-7.741-9.37-11.366-14.521
		c-2.333-3.309-1.541-7.887,1.769-10.229c3.302-2.325,7.88-1.54,10.229,1.77c3.338,4.732,6.853,9.215,10.434,13.324
		c2.664,3.053,2.341,7.689-0.712,10.354C123.746,299.844,122.029,300.438,120.312,300.438z"/>
	<path fill="#E2B266" d="M223.902,152.303c0,16.208-9.855,29.35-22.014,29.35c-12.157,0-22.012-13.142-22.012-29.35
		c0-16.208,9.854-58.7,22.012-58.7C214.047,93.604,223.902,136.095,223.902,152.303z"/>
	<path fill="#E2B266" d="M302.853,150.146c4.755,11.189-0.455,24.111-11.638,28.873c-11.189,4.762-24.11-0.455-28.873-11.637
		c-4.762-11.182-8.158-44.369,3.023-49.131C276.548,113.495,298.09,138.963,302.853,150.146z"/>
	<path fill="#E2B266" d="M100.926,150.146c-4.762,11.189,0.455,24.111,11.637,28.873c11.189,4.762,24.111-0.455,28.873-11.637
		c4.762-11.189,8.159-44.369-3.023-49.131C127.224,113.495,105.681,138.963,100.926,150.146z"/>
</g>
</svg>
