<?xml version="1.0" encoding="utf-8"?>
<!-- Generator: Adobe Illustrator 16.0.0, SVG Export Plug-In . SVG Version: 6.00 Build 0)  -->
<!DOCTYPE svg PUBLIC "-//W3C//DTD SVG 1.1//EN" "http://www.w3.org/Graphics/SVG/1.1/DTD/svg11.dtd">
<svg version="1.1" id="Capa_1" xmlns="http://www.w3.org/2000/svg" xmlns:xlink="http://www.w3.org/1999/xlink" x="0px" y="0px"
	 width="400px" height="400px" viewBox="0 0 400 400" enable-background="new 0 0 400 400" xml:space="preserve">
<g>
	<path fill="#E6E6E6" d="M203.084,374.795h76.588c6.936,0,11.215-7.572,7.635-13.508l-0.07-0.119
		c-4.957-8.229-5.922-18.578-1.503-27.107c3.859-7.453,10.131-13.605,18.032-17.382c53.969-25.771,92.242-54.563,96.221-113.309
		c0.377-5.565-4-10.355-9.579-10.355H203.09H9.614c-5.58,0-9.957,4.79-9.579,10.355c3.978,58.737,42.244,87.537,96.221,113.309
		c7.894,3.769,14.172,9.929,18.032,17.382c4.419,8.529,3.454,18.878-1.503,27.107l-0.07,0.119
		c-3.58,5.942,0.699,13.508,7.635,13.508H203.084L203.084,374.795z"/>
	<path fill="#FFFFFF" d="M251.704,332.844h-60.877c-3.859,0-6.992-3.125-6.992-6.992c0-3.865,3.132-6.991,6.992-6.991h60.877
		c3.859,0,6.991,3.126,6.991,6.991C258.695,329.719,255.563,332.844,251.704,332.844z"/>
	<path fill="#FFFFFF" d="M170.501,332.844h-23.674c-3.86,0-6.992-3.125-6.992-6.992c0-3.865,3.132-6.991,6.992-6.991h23.674
		c3.86,0,6.992,3.126,6.992,6.991C177.494,329.719,174.361,332.844,170.501,332.844z"/>
	<path fill="#FFFFFF" d="M251.704,353.819H146.828c-3.86,0-6.992-3.126-6.992-6.991c0-3.867,3.132-6.992,6.992-6.992h104.876
		c3.859,0,6.991,3.125,6.991,6.992C258.695,350.693,255.563,353.819,251.704,353.819z"/>
	<path fill="#D13834" d="M286.663,25.206c-34.756,0-62.926,28.17-62.926,62.926c0,4.916,0.622,9.677,1.685,14.271
		c3.545,3.643,8.957,4.894,13.697,2.699l2.74-1.266c7.629-3.531,16.445,1.559,17.2,9.928l0.272,3.007
		c0.531,5.845,5.16,10.48,11.012,11.005l3.007,0.272c8.369,0.755,13.46,9.579,9.929,17.2l-1.266,2.741
		c-0.42,0.902-0.553,1.853-0.734,2.796c1.783,0.154,3.573,0.273,5.391,0.273c34.757,0,62.927-28.177,62.927-62.926
		C349.589,53.375,321.419,25.206,286.663,25.206z"/>
	<path fill="#436B1C" d="M349.407,91.725c-1.874,33.071-29.204,59.333-62.744,59.333c-1.817,0-3.622-0.084-5.405-0.238
		c-0.887,4.601,0.798,9.404,4.77,12.201l2.475,1.748c6.866,4.838,6.866,15.025-0.007,19.856l-2.468,1.741
		c-2.244,1.58-3.734,3.831-4.51,6.299c0.098,0.112,0.182,0.231,0.279,0.343h93.613c9.991-11.138,16.116-25.814,16.116-41.951
		C391.54,123.601,373.928,100.318,349.407,91.725z"/>
	<path fill="#ED3F32" d="M276.777,85.237c-1.791,0-3.58-0.685-4.943-2.048l-19.78-19.773c-2.733-2.734-2.733-7.153,0-9.886
		c2.733-2.734,7.153-2.734,9.887,0l19.779,19.772c2.733,2.734,2.733,7.153,0,9.887C280.356,84.552,278.566,85.237,276.777,85.237z"
		/>
	<path fill="#ED3F32" d="M316.329,124.782c-1.79,0-3.579-0.685-4.943-2.048l-19.779-19.773c-2.733-2.734-2.733-7.152,0-9.886
		s7.152-2.734,9.886,0l19.78,19.773c2.727,2.733,2.733,7.152,0,9.886C319.902,124.104,318.119,124.782,316.329,124.782z"/>
	<path fill="#ED3F32" d="M296.55,85.237c-1.79,0-3.58-0.685-4.943-2.048c-2.733-2.734-2.733-7.153,0-9.887l19.779-19.772
		c2.734-2.734,7.153-2.734,9.887,0c2.733,2.733,2.727,7.152,0,9.886l-19.78,19.773C300.129,84.552,298.34,85.237,296.55,85.237z"/>
	<path fill="#ED3F32" d="M260.493,121.287c-1.79,0-3.58-0.686-4.943-2.049c-2.733-2.734-2.733-7.152,0-9.886l16.284-16.277
		c2.733-2.734,7.152-2.734,9.886,0s2.733,7.152,0,9.886l-16.284,16.277C264.072,120.608,262.283,121.287,260.493,121.287z"/>
	<path fill="#659C35" d="M370.564,151.058h-27.967c-3.866,0-6.992-3.125-6.992-6.992c0-3.867,3.126-6.992,6.992-6.992h27.967
		c3.866,0,6.992,3.125,6.992,6.992C377.557,147.932,374.431,151.058,370.564,151.058z"/>
	<path fill="#659C35" d="M328.614,193.008c-3.867,0-6.992-3.125-6.992-6.992v-27.967c0-3.867,3.125-6.992,6.992-6.992
		c3.866,0,6.991,3.125,6.991,6.992v27.967C335.605,189.883,332.48,193.008,328.614,193.008z"/>
	<path fill="#88C057" d="M164.034,128.558c6.796,2.118,10.523,9.886,7.37,16.696l-1.266,2.741
		c-2.468,5.328-0.769,11.655,4.027,15.032l2.475,1.748c6.866,4.838,6.866,15.025-0.007,19.856l-2.468,1.741
		c-2.356,1.657-3.937,4.034-4.678,6.649h33.588h78.28c0.733-2.615,2.321-4.985,4.677-6.649l2.469-1.741
		c6.866-4.838,6.873-15.018,0.007-19.856l-2.476-1.748c-4.796-3.377-6.488-9.705-4.026-15.032l1.265-2.741
		c3.531-7.628-1.559-16.445-9.928-17.2l-3.006-0.273c-5.846-0.531-10.481-5.16-11.013-11.005l-0.272-3.006
		c-0.756-8.369-9.579-13.459-17.199-9.929l-2.734,1.259c-5.328,2.468-11.655,0.769-15.032-4.027l-1.741-2.468
		c-4.838-6.873-15.025-6.873-19.863,0l-1.741,2.468c-3.377,4.796-9.705,6.495-15.032,4.027l-2.741-1.272
		c-7.628-3.531-16.444,1.566-17.2,9.928l-0.272,3.006c-0.28,3.09-1.678,6.551-2.748,8.81
		C162.188,126.768,162.783,128.167,164.034,128.558z"/>
	<path fill="#A46F3E" d="M87.712,97.046l40.272-57.158c6.643-9.432,19.801-11.711,29.226-5.062l0,0
		c9.432,6.642,11.711,19.801,5.062,29.226L122,121.209c-6.642,9.432-19.801,11.711-29.226,5.062l0,0
		C83.342,119.629,81.063,106.478,87.712,97.046z"/>
	<path fill="#FBD490" d="M176.633,164.761l-2.468-1.741c-4.796-3.377-6.496-9.705-4.027-15.032l1.266-2.741
		c3.531-7.628-1.566-16.445-9.929-17.2l-3.006-0.272c-5.845-0.531-10.48-5.16-11.005-11.005l-0.273-3.007
		c-0.594-6.558-6.153-11.04-12.193-10.998l-12.991,18.438c-6.643,9.432-19.801,11.711-29.226,5.062l0,0
		c-7.041-4.964-10.089-13.55-8.418-21.514c-3.223,1.629-7.048,1.944-10.516,0.343l-2.741-1.273
		c-7.628-3.531-16.445,1.566-17.2,9.929l-0.273,3.006c-0.531,5.845-5.16,10.48-11.005,11.005l-3.006,0.273
		c-8.369,0.755-13.459,9.579-9.928,17.2l1.265,2.741c2.468,5.328,0.769,11.655-4.027,15.032l-2.468,1.741
		c-6.866,4.838-6.866,15.025,0,19.863l2.468,1.741c2.356,1.657,3.937,4.034,4.671,6.642h137.892
		c0.734-2.615,2.321-4.985,4.671-6.642l2.468-1.741C183.506,179.787,183.506,169.6,176.633,164.761z"/>
	<path fill="#436B1C" d="M206.258,147.562c-1.79,0-3.58-0.685-4.943-2.048c-2.734-2.734-2.734-7.153,0-9.887l10.488-10.487
		c2.733-2.734,7.152-2.734,9.886,0c2.733,2.733,2.733,7.152,0,9.886l-10.487,10.488
		C209.838,146.876,208.047,147.562,206.258,147.562z"/>
	<path fill="#436B1C" d="M244.713,165.041c-1.791,0-3.58-0.685-4.943-2.048L232.777,156c-2.733-2.733-2.733-7.152,0-9.886
		c2.734-2.734,7.152-2.734,9.887,0l6.992,6.992c2.733,2.734,2.733,7.153,0,9.887C248.293,164.356,246.502,165.041,244.713,165.041z"
		/>
	<path fill="#436B1C" d="M209.754,179.024c-1.79,0-3.58-0.685-4.943-2.048c-2.734-2.734-2.734-7.153,0-9.886l6.992-6.992
		c2.733-2.733,7.152-2.733,9.886,0c2.733,2.734,2.733,7.153,0,9.887l-6.991,6.992C213.334,178.339,211.543,179.024,209.754,179.024z
		"/>
</g>
</svg>
