<svg height="464pt" viewBox="0 0 464 464" width="464pt" xmlns="http://www.w3.org/2000/svg"><path d="m128 0h336v320zm0 0" fill="#f0dbc2"/><path d="m464 424-336-320v-104l336 320zm0 0" fill="#e6c7a3"/><path d="m128 45.617188v22.101562l336 320v-22.101562zm0 0" fill="#ffb433"/><g fill="#e6c7a3"><path d="m376 180.6875 44.683594-44.683594c3.125-3.125 8.191406-3.125 11.3125 0 3.125 3.121094 3.125 8.1875 0 11.3125l-44.683594 44.683594c-3.121094 3.125-8.1875 3.125-11.3125 0s-3.125-8.191406 0-11.3125zm0 0"/><path d="m320 132.6875 84.6875-84.6875c3.125-3.125 8.191406-3.125 11.316406 0 3.121094 3.125 3.121094 8.1875 0 11.3125l-84.691406 84.6875c-3.121094 3.125-8.1875 3.125-11.3125 0-3.125-3.121094-3.125-8.1875 0-11.3125zm0 0"/><path d="m264 76.6875 36.683594-36.683594c3.125-3.125 8.191406-3.125 11.316406 0s3.125 8.1875 0 11.3125l-36.6875 36.6875c-3.121094 3.121094-8.1875 3.121094-11.3125 0-3.125-3.125-3.125-8.191406 0-11.316406zm0 0"/></g><path d="m370.894531 302.183594c4.65625-.144532 9.378907-.550782 14.128907-1.175782l-207.925782-198.03125c-14.511718 23.796876-40.046875 38.675782-67.90625 39.558594-4.960937.148438-9.914062.5625-14.832031 1.234375-3.078125.417969-6.128906.953125-9.152344 1.597657l213.410157 203.242187c13.671874-27.636719 41.460937-45.484375 72.277343-46.425781zm0 0" fill="#ffb433"/><path d="m336 384h-336v-320zm0 0" fill="#f0dbc2"/><path d="m0 384h336v80h-336zm0 0" fill="#e6c7a3"/><path d="m0 416h336v16h-336zm0 0" fill="#ffb433"/><path d="m32.003906 244.691406 44.683594-44.683594c3.121094-3.125 8.1875-3.125 11.3125 0 3.125 3.121094 3.125 8.1875 0 11.3125l-44.683594 44.683594c-3.125 3.125-8.191406 3.125-11.3125 0-3.125-3.125-3.125-8.191406 0-11.3125zm0 0" fill="#e6c7a3"/><path d="m48 332.683594 84.6875-84.691406c3.125-3.125 8.191406-3.125 11.316406 0s3.125 8.191406 0 11.316406l-84.691406 84.6875c-3.121094 3.125-8.1875 3.125-11.3125 0s-3.125-8.191406 0-11.3125zm0 0" fill="#e6c7a3"/><path d="m152 340.6875 36.6875-36.683594c3.121094-3.125 8.1875-3.125 11.3125 0s3.125 8.191406 0 11.3125l-36.683594 36.6875c-3.125 3.121094-8.191406 3.121094-11.316406 0-3.125-3.125-3.125-8.191406 0-11.316406zm0 0" fill="#e6c7a3"/></svg>