<?xml version="1.0" encoding="utf-8"?>
<!-- Generator: Adobe Illustrator 16.0.0, SVG Export Plug-In . SVG Version: 6.00 Build 0)  -->
<!DOCTYPE svg PUBLIC "-//W3C//DTD SVG 1.1//EN" "http://www.w3.org/Graphics/SVG/1.1/DTD/svg11.dtd">
<svg version="1.1" id="Capa_1" xmlns="http://www.w3.org/2000/svg" xmlns:xlink="http://www.w3.org/1999/xlink" x="0px" y="0px"
	 width="400px" height="400px" viewBox="0 0 400 400" enable-background="new 0 0 400 400" xml:space="preserve">
<g>
	<path fill="#A46F3E" d="M298.688,89.276c-0.242,45.125-9.731,92.481-63.306,146.056c-52.25,52.25-99.99,63.03-144.574,63.479
		c-3.804-0.458-11.812,0.108-11.812,0.108c-9.54,1.315-18.754,5.594-26.088,12.928c-17.439,17.439-17.822,45.433-1.224,63.389
		c0,0,4.187,4.062,5.744,5.269c53.524,43.618,162.33,11.704,248.583-74.542c86.255-86.247,118.161-195.061,74.543-248.584
		c-1.207-1.565-5.27-5.744-5.27-5.744c-17.955-16.59-45.949-16.215-63.388,1.224C301.941,62.831,297.538,76.249,298.688,89.276z"/>
	<path fill="#BF8555" d="M187.543,322.936c-3.196,0-6.243-1.849-7.617-4.953c-1.865-4.204,0.033-9.123,4.237-10.98
		c74.776-33.129,130.231-103.527,137.989-175.164c0.5-4.57,4.629-7.95,9.174-7.384c4.578,0.5,7.874,4.604,7.383,9.173
		c-8.507,78.563-66.518,152.582-147.795,188.591C189.807,322.711,188.667,322.936,187.543,322.936z"/>
	<path fill="#BF8555" d="M124.379,338.252c-4.487,0-8.183-3.571-8.316-8.092c-0.133-4.595,3.488-8.424,8.091-8.557
		c10.705-0.3,21.692-1.939,32.655-4.861c4.404-1.182,8.999,1.448,10.189,5.893c1.19,4.438-1.457,9.008-5.894,10.189
		c-12.211,3.264-24.473,5.078-36.477,5.428C124.546,338.252,124.462,338.252,124.379,338.252z"/>
	<path fill="#BF8555" d="M44.301,324.217l-33.713-25.28c-5.069-3.796-12.062,1.016-10.322,7.108l10.546,36.901
		c0.458,1.59,0.292,3.288-0.441,4.77l-7.975,15.94c-2.689,5.378,2.605,11.255,8.232,9.148l32.073-12.027
		C38.108,348.957,38.716,335.704,44.301,324.217z"/>
	<path fill="#BF8555" d="M324.159,44.359l-25.28-33.713c-3.797-5.069,1.016-12.062,7.108-10.322l36.9,10.546
		c1.59,0.458,3.288,0.292,4.771-0.441l15.94-7.975c5.377-2.688,11.254,2.605,9.148,8.232l-12.028,32.073
		C348.898,38.166,335.638,38.774,324.159,44.359z"/>
</g>
</svg>
