<svg height="438pt" viewBox="-49 0 438 438.976" width="438pt" xmlns="http://www.w3.org/2000/svg"><path d="m264.328125 160.574219-5.039063 39.503906-10.800781-41.101563.160157-1.601562 24-120c.453124-2.265625 1.863281-4.226562 3.871093-5.375l56-32 7.96875 13.921875-52.871093 30.199219zm0 0" fill="#834b10"/><path d="m120.03125 55.382812c-3.9375-2.003906-8.757812-.433593-10.757812 3.503907l-6.296876 12.386719-12.28125-21.832032c-2.207031-3.757812-7.015624-5.050781-10.816406-2.917968-3.796875 2.136718-5.1875 6.917968-3.125 10.757812l12.277344 21.839844-13.855469-1.050782c-2.878906-.265624-5.675781 1.039063-7.320312 3.417969-1.644531 2.378907-1.878907 5.457031-.609375 8.054688 1.265625 2.597656 3.835937 4.3125 6.722656 4.480469l28.800781 2.175781h.605469c.707031-.003907 1.410156-.101563 2.089844-.289063.277344-.078125.535156-.222656.800781-.324218.347656-.113282.6875-.253907 1.015625-.417969l.078125-.0625c.808594-.480469 1.523437-1.097657 2.121094-1.824219.160156-.203125.28125-.402344.414062-.601562.222657-.269532.421875-.554688.601563-.855469l13.039062-25.648438c.972656-1.894531 1.152344-4.097656.492188-6.125-.65625-2.023437-2.09375-3.703125-3.996094-4.667969zm0 0" fill="#85bc94"/><path d="m80.488281 222.976562v-32h-48c-17.671875 0-32 14.328126-32 32v96c0 17.671876 14.328125 32 32 32h48v-32h-48v-96zm0 0" fill="#ebebeb"/><path d="m72.488281 166.976562h224v216c0 30.925782-25.074219 56-56 56h-112c-30.929687 0-56-25.074218-56-56zm0 0" fill="#ebebeb"/><path d="m192.488281 38.976562c-1.929687 11.59375-6.800781 22.5-14.144531 31.679688l-25.855469 32.320312 72 13v-13.433593c-.445312-19.667969-8.242187-38.457031-21.855469-52.664063zm0 0" fill="#ef748e"/><path d="m240.488281 166.976562h-112v-24c0-26.511718 21.488281-48 48-48h16c26.507813 0 48 21.488282 48 48zm0 0" fill="#e26e86"/><path d="m230.808594 133.265625h-92.640625c-18.613281 0-33.699219 15.097656-33.679688 33.710937v216c0 13.253907 10.746094 24 24 24h112c13.253907 0 24-10.746093 24-24v-216c.015625-18.613281-15.066406-33.710937-33.679687-33.710937zm0 0" fill="#ef748e"/><path d="m104.488281 214.976562v168c0 13.253907 10.746094 24 24 24h112c13.253907 0 24-10.746093 24-24v-216h-160zm0 0" fill="#e26e86"/><path d="m138.632812 150.976562c-17.96875-1.359374-34.070312-11.613281-42.90625-27.320312l-1.542968-2.746094c-6.5-11.550781-2.402344-26.1875 9.152344-32.6875 11.550781-6.492187 26.183593-2.398437 32.679687 9.152344l1.550781 2.753906c8.832032 15.703125 9.234375 34.785156 1.066406 50.847656zm0 0" fill="#f55648"/><g fill="#c76176"><path d="m176.488281 246.976562h16v16h-16zm0 0"/><path d="m216.488281 270.976562h16v16h-16zm0 0"/><path d="m128.488281 278.976562h16v16h-16zm0 0"/><path d="m136.488281 246.976562h16v16h-16zm0 0"/><path d="m200.488281 222.976562h16v16h-16zm0 0"/><path d="m224.488281 190.976562h16v16h-16zm0 0"/><path d="m176.488281 190.976562h16v16h-16zm0 0"/><path d="m136.488281 206.976562h16v16h-16zm0 0"/><path d="m208.488281 318.976562h16v16h-16zm0 0"/><path d="m216.488281 366.976562h16v16h-16zm0 0"/><path d="m144.488281 318.976562h16v16h-16zm0 0"/><path d="m176.488281 342.976562h16v16h-16zm0 0"/><path d="m128.488281 350.976562h16v16h-16zm0 0"/><path d="m176.488281 286.976562h16v16h-16zm0 0"/></g></svg>