<svg height="471pt" viewBox="-115 0 471 471.52003" width="471pt" xmlns="http://www.w3.org/2000/svg"><path d="m185.261719 471.519531h-130c-8.449219.019531-15.457031-6.535156-16-14.96875l-15-233.03125h192l-15.035157 233.03125c-.542968 8.421875-7.53125 14.96875-15.964843 14.96875zm0 0" fill="#e4e4e2"/><path d="m232.261719 191.519531h-8v-8c0-57.4375-46.5625-104-104-104s-104 46.5625-104 104v8h-8c-4.421875 0-8 3.582031-8 8v16c0 4.417969 3.578125 8 8 8h224c4.417969 0 8-3.582031 8-8v-16c0-4.417969-3.582031-8-8-8zm0 0" fill="#ebebeb"/><path d="m152.261719 263.519531c-32 0-32 16-64 16-31.066407 0-32-15.054687-61.386719-15.917969l12.449219 192.949219c.542969 8.433594 7.550781 14.988281 16 14.96875h130c8.449219.019531 15.453125-6.535156 16-14.96875l11.421875-177.144531c-28.484375-1.183594-29.773438-15.886719-60.484375-15.886719zm0 0" fill="#6fbbc6"/><path d="m205.941406 383.519531 3.09375-48h-177.550781l3.09375 48zm0 0" fill="#da922a"/><path d="m128.261719 447.519531h-16v-408c-.003907-3.363281 2.101562-6.367187 5.261719-7.519531l88-32 5.472656 15.039062-82.734375 30.082032zm0 0" fill="#a45e14"/><path d="m112.261719 223.519531h16v-143.589843c-2.648438-.210938-5.296875-.410157-8-.410157-2.707031 0-5.355469.199219-8 .410157zm0 0" fill="#985713"/><path d="m112.261719 223.519531h16v224h-16zm0 0" fill="#834b10"/><path d="m160.261719 359.519531c0 22.09375-17.910157 40-40 40-22.09375 0-40-17.90625-40-40 0-22.089843 17.90625-40 40-40 22.089843 0 40 17.910157 40 40zm0 0" fill="#ea9d2d"/><g fill="#64a8b2"><path d="m152.261719 287.519531h16v16h-16zm0 0"/><path d="m56.261719 295.519531h16v16h-16zm0 0"/><path d="m56.261719 407.519531h16v16h-16zm0 0"/><path d="m80.261719 431.519531h16v16h-16zm0 0"/><path d="m144.261719 431.519531h16v16h-16zm0 0"/><path d="m168.261719 407.519531h16v16h-16zm0 0"/></g></svg>