<?xml version="1.0" encoding="utf-8"?>
<!-- Generator: Adobe Illustrator 16.0.0, SVG Export Plug-In . SVG Version: 6.00 Build 0)  -->
<!DOCTYPE svg PUBLIC "-//W3C//DTD SVG 1.1//EN" "http://www.w3.org/Graphics/SVG/1.1/DTD/svg11.dtd">
<svg version="1.1" id="Capa_1" xmlns="http://www.w3.org/2000/svg" xmlns:xlink="http://www.w3.org/1999/xlink" x="0px" y="0px"
	 width="400px" height="400px" viewBox="0 0 400 400" enable-background="new 0 0 400 400" xml:space="preserve">
<g>
	<path fill="#D2D5D7" d="M386.207,265.518H13.793C6.207,265.518,0,259.311,0,251.725l0,0c0-7.587,6.207-13.793,13.793-13.793
		h372.414c7.586,0,13.793,6.206,13.793,13.793l0,0C400,259.311,393.793,265.518,386.207,265.518z"/>
	<path fill="#E6E6E6" d="M16.952,265.518c20.435,31.931,107.186,70.379,107.186,117.241H200h75.862
		c0-46.862,86.752-85.311,107.186-117.241H16.952z"/>
	<path fill="#DBB579" d="M62.069,224.138c-3.813,0-6.896-3.083-6.896-6.896c0-41.828,34.035-75.862,75.862-75.862h13.793
		c3.814,0,6.896,3.083,6.896,6.896s-3.083,6.896-6.896,6.896h-13.793c-34.228,0-62.069,27.841-62.069,62.069
		C68.965,221.055,65.883,224.138,62.069,224.138z"/>
	<path fill="#DBB579" d="M103.448,224.138c-3.814,0-6.896-3.083-6.896-6.896c0-19.014,15.469-34.482,34.483-34.482h34.482
		c3.814,0,6.896,3.083,6.896,6.896c0,3.813-3.083,6.896-6.896,6.896h-34.482c-11.407,0-20.69,9.282-20.69,20.689
		C110.345,221.055,107.262,224.138,103.448,224.138z"/>
	<path fill="#FBD490" d="M82.759,224.138c-3.814,0-6.896-3.083-6.896-6.896c0-30.42,24.751-55.172,55.172-55.172h27.586
		c3.814,0,6.896,3.083,6.896,6.896c0,3.814-3.083,6.897-6.896,6.897h-27.586c-22.821,0-41.379,18.559-41.379,41.379
		C89.655,221.055,86.572,224.138,82.759,224.138z"/>
	<path fill="#FBD490" d="M165.517,217.241h-34.482c-3.814,0-6.897-3.083-6.897-6.896s3.083-6.896,6.897-6.896h34.482
		c3.814,0,6.896,3.083,6.896,6.896S169.331,217.241,165.517,217.241z"/>
	<path fill="#FBD490" d="M331.034,224.138c-3.813,0-6.896-3.083-6.896-6.896c0-34.228-27.841-62.069-62.069-62.069h-48.275
		c-3.813,0-6.896-3.083-6.896-6.896s3.083-6.896,6.896-6.896h48.275c41.828,0,75.862,34.034,75.862,75.862
		C337.931,221.055,334.849,224.138,331.034,224.138z"/>
	<path fill="#FBD490" d="M289.655,224.138c-3.813,0-6.896-3.083-6.896-6.896c0-11.407-9.282-20.689-20.69-20.689h-34.482
		c-3.813,0-6.896-3.083-6.896-6.896c0-3.814,3.083-6.896,6.896-6.896h34.482c19.014,0,34.483,15.469,34.483,34.482
		C296.552,221.055,293.469,224.138,289.655,224.138z"/>
	<path fill="#DBB579" d="M310.345,224.138c-3.813,0-6.896-3.083-6.896-6.896c0-22.82-18.559-41.379-41.38-41.379h-41.379
		c-3.813,0-6.896-3.083-6.896-6.897c0-3.813,3.083-6.896,6.896-6.896h41.379c30.422,0,55.173,24.752,55.173,55.172
		C317.241,221.055,314.158,224.138,310.345,224.138z"/>
	<path fill="#DBB579" d="M262.068,217.241h-34.482c-3.813,0-6.896-3.083-6.896-6.896s3.083-6.896,6.896-6.896h34.482
		c3.814,0,6.896,3.083,6.896,6.896S265.883,217.241,262.068,217.241z"/>
	<path fill="#FBD490" d="M186.207,224.138c-3.814,0-6.896-3.083-6.896-6.896c0-60.331-18.048-89.655-55.173-89.655
		c-3.807,0-6.896,3.089-6.896,6.896c0,3.813-3.083,6.896-6.896,6.896c-3.813,0-6.896-3.083-6.896-6.896
		c0-11.407,9.283-20.69,20.689-20.69c31.462,0,68.966,17.952,68.966,103.448C193.104,221.055,190.021,224.138,186.207,224.138z"/>
	<path fill="#DBB579" d="M206.896,224.138c-3.814,0-6.896-3.083-6.896-6.896c0-33.179-7.393-110.345-75.862-110.345
		c-19.014,0-34.482,15.469-34.482,34.483v6.896c0,3.814-3.083,6.896-6.896,6.896c-3.814,0-6.896-3.083-6.896-6.896v-6.896
		c0-26.614,21.662-48.276,48.275-48.276c56.145,0,89.655,46.407,89.655,124.138C213.793,221.055,210.711,224.138,206.896,224.138z"
		/>
	<circle fill="#A46F3E" cx="175.862" cy="62.069" r="31.034"/>
	<circle fill="#A46F3E" cx="300" cy="110.345" r="31.034"/>
	<circle fill="#4C312C" cx="231.035" cy="103.448" r="31.034"/>
	<circle fill="#4C312C" cx="272.414" cy="48.276" r="31.035"/>
	<path fill="#F75B57" d="M285.4,355.172H114.6c3.007,4.511,5.42,9.111,7.055,13.793h156.683
		C279.979,364.283,282.393,359.683,285.4,355.172z"/>
	<path fill="#FFFFFF" d="M285.4,355.172c3.123-4.689,6.855-9.289,11.076-13.793H103.524c4.221,4.504,7.952,9.104,11.076,13.793
		H285.4z"/>
	<path fill="#88C057" d="M89.048,327.586c5.172,4.504,10.076,9.097,14.483,13.793h192.945c4.399-4.696,9.31-9.289,14.482-13.793
		H89.048z"/>
</g>
</svg>
