<?xml version="1.0" encoding="utf-8"?>
<!-- Generator: Adobe Illustrator 16.0.0, SVG Export Plug-In . SVG Version: 6.00 Build 0)  -->
<!DOCTYPE svg PUBLIC "-//W3C//DTD SVG 1.1//EN" "http://www.w3.org/Graphics/SVG/1.1/DTD/svg11.dtd">
<svg version="1.1" id="Capa_1" xmlns="http://www.w3.org/2000/svg" xmlns:xlink="http://www.w3.org/1999/xlink" x="0px" y="0px"
	 width="400px" height="400px" viewBox="0 0 400 400" enable-background="new 0 0 400 400" xml:space="preserve">
<g>
	<path fill="#D2D5D7" d="M372.414,339.903c0,0-58.883,44.338-186.207,44.338S0,340.455,0,339.903H372.414z"/>
	<path fill="#D2D5D7" d="M310.345,284.73c-3.807,0-6.896-3.082-6.896-6.896c0-3.813,3.09-6.896,6.896-6.896
		c41.387,0,72.09-25.71,75.538-62.068h-61.745c-3.807,0-6.896-3.083-6.896-6.896c0-3.814,3.09-6.897,6.896-6.897h68.966
		c3.807,0,6.896,3.083,6.896,6.897C400,249.152,361.455,284.73,310.345,284.73z"/>
	<path fill="#E6E6E6" d="M109.952,144.869c-1.766,0-3.531-0.676-4.876-2.021c-6-6-9.31-13.972-9.31-22.448
		c0-8.476,3.303-16.455,9.31-22.455c3.4-3.386,5.269-7.903,5.269-12.697c0-4.793-1.869-9.31-5.269-12.703
		c-2.696-2.697-2.696-7.055,0-9.752c2.69-2.696,7.055-2.696,9.752,0c6,6,9.31,13.973,9.31,22.455c0,8.483-3.303,16.456-9.31,22.456
		c-3.393,3.393-5.269,7.903-5.269,12.703c0,4.787,1.869,9.304,5.269,12.697c2.696,2.696,2.696,7.055,0,9.751
		C113.49,144.2,111.717,144.869,109.952,144.869z"/>
	<path fill="#E6E6E6" d="M261.676,144.869c-1.766,0-3.531-0.676-4.876-2.021c-6-6-9.31-13.972-9.31-22.448
		c0-8.476,3.303-16.455,9.31-22.455c3.4-3.386,5.269-7.903,5.269-12.697c0-4.793-1.868-9.31-5.269-12.703
		c-2.696-2.697-2.696-7.055,0-9.752c2.69-2.696,7.056-2.696,9.752,0c6,6,9.311,13.973,9.311,22.455
		c0,8.483-3.304,16.456-9.311,22.456c-3.394,3.393-5.269,7.903-5.269,12.703c0,4.787,1.869,9.304,5.269,12.697
		c2.696,2.696,2.696,7.055,0,9.751C265.214,144.2,263.441,144.869,261.676,144.869z"/>
	<path fill="#E6E6E6" d="M185.386,124.179c-1.766,0-3.531-0.676-4.876-2.021c-7.627-7.621-11.828-17.752-11.828-28.531
		s4.2-20.903,11.828-28.538c5.021-5.028,7.786-11.69,7.786-18.779c0-7.09-2.765-13.759-7.786-18.786
		c-2.696-2.697-2.696-7.056,0-9.752c2.697-2.697,7.055-2.697,9.752,0c7.627,7.627,11.828,17.759,11.828,28.538
		s-4.2,20.903-11.828,28.531c-5.021,5.028-7.786,11.69-7.786,18.786c0,7.083,2.765,13.752,7.786,18.779
		c2.696,2.697,2.696,7.055,0,9.752C188.924,123.51,187.152,124.179,185.386,124.179z"/>
	<path fill="#E6E6E6" d="M113.366,339.903h145.675c48.862-29.38,71.993-88.29,71.993-158.621H41.379
		C41.379,251.613,64.51,310.523,113.366,339.903z"/>
	<path fill="#FBD490" d="M137.931,250.248c-3.807,0-6.896-3.082-6.896-6.896v-68.965c0-3.814,3.089-6.896,6.896-6.896
		c3.807,0,6.896,3.083,6.896,6.896v68.965C144.828,247.158,141.738,250.248,137.931,250.248z"/>
	<rect x="106.207" y="229.559" fill="#F9D70B" width="63.448" height="79.311"/>
	<rect x="106.207" y="277.834" fill="#EEAF4B" width="63.448" height="31.035"/>
</g>
</svg>
