<?xml version="1.0" encoding="utf-8"?>
<!-- Generator: Adobe Illustrator 16.0.0, SVG Export Plug-In . SVG Version: 6.00 Build 0)  -->
<!DOCTYPE svg PUBLIC "-//W3C//DTD SVG 1.1//EN" "http://www.w3.org/Graphics/SVG/1.1/DTD/svg11.dtd">
<svg version="1.1" id="Capa_1" xmlns="http://www.w3.org/2000/svg" xmlns:xlink="http://www.w3.org/1999/xlink" x="0px" y="0px"
	 width="400px" height="400px" viewBox="0 0 400 400" enable-background="new 0 0 400 400" xml:space="preserve">
<g>
	<path fill="#88C057" d="M313.241,65.466c-19.83-12.709-57.075-30.419-92.858-14.056c-3.443,1.579-7.367-0.906-7.367-4.698V13.824
		C213.022,6.223,207.859,0,201.552,0h-17.206c-6.308,0-11.471,6.223-11.471,13.824v34.838c0,3.29-2.98,5.782-6.208,5.116
		c-14.528-2.996-52.253-7.655-88.33,13.893c-4.938,2.949-2.074,10.689,3.591,9.652c16.796-3.073,38.902-5.186,53.84,0.712
		c3.917,1.54,4.481,6.896,0.959,9.203c-10.611,6.928-30.186,22.857-43.012,52.145c-2.183,4.985,3.948,9.451,8.15,5.991
		c16.386-13.499,43.345-31.789,66.209-28.84c2.693,0.348,4.737,2.546,4.698,5.263c-0.232,15.341-0.039,67.463,12.632,87.192
		c1.997,3.111,6.471,3.266,8.646,0.271c8.073-11.091,25.573-40.503,24.854-86.433c-0.046-3.019,2.376-5.473,5.395-5.372
		c11.532,0.371,38.763,3.63,60.357,24.722c3.537,3.46,9.396,0.472,8.777-4.435c-1.695-13.429-9.087-33.739-35.845-49.49
		c-4.063-2.392-3.375-8.475,1.2-9.598c9.241-2.268,25.171-4.427,51.425-3.561C315.548,75.257,317.723,68.337,313.241,65.466z"/>
	<path fill="#D13834" d="M319.263,77.323c-0.72-0.503-1.556-0.82-2.43-0.929c-3.097-0.379-6.2-0.735-9.296-1.153
		c-1.107-0.108-2.222-0.193-3.32-0.302c-22.555-0.372-36.711,1.595-45.249,3.669c-4.636,1.13-5.472,7.206-1.354,9.628
		c26.758,15.751,34.142,36.061,35.837,49.482c0.619,4.907-5.24,7.895-8.777,4.435c-21.595-21.084-48.825-24.342-60.357-24.722
		c-3.019-0.101-5.448,2.353-5.395,5.372c0.712,45.93-16.78,75.342-24.854,86.434c-2.183,2.995-6.649,2.84-8.646-0.271
		c-12.67-19.729-12.864-71.851-12.632-87.192c0.039-2.709-2.004-4.915-4.698-5.263c-22.864-2.957-49.823,15.341-66.208,28.839
		c-4.203,3.46-10.333-1.006-8.15-5.991c12.81-29.25,32.354-45.171,42.973-52.114c3.537-2.314,2.949-7.693-0.991-9.21
		c-2.872-1.107-6.006-1.927-9.312-2.508c-0.588-0.108-1.215-0.116-1.811-0.031c-18.77,2.554-37.207,6.122-55.102,10.921
		c-0.79,0.209-1.525,0.588-2.152,1.115c-39.498,32.864-64.297,80.18-64.297,132.79C3.042,319.557,91.225,400,199.996,400
		S396.95,319.557,396.95,220.322C396.958,161.984,366.478,110.142,319.263,77.323z"/>
	<path fill="#ED7161" d="M44.823,268.086c-2.647,0-5.225-1.355-6.664-3.793c-5.79-9.775-9.583-20.573-11.277-32.09
		c-0.619-4.234,2.307-8.166,6.533-8.785c4.303-0.666,8.166,2.307,8.785,6.532c1.378,9.389,4.59,18.538,9.281,26.456
		c2.175,3.676,0.967,8.429-2.717,10.604C47.524,267.737,46.162,268.086,44.823,268.086z"/>
	<path fill="#ED7161" d="M35.512,206.49c-0.178,0-0.364-0.008-0.542-0.023c-4.272-0.294-7.485-3.994-7.19-8.251
		c0.728-10.271,2.833-20.248,6.277-29.675c1.463-4.017,5.891-6.061,9.931-4.613c4.017,1.463,6.076,5.914,4.613,9.931
		c-2.949,8.057-4.752,16.61-5.372,25.426C42.942,203.371,39.544,206.49,35.512,206.49z"/>
</g>
</svg>
