<?xml version="1.0" encoding="utf-8"?>
<!-- Generator: Adobe Illustrator 16.0.0, SVG Export Plug-In . SVG Version: 6.00 Build 0)  -->
<!DOCTYPE svg PUBLIC "-//W3C//DTD SVG 1.1//EN" "http://www.w3.org/Graphics/SVG/1.1/DTD/svg11.dtd">
<svg version="1.1" id="Capa_1" xmlns="http://www.w3.org/2000/svg" xmlns:xlink="http://www.w3.org/1999/xlink" x="0px" y="0px"
	 width="400px" height="400px" viewBox="0 0 400 400" enable-background="new 0 0 400 400" xml:space="preserve">
<g>
	<path fill="#DAE7EF" d="M270.455,276.89c-1.462-18.11-6.669-35.538-13.221-52.489c-8.021-20.752-6.379-50.097,5.51-65.483
		c6.056-7.834,8.718-17.869,8.67-27.772c-0.338-64.159-35.193-79.469-44.91-82.49c-2.056-0.642-3.793-1.966-4.863-3.841
		c-2.192-3.821-3.455-8.973-4.179-13.876c-0.662-4.49-4.579-7.669-9.104-7.29C205.683,23.876,202.89,24,200,24
		s-5.683-0.124-8.358-0.352c-4.524-0.379-8.441,2.8-9.104,7.29c-0.724,4.903-1.986,10.055-4.18,13.876
		c-1.069,1.869-2.807,3.2-4.862,3.841c-9.717,3.021-44.58,18.338-44.91,82.49c-0.048,9.903,2.606,19.938,8.669,27.772
		c11.896,15.387,13.531,44.731,5.51,65.483c-6.552,16.944-11.752,34.379-13.221,52.489c-2.414,29.821-4.648,71.276-1.559,99.104
		c0,13.255,19.407,24,68.014,24c48.607,0,76.014-10.745,76.014-24C275.104,348.172,272.869,306.717,270.455,276.89z"/>
	<path fill="#3DABEF" d="M128.717,127.917c-0.028,1.097-0.124,2.104-0.131,3.228c-0.055,9.903,2.614,19.938,8.669,27.772
		c11.896,15.387,13.531,44.731,5.51,65.483c-6.552,16.944-11.752,34.379-13.221,52.489c-0.083,1.014-0.159,2.138-0.242,3.179
		C147.4,284.959,172.352,288,200,288s52.6-3.041,70.697-7.924c-0.084-1.041-0.159-2.166-0.242-3.18
		c-1.462-18.11-6.669-35.545-13.221-52.49c-8.021-20.751-6.387-50.096,5.51-65.482c6.056-7.834,8.718-17.869,8.67-27.772
		c-0.008-1.131-0.104-2.131-0.131-3.228C253.145,132.89,227.945,136,200,136C172.055,136,146.848,132.89,128.717,127.917z"/>
	<path fill="#FFFFFF" d="M184.428,374.896c-14.055,0-24.166-3.234-30.09-9.627c-5.138-5.545-5.324-11.58-5.234-13.545V344
		c0-3.814,3.083-6.896,6.896-6.896s6.896,3.082,6.896,6.896l-0.048,8.717l0,0c0.021,0,0.076,1.684,1.855,3.441
		c2.11,2.076,7.945,5.524,23.034,4.883c3.883-0.241,7.021,2.814,7.159,6.621c0.145,3.807-2.813,7.014-6.621,7.158
		C186.958,374.869,185.676,374.896,184.428,374.896z"/>
	<path fill="#FFFFFF" d="M155.993,326.89c-3.814,0-6.896-3.083-6.896-6.896v-8.069c0-3.813,3.083-6.896,6.896-6.896
		s6.896,3.083,6.896,6.896v8.069C162.89,323.807,159.807,326.89,155.993,326.89z"/>
	<path fill="#FFFFFF" d="M164.007,110.896c-0.407,0-0.807-0.034-1.228-0.11c-3.745-0.676-6.241-4.255-5.572-8.007
		c4.565-25.497,26.848-36.538,27.786-36.993c3.462-1.641,7.559-0.207,9.214,3.207c1.648,3.421,0.228,7.538-3.187,9.2
		c-0.338,0.165-16.952,8.683-20.241,27.027C170.186,108.552,167.283,110.896,164.007,110.896z"/>
	<path fill="#003879" d="M200,0c-12.373,0-22.4,3.345-22.4,7.469v22.4c0,4.124,10.027,7.469,22.4,7.469
		c12.373,0,22.4-3.345,22.4-7.469v-22.4C222.4,3.345,212.373,0,200,0z"/>
	<path fill="#1A69B7" d="M198.952,19.517h-5.607c-1.903,0-3.448-1.544-3.448-3.448c0-1.903,1.545-3.448,3.448-3.448h5.607
		c1.904,0,3.449,1.545,3.449,3.448C202.4,17.973,200.855,19.517,198.952,19.517z"/>
</g>
</svg>
